<?xml version="1.0" encoding="UTF-8" standalone="no"?>
<!DOCTYPE svg PUBLIC "-//W3C//DTD SVG 1.1//EN"
 "http://www.w3.org/Graphics/SVG/1.1/DTD/svg11.dtd">
<!-- Generated by graphviz version 2.47.3 (20210619.1520)
 -->
<!-- Title: dependencies Pages: 1 -->
<svg width="634pt" height="247pt"
 viewBox="0.00 0.00 634.00 246.80" xmlns="http://www.w3.org/2000/svg" xmlns:xlink="http://www.w3.org/1999/xlink">
<g id="graph0" class="graph" transform="scale(1 1) rotate(0) translate(4 242.8)">
<title>dependencies</title>
<polygon fill="white" stroke="transparent" points="-4,4 -4,-242.8 630,-242.8 630,4 -4,4"/>
<text text-anchor="middle" x="313" y="-8.2" font-family="sans-serif" font-size="14.00">dependencies</text>
<g id="clust1" class="cluster">
<title>cluster_ProductDetailsModule</title>
<polygon fill="none" stroke="black" stroke-dasharray="1,5" points="8,-32.8 8,-230.8 618,-230.8 618,-32.8 8,-32.8"/>
</g>
<g id="clust2" class="cluster">
<title>cluster_ProductDetailsModule_declarations</title>
<polygon fill="none" stroke="black" points="256,-40.8 256,-92.8 610,-92.8 610,-40.8 256,-40.8"/>
</g>
<g id="clust5" class="cluster">
<title>cluster_ProductDetailsModule_imports</title>
<polygon fill="none" stroke="black" points="16,-40.8 16,-92.8 248,-92.8 248,-40.8 16,-40.8"/>
</g>
<g id="clust6" class="cluster">
<title>cluster_ProductDetailsModule_exports</title>
<polygon fill="none" stroke="black" points="97,-170.8 97,-222.8 457,-222.8 457,-170.8 97,-170.8"/>
</g>
<!-- KycStepsMFComponent -->
<g id="node1" class="node">
<title>KycStepsMFComponent</title>
<polygon fill="#ffffb3" stroke="black" points="601.71,-84.8 446.29,-84.8 446.29,-48.8 601.71,-48.8 601.71,-84.8"/>
<text text-anchor="middle" x="524" y="-62.6" font-family="Times,serif" font-size="14.00">KycStepsMFComponent</text>
</g>
<!-- ProductDetailsModule -->
<g id="node3" class="node">
<title>ProductDetailsModule</title>
<polygon fill="#8dd3c7" stroke="black" points="340.25,-149.8 337.25,-153.8 316.25,-153.8 313.25,-149.8 197.75,-149.8 197.75,-113.8 340.25,-113.8 340.25,-149.8"/>
<text text-anchor="middle" x="269" y="-127.6" font-family="Times,serif" font-size="14.00">ProductDetailsModule</text>
</g>
<!-- KycStepsMFComponent&#45;&gt;ProductDetailsModule -->
<g id="edge1" class="edge">
<title>KycStepsMFComponent&#45;&gt;ProductDetailsModule</title>
<path fill="none" stroke="black" d="M525.48,-84.91C525.48,-104.14 525.48,-131.8 525.48,-131.8 525.48,-131.8 350.44,-131.8 350.44,-131.8"/>
<polygon fill="black" stroke="black" points="350.44,-128.3 340.44,-131.8 350.44,-135.3 350.44,-128.3"/>
</g>
<!-- ProductDetailsComponent -->
<g id="node2" class="node">
<title>ProductDetailsComponent</title>
<polygon fill="#ffffb3" stroke="black" points="428.03,-84.8 263.97,-84.8 263.97,-48.8 428.03,-48.8 428.03,-84.8"/>
<text text-anchor="middle" x="346" y="-62.6" font-family="Times,serif" font-size="14.00">ProductDetailsComponent</text>
</g>
<!-- ProductDetailsComponent&#45;&gt;ProductDetailsModule -->
<g id="edge2" class="edge">
<title>ProductDetailsComponent&#45;&gt;ProductDetailsModule</title>
<path fill="none" stroke="black" d="M302.05,-84.91C302.05,-84.91 302.05,-103.79 302.05,-103.79"/>
<polygon fill="black" stroke="black" points="298.55,-103.79 302.05,-113.79 305.55,-103.79 298.55,-103.79"/>
</g>
<!-- KycStepsMFComponent  -->
<g id="node6" class="node">
<title>KycStepsMFComponent </title>
<polygon fill="#fb8072" stroke="black" points="449.21,-214.8 290.79,-214.8 290.79,-178.8 449.21,-178.8 449.21,-214.8"/>
<text text-anchor="middle" x="370" y="-192.6" font-family="Times,serif" font-size="14.00">KycStepsMFComponent </text>
</g>
<!-- ProductDetailsModule&#45;&gt;KycStepsMFComponent  -->
<g id="edge5" class="edge">
<title>ProductDetailsModule&#45;&gt;KycStepsMFComponent </title>
<path fill="none" stroke="black" stroke-dasharray="5,2" d="M315.51,-149.91C315.51,-149.91 315.51,-168.79 315.51,-168.79"/>
<polygon fill="black" stroke="black" points="312.01,-168.79 315.51,-178.79 319.01,-168.79 312.01,-168.79"/>
</g>
<!-- ProductDetailsComponent  -->
<g id="node7" class="node">
<title>ProductDetailsComponent </title>
<polygon fill="#fb8072" stroke="black" points="273.03,-214.8 104.97,-214.8 104.97,-178.8 273.03,-178.8 273.03,-214.8"/>
<text text-anchor="middle" x="189" y="-192.6" font-family="Times,serif" font-size="14.00">ProductDetailsComponent </text>
</g>
<!-- ProductDetailsModule&#45;&gt;ProductDetailsComponent  -->
<g id="edge6" class="edge">
<title>ProductDetailsModule&#45;&gt;ProductDetailsComponent </title>
<path fill="none" stroke="black" stroke-dasharray="5,2" d="M235.32,-149.91C235.32,-149.91 235.32,-168.79 235.32,-168.79"/>
<polygon fill="black" stroke="black" points="231.82,-168.79 235.32,-178.79 238.82,-168.79 231.82,-168.79"/>
</g>
<!-- CoreModule -->
<g id="node4" class="node">
<title>CoreModule</title>
<polygon fill="#8dd3c7" stroke="black" points="240.26,-84.8 237.26,-88.8 216.26,-88.8 213.26,-84.8 153.74,-84.8 153.74,-48.8 240.26,-48.8 240.26,-84.8"/>
<text text-anchor="middle" x="197" y="-62.6" font-family="Times,serif" font-size="14.00">CoreModule</text>
</g>
<!-- CoreModule&#45;&gt;ProductDetailsModule -->
<g id="edge3" class="edge">
<title>CoreModule&#45;&gt;ProductDetailsModule</title>
<path fill="none" stroke="black" d="M219,-84.91C219,-84.91 219,-103.79 219,-103.79"/>
<polygon fill="black" stroke="black" points="215.5,-103.79 219,-113.79 222.5,-103.79 215.5,-103.79"/>
</g>
<!-- TranslateModule -->
<g id="node5" class="node">
<title>TranslateModule</title>
<polygon fill="#8dd3c7" stroke="black" points="135.63,-84.8 132.63,-88.8 111.63,-88.8 108.63,-84.8 24.37,-84.8 24.37,-48.8 135.63,-48.8 135.63,-84.8"/>
<text text-anchor="middle" x="80" y="-62.6" font-family="Times,serif" font-size="14.00">TranslateModule</text>
</g>
<!-- TranslateModule&#45;&gt;ProductDetailsModule -->
<g id="edge4" class="edge">
<title>TranslateModule&#45;&gt;ProductDetailsModule</title>
<path fill="none" stroke="black" d="M120.4,-84.91C120.4,-104.14 120.4,-131.8 120.4,-131.8 120.4,-131.8 187.75,-131.8 187.75,-131.8"/>
<polygon fill="black" stroke="black" points="187.75,-135.3 197.75,-131.8 187.75,-128.3 187.75,-135.3"/>
</g>
</g>
</svg>
