<svg xmlns="http://www.w3.org/2000/svg" width="16.658" height="15.377" viewBox="0 0 16.658 15.377">
  <path id="Configuration_Icon" data-name="Configuration Icon" d="M.521,6.746H4.754A2.108,2.108,0,0,0,6.767,8.393,2.108,2.108,0,0,0,8.781,6.746h7.356a.55.55,0,0,0,0-1.1H8.781A2.108,2.108,0,0,0,6.767,4,2.108,2.108,0,0,0,4.754,5.648H.521a.55.55,0,0,0,0,1.1ZM6.767,5.1A1.1,1.1,0,1,1,5.726,6.2,1.072,1.072,0,0,1,6.767,5.1Zm9.37,6.041H13.987a2.055,2.055,0,0,0-4.028,0H.521a.55.55,0,0,0,0,1.1H9.959a2.055,2.055,0,0,0,4.028,0h2.151a.55.55,0,0,0,0-1.1Zm-4.165,1.648a1.1,1.1,0,1,1,1.041-1.1A1.072,1.072,0,0,1,11.973,12.787Zm4.165,3.844H14.055a.55.55,0,0,0,0,1.1h2.082a.55.55,0,0,0,0-1.1Zm-6.247,0H6.7a2.108,2.108,0,0,0-2.014-1.648,2.108,2.108,0,0,0-2.014,1.648H.521a.55.55,0,0,0,0,1.1H2.671a2.108,2.108,0,0,0,2.014,1.648A2.108,2.108,0,0,0,6.7,17.73H9.891a.55.55,0,0,0,0-1.1ZM4.685,18.279a1.1,1.1,0,0,1,0-2.2,1.072,1.072,0,0,1,1.041,1.1h0A1.072,1.072,0,0,1,4.685,18.279ZM11.6,16.793a.572.572,0,0,0,0,.777.5.5,0,0,0,.737,0,.572.572,0,0,0,0-.777A.519.519,0,0,0,11.6,16.793Z" transform="translate(0 -4)" fill="#4f556e"/>
</svg>
