<svg xmlns="http://www.w3.org/2000/svg" width="16" height="16" viewBox="0 0 16 16">
  <g id="Help_Icon" data-name="Help Icon" transform="translate(10104.162 3542.709)">
    <path id="help_3_" data-name="help (3)" d="M12,4a8,8,0,1,0,8,8A8,8,0,0,0,12,4Zm0,.571a7.379,7.379,0,0,1,3.978,1.165l-2.1,2.1a4.525,4.525,0,0,0-3.755,0l-2.1-2.1A7.379,7.379,0,0,1,12,4.571ZM7.837,13.878l-2.1,2.1a7.372,7.372,0,0,1,0-7.955l2.1,2.1a4.525,4.525,0,0,0,0,3.755ZM12,19.429a7.379,7.379,0,0,1-3.978-1.165l2.1-2.1a4.525,4.525,0,0,0,3.755,0l2.1,2.1A7.379,7.379,0,0,1,12,19.429Zm3.727-5.984A3.993,3.993,0,1,1,16,12,4.011,4.011,0,0,1,15.727,13.445Zm.437.433a4.525,4.525,0,0,0,0-3.755l2.1-2.1a7.372,7.372,0,0,1,0,7.955l-2.1-2.1Z" transform="translate(-10108.162 -3546.709)" fill="#4f556e"/>
  </g>
</svg>
