<svg xmlns="http://www.w3.org/2000/svg" width="17.415" height="18.491" viewBox="0 0 17.415 18.491">
  <g id="Settings_Icon" data-name="Settings Icon" transform="translate(0.712 0.6)">
    <path id="Path_21062" data-name="Path 21062" d="M16.546,5.587l-.56-.972a1.721,1.721,0,0,0-2.347-.634h0a1.713,1.713,0,0,1-2.347-.609,1.648,1.648,0,0,1-.231-.823h0A1.721,1.721,0,0,0,9.341.778H8.213A1.713,1.713,0,0,0,6.5,2.5h0A1.721,1.721,0,0,1,4.78,4.2a1.647,1.647,0,0,1-.823-.231h0A1.721,1.721,0,0,0,1.61,4.6l-.6.988a1.721,1.721,0,0,0,.626,2.347h0a1.721,1.721,0,0,1,0,2.981h0a1.713,1.713,0,0,0-.626,2.338h0l.568.98a1.721,1.721,0,0,0,2.347.667h0a1.7,1.7,0,0,1,2.338.626,1.647,1.647,0,0,1,.231.823h0a1.721,1.721,0,0,0,1.721,1.721H9.341a1.721,1.721,0,0,0,1.721-1.713h0a1.713,1.713,0,0,1,1.721-1.721,1.753,1.753,0,0,1,.823.231h0a1.721,1.721,0,0,0,2.347-.626h0l.593-.988a1.713,1.713,0,0,0-.626-2.347h0a1.713,1.713,0,0,1-.626-2.347,1.688,1.688,0,0,1,.626-.626h0a1.721,1.721,0,0,0,.626-2.338h0Z" transform="translate(-0.779 -0.778)" fill="none" stroke="#4f556e" stroke-linecap="round" stroke-linejoin="round" stroke-width="1.2" fill-rule="evenodd"/>
    <circle id="Ellipse_383" data-name="Ellipse 383" cx="2.636" cy="2.636" r="2.636" transform="translate(5.367 6.009)" fill="none" stroke="#4f556e" stroke-linecap="round" stroke-linejoin="round" stroke-width="1.2"/>
  </g>
</svg>
