<svg id="alert-triangle" xmlns="http://www.w3.org/2000/svg" width="52.97" height="47.03" viewBox="0 0 52.97 47.03">
  <rect id="Rectangle_7941" data-name="Rectangle 7941" width="52.97" height="45.718" fill="#d23d50" opacity="0"/>
  <g id="Path_16636" data-name="Path 16636" transform="translate(1.49 1.411)">
    <path id="Path_18780" data-name="Path 18780" d="M312.075,325.318,294.63,294.782a7.587,7.587,0,0,0-13.147,0l-17.445,30.535a7.576,7.576,0,0,0,6.574,11.283H305.5a7.531,7.531,0,0,0,6.573-11.283Z" transform="translate(-263.067 -290.982)" fill="none"/>
    <path id="Path_18781" data-name="Path 18781" d="M305.585,334.394a5.415,5.415,0,0,0,4.667-2.838,5.33,5.33,0,0,0-.087-5.134l0,0,0-.006L292.73,295.9a5.378,5.378,0,0,0-9.343,0l-17.428,30.5a5.347,5.347,0,0,0-.085,5.073,5.417,5.417,0,0,0,4.711,2.912h35m0,2.207h-35a7.577,7.577,0,0,1-6.545-11.283l17.445-30.534a7.586,7.586,0,0,1,13.147,0l17.445,30.534a7.531,7.531,0,0,1-6.49,11.284Z" transform="translate(-263.068 -290.982)" fill="#d23d50"/>
  </g>
  <path id="Union_2" data-name="Union 2" d="M278.424,322.831a2.409,2.409,0,1,1,2.412,2.406h-.006A2.409,2.409,0,0,1,278.424,322.831Zm0-9.858v-12.36a2.483,2.483,0,1,1,4.816,0v12.36a2.483,2.483,0,1,1-4.816,0Z" transform="translate(-254.346 -284.228)" fill="#d23d50"/>
</svg>
