<svg xmlns="http://www.w3.org/2000/svg" width="14.253" height="16.29" viewBox="0 0 14.253 16.29">
  <g id="copy-two-paper-sheets-interface-symbol" transform="translate(-43.714)">
    <g id="_x33__21_" transform="translate(43.714)">
      <g id="Group_242" data-name="Group 242" transform="translate(0)">
        <path id="Path_139" data-name="Path 139" d="M54.4,0H48.3a2.121,2.121,0,0,0-2.036,2.036l-.588.014a2.039,2.039,0,0,0-1.957,2.022V14.253A2.121,2.121,0,0,0,45.75,16.29h7.636a2.121,2.121,0,0,0,2.036-2.036h.509a2.121,2.121,0,0,0,2.036-2.036V4.085ZM53.386,15.271H45.75a1.067,1.067,0,0,1-1.018-1.018V4.072a1.009,1.009,0,0,1,.97-1l.557-.017v9.163A2.121,2.121,0,0,0,48.3,14.253H54.4A1.067,1.067,0,0,1,53.386,15.271Zm3.563-3.054a1.068,1.068,0,0,1-1.018,1.018H48.3a1.067,1.067,0,0,1-1.018-1.018V2.036A1.067,1.067,0,0,1,48.3,1.018h5.091c-.008,1.172,0,2.049,0,2.049a2.1,2.1,0,0,0,2.036,2.023h1.527ZM55.422,4.072c-.542,0-1.018-.985-1.018-1.513V1.034h0l2.545,3.04ZM54.4,7.136H49.823a.509.509,0,1,0,0,1.017H54.4a.509.509,0,1,0,0-1.017Zm0,2.543H49.823a.509.509,0,1,0,0,1.017H54.4a.509.509,0,1,0,0-1.017Z" transform="translate(-43.714)" fill="#b2b2b2"/>
      </g>
    </g>
  </g>
</svg>
