<svg xmlns="http://www.w3.org/2000/svg" width="32" height="32" viewBox="0 0 32 32">
  <g id="Group_22759" data-name="Group 22759" transform="translate(-52 -484)">
    <rect id="Rectangle_9479" data-name="Rectangle 9479" width="32" height="32" transform="translate(52 484)" fill="none"/>
    <g id="Group_22758" data-name="Group 22758" transform="translate(-25 -2.33)">
      <g id="Subtraction_22" data-name="Subtraction 22" transform="translate(82.998 488.33)" fill="#fff">
        <path d="M 10.20419692993164 26.91959953308105 C 4.99212646484375 26.91959953308105 0.7518064379692078 22.67926979064941 0.7518064379692078 17.46719932556152 L 0.7518064379692078 6.46688985824585 L 10.16819667816162 0.8715212345123291 L 19.65660667419434 6.509670257568359 L 19.65660667419434 17.46719932556152 C 19.65660667419434 22.67926979064941 15.4162769317627 26.91959953308105 10.20419692993164 26.91959953308105 Z" stroke="none"/>
        <path d="M 10.20419692993164 26.16959953308105 C 15.00272655487061 26.16959953308105 18.90660667419434 22.26572036743164 18.90660667419434 17.46719932556152 L 18.90660667419434 6.936424732208252 L 10.16819763183594 1.743936896324158 L 1.501806497573853 6.893643856048584 L 1.501806497573853 17.46719932556152 C 1.501806497573853 22.26572036743164 5.405686378479004 26.16959953308105 10.20419692993164 26.16959953308105 M 10.20419692993164 27.66959953308105 C 4.578576564788818 27.66959953308105 0.001806466723792255 23.09281921386719 0.001806466723792255 17.46719932556152 L 0.001806466723792255 6.040129661560059 L 10.16819667816162 -0.0009003677405416965 L 20.40660667419434 6.08290958404541 L 20.40660667419434 17.46719932556152 C 20.40660667419434 23.09281921386719 15.82982635498047 27.66959953308105 10.20419692993164 27.66959953308105 Z" stroke="none" fill="#44c8f5"/>
      </g>
      <g id="Group_22757" data-name="Group 22757" transform="translate(86.5 494.854)">
        <circle id="Ellipse_601" data-name="Ellipse 601" cx="6" cy="6" r="6" transform="translate(0.5 1.146)" fill="none" stroke="#44c8f5" stroke-width="1"/>
        <path id="Path_16635" data-name="Path 16635" d="M14036.587,1033.081l1.9,2.018,3.971-3.618" transform="translate(-14033.211 -1026.335)" fill="none" stroke="#00307f" stroke-linecap="round" stroke-linejoin="round" stroke-width="1.5"/>
      </g>
    </g>
  </g>
</svg>
