<svg xmlns="http://www.w3.org/2000/svg" width="15" height="18" viewBox="0 0 15 18">
  <path id="Union_28" data-name="Union 28" d="M5.25,18A3.755,3.755,0,0,1,1.5,14.25V4.5H.75a.772.772,0,0,1-.531-.218.756.756,0,0,1,0-1.063A.788.788,0,0,1,.75,3H3.074A3.772,3.772,0,0,1,6.75,0h1.5a3.72,3.72,0,0,1,2.371.849A3.745,3.745,0,0,1,11.93,3h2.32a.79.79,0,0,1,.535.218.765.765,0,0,1,0,1.063.774.774,0,0,1-.535.218H13.5v9.75A3.762,3.762,0,0,1,9.75,18ZM3,14.25a2.228,2.228,0,0,0,.66,1.592,2.257,2.257,0,0,0,1.59.658h4.5A2.244,2.244,0,0,0,12,14.25V4.5H3ZM5.457,1.912A2.314,2.314,0,0,0,4.629,3h5.746a2.307,2.307,0,0,0-.824-1.088A2.261,2.261,0,0,0,8.25,1.5H6.75A2.228,2.228,0,0,0,5.457,1.912Zm3.016,11.37a.716.716,0,0,1-.223-.532V8.25a.723.723,0,0,1,.223-.532A.771.771,0,0,1,9,7.5a.79.79,0,0,1,.535.218.763.763,0,0,1,.215.532v4.5a.756.756,0,0,1-.215.532A.774.774,0,0,1,9,13.5.756.756,0,0,1,8.473,13.282Zm-3,0a.744.744,0,0,1-.219-.532V8.25a.75.75,0,0,1,.219-.532.756.756,0,0,1,1.063,0,.767.767,0,0,1,.219.532v4.5A.746.746,0,0,1,6,13.5.772.772,0,0,1,5.469,13.282Z" fill="#b2b2b2"/>
</svg>
