<svg xmlns="http://www.w3.org/2000/svg" width="16.504" height="16.538" viewBox="0 0 16.504 16.538">
  <g id="Group_19762" data-name="Group 19762" transform="translate(-328.964 -1431)">
    <path id="Path_409" data-name="Path 409" d="M655.075,208h-2.158a2.893,2.893,0,0,0-2.035.833,2.821,2.821,0,0,0-.843,2.009v2.131a2.821,2.821,0,0,0,.843,2.009,2.893,2.893,0,0,0,2.035.833h2.158a2.893,2.893,0,0,0,2.035-.833,2.821,2.821,0,0,0,.843-2.009v-2.131a2.821,2.821,0,0,0-.843-2.009,2.893,2.893,0,0,0-2.035-.833Zm1.439,4.973a1.412,1.412,0,0,1-.422,1,1.449,1.449,0,0,1-1.017.416h-2.158a1.449,1.449,0,0,1-1.017-.416,1.413,1.413,0,0,1-.422-1v-2.131a1.413,1.413,0,0,1,.422-1,1.449,1.449,0,0,1,1.017-.416h2.158a1.449,1.449,0,0,1,1.017.416,1.412,1.412,0,0,1,.422,1Z" transform="translate(-321.075 1223)" fill="#039"/>
    <path id="Path_410" data-name="Path 410" d="M655.075,221h-2.158a2.893,2.893,0,0,0-2.035.833,2.821,2.821,0,0,0-.843,2.009v2.131a2.821,2.821,0,0,0,.843,2.009,2.893,2.893,0,0,0,2.035.833h2.158a2.893,2.893,0,0,0,2.035-.833,2.821,2.821,0,0,0,.843-2.009v-2.131a2.821,2.821,0,0,0-.843-2.009A2.893,2.893,0,0,0,655.075,221Zm1.439,4.973a1.412,1.412,0,0,1-.422,1,1.449,1.449,0,0,1-1.017.416h-2.158a1.449,1.449,0,0,1-1.017-.416,1.413,1.413,0,0,1-.422-1v-2.131a1.413,1.413,0,0,1,.422-1,1.449,1.449,0,0,1,1.017-.416h2.158a1.448,1.448,0,0,1,1.017.416,1.412,1.412,0,0,1,.422,1Z" transform="translate(-321.075 1218.723)" fill="#039"/>
    <path id="Path_426" data-name="Path 426" d="M670.027,221.139l-1.379,1.578V209.829l1.379,1.578a.607.607,0,0,0,.2.149.537.537,0,0,0,.23.052.527.527,0,0,0,.23-.053.6.6,0,0,0,.2-.15.692.692,0,0,0,.13-.223.754.754,0,0,0,.046-.264.771.771,0,0,0-.046-.264.7.7,0,0,0-.131-.223l-1.556-1.78a1.647,1.647,0,0,0-2.55,0l-1.556,1.78a.712.712,0,0,0-.13.223.784.784,0,0,0,0,.528.693.693,0,0,0,.13.223.6.6,0,0,0,.195.15.532.532,0,0,0,.23.053.541.541,0,0,0,.23-.052.611.611,0,0,0,.195-.149l1.379-1.578v12.888l-1.379-1.578a.6.6,0,0,0-.195-.149.541.541,0,0,0-.23-.052.532.532,0,0,0-.23.053.609.609,0,0,0-.195.149.7.7,0,0,0-.13.224.784.784,0,0,0,0,.528.713.713,0,0,0,.13.223l1.556,1.78a1.647,1.647,0,0,0,2.55,0l1.556-1.78a.7.7,0,0,0,.131-.223.771.771,0,0,0,.046-.264.751.751,0,0,0-.046-.264.7.7,0,0,0-.13-.224.606.606,0,0,0-.2-.149.527.527,0,0,0-.23-.053.537.537,0,0,0-.23.052A.6.6,0,0,0,670.027,221.139Z" transform="translate(-325.585 1222.986)" fill="#039"/>
  </g>
</svg>
