<svg id="Group_20316" data-name="Group 20316" xmlns="http://www.w3.org/2000/svg" width="19.501" height="19.5" viewBox="0 0 19.501 19.5">
  <path id="Path_20785" data-name="Path 20785" d="M598.165-4417.437a9.746,9.746,0,0,1-4.992-2.669,9.743,9.743,0,0,1-2.669-4.992,9.737,9.737,0,0,1,.556-5.633,9.744,9.744,0,0,1,3.59-4.376,9.76,9.76,0,0,1,5.417-1.644,9.757,9.757,0,0,1,6.891,2.859,9.761,9.761,0,0,1,2.859,6.892,9.758,9.758,0,0,1-1.643,5.417,9.757,9.757,0,0,1-4.376,3.591,9.755,9.755,0,0,1-3.732.742A9.761,9.761,0,0,1,598.165-4417.437Z" transform="translate(-590.316 4436.75)" fill="#29ad00"/>
  <path id="Union_5" data-name="Union 5" d="M3.173,6.476a.713.713,0,0,1-.49-.244L.178,3.365a.721.721,0,1,1,1.086-.948L3.292,4.735,8.431.181a.722.722,0,1,1,.957,1.081L3.706,6.3a.726.726,0,0,1-.478.182A.272.272,0,0,1,3.173,6.476Z" transform="translate(4.935 6.511)" fill="#fff"/>
</svg>
