<svg xmlns="http://www.w3.org/2000/svg" width="36" height="36" viewBox="0 0 36 36">
  <g id="Group_21929" data-name="Group 21929" transform="translate(-1460 -22382)">
    <g id="Ellipse_1445" data-name="Ellipse 1445" transform="translate(1460 22382)" fill="#fff" stroke="#aceaff" stroke-width="1">
      <circle cx="18" cy="18" r="18" stroke="none"/>
      <circle cx="18" cy="18" r="17.5" fill="none"/>
    </g>
    <g id="select" transform="translate(1469 22391)">
      <path id="Path_15522" data-name="Path 15522" d="M16.539,21.325a6.23,6.23,0,0,1-2.6-.707,3.734,3.734,0,0,0-1.995-.49,1.025,1.025,0,0,1-.873-.27c-.1-.1-.569-.662.348-1.579a2.3,2.3,0,0,1,1.629-.6L9.87,14.507a1.113,1.113,0,0,1,0-1.577,1.115,1.115,0,0,1,.789-.329h0a1.1,1.1,0,0,1,.787.327l1.319,1.32a1.1,1.1,0,0,1,.209-.288,1.112,1.112,0,0,1,1.12-.277,1.117,1.117,0,0,1,1.78-.473,1.1,1.1,0,0,1,.21-.291,1.117,1.117,0,0,1,1.578,0l2.068,2.068c1.3,1.3,1.154,3.179-.353,4.686l-.01.01-.856.855a2.7,2.7,0,0,1-1.976.79Zm-4.39-1.968a4.783,4.783,0,0,1,2.116.568c2.286,1.085,3.213.558,3.713.066l.862-.862.008-.008c.913-.924,1.539-2.4.352-3.59l-2.074-2.074a.352.352,0,0,0-.5.5h0l.517.517a.383.383,0,1,1-.542.542L15.4,13.807a.351.351,0,0,0-.5.5l.862.862a.383.383,0,0,1-.542.542L14.015,14.5a.352.352,0,0,0-.6.251.345.345,0,0,0,.1.245l.862.862a.383.383,0,0,1-.542.542l-2.93-2.929a.346.346,0,0,0-.246-.1.356.356,0,0,0-.352.352.345.345,0,0,0,.1.246l3.964,3.964a.381.381,0,0,1,.058.466.386.386,0,0,1-.437.172c-.015,0-1.386-.4-2.039.254-.3.3-.34.479-.332.52.032.022.04.031.286.021.071,0,.15-.008.238-.008Zm4.211-6.168h.008Z" transform="translate(-2.233 -3.713)" fill="#039"/>
      <path id="Path_15523" data-name="Path 15523" d="M14.17,6.362H2.681A2.681,2.681,0,1,1,2.681,1H14.17a2.681,2.681,0,0,1,0,5.362ZM2.681,1.766a1.915,1.915,0,0,0,0,3.83H14.17a1.915,1.915,0,1,0,0-3.83Z" transform="translate(0 -1)" fill="#039"/>
      <path id="Path_15524" data-name="Path 15524" d="M4.149,5.3A1.149,1.149,0,1,1,5.3,4.149,1.15,1.15,0,0,1,4.149,5.3Zm0-1.532a.383.383,0,1,0,.383.383A.384.384,0,0,0,4.149,3.766Z" transform="translate(-0.702 -1.468)" fill="#039"/>
      <path id="Path_15525" data-name="Path 15525" d="M9.149,5.3A1.149,1.149,0,1,1,10.3,4.149,1.15,1.15,0,0,1,9.149,5.3Zm0-1.532a.383.383,0,1,0,.383.383A.384.384,0,0,0,9.149,3.766Z" transform="translate(-1.872 -1.468)" fill="#039"/>
      <path id="Path_15526" data-name="Path 15526" d="M5.745,12.362H2.681A2.681,2.681,0,0,1,2.681,7H14.17a2.684,2.684,0,0,1,2.681,2.681.383.383,0,0,1-.766,0A1.917,1.917,0,0,0,14.17,7.766H2.681a1.915,1.915,0,1,0,0,3.83H5.745a.383.383,0,1,1,0,.766Z" transform="translate(0 -2.404)" fill="#039"/>
      <path id="Path_15527" data-name="Path 15527" d="M4.149,11.3A1.149,1.149,0,1,1,5.3,10.149,1.15,1.15,0,0,1,4.149,11.3Zm0-1.532a.383.383,0,1,0,.383.383A.384.384,0,0,0,4.149,9.766Z" transform="translate(-0.702 -2.872)" fill="#039"/>
      <path id="Path_15528" data-name="Path 15528" d="M9.149,11.3A1.149,1.149,0,1,1,10.3,10.149,1.15,1.15,0,0,1,9.149,11.3Zm0-1.532a.383.383,0,1,0,.383.383A.384.384,0,0,0,9.149,9.766Z" transform="translate(-1.872 -2.872)" fill="#039"/>
      <path id="Path_15529" data-name="Path 15529" d="M7.277,18.362h-4.6a2.681,2.681,0,0,1,0-5.362H5.745a.383.383,0,1,1,0,.766H2.681a1.915,1.915,0,1,0,0,3.83h4.6a.383.383,0,0,1,0,.766Z" transform="translate(0 -3.809)" fill="#039"/>
      <path id="Path_15530" data-name="Path 15530" d="M4.149,17.3A1.149,1.149,0,1,1,5.3,16.149,1.15,1.15,0,0,1,4.149,17.3Zm0-1.532a.383.383,0,1,0,.383.383A.384.384,0,0,0,4.149,15.766Z" transform="translate(-0.702 -4.276)" fill="#039"/>
    </g>
    <rect id="Rectangle_9420" data-name="Rectangle 9420" width="36" height="36" transform="translate(1460 22382)" fill="none"/>
  </g>
</svg>
