<svg xmlns="http://www.w3.org/2000/svg" width="58" height="58" viewBox="0 0 58 58">
  <g id="Group_22302" data-name="Group 22302" transform="translate(2014 -385)">
    <circle id="Ellipse_1355" data-name="Ellipse 1355" cx="29" cy="29" r="29" transform="translate(-2014 385)" fill="#d9f5ff"/>
    <g id="Group_22294" data-name="Group 22294" transform="translate(-2006.435 391.304)">
      <rect id="Rectangle_9616" data-name="Rectangle 9616" width="44" height="44" transform="translate(0.435 -0.304)" fill="none"/>
      <g id="Layer_11" data-name="Layer 11" transform="translate(4.66 4.66)">
        <rect id="Rectangle_9617" data-name="Rectangle 9617" width="3.329" height="0.832" transform="translate(8.325 13.331)" fill="#039"/>
        <rect id="Rectangle_9618" data-name="Rectangle 9618" width="3.329" height="0.832" transform="translate(8.325 11.673)" fill="#039"/>
        <rect id="Rectangle_9619" data-name="Rectangle 9619" width="3.329" height="0.832" transform="translate(8.325 14.984)" fill="#039"/>
        <rect id="Rectangle_9620" data-name="Rectangle 9620" width="3.329" height="0.832" transform="translate(8.325 16.631)" fill="#039"/>
        <path id="Path_21131" data-name="Path 21131" d="M28.755,26.1l7.15,7.15.822-.822-7.289-7.289a7.526,7.526,0,1,0-13.386-6.774H14.9V5.632h.579a.579.579,0,0,0,.579-.579V1.579A.579.579,0,0,0,15.474,1H6.211a.579.579,0,0,0-.579.579V5.053a.579.579,0,0,0,.579.579H6.79V18.369H3.895a.579.579,0,0,0-.579.579v11H1.579A.579.579,0,0,0,1,30.527v2.316a.579.579,0,0,0,.579.579H20.106a.579.579,0,0,0,.579-.579V30.527a.579.579,0,0,0-.579-.579H18.369V27.186a7.474,7.474,0,0,0,8.511.515l9.026,9.026.822-.822-8.887-8.887A7.585,7.585,0,0,0,28.755,26.1ZM7.948,21.843h5.79v2.895a2.895,2.895,0,1,1-5.79,0Zm5.79-1.158H7.948V10.263h5.79ZM6.79,2.158H14.9V4.474H6.79Zm6.948,3.474V9.105H7.948V5.632Zm5.79,26.632H2.158V31.106H19.527ZM4.474,29.948V19.527H6.79v5.211a4.053,4.053,0,1,0,8.105,0V19.527h.787a7.474,7.474,0,0,0,1.528,6.542v3.879Zm12.158-8.684A6.369,6.369,0,1,1,23,27.632,6.369,6.369,0,0,1,16.632,21.264Z" transform="translate(-1 -1)" fill="#44c8f5"/>
        <path id="Path_21132" data-name="Path 21132" d="M35.209,27a5.209,5.209,0,1,0,5.209,5.209A5.209,5.209,0,0,0,35.209,27Zm0,9.507a4.513,4.513,0,0,1-4.328-4.3,4.351,4.351,0,0,1,8.7,0A4.555,4.555,0,0,1,35.209,36.507Z" transform="translate(-13.208 -11.945)" fill="#039"/>
        <path id="Path_21133" data-name="Path 21133" d="M37.837,30.333a.579.579,0,0,0-1.053,0l-1.58,3.42a2.246,2.246,0,0,0,1.783,3.189,2.281,2.281,0,0,0,.648,0,2.246,2.246,0,0,0,1.783-3.166Zm.573,5.079a1.125,1.125,0,0,1-.87.539,1.891,1.891,0,0,1-.443,0,1.308,1.308,0,0,1-.966-.539,1.512,1.512,0,0,1-.1-1.172l1.275-2.723,1.227,2.723a1.557,1.557,0,0,1-.127,1.172Z" transform="translate(-15.31 -13.206)" fill="#039"/>
      </g>
    </g>
  </g>
</svg>
