<svg id="Group_22740" data-name="Group 22740" xmlns="http://www.w3.org/2000/svg" width="24" height="24.2" viewBox="0 0 24 24.2">
  <rect id="Rectangle_9480" data-name="Rectangle 9480" width="24" height="23.818" fill="none"/>
  <g id="Group_22739" data-name="Group 22739" transform="translate(2.024 0.768)">
    <g id="Group_564" data-name="Group 564">
      <path id="Path_1043" data-name="Path 1043" d="M92.5,6.8a10.045,10.045,0,0,0-1.282-3.641A6.282,6.282,0,0,0,88.65.808a10.222,10.222,0,0,0-8.03.027,6.954,6.954,0,0,0-2.714,2.406,10.7,10.7,0,0,0-1.475,3.709,23.193,23.193,0,0,0-.45,4.75,28.283,28.283,0,0,0,.359,4.728,10.156,10.156,0,0,0,1.293,3.639,6.29,6.29,0,0,0,2.56,2.355,10.25,10.25,0,0,0,8.043-.027A6.954,6.954,0,0,0,90.95,19.99a10.587,10.587,0,0,0,1.469-3.705,23.612,23.612,0,0,0,.438-4.754A28.949,28.949,0,0,0,92.5,6.8Zm-1,9.3A9.7,9.7,0,0,1,90.161,19.5a6.038,6.038,0,0,1-2.355,2.091,9.311,9.311,0,0,1-7.177.029,5.38,5.38,0,0,1-2.19-2.016,9.28,9.28,0,0,1-1.174-3.323,27.41,27.41,0,0,1-.346-4.579,22.317,22.317,0,0,1,.431-4.569,9.817,9.817,0,0,1,1.345-3.4A6.038,6.038,0,0,1,81.05,1.642a9.281,9.281,0,0,1,7.167-.029,5.371,5.371,0,0,1,2.2,2.015,9.172,9.172,0,0,1,1.162,3.321,28.076,28.076,0,0,1,.341,4.581,22.74,22.74,0,0,1-.42,4.576Z" transform="translate(-75.981 0)" fill="#44c8f5" stroke="#44c8f5" stroke-width="0.4"/>
      <path id="Path_1044" data-name="Path 1044" d="M181.326,80.13v-.005a7.84,7.84,0,0,0-.481-1.527,3.2,3.2,0,0,0-.76-1.09,2.707,2.707,0,0,0-1.042-.606l-.007,0a4.294,4.294,0,0,0-1.214-.166,3.387,3.387,0,0,0-1.965.553,3.57,3.57,0,0,0-1.216,1.6,8.925,8.925,0,0,0-.571,2.444c-.044.391-.08.814-.106,1.258a.456.456,0,0,0,.442.472.489.489,0,0,0,.494-.422c.025-.428.06-.836.1-1.215a8.083,8.083,0,0,1,.509-2.206,2.7,2.7,0,0,1,.9-1.212,2.443,2.443,0,0,1,1.412-.381,3.322,3.322,0,0,1,.933.125,1.745,1.745,0,0,1,.679.4l.008.007a2.319,2.319,0,0,1,.541.791,6.981,6.981,0,0,1,.424,1.354,15.909,15.909,0,0,1,.256,1.958c.058.754.087,1.64.087,2.632,0,.866-.019,1.6-.058,2.252a13.034,13.034,0,0,1-.222,1.8,6.83,6.83,0,0,1-.4,1.355l0,.007a2.886,2.886,0,0,1-.555.9,2.1,2.1,0,0,1-.742.5l-.006,0a2.7,2.7,0,0,1-1.01.172,2.668,2.668,0,0,1-1.309-.292,2.155,2.155,0,0,1-.853-1.021,8,8,0,0,1-.563-2.24,39.492,39.492,0,0,1-.135-6,.461.461,0,0,0-.49-.426.377.377,0,0,0-.389.426,32.921,32.921,0,0,0,.084,6.108,8.716,8.716,0,0,0,.636,2.493,3.034,3.034,0,0,0,1.241,1.435,4.032,4.032,0,0,0,3.152.171,3.06,3.06,0,0,0,1.073-.719l.007-.007a3.761,3.761,0,0,0,.734-1.172,7.68,7.68,0,0,0,.447-1.521,13.87,13.87,0,0,0,.237-1.916c.04-.666.06-1.419.06-2.3,0-1.014-.03-1.921-.089-2.7A16.493,16.493,0,0,0,181.326,80.13Z" transform="translate(-169.36 -73.137)" fill="#44c8f5" stroke="#44c8f5" stroke-width="0.4"/>
    </g>
    <g id="Group_21172" data-name="Group 21172" transform="translate(8.439 4.699)">
      <g id="Rectangle_9370" data-name="Rectangle 9370" transform="translate(0.611 6.023) rotate(-45)" fill="#fff" stroke="#039" stroke-width="1">
        <rect width="6.915" height="3.841" stroke="none"/>
        <rect x="0.5" y="0.5" width="5.915" height="2.841" fill="none"/>
      </g>
      <g id="Rectangle_9371" data-name="Rectangle 9371" transform="translate(7.72 4.346) rotate(-135)" fill="#fff" stroke="#039" stroke-width="1">
        <path d="M0,0H3.841a0,0,0,0,1,0,0V.384A1.921,1.921,0,0,1,1.921,2.3h0A1.921,1.921,0,0,1,0,.384V0A0,0,0,0,1,0,0Z" stroke="none"/>
        <path d="M.5.5H3.341a0,0,0,0,1,0,0v0a1.3,1.3,0,0,1-1.3,1.3H1.8A1.3,1.3,0,0,1,.5.5v0A0,0,0,0,1,.5.5Z" fill="none"/>
      </g>
      <path id="Path_20807" data-name="Path 20807" d="M11422.113,2400.7l-.919,3.243,3.07-1.053" transform="translate(-11421.194 -2394.438)" fill="#fff" stroke="#039" stroke-linecap="round" stroke-linejoin="round" stroke-width="1"/>
    </g>
  </g>
</svg>
