<svg xmlns="http://www.w3.org/2000/svg" width="21.527" height="23.011" viewBox="0 0 21.527 23.011">
  <g id="Group_11796" data-name="Group 11796" transform="translate(-37.547 -367.922)">
    <rect id="Rectangle_6124" data-name="Rectangle 6124" width="6.848" height="1.37" transform="translate(44.351 371.362)" fill="#fff"/>
    <g id="Group_11317" data-name="Group 11317" transform="translate(45.507 367.922)">
      <path id="Path_732" data-name="Path 732" d="M135,8.046a4.124,4.124,0,1,0-2.645-5.2h0a4.108,4.108,0,0,0,2.615,5.188l.031.01Zm-1.9-4.955a3.314,3.314,0,1,1-.013.041l.013-.041Zm0,0" transform="translate(-132.15 0.001)" fill="#039"/>
      <g id="india-rupee-currency-symbol" transform="matrix(0.966, -0.259, 0.259, 0.966, 2.333, 2.951)">
        <g id="Path_739" data-name="Path 739" transform="translate(0 0)" fill="#039">
          <path d="M 2.160104751586914 3.867280960083008 C 2.086964845657349 3.867280960083008 2.017644882202148 3.839350938796997 1.96490478515625 3.788640975952148 C 1.844034790992737 3.672240972518921 1.774164795875549 3.484251022338867 1.736814737319946 3.347040891647339 C 1.692954778671265 3.216760873794556 1.635794758796692 2.994311094284058 1.557784795761108 2.649780988693237 C 1.464004755020142 2.213490962982178 1.310114741325378 2.06178092956543 0.9478247761726379 2.048001050949097 L 0.5940547585487366 2.048040866851807 L 0.5870547890663147 2.048040866851807 L 0.5850015878677368 2.047491073608398 L 0.3661547899246216 2.047491073608398 C 0.2328847795724869 2.047491073608398 0.1244647800922394 1.939060926437378 0.1244647800922394 1.805781006813049 C 0.1244647800922394 1.672520995140076 0.2328847795724869 1.564100980758667 0.3661547899246216 1.564100980758667 L 0.5940647721290588 1.564100980758667 L 0.9860547780990601 1.564100980758667 C 1.281911373138428 1.564100980758667 1.504746198654175 1.456147432327271 1.610109806060791 1.265100955963135 L 0.1965247839689255 1.265100955963135 C 0.06059477850794792 1.265100955963135 -0.04999522119760513 1.154480934143066 -0.04999522119760513 1.018500924110413 C -0.04999522119760513 0.8825209736824036 0.06059477850794792 0.7719009518623352 0.1965247839689255 0.7719009518623352 L 1.63990306854248 0.7719009518623352 C 1.544382452964783 0.5201888084411621 1.278695344924927 0.4472330808639526 1.064424753189087 0.4316409826278687 L 0.1965247839689255 0.4317709803581238 C 0.05828477814793587 0.4317709803581238 -0.04999522119760513 0.3265009820461273 -0.04999522119760513 0.1921209841966629 C -0.04999522119760513 0.05646098032593727 0.05828477814793587 -0.04980902001261711 0.1965247839689255 -0.04980902001261711 L 0.9293747544288635 -0.04980902001261711 L 0.9405947923660278 -0.04999902099370956 L 0.9499847888946533 -0.04989901930093765 L 0.9574247598648071 -0.04980902001261711 L 2.49468469619751 -0.04979901760816574 C 2.632914781570435 -0.04979901760816574 2.741204738616943 0.05647097900509834 2.741214752197266 0.192130982875824 C 2.741204738616943 0.3265109658241272 2.632914781570435 0.4317709803581238 2.49468469619751 0.4317709803581238 L 2.134952545166016 0.4317709803581238 C 2.193416357040405 0.5312610268592834 2.233570575714111 0.6467517614364624 2.252983570098877 0.7719009518623352 L 2.494694709777832 0.7719009518623352 C 2.630624771118164 0.7719009518623352 2.741204738616943 0.8825010061264038 2.741204738616943 1.018450975418091 C 2.741204738616943 1.154430985450745 2.630614757537842 1.265051007270813 2.494674682617188 1.265051007270813 L 2.215991973876953 1.265051007270813 C 2.13524055480957 1.509086966514587 1.961616277694702 1.703607439994812 1.719266057014465 1.823185205459595 C 1.91593074798584 1.94596254825592 2.04872465133667 2.167042970657349 2.123734712600708 2.495200872421265 C 2.223274707794189 2.920891046524048 2.311214685440063 3.28368091583252 2.378804683685303 3.409090995788574 L 2.380216598510742 3.411706686019897 C 2.467731714248657 3.522138118743896 2.461076736450195 3.679083585739136 2.363094806671143 3.780910968780518 C 2.309544801712036 3.83660101890564 2.237454891204834 3.867280960083008 2.160104751586914 3.867280960083008 Z" stroke="none"/>
          <path d="M 0.9405947923660278 9.5367431640625e-07 C 0.9368647336959839 9.5367431640625e-07 0.933114767074585 0.0001909732818603516 0.9293748140335083 0.0001909732818603516 L 0.1965248584747314 0.0001909732818603516 C 0.08794474601745605 0.0001909732818603516 -5.245208740234375e-06 0.08358097076416016 4.76837158203125e-06 0.1921210289001465 C 4.76837158203125e-06 0.300670862197876 0.08794474601745605 0.3817710876464844 0.1965248584747314 0.3817710876464844 L 1.068054795265198 0.3817710876464844 C 1.343294739723206 0.4018008708953857 1.631594777107239 0.5082809925079346 1.707534790039062 0.8219010829925537 L 0.1965248584747314 0.8219010829925537 C 0.08794474601745605 0.8219010829925537 4.76837158203125e-06 0.9099009037017822 4.76837158203125e-06 1.018501043319702 C 4.76837158203125e-06 1.127050876617432 0.08794474601745605 1.215101003646851 0.1965248584747314 1.215101003646851 L 1.687954783439636 1.215101003646851 C 1.595164775848389 1.46294093132019 1.340294718742371 1.614100933074951 0.9860547780990601 1.614100933074951 L 0.366154670715332 1.614100933074951 C 0.2602946758270264 1.614100933074951 0.1744647026062012 1.699920892715454 0.1744647026062012 1.80578088760376 C 0.1744647026062012 1.911670923233032 0.2602946758270264 1.997491002082825 0.366154670715332 1.997491002082825 L 0.5913548469543457 1.997491002082825 C 0.5922846794128418 1.997591018676758 0.5931248664855957 1.998041033744812 0.5940546989440918 1.998041033744812 L 0.9497247934341431 1.998041033744812 C 1.336134791374207 2.012731075286865 1.508004784584045 2.180290937423706 1.606554746627808 2.638741016387939 C 1.68365478515625 2.979270935058594 1.740424752235413 3.201061010360718 1.785064697265625 3.333910942077637 C 1.818514823913574 3.456820964813232 1.884714841842651 3.642000913619995 1.999554753303528 3.752600908279419 C 2.091760635375977 3.841255664825439 2.2384192943573 3.838435411453247 2.327064752578735 3.746241092681885 C 2.410384654998779 3.659651041030884 2.411894798278809 3.525650978088379 2.33554482460022 3.436080932617188 C 2.335194826126099 3.435030937194824 2.335344791412354 3.433861017227173 2.334794759750366 3.43281102180481 C 2.264304876327515 3.30203104019165 2.179024696350098 2.951261043548584 2.074994802474976 2.506340980529785 C 1.992294788360596 2.144560813903809 1.837794780731201 1.919230937957764 1.60367476940155 1.819180965423584 C 1.897644758224487 1.706331014633179 2.099864721298218 1.490480899810791 2.17912483215332 1.215050935745239 L 2.494674682617188 1.215050935745239 C 2.603264808654785 1.215050935745239 2.691204786300659 1.127001047134399 2.691204786300659 1.018450975418091 C 2.691204786300659 0.90989089012146 2.60328483581543 0.8219010829925537 2.494694709777832 0.8219010829925537 L 2.209264755249023 0.8219010829925537 C 2.190394878387451 0.6564710140228271 2.132774829864502 0.5016310214996338 2.041334629058838 0.3817710876464844 L 2.49468469619751 0.3817710876464844 C 2.603274822235107 0.3817710876464844 2.691204786300659 0.3006808757781982 2.691204786300659 0.1921310424804688 C 2.691204786300659 0.08352088928222656 2.603264808654785 0.0002009868621826172 2.49468469619751 0.0002009868621826172 L 0.9574247598648071 0.0001909732818603516 C 0.9517947435379028 0.0001909732818603516 0.9463847875595093 9.5367431640625e-07 0.9405947923660278 9.5367431640625e-07 M 0.9405947923660278 -0.09999895095825195 L 0.9574247598648071 -0.09980893135070801 L 2.49468469619751 -0.09979891777038574 C 2.660954713821411 -0.09979891777038574 2.791204690933228 0.02843093872070312 2.791204690933228 0.1921310424804688 C 2.791204690933228 0.3545410633087158 2.660954713821411 0.4817709922790527 2.49468469619751 0.4817709922790527 L 2.217677354812622 0.4817709922790527 C 2.252403736114502 0.555903434753418 2.27842116355896 0.6365780830383301 2.295002460479736 0.7219009399414062 L 2.494694709777832 0.7219009399414062 C 2.658194780349731 0.7219009399414062 2.791204690933228 0.8549308776855469 2.791204690933228 1.018450975418091 C 2.791204690933228 1.182000875473022 2.658184766769409 1.315051078796387 2.494674682617188 1.315051078796387 L 2.251428127288818 1.315051078796387 C 2.171107769012451 1.531300067901611 2.019992351531982 1.70820689201355 1.814146280288696 1.828874349594116 C 1.985188722610474 1.964498996734619 2.103151321411133 2.180771589279175 2.172484874725342 2.484061002731323 C 2.270845890045166 2.90473484992981 2.357632637023926 3.263259649276733 2.422253370285034 3.384295225143433 C 2.522315502166748 3.514127254486084 2.513515949249268 3.696692943572998 2.39912486076355 3.815581083297729 C 2.336074829101562 3.881150960922241 2.251174688339233 3.917280912399292 2.160104751586914 3.917280912399292 C 2.073984861373901 3.917280912399292 1.992344856262207 3.884401082992554 1.93024480342865 3.8246910572052 C 1.801980018615723 3.701155424118042 1.728521108627319 3.506011962890625 1.689337849617004 3.36296534538269 C 1.644210934638977 3.227950096130371 1.586874127388 3.004662990570068 1.509024739265442 2.660820960998535 C 1.420124769210815 2.247311115264893 1.283354759216309 2.110800981521606 0.9459247589111328 2.097970962524414 L 0.5800447463989258 2.09804105758667 L 0.578049898147583 2.097491025924683 L 0.366154670715332 2.097491025924683 C 0.2053148746490479 2.097491025924683 0.07446479797363281 1.966630935668945 0.07446479797363281 1.80578088760376 C 0.07446479797363281 1.644950866699219 0.2053148746490479 1.514101028442383 0.366154670715332 1.514101028442383 L 0.9860547780990601 1.514101028442383 C 1.220480561256409 1.514101028442383 1.405142903327942 1.443138599395752 1.514764308929443 1.315100908279419 L 0.1965248584747314 1.315100908279419 C 0.03302478790283203 1.315100908279419 -0.09999513626098633 1.182050943374634 -0.09999513626098633 1.018501043319702 C -0.09999513626098633 0.8549509048461914 0.03302478790283203 0.7219009399414062 0.1965248584747314 0.7219009399414062 L 1.560488343238831 0.7219009399414062 C 1.475731730461121 0.5808706283569336 1.309473037719727 0.5002627372741699 1.064303040504456 0.4817709922790527 L 0.1965248584747314 0.4817709922790527 C 0.03025484085083008 0.4817709922790527 -0.09999513626098633 0.3545410633087158 -0.09999513626098633 0.1921210289001465 C -0.1000051498413086 0.1125810146331787 -0.06875514984130859 0.03852105140686035 -0.01200532913208008 -0.01639890670776367 C 0.04357481002807617 -0.07018899917602539 0.1176247596740723 -0.09980893135070801 0.1965248584747314 -0.09980893135070801 L 0.9405947923660278 -0.09999895095825195 Z" stroke="none" fill="#039"/>
        </g>
      </g>
    </g>
    <path id="Path_15266" data-name="Path 15266" d="M112.47,266.746a.468.468,0,0,0,.662-.662l-.605-.6h.274a.468.468,0,0,0,0-.936h-1.4a.468.468,0,0,0-.331.8Zm0,0" transform="translate(-67.299 112.819)" fill="#44c8f5"/>
    <ellipse id="Ellipse_531" data-name="Ellipse 531" cx="0.709" cy="0.709" rx="0.709" ry="0.709" transform="translate(42.152 378.642)" fill="#44c8f5"/>
    <rect id="Rectangle_7196" data-name="Rectangle 7196" width="7.123" height="1.425" transform="translate(46.094 374.319)" fill="#fff"/>
    <path id="Path_15267" data-name="Path 15267" d="M0,202.833v2.63a1.872,1.872,0,0,0,.655,1.421l1.806,1.549a14.077,14.077,0,0,0,2.171,1.529l.646.369a7.011,7.011,0,0,0,1.741.706v2.091a.468.468,0,0,0,.468.468H10.3a.468.468,0,0,0,.468-.468v-1.872h4.68v1.872a.468.468,0,0,0,.468.468h2.808a.468.468,0,0,0,.468-.468v-2.71a5.165,5.165,0,0,0,2.34-4.31v-4.68a5.154,5.154,0,0,0-5.148-5.148h-8.7a3.283,3.283,0,0,0-1.463.345l-.08.039a6.534,6.534,0,0,0-3.2,3.56l-.451,1.2H1.4a1.4,1.4,0,0,0-1.4,1.4Zm8.891-5.616h6.552v.468a.468.468,0,0,1-.468.468H9.36a.468.468,0,0,1-.468-.468v-.468ZM.936,202.833a.468.468,0,0,1,.468-.468h1.4a.468.468,0,0,0,.438-.3l.565-1.507A5.6,5.6,0,0,1,6.556,197.5l.08-.039a2.35,2.35,0,0,1,1.046-.247h.273v.468a1.4,1.4,0,0,0,1.4,1.4h5.616a1.4,1.4,0,0,0,1.4-1.4v-.468a4.216,4.216,0,0,1,4.212,4.212v.772l-.786.983a2.794,2.794,0,0,1-2.192,1.053.468.468,0,1,0,0,.936h.17a.46.46,0,0,0,.094-.009,3.72,3.72,0,0,0,2.659-1.394l.055-.07v2.41a4.226,4.226,0,0,1-2.106,3.644.468.468,0,0,0-.234.4v2.5H16.379v-1.872a.468.468,0,0,0-.468-.468H10.3a.468.468,0,0,0-.468.468v1.872H7.956v-2a.468.468,0,0,0-.377-.459,6.087,6.087,0,0,1-1.837-.686L5.1,209.15a13.106,13.106,0,0,1-2.026-1.428l-1.806-1.548a.937.937,0,0,1-.328-.711Zm0,0" transform="translate(37.547 177.337)" fill="#44c8f5"/>
  </g>
</svg>
