<svg xmlns="http://www.w3.org/2000/svg" width="23" height="23" viewBox="0 0 23 23">
  <g id="icon_alert_error_24px" data-name="icon/alert/error_24px" opacity="0.4">
    <rect id="Boundary" width="23" height="23" fill="none"/>
    <g id="_Color" data-name=" ↳Color" transform="translate(2.963 2.963)" fill="#fff" stroke-miterlimit="10">
      <path d="M 8.537400245666504 17.82390022277832 C 3.41631007194519 17.82390022277832 -0.7499998807907104 13.65799045562744 -0.7499998807907104 8.537400245666504 C -0.7499998807907104 3.41631007194519 3.41631007194519 -0.7499998807907104 8.537400245666504 -0.7499998807907104 C 13.65799045562744 -0.7499998807907104 17.82390022277832 3.41631007194519 17.82390022277832 8.537400245666504 C 17.82390022277832 13.65799045562744 13.65799045562744 17.82390022277832 8.537400245666504 17.82390022277832 Z M 8.14799976348877 13.14060020446777 L 8.780099868774414 13.14060020446777 L 8.780099868774414 12.95820045471191 L 8.780099868774414 7.097911357879639 C 8.695285797119141 7.109344005584717 8.60682487487793 7.12188720703125 8.515120506286621 7.135489940643311 C 8.395392417907715 7.15272855758667 8.273849487304688 7.171456336975098 8.14799976348877 7.192073345184326 L 8.14799976348877 7.540200233459473 L 8.14799976348877 12.95820045471191 L 8.14799976348877 13.14060020446777 Z M 8.405099868774414 3.265500068664551 C 8.211990356445312 3.265500068664551 8.064599990844727 3.306700229644775 7.967020034790039 3.38795018196106 C 7.935890197753906 3.413990020751953 7.881599903106689 3.459410190582275 7.881599903106689 3.626100063323975 C 7.881599903106689 3.766110181808472 7.923799991607666 3.812960147857666 7.967030048370361 3.848960161209106 C 8.064599990844727 3.930200099945068 8.211990356445312 3.971400022506714 8.405099868774414 3.971400022506714 C 8.597610473632812 3.971400022506714 8.74470043182373 3.930200099945068 8.842280387878418 3.848950147628784 C 8.87693977355957 3.820200204849243 8.927700042724609 3.778090000152588 8.927700042724609 3.626100063323975 C 8.927700042724609 3.459130048751831 8.874090194702148 3.414450168609619 8.842050552368164 3.387760162353516 C 8.74470043182373 3.306700229644775 8.597610473632812 3.265500068664551 8.405099868774414 3.265500068664551 Z" stroke="none"/>
      <path d="M 8.537400245666504 17.07390022277832 C 13.24444007873535 17.07390022277832 17.07390022277832 13.24444007873535 17.07390022277832 8.537400245666504 C 17.07390022277832 3.829860210418701 13.24444007873535 1.113891556769886e-07 8.537400245666504 1.113891556769886e-07 C 3.829860210418701 1.113891556769886e-07 1.113891556769886e-07 3.829860210418701 1.113891556769886e-07 8.537400245666504 C 1.113891556769886e-07 13.24444007873535 3.829860210418701 17.07390022277832 8.537400245666504 17.07390022277832 M 9.026100158691406 6.311700344085693 L 9.530099868774414 6.311700344085693 L 9.530099868774414 12.95820045471191 C 9.721850395202637 13.00636005401611 9.90110969543457 13.05875015258789 10.06290054321289 13.11390018463135 C 10.22196006774902 13.16843032836914 10.37141036987305 13.2359504699707 10.50660037994385 13.31369972229004 L 10.50660037994385 13.89060020446777 L 6.421500205993652 13.89060020446777 L 6.421500205993652 13.31369972229004 C 6.567920207977295 13.23513984680176 6.722050189971924 13.1679105758667 6.879600048065186 13.11390018463135 C 7.044360160827637 13.05772972106934 7.218530178070068 13.00567054748535 7.398000240325928 12.95820045471191 L 7.398000240325928 7.540200233459473 L 6.421500205993652 7.422300338745117 L 6.421500205993652 6.844500064849854 C 6.569459915161133 6.785860061645508 6.755980014801025 6.726200103759766 6.975900173187256 6.667200088500977 C 7.192560195922852 6.609310150146484 7.42278003692627 6.558380126953125 7.679699897766113 6.511499881744385 C 7.939539909362793 6.465030193328857 8.176819801330566 6.426460266113281 8.405099868774414 6.393599987030029 C 8.632340431213379 6.359899997711182 8.841259956359863 6.332350254058838 9.026100158691406 6.311700344085693 M 8.405099868774414 2.515500068664551 C 8.777689933776855 2.515500068664551 9.086239814758301 2.61512017250061 9.322199821472168 2.811600208282471 C 9.558090209960938 3.008180141448975 9.677700042724609 3.282220125198364 9.677700042724609 3.626100063323975 C 9.677700042724609 3.960730075836182 9.558090209960938 4.229619979858398 9.322199821472168 4.425300121307373 C 9.086239814758301 4.621779918670654 8.777689933776855 4.721400260925293 8.405099868774414 4.721400260925293 C 8.031920433044434 4.721400260925293 7.723060131072998 4.621779918670654 7.487100124359131 4.425300121307373 C 7.25121021270752 4.228869915008545 7.131599903106689 3.959980010986328 7.131599903106689 3.626100063323975 C 7.131599903106689 3.282970190048218 7.25121021270752 3.008930206298828 7.487100124359131 2.811600208282471 C 7.723060131072998 2.61512017250061 8.031920433044434 2.515500068664551 8.405099868774414 2.515500068664551 M 8.537400245666504 18.57390022277832 C 3.002760171890259 18.57390022277832 -1.49999988079071 14.07153987884521 -1.49999988079071 8.537400245666504 C -1.49999988079071 3.002760171890259 3.002760171890259 -1.49999988079071 8.537400245666504 -1.49999988079071 C 14.07153987884521 -1.49999988079071 18.57390022277832 3.002760171890259 18.57390022277832 8.537400245666504 C 18.57390022277832 14.07153987884521 14.07153987884521 18.57390022277832 8.537400245666504 18.57390022277832 Z" stroke="none" fill="#000"/>
    </g>
  </g>
</svg>
