<svg xmlns="http://www.w3.org/2000/svg" width="18" height="18" viewBox="0 0 18 18">
  <path id="Path_20287" data-name="Path 20287" d="M2591.3,133.89l-.011,0-.25-.032c-.182-.022-.371-.046-.557-.08a4.4,4.4,0,0,1-2.525-1.428c-.067-.075-.1-.075-.118-.075a.27.27,0,0,0-.064.01,13.778,13.778,0,0,1-3.442.4c-.318,0-.649-.009-.985-.026a11.413,11.413,0,0,1-3.7-.725,3.506,3.506,0,0,1-1.266-.787,1.473,1.473,0,0,1-.443-1.065v-.669c0-3.579,0-7.28,0-10.92a1.574,1.574,0,0,1,.7-1.3,5.656,5.656,0,0,1,2.089-.9,14.189,14.189,0,0,1,3.495-.4c.223,0,.455,0,.689.012a12.046,12.046,0,0,1,3.932.706,3.539,3.539,0,0,1,1.322.8,1.459,1.459,0,0,1,.451,1.077c0,1.545,0,3.115,0,4.634q0,.8,0,1.6v.065l.046,0c.162-.014.316-.027.471-.037.1-.007.2-.01.3-.01a4.207,4.207,0,0,1,1.807.407,4.5,4.5,0,0,1,2.556,3.13,3.794,3.794,0,0,1,.073.447c.008.065.016.133.026.2l.03.2.015.1v.268l0,.013c-.009.063-.018.127-.027.191-.019.138-.039.281-.065.422a4.583,4.583,0,0,1-1.245,2.4,4.528,4.528,0,0,1-2.372,1.272c-.156.03-.314.055-.467.078l-.212.033-.014,0Zm.038-8.265a3.671,3.671,0,0,0,0,7.342h.006a3.671,3.671,0,0,0,.007-7.342Zm-12.5,2.953c0,.124,0,.247,0,.371,0,.365,0,.743-.005,1.116a.543.543,0,0,0,.219.5,4.986,4.986,0,0,0,.927.545,11.06,11.06,0,0,0,3.782.681c.193.007.387.011.576.011a13.564,13.564,0,0,0,2.02-.148c.268-.041.53-.089.808-.14l.172-.032a4.5,4.5,0,0,1-.548-1.945l-.381.047c-.462.059-.94.119-1.415.139-.255.011-.51.016-.757.016a14.963,14.963,0,0,1-2.8-.254,8.191,8.191,0,0,1-2.3-.735C2579.042,128.7,2578.945,128.641,2578.844,128.578Zm0-2.947c0,.117,0,.234,0,.349.005.335.01.681-.012,1.023a.825.825,0,0,0,.431.794,4.834,4.834,0,0,0,1.445.618,13.2,13.2,0,0,0,2.849.418c.223.012.454.018.686.018a17.689,17.689,0,0,0,2.558-.2.145.145,0,0,0,.03-.007.129.129,0,0,0,.008-.032,4.444,4.444,0,0,1,1-2.225,14.179,14.179,0,0,1-2.967.409c-.184.006-.368.008-.548.008a15.672,15.672,0,0,1-2.832-.249,8.3,8.3,0,0,1-2.353-.745C2579.04,125.751,2578.944,125.693,2578.844,125.631Zm0-2.948q0,.154,0,.308c0,.4-.005.824.009,1.233a.721.721,0,0,0,.132.36,1.737,1.737,0,0,0,.734.52,9.849,9.849,0,0,0,3.82.775c.152.005.313.008.478.008.622,0,1.244-.036,1.846-.07a9.191,9.191,0,0,0,2.393-.474,3.506,3.506,0,0,0,1.228-.643.666.666,0,0,0,.249-.518V124.1q0-.708,0-1.416l-.041.023a6.221,6.221,0,0,1-.6.313,11.12,11.12,0,0,1-3.9.8c-.333.018-.663.026-.98.026a14.262,14.262,0,0,1-2.818-.263A7.318,7.318,0,0,1,2578.844,122.683Zm0-2.958q0,.184,0,.368c0,.374,0,.761,0,1.143a.549.549,0,0,0,.209.481,3.754,3.754,0,0,0,.687.446,9.227,9.227,0,0,0,3.395.748c.286.017.6.025.948.025s.742-.009,1.1-.018l.086,0a10.528,10.528,0,0,0,2.456-.363,5.016,5.016,0,0,0,1.6-.673.835.835,0,0,0,.409-.78c-.014-.333-.011-.671-.008-1,0-.133,0-.271,0-.407l-.2.114a4.808,4.808,0,0,1-.728.373,11.582,11.582,0,0,1-3.55.7c-.345.016-.681.024-1,.024a14.369,14.369,0,0,1-3.038-.3A6.727,6.727,0,0,1,2578.844,119.724Zm5.141-2.949-.306.019c-.336.02-.8.047-1.25.1a9.021,9.021,0,0,0-2.445.573,2.5,2.5,0,0,0-.98.607.411.411,0,0,0-.03.608.585.585,0,0,0,.168.166c.08.045.161.093.239.138a4.482,4.482,0,0,0,.739.376,11.482,11.482,0,0,0,3.765.643h.183c.49,0,.981-.028,1.526-.061a10.2,10.2,0,0,0,2.639-.5,3.513,3.513,0,0,0,1.232-.638.474.474,0,0,0-.005-.835,3.541,3.541,0,0,0-1.267-.645A13.5,13.5,0,0,0,2583.985,116.776Zm7.722,14.905a.371.371,0,0,0,.09-.273c0-.329,0-.319,0-.642s0-.665,0-1c0-.011,0-.02,0-.027h.021c.143,0,.3,0,.488,0h1.456c.29,0,.341-.115.345-.374,0-.037,0-.081,0-.132a.383.383,0,0,0-.087-.291.387.387,0,0,0-.293-.1h-.011c-.3,0-.6,0-.854,0h-.2c-.243,0-.531,0-.821,0h-.006l-.038,0a.327.327,0,0,1,0-.039c.007-.639,0-.943,0-1.571v-.21c0-.037,0-.07,0-.1,0-.139,0-.239-.075-.317a.343.343,0,0,0-.26-.077h-.206a.332.332,0,0,0-.3.107.477.477,0,0,0-.055.3q0,.266,0,.531c0,.55,0,.775,0,1.335,0,.019,0,.033,0,.043l-.037,0h-.005c-.317,0-.66,0-1.047,0-.347,0-.35,0-.7,0h-.191c-.325,0-.328.195-.331.383,0,.037,0,.08,0,.13a.329.329,0,0,0,.37.384h.009c.31,0,.623,0,.888,0h.21c.237,0,.516,0,.8,0h.036a.3.3,0,0,1,0,.033c-.007.617,0,.89,0,1.47,0,.048,0,.089,0,.124,0,.137,0,.236.074.316s.178.082.329.083l.128,0h.02A.35.35,0,0,0,2591.707,131.681Z" transform="translate(-2577.939 -115.89)" fill="#fff"/>
</svg>
