<svg xmlns="http://www.w3.org/2000/svg" width="19.5" height="19.5" viewBox="0 0 19.5 19.5">
  <path id="Path_20792" data-name="Path 20792" d="M399.789,100a9.761,9.761,0,1,0,6.892,2.859A9.756,9.756,0,0,0,399.789,100Zm0,17.875a8.134,8.134,0,1,1,5.743-2.382A8.125,8.125,0,0,1,399.789,117.875Zm4.063-8.125a.813.813,0,0,1-.813.813H400.6V113a.813.813,0,0,1-1.625,0v-2.438h-2.438a.813.813,0,0,1,0-1.625h2.438V106.5a.813.813,0,0,1,1.625,0v2.438h2.437a.813.813,0,0,1,.813.813Z" transform="translate(-390.04 -100)" fill="#033399"/>
</svg>
