<svg xmlns="http://www.w3.org/2000/svg" width="13" height="15.6" viewBox="0 0 13 15.6">
  <path id="Union_4" data-name="Union 4" d="M4.549,15.6A3.255,3.255,0,0,1,1.3,12.35V3.9H.652a.684.684,0,0,1-.465-.189.661.661,0,0,1,0-.922A.7.7,0,0,1,.652,2.6H2.664A3.275,3.275,0,0,1,5.85,0h1.3A3.222,3.222,0,0,1,9.205.735,3.255,3.255,0,0,1,10.338,2.6H12.35a.679.679,0,0,1,.463.189.661.661,0,0,1,0,.922.665.665,0,0,1-.463.189H11.7v8.45a3.268,3.268,0,0,1-3.25,3.25ZM2.6,12.35a1.929,1.929,0,0,0,.572,1.379,1.963,1.963,0,0,0,1.377.571h3.9A1.952,1.952,0,0,0,10.4,12.35V3.9H2.6ZM4.727,1.657A2.014,2.014,0,0,0,4.01,2.6H8.992a2.027,2.027,0,0,0-.717-.943A1.949,1.949,0,0,0,7.152,1.3H5.85A1.94,1.94,0,0,0,4.727,1.657ZM7.342,11.51a.623.623,0,0,1-.189-.46V7.15a.629.629,0,0,1,.189-.46A.672.672,0,0,1,7.8,6.5a.682.682,0,0,1,.463.189.655.655,0,0,1,.191.46v3.9a.649.649,0,0,1-.191.46A.668.668,0,0,1,7.8,11.7.658.658,0,0,1,7.342,11.51Zm-2.6,0a.655.655,0,0,1-.189-.46V7.15a.661.661,0,0,1,.189-.46A.691.691,0,0,1,5.2,6.5a.668.668,0,0,1,.457.189.653.653,0,0,1,.189.46v3.9a.647.647,0,0,1-.189.46A.654.654,0,0,1,5.2,11.7.676.676,0,0,1,4.738,11.51Z" fill="#039"/>
</svg>
