<?xml version="1.0" encoding="UTF-8" standalone="no"?>
<!DOCTYPE svg PUBLIC "-//W3C//DTD SVG 1.1//EN"
 "http://www.w3.org/Graphics/SVG/1.1/DTD/svg11.dtd">
<!-- Generated by graphviz version 2.47.3 (20210619.1520)
 -->
<!-- Title: dependencies Pages: 1 -->
<svg width="1980pt" height="247pt"
 viewBox="0.00 0.00 1980.00 246.80" xmlns="http://www.w3.org/2000/svg" xmlns:xlink="http://www.w3.org/1999/xlink">
<g id="graph0" class="graph" transform="scale(1 1) rotate(0) translate(4 242.8)">
<title>dependencies</title>
<polygon fill="white" stroke="transparent" points="-4,4 -4,-242.8 1976,-242.8 1976,4 -4,4"/>
<text text-anchor="middle" x="986" y="-8.2" font-family="sans-serif" font-size="14.00">dependencies</text>
<g id="clust1" class="cluster">
<title>cluster_GoldInvestmentDetailsModule</title>
<polygon fill="none" stroke="black" stroke-dasharray="1,5" points="8,-32.8 8,-230.8 1964,-230.8 1964,-32.8 8,-32.8"/>
</g>
<g id="clust12" class="cluster">
<title>cluster_GoldInvestmentDetailsModule_exports</title>
<polygon fill="none" stroke="black" points="275,-170.8 275,-222.8 1599,-222.8 1599,-170.8 275,-170.8"/>
</g>
<g id="clust2" class="cluster">
<title>cluster_GoldInvestmentDetailsModule_declarations</title>
<polygon fill="none" stroke="black" points="432,-40.8 432,-92.8 1956,-92.8 1956,-40.8 432,-40.8"/>
</g>
<g id="clust11" class="cluster">
<title>cluster_GoldInvestmentDetailsModule_imports</title>
<polygon fill="none" stroke="black" points="16,-40.8 16,-92.8 424,-92.8 424,-40.8 16,-40.8"/>
</g>
<!-- BuySellComponent -->
<g id="node1" class="node">
<title>BuySellComponent</title>
<polygon fill="#ffffb3" stroke="black" points="1948.45,-84.8 1821.55,-84.8 1821.55,-48.8 1948.45,-48.8 1948.45,-84.8"/>
<text text-anchor="middle" x="1885" y="-62.6" font-family="Times,serif" font-size="14.00">BuySellComponent</text>
</g>
<!-- GoldInvestmentDetailsModule -->
<g id="node9" class="node">
<title>GoldInvestmentDetailsModule</title>
<polygon fill="#8dd3c7" stroke="black" points="973.91,-149.8 970.91,-153.8 949.91,-153.8 946.91,-149.8 784.09,-149.8 784.09,-113.8 973.91,-113.8 973.91,-149.8"/>
<text text-anchor="middle" x="879" y="-127.6" font-family="Times,serif" font-size="14.00">GoldInvestmentDetailsModule</text>
</g>
<!-- BuySellComponent&#45;&gt;GoldInvestmentDetailsModule -->
<g id="edge1" class="edge">
<title>BuySellComponent&#45;&gt;GoldInvestmentDetailsModule</title>
<path fill="none" stroke="black" d="M1885,-84.91C1885,-104.14 1885,-131.8 1885,-131.8 1885,-131.8 984.1,-131.8 984.1,-131.8"/>
<polygon fill="black" stroke="black" points="984.1,-128.3 974.1,-131.8 984.1,-135.3 984.1,-128.3"/>
</g>
<!-- GoldInvestmentDetailsComponent -->
<g id="node2" class="node">
<title>GoldInvestmentDetailsComponent</title>
<polygon fill="#ffffb3" stroke="black" points="1803.69,-84.8 1592.31,-84.8 1592.31,-48.8 1803.69,-48.8 1803.69,-84.8"/>
<text text-anchor="middle" x="1698" y="-62.6" font-family="Times,serif" font-size="14.00">GoldInvestmentDetailsComponent</text>
</g>
<!-- GoldInvestmentDetailsComponent&#45;&gt;GoldInvestmentDetailsModule -->
<g id="edge2" class="edge">
<title>GoldInvestmentDetailsComponent&#45;&gt;GoldInvestmentDetailsModule</title>
<path fill="none" stroke="black" d="M1698,-85.1C1698,-103.07 1698,-127.8 1698,-127.8 1698,-127.8 983.75,-127.8 983.75,-127.8"/>
<polygon fill="black" stroke="black" points="983.75,-124.3 973.75,-127.8 983.75,-131.3 983.75,-124.3"/>
</g>
<!-- InvestmentDetailsComponent -->
<g id="node3" class="node">
<title>InvestmentDetailsComponent</title>
<polygon fill="#ffffb3" stroke="black" points="1574.69,-84.8 1391.31,-84.8 1391.31,-48.8 1574.69,-48.8 1574.69,-84.8"/>
<text text-anchor="middle" x="1483" y="-62.6" font-family="Times,serif" font-size="14.00">InvestmentDetailsComponent</text>
</g>
<!-- InvestmentDetailsComponent&#45;&gt;GoldInvestmentDetailsModule -->
<g id="edge3" class="edge">
<title>InvestmentDetailsComponent&#45;&gt;GoldInvestmentDetailsModule</title>
<path fill="none" stroke="black" d="M1417.37,-84.83C1417.37,-101.2 1417.37,-122.8 1417.37,-122.8 1417.37,-122.8 984.01,-122.8 984.01,-122.8"/>
<polygon fill="black" stroke="black" points="984.01,-119.3 974.01,-122.8 984.01,-126.3 984.01,-119.3"/>
</g>
<!-- InvestmentDetailsTransactionComponent -->
<g id="node4" class="node">
<title>InvestmentDetailsTransactionComponent</title>
<polygon fill="#ffffb3" stroke="black" points="1373.77,-84.8 1124.23,-84.8 1124.23,-48.8 1373.77,-48.8 1373.77,-84.8"/>
<text text-anchor="middle" x="1249" y="-62.6" font-family="Times,serif" font-size="14.00">InvestmentDetailsTransactionComponent</text>
</g>
<!-- InvestmentDetailsTransactionComponent&#45;&gt;GoldInvestmentDetailsModule -->
<g id="edge4" class="edge">
<title>InvestmentDetailsTransactionComponent&#45;&gt;GoldInvestmentDetailsModule</title>
<path fill="none" stroke="black" d="M1167.35,-84.99C1167.35,-99.98 1167.35,-118.8 1167.35,-118.8 1167.35,-118.8 983.82,-118.8 983.82,-118.8"/>
<polygon fill="black" stroke="black" points="983.82,-115.3 973.82,-118.8 983.82,-122.3 983.82,-115.3"/>
</g>
<!-- KycGoldComponent -->
<g id="node5" class="node">
<title>KycGoldComponent</title>
<polygon fill="#ffffb3" stroke="black" points="1106.15,-84.8 973.85,-84.8 973.85,-48.8 1106.15,-48.8 1106.15,-84.8"/>
<text text-anchor="middle" x="1040" y="-62.6" font-family="Times,serif" font-size="14.00">KycGoldComponent</text>
</g>
<!-- KycGoldComponent&#45;&gt;GoldInvestmentDetailsModule -->
<g id="edge5" class="edge">
<title>KycGoldComponent&#45;&gt;GoldInvestmentDetailsModule</title>
<path fill="none" stroke="black" d="M973.67,-66.8C968.22,-66.8 964.74,-66.8 964.74,-66.8 964.74,-66.8 964.74,-103.69 964.74,-103.69"/>
<polygon fill="black" stroke="black" points="961.24,-103.69 964.74,-113.69 968.24,-103.69 961.24,-103.69"/>
</g>
<!-- OrderDetailsComponent -->
<g id="node6" class="node">
<title>OrderDetailsComponent</title>
<polygon fill="#ffffb3" stroke="black" points="955.63,-84.8 802.37,-84.8 802.37,-48.8 955.63,-48.8 955.63,-84.8"/>
<text text-anchor="middle" x="879" y="-62.6" font-family="Times,serif" font-size="14.00">OrderDetailsComponent</text>
</g>
<!-- OrderDetailsComponent&#45;&gt;GoldInvestmentDetailsModule -->
<g id="edge6" class="edge">
<title>OrderDetailsComponent&#45;&gt;GoldInvestmentDetailsModule</title>
<path fill="none" stroke="black" d="M879,-84.91C879,-84.91 879,-103.79 879,-103.79"/>
<polygon fill="black" stroke="black" points="875.5,-103.79 879,-113.79 882.5,-103.79 875.5,-103.79"/>
</g>
<!-- OrdersComponent -->
<g id="node7" class="node">
<title>OrdersComponent</title>
<polygon fill="#ffffb3" stroke="black" points="783.92,-84.8 664.08,-84.8 664.08,-48.8 783.92,-48.8 783.92,-84.8"/>
<text text-anchor="middle" x="724" y="-62.6" font-family="Times,serif" font-size="14.00">OrdersComponent</text>
</g>
<!-- OrdersComponent&#45;&gt;GoldInvestmentDetailsModule -->
<g id="edge7" class="edge">
<title>OrdersComponent&#45;&gt;GoldInvestmentDetailsModule</title>
<path fill="none" stroke="black" d="M783.9,-66.8C789.56,-66.8 793.24,-66.8 793.24,-66.8 793.24,-66.8 793.24,-103.69 793.24,-103.69"/>
<polygon fill="black" stroke="black" points="789.74,-103.69 793.24,-113.69 796.74,-103.69 789.74,-103.69"/>
</g>
<!-- PaymentConfirmationComponent -->
<g id="node8" class="node">
<title>PaymentConfirmationComponent</title>
<polygon fill="#ffffb3" stroke="black" points="645.76,-84.8 440.24,-84.8 440.24,-48.8 645.76,-48.8 645.76,-84.8"/>
<text text-anchor="middle" x="543" y="-62.6" font-family="Times,serif" font-size="14.00">PaymentConfirmationComponent</text>
</g>
<!-- PaymentConfirmationComponent&#45;&gt;GoldInvestmentDetailsModule -->
<g id="edge8" class="edge">
<title>PaymentConfirmationComponent&#45;&gt;GoldInvestmentDetailsModule</title>
<path fill="none" stroke="black" d="M622.4,-84.99C622.4,-99.98 622.4,-118.8 622.4,-118.8 622.4,-118.8 774.18,-118.8 774.18,-118.8"/>
<polygon fill="black" stroke="black" points="774.18,-122.3 784.18,-118.8 774.18,-115.3 774.18,-122.3"/>
</g>
<!-- BuySellComponent  -->
<g id="node13" class="node">
<title>BuySellComponent </title>
<polygon fill="#fb8072" stroke="black" points="1590.95,-214.8 1461.05,-214.8 1461.05,-178.8 1590.95,-178.8 1590.95,-214.8"/>
<text text-anchor="middle" x="1526" y="-192.6" font-family="Times,serif" font-size="14.00">BuySellComponent </text>
</g>
<!-- GoldInvestmentDetailsModule&#45;&gt;BuySellComponent  -->
<g id="edge12" class="edge">
<title>GoldInvestmentDetailsModule&#45;&gt;BuySellComponent </title>
<path fill="none" stroke="black" stroke-dasharray="5,2" d="M973.95,-136.8C1151.9,-136.8 1517.81,-136.8 1517.81,-136.8 1517.81,-136.8 1517.81,-168.8 1517.81,-168.8"/>
<polygon fill="black" stroke="black" points="1514.31,-168.8 1517.81,-178.8 1521.31,-168.8 1514.31,-168.8"/>
</g>
<!-- GoldInvestmentDetailsComponent  -->
<g id="node14" class="node">
<title>GoldInvestmentDetailsComponent </title>
<polygon fill="#fb8072" stroke="black" points="1443.19,-214.8 1228.81,-214.8 1228.81,-178.8 1443.19,-178.8 1443.19,-214.8"/>
<text text-anchor="middle" x="1336" y="-192.6" font-family="Times,serif" font-size="14.00">GoldInvestmentDetailsComponent </text>
</g>
<!-- GoldInvestmentDetailsModule&#45;&gt;GoldInvestmentDetailsComponent  -->
<g id="edge13" class="edge">
<title>GoldInvestmentDetailsModule&#45;&gt;GoldInvestmentDetailsComponent </title>
<path fill="none" stroke="black" stroke-dasharray="5,2" d="M973.74,-140.8C1098.2,-140.8 1301.15,-140.8 1301.15,-140.8 1301.15,-140.8 1301.15,-168.77 1301.15,-168.77"/>
<polygon fill="black" stroke="black" points="1297.65,-168.77 1301.15,-178.77 1304.65,-168.77 1297.65,-168.77"/>
</g>
<!-- InvestmentDetailsComponent  -->
<g id="node15" class="node">
<title>InvestmentDetailsComponent </title>
<polygon fill="#fb8072" stroke="black" points="1210.19,-214.8 1023.81,-214.8 1023.81,-178.8 1210.19,-178.8 1210.19,-214.8"/>
<text text-anchor="middle" x="1117" y="-192.6" font-family="Times,serif" font-size="14.00">InvestmentDetailsComponent </text>
</g>
<!-- GoldInvestmentDetailsModule&#45;&gt;InvestmentDetailsComponent  -->
<g id="edge14" class="edge">
<title>GoldInvestmentDetailsModule&#45;&gt;InvestmentDetailsComponent </title>
<path fill="none" stroke="black" stroke-dasharray="5,2" d="M973.9,-145.8C1019.76,-145.8 1064.99,-145.8 1064.99,-145.8 1064.99,-145.8 1064.99,-168.68 1064.99,-168.68"/>
<polygon fill="black" stroke="black" points="1061.49,-168.68 1064.99,-178.68 1068.49,-168.68 1061.49,-168.68"/>
</g>
<!-- InvestmentDetailsTransactionComponent  -->
<g id="node16" class="node">
<title>InvestmentDetailsTransactionComponent </title>
<polygon fill="#fb8072" stroke="black" points="1005.27,-214.8 752.73,-214.8 752.73,-178.8 1005.27,-178.8 1005.27,-214.8"/>
<text text-anchor="middle" x="879" y="-192.6" font-family="Times,serif" font-size="14.00">InvestmentDetailsTransactionComponent </text>
</g>
<!-- GoldInvestmentDetailsModule&#45;&gt;InvestmentDetailsTransactionComponent  -->
<g id="edge15" class="edge">
<title>GoldInvestmentDetailsModule&#45;&gt;InvestmentDetailsTransactionComponent </title>
<path fill="none" stroke="black" stroke-dasharray="5,2" d="M879,-149.91C879,-149.91 879,-168.79 879,-168.79"/>
<polygon fill="black" stroke="black" points="875.5,-168.79 879,-178.79 882.5,-168.79 875.5,-168.79"/>
</g>
<!-- KycGoldComponent  -->
<g id="node17" class="node">
<title>KycGoldComponent </title>
<polygon fill="#fb8072" stroke="black" points="735.15,-214.8 598.85,-214.8 598.85,-178.8 735.15,-178.8 735.15,-214.8"/>
<text text-anchor="middle" x="667" y="-192.6" font-family="Times,serif" font-size="14.00">KycGoldComponent </text>
</g>
<!-- GoldInvestmentDetailsModule&#45;&gt;KycGoldComponent  -->
<g id="edge16" class="edge">
<title>GoldInvestmentDetailsModule&#45;&gt;KycGoldComponent </title>
<path fill="none" stroke="black" stroke-dasharray="5,2" d="M784.09,-145.8C741.08,-145.8 699.68,-145.8 699.68,-145.8 699.68,-145.8 699.68,-168.68 699.68,-168.68"/>
<polygon fill="black" stroke="black" points="696.18,-168.68 699.68,-178.68 703.18,-168.68 696.18,-168.68"/>
</g>
<!-- OrderDetailsComponent  -->
<g id="node18" class="node">
<title>OrderDetailsComponent </title>
<polygon fill="#fb8072" stroke="black" points="580.63,-214.8 423.37,-214.8 423.37,-178.8 580.63,-178.8 580.63,-214.8"/>
<text text-anchor="middle" x="502" y="-192.6" font-family="Times,serif" font-size="14.00">OrderDetailsComponent </text>
</g>
<!-- GoldInvestmentDetailsModule&#45;&gt;OrderDetailsComponent  -->
<g id="edge17" class="edge">
<title>GoldInvestmentDetailsModule&#45;&gt;OrderDetailsComponent </title>
<path fill="none" stroke="black" stroke-dasharray="5,2" d="M784.06,-140.8C674.83,-140.8 510.34,-140.8 510.34,-140.8 510.34,-140.8 510.34,-168.77 510.34,-168.77"/>
<polygon fill="black" stroke="black" points="506.84,-168.77 510.34,-178.77 513.84,-168.77 506.84,-168.77"/>
</g>
<!-- OrdersComponent  -->
<g id="node19" class="node">
<title>OrdersComponent </title>
<polygon fill="#fb8072" stroke="black" points="405.42,-214.8 282.58,-214.8 282.58,-178.8 405.42,-178.8 405.42,-214.8"/>
<text text-anchor="middle" x="344" y="-192.6" font-family="Times,serif" font-size="14.00">OrdersComponent </text>
</g>
<!-- GoldInvestmentDetailsModule&#45;&gt;OrdersComponent  -->
<g id="edge18" class="edge">
<title>GoldInvestmentDetailsModule&#45;&gt;OrdersComponent </title>
<path fill="none" stroke="black" stroke-dasharray="5,2" d="M784.3,-136.8C636.45,-136.8 367.54,-136.8 367.54,-136.8 367.54,-136.8 367.54,-168.8 367.54,-168.8"/>
<polygon fill="black" stroke="black" points="364.04,-168.8 367.54,-178.8 371.04,-168.8 364.04,-168.8"/>
</g>
<!-- CoreModule -->
<g id="node10" class="node">
<title>CoreModule</title>
<polygon fill="#8dd3c7" stroke="black" points="416.26,-84.8 413.26,-88.8 392.26,-88.8 389.26,-84.8 329.74,-84.8 329.74,-48.8 416.26,-48.8 416.26,-84.8"/>
<text text-anchor="middle" x="373" y="-62.6" font-family="Times,serif" font-size="14.00">CoreModule</text>
</g>
<!-- CoreModule&#45;&gt;GoldInvestmentDetailsModule -->
<g id="edge9" class="edge">
<title>CoreModule&#45;&gt;GoldInvestmentDetailsModule</title>
<path fill="none" stroke="black" d="M410.92,-84.83C410.92,-101.2 410.92,-122.8 410.92,-122.8 410.92,-122.8 774.28,-122.8 774.28,-122.8"/>
<polygon fill="black" stroke="black" points="774.28,-126.3 784.28,-122.8 774.28,-119.3 774.28,-126.3"/>
</g>
<!-- TranslateModule -->
<g id="node11" class="node">
<title>TranslateModule</title>
<polygon fill="#8dd3c7" stroke="black" points="311.63,-84.8 308.63,-88.8 287.63,-88.8 284.63,-84.8 200.37,-84.8 200.37,-48.8 311.63,-48.8 311.63,-84.8"/>
<text text-anchor="middle" x="256" y="-62.6" font-family="Times,serif" font-size="14.00">TranslateModule</text>
</g>
<!-- TranslateModule&#45;&gt;GoldInvestmentDetailsModule -->
<g id="edge10" class="edge">
<title>TranslateModule&#45;&gt;GoldInvestmentDetailsModule</title>
<path fill="none" stroke="black" d="M297.18,-85.1C297.18,-103.07 297.18,-127.8 297.18,-127.8 297.18,-127.8 774.23,-127.8 774.23,-127.8"/>
<polygon fill="black" stroke="black" points="774.23,-131.3 784.23,-127.8 774.23,-124.3 774.23,-131.3"/>
</g>
<!-- currencyCommasModule -->
<g id="node12" class="node">
<title>currencyCommasModule</title>
<polygon fill="#8dd3c7" stroke="black" points="182.29,-84.8 179.29,-88.8 158.29,-88.8 155.29,-84.8 23.71,-84.8 23.71,-48.8 182.29,-48.8 182.29,-84.8"/>
<text text-anchor="middle" x="103" y="-62.6" font-family="Times,serif" font-size="14.00">currencyCommasModule</text>
</g>
<!-- currencyCommasModule&#45;&gt;GoldInvestmentDetailsModule -->
<g id="edge11" class="edge">
<title>currencyCommasModule&#45;&gt;GoldInvestmentDetailsModule</title>
<path fill="none" stroke="black" d="M103,-84.91C103,-104.14 103,-131.8 103,-131.8 103,-131.8 774.24,-131.8 774.24,-131.8"/>
<polygon fill="black" stroke="black" points="774.24,-135.3 784.24,-131.8 774.24,-128.3 774.24,-135.3"/>
</g>
</g>
</svg>
