<?xml version="1.0" encoding="UTF-8" standalone="no"?>
<!DOCTYPE svg PUBLIC "-//W3C//DTD SVG 1.1//EN"
 "http://www.w3.org/Graphics/SVG/1.1/DTD/svg11.dtd">
<!-- Generated by graphviz version 2.47.3 (20210619.1520)
 -->
<!-- Title: dependencies Pages: 1 -->
<svg width="702pt" height="247pt"
 viewBox="0.00 0.00 702.00 246.80" xmlns="http://www.w3.org/2000/svg" xmlns:xlink="http://www.w3.org/1999/xlink">
<g id="graph0" class="graph" transform="scale(1 1) rotate(0) translate(4 242.8)">
<title>dependencies</title>
<polygon fill="white" stroke="transparent" points="-4,4 -4,-242.8 698,-242.8 698,4 -4,4"/>
<text text-anchor="middle" x="347" y="-8.2" font-family="sans-serif" font-size="14.00">dependencies</text>
<g id="clust1" class="cluster">
<title>cluster_EducationModule</title>
<polygon fill="none" stroke="black" stroke-dasharray="1,5" points="8,-32.8 8,-230.8 686,-230.8 686,-32.8 8,-32.8"/>
</g>
<g id="clust2" class="cluster">
<title>cluster_EducationModule_declarations</title>
<polygon fill="none" stroke="black" points="256,-40.8 256,-92.8 678,-92.8 678,-40.8 256,-40.8"/>
</g>
<g id="clust5" class="cluster">
<title>cluster_EducationModule_imports</title>
<polygon fill="none" stroke="black" points="16,-40.8 16,-92.8 248,-92.8 248,-40.8 16,-40.8"/>
</g>
<g id="clust6" class="cluster">
<title>cluster_EducationModule_exports</title>
<polygon fill="none" stroke="black" points="100,-170.8 100,-222.8 530,-222.8 530,-170.8 100,-170.8"/>
</g>
<!-- EducationCategoryDashboardComponent -->
<g id="node1" class="node">
<title>EducationCategoryDashboardComponent</title>
<polygon fill="#ffffb3" stroke="black" points="670.05,-84.8 419.95,-84.8 419.95,-48.8 670.05,-48.8 670.05,-84.8"/>
<text text-anchor="middle" x="545" y="-62.6" font-family="Times,serif" font-size="14.00">EducationCategoryDashboardComponent</text>
</g>
<!-- EducationModule -->
<g id="node3" class="node">
<title>EducationModule</title>
<polygon fill="#8dd3c7" stroke="black" points="320.31,-149.8 317.31,-153.8 296.31,-153.8 293.31,-149.8 203.69,-149.8 203.69,-113.8 320.31,-113.8 320.31,-149.8"/>
<text text-anchor="middle" x="262" y="-127.6" font-family="Times,serif" font-size="14.00">EducationModule</text>
</g>
<!-- EducationCategoryDashboardComponent&#45;&gt;EducationModule -->
<g id="edge1" class="edge">
<title>EducationCategoryDashboardComponent&#45;&gt;EducationModule</title>
<path fill="none" stroke="black" d="M470.88,-84.91C470.88,-104.14 470.88,-131.8 470.88,-131.8 470.88,-131.8 330.18,-131.8 330.18,-131.8"/>
<polygon fill="black" stroke="black" points="330.18,-128.3 320.18,-131.8 330.18,-135.3 330.18,-128.3"/>
</g>
<!-- EducationComponent -->
<g id="node2" class="node">
<title>EducationComponent</title>
<polygon fill="#ffffb3" stroke="black" points="402.1,-84.8 263.9,-84.8 263.9,-48.8 402.1,-48.8 402.1,-84.8"/>
<text text-anchor="middle" x="333" y="-62.6" font-family="Times,serif" font-size="14.00">EducationComponent</text>
</g>
<!-- EducationComponent&#45;&gt;EducationModule -->
<g id="edge2" class="edge">
<title>EducationComponent&#45;&gt;EducationModule</title>
<path fill="none" stroke="black" d="M292.05,-84.91C292.05,-84.91 292.05,-103.79 292.05,-103.79"/>
<polygon fill="black" stroke="black" points="288.55,-103.79 292.05,-113.79 295.55,-103.79 288.55,-103.79"/>
</g>
<!-- EducationCategoryDashboardComponent  -->
<g id="node6" class="node">
<title>EducationCategoryDashboardComponent </title>
<polygon fill="#fb8072" stroke="black" points="521.55,-214.8 268.45,-214.8 268.45,-178.8 521.55,-178.8 521.55,-214.8"/>
<text text-anchor="middle" x="395" y="-192.6" font-family="Times,serif" font-size="14.00">EducationCategoryDashboardComponent </text>
</g>
<!-- EducationModule&#45;&gt;EducationCategoryDashboardComponent  -->
<g id="edge5" class="edge">
<title>EducationModule&#45;&gt;EducationCategoryDashboardComponent </title>
<path fill="none" stroke="black" stroke-dasharray="5,2" d="M294.19,-149.91C294.19,-149.91 294.19,-168.79 294.19,-168.79"/>
<polygon fill="black" stroke="black" points="290.69,-168.79 294.19,-178.79 297.69,-168.79 290.69,-168.79"/>
</g>
<!-- EducationComponent  -->
<g id="node7" class="node">
<title>EducationComponent </title>
<polygon fill="#fb8072" stroke="black" points="249.6,-214.8 108.4,-214.8 108.4,-178.8 249.6,-178.8 249.6,-214.8"/>
<text text-anchor="middle" x="179" y="-192.6" font-family="Times,serif" font-size="14.00">EducationComponent </text>
</g>
<!-- EducationModule&#45;&gt;EducationComponent  -->
<g id="edge6" class="edge">
<title>EducationModule&#45;&gt;EducationComponent </title>
<path fill="none" stroke="black" stroke-dasharray="5,2" d="M226.82,-149.91C226.82,-149.91 226.82,-168.79 226.82,-168.79"/>
<polygon fill="black" stroke="black" points="223.32,-168.79 226.82,-178.79 230.32,-168.79 223.32,-168.79"/>
</g>
<!-- CoreModule -->
<g id="node4" class="node">
<title>CoreModule</title>
<polygon fill="#8dd3c7" stroke="black" points="240.26,-84.8 237.26,-88.8 216.26,-88.8 213.26,-84.8 153.74,-84.8 153.74,-48.8 240.26,-48.8 240.26,-84.8"/>
<text text-anchor="middle" x="197" y="-62.6" font-family="Times,serif" font-size="14.00">CoreModule</text>
</g>
<!-- CoreModule&#45;&gt;EducationModule -->
<g id="edge3" class="edge">
<title>CoreModule&#45;&gt;EducationModule</title>
<path fill="none" stroke="black" d="M222.11,-84.91C222.11,-84.91 222.11,-103.79 222.11,-103.79"/>
<polygon fill="black" stroke="black" points="218.61,-103.79 222.11,-113.79 225.61,-103.79 218.61,-103.79"/>
</g>
<!-- TranslateModule -->
<g id="node5" class="node">
<title>TranslateModule</title>
<polygon fill="#8dd3c7" stroke="black" points="135.63,-84.8 132.63,-88.8 111.63,-88.8 108.63,-84.8 24.37,-84.8 24.37,-48.8 135.63,-48.8 135.63,-84.8"/>
<text text-anchor="middle" x="80" y="-62.6" font-family="Times,serif" font-size="14.00">TranslateModule</text>
</g>
<!-- TranslateModule&#45;&gt;EducationModule -->
<g id="edge4" class="edge">
<title>TranslateModule&#45;&gt;EducationModule</title>
<path fill="none" stroke="black" d="M122.01,-84.91C122.01,-104.14 122.01,-131.8 122.01,-131.8 122.01,-131.8 193.44,-131.8 193.44,-131.8"/>
<polygon fill="black" stroke="black" points="193.44,-135.3 203.44,-131.8 193.44,-128.3 193.44,-135.3"/>
</g>
</g>
</svg>
