<?xml version="1.0" encoding="UTF-8" standalone="no"?>
<!DOCTYPE svg PUBLIC "-//W3C//DTD SVG 1.1//EN"
 "http://www.w3.org/Graphics/SVG/1.1/DTD/svg11.dtd">
<!-- Generated by graphviz version 2.47.3 (20210619.1520)
 -->
<!-- Title: dependencies Pages: 1 -->
<svg width="785pt" height="247pt"
 viewBox="0.00 0.00 785.00 246.80" xmlns="http://www.w3.org/2000/svg" xmlns:xlink="http://www.w3.org/1999/xlink">
<g id="graph0" class="graph" transform="scale(1 1) rotate(0) translate(4 242.8)">
<title>dependencies</title>
<polygon fill="white" stroke="transparent" points="-4,4 -4,-242.8 781,-242.8 781,4 -4,4"/>
<text text-anchor="middle" x="388.5" y="-8.2" font-family="sans-serif" font-size="14.00">dependencies</text>
<g id="clust1" class="cluster">
<title>cluster_LoginListModule</title>
<polygon fill="none" stroke="black" stroke-dasharray="1,5" points="8,-32.8 8,-230.8 769,-230.8 769,-32.8 8,-32.8"/>
</g>
<g id="clust2" class="cluster">
<title>cluster_LoginListModule_declarations</title>
<polygon fill="none" stroke="black" points="256,-40.8 256,-92.8 761,-92.8 761,-40.8 256,-40.8"/>
</g>
<g id="clust6" class="cluster">
<title>cluster_LoginListModule_imports</title>
<polygon fill="none" stroke="black" points="16,-40.8 16,-92.8 248,-92.8 248,-40.8 16,-40.8"/>
</g>
<g id="clust7" class="cluster">
<title>cluster_LoginListModule_exports</title>
<polygon fill="none" stroke="black" points="105,-170.8 105,-222.8 621,-222.8 621,-170.8 105,-170.8"/>
</g>
<!-- LoginAuthenticationComponent -->
<g id="node1" class="node">
<title>LoginAuthenticationComponent</title>
<polygon fill="#ffffb3" stroke="black" points="752.98,-84.8 555.02,-84.8 555.02,-48.8 752.98,-48.8 752.98,-84.8"/>
<text text-anchor="middle" x="654" y="-62.6" font-family="Times,serif" font-size="14.00">LoginAuthenticationComponent</text>
</g>
<!-- LoginListModule -->
<g id="node4" class="node">
<title>LoginListModule</title>
<polygon fill="#8dd3c7" stroke="black" points="380.27,-149.8 377.27,-153.8 356.27,-153.8 353.27,-149.8 265.73,-149.8 265.73,-113.8 380.27,-113.8 380.27,-149.8"/>
<text text-anchor="middle" x="323" y="-127.6" font-family="Times,serif" font-size="14.00">LoginListModule</text>
</g>
<!-- LoginAuthenticationComponent&#45;&gt;LoginListModule -->
<g id="edge1" class="edge">
<title>LoginAuthenticationComponent&#45;&gt;LoginListModule</title>
<path fill="none" stroke="black" d="M583.88,-84.91C583.88,-104.14 583.88,-131.8 583.88,-131.8 583.88,-131.8 390.57,-131.8 390.57,-131.8"/>
<polygon fill="black" stroke="black" points="390.57,-128.3 380.57,-131.8 390.57,-135.3 390.57,-128.3"/>
</g>
<!-- LoginListComponent -->
<g id="node2" class="node">
<title>LoginListComponent</title>
<polygon fill="#ffffb3" stroke="black" points="537.05,-84.8 400.95,-84.8 400.95,-48.8 537.05,-48.8 537.05,-84.8"/>
<text text-anchor="middle" x="469" y="-62.6" font-family="Times,serif" font-size="14.00">LoginListComponent</text>
</g>
<!-- LoginListComponent&#45;&gt;LoginListModule -->
<g id="edge2" class="edge">
<title>LoginListComponent&#45;&gt;LoginListModule</title>
<path fill="none" stroke="black" d="M405.99,-84.83C405.99,-101.2 405.99,-122.8 405.99,-122.8 405.99,-122.8 390.64,-122.8 390.64,-122.8"/>
<polygon fill="black" stroke="black" points="390.64,-119.3 380.64,-122.8 390.64,-126.3 390.64,-119.3"/>
</g>
<!-- SignInComponent -->
<g id="node3" class="node">
<title>SignInComponent</title>
<polygon fill="#ffffb3" stroke="black" points="382.17,-84.8 263.83,-84.8 263.83,-48.8 382.17,-48.8 382.17,-84.8"/>
<text text-anchor="middle" x="323" y="-62.6" font-family="Times,serif" font-size="14.00">SignInComponent</text>
</g>
<!-- SignInComponent&#45;&gt;LoginListModule -->
<g id="edge3" class="edge">
<title>SignInComponent&#45;&gt;LoginListModule</title>
<path fill="none" stroke="black" d="M323,-84.91C323,-84.91 323,-103.79 323,-103.79"/>
<polygon fill="black" stroke="black" points="319.5,-103.79 323,-113.79 326.5,-103.79 319.5,-103.79"/>
</g>
<!-- LoginAuthenticationComponent  -->
<g id="node7" class="node">
<title>LoginAuthenticationComponent </title>
<polygon fill="#fb8072" stroke="black" points="612.98,-214.8 411.02,-214.8 411.02,-178.8 612.98,-178.8 612.98,-214.8"/>
<text text-anchor="middle" x="512" y="-192.6" font-family="Times,serif" font-size="14.00">LoginAuthenticationComponent </text>
</g>
<!-- LoginListModule&#45;&gt;LoginAuthenticationComponent  -->
<g id="edge6" class="edge">
<title>LoginListModule&#45;&gt;LoginAuthenticationComponent </title>
<path fill="none" stroke="black" stroke-dasharray="5,2" d="M380.62,-140.8C423.37,-140.8 474.27,-140.8 474.27,-140.8 474.27,-140.8 474.27,-168.77 474.27,-168.77"/>
<polygon fill="black" stroke="black" points="470.77,-168.77 474.27,-178.77 477.77,-168.77 470.77,-168.77"/>
</g>
<!-- LoginListComponent  -->
<g id="node8" class="node">
<title>LoginListComponent </title>
<polygon fill="#fb8072" stroke="black" points="393.05,-214.8 252.95,-214.8 252.95,-178.8 393.05,-178.8 393.05,-214.8"/>
<text text-anchor="middle" x="323" y="-192.6" font-family="Times,serif" font-size="14.00">LoginListComponent </text>
</g>
<!-- LoginListModule&#45;&gt;LoginListComponent  -->
<g id="edge7" class="edge">
<title>LoginListModule&#45;&gt;LoginListComponent </title>
<path fill="none" stroke="black" stroke-dasharray="5,2" d="M323,-149.91C323,-149.91 323,-168.79 323,-168.79"/>
<polygon fill="black" stroke="black" points="319.5,-168.79 323,-178.79 326.5,-168.79 319.5,-168.79"/>
</g>
<!-- SignInComponent  -->
<g id="node9" class="node">
<title>SignInComponent </title>
<polygon fill="#fb8072" stroke="black" points="235.17,-214.8 112.83,-214.8 112.83,-178.8 235.17,-178.8 235.17,-214.8"/>
<text text-anchor="middle" x="174" y="-192.6" font-family="Times,serif" font-size="14.00">SignInComponent </text>
</g>
<!-- LoginListModule&#45;&gt;SignInComponent  -->
<g id="edge8" class="edge">
<title>LoginListModule&#45;&gt;SignInComponent </title>
<path fill="none" stroke="black" stroke-dasharray="5,2" d="M265.56,-140.8C226.09,-140.8 180.77,-140.8 180.77,-140.8 180.77,-140.8 180.77,-168.77 180.77,-168.77"/>
<polygon fill="black" stroke="black" points="177.27,-168.77 180.77,-178.77 184.27,-168.77 177.27,-168.77"/>
</g>
<!-- CoreModule -->
<g id="node5" class="node">
<title>CoreModule</title>
<polygon fill="#8dd3c7" stroke="black" points="240.26,-84.8 237.26,-88.8 216.26,-88.8 213.26,-84.8 153.74,-84.8 153.74,-48.8 240.26,-48.8 240.26,-84.8"/>
<text text-anchor="middle" x="197" y="-62.6" font-family="Times,serif" font-size="14.00">CoreModule</text>
</g>
<!-- CoreModule&#45;&gt;LoginListModule -->
<g id="edge4" class="edge">
<title>CoreModule&#45;&gt;LoginListModule</title>
<path fill="none" stroke="black" d="M207.93,-84.83C207.93,-101.2 207.93,-122.8 207.93,-122.8 207.93,-122.8 255.46,-122.8 255.46,-122.8"/>
<polygon fill="black" stroke="black" points="255.46,-126.3 265.46,-122.8 255.46,-119.3 255.46,-126.3"/>
</g>
<!-- TranslateModule -->
<g id="node6" class="node">
<title>TranslateModule</title>
<polygon fill="#8dd3c7" stroke="black" points="135.63,-84.8 132.63,-88.8 111.63,-88.8 108.63,-84.8 24.37,-84.8 24.37,-48.8 135.63,-48.8 135.63,-84.8"/>
<text text-anchor="middle" x="80" y="-62.6" font-family="Times,serif" font-size="14.00">TranslateModule</text>
</g>
<!-- TranslateModule&#45;&gt;LoginListModule -->
<g id="edge5" class="edge">
<title>TranslateModule&#45;&gt;LoginListModule</title>
<path fill="none" stroke="black" d="M124.37,-84.91C124.37,-104.14 124.37,-131.8 124.37,-131.8 124.37,-131.8 255.55,-131.8 255.55,-131.8"/>
<polygon fill="black" stroke="black" points="255.55,-135.3 265.55,-131.8 255.55,-128.3 255.55,-135.3"/>
</g>
</g>
</svg>
