<?xml version="1.0" encoding="UTF-8" standalone="no"?>
<!DOCTYPE svg PUBLIC "-//W3C//DTD SVG 1.1//EN"
 "http://www.w3.org/Graphics/SVG/1.1/DTD/svg11.dtd">
<!-- Generated by graphviz version 2.47.3 (20210619.1520)
 -->
<!-- Title: dependencies Pages: 1 -->
<svg width="549pt" height="174pt"
 viewBox="0.00 0.00 549.00 173.80" xmlns="http://www.w3.org/2000/svg" xmlns:xlink="http://www.w3.org/1999/xlink">
<g id="graph0" class="graph" transform="scale(1 1) rotate(0) translate(4 169.8)">
<title>dependencies</title>
<polygon fill="white" stroke="transparent" points="-4,4 -4,-169.8 545,-169.8 545,4 -4,4"/>
<text text-anchor="middle" x="270.5" y="-8.2" font-family="sans-serif" font-size="14.00">dependencies</text>
<g id="clust1" class="cluster">
<title>cluster_HealthPageModule</title>
<polygon fill="none" stroke="black" stroke-dasharray="1,5" points="8,-32.8 8,-157.8 533,-157.8 533,-32.8 8,-32.8"/>
</g>
<g id="clust2" class="cluster">
<title>cluster_HealthPageModule_declarations</title>
<polygon fill="none" stroke="black" points="429,-40.8 429,-92.8 525,-92.8 525,-40.8 429,-40.8"/>
</g>
<g id="clust4" class="cluster">
<title>cluster_HealthPageModule_imports</title>
<polygon fill="none" stroke="black" points="16,-40.8 16,-92.8 421,-92.8 421,-40.8 16,-40.8"/>
</g>
<!-- HealthPage -->
<g id="node1" class="node">
<title>HealthPage</title>
<polygon fill="#ffffb3" stroke="black" points="517.03,-84.8 436.97,-84.8 436.97,-48.8 517.03,-48.8 517.03,-84.8"/>
<text text-anchor="middle" x="477" y="-62.6" font-family="Times,serif" font-size="14.00">HealthPage</text>
</g>
<!-- HealthPageModule -->
<g id="node2" class="node">
<title>HealthPageModule</title>
<polygon fill="#8dd3c7" stroke="black" points="377.08,-149.8 374.08,-153.8 353.08,-153.8 350.08,-149.8 252.92,-149.8 252.92,-113.8 377.08,-113.8 377.08,-149.8"/>
<text text-anchor="middle" x="315" y="-127.6" font-family="Times,serif" font-size="14.00">HealthPageModule</text>
</g>
<!-- HealthPage&#45;&gt;HealthPageModule -->
<g id="edge1" class="edge">
<title>HealthPage&#45;&gt;HealthPageModule</title>
<path fill="none" stroke="black" d="M477,-84.91C477,-104.14 477,-131.8 477,-131.8 477,-131.8 387.17,-131.8 387.17,-131.8"/>
<polygon fill="black" stroke="black" points="387.17,-128.3 377.17,-131.8 387.17,-135.3 387.17,-128.3"/>
</g>
<!-- CoreModule -->
<g id="node3" class="node">
<title>CoreModule</title>
<polygon fill="#8dd3c7" stroke="black" points="413.26,-84.8 410.26,-88.8 389.26,-88.8 386.26,-84.8 326.74,-84.8 326.74,-48.8 413.26,-48.8 413.26,-84.8"/>
<text text-anchor="middle" x="370" y="-62.6" font-family="Times,serif" font-size="14.00">CoreModule</text>
</g>
<!-- CoreModule&#45;&gt;HealthPageModule -->
<g id="edge2" class="edge">
<title>CoreModule&#45;&gt;HealthPageModule</title>
<path fill="none" stroke="black" d="M351.83,-84.91C351.83,-84.91 351.83,-103.79 351.83,-103.79"/>
<polygon fill="black" stroke="black" points="348.33,-103.79 351.83,-113.79 355.33,-103.79 348.33,-103.79"/>
</g>
<!-- HealthModule -->
<g id="node4" class="node">
<title>HealthModule</title>
<polygon fill="#8dd3c7" stroke="black" points="308.37,-84.8 305.37,-88.8 284.37,-88.8 281.37,-84.8 211.63,-84.8 211.63,-48.8 308.37,-48.8 308.37,-84.8"/>
<text text-anchor="middle" x="260" y="-62.6" font-family="Times,serif" font-size="14.00">HealthModule</text>
</g>
<!-- HealthModule&#45;&gt;HealthPageModule -->
<g id="edge3" class="edge">
<title>HealthModule&#45;&gt;HealthPageModule</title>
<path fill="none" stroke="black" d="M280.7,-84.91C280.7,-84.91 280.7,-103.79 280.7,-103.79"/>
<polygon fill="black" stroke="black" points="277.2,-103.79 280.7,-113.79 284.2,-103.79 277.2,-103.79"/>
</g>
<!-- HealthPageRoutingModule -->
<g id="node5" class="node">
<title>HealthPageRoutingModule</title>
<polygon fill="#8dd3c7" stroke="black" points="193.7,-84.8 190.7,-88.8 169.7,-88.8 166.7,-84.8 24.3,-84.8 24.3,-48.8 193.7,-48.8 193.7,-84.8"/>
<text text-anchor="middle" x="109" y="-62.6" font-family="Times,serif" font-size="14.00">HealthPageRoutingModule</text>
</g>
<!-- HealthPageRoutingModule&#45;&gt;HealthPageModule -->
<g id="edge4" class="edge">
<title>HealthPageRoutingModule&#45;&gt;HealthPageModule</title>
<path fill="none" stroke="black" d="M109,-84.91C109,-104.14 109,-131.8 109,-131.8 109,-131.8 242.91,-131.8 242.91,-131.8"/>
<polygon fill="black" stroke="black" points="242.91,-135.3 252.91,-131.8 242.91,-128.3 242.91,-135.3"/>
</g>
</g>
</svg>
