<?xml version="1.0" encoding="UTF-8" standalone="no"?>
<!DOCTYPE svg PUBLIC "-//W3C//DTD SVG 1.1//EN"
 "http://www.w3.org/Graphics/SVG/1.1/DTD/svg11.dtd">
<!-- Generated by graphviz version 2.47.3 (20210619.1520)
 -->
<!-- Title: dependencies Pages: 1 -->
<svg width="366pt" height="247pt"
 viewBox="0.00 0.00 366.00 246.80" xmlns="http://www.w3.org/2000/svg" xmlns:xlink="http://www.w3.org/1999/xlink">
<g id="graph0" class="graph" transform="scale(1 1) rotate(0) translate(4 242.8)">
<title>dependencies</title>
<polygon fill="white" stroke="transparent" points="-4,4 -4,-242.8 362,-242.8 362,4 -4,4"/>
<text text-anchor="middle" x="179" y="-8.2" font-family="sans-serif" font-size="14.00">dependencies</text>
<g id="clust1" class="cluster">
<title>cluster_WealthWellnessModule</title>
<polygon fill="none" stroke="black" stroke-dasharray="1,5" points="8,-32.8 8,-230.8 350,-230.8 350,-32.8 8,-32.8"/>
</g>
<g id="clust4" class="cluster">
<title>cluster_WealthWellnessModule_imports</title>
<polygon fill="none" stroke="black" points="214,-40.8 214,-92.8 342,-92.8 342,-40.8 214,-40.8"/>
</g>
<g id="clust2" class="cluster">
<title>cluster_WealthWellnessModule_declarations</title>
<polygon fill="none" stroke="black" points="16,-40.8 16,-92.8 206,-92.8 206,-40.8 16,-40.8"/>
</g>
<g id="clust5" class="cluster">
<title>cluster_WealthWellnessModule_exports</title>
<polygon fill="none" stroke="black" points="83,-170.8 83,-222.8 275,-222.8 275,-170.8 83,-170.8"/>
</g>
<!-- WealthWellnessComponent -->
<g id="node1" class="node">
<title>WealthWellnessComponent</title>
<polygon fill="#ffffb3" stroke="black" points="197.57,-84.8 24.43,-84.8 24.43,-48.8 197.57,-48.8 197.57,-84.8"/>
<text text-anchor="middle" x="111" y="-62.6" font-family="Times,serif" font-size="14.00">WealthWellnessComponent</text>
</g>
<!-- WealthWellnessModule -->
<g id="node2" class="node">
<title>WealthWellnessModule</title>
<polygon fill="#8dd3c7" stroke="black" points="254.79,-149.8 251.79,-153.8 230.79,-153.8 227.79,-149.8 103.21,-149.8 103.21,-113.8 254.79,-113.8 254.79,-149.8"/>
<text text-anchor="middle" x="179" y="-127.6" font-family="Times,serif" font-size="14.00">WealthWellnessModule</text>
</g>
<!-- WealthWellnessComponent&#45;&gt;WealthWellnessModule -->
<g id="edge1" class="edge">
<title>WealthWellnessComponent&#45;&gt;WealthWellnessModule</title>
<path fill="none" stroke="black" d="M150.45,-84.91C150.45,-84.91 150.45,-103.79 150.45,-103.79"/>
<polygon fill="black" stroke="black" points="146.95,-103.79 150.45,-113.79 153.95,-103.79 146.95,-103.79"/>
</g>
<!-- WealthWellnessComponent  -->
<g id="node4" class="node">
<title>WealthWellnessComponent </title>
<polygon fill="#fb8072" stroke="black" points="267.07,-214.8 90.93,-214.8 90.93,-178.8 267.07,-178.8 267.07,-214.8"/>
<text text-anchor="middle" x="179" y="-192.6" font-family="Times,serif" font-size="14.00">WealthWellnessComponent </text>
</g>
<!-- WealthWellnessModule&#45;&gt;WealthWellnessComponent  -->
<g id="edge3" class="edge">
<title>WealthWellnessModule&#45;&gt;WealthWellnessComponent </title>
<path fill="none" stroke="black" stroke-dasharray="5,2" d="M179,-149.91C179,-149.91 179,-168.79 179,-168.79"/>
<polygon fill="black" stroke="black" points="175.5,-168.79 179,-178.79 182.5,-168.79 175.5,-168.79"/>
</g>
<!-- TranslateModule -->
<g id="node3" class="node">
<title>TranslateModule</title>
<polygon fill="#8dd3c7" stroke="black" points="333.63,-84.8 330.63,-88.8 309.63,-88.8 306.63,-84.8 222.37,-84.8 222.37,-48.8 333.63,-48.8 333.63,-84.8"/>
<text text-anchor="middle" x="278" y="-62.6" font-family="Times,serif" font-size="14.00">TranslateModule</text>
</g>
<!-- TranslateModule&#45;&gt;WealthWellnessModule -->
<g id="edge2" class="edge">
<title>TranslateModule&#45;&gt;WealthWellnessModule</title>
<path fill="none" stroke="black" d="M238.41,-84.91C238.41,-84.91 238.41,-103.79 238.41,-103.79"/>
<polygon fill="black" stroke="black" points="234.91,-103.79 238.41,-113.79 241.91,-103.79 234.91,-103.79"/>
</g>
</g>
</svg>
