<?xml version="1.0" encoding="UTF-8" standalone="no"?>
<!DOCTYPE svg PUBLIC "-//W3C//DTD SVG 1.1//EN"
 "http://www.w3.org/Graphics/SVG/1.1/DTD/svg11.dtd">
<!-- Generated by graphviz version 2.47.3 (20210619.1520)
 -->
<!-- Title: dependencies Pages: 1 -->
<svg width="330pt" height="174pt"
 viewBox="0.00 0.00 330.00 173.80" xmlns="http://www.w3.org/2000/svg" xmlns:xlink="http://www.w3.org/1999/xlink">
<g id="graph0" class="graph" transform="scale(1 1) rotate(0) translate(4 169.8)">
<title>dependencies</title>
<polygon fill="white" stroke="transparent" points="-4,4 -4,-169.8 326,-169.8 326,4 -4,4"/>
<text text-anchor="middle" x="161" y="-8.2" font-family="sans-serif" font-size="14.00">dependencies</text>
<g id="clust1" class="cluster">
<title>cluster_StocksPageModule</title>
<polygon fill="none" stroke="black" stroke-dasharray="1,5" points="8,-32.8 8,-157.8 314,-157.8 314,-32.8 8,-32.8"/>
</g>
<g id="clust4" class="cluster">
<title>cluster_StocksPageModule_imports</title>
<polygon fill="none" stroke="black" points="120,-40.8 120,-92.8 306,-92.8 306,-40.8 120,-40.8"/>
</g>
<g id="clust2" class="cluster">
<title>cluster_StocksPageModule_declarations</title>
<polygon fill="none" stroke="black" points="16,-40.8 16,-92.8 112,-92.8 112,-40.8 16,-40.8"/>
</g>
<!-- StocksPage -->
<g id="node1" class="node">
<title>StocksPage</title>
<polygon fill="#ffffb3" stroke="black" points="104.05,-84.8 23.95,-84.8 23.95,-48.8 104.05,-48.8 104.05,-84.8"/>
<text text-anchor="middle" x="64" y="-62.6" font-family="Times,serif" font-size="14.00">StocksPage</text>
</g>
<!-- StocksPageModule -->
<g id="node2" class="node">
<title>StocksPageModule</title>
<polygon fill="#8dd3c7" stroke="black" points="207.09,-149.8 204.09,-153.8 183.09,-153.8 180.09,-149.8 82.91,-149.8 82.91,-113.8 207.09,-113.8 207.09,-149.8"/>
<text text-anchor="middle" x="145" y="-127.6" font-family="Times,serif" font-size="14.00">StocksPageModule</text>
</g>
<!-- StocksPage&#45;&gt;StocksPageModule -->
<g id="edge1" class="edge">
<title>StocksPage&#45;&gt;StocksPageModule</title>
<path fill="none" stroke="black" d="M93.61,-84.91C93.61,-84.91 93.61,-103.79 93.61,-103.79"/>
<polygon fill="black" stroke="black" points="90.11,-103.79 93.61,-113.79 97.11,-103.79 90.11,-103.79"/>
</g>
<!-- StocksPageRoutingModule -->
<g id="node3" class="node">
<title>StocksPageRoutingModule</title>
<polygon fill="#8dd3c7" stroke="black" points="297.71,-84.8 294.71,-88.8 273.71,-88.8 270.71,-84.8 128.29,-84.8 128.29,-48.8 297.71,-48.8 297.71,-84.8"/>
<text text-anchor="middle" x="213" y="-62.6" font-family="Times,serif" font-size="14.00">StocksPageRoutingModule</text>
</g>
<!-- StocksPageRoutingModule&#45;&gt;StocksPageModule -->
<g id="edge2" class="edge">
<title>StocksPageRoutingModule&#45;&gt;StocksPageModule</title>
<path fill="none" stroke="black" d="M167.72,-84.91C167.72,-84.91 167.72,-103.79 167.72,-103.79"/>
<polygon fill="black" stroke="black" points="164.22,-103.79 167.72,-113.79 171.22,-103.79 164.22,-103.79"/>
</g>
</g>
</svg>
