<?xml version="1.0" encoding="UTF-8" standalone="no"?>
<!DOCTYPE svg PUBLIC "-//W3C//DTD SVG 1.1//EN"
 "http://www.w3.org/Graphics/SVG/1.1/DTD/svg11.dtd">
<!-- Generated by graphviz version 2.47.3 (20210619.1520)
 -->
<!-- Title: dependencies Pages: 1 -->
<svg width="816pt" height="174pt"
 viewBox="0.00 0.00 816.00 173.80" xmlns="http://www.w3.org/2000/svg" xmlns:xlink="http://www.w3.org/1999/xlink">
<g id="graph0" class="graph" transform="scale(1 1) rotate(0) translate(4 169.8)">
<title>dependencies</title>
<polygon fill="white" stroke="transparent" points="-4,4 -4,-169.8 812,-169.8 812,4 -4,4"/>
<text text-anchor="middle" x="404" y="-8.2" font-family="sans-serif" font-size="14.00">dependencies</text>
<g id="clust1" class="cluster">
<title>cluster_ProductDetailsPageModule</title>
<polygon fill="none" stroke="black" stroke-dasharray="1,5" points="8,-32.8 8,-157.8 800,-157.8 800,-32.8 8,-32.8"/>
</g>
<g id="clust2" class="cluster">
<title>cluster_ProductDetailsPageModule_declarations</title>
<polygon fill="none" stroke="black" points="650,-40.8 650,-92.8 792,-92.8 792,-40.8 650,-40.8"/>
</g>
<g id="clust4" class="cluster">
<title>cluster_ProductDetailsPageModule_imports</title>
<polygon fill="none" stroke="black" points="16,-40.8 16,-92.8 642,-92.8 642,-40.8 16,-40.8"/>
</g>
<!-- ProductDetailsPage -->
<g id="node1" class="node">
<title>ProductDetailsPage</title>
<polygon fill="#ffffb3" stroke="black" points="784.41,-84.8 657.59,-84.8 657.59,-48.8 784.41,-48.8 784.41,-84.8"/>
<text text-anchor="middle" x="721" y="-62.6" font-family="Times,serif" font-size="14.00">ProductDetailsPage</text>
</g>
<!-- ProductDetailsPageModule -->
<g id="node2" class="node">
<title>ProductDetailsPageModule</title>
<polygon fill="#8dd3c7" stroke="black" points="542.96,-149.8 539.96,-153.8 518.96,-153.8 515.96,-149.8 373.04,-149.8 373.04,-113.8 542.96,-113.8 542.96,-149.8"/>
<text text-anchor="middle" x="458" y="-127.6" font-family="Times,serif" font-size="14.00">ProductDetailsPageModule</text>
</g>
<!-- ProductDetailsPage&#45;&gt;ProductDetailsPageModule -->
<g id="edge1" class="edge">
<title>ProductDetailsPage&#45;&gt;ProductDetailsPageModule</title>
<path fill="none" stroke="black" d="M721,-84.91C721,-104.14 721,-131.8 721,-131.8 721,-131.8 553.03,-131.8 553.03,-131.8"/>
<polygon fill="black" stroke="black" points="553.03,-128.3 543.03,-131.8 553.03,-135.3 553.03,-128.3"/>
</g>
<!-- CoreModule -->
<g id="node3" class="node">
<title>CoreModule</title>
<polygon fill="#8dd3c7" stroke="black" points="634.26,-84.8 631.26,-88.8 610.26,-88.8 607.26,-84.8 547.74,-84.8 547.74,-48.8 634.26,-48.8 634.26,-84.8"/>
<text text-anchor="middle" x="591" y="-62.6" font-family="Times,serif" font-size="14.00">CoreModule</text>
</g>
<!-- CoreModule&#45;&gt;ProductDetailsPageModule -->
<g id="edge2" class="edge">
<title>CoreModule&#45;&gt;ProductDetailsPageModule</title>
<path fill="none" stroke="black" d="M547.54,-66.8C540.88,-66.8 536.18,-66.8 536.18,-66.8 536.18,-66.8 536.18,-103.69 536.18,-103.69"/>
<polygon fill="black" stroke="black" points="532.68,-103.69 536.18,-113.69 539.68,-103.69 532.68,-103.69"/>
</g>
<!-- ProductDetailsModule -->
<g id="node4" class="node">
<title>ProductDetailsModule</title>
<polygon fill="#8dd3c7" stroke="black" points="529.25,-84.8 526.25,-88.8 505.25,-88.8 502.25,-84.8 386.75,-84.8 386.75,-48.8 529.25,-48.8 529.25,-84.8"/>
<text text-anchor="middle" x="458" y="-62.6" font-family="Times,serif" font-size="14.00">ProductDetailsModule</text>
</g>
<!-- ProductDetailsModule&#45;&gt;ProductDetailsPageModule -->
<g id="edge3" class="edge">
<title>ProductDetailsModule&#45;&gt;ProductDetailsPageModule</title>
<path fill="none" stroke="black" d="M458,-84.91C458,-84.91 458,-103.79 458,-103.79"/>
<polygon fill="black" stroke="black" points="454.5,-103.79 458,-113.79 461.5,-103.79 454.5,-103.79"/>
</g>
<!-- ProductDetailsPageRoutingModule -->
<g id="node5" class="node">
<title>ProductDetailsPageRoutingModule</title>
<polygon fill="#8dd3c7" stroke="black" points="368.58,-84.8 365.58,-88.8 344.58,-88.8 341.58,-84.8 153.42,-84.8 153.42,-48.8 368.58,-48.8 368.58,-84.8"/>
<text text-anchor="middle" x="261" y="-62.6" font-family="Times,serif" font-size="14.00">ProductDetailsPageRoutingModule</text>
</g>
<!-- ProductDetailsPageRoutingModule&#45;&gt;ProductDetailsPageModule -->
<g id="edge4" class="edge">
<title>ProductDetailsPageRoutingModule&#45;&gt;ProductDetailsPageModule</title>
<path fill="none" stroke="black" d="M368.86,-66.8C375.64,-66.8 379.82,-66.8 379.82,-66.8 379.82,-66.8 379.82,-103.69 379.82,-103.69"/>
<polygon fill="black" stroke="black" points="376.32,-103.69 379.82,-113.69 383.32,-103.69 376.32,-103.69"/>
</g>
<!-- TranslateModule -->
<g id="node6" class="node">
<title>TranslateModule</title>
<polygon fill="#8dd3c7" stroke="black" points="135.63,-84.8 132.63,-88.8 111.63,-88.8 108.63,-84.8 24.37,-84.8 24.37,-48.8 135.63,-48.8 135.63,-84.8"/>
<text text-anchor="middle" x="80" y="-62.6" font-family="Times,serif" font-size="14.00">TranslateModule</text>
</g>
<!-- TranslateModule&#45;&gt;ProductDetailsPageModule -->
<g id="edge5" class="edge">
<title>TranslateModule&#45;&gt;ProductDetailsPageModule</title>
<path fill="none" stroke="black" d="M80,-84.91C80,-104.14 80,-131.8 80,-131.8 80,-131.8 362.7,-131.8 362.7,-131.8"/>
<polygon fill="black" stroke="black" points="362.7,-135.3 372.7,-131.8 362.7,-128.3 362.7,-135.3"/>
</g>
</g>
</svg>
