<?xml version="1.0" encoding="UTF-8" standalone="no"?>
<!DOCTYPE svg PUBLIC "-//W3C//DTD SVG 1.1//EN"
 "http://www.w3.org/Graphics/SVG/1.1/DTD/svg11.dtd">
<!-- Generated by graphviz version 2.47.3 (20210619.1520)
 -->
<!-- Title: dependencies Pages: 1 -->
<svg width="660pt" height="174pt"
 viewBox="0.00 0.00 660.00 173.80" xmlns="http://www.w3.org/2000/svg" xmlns:xlink="http://www.w3.org/1999/xlink">
<g id="graph0" class="graph" transform="scale(1 1) rotate(0) translate(4 169.8)">
<title>dependencies</title>
<polygon fill="white" stroke="transparent" points="-4,4 -4,-169.8 656,-169.8 656,4 -4,4"/>
<text text-anchor="middle" x="326" y="-8.2" font-family="sans-serif" font-size="14.00">dependencies</text>
<g id="clust1" class="cluster">
<title>cluster_MutualFundsPageModule</title>
<polygon fill="none" stroke="black" stroke-dasharray="1,5" points="8,-32.8 8,-157.8 644,-157.8 644,-32.8 8,-32.8"/>
</g>
<g id="clust4" class="cluster">
<title>cluster_MutualFundsPageModule_imports</title>
<polygon fill="none" stroke="black" points="158,-40.8 158,-92.8 636,-92.8 636,-40.8 158,-40.8"/>
</g>
<g id="clust2" class="cluster">
<title>cluster_MutualFundsPageModule_declarations</title>
<polygon fill="none" stroke="black" points="16,-40.8 16,-92.8 150,-92.8 150,-40.8 16,-40.8"/>
</g>
<!-- MutualFundsPage -->
<g id="node1" class="node">
<title>MutualFundsPage</title>
<polygon fill="#ffffb3" stroke="black" points="141.88,-84.8 24.12,-84.8 24.12,-48.8 141.88,-48.8 141.88,-84.8"/>
<text text-anchor="middle" x="83" y="-62.6" font-family="Times,serif" font-size="14.00">MutualFundsPage</text>
</g>
<!-- MutualFundsPageModule -->
<g id="node2" class="node">
<title>MutualFundsPageModule</title>
<polygon fill="#8dd3c7" stroke="black" points="443.93,-149.8 440.93,-153.8 419.93,-153.8 416.93,-149.8 282.07,-149.8 282.07,-113.8 443.93,-113.8 443.93,-149.8"/>
<text text-anchor="middle" x="363" y="-127.6" font-family="Times,serif" font-size="14.00">MutualFundsPageModule</text>
</g>
<!-- MutualFundsPage&#45;&gt;MutualFundsPageModule -->
<g id="edge1" class="edge">
<title>MutualFundsPage&#45;&gt;MutualFundsPageModule</title>
<path fill="none" stroke="black" d="M83,-84.91C83,-104.14 83,-131.8 83,-131.8 83,-131.8 272.01,-131.8 272.01,-131.8"/>
<polygon fill="black" stroke="black" points="272.01,-135.3 282.01,-131.8 272.01,-128.3 272.01,-135.3"/>
</g>
<!-- CoreModule -->
<g id="node3" class="node">
<title>CoreModule</title>
<polygon fill="#8dd3c7" stroke="black" points="628.26,-84.8 625.26,-88.8 604.26,-88.8 601.26,-84.8 541.74,-84.8 541.74,-48.8 628.26,-48.8 628.26,-84.8"/>
<text text-anchor="middle" x="585" y="-62.6" font-family="Times,serif" font-size="14.00">CoreModule</text>
</g>
<!-- CoreModule&#45;&gt;MutualFundsPageModule -->
<g id="edge2" class="edge">
<title>CoreModule&#45;&gt;MutualFundsPageModule</title>
<path fill="none" stroke="black" d="M585,-84.91C585,-104.14 585,-131.8 585,-131.8 585,-131.8 453.78,-131.8 453.78,-131.8"/>
<polygon fill="black" stroke="black" points="453.78,-128.3 443.78,-131.8 453.78,-135.3 453.78,-128.3"/>
</g>
<!-- MutualFundsModule -->
<g id="node4" class="node">
<title>MutualFundsModule</title>
<polygon fill="#8dd3c7" stroke="black" points="524.22,-84.8 521.22,-88.8 500.22,-88.8 497.22,-84.8 389.78,-84.8 389.78,-48.8 524.22,-48.8 524.22,-84.8"/>
<text text-anchor="middle" x="457" y="-62.6" font-family="Times,serif" font-size="14.00">MutualFundsModule</text>
</g>
<!-- MutualFundsModule&#45;&gt;MutualFundsPageModule -->
<g id="edge3" class="edge">
<title>MutualFundsModule&#45;&gt;MutualFundsPageModule</title>
<path fill="none" stroke="black" d="M416.8,-84.91C416.8,-84.91 416.8,-103.79 416.8,-103.79"/>
<polygon fill="black" stroke="black" points="413.3,-103.79 416.8,-113.79 420.3,-103.79 413.3,-103.79"/>
</g>
<!-- MutualFundsPageRoutingModule -->
<g id="node5" class="node">
<title>MutualFundsPageRoutingModule</title>
<polygon fill="#8dd3c7" stroke="black" points="372.05,-84.8 369.05,-88.8 348.05,-88.8 345.05,-84.8 165.95,-84.8 165.95,-48.8 372.05,-48.8 372.05,-84.8"/>
<text text-anchor="middle" x="269" y="-62.6" font-family="Times,serif" font-size="14.00">MutualFundsPageRoutingModule</text>
</g>
<!-- MutualFundsPageRoutingModule&#45;&gt;MutualFundsPageModule -->
<g id="edge4" class="edge">
<title>MutualFundsPageRoutingModule&#45;&gt;MutualFundsPageModule</title>
<path fill="none" stroke="black" d="M327.28,-84.91C327.28,-84.91 327.28,-103.79 327.28,-103.79"/>
<polygon fill="black" stroke="black" points="323.78,-103.79 327.28,-113.79 330.78,-103.79 323.78,-103.79"/>
</g>
</g>
</svg>
