<?xml version="1.0" encoding="UTF-8" standalone="no"?>
<!DOCTYPE svg PUBLIC "-//W3C//DTD SVG 1.1//EN"
 "http://www.w3.org/Graphics/SVG/1.1/DTD/svg11.dtd">
<!-- Generated by graphviz version 2.47.3 (20210619.1520)
 -->
<!-- Title: dependencies Pages: 1 -->
<svg width="607pt" height="174pt"
 viewBox="0.00 0.00 607.00 173.80" xmlns="http://www.w3.org/2000/svg" xmlns:xlink="http://www.w3.org/1999/xlink">
<g id="graph0" class="graph" transform="scale(1 1) rotate(0) translate(4 169.8)">
<title>dependencies</title>
<polygon fill="white" stroke="transparent" points="-4,4 -4,-169.8 603,-169.8 603,4 -4,4"/>
<text text-anchor="middle" x="299.5" y="-8.2" font-family="sans-serif" font-size="14.00">dependencies</text>
<g id="clust1" class="cluster">
<title>cluster_EducationPageModule</title>
<polygon fill="none" stroke="black" stroke-dasharray="1,5" points="8,-32.8 8,-157.8 591,-157.8 591,-32.8 8,-32.8"/>
</g>
<g id="clust2" class="cluster">
<title>cluster_EducationPageModule_declarations</title>
<polygon fill="none" stroke="black" points="467,-40.8 467,-92.8 583,-92.8 583,-40.8 467,-40.8"/>
</g>
<g id="clust4" class="cluster">
<title>cluster_EducationPageModule_imports</title>
<polygon fill="none" stroke="black" points="16,-40.8 16,-92.8 459,-92.8 459,-40.8 16,-40.8"/>
</g>
<!-- EducationPage -->
<g id="node1" class="node">
<title>EducationPage</title>
<polygon fill="#ffffb3" stroke="black" points="574.97,-84.8 475.03,-84.8 475.03,-48.8 574.97,-48.8 574.97,-84.8"/>
<text text-anchor="middle" x="525" y="-62.6" font-family="Times,serif" font-size="14.00">EducationPage</text>
</g>
<!-- EducationPageModule -->
<g id="node2" class="node">
<title>EducationPageModule</title>
<polygon fill="#8dd3c7" stroke="black" points="419.53,-149.8 416.53,-153.8 395.53,-153.8 392.53,-149.8 276.47,-149.8 276.47,-113.8 419.53,-113.8 419.53,-149.8"/>
<text text-anchor="middle" x="348" y="-127.6" font-family="Times,serif" font-size="14.00">EducationPageModule</text>
</g>
<!-- EducationPage&#45;&gt;EducationPageModule -->
<g id="edge1" class="edge">
<title>EducationPage&#45;&gt;EducationPageModule</title>
<path fill="none" stroke="black" d="M525,-84.91C525,-104.14 525,-131.8 525,-131.8 525,-131.8 429.74,-131.8 429.74,-131.8"/>
<polygon fill="black" stroke="black" points="429.74,-128.3 419.74,-131.8 429.74,-135.3 429.74,-128.3"/>
</g>
<!-- CoreModule -->
<g id="node3" class="node">
<title>CoreModule</title>
<polygon fill="#8dd3c7" stroke="black" points="451.26,-84.8 448.26,-88.8 427.26,-88.8 424.26,-84.8 364.74,-84.8 364.74,-48.8 451.26,-48.8 451.26,-84.8"/>
<text text-anchor="middle" x="408" y="-62.6" font-family="Times,serif" font-size="14.00">CoreModule</text>
</g>
<!-- CoreModule&#45;&gt;EducationPageModule -->
<g id="edge2" class="edge">
<title>CoreModule&#45;&gt;EducationPageModule</title>
<path fill="none" stroke="black" d="M392.19,-84.91C392.19,-84.91 392.19,-103.79 392.19,-103.79"/>
<polygon fill="black" stroke="black" points="388.69,-103.79 392.19,-113.79 395.69,-103.79 388.69,-103.79"/>
</g>
<!-- EducationModule -->
<g id="node4" class="node">
<title>EducationModule</title>
<polygon fill="#8dd3c7" stroke="black" points="346.31,-84.8 343.31,-88.8 322.31,-88.8 319.31,-84.8 229.69,-84.8 229.69,-48.8 346.31,-48.8 346.31,-84.8"/>
<text text-anchor="middle" x="288" y="-62.6" font-family="Times,serif" font-size="14.00">EducationModule</text>
</g>
<!-- EducationModule&#45;&gt;EducationPageModule -->
<g id="edge3" class="edge">
<title>EducationModule&#45;&gt;EducationPageModule</title>
<path fill="none" stroke="black" d="M311.2,-84.91C311.2,-84.91 311.2,-103.79 311.2,-103.79"/>
<polygon fill="black" stroke="black" points="307.7,-103.79 311.2,-113.79 314.7,-103.79 307.7,-103.79"/>
</g>
<!-- EducationPageRoutingModule -->
<g id="node5" class="node">
<title>EducationPageRoutingModule</title>
<polygon fill="#8dd3c7" stroke="black" points="212.14,-84.8 209.14,-88.8 188.14,-88.8 185.14,-84.8 23.86,-84.8 23.86,-48.8 212.14,-48.8 212.14,-84.8"/>
<text text-anchor="middle" x="118" y="-62.6" font-family="Times,serif" font-size="14.00">EducationPageRoutingModule</text>
</g>
<!-- EducationPageRoutingModule&#45;&gt;EducationPageModule -->
<g id="edge4" class="edge">
<title>EducationPageRoutingModule&#45;&gt;EducationPageModule</title>
<path fill="none" stroke="black" d="M118,-84.91C118,-104.14 118,-131.8 118,-131.8 118,-131.8 266.17,-131.8 266.17,-131.8"/>
<polygon fill="black" stroke="black" points="266.17,-135.3 276.17,-131.8 266.17,-128.3 266.17,-135.3"/>
</g>
</g>
</svg>
