<?xml version="1.0" encoding="UTF-8" standalone="no"?>
<!DOCTYPE svg PUBLIC "-//W3C//DTD SVG 1.1//EN"
 "http://www.w3.org/Graphics/SVG/1.1/DTD/svg11.dtd">
<!-- Generated by graphviz version 2.47.3 (20210619.1520)
 -->
<!-- Title: dependencies Pages: 1 -->
<svg width="1330pt" height="247pt"
 viewBox="0.00 0.00 1330.00 246.80" xmlns="http://www.w3.org/2000/svg" xmlns:xlink="http://www.w3.org/1999/xlink">
<g id="graph0" class="graph" transform="scale(1 1) rotate(0) translate(4 242.8)">
<title>dependencies</title>
<polygon fill="white" stroke="transparent" points="-4,4 -4,-242.8 1326,-242.8 1326,4 -4,4"/>
<text text-anchor="middle" x="661" y="-8.2" font-family="sans-serif" font-size="14.00">dependencies</text>
<g id="clust1" class="cluster">
<title>cluster_ContainerViewPageModule</title>
<polygon fill="none" stroke="black" stroke-dasharray="1,5" points="8,-32.8 8,-230.8 1314,-230.8 1314,-32.8 8,-32.8"/>
</g>
<g id="clust2" class="cluster">
<title>cluster_ContainerViewPageModule_declarations</title>
<polygon fill="none" stroke="black" points="1162,-40.8 1162,-92.8 1306,-92.8 1306,-40.8 1162,-40.8"/>
</g>
<g id="clust4" class="cluster">
<title>cluster_ContainerViewPageModule_imports</title>
<polygon fill="none" stroke="black" points="16,-40.8 16,-92.8 1154,-92.8 1154,-40.8 16,-40.8"/>
</g>
<g id="clust5" class="cluster">
<title>cluster_ContainerViewPageModule_exports</title>
<polygon fill="none" stroke="black" points="628,-170.8 628,-222.8 776,-222.8 776,-170.8 628,-170.8"/>
</g>
<!-- ContainerViewPage -->
<g id="node1" class="node">
<title>ContainerViewPage</title>
<polygon fill="#ffffb3" stroke="black" points="1298.24,-84.8 1169.76,-84.8 1169.76,-48.8 1298.24,-48.8 1298.24,-84.8"/>
<text text-anchor="middle" x="1234" y="-62.6" font-family="Times,serif" font-size="14.00">ContainerViewPage</text>
</g>
<!-- ContainerViewPageModule -->
<g id="node2" class="node">
<title>ContainerViewPageModule</title>
<polygon fill="#8dd3c7" stroke="black" points="788.29,-149.8 785.29,-153.8 764.29,-153.8 761.29,-149.8 615.71,-149.8 615.71,-113.8 788.29,-113.8 788.29,-149.8"/>
<text text-anchor="middle" x="702" y="-127.6" font-family="Times,serif" font-size="14.00">ContainerViewPageModule</text>
</g>
<!-- ContainerViewPage&#45;&gt;ContainerViewPageModule -->
<g id="edge1" class="edge">
<title>ContainerViewPage&#45;&gt;ContainerViewPageModule</title>
<path fill="none" stroke="black" d="M1234,-84.81C1234,-107.29 1234,-142.8 1234,-142.8 1234,-142.8 798.36,-142.8 798.36,-142.8"/>
<polygon fill="black" stroke="black" points="798.36,-139.3 788.36,-142.8 798.36,-146.3 798.36,-139.3"/>
</g>
<!-- ContainerViewPage  -->
<g id="node11" class="node">
<title>ContainerViewPage </title>
<polygon fill="#fb8072" stroke="black" points="768.24,-214.8 635.76,-214.8 635.76,-178.8 768.24,-178.8 768.24,-214.8"/>
<text text-anchor="middle" x="702" y="-192.6" font-family="Times,serif" font-size="14.00">ContainerViewPage </text>
</g>
<!-- ContainerViewPageModule&#45;&gt;ContainerViewPage  -->
<g id="edge11" class="edge">
<title>ContainerViewPageModule&#45;&gt;ContainerViewPage </title>
<path fill="none" stroke="black" stroke-dasharray="5,2" d="M702,-149.91C702,-149.91 702,-168.79 702,-168.79"/>
<polygon fill="black" stroke="black" points="698.5,-168.79 702,-178.79 705.5,-168.79 698.5,-168.79"/>
</g>
<!-- ContainerViewPageRoutingModule -->
<g id="node3" class="node">
<title>ContainerViewPageRoutingModule</title>
<polygon fill="#8dd3c7" stroke="black" points="1145.91,-84.8 1142.91,-88.8 1121.91,-88.8 1118.91,-84.8 928.09,-84.8 928.09,-48.8 1145.91,-48.8 1145.91,-84.8"/>
<text text-anchor="middle" x="1037" y="-62.6" font-family="Times,serif" font-size="14.00">ContainerViewPageRoutingModule</text>
</g>
<!-- ContainerViewPageRoutingModule&#45;&gt;ContainerViewPageModule -->
<g id="edge2" class="edge">
<title>ContainerViewPageRoutingModule&#45;&gt;ContainerViewPageModule</title>
<path fill="none" stroke="black" d="M1037,-84.93C1037,-105.37 1037,-135.8 1037,-135.8 1037,-135.8 798.27,-135.8 798.27,-135.8"/>
<polygon fill="black" stroke="black" points="798.27,-132.3 788.27,-135.8 798.27,-139.3 798.27,-132.3"/>
</g>
<!-- CoreModule -->
<g id="node4" class="node">
<title>CoreModule</title>
<polygon fill="#8dd3c7" stroke="black" points="910.26,-84.8 907.26,-88.8 886.26,-88.8 883.26,-84.8 823.74,-84.8 823.74,-48.8 910.26,-48.8 910.26,-84.8"/>
<text text-anchor="middle" x="867" y="-62.6" font-family="Times,serif" font-size="14.00">CoreModule</text>
</g>
<!-- CoreModule&#45;&gt;ContainerViewPageModule -->
<g id="edge3" class="edge">
<title>CoreModule&#45;&gt;ContainerViewPageModule</title>
<path fill="none" stroke="black" d="M852.54,-84.81C852.54,-100.85 852.54,-121.8 852.54,-121.8 852.54,-121.8 798.26,-121.8 798.26,-121.8"/>
<polygon fill="black" stroke="black" points="798.26,-118.3 788.26,-121.8 798.26,-125.3 798.26,-118.3"/>
</g>
<!-- CoreModule&#45;&gt;ContainerViewPageModule -->
<g id="edge4" class="edge">
<title>CoreModule&#45;&gt;ContainerViewPageModule</title>
<path fill="none" stroke="black" d="M881.46,-85.07C881.46,-103.36 881.46,-128.8 881.46,-128.8 881.46,-128.8 798.31,-128.8 798.31,-128.8"/>
<polygon fill="black" stroke="black" points="798.31,-125.3 788.31,-128.8 798.31,-132.3 798.31,-125.3"/>
</g>
<!-- IntroModule -->
<g id="node5" class="node">
<title>IntroModule</title>
<polygon fill="#8dd3c7" stroke="black" points="805.26,-84.8 802.26,-88.8 781.26,-88.8 778.26,-84.8 718.74,-84.8 718.74,-48.8 805.26,-48.8 805.26,-84.8"/>
<text text-anchor="middle" x="762" y="-62.6" font-family="Times,serif" font-size="14.00">IntroModule</text>
</g>
<!-- IntroModule&#45;&gt;ContainerViewPageModule -->
<g id="edge5" class="edge">
<title>IntroModule&#45;&gt;ContainerViewPageModule</title>
<path fill="none" stroke="black" d="M753.38,-84.91C753.38,-84.91 753.38,-103.79 753.38,-103.79"/>
<polygon fill="black" stroke="black" points="749.88,-103.79 753.38,-113.79 756.88,-103.79 749.88,-103.79"/>
</g>
<!-- LibConfigModule -->
<g id="node6" class="node">
<title>LibConfigModule</title>
<polygon fill="#8dd3c7" stroke="black" points="700.88,-84.8 697.88,-88.8 676.88,-88.8 673.88,-84.8 583.12,-84.8 583.12,-48.8 700.88,-48.8 700.88,-84.8"/>
<text text-anchor="middle" x="642" y="-62.6" font-family="Times,serif" font-size="14.00">LibConfigModule</text>
</g>
<!-- LibConfigModule&#45;&gt;ContainerViewPageModule -->
<g id="edge6" class="edge">
<title>LibConfigModule&#45;&gt;ContainerViewPageModule</title>
<path fill="none" stroke="black" d="M658.4,-84.91C658.4,-84.91 658.4,-103.79 658.4,-103.79"/>
<polygon fill="black" stroke="black" points="654.9,-103.79 658.4,-113.79 661.9,-103.79 654.9,-103.79"/>
</g>
<!-- LoginPageModule -->
<g id="node7" class="node">
<title>LoginPageModule</title>
<polygon fill="#8dd3c7" stroke="black" points="565.2,-84.8 562.2,-88.8 541.2,-88.8 538.2,-84.8 444.8,-84.8 444.8,-48.8 565.2,-48.8 565.2,-84.8"/>
<text text-anchor="middle" x="505" y="-62.6" font-family="Times,serif" font-size="14.00">LoginPageModule</text>
</g>
<!-- LoginPageModule&#45;&gt;ContainerViewPageModule -->
<g id="edge7" class="edge">
<title>LoginPageModule&#45;&gt;ContainerViewPageModule</title>
<path fill="none" stroke="black" d="M505,-84.81C505,-100.85 505,-121.8 505,-121.8 505,-121.8 605.59,-121.8 605.59,-121.8"/>
<polygon fill="black" stroke="black" points="605.59,-125.3 615.59,-121.8 605.59,-118.3 605.59,-125.3"/>
</g>
<!-- ProductDetailsModule -->
<g id="node8" class="node">
<title>ProductDetailsModule</title>
<polygon fill="#8dd3c7" stroke="black" points="427.25,-84.8 424.25,-88.8 403.25,-88.8 400.25,-84.8 284.75,-84.8 284.75,-48.8 427.25,-48.8 427.25,-84.8"/>
<text text-anchor="middle" x="356" y="-62.6" font-family="Times,serif" font-size="14.00">ProductDetailsModule</text>
</g>
<!-- ProductDetailsModule&#45;&gt;ContainerViewPageModule -->
<g id="edge8" class="edge">
<title>ProductDetailsModule&#45;&gt;ContainerViewPageModule</title>
<path fill="none" stroke="black" d="M356,-85.07C356,-103.36 356,-128.8 356,-128.8 356,-128.8 605.58,-128.8 605.58,-128.8"/>
<polygon fill="black" stroke="black" points="605.58,-132.3 615.58,-128.8 605.58,-125.3 605.58,-132.3"/>
</g>
<!-- SubmenuModule -->
<g id="node9" class="node">
<title>SubmenuModule</title>
<polygon fill="#8dd3c7" stroke="black" points="266.44,-84.8 263.44,-88.8 242.44,-88.8 239.44,-84.8 153.56,-84.8 153.56,-48.8 266.44,-48.8 266.44,-84.8"/>
<text text-anchor="middle" x="210" y="-62.6" font-family="Times,serif" font-size="14.00">SubmenuModule</text>
</g>
<!-- SubmenuModule&#45;&gt;ContainerViewPageModule -->
<g id="edge9" class="edge">
<title>SubmenuModule&#45;&gt;ContainerViewPageModule</title>
<path fill="none" stroke="black" d="M210,-84.93C210,-105.37 210,-135.8 210,-135.8 210,-135.8 605.74,-135.8 605.74,-135.8"/>
<polygon fill="black" stroke="black" points="605.74,-139.3 615.74,-135.8 605.74,-132.3 605.74,-139.3"/>
</g>
<!-- TranslateModule -->
<g id="node10" class="node">
<title>TranslateModule</title>
<polygon fill="#8dd3c7" stroke="black" points="135.63,-84.8 132.63,-88.8 111.63,-88.8 108.63,-84.8 24.37,-84.8 24.37,-48.8 135.63,-48.8 135.63,-84.8"/>
<text text-anchor="middle" x="80" y="-62.6" font-family="Times,serif" font-size="14.00">TranslateModule</text>
</g>
<!-- TranslateModule&#45;&gt;ContainerViewPageModule -->
<g id="edge10" class="edge">
<title>TranslateModule&#45;&gt;ContainerViewPageModule</title>
<path fill="none" stroke="black" d="M80,-84.81C80,-107.29 80,-142.8 80,-142.8 80,-142.8 605.84,-142.8 605.84,-142.8"/>
<polygon fill="black" stroke="black" points="605.84,-146.3 615.84,-142.8 605.84,-139.3 605.84,-146.3"/>
</g>
</g>
</svg>
