<svg id="Component_56_1" data-name="Component 56 – 1" xmlns="http://www.w3.org/2000/svg" width="10.161" height="11.718" viewBox="0 0 10.161 11.718">
  <g id="next" transform="translate(9.911 -117.492) rotate(90)">
    <g id="Group_11589" data-name="Group 11589" transform="translate(117.742 0)">
      <path id="Path_15599" data-name="Path 15599" d="M122.85,4.566,118.381.109a.374.374,0,0,0-.529.53l4.2,4.191-4.2,4.191a.374.374,0,0,0,.529.53L122.85,5.1a.374.374,0,0,0,0-.53Z" transform="translate(-117.742 0)" fill="#80a1e4"/>
      <path id="Path_15599_-_Outline" data-name="Path 15599 - Outline" d="M118.117-.25a.621.621,0,0,1,.441.182l4.469,4.456a.621.621,0,0,1,.184.442.628.628,0,0,1-.184.442l-4.468,4.456a.624.624,0,0,1-.882-.884L121.7,4.831,117.676.817a.625.625,0,0,1,0-.883A.621.621,0,0,1,118.117-.25Zm0,9.661a.124.124,0,0,0,.088-.036l4.469-4.456a.124.124,0,0,0,0-.176L118.2.286a.124.124,0,0,0-.176.176l4.38,4.368L118.029,9.2a.124.124,0,0,0,.088.213Z" transform="translate(-117.742 0)" fill="#80a1e4"/>
    </g>
  </g>
  <g id="next-2" data-name="next" transform="translate(9.911 -111.492) rotate(90)">
    <g id="Group_11589-2" data-name="Group 11589" transform="translate(117.742 0)">
      <path id="Path_15599-2" data-name="Path 15599" d="M122.85,4.566,118.381.109a.374.374,0,0,0-.529.53l4.2,4.191-4.2,4.191a.374.374,0,0,0,.529.53L122.85,5.1a.374.374,0,0,0,0-.53Z" transform="translate(-117.742 0)" fill="#039"/>
      <path id="Path_15599_-_Outline-2" data-name="Path 15599 - Outline" d="M118.117-.25a.621.621,0,0,1,.441.182l4.469,4.456a.621.621,0,0,1,.184.442.628.628,0,0,1-.184.442l-4.468,4.456a.624.624,0,0,1-.882-.884L121.7,4.831,117.676.817a.625.625,0,0,1,0-.883A.621.621,0,0,1,118.117-.25Zm0,9.661a.124.124,0,0,0,.088-.036l4.469-4.456a.124.124,0,0,0,0-.176L118.2.286a.124.124,0,0,0-.176.176l4.38,4.368L118.029,9.2a.124.124,0,0,0,.088.213Z" transform="translate(-117.742 0)" fill="#039"/>
    </g>
  </g>
</svg>
