<svg xmlns="http://www.w3.org/2000/svg" width="12" height="10" viewBox="0 0 12 10">
  <path id="Union_21" data-name="Union 21" d="M-1803.5-6914a1.5,1.5,0,0,1-1.06-.439,1.5,1.5,0,0,1-.44-1.06v-2a.5.5,0,0,1,.146-.354.5.5,0,0,1,.354-.146.5.5,0,0,1,.353.146.5.5,0,0,1,.146.354v2a.493.493,0,0,0,.148.353.5.5,0,0,0,.353.148h9a.5.5,0,0,0,.354-.148.5.5,0,0,0,.146-.353v-2a.5.5,0,0,1,.146-.354.5.5,0,0,1,.354-.146.5.5,0,0,1,.353.146.5.5,0,0,1,.148.354v2a1.5,1.5,0,0,1-.44,1.06,1.5,1.5,0,0,1-1.062.439Zm3.439-2.937-2.292-2.294a.5.5,0,0,1-.113-.164.488.488,0,0,1-.04-.193.49.49,0,0,1,.036-.193.509.509,0,0,1,.109-.165.5.5,0,0,1,.165-.109.52.52,0,0,1,.193-.037.465.465,0,0,1,.193.042.471.471,0,0,1,.163.111l2.146,2.146v-5.708a.5.5,0,0,1,.146-.353A.5.5,0,0,1-1799-6924a.5.5,0,0,1,.353.148.5.5,0,0,1,.146.353v5.708l2.148-2.146a.488.488,0,0,1,.162-.111.5.5,0,0,1,.193-.042.5.5,0,0,1,.195.039.484.484,0,0,1,.163.109.5.5,0,0,1,.109.163.5.5,0,0,1,.036.193.485.485,0,0,1-.04.193.487.487,0,0,1-.111.164l-2.294,2.294a1.5,1.5,0,0,1-1.06.436A1.506,1.506,0,0,1-1800.061-6916.937Z" transform="translate(1804.999 6924)" fill="#039"/>
</svg>
