<svg xmlns="http://www.w3.org/2000/svg" width="8" height="9.6" viewBox="0 0 8 9.6">
  <path id="Union_4" data-name="Union 4" d="M-18704.2-1645.4a2,2,0,0,1-1.414-.588,2,2,0,0,1-.586-1.412v-5.2h-.4a.419.419,0,0,1-.285-.116.4.4,0,0,1-.115-.284.4.4,0,0,1,.115-.284.428.428,0,0,1,.285-.116h1.238a1.974,1.974,0,0,1,.7-1.147,1.982,1.982,0,0,1,1.262-.453h.8a1.983,1.983,0,0,1,1.264.453,2,2,0,0,1,.7,1.147h1.238a.421.421,0,0,1,.285.116.4.4,0,0,1,.115.284.4.4,0,0,1-.115.284.412.412,0,0,1-.285.116h-.4v5.2a1.976,1.976,0,0,1-.59,1.412,1.989,1.989,0,0,1-1.41.588Zm-1.2-2a1.189,1.189,0,0,0,.352.849,1.21,1.21,0,0,0,.848.351h2.4a1.213,1.213,0,0,0,.848-.351,1.206,1.206,0,0,0,.352-.849v-5.2h-4.8Zm1.309-6.58a1.244,1.244,0,0,0-.441.58h3.066a1.244,1.244,0,0,0-.441-.58,1.2,1.2,0,0,0-.691-.22h-.8A1.2,1.2,0,0,0-18704.094-1653.981Zm1.609,6.064a.384.384,0,0,1-.117-.283v-2.4a.388.388,0,0,1,.117-.283.415.415,0,0,1,.281-.116.421.421,0,0,1,.285.116.4.4,0,0,1,.117.283v2.4a.4.4,0,0,1-.117.283.412.412,0,0,1-.285.116A.406.406,0,0,1-18702.484-1647.917Zm-1.6,0a.4.4,0,0,1-.117-.283v-2.4a.4.4,0,0,1,.117-.283.421.421,0,0,1,.285-.116.411.411,0,0,1,.281.116.4.4,0,0,1,.117.283v2.4a.4.4,0,0,1-.117.283.4.4,0,0,1-.281.116A.412.412,0,0,1-18704.086-1647.917Z" transform="translate(18707.002 1655.001)" fill="#039"/>
</svg>
