<svg xmlns="http://www.w3.org/2000/svg" width="46" height="46" viewBox="0 0 46 46">
  <g id="Group_13798" data-name="Group 13798" transform="translate(-43 -169)">
    <circle id="Ellipse_310" data-name="Ellipse 310" cx="23" cy="23" r="23" transform="translate(43 169)" fill="#d9f5ff"/>
    <g id="Component_61_2" data-name="Component 61 – 2" transform="translate(56.584 178.61)">
      <path id="Path_1042" data-name="Path 1042" d="M101.885,22.667A30.093,30.093,0,0,1,101.457,28a12.576,12.576,0,0,1-1.4,4.06,6.828,6.828,0,0,1-2.528,2.57,7.525,7.525,0,0,1-3.812.9,7.446,7.446,0,0,1-3.783-.865,6.188,6.188,0,0,1-2.369-2.5,12.145,12.145,0,0,1-1.232-3.982,36.26,36.26,0,0,1-.352-5.322,29.572,29.572,0,0,1,.44-5.329,12.7,12.7,0,0,1,1.408-4.067,6.828,6.828,0,0,1,2.528-2.57,8.594,8.594,0,0,1,7.583-.033,6.176,6.176,0,0,1,2.381,2.5,12.009,12.009,0,0,1,1.22,3.982A37.144,37.144,0,0,1,101.885,22.667Zm-4.539.26c0-1.171-.029-2.2-.088-3.091a21.694,21.694,0,0,0-.264-2.336,9.617,9.617,0,0,0-.452-1.672,3.245,3.245,0,0,0-.651-1.093,2.176,2.176,0,0,0-.862-.586,3.291,3.291,0,0,0-1.073-.169,7.669,7.669,0,0,0-2.946.511,3.64,3.64,0,0,0-1.056,1.633,11.172,11.172,0,0,0-.54,2.7q-.158,1.62-.158,3.767a41.879,41.879,0,0,0,.188,4.346,10.994,10.994,0,0,0,.6,2.746c.27.677,1.885,1.18,2.307,1.454a3.088,3.088,0,0,0,2.733.169,2.583,2.583,0,0,0,.909-.709,3.965,3.965,0,0,0,.645-1.2,9.439,9.439,0,0,0,.422-1.672,17.907,17.907,0,0,0,.229-2.154C97.328,24.775,97.346,23.89,97.346,22.927Z" transform="translate(-83.577 -9.274)" fill="#44c8f5"/>
      <g id="Group_564" data-name="Group 564">
        <path id="Path_1043" data-name="Path 1043" d="M94.418,7.843a11.829,11.829,0,0,0-1.43-4.2A7.1,7.1,0,0,0,90.117.931a11.07,11.07,0,0,0-8.96.032,7.847,7.847,0,0,0-3.028,2.774,12.57,12.57,0,0,0-1.646,4.276,27.589,27.589,0,0,0-.5,5.475,33.657,33.657,0,0,0,.4,5.45,11.957,11.957,0,0,0,1.443,4.194,7.11,7.11,0,0,0,2.857,2.715,11.1,11.1,0,0,0,8.974-.031,7.847,7.847,0,0,0,3.028-2.774,12.437,12.437,0,0,0,1.639-4.271,28.088,28.088,0,0,0,.489-5.48,34.45,34.45,0,0,0-.394-5.448ZM93.3,18.565A11.4,11.4,0,0,1,91.8,22.477a6.814,6.814,0,0,1-2.628,2.41,10.083,10.083,0,0,1-8.009.034A6.082,6.082,0,0,1,78.723,22.6a10.928,10.928,0,0,1-1.31-3.83,32.617,32.617,0,0,1-.386-5.279,26.547,26.547,0,0,1,.481-5.266,11.534,11.534,0,0,1,1.5-3.92,6.814,6.814,0,0,1,2.628-2.41,10.05,10.05,0,0,1,8-.033,6.071,6.071,0,0,1,2.455,2.323,10.8,10.8,0,0,1,1.3,3.828,33.41,33.41,0,0,1,.38,5.281,27.05,27.05,0,0,1-.468,5.274Z" transform="translate(-75.981 0)" fill="#039"/>
        <path id="Path_1044" data-name="Path 1044" d="M182.186,80.7V80.7a9.484,9.484,0,0,0-.536-1.785,3.745,3.745,0,0,0-.848-1.274,2.992,2.992,0,0,0-1.162-.709l-.008,0a4.588,4.588,0,0,0-1.354-.194,3.653,3.653,0,0,0-2.192.646,4.156,4.156,0,0,0-1.356,1.874,10.851,10.851,0,0,0-.637,2.858c-.05.457-.089.952-.119,1.471a.523.523,0,0,0,.493.551.556.556,0,0,0,.551-.493c.028-.5.066-.978.114-1.42a9.83,9.83,0,0,1,.568-2.58,3.148,3.148,0,0,1,1-1.417,2.633,2.633,0,0,1,1.576-.445,3.548,3.548,0,0,1,1.041.146,1.929,1.929,0,0,1,.757.466l.009.008a2.718,2.718,0,0,1,.6.925,8.445,8.445,0,0,1,.473,1.583,19.443,19.443,0,0,1,.286,2.289c.064.882.1,1.917.1,3.077,0,1.013-.021,1.874-.065,2.633a15.934,15.934,0,0,1-.248,2.1,8.278,8.278,0,0,1-.443,1.584l0,.008a3.4,3.4,0,0,1-.619,1.048,2.335,2.335,0,0,1-.828.584l-.007,0a3.278,3.278,0,0,1-2.588-.141,2.492,2.492,0,0,1-.952-1.194,9.721,9.721,0,0,1-.629-2.619,48.377,48.377,0,0,1-.151-7.016.523.523,0,0,0-.547-.5.433.433,0,0,0-.435.5,40.324,40.324,0,0,0,.094,7.142,10.583,10.583,0,0,0,.71,2.914A3.5,3.5,0,0,0,176.218,95a4.311,4.311,0,0,0,3.517.2,3.409,3.409,0,0,0,1.2-.84l.008-.008a4.433,4.433,0,0,0,.818-1.37,9.307,9.307,0,0,0,.5-1.778,16.958,16.958,0,0,0,.264-2.24c.045-.779.066-1.66.066-2.692,0-1.185-.034-2.246-.1-3.153A20.157,20.157,0,0,0,182.186,80.7Z" transform="translate(-168.834 -72.721)" fill="#039"/>
      </g>
      <g id="Group_565" data-name="Group 565" transform="translate(7.123 11.34)">
        <path id="Path_1047" data-name="Path 1047" d="M128,7.5l.661,1.055L128,9.611A1.055,1.055,0,1,0,128,7.5Z" transform="translate(-126.879 -7.434)" fill="#039"/>
        <path id="Path_1048" data-name="Path 1048" d="M9.348,8.555c0-.583-.355-1.055-.793-1.055a1.055,1.055,0,1,0,0,2.111C8.993,9.611,9.348,9.138,9.348,8.555Zm-.793.53a.53.53,0,1,1,.53-.53A.53.53,0,0,1,8.555,9.085Z" transform="translate(-7.434 -7.434)" fill="#039"/>
        <path id="Path_1049" data-name="Path 1049" d="M384,263.5l.661,1.055L384,265.611a1.055,1.055,0,1,0,0-2.111Z" transform="translate(-380.637 -261.192)" fill="#039"/>
        <path id="Path_1050" data-name="Path 1050" d="M265.348,264.555c0-.583-.355-1.055-.793-1.055a1.055,1.055,0,1,0,0,2.111C264.993,265.611,265.348,265.138,265.348,264.555Zm-.793.53a.53.53,0,1,1,.53-.53A.53.53,0,0,1,264.555,265.085Z" transform="translate(-261.192 -261.192)" fill="#039"/>
        <path id="Path_1051" data-name="Path 1051" d="M20.485,16.287l-.279.093-3.827,3.827-.093.279a.263.263,0,0,0,.372,0l3.827-3.827A.263.263,0,0,0,20.485,16.287Z" transform="translate(-16.143 -16.144)" fill="#039"/>
        <path id="Path_1052" data-name="Path 1052" d="M11.4,7.577,7.577,11.4a.263.263,0,0,0,0,.372l4.2-4.2A.263.263,0,0,0,11.4,7.577Z" transform="translate(-7.434 -7.434)" fill="#039"/>
        <path id="Path_1053" data-name="Path 1053" d="M2.382,2.491a.066.066,0,0,0-.093,0L.468,4.312a.2.2,0,1,1-.279-.279L4.017.206A.2.2,0,1,1,4.3.485L2.247,2.534a.066.066,0,1,0,.093.093L4.388.578A.328.328,0,1,0,3.924.113L.1,3.941a.328.328,0,0,0,.464.464L2.382,2.584A.066.066,0,0,0,2.382,2.491Z" transform="translate(0 -0.017)" fill="#039"/>
        <path id="Path_1054" data-name="Path 1054" d="M1.121,2.242A1.121,1.121,0,1,0,0,1.121,1.122,1.122,0,0,0,1.121,2.242Zm0-2.111a.99.99,0,1,1-.99.99A.991.991,0,0,1,1.121.131Z" transform="translate(0)" fill="#039"/>
        <path id="Path_1055" data-name="Path 1055" d="M60.6,61.191a.6.6,0,1,0-.6-.6A.6.6,0,0,0,60.6,61.191Zm0-1.06a.464.464,0,1,1-.464.464A.465.465,0,0,1,60.6,60.131Z" transform="translate(-59.474 -59.474)" fill="#039"/>
        <path id="Path_1056" data-name="Path 1056" d="M257.121,256a1.121,1.121,0,1,0,1.121,1.121A1.122,1.122,0,0,0,257.121,256Zm0,2.111a.99.99,0,1,1,.99-.99A.991.991,0,0,1,257.121,258.111Z" transform="translate(-253.758 -253.758)" fill="#039"/>
        <path id="Path_1057" data-name="Path 1057" d="M316.6,316a.6.6,0,1,0,.6.6A.6.6,0,0,0,316.6,316Zm0,1.06a.464.464,0,1,1,.464-.464A.465.465,0,0,1,316.6,317.06Z" transform="translate(-313.232 -313.232)" fill="#039"/>
      </g>
    </g>
  </g>
</svg>
