<svg xmlns="http://www.w3.org/2000/svg" width="46" height="46" viewBox="0 0 46 46">
  <g id="Group_20763" data-name="Group 20763" transform="translate(-158 -169)">
    <g id="Group_13799" data-name="Group 13799">
      <circle id="Ellipse_321" data-name="Ellipse 321" cx="23" cy="23" r="23" transform="translate(158 169)" fill="#d9f5ff"/>
    </g>
    <path id="Path_20865" data-name="Path 20865" d="M29.616,38.845a2.311,2.311,0,0,0-2.248,1.793H24.183a.3.3,0,0,1-.3-.3v-3.6a9.19,9.19,0,0,0,1.76-5.4.409.409,0,0,0-.409-.409H17.644l-6.926,7.545a9.076,9.076,0,0,0,4.724,1.983,9.7,9.7,0,0,0,1.044.057,9.059,9.059,0,0,0,5.967-2.227v2.055a1.731,1.731,0,0,0,1.729,1.729H27.5a2.308,2.308,0,1,0,2.117-3.226Zm0,3.183a.875.875,0,1,1,.875-.875A.875.875,0,0,1,29.616,42.028Z" transform="translate(162.282 160.885)" fill="#44c8f5" stroke="#039" stroke-width="1"/>
    <path id="Path_20866" data-name="Path 20866" d="M30.89,12.211h7.835a.409.409,0,0,0,.409-.409A8.673,8.673,0,0,0,38.9,9.85h1.151a1.731,1.731,0,0,0,1.729-1.729V6.579a2.308,2.308,0,1,0-1.433,0V8.121a.3.3,0,0,1-.3.3H38.476c-.012,0-.023,0-.035,0a8.672,8.672,0,0,0-1.574-2.467h0A8.714,8.714,0,0,0,30.52,3.131h0a.409.409,0,0,0-.409.409v7.889a.783.783,0,0,0,.782.782Zm10.177-8.7a.875.875,0,1,1-.875.875.875.875,0,0,1,.875-.875Z" transform="translate(150.255 177.924)" fill="#d9f5ff" stroke="#039" stroke-width="1"/>
    <path id="Path_20867" data-name="Path 20867" d="M12,9.929a.409.409,0,0,0-.409-.409h-.056A9.165,9.165,0,0,0,4.962,25.086L12,17.42Z" transform="translate(166.645 173.527)" fill="#44c8f5" stroke="#039" stroke-width="1"/>
  </g>
</svg>
