<svg xmlns="http://www.w3.org/2000/svg" width="17.25" height="20.2" viewBox="0 0 17.25 20.2">
  <path id="Icon_material-library-books" data-name="Icon material-library-books" d="M4.6,6.8H3V20.1A1.777,1.777,0,0,0,4.6,22H15.84V20.1H4.6ZM17.445,3H7.815a1.777,1.777,0,0,0-1.6,1.9V16.3a1.777,1.777,0,0,0,1.6,1.9h9.63a1.777,1.777,0,0,0,1.6-1.9V4.9A1.777,1.777,0,0,0,17.445,3Zm-.8,8.55H8.617V9.65h8.025Zm-3.21,3.8H8.617v-1.9h4.815Zm3.21-7.6H8.617V5.85h8.025Z" transform="translate(-2.4 -2.4)" fill="none" stroke="#44c8f5" stroke-width="1.2"/>
</svg>
