<svg id="Component_70_1" data-name="Component 70 – 1" xmlns="http://www.w3.org/2000/svg" width="12" height="17" viewBox="0 0 12 17">
    <defs>
        <style>
            .cls-1{fill:#ee9c15}
        </style>
    </defs>
    <path id="Path_16697" data-name="Path 16697" class="cls-1" d="M5729.659 1276.639v15.938l5.849-5.577 5.168 5.577-.2-16.334z" transform="translate(-5729.15 -1276)"/>
    <path id="Path_16677" data-name="Path 16677" class="cls-1" d="M91.821 0H80.845a.505.505 0 0 0-.512.5v16a.5.5 0 0 0 .316.46.524.524 0 0 0 .558-.108l5.125-4.982 5.125 4.982a.523.523 0 0 0 .558.108.5.5 0 0 0 .316-.46V.5a.505.505 0 0 0-.51-.5zm-5.488 10.669a.52.52 0 0 0-.362.146L81.358 15.3V1h9.951v14.3L86.7 10.815a.52.52 0 0 0-.367-.146z" transform="translate(-80.333)"/>
</svg>
