<svg id="fi-rr-shopping-cart" xmlns="http://www.w3.org/2000/svg" width="14.082" height="14.433" viewBox="0 0 14.082 14.433">
    <defs>
        <style>
            .cls-1{fill:#44c8f5}
        </style>
    </defs>
    <path id="Path_719" data-name="Path 719" class="cls-1" d="M13.662 2.452a1.8 1.8 0 0 0-1.385-.652H2.552l-.025-.211A1.8 1.8 0 0 0 .735 0H.6a.6.6 0 0 0 0 1.2h.135a.6.6 0 0 1 .6.531l.825 7.041a3.008 3.008 0 0 0 2.987 2.657h6.282a.6.6 0 0 0 0-1.2H5.147a1.8 1.8 0 0 1-1.7-1.2h7.17a3.008 3.008 0 0 0 2.96-2.474l.472-2.619a1.8 1.8 0 0 0-.391-1.477zm-.79 1.264L12.4 6.335a1.8 1.8 0 0 1-1.779 1.485H3.26l-.566-4.812h9.583a.6.6 0 0 1 .6.709z"/>
    <circle id="Ellipse_298" data-name="Ellipse 298" class="cls-1" cx="1" cy="1" r="1" transform="translate(3.179 12.433)"/>
    <circle id="Ellipse_299" data-name="Ellipse 299" class="cls-1" cx="1" cy="1" r="1" transform="translate(9.179 12.433)"/>
</svg>
