<svg xmlns="http://www.w3.org/2000/svg" width="36" height="37.001" viewBox="0 0 36 37.001">
  <g id="alert-triangle" transform="translate(-262.055 -284.986)">
    <rect id="Rectangle_7941" data-name="Rectangle 7941" width="36" height="36" transform="translate(262.055 284.986)" fill="#d23d50" opacity="0"/>
    <g id="Path_16636" data-name="Path 16636">
      <path id="Path_18780" data-name="Path 18780" d="M296.375,314.318l-11.856-20.753a5.156,5.156,0,0,0-8.935,0l-11.856,20.753a5.149,5.149,0,0,0,4.468,7.668h23.712a5.119,5.119,0,0,0,4.467-7.668Z" fill="none"/>
      <path id="Path_18781" data-name="Path 18781" d="M291.964,320.487a3.68,3.68,0,0,0,3.172-1.929,3.623,3.623,0,0,0-.059-3.489l0,0,0,0-11.846-20.734a3.655,3.655,0,0,0-6.35,0l-11.845,20.731a3.634,3.634,0,0,0-.058,3.448,3.682,3.682,0,0,0,3.2,1.979h23.788m0,1.5H268.176a5.149,5.149,0,0,1-4.448-7.668l11.856-20.752a5.156,5.156,0,0,1,8.935,0l11.856,20.752a5.119,5.119,0,0,1-4.411,7.669Z" fill="#d23d50"/>
    </g>
    <path id="Union_2" data-name="Union 2" d="M278.419,314.723a1.637,1.637,0,1,1,1.639,1.635h0A1.638,1.638,0,0,1,278.419,314.723Zm0-6.7v-8.4a1.688,1.688,0,1,1,3.273,0v8.4a1.688,1.688,0,1,1-3.273,0Z" fill="#d23d50"/>
  </g>
</svg>
