<svg xmlns="http://www.w3.org/2000/svg" width="42.5" height="42.5" viewBox="0 0 42.5 42.5">
  <g id="all_types_icon" data-name="all types icon" transform="translate(-125.214 -154.215)">
    <path id="Path_23934" data-name="Path 23934" d="M21.25,0A21.25,21.25,0,1,1,0,21.25,21.25,21.25,0,0,1,21.25,0Z" transform="translate(125.214 154.215)" fill="#f6f7fb"/>
    <g id="Group_24020" data-name="Group 24020" transform="translate(136.49 166.245)">
      <path id="Path_23935" data-name="Path 23935" d="M6786.161,812.027l.812-.382h11.083s-.048,3.057,0,3.392-.622,4.777-.622,4.777l-2.389,3.1-1.671,1.29v3.1l.859.908.812.573s-.095.621-.239.621h-5.54l.382-1.194.907-.525h0l.383-3.487-2.532-2.436-1.768-2.532-.478-5.589Z" transform="translate(-6783.055 -811.227)" fill="#aceaff"/>
      <path id="Path_23936" data-name="Path 23936" d="M6793.953,816.081l1,1.565,1.761.239-1.414,1.783.2,1.935-1.544-1-1.978.87.217-2.044-1.413-1.3,2.13-.478Z" transform="translate(-6784.568 -812.787)" fill="#fff"/>
      <g id="trophy" transform="translate(0)">
        <g id="Group_24015" data-name="Group 24015" transform="translate(0)">
          <g id="Group_24014" data-name="Group 24014">
            <path id="Path_23937" data-name="Path 23937" d="M62.787,1.98H61.5V1.291A1.293,1.293,0,0,0,60.2,0H49.874a1.293,1.293,0,0,0-1.291,1.291V1.98H47.291A1.293,1.293,0,0,0,46,3.271c0,2.8,1.31,4.858,3.436,5.431a9.489,9.489,0,0,0,3.343,3.953,1.245,1.245,0,0,1,.538,1.039v2.372a1.724,1.724,0,0,0-1.291,1.668H51.6A1.293,1.293,0,0,0,50.3,19.026v2.583a.43.43,0,0,0,.43.43h8.609a.43.43,0,0,0,.43-.43V19.026a1.293,1.293,0,0,0-1.291-1.291h-.43a1.725,1.725,0,0,0-1.291-1.667V13.7a1.246,1.246,0,0,1,.538-1.042A9.489,9.489,0,0,0,60.643,8.7c2.126-.573,3.436-2.631,3.436-5.431A1.293,1.293,0,0,0,62.787,1.98ZM46.861,3.271a.431.431,0,0,1,.43-.43h1.291V4.765a9.455,9.455,0,0,0,.442,2.867C47.655,6.954,46.861,5.387,46.861,3.271ZM58.483,18.6a.431.431,0,0,1,.43.43v2.152H51.165V19.026a.431.431,0,0,1,.43-.43Zm2.152-13.83a8.655,8.655,0,0,1-3.817,7.177A2.106,2.106,0,0,0,55.9,13.7v2.746a.43.43,0,0,0,.43.43.862.862,0,0,1,.861.861h-4.3a.861.861,0,0,1,.827-.86h.034a.432.432,0,0,0,.43-.432V13.7a2.1,2.1,0,0,0-.918-1.753,8.657,8.657,0,0,1-3.817-7.177V1.291a.431.431,0,0,1,.43-.43H60.2a.431.431,0,0,1,.43.43Zm.419,2.867A9.46,9.46,0,0,0,61.5,4.765V2.841h1.291a.431.431,0,0,1,.43.43C63.218,5.387,62.424,6.954,61.054,7.632Z" transform="translate(-46)" fill="#039"/>
          </g>
        </g>
        <g id="Group_24017" data-name="Group 24017" transform="translate(5.581 2.6)">
          <g id="Group_24016" data-name="Group 24016">
            <path id="Path_23938" data-name="Path 23938" d="M182.515,62.886a.43.43,0,0,0-.348-.293l-1.858-.27-.831-1.684a.43.43,0,0,0-.772,0l-.831,1.684-1.858.27a.43.43,0,0,0-.239.734l1.344,1.31-.317,1.85a.43.43,0,0,0,.625.454l1.661-.873,1.662.873a.43.43,0,0,0,.624-.454l-.318-1.85,1.344-1.31A.43.43,0,0,0,182.515,62.886ZM180.3,64.179a.43.43,0,0,0-.124.381l.208,1.214-1.09-.573a.43.43,0,0,0-.4,0l-1.09.573.208-1.214a.431.431,0,0,0-.124-.381l-.882-.859,1.218-.177a.43.43,0,0,0,.324-.235l.545-1.1.545,1.1a.431.431,0,0,0,.324.235l1.218.177Z" transform="translate(-175.649 -60.4)" fill="#039"/>
          </g>
        </g>
        <g id="Group_24019" data-name="Group 24019" transform="translate(15.669 20.728)">
          <g id="Group_24018" data-name="Group 24018">
            <path id="Path_23939" data-name="Path 23939" d="M410.01,481.576h.24C410.128,481.551,410.045,481.549,410.01,481.576Z" transform="translate(-410.01 -481.557)" fill="#039"/>
          </g>
        </g>
      </g>
    </g>
  </g>
</svg>
