<svg xmlns="http://www.w3.org/2000/svg" width="38" height="38" viewBox="0 0 38 38">
  <g id="Group_23373" data-name="Group 23373" transform="translate(-302 -35)">
    <circle id="Ellipse_297" data-name="Ellipse 297" cx="19" cy="19" r="19" transform="translate(302 35)" fill="#f3f3f3"/>
    <path id="Path_21195" data-name="Path 21195" d="M20.821,3.913a.666.666,0,0,0-.513-.247H18.018l.053-.367a2,2,0,0,0-2-2.3H5.87a2,2,0,0,0-2,2.3l.08.367H1.661a.691.691,0,0,0-.666.8L2.127,10.06a2,2,0,0,0,1.958,1.607H5.277A6,6,0,0,0,8.321,15.06V17h-2a.666.666,0,0,0-.593.367L4.4,20.033A.667.667,0,0,0,4.991,21H16.979a.667.667,0,0,0,.593-.967l-1.332-2.667A.666.666,0,0,0,15.647,17h-2V15.06a6,6,0,0,0,3.044-3.393h1.192a2,2,0,0,0,1.958-1.607l1.132-5.593a.667.667,0,0,0-.153-.553ZM3.432,9.8,2.473,5H4.152l.8,5.333H4.085A.666.666,0,0,1,3.432,9.8ZM15.9,19.666H6.07l.666-1.333h8.5ZM12.317,17H9.653V15.513a5.862,5.862,0,0,0,2.664,0Zm-1.332-2.667a4.717,4.717,0,0,1-4.662-4.047L5.211,3.1a.668.668,0,0,1,.659-.767H16.1a.668.668,0,0,1,.659.767L15.68,10.287A4.717,4.717,0,0,1,10.985,14.333ZM18.537,9.8a.666.666,0,0,1-.666.533h-.866L17.8,5h1.678Z" transform="translate(310.015 43)" fill="#0c3399"/>
  </g>
</svg>
