<svg id="Group_23732" data-name="Group 23732" xmlns="http://www.w3.org/2000/svg" xmlns:xlink="http://www.w3.org/1999/xlink" width="73.848" height="22.248" viewBox="0 0 73.848 22.248">
  <defs>
    <clipPath id="clip-path">
      <rect id="Rectangle_9767" data-name="Rectangle 9767" width="73.848" height="22.248" fill="
      {{}}"/>
    </clipPath>
  </defs>
  <g id="Group_20909" data-name="Group 20909" transform="translate(0 0)" clip-path="url(#clip-path)">
    <path id="Path_21418" data-name="Path 21418" d="M0,9.208c.02-.136.039-.272.059-.408a3.757,3.757,0,0,1,.919-2A4.352,4.352,0,0,1,2.932,5.581a8.551,8.551,0,0,1,1.6-.351c.681-.085,1.363-.157,2.044-.235.052-.006.1-.016.156-.025a.347.347,0,0,0,.012-.062c-.008-.37-.006-.74-.028-1.108a1.488,1.488,0,0,0-.3-.842,1.3,1.3,0,0,0-.729-.463A2.057,2.057,0,0,0,4.2,2.648a1.59,1.59,0,0,0-.857,1.131.663.663,0,0,1-.135.3.361.361,0,0,1-.331.136q-.579-.067-1.159-.13-.465-.051-.93-.1a.425.425,0,0,1-.4-.315.4.4,0,0,1,0-.157A4.013,4.013,0,0,1,1.279,1.59,4.1,4.1,0,0,1,2.8.5,6.189,6.189,0,0,1,4.478.064,7.491,7.491,0,0,1,5.9.015a5.4,5.4,0,0,1,2.47.693A3,3,0,0,1,9.856,2.9a6.955,6.955,0,0,1,.089,1.147q0,2.307,0,4.613a2.63,2.63,0,0,0,.46,1.534c.126.182.258.359.387.538a.629.629,0,0,1,.133.314.363.363,0,0,1-.135.331q-.321.268-.636.543-.523.453-1.042.909a.538.538,0,0,1-.388.161.452.452,0,0,1-.277-.1,4.866,4.866,0,0,1-1.01-1.118c-.074-.117-.157-.228-.241-.351-.138.131-.265.254-.4.374a5.461,5.461,0,0,1-1.05.779,3.839,3.839,0,0,1-1.432.448,6.582,6.582,0,0,1-1.077.049,3.515,3.515,0,0,1-1.883-.59A3,3,0,0,1,.153,10.686c-.063-.245-.084-.5-.126-.751C.02,9.894.009,9.854,0,9.813V9.208M6.745,6.815c-.051,0-.084-.009-.117-.009a6.843,6.843,0,0,0-1.189.1,3.4,3.4,0,0,0-1.1.367,1.849,1.849,0,0,0-.8.841,2.418,2.418,0,0,0-.186,1.28,1.807,1.807,0,0,0,.208.7,1.239,1.239,0,0,0,1.112.674,1.648,1.648,0,0,0,1.318-.6,2.944,2.944,0,0,0,.722-1.84c.024-.373.021-.748.028-1.122,0-.124,0-.248,0-.388" transform="translate(0 -0.001)" fill="#20466c"/>
    <path id="Path_21419" data-name="Path 21419" d="M57.488,2.654c.079-.168.154-.34.239-.505a2.966,2.966,0,0,1,1.242-1.3,2.89,2.89,0,0,1,1.1-.328A3.732,3.732,0,0,1,61.408.6a2.68,2.68,0,0,1,1.474,1.023,4.91,4.91,0,0,1,.517.88c.019.042.041.082.072.142l.058-.138A3.2,3.2,0,0,1,65.017.868,3.423,3.423,0,0,1,66.7.5a3.319,3.319,0,0,1,1.948.646,2.784,2.784,0,0,1,1.1,1.752,6.765,6.765,0,0,1,.115,1.246c0,.3,0,.6,0,.894q-.007,3.856-.014,7.713c0,.034,0,.068,0,.1a.412.412,0,0,1-.44.429c-.447,0-.893,0-1.34,0-.3,0-.605,0-.908,0a.411.411,0,0,1-.437-.43c0-.043,0-.086,0-.13V6.46c0-.437.007-.874,0-1.311a3.185,3.185,0,0,0-.1-.841,1.138,1.138,0,0,0-1.089-.869,1.5,1.5,0,0,0-1.445.685,1.855,1.855,0,0,0-.272.767A9.625,9.625,0,0,0,63.722,6.5c0,.053,0,.106,0,.159v6.07c0,.034,0,.067,0,.1a.419.419,0,0,1-.452.448c-.336,0-.673,0-1.009,0-.4,0-.807,0-1.211,0a.421.421,0,0,1-.461-.467c0-.188,0-.375,0-.563q0-2.8,0-5.608c0-.24.018-.48.015-.72a5.525,5.525,0,0,0-.133-1.472,2.2,2.2,0,0,0-.189-.464,1.1,1.1,0,0,0-.9-.568,1.745,1.745,0,0,0-.615.036,1.255,1.255,0,0,0-.828.663,2.739,2.739,0,0,0-.266.892A7.826,7.826,0,0,0,57.6,6.156q0,3.28,0,6.56c0,.048,0,.1,0,.144a.422.422,0,0,1-.443.416c-.389,0-.778,0-1.167,0-.36,0-.721-.009-1.081,0a.445.445,0,0,1-.445-.442q.008-5.818,0-11.636a.445.445,0,0,1,.457-.465c.692,0,1.384,0,2.075,0a.436.436,0,0,1,.45.454c-.012.437,0,.875,0,1.312,0,.05.005.1.008.151h.033" transform="translate(-41.874 -0.379)" fill="#20466c"/>
    <path id="Path_21420" data-name="Path 21420" d="M136.813,11.418c-.244.219-.467.431-.7.629a4.011,4.011,0,0,1-1.611.861,4.307,4.307,0,0,1-.866.134c-.263.012-.528.029-.791.018a3.445,3.445,0,0,1-1.906-.607,3.033,3.033,0,0,1-1.162-1.7,4.7,4.7,0,0,1-.146-1.584A3.807,3.807,0,0,1,130.425,7,4.077,4.077,0,0,1,132.09,5.75a7.593,7.593,0,0,1,1.674-.462c.619-.108,1.244-.178,1.87-.236.234-.022.467-.051.694-.077.01-.017.018-.025.018-.034a9.555,9.555,0,0,0-.026-1.223,1.45,1.45,0,0,0-.416-.9,1.4,1.4,0,0,0-.712-.356,2.085,2.085,0,0,0-1.334.159,1.6,1.6,0,0,0-.89,1.1,1.2,1.2,0,0,1-.119.305.358.358,0,0,1-.379.177c-.615-.07-1.23-.134-1.845-.2l-.243-.028A.394.394,0,0,1,130,3.519a3.4,3.4,0,0,1,.249-.884A3.845,3.845,0,0,1,132.276.564a6.045,6.045,0,0,1,1.809-.5,7.563,7.563,0,0,1,1.422-.05,5.463,5.463,0,0,1,2.408.655,2.978,2.978,0,0,1,1.4,1.652,3.623,3.623,0,0,1,.2.97c.021.35.035.7.036,1.051q.006,2.112,0,4.224a2.844,2.844,0,0,0,.575,1.788c.09.119.182.236.264.36a1.07,1.07,0,0,1,.133.268.353.353,0,0,1-.129.4c-.312.263-.621.53-.929.8-.243.211-.484.424-.726.636a.587.587,0,0,1-.326.171.482.482,0,0,1-.373-.114,5.19,5.19,0,0,1-1.078-1.23c-.046-.072-.1-.142-.149-.22m-.474-4.606a.67.67,0,0,0-.089-.006c-.344.022-.691.032-1.033.071a3.593,3.593,0,0,0-.972.251,2.007,2.007,0,0,0-1.051.9,2.159,2.159,0,0,0-.237.883,2.186,2.186,0,0,0,.165,1.071,1.236,1.236,0,0,0,.976.763,1.563,1.563,0,0,0,1.23-.325,2.488,2.488,0,0,0,.822-1.192,3.223,3.223,0,0,0,.187-1c.014-.465,0-.931,0-1.414" transform="translate(-99.652 -0.001)" fill="#20466c"/>
    <path id="Path_21421" data-name="Path 21421" d="M281.8,2.855l.059-.139a5.01,5.01,0,0,1,.653-1.148A2.682,2.682,0,0,1,284.356.528a3.826,3.826,0,0,1,1.5.079,2.825,2.825,0,0,1,2.062,2.035,6.028,6.028,0,0,1,.212,1.246c.052.628.054,1.257.054,1.886q0,3.5,0,6.993a.891.891,0,0,1-.008.172.417.417,0,0,1-.413.335c-.163,0-.327,0-.49,0-.591,0-1.182,0-1.773,0a.449.449,0,0,1-.285-.082.378.378,0,0,1-.167-.318c0-.034,0-.067,0-.1q0-3.539,0-7.079a5.179,5.179,0,0,0-.115-1.173,1.985,1.985,0,0,0-.2-.537,1.151,1.151,0,0,0-1.015-.6,1.41,1.41,0,0,0-1.328.758,2.989,2.989,0,0,0-.344.957,6.436,6.436,0,0,0-.115,1.332q0,3.172,0,6.344a.789.789,0,0,1-.01.172.426.426,0,0,1-.4.329h-2.234a.683.683,0,0,1-.171-.014.413.413,0,0,1-.309-.418c0-.322,0-.644,0-.966q0-5.306-.005-10.611c0-.377.154-.531.535-.531.644,0,1.288,0,1.931,0a.852.852,0,0,1,.227.03.411.411,0,0,1,.277.38c-.008.514,0,1.029,0,1.543v.157l.042.01" transform="translate(-214.335 -0.377)" fill="#20466c"/>
    <path id="Path_21422" data-name="Path 21422" d="M231.708.43a5.061,5.061,0,0,1,2.24.521,4.668,4.668,0,0,1,1.74,1.539,6.685,6.685,0,0,1,.99,2.284,8.3,8.3,0,0,1,.233,1.622c.013.34.03.682.017,1.022a7.628,7.628,0,0,1-.827,3.295,5.13,5.13,0,0,1-2.119,2.213,4.554,4.554,0,0,1-1.595.508,5.081,5.081,0,0,1-2.053-.139,4.5,4.5,0,0,1-2.471-1.764A6.5,6.5,0,0,1,226.856,9.3a9.356,9.356,0,0,1-.271-1.877,9.56,9.56,0,0,1,.27-2.841,6.218,6.218,0,0,1,1.13-2.374,4.432,4.432,0,0,1,2.895-1.7c.274-.041.553-.055.829-.082m1.869,6.664c-.01-.329-.02-.631-.029-.934a9.714,9.714,0,0,0-.151-1.488,4.107,4.107,0,0,0-.286-.993,1.322,1.322,0,0,0-.93-.79,2.1,2.1,0,0,0-.385-.048,1.377,1.377,0,0,0-1.257.619,2.935,2.935,0,0,0-.433,1.074,8.959,8.959,0,0,0-.169,1.817c-.009.619,0,1.239.051,1.857a7.393,7.393,0,0,0,.2,1.292,2.976,2.976,0,0,0,.446,1.007,1.4,1.4,0,0,0,2.091.162,2.137,2.137,0,0,0,.465-.721,5.552,5.552,0,0,0,.343-1.729c.026-.383.028-.767.04-1.125" transform="translate(-174.188 -0.331)" fill="#20466c"/>
    <path id="Path_21423" data-name="Path 21423" d="M64.528,69.538c-.36,0-.721.01-1.081,0-.387-.014-.774-.049-1.16-.076-.172-.012-.344-.021-.516-.036q-.308-.027-.614-.063c-.195-.023-.389-.05-.583-.078-.341-.049-.683-.091-1.021-.153-.508-.094-1.015-.192-1.518-.309-.573-.134-1.144-.279-1.71-.44a26.667,26.667,0,0,1-3.074-1.092,28.185,28.185,0,0,1-2.641-1.28,29.007,29.007,0,0,1-2.545-1.578,27.691,27.691,0,0,1-2.3-1.78q-.278-.24-.551-.485a.447.447,0,0,1-.171-.349.3.3,0,0,1,.274-.28.7.7,0,0,1,.355.094c.474.264.946.53,1.425.784.993.526,2.014.99,3.053,1.417q1.384.568,2.809,1.027,1.156.371,2.333.67t2.381.533c.479.092.962.166,1.443.242.382.06.766.117,1.15.166.3.039.609.066.914.094.348.032.7.062,1.045.087q.473.034.947.057c.292.014.584.024.876.029.585.01,1.17.019,1.756.02.263,0,.527-.013.79-.028.373-.022.745-.051,1.117-.078.272-.02.545-.036.816-.063.3-.03.608-.069.912-.106.237-.029.475-.057.712-.091.393-.057.786-.111,1.177-.179q.671-.117,1.339-.255a38.638,38.638,0,0,0,3.888-1.017q1.66-.526,3.264-1.2a.83.83,0,0,1,.475-.056.538.538,0,0,1,.444.568.528.528,0,0,1-.194.359c-.155.128-.316.25-.481.366A21.775,21.775,0,0,1,76.7,66.89a27,27,0,0,1-2.616,1.047,28.672,28.672,0,0,1-2.941.84c-.6.136-1.2.248-1.8.358-.428.078-.859.14-1.29.2-.313.042-.628.069-.943.094-.425.034-.85.066-1.275.087s-.872.029-1.309.042c0-.006,0-.012,0-.019" transform="translate(-34.628 -47.309)" fill="#20466c"/>
    <path id="Path_21424" data-name="Path 21424" d="M187.56,3.945h-.2q-1.816,0-3.632,0a.868.868,0,0,1-.213-.022.376.376,0,0,1-.3-.376q-.005-.865,0-1.73a.4.4,0,0,1,.369-.393,1.3,1.3,0,0,1,.144,0h7.336c.043,0,.087,0,.129,0a.4.4,0,0,1,.379.412c0,.486,0,.971,0,1.456a.668.668,0,0,1-.074.289,4.716,4.716,0,0,1-.312.517q-1.976,2.828-3.958,5.653c-.027.039-.052.079-.089.133.044.005.074.011.1.012.35.011.7.008,1.05.035a7.552,7.552,0,0,1,3.067.857.788.788,0,0,1,.445.747c0,.562,0,1.125,0,1.687a.451.451,0,0,1-.129.339.353.353,0,0,1-.433.077c-.279-.126-.556-.261-.84-.375a8.614,8.614,0,0,0-6.914.308c-.055.028-.112.055-.167.083a.314.314,0,0,1-.374-.051.43.43,0,0,1-.163-.339c0-.634-.006-1.269,0-1.9a1.838,1.838,0,0,1,.343-1.05q2.172-3.1,4.333-6.217c.027-.039.052-.079.1-.148" transform="translate(-140.522 -1.091)" fill="#20466c"/>
    <path id="Path_21425" data-name="Path 21425" d="M186.3,59.672c-.419.016-.735.021-1.051.043-.381.027-.762.068-1.143.107-.347.036-.694.079-1.041.113a.442.442,0,0,1-.182-.027.181.181,0,0,1-.116-.23.487.487,0,0,1,.221-.292c.147-.1.3-.2.45-.284a6.811,6.811,0,0,1,2.049-.73,6.957,6.957,0,0,1,1.094-.145c.431-.013.864-.039,1.294-.02a5.58,5.58,0,0,1,1.636.282c.045.016.089.036.134.052a.584.584,0,0,1,.4.572,3.077,3.077,0,0,1,.024.4c-.021.31-.041.622-.089.928a9.251,9.251,0,0,1-.511,1.867,8.36,8.36,0,0,1-.84,1.652,5.736,5.736,0,0,1-1.105,1.264.593.593,0,0,1-.371.168.2.2,0,0,1-.2-.214,1.248,1.248,0,0,1,.063-.234c.291-.725.573-1.454.812-2.2a10.556,10.556,0,0,0,.347-1.29,5.112,5.112,0,0,0,.091-.725,1.663,1.663,0,0,0-.068-.465.526.526,0,0,0-.3-.334,1.915,1.915,0,0,0-.674-.191c-.342-.037-.687-.054-.93-.071" transform="translate(-140.505 -44.745)" fill="#20466c"/>
  </g>
</svg>
