<svg id="analytics" xmlns="http://www.w3.org/2000/svg" width="24.251" height="24.251" viewBox="0 0 24.251 24.251">
  <g id="Group_12650" data-name="Group 12650" transform="translate(0 1.617)">
    <g id="Group_12649" data-name="Group 12649">
      <g id="Path_17077" data-name="Path 17077" transform="translate(0 -32)" fill="#44c8f5">
        <path d="M 11.31712436676025 54.38424301147461 C 8.360984802246094 54.38424301147461 5.581784248352051 53.23306274414062 3.491484403610229 51.14276504516602 C 1.401184320449829 49.05246353149414 0.250004380941391 46.27326202392578 0.250004380941391 43.31712341308594 C 0.250004380941391 40.36098480224609 1.401184320449829 37.58178329467773 3.491484403610229 35.49148178100586 C 5.581784248352051 33.40118408203125 8.360984802246094 32.25000381469727 11.31712436676025 32.25000381469727 C 11.40214443206787 32.25000381469727 11.47130393981934 32.31916427612305 11.47130393981934 32.40418243408203 L 11.47130393981934 42.91293334960938 L 11.47130393981934 43.16293334960938 L 11.72130393981934 43.16293334960938 L 22.23006439208984 43.16293334960938 C 22.31508445739746 43.16293334960938 22.38424491882324 43.23210525512695 22.38424491882324 43.31712341308594 C 22.38424491882324 46.27326202392578 21.23306465148926 49.05246353149414 19.14276504516602 51.14276504516602 C 17.05246353149414 53.23306274414062 14.27326393127441 54.38424301147461 11.31712436676025 54.38424301147461 Z M 11.16294479370117 32.55630493164062 L 10.9033842086792 32.56622314453125 C 5.099674224853516 32.78821182250977 0.5544843673706055 37.51170349121094 0.5558443665504456 43.3197135925293 C 0.5572843551635742 49.25068283081055 5.383644580841064 54.07588195800781 11.31460475921631 54.07588195800781 C 17.11568450927734 54.06886291503906 21.83790397644043 49.52495193481445 22.0680046081543 43.73122406005859 L 22.07833480834961 43.4713020324707 L 21.81820487976074 43.4713020324707 L 11.31712436676025 43.4713020324707 C 11.23210430145264 43.4713020324707 11.16294479370117 43.40214157104492 11.16294479370117 43.31712341308594 L 11.16294479370117 32.81604385375977 L 11.16294479370117 32.55630493164062 Z" stroke="none"/>
        <path d="M 11.31712436676025 32.00000381469727 C 11.54033470153809 32.00000381469727 11.72130393981934 32.18097305297852 11.72130393981934 32.4041748046875 L 11.72130393981934 42.91293334960938 L 22.23006439208984 42.91293334960938 C 22.45327377319336 42.91293334960938 22.63424491882324 43.09391403198242 22.63424491882324 43.31712341308594 C 22.63424491882324 49.56741333007812 17.56740379333496 54.63424301147461 11.31712436676025 54.63424301147461 C 5.06683349609375 54.63424301147461 3.814697265625e-06 49.56741333007812 3.814697265625e-06 43.31712341308594 C 3.814697265625e-06 37.06684494018555 5.06683349609375 32.00000381469727 11.31712436676025 32.00000381469727 Z M 11.31460762023926 53.82588195800781 C 11.31531620025635 53.82588195800781 11.31641578674316 53.82588195800781 11.31712436676025 53.82588195800781 C 16.96093368530273 53.81905364990234 21.59423446655273 49.36066436767578 21.81820487976074 43.7213020324707 L 11.31712436676025 43.7213020324707 C 11.09391403198242 43.7213020324707 10.91294479370117 43.54033279418945 10.91294479370117 43.31712341308594 L 10.91294479370117 32.81604385375977 C 5.268573760986328 33.03193283081055 0.8045234680175781 37.671142578125 0.8058338165283203 43.31965255737305 C 0.8072547912597656 49.12275314331055 5.511764526367188 53.82588195800781 11.31460762023926 53.82588195800781 Z" stroke="none" fill="#44c8f5"/>
      </g>
    </g>
  </g>
  <g id="Group_12652" data-name="Group 12652" transform="translate(12.53)">
    <g id="Group_12651" data-name="Group 12651">
      <g id="Path_17078" data-name="Path 17078" transform="translate(-248)" fill="#039">
        <path d="M 259.3171081542969 11.47130298614502 L 248.4041748046875 11.47130298614502 C 248.3191528320312 11.47130298614502 248.25 11.40214252471924 248.25 11.31712245941162 L 248.25 0.4041829109191895 C 248.25 0.3191629350185394 248.3191528320312 0.250002920627594 248.4041748046875 0.250002920627594 C 251.3587036132812 0.2533729374408722 254.1366577148438 1.405892968177795 256.2260437011719 3.495272874832153 C 258.3154296875 5.584652900695801 259.4679565429688 8.362603187561035 259.4713134765625 11.31740283966064 C 259.4713134765625 11.40214252471924 259.4021301269531 11.47130298614502 259.3171081542969 11.47130298614502 Z M 248.5583648681641 0.5558929443359375 L 248.5583648681641 0.8160429000854492 L 248.5583648681641 10.91294288635254 L 248.5583648681641 11.16294288635254 L 248.8083648681641 11.16294288635254 L 258.9052429199219 11.16294288635254 L 259.1654052734375 11.16294288635254 L 259.1550598144531 10.90300273895264 C 258.9332275390625 5.3285231590271 254.3927917480469 0.788072943687439 248.8183135986328 0.5662429332733154 L 248.5583648681641 0.5558929443359375 Z" stroke="none"/>
        <path d="M 248.4041748046875 2.86102294921875e-06 C 254.6514739990234 0.007122993469238281 259.7142028808594 5.069822788238525 259.7213134765625 11.31712341308594 C 259.7213134765625 11.54033279418945 259.5403442382812 11.72130298614502 259.3171081542969 11.72130298614502 L 248.4041748046875 11.72130298614502 C 248.1809692382812 11.72130298614502 248 11.54033279418945 248 11.31712341308594 L 248 0.4041833877563477 C 248 0.1809730529785156 248.1809692382812 2.86102294921875e-06 248.4041748046875 2.86102294921875e-06 Z M 258.9052429199219 10.91294288635254 C 258.6870422363281 5.429492950439453 254.2918090820312 1.034253120422363 248.808349609375 0.8160429000854492 L 248.808349609375 10.91294288635254 L 258.9052429199219 10.91294288635254 Z" stroke="none" fill="#039"/>
      </g>
    </g>
  </g>
</svg>
