<svg id="Group_21969" data-name="Group 21969" xmlns="http://www.w3.org/2000/svg" width="30" height="30" viewBox="0 0 30 30">
  <g id="Rectangle_9241" data-name="Rectangle 9241" fill="none" stroke="#707070" stroke-width="1" opacity="0">
    <rect width="30" height="30" stroke="none"/>
    <rect x="0.5" y="0.5" width="29" height="29" fill="none"/>
  </g>
  <g id="Group_20128" data-name="Group 20128" transform="translate(6 3)">
    <g id="Group_21968" data-name="Group 21968">
      <path id="Path_20849" data-name="Path 20849" d="M22,36.681a.413.413,0,0,0,.437.437h1.311a.437.437,0,0,0,0-.874h-.874V33.622h6.992v2.622H25.5a.437.437,0,1,0,0,.874H30.3a.413.413,0,0,0,.437-.437v-3.5a.413.413,0,0,0-.437-.437H22.437a.413.413,0,0,0-.437.437Zm1.748-5.244a.413.413,0,0,0,.437.437h4.37a.437.437,0,0,0,0-.874h-4.37A.413.413,0,0,0,23.748,31.437Z" transform="translate(-17.319 -18.984)" fill="#039"/>
      <path id="Path_20850" data-name="Path 20850" d="M28.672,22.4a.407.407,0,0,0-.431.431v.862H13.155a2.323,2.323,0,0,0-1.293.431V6.879a.431.431,0,1,0-.862,0V25.845A2.134,2.134,0,0,0,13.155,28H28.672a.431.431,0,0,0,0-.862.865.865,0,0,1-.862-.862v-.862a.865.865,0,0,1,.862-.862.407.407,0,0,0,.431-.431V22.828A.407.407,0,0,0,28.672,22.4Zm-1.724,3.017H16.172a.431.431,0,1,0,0,.862H26.948a1.554,1.554,0,0,0,.259.862H13.155a1.293,1.293,0,1,1,0-2.586H27.207A1.554,1.554,0,0,0,26.948,25.414ZM28.672,3H13.155A2.134,2.134,0,0,0,11,5.155h0a.431.431,0,1,0,.862,0,1.27,1.27,0,0,1,1.293-1.293H28.241V21.1a.431.431,0,1,0,.862,0V3.431A.407.407,0,0,0,28.672,3Z" transform="translate(-11 -3)" fill="#41c1f1"/>
      <path id="Path_20851" data-name="Path 20851" d="M15,30.326a.409.409,0,0,0,.437.429h1.311a.43.43,0,1,0,0-.859H15.437A.409.409,0,0,0,15,30.326Z" transform="translate(-13.252 -7.504)" fill="#41c1f1"/>
    </g>
  </g>
</svg>
