<svg xmlns="http://www.w3.org/2000/svg" xmlns:xlink="http://www.w3.org/1999/xlink" width="49" height="49" viewBox="0 0 49 49">
  <defs>
    <linearGradient id="linear-gradient" x1="0.5" y1="0.13" x2="0.5" y2="1" gradientUnits="objectBoundingBox">
      <stop offset="0" stop-color="#fff"/>
      <stop offset="1" stop-color="gray"/>
    </linearGradient>
    <linearGradient id="linear-gradient-2" x1="0.5" y1="0.141" x2="0.5" y2="1" gradientUnits="objectBoundingBox">
      <stop offset="0" stop-color="#e64c65"/>
      <stop offset="1" stop-color="#8e0020"/>
    </linearGradient>
  </defs>
  <g id="ball_icon" data-name="ball icon" transform="translate(-235 -190)">
    <circle id="Ellipse_1366" data-name="Ellipse 1366" cx="24.5" cy="24.5" r="24.5" transform="translate(235 190)" fill="url(#linear-gradient)"/>
    <path id="Path_23984" data-name="Path 23984" d="M29.912,1025.543a24.483,24.483,0,0,0-13.277,45.207l.422-1.307.072-.156.61-.374.652.293.122.706-.47,1.457-.882-.284a24.462,24.462,0,0,0,3.861,1.846l14.994-46.516a24.421,24.421,0,0,0-6.1-.871Zm1.232.17,1.46.469-.342,1.062-.441.294-.829-.266-.182-.52Zm6.347,1.127-15.024,46.6a24.485,24.485,0,0,0,15.024-46.6Zm2.9,1.792,1.46.47-.337,1.044-.38.333-.994-.32-.106-.418Zm-9.975.924.652.293.125.706-.47,1.457-.072.158-.61.371-.652-.293-.125-.706.47-1.457.072-.156Zm9.248,2.919.652.293.125.706-.47,1.457-.072.158-.61.371-.652-.293-.125-.706.47-1.457.072-.156Zm-10.657,1.453.652.293.125.706-.47,1.457-.072.158-.61.371-.652-.293-.125-.706.47-1.457.072-.156Zm9.248,2.919.652.293.125.706-.47,1.457-.072.158-.61.371-.652-.293-.125-.706.47-1.457.072-.156ZM27.6,1038.3l.652.293.125.706-.47,1.457-.072.158-.61.371-.652-.293-.125-.706.47-1.457.072-.156Zm9.248,2.919.652.293.126.705-.47,1.457-.072.159-.61.371-.652-.293-.126-.706.47-1.457.072-.156Zm-10.657,1.453.652.293.125.706-.47,1.457-.072.158-.61.371-.652-.293-.125-.706.47-1.457.072-.156Zm9.248,2.92.652.293.125.706-.47,1.457-.072.158-.61.371-.652-.293-.125-.706.47-1.457.072-.156Zm-10.657,1.453.652.293.122.706-.47,1.457-.069.158-.61.371-.652-.293-.125-.706.47-1.456.072-.156Zm9.248,2.919.652.293.122.706-.47,1.457-.069.158-.61.371-.652-.293-.125-.706.47-1.457.072-.156Zm-10.657,1.454.652.293.122.706-.47,1.457-.069.159-.61.371-.652-.293-.125-.706.47-1.457.072-.156Zm9.248,2.919.652.293.122.706-.47,1.456-.069.158-.61.371-.652-.293-.126-.706.47-1.457.072-.156Zm-10.657,1.454.652.293.122.706-.47,1.457-.069.158-.61.371-.652-.293-.125-.706.47-1.457.072-.156Zm9.248,2.919.652.293.122.706-.47,1.457-.069.158-.61.371-.652-.293-.125-.706.47-1.457.072-.156Zm-10.657,1.454.652.293.122.706-.47,1.457-.069.158-.61.371-.652-.293-.125-.706.47-1.457.072-.156Zm9.248,2.919.652.293.122.706-.47,1.457-.069.158-.61.371-.652-.293-.125-.706.47-1.457.072-.156Zm-10.657,1.453.652.293.122.706-.47,1.457-.069.158-.61.371-.652-.293-.125-.706.47-1.457.072-.156Zm9.248,2.919.652.293.122.706-.47,1.457-.069.159-.61.371-.652-.293-.125-.706.47-1.457.072-.156Zm-1.409,4.373.652.293.122.706-.47,1.457-1.457-.469.47-1.457.072-.156Z" transform="translate(229.822 -835.542)" fill="url(#linear-gradient-2)"/>
  </g>
</svg>
