<svg xmlns="http://www.w3.org/2000/svg" width="24.545" height="22.494" viewBox="0 0 24.545 22.494">
    <defs>
        <style>
            .cls-1,.cls-2{fill:#039;stroke:#039;stroke-width:.2px}.cls-2{fill:#44c8f5;stroke:#44c8f5}
        </style>
    </defs>
    <g id="Group_11590" data-name="Group 11590" transform="translate(-205.899 -1649.593)">
        <path id="Path_976" data-name="Path 976" class="cls-1" d="M188 261.32a3.38 3.38 0 1 0 3.38 3.38 3.383 3.383 0 0 0-3.38-3.38zm0 6.046a2.666 2.666 0 1 1 2.666-2.666 2.669 2.669 0 0 1-2.666 2.666zm0 0" transform="translate(30.167 1398.723)"/>
        <path id="Path_978" data-name="Path 978" class="cls-2" d="M178.348 68.381a.357.357 0 0 0 0-.713h-8.882a.357.357 0 1 0 0 .713zm0 0" transform="translate(41.659 1585.39)"/>
        <path id="Path_979" data-name="Path 979" class="cls-2" d="M169.467 170.713h13.178a.357.357 0 0 0 0-.713h-13.178a.357.357 0 1 0 0 .713zm0 0" transform="translate(41.658 1484.932)"/>
        <path id="Path_980" data-name="Path 980" class="cls-2" d="M394.614 68.381a.357.357 0 0 0 0-.713h-2.577a.357.357 0 1 0 0 .713zm0 0" transform="translate(-170.312 1585.39)"/>
        <path id="Path_982" data-name="Path 982" class="cls-2" d="M22.5 44H1.85A1.852 1.852 0 0 0 0 45.85V56.8a.357.357 0 1 0 .713 0V45.85a1.138 1.138 0 0 1 1.137-1.137H22.5a1.138 1.138 0 0 1 1.137 1.137v12.455a1.138 1.138 0 0 1-1.137 1.137h-5.915a1 1 0 0 1 .038-.266 1.747 1.747 0 0 1 .279-.438 1.336 1.336 0 0 0 0-2.015 1.75 1.75 0 0 1-.279-.438 1.825 1.825 0 0 1-.037-.544 1.672 1.672 0 0 0-.216-1.059 1.681 1.681 0 0 0-.947-.535 1.8 1.8 0 0 1-.5-.2 1.787 1.787 0 0 1-.338-.409 1.683 1.683 0 0 0-.808-.742 1.661 1.661 0 0 0-1.062.122 1.851 1.851 0 0 1-.541.135 1.853 1.853 0 0 1-.541-.135 1.661 1.661 0 0 0-1.063-.118 1.684 1.684 0 0 0-.808.742 1.785 1.785 0 0 1-.338.408 1.8 1.8 0 0 1-.5.2 1.682 1.682 0 0 0-.947.535 1.673 1.673 0 0 0-.216 1.059 1.833 1.833 0 0 1-.037.544 1.757 1.757 0 0 1-.279.438 1.336 1.336 0 0 0 0 2.015 1.758 1.758 0 0 1 .279.438 1 1 0 0 1 .038.266H1.85a1.138 1.138 0 0 1-1.136-1.14v-1.744a.357.357 0 0 0-.713 0v1.744a1.852 1.852 0 0 0 1.85 1.85h5.917a1.207 1.207 0 0 0 .209.624 1.682 1.682 0 0 0 .947.535 1.8 1.8 0 0 1 .5.2 1.786 1.786 0 0 1 .338.409c.06.087.123.178.192.265v3.454a.647.647 0 0 0 .88.6l1.34-.516 1.34.516a.647.647 0 0 0 .88-.6v-3.454c.069-.088.131-.178.192-.265a1.782 1.782 0 0 1 .338-.409 1.8 1.8 0 0 1 .5-.2 1.682 1.682 0 0 0 .947-.535 1.205 1.205 0 0 0 .209-.624h5.92a1.852 1.852 0 0 0 1.85-1.85V45.85A1.852 1.852 0 0 0 22.5 44zm-8.821 21.545-1.273-.491a.649.649 0 0 0-.465 0l-1.273.491v-2.856a1.033 1.033 0 0 0 .215.023 2.332 2.332 0 0 0 .75-.17 1.853 1.853 0 0 1 .541-.135 1.852 1.852 0 0 1 .541.135 1.819 1.819 0 0 0 .965.147zm2.655-7.245a2.252 2.252 0 0 0-.39.651 2.345 2.345 0 0 0-.072.779 1.209 1.209 0 0 1-.079.625 1.21 1.21 0 0 1-.576.272 2.314 2.314 0 0 0-.714.306 2.284 2.284 0 0 0-.505.58c-.142.206-.289.419-.441.468a1.206 1.206 0 0 1-.608-.117 2.371 2.371 0 0 0-.775-.174 2.371 2.371 0 0 0-.775.174 1.2 1.2 0 0 1-.608.117c-.152-.049-.3-.262-.441-.468a2.288 2.288 0 0 0-.506-.58 2.308 2.308 0 0 0-.714-.306 1.21 1.21 0 0 1-.576-.272 1.211 1.211 0 0 1-.08-.625 2.34 2.34 0 0 0-.072-.779 2.25 2.25 0 0 0-.39-.651.684.684 0 0 1 0-1.149A2.248 2.248 0 0 0 8.4 56.5a2.34 2.34 0 0 0 .072-.779 1.211 1.211 0 0 1 .08-.625 1.211 1.211 0 0 1 .576-.272 2.317 2.317 0 0 0 .714-.306 2.294 2.294 0 0 0 .506-.58c.142-.206.289-.419.441-.468a.3.3 0 0 1 .093-.013 1.833 1.833 0 0 1 .515.13 2.371 2.371 0 0 0 .775.175 2.371 2.371 0 0 0 .775-.175 1.206 1.206 0 0 1 .608-.117c.152.049.3.262.441.468a2.287 2.287 0 0 0 .505.58 2.319 2.319 0 0 0 .714.306 1.211 1.211 0 0 1 .576.272 1.211 1.211 0 0 1 .079.625 2.345 2.345 0 0 0 .072.779 2.252 2.252 0 0 0 .39.651.684.684 0 0 1 0 1.149zm0 0" transform="translate(205.999 1605.693)"/>
        <path id="Path_15274" data-name="Path 15274" class="cls-1" d="M16.585 59.442a1 1 0 0 1 .038-.266 1.747 1.747 0 0 1 .279-.438 1.336 1.336 0 0 0 0-2.015 1.75 1.75 0 0 1-.279-.438 1.825 1.825 0 0 1-.037-.544 1.672 1.672 0 0 0-.216-1.059 1.681 1.681 0 0 0-.947-.535 1.8 1.8 0 0 1-.5-.2 1.787 1.787 0 0 1-.338-.409 1.683 1.683 0 0 0-.808-.742 1.661 1.661 0 0 0-1.062.122 1.851 1.851 0 0 1-.541.135 1.853 1.853 0 0 1-.541-.135 1.661 1.661 0 0 0-1.063-.118 1.684 1.684 0 0 0-.808.742 1.785 1.785 0 0 1-.338.408 1.8 1.8 0 0 1-.5.2 1.682 1.682 0 0 0-.947.535 1.673 1.673 0 0 0-.216 1.059 1.833 1.833 0 0 1-.037.544 1.757 1.757 0 0 1-.279.438 1.336 1.336 0 0 0 0 2.015 1.758 1.758 0 0 1 .279.438 1 1 0 0 1 .038.266 2.936 2.936 0 0 0 .007.713 1.207 1.207 0 0 0 .209.624 1.682 1.682 0 0 0 .947.535 1.8 1.8 0 0 1 .5.2 1.786 1.786 0 0 1 .338.409c.06.087.123.178.192.265v3.454a.647.647 0 0 0 .88.6l1.34-.516 1.34.516a.647.647 0 0 0 .88-.6v-3.457c.069-.088.131-.178.192-.265a1.782 1.782 0 0 1 .338-.409 1.8 1.8 0 0 1 .5-.2 1.682 1.682 0 0 0 .947-.535 1.205 1.205 0 0 0 .209-.624 1.4 1.4 0 0 0 .004-.713zm-2.906 6.1-1.273-.491a.649.649 0 0 0-.465 0l-1.273.491v-2.853a1.033 1.033 0 0 0 .215.023 2.332 2.332 0 0 0 .75-.17 1.853 1.853 0 0 1 .541-.135 1.852 1.852 0 0 1 .541.135 1.819 1.819 0 0 0 .965.147zm2.655-7.242a2.252 2.252 0 0 0-.39.651 2.345 2.345 0 0 0-.072.779 1.209 1.209 0 0 1-.079.625 1.21 1.21 0 0 1-.576.272 2.314 2.314 0 0 0-.714.306 2.284 2.284 0 0 0-.505.58c-.142.206-.289.419-.441.468a1.206 1.206 0 0 1-.608-.117 2.371 2.371 0 0 0-.775-.174 2.371 2.371 0 0 0-.775.174 1.2 1.2 0 0 1-.608.117c-.152-.049-.3-.262-.441-.468a2.288 2.288 0 0 0-.506-.58 2.308 2.308 0 0 0-.714-.306 1.21 1.21 0 0 1-.576-.272 1.211 1.211 0 0 1-.08-.625 2.34 2.34 0 0 0-.072-.779 2.25 2.25 0 0 0-.39-.651.684.684 0 0 1 0-1.149A2.248 2.248 0 0 0 8.4 56.5a2.34 2.34 0 0 0 .072-.779 1.211 1.211 0 0 1 .08-.625 1.211 1.211 0 0 1 .576-.272 2.317 2.317 0 0 0 .714-.306 2.294 2.294 0 0 0 .506-.58c.142-.206.289-.419.441-.468a.3.3 0 0 1 .093-.013 1.833 1.833 0 0 1 .515.13 2.371 2.371 0 0 0 .775.175 2.371 2.371 0 0 0 .775-.175 1.206 1.206 0 0 1 .608-.117c.152.049.3.262.441.468a2.287 2.287 0 0 0 .505.58 2.319 2.319 0 0 0 .714.306 1.211 1.211 0 0 1 .576.272 1.211 1.211 0 0 1 .079.625 2.345 2.345 0 0 0 .072.779 2.252 2.252 0 0 0 .39.651.684.684 0 0 1 0 1.149zm0 0" transform="translate(205.999 1605.693)"/>
    </g>
</svg>
