<svg xmlns="http://www.w3.org/2000/svg" width="24" height="24" viewBox="0 0 24 24">
  <g id="Group_22340" data-name="Group 22340" transform="translate(-168 -355.148)">
    <g id="Group_22218" data-name="Group 22218" transform="translate(168 355)">
      <rect id="Rectangle_9523" data-name="Rectangle 9523" width="24" height="24" transform="translate(0 0.148)" fill="#fff"/>
      <g id="Group_21881" data-name="Group 21881" transform="translate(3 2.148)">
        <g id="Group_21880" data-name="Group 21880" transform="translate(0 0)">
          <g id="Rectangle_9512" data-name="Rectangle 9512" transform="translate(0 0)" fill="#fff" stroke="#44c8f6" stroke-width="1">
            <rect width="15.098" height="18.454" rx="2" stroke="none"/>
            <rect x="0.5" y="0.5" width="14.098" height="17.454" rx="1.5" fill="none"/>
          </g>
          <path id="Path_21057" data-name="Path 21057" d="M174.007,68.236c.1,0,.189-.127.189-.284s-.085-.284-.189-.284H169.3c-.1,0-.189.127-.189.284s.085.284.189.284Zm0,0" transform="translate(-166.178 -64.222)" fill="#44c8f5" stroke="#44c8f5" stroke-width="0.2"/>
          <path id="Path_21058" data-name="Path 21058" d="M169.336,170.567H177.7a.291.291,0,0,0,0-.568h-8.364a.291.291,0,0,0,0,.568Zm0,0" transform="translate(-166.179 -164.14)" fill="#44c8f5" stroke="#44c8f5" stroke-width="0.2"/>
          <path id="Path_21060" data-name="Path 21060" d="M169.336,170.567H177.7a.291.291,0,0,0,0-.568h-8.364a.291.291,0,0,0,0,.568Zm0,0" transform="translate(-166.179 -161.726)" fill="#44c8f5" stroke="#44c8f5" stroke-width="0.2"/>
          <path id="Path_21061" data-name="Path 21061" d="M169.279,170.567h6.253c.093,0,.169-.127.169-.284s-.076-.284-.169-.284h-6.253c-.094,0-.169.127-.169.284S169.186,170.567,169.279,170.567Zm0,0" transform="translate(-166.179 -159.313)" fill="#44c8f5" stroke="#44c8f5" stroke-width="0.2"/>
          <path id="Path_21059" data-name="Path 21059" d="M394.015,68.236a.284.284,0,0,0,0-.568h-2.052a.284.284,0,1,0,0,.568Zm0,0" transform="translate(-382.552 -64.222)" fill="#44c8f5" stroke="#44c8f5" stroke-width="0.2"/>
        </g>
        <path id="Path_21065" data-name="Path 21065" d="M185.488,379.668V376.88s-.714-.829-.806-.875a11.36,11.36,0,0,1-.76-.9l-.346-1.152a9.744,9.744,0,0,0-.138-.967,4.531,4.531,0,0,1,.323-.944l.161-.76.968-.507.6-.507a1.9,1.9,0,0,1,.645-.207c.184.023.829,0,.829,0H188l.645.484.714.437.576.53v.783s.461,1.013.484,1.175a5.636,5.636,0,0,1-.484,1.106,7.158,7.158,0,0,1-.23.967,9.365,9.365,0,0,1-.9.576l-.484.507a3.946,3.946,0,0,0-.322.507c-.023.092.322,1.59.322,1.59l-.322.944-1.2-.3Z" transform="translate(-172.948 -360.099)" fill="#fff"/>
        <g id="Group_21883" data-name="Group 21883" transform="translate(9.758 9.369)">
          <path id="Path_976" data-name="Path 976" d="M187.315,261.32a2.69,2.69,0,1,0,2.69,2.69A2.693,2.693,0,0,0,187.315,261.32Zm0,4.813a2.122,2.122,0,1,1,2.123-2.122A2.125,2.125,0,0,1,187.315,266.133Zm0,0" transform="translate(-183.186 -260.044)" fill="#039" stroke="#039" stroke-width="0.2"/>
          <path id="Path_15274" data-name="Path 15274" d="M14.627,58.077a.794.794,0,0,1,.03-.212,1.391,1.391,0,0,1,.222-.349,1.063,1.063,0,0,0,0-1.6,1.393,1.393,0,0,1-.222-.349,1.453,1.453,0,0,1-.03-.433,1.331,1.331,0,0,0-.172-.843,1.338,1.338,0,0,0-.754-.426,1.436,1.436,0,0,1-.4-.159,1.422,1.422,0,0,1-.269-.325,1.34,1.34,0,0,0-.643-.59,1.322,1.322,0,0,0-.845.1,1.474,1.474,0,0,1-.431.107,1.475,1.475,0,0,1-.431-.107,1.322,1.322,0,0,0-.845-.1,1.34,1.34,0,0,0-.643.59,1.421,1.421,0,0,1-.269.325,1.43,1.43,0,0,1-.4.159,1.339,1.339,0,0,0-.754.426,1.332,1.332,0,0,0-.172.843,1.459,1.459,0,0,1-.03.433,1.4,1.4,0,0,1-.222.349,1.063,1.063,0,0,0,0,1.6,1.4,1.4,0,0,1,.222.349.8.8,0,0,1,.03.212,2.338,2.338,0,0,0,.005.568.961.961,0,0,0,.166.5,1.339,1.339,0,0,0,.754.426,1.433,1.433,0,0,1,.4.159,1.422,1.422,0,0,1,.269.325c.048.069.1.142.153.211v2.749a.515.515,0,0,0,.7.481l1.066-.411,1.067.411a.515.515,0,0,0,.7-.481V60.263c.055-.07.1-.142.153-.211a1.419,1.419,0,0,1,.269-.325,1.437,1.437,0,0,1,.4-.159,1.339,1.339,0,0,0,.754-.426.96.96,0,0,0,.166-.5A1.118,1.118,0,0,0,14.627,58.077Zm-2.313,4.859L11.3,62.545a.516.516,0,0,0-.37,0l-1.014.391V60.662a.823.823,0,0,0,.171.018,1.856,1.856,0,0,0,.6-.135,1.475,1.475,0,0,1,.431-.108,1.475,1.475,0,0,1,.431.108,1.448,1.448,0,0,0,.768.117Zm2.114-5.764a1.792,1.792,0,0,0-.311.518,1.866,1.866,0,0,0-.057.62.962.962,0,0,1-.063.5.963.963,0,0,1-.458.216,1.843,1.843,0,0,0-.569.244,1.818,1.818,0,0,0-.4.462c-.113.164-.23.334-.351.373a.96.96,0,0,1-.484-.093,1.888,1.888,0,0,0-.617-.139,1.888,1.888,0,0,0-.617.139.958.958,0,0,1-.484.093c-.121-.039-.238-.209-.351-.373a1.821,1.821,0,0,0-.4-.462,1.837,1.837,0,0,0-.569-.244.963.963,0,0,1-.458-.216.964.964,0,0,1-.063-.5,1.862,1.862,0,0,0-.057-.62,1.791,1.791,0,0,0-.311-.518.545.545,0,0,1,0-.914,1.789,1.789,0,0,0,.311-.518,1.863,1.863,0,0,0,.057-.62.964.964,0,0,1,.063-.5.964.964,0,0,1,.458-.216,1.844,1.844,0,0,0,.569-.244,1.826,1.826,0,0,0,.4-.462c.113-.164.23-.334.351-.373a.239.239,0,0,1,.074-.01,1.459,1.459,0,0,1,.41.1,1.887,1.887,0,0,0,.617.139,1.887,1.887,0,0,0,.617-.139.96.96,0,0,1,.484-.093c.121.039.238.209.351.373a1.821,1.821,0,0,0,.4.462,1.846,1.846,0,0,0,.569.244A.964.964,0,0,1,14,54.62a.964.964,0,0,1,.063.5,1.866,1.866,0,0,0,.057.62,1.793,1.793,0,0,0,.311.518.545.545,0,0,1,0,.914Zm0,0" transform="translate(-6.986 -52.748)" fill="#039" stroke="#039" stroke-width="0.2"/>
        </g>
      </g>
    </g>
  </g>
</svg>
