<svg xmlns="http://www.w3.org/2000/svg" width="21.219" height="19.449" viewBox="0 0 21.219 19.449">
  <g id="Group_21584" data-name="Group 21584" transform="translate(-277.671 -189.865)">
    <g id="Group_12108" data-name="Group 12108" transform="translate(71.772 -1459.728)">
      <path id="Path_976" data-name="Path 976" d="M187.543,261.32a2.918,2.918,0,1,0,2.918,2.918A2.921,2.921,0,0,0,187.543,261.32Zm0,5.22a2.3,2.3,0,1,1,2.3-2.3A2.3,2.3,0,0,1,187.543,266.54Zm0,0" transform="translate(28.966 1397.309)" fill="#039" stroke="#039" stroke-width="0.2"/>
      <path id="Path_978" data-name="Path 978" d="M177.086,68.284a.308.308,0,0,0,0-.616h-7.669a.308.308,0,1,0,0,.616Zm0,0" transform="translate(41.007 1584.93)" fill="#44c8f5" stroke="#44c8f5" stroke-width="0.2"/>
      <path id="Path_979" data-name="Path 979" d="M169.418,170.616H180.8a.308.308,0,0,0,0-.616H169.418a.308.308,0,1,0,0,.616Zm0,0" transform="translate(41.006 1484.216)" fill="#44c8f5" stroke="#44c8f5" stroke-width="0.2"/>
      <path id="Path_980" data-name="Path 980" d="M394.213,68.284a.308.308,0,0,0,0-.616h-2.225a.308.308,0,1,0,0,.616Zm0,0" transform="translate(-172.412 1584.93)" fill="#44c8f5" stroke="#44c8f5" stroke-width="0.2"/>
      <path id="Path_982" data-name="Path 982" d="M19.422,44H1.6A1.6,1.6,0,0,0,0,45.6V55.05a.308.308,0,1,0,.616,0V45.6a.983.983,0,0,1,.981-.981H19.422a.983.983,0,0,1,.981.981V56.351a.983.983,0,0,1-.981.981h-5.1a.861.861,0,0,1,.033-.23,1.508,1.508,0,0,1,.24-.378,1.153,1.153,0,0,0,0-1.74,1.511,1.511,0,0,1-.24-.378,1.576,1.576,0,0,1-.032-.47,1.444,1.444,0,0,0-.186-.914,1.452,1.452,0,0,0-.818-.462,1.558,1.558,0,0,1-.432-.173,1.542,1.542,0,0,1-.292-.353,1.453,1.453,0,0,0-.7-.64,1.434,1.434,0,0,0-.917.105,1.6,1.6,0,0,1-.467.116,1.6,1.6,0,0,1-.467-.116,1.434,1.434,0,0,0-.917-.105,1.453,1.453,0,0,0-.7.64,1.541,1.541,0,0,1-.292.353,1.55,1.55,0,0,1-.432.173,1.452,1.452,0,0,0-.818.462,1.444,1.444,0,0,0-.186.915,1.583,1.583,0,0,1-.032.47,1.517,1.517,0,0,1-.24.378,1.153,1.153,0,0,0,0,1.74,1.518,1.518,0,0,1,.24.378.867.867,0,0,1,.033.23H1.6a.983.983,0,0,1-.981-.981V54.845a.308.308,0,0,0-.616,0v1.506a1.6,1.6,0,0,0,1.6,1.6H6.706a1.042,1.042,0,0,0,.18.539,1.452,1.452,0,0,0,.818.462,1.553,1.553,0,0,1,.432.173,1.542,1.542,0,0,1,.292.353c.052.075.106.154.165.229v2.982a.559.559,0,0,0,.76.522l1.157-.446,1.157.446a.559.559,0,0,0,.76-.521V59.7c.059-.076.113-.154.165-.229a1.538,1.538,0,0,1,.292-.353,1.557,1.557,0,0,1,.432-.173,1.452,1.452,0,0,0,.818-.462,1.041,1.041,0,0,0,.18-.539h5.109a1.6,1.6,0,0,0,1.6-1.6V45.6a1.6,1.6,0,0,0-1.6-1.6ZM11.81,62.6l-1.1-.424a.56.56,0,0,0-.4,0l-1.1.424V60.136a.891.891,0,0,0,.186.019,2.013,2.013,0,0,0,.648-.146,1.6,1.6,0,0,1,.467-.117,1.6,1.6,0,0,1,.467.117,1.571,1.571,0,0,0,.833.127ZM14.1,56.35a1.944,1.944,0,0,0-.337.562,2.024,2.024,0,0,0-.062.673,1.043,1.043,0,0,1-.069.54,1.044,1.044,0,0,1-.5.235,2,2,0,0,0-.617.265,1.972,1.972,0,0,0-.436.5c-.123.178-.25.362-.381.4a1.041,1.041,0,0,1-.525-.1,2.047,2.047,0,0,0-.669-.151,2.047,2.047,0,0,0-.669.151,1.039,1.039,0,0,1-.525.1c-.131-.043-.258-.226-.381-.4a1.975,1.975,0,0,0-.437-.5,1.993,1.993,0,0,0-.617-.265,1.044,1.044,0,0,1-.5-.235,1.045,1.045,0,0,1-.069-.54,2.02,2.02,0,0,0-.062-.673,1.943,1.943,0,0,0-.337-.562.591.591,0,0,1,0-.992,1.941,1.941,0,0,0,.337-.562,2.02,2.02,0,0,0,.062-.673,1.045,1.045,0,0,1,.069-.54,1.045,1.045,0,0,1,.5-.235,2,2,0,0,0,.617-.264,1.98,1.98,0,0,0,.437-.5c.123-.178.25-.362.381-.4a.259.259,0,0,1,.08-.011,1.583,1.583,0,0,1,.444.112,2.047,2.047,0,0,0,.669.151,2.047,2.047,0,0,0,.669-.151,1.041,1.041,0,0,1,.525-.1c.131.043.258.226.381.4a1.974,1.974,0,0,0,.436.5,2,2,0,0,0,.617.264,1.046,1.046,0,0,1,.5.235,1.045,1.045,0,0,1,.069.54,2.024,2.024,0,0,0,.062.673,1.944,1.944,0,0,0,.337.562.591.591,0,0,1,0,.992Zm0,0" transform="translate(205.999 1605.693)" fill="#44c8f5" stroke="#44c8f5" stroke-width="0.2"/>
      <path id="Path_15274" data-name="Path 15274" d="M15.273,58.527a.861.861,0,0,1,.033-.23,1.508,1.508,0,0,1,.24-.378,1.153,1.153,0,0,0,0-1.74,1.511,1.511,0,0,1-.24-.378,1.576,1.576,0,0,1-.032-.47,1.444,1.444,0,0,0-.186-.914,1.452,1.452,0,0,0-.818-.462,1.558,1.558,0,0,1-.432-.173,1.542,1.542,0,0,1-.292-.353,1.453,1.453,0,0,0-.7-.64,1.434,1.434,0,0,0-.917.105,1.6,1.6,0,0,1-.467.116A1.6,1.6,0,0,1,11,52.894a1.434,1.434,0,0,0-.917-.105,1.454,1.454,0,0,0-.7.64,1.541,1.541,0,0,1-.292.353,1.55,1.55,0,0,1-.432.173,1.452,1.452,0,0,0-.818.462,1.444,1.444,0,0,0-.186.915,1.583,1.583,0,0,1-.032.47,1.517,1.517,0,0,1-.24.378,1.153,1.153,0,0,0,0,1.74,1.517,1.517,0,0,1,.24.378.867.867,0,0,1,.033.23,2.535,2.535,0,0,0,.006.616,1.042,1.042,0,0,0,.18.539,1.452,1.452,0,0,0,.818.462,1.553,1.553,0,0,1,.432.173,1.542,1.542,0,0,1,.292.353c.052.075.106.154.165.229V63.88a.559.559,0,0,0,.76.522l1.157-.446,1.157.446a.559.559,0,0,0,.76-.521V60.9c.059-.076.113-.154.165-.229a1.538,1.538,0,0,1,.292-.353,1.558,1.558,0,0,1,.432-.173,1.452,1.452,0,0,0,.818-.462,1.041,1.041,0,0,0,.18-.539A1.212,1.212,0,0,0,15.273,58.527ZM12.765,63.8l-1.1-.424a.56.56,0,0,0-.4,0l-1.1.424V61.331a.892.892,0,0,0,.186.019A2.013,2.013,0,0,0,11,61.2a1.6,1.6,0,0,1,.467-.117,1.6,1.6,0,0,1,.467.117,1.571,1.571,0,0,0,.833.127Zm2.292-6.252a1.944,1.944,0,0,0-.337.562,2.024,2.024,0,0,0-.062.673,1.043,1.043,0,0,1-.069.54,1.044,1.044,0,0,1-.5.235,2,2,0,0,0-.617.265,1.971,1.971,0,0,0-.436.5c-.123.178-.25.362-.381.4a1.041,1.041,0,0,1-.525-.1,2.047,2.047,0,0,0-.669-.15,2.047,2.047,0,0,0-.669.15,1.039,1.039,0,0,1-.525.1c-.131-.043-.258-.226-.381-.4a1.975,1.975,0,0,0-.437-.5,1.993,1.993,0,0,0-.617-.265,1.044,1.044,0,0,1-.5-.235,1.045,1.045,0,0,1-.069-.54,2.02,2.02,0,0,0-.062-.673,1.943,1.943,0,0,0-.337-.562.591.591,0,0,1,0-.992,1.941,1.941,0,0,0,.337-.562,2.02,2.02,0,0,0,.062-.673,1.045,1.045,0,0,1,.069-.54,1.045,1.045,0,0,1,.5-.235,2,2,0,0,0,.617-.264,1.981,1.981,0,0,0,.437-.5c.123-.178.25-.362.381-.4a.259.259,0,0,1,.08-.011,1.583,1.583,0,0,1,.444.112,2.047,2.047,0,0,0,.669.151,2.047,2.047,0,0,0,.669-.151,1.041,1.041,0,0,1,.525-.1c.131.043.258.226.381.4a1.975,1.975,0,0,0,.436.5,2,2,0,0,0,.617.264,1.046,1.046,0,0,1,.5.235,1.045,1.045,0,0,1,.069.54,2.024,2.024,0,0,0,.062.673,1.944,1.944,0,0,0,.337.562.591.591,0,0,1,0,.992Zm0,0" transform="translate(205.045 1604.497)" fill="#039" stroke="#039" stroke-width="0.2"/>
    </g>
  </g>
</svg>
