<svg xmlns="http://www.w3.org/2000/svg" width="24.352" height="22.515" viewBox="0 0 24.352 22.515">
  <g id="Group_21930" data-name="Group 21930" transform="translate(0.5 0.51)">
    <g id="Group_21908" data-name="Group 21908">
      <path id="Path_21133" data-name="Path 21133" d="M369.776,55.856l-2.644-.428,3.026-14.48a.664.664,0,0,1,.756-.52h0a.664.664,0,0,1,.554.731Z" transform="translate(-350.234 -40.42)" fill="none" stroke="#44c8f5" stroke-width="1"/>
      <path id="Path_21135" data-name="Path 21135" d="M54.2,55.856l2.644-.428-3.026-14.48a.664.664,0,0,0-.756-.52h0a.664.664,0,0,0-.554.731Z" transform="translate(-50.386 -40.42)" fill="none" stroke="#44c8f5" stroke-width="1"/>
      <rect id="Rectangle_9542" data-name="Rectangle 9542" width="23.352" height="6.954" rx="3.477" transform="translate(0 13.207)" fill="none" stroke="#039" stroke-width="1"/>
      <path id="Path_21138" data-name="Path 21138" d="M59,469.5h3.712v.94a.7.7,0,0,1-.7.7H59.7a.7.7,0,0,1-.7-.7Z" transform="translate(-56.58 -449.339)" fill="none" stroke="#44c8f5" stroke-width="0.4"/>
      <path id="Path_21140" data-name="Path 21140" d="M374,469.5h3.712v.94a.7.7,0,0,1-.7.7h-2.3a.7.7,0,0,1-.7-.7Z" transform="translate(-356.78 -449.339)" fill="none" stroke="#44c8f5" stroke-width="0.4"/>
      <path id="Path_21217" data-name="Path 21217" d="M1.41,0A1.41,1.41,0,1,1,0,1.41,1.41,1.41,0,0,1,1.41,0Z" transform="translate(2.114 15.274)" fill="#039"/>
      <path id="Path_21216" data-name="Path 21216" d="M1.41,0A1.41,1.41,0,1,1,0,1.41,1.41,1.41,0,0,1,1.41,0Z" transform="translate(7.048 15.274)" fill="#039"/>
      <path id="Path_21144" data-name="Path 21144" d="M272,364.031v-2.678a.352.352,0,0,1,.7,0v2.678C272.7,364.225,272,364.225,272,364.031Zm3.172.352a.352.352,0,0,1-.352-.352v-2.678a.352.352,0,1,1,.7,0v2.678a.352.352,0,0,1-.352.352Zm2.819,0a.352.352,0,0,1-.352-.352v-2.678a.352.352,0,1,1,.7,0v2.678a.352.352,0,0,1-.352.352Zm2.819,0a.352.352,0,0,1-.352-.352v-2.678a.352.352,0,1,1,.7,0v2.678A.352.352,0,0,1,280.81,364.383Z" transform="translate(-259.572 -345.937)" fill="#039"/>
    </g>
  </g>
</svg>
