<svg xmlns="http://www.w3.org/2000/svg" width="13.698" height="13.57" viewBox="0 0 13.698 13.57">
  <path id="Path_20203" data-name="Path 20203" d="M120.421.861a2.05,2.05,0,0,0-2.9,0L109.393,8.99a.456.456,0,0,0-.117.2l-1.069,3.859a.456.456,0,0,0,.561.561l3.859-1.069a.455.455,0,0,0,.2-.117L120.956,4.3a2.053,2.053,0,0,0,0-2.9ZM110.385,9.286l6.653-6.653,2.146,2.146-6.653,6.653Zm-.429.86,1.714,1.714-2.371.657Zm10.355-6.495-.483.483-2.146-2.146.483-.483a1.139,1.139,0,0,1,1.611,0l.535.535A1.141,1.141,0,0,1,120.312,3.651Zm0,0" transform="translate(-108.087 -0.161)" fill="#b2b2b2" stroke="#b2b2b2" stroke-width="0.2"/>
</svg>
