<svg xmlns="http://www.w3.org/2000/svg" width="30" height="30" viewBox="0 0 30 30">
  <g id="Group_28462" data-name="Group 28462" transform="translate(-462 -1229)">
    <g id="Group_28462-2" data-name="Group 28462">
      <rect id="Rectangle_11109" data-name="Rectangle 11109" width="30" height="30" transform="translate(462 1229)" fill="none"/>
    </g>
    <g id="handshake_1_" data-name="handshake (1)" transform="translate(461.534 1223.58)">
      <path id="Path_23354" data-name="Path 23354" d="M18.379,23.87a.39.39,0,1,1-.014-.779,39.113,39.113,0,0,0,5.707-.483.374.374,0,0,1,.1-.007,2.8,2.8,0,0,1,1.334.421.39.39,0,0,1-.226.7.4.4,0,0,1-.252-.089,1.944,1.944,0,0,0-.859-.254,40.468,40.468,0,0,1-5.782.487Z" transform="translate(-10.368 -6.214)" fill="#44c8f5"/>
      <path id="Path_23355" data-name="Path 23355" d="M38.6,32.831a1.571,1.571,0,0,1-.925-.3l-.084-.058a.382.382,0,0,1-.046-.039l-4.585-3.3a.39.39,0,1,1,.452-.634l.312.222,4.291,3.094a.367.367,0,0,1,.037.03l.074.052a.811.811,0,0,0,1.107-.153.8.8,0,0,0,.14-.723.781.781,0,0,0-.259-.394l-6.133-5a4.561,4.561,0,0,1-4.807.1.9.9,0,0,1,.076-1.546l3.511-1.864a1.916,1.916,0,0,1,1.468-.129l2.077.674a2.7,2.7,0,0,0,1.87-.067l.9-.37a.39.39,0,0,1,.3.721l-.9.37a3.473,3.473,0,0,1-2.408.087l-2.075-.674a1.13,1.13,0,0,0-.864.078l-3.511,1.865a.117.117,0,0,0-.067.1.107.107,0,0,0,.05.1c.818.523,2.222.906,4.233-.249a.39.39,0,0,1,.44.036L39.6,30.021a1.553,1.553,0,0,1,.517.779,1.591,1.591,0,0,1-.273,1.42A1.571,1.571,0,0,1,38.6,32.831Z" transform="translate(-16.341 -5.908)" fill="#44c8f5"/>
      <path id="Path_23356" data-name="Path 23356" d="M43.142,44.92a1.588,1.588,0,0,1-.921-.293L38.01,41.639A.39.39,0,1,1,38.46,41l4.211,2.988a.818.818,0,0,0,.951-1.33l-4.2-3.025A.39.39,0,0,1,39.879,39l4.2,3.025a1.6,1.6,0,0,1-.935,2.891Z" transform="translate(-22.493 -16.191)" fill="#44c8f5"/>
      <path id="Path_23357" data-name="Path 23357" d="M39.224,49.6a1.535,1.535,0,0,1-.877-.275l-3.774-2.614a.39.39,0,0,1,.444-.641l3.774,2.614a.767.767,0,0,0,.88-1.256l-3.755-2.664a.39.39,0,1,1,.451-.635L40.122,46.8a1.552,1.552,0,0,1,.377,2.14,1.536,1.536,0,0,1-.993.643A1.559,1.559,0,0,1,39.224,49.6Z" transform="translate(-20.393 -19.316)" fill="#44c8f5"/>
      <path id="Path_23358" data-name="Path 23358" d="M36.258,54.137a1.558,1.558,0,0,1-.776-.211l-2.095-1.208a.39.39,0,1,1,.39-.675l2.094,1.208a.779.779,0,0,0,1.052-.279.764.764,0,0,0-.229-1.021L34.018,50.1a.39.39,0,1,1,.444-.64l2.676,1.853a1.551,1.551,0,0,1-.88,2.827Z" transform="translate(-19.653 -22.567)" fill="#44c8f5"/>
      <path id="Path_23359" data-name="Path 23359" d="M27.28,54.645A1.566,1.566,0,0,1,26.245,51.9l1.04-.912a1.567,1.567,0,1,1,2.067,2.355l-1.04.914A1.561,1.561,0,0,1,27.28,54.645Zm1.039-3.266a.784.784,0,0,0-.519.195l-1.041.913A.788.788,0,0,0,27.8,53.671l1.04-.914a.787.787,0,0,0-.519-1.378Z" transform="translate(-15.086 -23.307)" fill="#44c8f5"/>
      <path id="Path_23360" data-name="Path 23360" d="M21.212,50.938c-.035,0-.069,0-.1,0a1.576,1.576,0,0,1-.942-2.754L21.9,46.655a1.567,1.567,0,0,1,2.211.144l-.282.27.293-.257a1.566,1.566,0,0,1-.144,2.211l-1.74,1.526A1.554,1.554,0,0,1,21.212,50.938Zm1.724-3.893a.782.782,0,0,0-.518.195l-1.738,1.526a.8.8,0,0,0,.48,1.391.779.779,0,0,0,.571-.195l1.738-1.526a.788.788,0,0,0,.072-1.112l-.011-.013a.781.781,0,0,0-.539-.265h-.054Z" transform="translate(-11.376 -20.661)" fill="#44c8f5"/>
      <path id="Path_23361" data-name="Path 23361" d="M16.113,46.827c-.034,0-.069,0-.1,0a1.558,1.558,0,0,1-1.076-.53l-.042-.051a1.567,1.567,0,0,1,.145-2.21l2.015-1.769a1.566,1.566,0,0,1,2.211.144l.044.05a1.566,1.566,0,0,1-.145,2.21l-2.015,1.769a1.555,1.555,0,0,1-1.033.39Zm1.968-4.173a.782.782,0,0,0-.518.195l-2.015,1.769a.788.788,0,0,0-.073,1.113l.044.05a.788.788,0,0,0,1.111.072l2.015-1.769a.788.788,0,0,0,.072-1.112l-.043-.049a.782.782,0,0,0-.54-.266Z" transform="translate(-8.243 -17.981)" fill="#44c8f5"/>
      <path id="Path_23362" data-name="Path 23362" d="M11.812,43.467a1.035,1.035,0,0,1-.1,0,1.577,1.577,0,0,1-.944-2.756L12.026,39.6a1.566,1.566,0,0,1,2.211.144l.014.016a1.566,1.566,0,0,1-.144,2.211l-1.262,1.107a1.555,1.555,0,0,1-1.033.389Zm1.247-3.478a.782.782,0,0,0-.518.195l-1.262,1.107a.8.8,0,0,0,1.053,1.2l1.262-1.107a.788.788,0,0,0,.072-1.112l-.014-.016a.782.782,0,0,0-.541-.266h-.054Z" transform="translate(-5.636 -16.354)" fill="#44c8f5"/>
      <path id="Path_23363" data-name="Path 23363" d="M9.784,41.806a.387.387,0,0,1-.234-.078L8.219,40.716a.39.39,0,0,1,.472-.62l1.331,1.013a.39.39,0,0,1-.236.7Z" transform="translate(-4.314 -16.846)" fill="#44c8f5"/>
      <path id="Path_23364" data-name="Path 23364" d="M57.909,41.073a.39.39,0,0,1-.275-.665l2.186-2.187a.39.39,0,1,1,.551.551l-2.186,2.186A.39.39,0,0,1,57.909,41.073Z" transform="translate(-34.503 -15.681)" fill="#44c8f5"/>
      <path id="Path_23365" data-name="Path 23365" d="M58.105,24.583a.39.39,0,0,1-.332-.185l-4.756-7.736a.39.39,0,0,1,.093-.512L57.821,12.5a.39.39,0,0,1,.618.221L60.756,22.83a.39.39,0,0,1-.189.429L58.3,24.535a.387.387,0,0,1-.19.049Zm-4.242-8.033,4.377,7.119,1.691-.951L57.816,13.49Z" transform="translate(-31.719)" fill="#039"/>
      <path id="Path_23366" data-name="Path 23366" d="M3.66,24.942a.39.39,0,0,1-.19-.05L1.2,23.617a.39.39,0,0,1-.189-.429L3.326,13.082a.39.39,0,0,1,.618-.221l4.711,3.648a.39.39,0,0,1,.093.512L3.992,24.758a.39.39,0,0,1-.332.184ZM1.834,23.08l1.691.95L7.9,16.911,3.949,13.85Z" transform="translate(0 -0.22)" fill="#039"/>
    </g>
  </g>
</svg>
