<svg xmlns="http://www.w3.org/2000/svg" width="19" height="19" viewBox="0 0 19 19">
    <defs>
        <style>
            .cls-2{fill:#039}
        </style>
    </defs>
    <g id="Group_11952" transform="translate(-16 -370)">
        <path id="Path_15958" fill="#44c8f5" d="M16.551 1.484h-1.707v-.89a.594.594 0 0 0-1.187 0v.891H5.344V.594a.594.594 0 0 0-1.187 0v.891H2.449A2.452 2.452 0 0 0 0 3.934v12.617A2.452 2.452 0 0 0 2.449 19h14.1A2.452 2.452 0 0 0 19 16.551V3.934a2.452 2.452 0 0 0-2.449-2.45zM2.449 2.672h1.707v.594a.594.594 0 0 0 1.188 0v-.594h8.313v.594a.594.594 0 0 0 1.188 0v-.594h1.707a1.263 1.263 0 0 1 1.262 1.262v1.41H1.188v-1.41a1.263 1.263 0 0 1 1.261-1.262zm14.1 15.141h-14.1a1.263 1.263 0 0 1-1.262-1.262V6.531h16.626v10.02a1.263 1.263 0 0 1-1.262 1.262z" transform="translate(16 370)"/>
        <path id="Path_15964" d="M12.84 16.922h-2.379a.461.461 0 1 1 0-.922h2.379a.461.461 0 1 1 0 .922z" class="cls-2" transform="translate(8.85 363.5)"/>
        <path id="Path_15967" d="M12.84 16.922h-2.379a.461.461 0 1 1 0-.922h2.379a.461.461 0 1 1 0 .922z" class="cls-2" transform="translate(8.85 367.757)"/>
        <path id="Path_15963" d="M12.84 16.922h-2.379a.461.461 0 1 1 0-.922h2.379a.461.461 0 1 1 0 .922z" class="cls-2" transform="translate(13.85 363.5)"/>
        <path id="Path_15966" d="M12.84 16.922h-2.379a.461.461 0 1 1 0-.922h2.379a.461.461 0 1 1 0 .922z" class="cls-2" transform="translate(13.85 367.757)"/>
        <path id="Path_15962" d="M12.84 16.922h-2.379a.461.461 0 1 1 0-.922h2.379a.461.461 0 1 1 0 .922z" class="cls-2" transform="translate(18.85 363.5)"/>
        <path id="Path_15965" d="M12.84 16.922h-2.379a.461.461 0 1 1 0-.922h2.379a.461.461 0 1 1 0 .922z" class="cls-2" transform="translate(18.85 367.757)"/>
    </g>
</svg>
