<svg xmlns="http://www.w3.org/2000/svg" width="18.254" height="15.153" viewBox="0 0 18.254 15.153">
  <g id="cameraBlueIcon" transform="translate(0.6 0.6)">
    <path id="Path_21954" data-name="Path 21954" d="M18.554,16.9A1.55,1.55,0,0,1,17,18.453H3.05A1.55,1.55,0,0,1,1.5,16.9V8.376a1.55,1.55,0,0,1,1.55-1.55h3.1L7.7,4.5h4.651L13.9,6.825H17a1.55,1.55,0,0,1,1.55,1.55Z" transform="translate(-1.5 -4.5)" fill="none" stroke="#039" stroke-linecap="round" stroke-linejoin="round" stroke-width="1.2"/>
    <path id="Path_21955" data-name="Path 21955" d="M18.2,16.6a3.1,3.1,0,1,1-3.1-3.1A3.1,3.1,0,0,1,18.2,16.6Z" transform="translate(-6.574 -8.849)" fill="none" stroke="#039" stroke-linecap="round" stroke-linejoin="round" stroke-width="1.2"/>
  </g>
</svg>
