<svg id="Group_17660" data-name="Group 17660" xmlns="http://www.w3.org/2000/svg" width="10.763" height="10.763" viewBox="0 0 10.763 10.763">
  <path id="Path_15946" data-name="Path 15946" d="M5234.387,222.087l-4.333-4.335,4.335-4.334a.612.612,0,0,0,0-.866h0a.632.632,0,0,0-.433-.18.61.61,0,0,0-.434.18l-4.334,4.334-4.335-4.334a.631.631,0,0,0-.433-.18.61.61,0,0,0-.434.18h0a.614.614,0,0,0-.181.434.637.637,0,0,0,.181.433l4.333,4.335-4.333,4.335a.613.613,0,1,0,.866.866l4.334-4.335,4.334,4.335a.635.635,0,0,0,.432.179.616.616,0,0,0,.615-.615A.627.627,0,0,0,5234.387,222.087Z" transform="translate(-5223.805 -212.372)" fill="#039"/>
</svg>
