<svg id="courses" xmlns="http://www.w3.org/2000/svg" width="24" height="24" viewBox="0 0 24 24">
  <g id="Group_20116" data-name="Group 20116" transform="translate(3 2)">
    <path id="Path_20845" data-name="Path 20845" d="M24.5,10.75a2.208,2.208,0,0,0-.565-1.482,1.528,1.528,0,0,1-.387-1.017,1.658,1.658,0,0,1,.032-.314,2.329,2.329,0,0,0,.049-.449A2.227,2.227,0,0,0,22.1,5.374a1.5,1.5,0,0,1-.97-.969,2.2,2.2,0,0,0-.365-.682,2.244,2.244,0,0,0-1.749-.851,2.355,2.355,0,0,0-.452.049,1.539,1.539,0,0,1-1.326-.354,2.229,2.229,0,0,0-2.949-.017.388.388,0,0,0-.038.029,1.487,1.487,0,0,1-1.311.342,2.339,2.339,0,0,0-.448-.048,2.243,2.243,0,0,0-1.748.85,2.2,2.2,0,0,0-.366.682,1.5,1.5,0,0,1-.971.97A2.227,2.227,0,0,0,7.872,7.488a2.336,2.336,0,0,0,.048.448,1.65,1.65,0,0,1,.032.315,1.527,1.527,0,0,1-.386,1.015,2.227,2.227,0,0,0,0,2.966,1.528,1.528,0,0,1,.387,1.017,1.658,1.658,0,0,1-.032.314,2.329,2.329,0,0,0-.049.449,2.227,2.227,0,0,0,1.533,2.115,1.446,1.446,0,0,1,.375.193L7.747,20.227a.35.35,0,0,0,.284.51l2.511.188,1.6,1.946a.35.35,0,0,0,.271.128l.036,0a.349.349,0,0,0,.274-.187l1.887-3.628a2.23,2.23,0,0,0,2.29,0l1.887,3.628a.349.349,0,0,0,.274.187l.036,0a.35.35,0,0,0,.271-.128l1.6-1.946,2.511-.188a.35.35,0,0,0,.284-.51l-2.034-3.911a1.525,1.525,0,0,1,.378-.191,2.227,2.227,0,0,0,1.531-2.114,2.336,2.336,0,0,0-.048-.448,1.65,1.65,0,0,1-.032-.315,1.529,1.529,0,0,1,.387-1.017A2.21,2.21,0,0,0,24.5,10.75ZM10.513,20.222l-1.9-.142,1.667-3.2.01.018a1.541,1.541,0,0,1,.085.2,2.226,2.226,0,0,0,1.1,1.278Zm1.829,1.8-1.208-1.473L12.145,18.6a2.123,2.123,0,0,0,.791-.02,1.653,1.653,0,0,1,.309-.031c.034,0,.065.006.1.008a1.519,1.519,0,0,1,.616.173c.024.013.05.022.073.036h0Zm6.816,0-1.692-3.253a1.583,1.583,0,0,1,.241-.117,1.523,1.523,0,0,1,.459-.092c.03,0,.058-.007.089-.007a1.655,1.655,0,0,1,.273.028c.012,0,.024,0,.036,0l.015,0c.093.018.179.029.261.036.032,0,.062,0,.092.005s.055,0,.08,0l.037,0a1.91,1.91,0,0,0,.3-.024h.006l1.01,1.944Zm3.729-1.938-1.9.142-.957-1.841c.024-.013.046-.029.07-.043s.069-.042.1-.063c.049-.032.1-.062.146-.1a2.226,2.226,0,0,0,.2-.174c.03-.029.057-.061.085-.092.045-.048.089-.1.13-.15.025-.032.047-.065.07-.1.041-.059.078-.119.113-.182.016-.029.033-.058.048-.088a2.231,2.231,0,0,0,.125-.3l0-.007a1.523,1.523,0,0,1,.1-.206Zm.527-8.315,0,0a2.227,2.227,0,0,0-.564,1.482,2.381,2.381,0,0,0,.045.449,1.656,1.656,0,0,1,.036.314,1.527,1.527,0,0,1-1.05,1.449,2.219,2.219,0,0,0-.992.668c-.014.016-.028.03-.041.046-.038.047-.072.1-.106.146-.017.024-.035.047-.05.072-.036.058-.068.118-.1.179-.009.018-.02.035-.029.053a2.188,2.188,0,0,0-.1.251,1.551,1.551,0,0,1-.085.2c-.011.022-.024.043-.036.065q-.034.061-.073.118c-.017.025-.035.051-.054.075s-.047.056-.072.083a1.528,1.528,0,0,1-.347.286l-.022.014a1.539,1.539,0,0,1-.154.078l-.012.005a1.552,1.552,0,0,1-.17.061l-.054.014c-.042.01-.083.024-.126.031h-.006a1.529,1.529,0,0,1-.217.017h-.071l-.068,0c-.061-.006-.125-.014-.2-.028a2.435,2.435,0,0,0-.27-.037c-.037,0-.073,0-.109,0s-.1-.005-.153,0c-.071,0-.141.01-.21.019l-.043,0a2.156,2.156,0,0,0-.705.234l0,0a2.228,2.228,0,0,0-.2.12l-.02.013c-.058.04-.114.085-.168.131l-.031.024v0l-.021.017a1.528,1.528,0,0,1-2.03,0l-.018-.016-.01-.008c-.034-.03-.071-.055-.107-.082s-.06-.049-.091-.071-.052-.031-.078-.048c-.046-.029-.09-.058-.137-.084l-.035-.016a2.213,2.213,0,0,0-1.455-.2,1.35,1.35,0,0,1-.745-.031,1.525,1.525,0,0,1-1.019-.985,2.168,2.168,0,0,0-.57-.9l0,0,0,0h0a2.141,2.141,0,0,0-.837-.506,1.528,1.528,0,0,1-1.052-1.449,1.649,1.649,0,0,1,.036-.315,2.39,2.39,0,0,0,.045-.448,2.228,2.228,0,0,0-.566-1.484,1.528,1.528,0,0,1,0-2.032,2.227,2.227,0,0,0,.564-1.482A2.381,2.381,0,0,0,8.607,7.8a1.656,1.656,0,0,1-.036-.314,1.527,1.527,0,0,1,1.05-1.449,2.224,2.224,0,0,0,1.418-1.417,1.5,1.5,0,0,1,.251-.467,1.538,1.538,0,0,1,1.2-.584,1.671,1.671,0,0,1,.314.035,2.191,2.191,0,0,0,1.891-.489.366.366,0,0,0,.041-.032,1.528,1.528,0,0,1,2.032,0,2.24,2.24,0,0,0,1.93.52,1.678,1.678,0,0,1,.315-.035,1.539,1.539,0,0,1,1.2.584,1.5,1.5,0,0,1,.25.466,2.224,2.224,0,0,0,1.416,1.417,1.528,1.528,0,0,1,1.052,1.449,1.65,1.65,0,0,1-.036.315,2.39,2.39,0,0,0-.045.448,2.228,2.228,0,0,0,.566,1.484,1.528,1.528,0,0,1,0,2.03Z" transform="translate(-7 -2)" fill="#41c1f1"/>
    <path id="Path_20846" data-name="Path 20846" d="M27.955,17.693,25.948,17.3l-.994-1.787a.655.655,0,0,0-1.145,0L22.817,17.3l-2.007.393a.655.655,0,0,0-.354,1.089l1.393,1.5-.247,2.03a.655.655,0,0,0,.926.672l1.854-.862,1.855.862a.655.655,0,0,0,.926-.673l-.247-2.03,1.393-1.5a.655.655,0,0,0-.354-1.089Zm-1.566,2.124a.654.654,0,0,0-.171.525l.24,1.97-1.8-.837a.654.654,0,0,0-.552,0l-1.8.837.239-1.97a.653.653,0,0,0-.17-.525l-1.352-1.453,1.948-.381a.653.653,0,0,0,.446-.325l.964-1.734.964,1.735a.653.653,0,0,0,.446.324l1.948.381Z" transform="translate(-15.633 -10.564)" fill="#039" stroke="#039" stroke-width="0.3"/>
    <path id="Path_20847" data-name="Path 20847" d="M20.338,8.588a6.279,6.279,0,1,0,6.279,6.279A6.279,6.279,0,0,0,20.338,8.588Zm0,11.859a5.579,5.579,0,1,1,5.579-5.579,5.579,5.579,0,0,1-5.579,5.579Z" transform="translate(-11.588 -6.282)" fill="#41c1f1"/>
  </g>
  <g id="Rectangle_9237" data-name="Rectangle 9237" fill="none" stroke="#707070" stroke-width="1" opacity="0">
    <rect width="24" height="24" stroke="none"/>
    <rect x="0.5" y="0.5" width="23" height="23" fill="none"/>
  </g>
</svg>
