<svg id="assessment" xmlns="http://www.w3.org/2000/svg" width="24" height="24" viewBox="0 0 24 24">
  <g id="Rectangle_9241" data-name="Rectangle 9241" fill="none" stroke="#707070" stroke-width="1" opacity="0">
    <rect width="24" height="24" stroke="none"/>
    <rect x="0.5" y="0.5" width="23" height="23" fill="none"/>
  </g>
  <g id="Group_20128" data-name="Group 20128" transform="translate(5 3)">
    <g id="Group_21968" data-name="Group 21968">
      <path id="Path_20849" data-name="Path 20849" d="M22,35.227a.307.307,0,0,0,.325.325H23.3a.325.325,0,1,0,0-.65h-.65V32.951h5.2V34.9H24.6a.325.325,0,1,0,0,.65h3.577a.307.307,0,0,0,.325-.325v-2.6a.307.307,0,0,0-.325-.325H22.325a.307.307,0,0,0-.325.325Zm1.3-3.9a.307.307,0,0,0,.325.325h3.252a.325.325,0,0,0,0-.65H23.626A.307.307,0,0,0,23.3,31.325Z" transform="translate(-18.517 -22.06)" fill="#039"/>
      <path id="Path_20850" data-name="Path 20850" d="M24.149,17.432a.3.3,0,0,0-.321.321v.641H12.6a1.728,1.728,0,0,0-.962.321V5.886a.321.321,0,1,0-.641,0V20a1.588,1.588,0,0,0,1.6,1.6H24.149a.321.321,0,1,0,0-.641.643.643,0,0,1-.641-.641v-.641a.643.643,0,0,1,.641-.641.3.3,0,0,0,.321-.321v-.962A.3.3,0,0,0,24.149,17.432Zm-1.283,2.245H14.849a.321.321,0,1,0,0,.641h8.018a1.156,1.156,0,0,0,.192.641H12.6a.962.962,0,0,1,0-1.924H23.059A1.156,1.156,0,0,0,22.867,19.677ZM24.149,3H12.6A1.588,1.588,0,0,0,11,4.6h0a.321.321,0,1,0,.641,0,.945.945,0,0,1,.962-.962H23.829V16.47a.321.321,0,1,0,.641,0V3.321A.3.3,0,0,0,24.149,3Z" transform="translate(-11 -3)" fill="#41c1f1"/>
      <path id="Path_20851" data-name="Path 20851" d="M15,30.216a.3.3,0,0,0,.325.32H16.3a.32.32,0,1,0,0-.639h-.976A.3.3,0,0,0,15,30.216Z" transform="translate(-13.699 -13.235)" fill="#41c1f1"/>
    </g>
  </g>
</svg>
