<svg id="career" xmlns="http://www.w3.org/2000/svg" width="24" height="24" viewBox="0 0 24 24">
  <rect id="Rectangle_10474" data-name="Rectangle 10474" width="24" height="24" fill="#fff"/>
  <g id="Group_27808" data-name="Group 27808" transform="translate(-1516.348 -1179.422)">
    <g id="Ellipse_1523" data-name="Ellipse 1523" transform="translate(1526 1188)" fill="#039" stroke="#039" stroke-width="1">
      <circle cx="1.5" cy="1.5" r="1.5" stroke="none"/>
      <circle cx="1.5" cy="1.5" r="1" fill="none"/>
    </g>
    <g id="Path_24419" data-name="Path 24419" transform="translate(-51)" fill="none" stroke-linejoin="round">
      <path d="M1573.808,1190.05s4.9,2.851,5.208,2.7,7.147-10.417,7.147-10.417l-6.463,15.473Z" stroke="none"/>
      <path d="M 1581.366577148438 1191.22216796875 C 1579.816040039062 1193.467529296875 1579.693237304688 1193.528930664062 1579.463012695312 1193.64404296875 C 1579.315185546875 1193.717895507812 1579.15380859375 1193.755249023438 1578.9833984375 1193.755249023438 C 1578.833984375 1193.755249023438 1578.590698242188 1193.755249023438 1577.456176757812 1193.198852539062 L 1579.446655273438 1195.818603515625 L 1581.366577148438 1191.22216796875 M 1586.163330078125 1182.332885742188 L 1579.700439453125 1197.805541992188 L 1573.807983398438 1190.05029296875 C 1573.807983398438 1190.05029296875 1578.710571289062 1192.899047851562 1579.016235351562 1192.749389648438 C 1579.3203125 1192.597290039062 1586.163330078125 1182.332885742188 1586.163330078125 1182.332885742188 Z" stroke="none" fill="#039"/>
    </g>
    <g id="Path_24420" data-name="Path 24420" transform="translate(1515.477 1183.583) rotate(-25)" fill="#fff">
      <path d="M 8.073384284973145 20.166259765625 C 5.98638391494751 20.166259765625 4.054044246673584 19.2461986541748 2.63232421875 17.57556915283203 C 1.424888014793396 16.15673637390137 0.6644373536109924 14.31215286254883 0.393539696931839 12.17268466949463 C 0.6465721130371094 13.09089756011963 0.9586707353591919 13.95337772369385 1.323574066162109 14.7367696762085 C 2.827784061431885 17.96607971191406 5.192384243011475 19.67299842834473 8.161744117736816 19.67299842834473 C 12.7920389175415 19.67299842834473 14.84783363342285 16.18860244750977 15.74943447113037 13.43623542785645 C 15.44585990905762 15.20547199249268 14.69902229309082 16.72885513305664 13.54573440551758 17.90741920471191 C 12.1203441619873 19.36405944824219 10.17689418792725 20.166259765625 8.073384284973145 20.166259765625 Z" stroke="none"/>
      <path d="M 8.073384284973145 20.416259765625 C 3.778014183044434 20.416259765625 0.03200411796569824 16.62714958190918 0.03200411796569824 10.3542594909668 C 0.03200411796569824 4.081379890441895 -0.7362755537033081 19.42299842834473 8.161744117736816 19.42299842834473 C 15.52987384796143 19.42299842834473 16.17559623718262 10.20725440979004 16.17982482910156 10.20725440979004 C 16.18070220947266 10.20725440979004 16.1539249420166 10.60421848297119 16.1539249420166 11.56355953216553 C 16.1539249420166 17.1431999206543 12.36875438690186 20.416259765625 8.073384284973145 20.416259765625 Z" stroke="none" fill="#44c8f5"/>
    </g>
    <g id="Path_24422" data-name="Path 24422" transform="translate(1525.061 1180.424) rotate(31)" fill="#fff">
      <path d="M 6.045843601226807 13.46702194213867 C 2.742802619934082 12.84517669677734 0.2499978095293045 10.14848232269287 0.2499978095293045 6.925859451293945 C 0.2499978095293045 3.703011989593506 2.743040323257446 1.006186962127686 6.046424865722656 0.3845875263214111 C 2.602481842041016 1.58961009979248 0.7358378171920776 3.862067461013794 0.7358378171920776 6.925859451293945 C 0.7358378171920776 9.98968505859375 2.602015972137451 12.26201438903809 6.045843601226807 13.46702194213867 Z" stroke="none"/>
      <path d="M 8.256805419921875 -0.002744674682617188 C 9.888397216796875 -0.002744674682617188 0.9858379364013672 0.2826681137084961 0.9858379364013672 6.925859451293945 C 0.9858379364013672 14.19409942626953 11.64214134216309 13.85192966461182 7.499997615814209 13.85192966461182 C 3.357868194580078 13.85192966461182 -1.9073486328125e-06 10.75101947784424 -1.9073486328125e-06 6.925859451293945 C -1.9073486328125e-06 3.100699424743652 3.357868194580078 -0.0002107620239257812 7.499997615814209 -0.0002107620239257812 C 7.856215476989746 -0.0002107620239257812 8.103288650512695 -0.002744674682617188 8.256805419921875 -0.002744674682617188 Z" stroke="none" fill="#44c8f5"/>
    </g>
  </g>
</svg>
