<svg xmlns="http://www.w3.org/2000/svg" width="27.356" height="22.793" viewBox="0 0 27.356 22.793">
  <g id="Group_21597" data-name="Group 21597" transform="translate(-57.322 -368)">
    <g id="Group_14358" data-name="Group 14358" transform="translate(57.322 368)">
      <ellipse id="Ellipse_317" data-name="Ellipse 317" cx="1.961" cy="1.961" rx="1.961" ry="1.961" transform="translate(3.142 10.986)" fill="#fff"/>
      <ellipse id="Ellipse_318" data-name="Ellipse 318" cx="1.961" cy="1.961" rx="1.961" ry="1.961" transform="translate(20.398 10.986)" fill="#fff"/>
      <g id="Group_525" data-name="Group 525" transform="translate(0)">
        <path id="Path_1002" data-name="Path 1002" d="M25.026,51.04l-3.12-7.3A1.7,1.7,0,0,0,20.335,42.7H7.021A1.709,1.709,0,0,0,5.45,43.737l-3.12,7.3A4,4,0,0,0,0,54.668v4.558a1.715,1.715,0,0,0,1.71,1.71h.572v2.848a1.715,1.715,0,0,0,1.71,1.71H6.273a1.715,1.715,0,0,0,1.71-1.71V60.935h11.4v2.848a1.715,1.715,0,0,0,1.71,1.71H23.37a1.715,1.715,0,0,0,1.71-1.71V60.935h.566a1.715,1.715,0,0,0,1.71-1.71V54.668A4,4,0,0,0,25.026,51.04ZM6.5,44.185a.572.572,0,0,1,.524-.347H20.335a.568.568,0,0,1,.524.342l2.778,6.5c-.091-.005-.182-.011-.267-.011H3.991c-.091,0-.182.005-.267.011Zm.342,19.6a.572.572,0,0,1-.572.572H3.991a.572.572,0,0,1-.572-.572V60.935H6.839Zm16.526.572H21.083a.572.572,0,0,1-.572-.572V60.935h3.419v2.848h.005A.572.572,0,0,1,23.365,64.355ZM25.646,59.8H1.71a.572.572,0,0,1-.572-.572V54.668A2.85,2.85,0,0,1,3.986,51.82H23.365a2.85,2.85,0,0,1,2.848,2.848v4.558h.005A.572.572,0,0,1,25.646,59.8Z" transform="translate(0 -42.7)" fill="#44c8f5"/>
      </g>
      <g id="Group_527" data-name="Group 527" transform="translate(2.281 10.259)">
        <path id="Path_1003" data-name="Path 1003" d="M45.548,234.7a2.848,2.848,0,1,0,2.848,2.848A2.85,2.85,0,0,0,45.548,234.7Zm0,4.558a1.71,1.71,0,1,1,1.71-1.71A1.715,1.715,0,0,1,45.548,239.258Z" transform="translate(-42.7 -234.7)" fill="#039"/>
      </g>
      <g id="Group_529" data-name="Group 529" transform="translate(19.379 10.259)">
        <path id="Path_1004" data-name="Path 1004" d="M365.548,234.7a2.848,2.848,0,1,0,2.848,2.848A2.85,2.85,0,0,0,365.548,234.7Zm0,4.558a1.71,1.71,0,1,1,1.71-1.71A1.715,1.715,0,0,1,365.548,239.258Z" transform="translate(-362.7 -234.7)" fill="#039"/>
      </g>
      <g id="Group_531" data-name="Group 531" transform="translate(9.115 13.678)">
        <path id="Path_1005" data-name="Path 1005" d="M179.154,298.7h-7.982a.572.572,0,1,0,0,1.143h7.977a.572.572,0,0,0,.005-1.143Z" transform="translate(-170.6 -298.7)" fill="#039"/>
      </g>
      <g id="Group_533" data-name="Group 533" transform="translate(9.115 11.397)">
        <path id="Path_1006" data-name="Path 1006" d="M179.154,256h-7.982a.572.572,0,0,0,0,1.143h7.977a.572.572,0,0,0,.005-1.143Z" transform="translate(-170.6 -256)" fill="#039"/>
      </g>
    </g>
  </g>
</svg>
