<svg xmlns="http://www.w3.org/2000/svg" width="36" height="36" viewBox="0 0 36 36">
  <g id="cart_icon" data-name="cart icon" transform="translate(-15 -5.002)">
    <g id="Ellipse_538" data-name="Ellipse 538" transform="translate(15 5.002)" fill="#fff" stroke="#aceaff" stroke-width="1">
      <circle cx="18" cy="18" r="18" stroke="none"/>
      <circle cx="18" cy="18" r="17.5" fill="none"/>
    </g>
    <path id="Path_20789" data-name="Path 20789" d="M14070.043,16165.623a1.422,1.422,0,1,1,1.422,1.421A1.423,1.423,0,0,1,14070.043,16165.623Zm-7.026,0a1.419,1.419,0,1,1,1.421,1.421A1.423,1.423,0,0,1,14063.017,16165.623Zm2.213-2.447a3.582,3.582,0,0,1-3.615-3.066l-1-8.11a.715.715,0,0,0-.722-.614h-.162a.695.695,0,1,1,0-1.388h.162a2.151,2.151,0,0,1,2.166,1.841l.031.242h11.771a2.225,2.225,0,0,1,1.675.745,1.984,1.984,0,0,1,.473,1.7l-.568,3.02a3.6,3.6,0,0,1-3.585,2.854h-8.675a2.184,2.184,0,0,0,2.052,1.387h7.6a.695.695,0,1,1,0,1.388Zm-2.286-4.161h8.909a2.159,2.159,0,0,0,2.155-1.714l.572-3.02a.675.675,0,0,0-.161-.568.735.735,0,0,0-.561-.246h-11.6Z" transform="translate(-14034.521 -16135.521)" fill="#039" stroke="#fff" stroke-width="0.7"/>
  </g>
</svg>
