<svg id="cartImage" xmlns="http://www.w3.org/2000/svg" width="163" height="145.362" viewBox="0 0 163 145.362">
  <g id="Group_27779" data-name="Group 27779" transform="translate(-1902.711 -4916.184)">
    <path id="Path_24394" data-name="Path 24394" d="M11.456,16.132S84.664.034,87.189.034s2.853-.3,4.751.852,2.429,3.52,2.538,4.971.469,30.475.3,32.844-2.341,5.14-2.817,5.931-2.344,2.293-5.7,4.232S38.8,58.952,38.8,58.952" transform="matrix(0.978, 0.208, -0.208, 0.978, 1946.778, 4957.273)" fill="none" stroke="#a3a2fd" stroke-linecap="round" stroke-linejoin="round" stroke-width="4"/>
    <path id="Path_24388" data-name="Path 24388" d="M5.724,7.521,19.611,4.569l28.569,53.2s5.9,13.889,12.505,12.917,49.937-10.1,49.937-10.1,3.7.556,4.561,2.368.713,3.954-1.323,5.991-47.97,10.84-47.97,10.84" transform="matrix(0.978, 0.208, -0.208, 0.978, 1919.149, 4951.961)" fill="none" stroke="#a3a2fd" stroke-linecap="round" stroke-linejoin="round" stroke-width="4"/>
  </g>
  <circle id="Ellipse_1506" data-name="Ellipse 1506" cx="4.04" cy="4.04" r="4.04" transform="translate(102.289 71.32)" fill="#6564fb"/>
  <circle id="Ellipse_1516" data-name="Ellipse 1516" cx="4.04" cy="4.04" r="4.04" transform="translate(68.364 71.32)" fill="#6564fb"/>
  <path id="Path_24398" data-name="Path 24398" d="M1931.547,5004.918a35.824,35.824,0,0,0,26.434,0" transform="translate(-1854.613 -4914.68)" fill="none" stroke="#6564fb" stroke-linecap="round" stroke-width="2"/>
  <g id="Group_27786" data-name="Group 27786" transform="translate(-91 -364.863)">
    <path id="Path_24401" data-name="Path 24401" d="M1872.667,4976.461v5.5" transform="translate(-1654.27 -4565.946)" fill="none" stroke="#b7acac" stroke-linecap="round" stroke-width="1"/>
    <path id="Path_24402" data-name="Path 24402" d="M1867.949,4980.271h7.072" transform="translate(-1653.161 -4566.87)" fill="none" stroke="#b7acac" stroke-linecap="round" stroke-width="1"/>
  </g>
  <g id="Group_27790" data-name="Group 27790" transform="translate(-130.324 -361.152)">
    <path id="Path_24401-2" data-name="Path 24401" d="M1872.667,4976.462v3.263" transform="translate(-1655.738 -4565.947)" fill="none" stroke="#b7acac" stroke-linecap="round" stroke-width="1"/>
    <path id="Path_24402-2" data-name="Path 24402" d="M1867.949,4980.271h4.2" transform="translate(-1653.161 -4568.043)" fill="none" stroke="#b7acac" stroke-linecap="round" stroke-width="1"/>
  </g>
  <g id="Group_27791" data-name="Group 27791" transform="translate(-68.985 -335.011)">
    <path id="Path_24401-3" data-name="Path 24401" d="M1872.667,4976.462v3.263" transform="translate(-1655.738 -4565.947)" fill="none" stroke="#b7acac" stroke-linecap="round" stroke-width="1"/>
    <path id="Path_24402-3" data-name="Path 24402" d="M1867.949,4980.271h4.2" transform="translate(-1653.161 -4568.043)" fill="none" stroke="#b7acac" stroke-linecap="round" stroke-width="1"/>
  </g>
  <g id="Group_27787" data-name="Group 27787" transform="matrix(0.839, 0.545, -0.545, 0.839, 89.978, -416.139)">
    <path id="Path_24401-4" data-name="Path 24401" d="M1872.667,4976.461v5.5" transform="translate(-1654.27 -4565.946)" fill="none" stroke="#b7acac" stroke-linecap="round" stroke-width="1"/>
    <path id="Path_24402-4" data-name="Path 24402" d="M1867.949,4980.271h7.072" transform="translate(-1653.161 -4566.87)" fill="none" stroke="#b7acac" stroke-linecap="round" stroke-width="1"/>
  </g>
  <g id="Group_27788" data-name="Group 27788" transform="matrix(0.839, 0.545, -0.545, 0.839, 47.281, -394.908)">
    <path id="Path_24401-5" data-name="Path 24401" d="M1872.667,4976.461v7.042" transform="translate(-1653.259 -4565.946)" fill="none" stroke="#b7acac" stroke-linecap="round" stroke-width="1"/>
    <path id="Path_24402-5" data-name="Path 24402" d="M1867.949,4980.271H1877" transform="translate(-1653.161 -4566.061)" fill="none" stroke="#b7acac" stroke-linecap="round" stroke-width="1"/>
  </g>
  <g id="Group_27789" data-name="Group 27789" transform="translate(-113.475 -386.899)">
    <path id="Path_24401-6" data-name="Path 24401" d="M1872.667,4976.461v7.042" transform="translate(-1653.259 -4565.946)" fill="none" stroke="#b7acac" stroke-linecap="round" stroke-width="1"/>
    <path id="Path_24402-6" data-name="Path 24402" d="M1867.949,4980.271H1877" transform="translate(-1653.161 -4566.061)" fill="none" stroke="#b7acac" stroke-linecap="round" stroke-width="1"/>
  </g>
  <g id="Ellipse_1507" data-name="Ellipse 1507" transform="translate(68.364 132.362)" fill="none" stroke="#a3a2fd" stroke-width="3">
    <circle cx="6.5" cy="6.5" r="6.5" stroke="none"/>
    <circle cx="6.5" cy="6.5" r="5" fill="none"/>
  </g>
  <g id="Ellipse_1509" data-name="Ellipse 1509" transform="translate(9.289 38.298)" fill="none" stroke="#a3a2fd" stroke-width="2">
    <circle cx="5.532" cy="5.532" r="5.532" stroke="none"/>
    <circle cx="5.532" cy="5.532" r="4.532" fill="none"/>
  </g>
  <g id="Ellipse_1508" data-name="Ellipse 1508" transform="translate(96.868 132.362)" fill="none" stroke="#a3a2fd" stroke-width="3">
    <circle cx="6.5" cy="6.5" r="6.5" stroke="none"/>
    <circle cx="6.5" cy="6.5" r="5" fill="none"/>
  </g>
  <g id="Polygon_86" data-name="Polygon 86" transform="matrix(0.105, 0.995, -0.995, 0.105, 140.989, 9.177)" fill="#fff">
    <path d="M 10.12338161468506 8.923343658447266 L 0.8705248236656189 8.923343658447266 L 5.496953010559082 0.9923263788223267 L 10.12338161468506 8.923343658447266 Z" stroke="none"/>
    <path d="M 5.496953010559082 1.984639167785645 L 1.74104118347168 8.423343658447266 L 9.252864837646484 8.423343658447266 L 5.496953010559082 1.984639167785645 M 5.496953010559082 3.814697265625e-06 L 10.99390316009521 9.423343658447266 L 2.86102294921875e-06 9.423343658447266 L 5.496953010559082 3.814697265625e-06 Z" stroke="none" fill="#b7acac"/>
  </g>
  <g id="Polygon_87" data-name="Polygon 87" transform="translate(40.067 29.349) rotate(-180)" fill="#fff">
    <path d="M 10.12338161468506 8.923343658447266 L 0.8705248236656189 8.923343658447266 L 5.496953010559082 0.9923263788223267 L 10.12338161468506 8.923343658447266 Z" stroke="none"/>
    <path d="M 5.496953010559082 1.984639167785645 L 1.74104118347168 8.423343658447266 L 9.252864837646484 8.423343658447266 L 5.496953010559082 1.984639167785645 M 5.496953010559082 3.814697265625e-06 L 10.99390316009521 9.423343658447266 L 2.86102294921875e-06 9.423343658447266 L 5.496953010559082 3.814697265625e-06 Z" stroke="none" fill="#b7acac"/>
  </g>
  <g id="Polygon_88" data-name="Polygon 88" transform="translate(100.156 5.637) rotate(-180)" fill="#fff">
    <path d="M 5.705658435821533 5.136723041534424 L 0.8705227971076965 5.136723041534424 L 3.288090705871582 0.9923253059387207 L 5.705658435821533 5.136723041534424 Z" stroke="none"/>
    <path d="M 3.288090705871582 1.984637498855591 L 1.741039276123047 4.636723041534424 L 4.835142135620117 4.636723041534424 L 3.288090705871582 1.984637498855591 M 3.288090705871582 3.337860107421875e-06 L 6.576180934906006 5.636723041534424 L 4.76837158203125e-07 5.636723041534424 L 3.288090705871582 3.337860107421875e-06 Z" stroke="none" fill="#b7acac"/>
  </g>
  <g id="Ellipse_1511" data-name="Ellipse 1511" transform="translate(150 25.137)" fill="#fff" stroke="#b7acac" stroke-width="1">
    <circle cx="3.5" cy="3.5" r="3.5" stroke="none"/>
    <circle cx="3.5" cy="3.5" r="3" fill="none"/>
  </g>
  <g id="Ellipse_1517" data-name="Ellipse 1517" transform="translate(159 53.137)" fill="#fff" stroke="#b7acac" stroke-width="1">
    <circle cx="2" cy="2" r="2" stroke="none"/>
    <circle cx="2" cy="2" r="1.5" fill="none"/>
  </g>
  <g id="Ellipse_1513" data-name="Ellipse 1513" transform="translate(48 3.137)" fill="#fff" stroke="#b7acac" stroke-width="1">
    <circle cx="2.5" cy="2.5" r="2.5" stroke="none"/>
    <circle cx="2.5" cy="2.5" r="2" fill="none"/>
  </g>
  <g id="Ellipse_1512" data-name="Ellipse 1512" transform="translate(72 22.137)" fill="#fff" stroke="#b7acac" stroke-width="1">
    <circle cx="2.5" cy="2.5" r="2.5" stroke="none"/>
    <circle cx="2.5" cy="2.5" r="2" fill="none"/>
  </g>
</svg>
