<svg xmlns="http://www.w3.org/2000/svg" width="38" height="38" viewBox="0 0 38 38">
  <g id="Group_19942" data-name="Group 19942" transform="translate(-302 -35)">
    <circle id="Ellipse_297" data-name="Ellipse 297" cx="19" cy="19" r="19" transform="translate(302 35)" fill="#f3f3f3"/>
    <g id="fi-rr-shopping-cart" transform="translate(312.002 44.998)">
      <g id="Group_19981" data-name="Group 19981" transform="translate(-0.002 0.002)">
        <path id="Path_20789" data-name="Path 20789" d="M14070.663,16166.5a1.5,1.5,0,1,1,1.5,1.5A1.5,1.5,0,0,1,14070.663,16166.5Zm-7.421,0a1.5,1.5,0,1,1,1.5,1.5A1.5,1.5,0,0,1,14063.242,16166.5Zm2.337-2.585a3.784,3.784,0,0,1-3.818-3.238l-1.059-8.565a.757.757,0,0,0-.763-.649h-.171a.733.733,0,1,1,0-1.465h.171a2.271,2.271,0,0,1,2.288,1.943l.032.256h12.433a2.351,2.351,0,0,1,1.77.787,2.1,2.1,0,0,1,.5,1.8l-.6,3.189a3.8,3.8,0,0,1-3.786,3.015h-9.162a2.31,2.31,0,0,0,2.167,1.465h8.03a.733.733,0,1,1,0,1.465Zm-2.414-4.395h9.409a2.28,2.28,0,0,0,2.276-1.81l.6-3.189a.713.713,0,0,0-.17-.6.777.777,0,0,0-.593-.26h-12.25Z" transform="translate(-14059 -16150)" fill="#039"/>
      </g>
    </g>
  </g>
</svg>
