<svg id="Component_255_64" data-name="Component 255 – 64" xmlns="http://www.w3.org/2000/svg" width="25" height="15" viewBox="0 0 25 15">
  <g id="XMLID_1_" transform="translate(2.501 2.5)">
    <path id="Union_55" data-name="Union 55" d="M19.277,12.5H0V3.234A3.228,3.228,0,0,0,3.221,0H22.5V3.234l-.125,0,.125,0V12.5ZM8.028,6.25a3.227,3.227,0,0,0,3.221,3.233h0A3.227,3.227,0,0,1,8.028,6.25Zm8.908,0a1.168,1.168,0,1,0,2.336,0,1.168,1.168,0,1,1-2.336,0Zm-13.708,0A1.171,1.171,0,0,0,4.395,7.422h0A1.171,1.171,0,0,1,3.227,6.25ZM0,0H3.221A3.228,3.228,0,0,1,0,3.234Z" transform="translate(0)" fill="#008040"/>
  </g>
  <g id="XMLID_1_2" data-name="XMLID_1_">
    <path id="Path_23126" data-name="Path 23126" d="M406.572,96.76v3.234a3.23,3.23,0,0,1-3.222-3.234Z" transform="translate(-384.073 -96.76)" fill="#6cd992"/>
    <path id="Path_23127" data-name="Path 23127" d="M406.572,266.24v3.234H403.35A3.229,3.229,0,0,1,406.572,266.24Z" transform="translate(-384.073 -256.974)" fill="#6cd992"/>
    <path id="Path_23128" data-name="Path 23128" d="M52.722,269.474H49.5V266.24A3.229,3.229,0,0,1,52.722,269.474Z" transform="translate(-49.5 -256.974)" fill="#6cd992"/>
    <path id="Path_23129" data-name="Path 23129" d="M52.722,96.76A3.229,3.229,0,0,1,49.5,99.994V96.76Z" transform="translate(-49.5 -96.76)" fill="#6cd992"/>
    <path id="Path_23130" data-name="Path 23130" d="M109.917,189.64a1.172,1.172,0,1,1-1.167,1.172A1.17,1.17,0,0,1,109.917,189.64Z" transform="translate(-105.522 -184.562)" fill="#6cd992"/>
    <ellipse id="Ellipse_1331" data-name="Ellipse 1331" cx="3.222" cy="3.233" rx="3.222" ry="3.233" transform="translate(8.028 3.016)" fill="#6cd992"/>
    <path id="Path_23131" data-name="Path 23131" d="M361.548,189.64a1.172,1.172,0,1,1-1.168,1.172A1.17,1.17,0,0,1,361.548,189.64Z" transform="translate(-343.444 -184.562)" fill="#6cd992"/>
    <path id="Path_23132" data-name="Path 23132" d="M72,99.994v6.032a3.229,3.229,0,0,0-3.222,3.234H52.722a3.229,3.229,0,0,0-3.222-3.234V99.994a3.229,3.229,0,0,0,3.222-3.234H68.777A3.23,3.23,0,0,0,72,99.994Zm-3.228,3.016a1.168,1.168,0,1,0-1.167,1.172A1.17,1.17,0,0,0,68.772,103.01Zm-4.8,0a3.222,3.222,0,1,0-3.222,3.233A3.228,3.228,0,0,0,63.972,103.01Zm-8.908,0a1.168,1.168,0,1,0-1.168,1.172A1.17,1.17,0,0,0,55.063,103.01Z" transform="translate(-49.5 -96.76)" fill="#15b14b"/>
  </g>
</svg>
