<svg xmlns="http://www.w3.org/2000/svg" width="36.234" height="39.1" viewBox="0 0 36.234 39.1">
  <g id="Group_22229" data-name="Group 22229" transform="translate(-161.883 -591.278)">
    <g id="bulb-outline" transform="translate(170.611 599.926)">
      <path id="Path_20977" data-name="Path 20977" d="M20.5,25.39V23.812c0-1.906,2.074-3.71,3.418-5a9.518,9.518,0,0,0,2.893-7.1,9.466,9.466,0,1,0-18.933,0,9.745,9.745,0,0,0,2.893,7.1c1.338,1.263,3.418,3.07,3.418,5V25.39" transform="translate(-7.875 -2.249)" fill="none" stroke="#44c8f5" stroke-linecap="round" stroke-linejoin="round" stroke-width="2"/>
      <path id="Path_20978" data-name="Path 20978" d="M15.75,33.75h4.207" transform="translate(-8.387 -4.298)" fill="none" stroke="#44c8f5" stroke-linecap="round" stroke-linejoin="round" stroke-width="2"/>
      <path id="Path_20979" data-name="Path 20979" d="M14.625,30.375h6.311" transform="translate(-8.314 -4.078)" fill="none" stroke="#44c8f5" stroke-linecap="round" stroke-linejoin="round" stroke-width="2"/>
    </g>
    <g id="Group_21220" data-name="Group 21220">
      <path id="Path_20982" data-name="Path 20982" d="M7870.931-357.908h-4.516" transform="translate(-7703.532 967.598)" fill="none" stroke="#039" stroke-linecap="round" stroke-width="2"/>
      <path id="Path_20983" data-name="Path 20983" d="M7870.931-357.908h-4.516" transform="translate(-7673.814 967.598)" fill="none" stroke="#039" stroke-linecap="round" stroke-width="2"/>
      <path id="Path_20984" data-name="Path 20984" d="M4.516,0H0" transform="matrix(0.695, -0.719, 0.719, 0.695, 189.544, 600.042)" fill="none" stroke="#039" stroke-linecap="round" stroke-width="2"/>
      <path id="Path_20985" data-name="Path 20985" d="M4.515,0H0" transform="matrix(-0.695, -0.719, 0.719, -0.695, 170.136, 600.042)" fill="none" stroke="#039" stroke-linecap="round" stroke-width="2"/>
      <path id="Path_20986" data-name="Path 20986" d="M4.515,0H0" transform="translate(180.078 596.793) rotate(-90)" fill="none" stroke="#039" stroke-linecap="round" stroke-width="2"/>
    </g>
  </g>
</svg>
