<svg xmlns="http://www.w3.org/2000/svg" width="24" height="24" viewBox="0 0 24 24">
  <g id="Group_22345" data-name="Group 22345" transform="translate(1472 -5516)">
    <rect id="Rectangle_9560" data-name="Rectangle 9560" width="24" height="24" transform="translate(-1472 5516)" fill="#fff"/>
    <g id="Group_22170" data-name="Group 22170" transform="translate(-1469 5517)">
      <g id="Group_14354" data-name="Group 14354" transform="translate(0 0)">
        <g id="Group_538" data-name="Group 538" transform="translate(5.293)">
          <path id="Path_1017" data-name="Path 1017" d="M14.422,10.586a.407.407,0,0,1-.407-.407c0-5.519-1.5-9.365-2.85-9.365s-2.85,3.846-2.85,9.365a.407.407,0,1,1-.814,0C7.5,5.244,8.784,0,11.164,0s3.664,5.244,3.664,10.179A.407.407,0,0,1,14.422,10.586Z" transform="translate(-7.5)" fill="#039"/>
        </g>
        <g id="Group_536" data-name="Group 536" transform="translate(0)">
          <path id="Path_1015" data-name="Path 1015" d="M13.215,10.586a.414.414,0,0,1-.182-.043,6.48,6.48,0,0,0-6.151,0,.4.4,0,0,1-.412-.029,4.3,4.3,0,0,0-4.866.02.406.406,0,0,1-.6-.355V8.958a8.958,8.958,0,0,1,17.915,0v1.221a.408.408,0,0,1-.606.356,4.3,4.3,0,0,0-4.866-.02A.4.4,0,0,1,13.215,10.586ZM9.958,8.958a7.559,7.559,0,0,1,3.227.753,4.937,4.937,0,0,1,4.916-.2V8.958a8.143,8.143,0,0,0-16.287,0v.56a4.941,4.941,0,0,1,4.916.195,7.548,7.548,0,0,1,3.227-.754Z" transform="translate(-1)" fill="#44c8f5"/>
        </g>
      </g>
      <g id="Group_22127" data-name="Group 22127" transform="translate(4.885 10.319)">
        <path id="Path_21076" data-name="Path 21076" d="M-1693.065-2698.778c-.094.063-4.115,2.953-4.115,2.953s-.208.58-.051.871.68.291.68.291l2.293-1.382v6.031a.673.673,0,0,0,.036.262.633.633,0,0,0,.152.209h.88l.314-.471.283.471h.684a.992.992,0,0,0,.355-.184.456.456,0,0,0,.123-.287v-6.252l2.01,1.414s.775.086,1.011-.213.077-.891.077-.891Z" transform="translate(1697.29 2701.356)" fill="none" stroke="#039" stroke-width="0.6"/>
        <g id="Ellipse_1394" data-name="Ellipse 1394" transform="translate(2.343)" fill="#fff" stroke="#039" stroke-width="0.6">
          <circle cx="2.018" cy="2.018" r="2.018" stroke="none"/>
          <circle cx="2.018" cy="2.018" r="1.718" fill="none"/>
        </g>
        <path id="Path_21077" data-name="Path 21077" d="M-1685.194-2674.218h2.807" transform="translate(1688.245 2682.991)" fill="none" stroke="#039" stroke-width="0.6"/>
        <path id="Path_21078" data-name="Path 21078" d="M-1679.63-2674.218v2.621" transform="translate(1684.085 2682.991)" fill="none" stroke="#039" stroke-width="0.6"/>
      </g>
    </g>
  </g>
</svg>
