<svg xmlns="http://www.w3.org/2000/svg" width="25.294" height="22.793" viewBox="0 0 25.294 22.793">
  <g id="Group_21595" data-name="Group 21595" transform="translate(-58.353 -365)">
    <g id="Group_14356" data-name="Group 14356" transform="translate(58.353 365)">
      <ellipse id="Ellipse_319" data-name="Ellipse 319" cx="1.004" cy="1.004" rx="1.004" ry="1.004" transform="translate(6.368 12.983)" fill="#039"/>
      <ellipse id="Ellipse_320" data-name="Ellipse 320" cx="1.004" cy="1.004" rx="1.004" ry="1.004" transform="translate(16.917 12.983)" fill="#039"/>
      <path id="Path_1020" data-name="Path 1020" d="M25.294,32.693a2.966,2.966,0,0,0-2.439-2.915V29.34a10.208,10.208,0,0,0-20.415,0v.439a2.961,2.961,0,0,0,.036,5.836,5.918,5.918,0,0,0,3.068,4.944c1.638.919,3.961,1.366,7.1,1.366s5.467-.447,7.1-1.366a5.918,5.918,0,0,0,3.068-4.944A2.966,2.966,0,0,0,25.294,32.693Zm-24.248,0A1.919,1.919,0,0,1,2.439,30.85v3.686A1.919,1.919,0,0,1,1.046,32.693Zm20.763,2.1a5.075,5.075,0,0,1-2.57,4.855c-1.477.829-3.634,1.232-6.592,1.232s-5.115-.4-6.592-1.232a5.075,5.075,0,0,1-2.57-4.855V29.34a9.178,9.178,0,0,1,6.53-8.776c2.874.036,4.405,2.111,4.405,3.614a2.089,2.089,0,0,1-2.087,2.087A1.567,1.567,0,0,1,10.768,24.7a1.149,1.149,0,0,1,1.147-1.147.523.523,0,1,0,0-1.046A2.2,2.2,0,0,0,9.722,24.7a2.614,2.614,0,0,0,2.611,2.611,3.136,3.136,0,0,0,3.133-3.133,4.478,4.478,0,0,0-1.458-3.123,5.319,5.319,0,0,0-1.234-.875,9.172,9.172,0,0,1,9.036,9.16v5.452Zm1.046-.255V30.85a1.916,1.916,0,0,1,0,3.686Z" transform="translate(0 -19.132)" fill="#44c8f5"/>
      <path id="Path_1021" data-name="Path 1021" d="M153.859,253.013a2.863,2.863,0,0,1-4.044,0,.523.523,0,0,0-.739.739,3.91,3.91,0,0,0,5.523,0,.523.523,0,0,0-.739-.739Z" transform="translate(-139.191 -237.585)" fill="#039"/>
    </g>
  </g>
</svg>
