<svg id="information" xmlns="http://www.w3.org/2000/svg" width="11.528" height="11.528" viewBox="0 0 11.528 11.528">
  <g id="Group_12256" data-name="Group 12256">
    <g id="Group_12255" data-name="Group 12255">
      <path id="Path_16699" data-name="Path 16699" d="M5.764,0a5.764,5.764,0,1,0,5.764,5.764A5.761,5.761,0,0,0,5.764,0Zm0,10.627a4.863,4.863,0,1,1,4.863-4.863A4.861,4.861,0,0,1,5.764,10.627Z" fill="#b2b2b2"/>
    </g>
  </g>
  <g id="Group_12258" data-name="Group 12258" transform="translate(5.314 4.826)">
    <g id="Group_12257" data-name="Group 12257">
      <path id="Path_16700" data-name="Path 16700" d="M236.45,214.33a.45.45,0,0,0-.45.45v2.9a.45.45,0,1,0,.9,0v-2.9A.45.45,0,0,0,236.45,214.33Z" transform="translate(-236 -214.33)" fill="#b2b2b2"/>
    </g>
  </g>
  <g id="Group_12260" data-name="Group 12260" transform="translate(5.156 3.059)">
    <g id="Group_12259" data-name="Group 12259">
      <circle id="Ellipse_632" data-name="Ellipse 632" cx="0.608" cy="0.608" r="0.608" fill="#b2b2b2"/>
    </g>
  </g>
</svg>
