<svg data-name="Component 94 – 1" xmlns="http://www.w3.org/2000/svg" width="25.145" height="25.145" viewBox="0 0 25.145 25.145">
    <path data-name="Path 16363" d="M537.1 1350.149h-7.41v-7.409a.744.744 0 0 0-.217-.526.764.764 0 0 0-.524-.215.764.764 0 0 0-.525.215.743.743 0 0 0-.216.526v7.409H520.8a.764.764 0 0 0-.525.215.743.743 0 0 0-.216.526.744.744 0 0 0 .216.526.764.764 0 0 0 .525.215h7.409v7.409a.743.743 0 0 0 .216.526.747.747 0 0 0 1.048 0 .744.744 0 0 0 .217-.526v-7.409h7.41a.764.764 0 0 0 .524-.215.746.746 0 0 0 0-1.052.763.763 0 0 0-.524-.215z" transform="rotate(-45 -1344.731 1305.054)" style="fill:#44c8f5"/>
</svg>
