<svg xmlns="http://www.w3.org/2000/svg" width="20.89" height="19.584" viewBox="0 0 20.89 19.584">
  <g id="organization-line" transform="translate(-2 -3)">
    <path id="Path_21245" data-name="Path 21245" d="M9.244,17.133H19.95v2.011h1.044V16.089H15.12V14H14.075v2.089H8.2v3.055H9.244V17.133Z" transform="translate(-2.153 -3.819)" fill="#039"/>
    <path id="Path_21246" data-name="Path 21246" d="M9.834,23H3.306A1.306,1.306,0,0,0,2,24.306v3.917a1.306,1.306,0,0,0,1.306,1.306H9.834a1.306,1.306,0,0,0,1.306-1.306V24.306A1.306,1.306,0,0,0,9.834,23ZM3.306,28.222V24.306H9.834v3.917Z" transform="translate(0 -6.944)" fill="#44c8f5"/>
    <path id="Path_21247" data-name="Path 21247" d="M27.834,23H21.306A1.306,1.306,0,0,0,20,24.306v3.917a1.306,1.306,0,0,0,1.306,1.306h6.528a1.306,1.306,0,0,0,1.306-1.306V24.306A1.306,1.306,0,0,0,27.834,23Zm-6.528,5.222V24.306h6.528v3.917Z" transform="translate(-6.25 -6.944)" fill="#44c8f5"/>
    <path id="Path_21248" data-name="Path 21248" d="M12.306,9.528h6.528a1.306,1.306,0,0,0,1.306-1.306V4.306A1.306,1.306,0,0,0,18.834,3H12.306A1.306,1.306,0,0,0,11,4.306V8.222A1.306,1.306,0,0,0,12.306,9.528Zm0-5.222h6.528V8.222H12.306Z" transform="translate(-3.125)" fill="#44c8f5"/>
  </g>
</svg>
