<svg id="Component_96_2" data-name="Component 96 – 2" xmlns="http://www.w3.org/2000/svg" width="24.225" height="34.451" viewBox="0 0 24.225 34.451">
  <path id="Path_1043" data-name="Path 1043" d="M99.7,10.09a15.218,15.218,0,0,0-1.84-5.4A9.134,9.134,0,0,0,94.166,1.2a14.241,14.241,0,0,0-11.526.041,10.1,10.1,0,0,0-3.9,3.568,16.171,16.171,0,0,0-2.117,5.5,35.494,35.494,0,0,0-.646,7.044,43.3,43.3,0,0,0,.515,7.011,15.384,15.384,0,0,0,1.857,5.4,9.147,9.147,0,0,0,3.675,3.493,14.28,14.28,0,0,0,11.545-.04,10.1,10.1,0,0,0,3.9-3.568,16,16,0,0,0,2.109-5.494,36.136,36.136,0,0,0,.629-7.05A44.321,44.321,0,0,0,99.7,10.09ZM98.257,23.884a14.669,14.669,0,0,1-1.922,5.032,8.766,8.766,0,0,1-3.381,3.1,12.971,12.971,0,0,1-10.3.043,7.824,7.824,0,0,1-3.143-2.989,14.059,14.059,0,0,1-1.685-4.928,41.963,41.963,0,0,1-.5-6.791,34.153,34.153,0,0,1,.619-6.775,14.838,14.838,0,0,1,1.931-5.042,8.766,8.766,0,0,1,3.381-3.1,12.929,12.929,0,0,1,10.287-.043A7.81,7.81,0,0,1,96.7,5.38a13.9,13.9,0,0,1,1.668,4.925A42.984,42.984,0,0,1,98.86,17.1a34.8,34.8,0,0,1-.6,6.785Z" transform="translate(-75.981 0)" fill="#44c8f5"/>
  <path id="Path_1044" data-name="Path 1044" d="M184.558,81.842v-.008a12.2,12.2,0,0,0-.69-2.3,4.817,4.817,0,0,0-1.09-1.639,3.849,3.849,0,0,0-1.5-.912l-.011,0a5.9,5.9,0,0,0-1.742-.249,4.7,4.7,0,0,0-2.82.831,5.347,5.347,0,0,0-1.745,2.411,13.961,13.961,0,0,0-.82,3.677c-.064.588-.115,1.225-.152,1.893a.673.673,0,0,0,.634.709.715.715,0,0,0,.709-.634c.036-.645.085-1.258.147-1.827a12.647,12.647,0,0,1,.731-3.319,4.05,4.05,0,0,1,1.289-1.823,3.387,3.387,0,0,1,2.027-.572,4.564,4.564,0,0,1,1.34.188,2.482,2.482,0,0,1,.974.6l.011.011a3.5,3.5,0,0,1,.777,1.19,10.865,10.865,0,0,1,.609,2.036,25.016,25.016,0,0,1,.368,2.944c.083,1.134.125,2.466.125,3.958,0,1.3-.027,2.41-.083,3.387a20.5,20.5,0,0,1-.319,2.708,10.649,10.649,0,0,1-.569,2.038l0,.01a4.379,4.379,0,0,1-.8,1.349,3,3,0,0,1-1.065.751l-.009,0a4.216,4.216,0,0,1-3.33-.181,3.206,3.206,0,0,1-1.224-1.536,12.507,12.507,0,0,1-.809-3.37,62.239,62.239,0,0,1-.194-9.025.673.673,0,0,0-.7-.641.557.557,0,0,0-.559.641,51.879,51.879,0,0,0,.121,9.188,13.615,13.615,0,0,0,.913,3.749,4.5,4.5,0,0,0,1.781,2.159,5.545,5.545,0,0,0,4.525.258,4.385,4.385,0,0,0,1.541-1.081l.01-.011a5.7,5.7,0,0,0,1.053-1.763,11.974,11.974,0,0,0,.642-2.288,21.816,21.816,0,0,0,.34-2.882c.058-1,.086-2.135.086-3.464,0-1.525-.043-2.889-.128-4.056A25.933,25.933,0,0,0,184.558,81.842Z" transform="translate(-167.381 -71.571)" fill="#44c8f5"/>
  <g id="Group_565" data-name="Group 565" transform="translate(9.164 14.588)">
    <path id="Path_1047" data-name="Path 1047" d="M128,7.5l.851,1.358L128,10.215A1.358,1.358,0,0,0,128,7.5Z" transform="translate(-126.558 -7.415)" fill="#039"/>
    <path id="Path_1048" data-name="Path 1048" d="M9.877,8.858c0-.75-.457-1.358-1.02-1.358a1.358,1.358,0,0,0,0,2.715C9.421,10.215,9.877,9.608,9.877,8.858Zm-1.02.682a.682.682,0,1,1,.682-.682A.682.682,0,0,1,8.858,9.539Z" transform="translate(-7.415 -7.415)" fill="#039"/>
    <path id="Path_1049" data-name="Path 1049" d="M384,263.5l.851,1.358L384,266.216a1.358,1.358,0,0,0,0-2.716Z" transform="translate(-379.673 -260.531)" fill="#039"/>
    <path id="Path_1050" data-name="Path 1050" d="M265.877,264.858c0-.75-.456-1.358-1.02-1.358a1.358,1.358,0,0,0,0,2.716C265.421,266.216,265.877,265.608,265.877,264.858Zm-1.02.682a.682.682,0,1,1,.682-.682A.682.682,0,0,1,264.858,265.539Z" transform="translate(-260.531 -260.531)" fill="#039"/>
    <path id="Path_1051" data-name="Path 1051" d="M21.688,16.287l-.359.12L16.406,21.33l-.12.359a.338.338,0,0,0,.478,0l4.924-4.924A.338.338,0,0,0,21.688,16.287Z" transform="translate(-16.103 -16.103)" fill="#039"/>
    <path id="Path_1052" data-name="Path 1052" d="M12.523,7.6,7.6,12.523A.338.338,0,0,0,7.6,13L13,7.6A.338.338,0,0,0,12.523,7.6Z" transform="translate(-7.415 -7.415)" fill="#039"/>
    <path id="Path_1053" data-name="Path 1053" d="M3.064,3.2a.085.085,0,0,0-.12,0L.6,5.543a.254.254,0,1,1-.358-.359L5.167.26a.254.254,0,1,1,.358.359L2.89,3.255a.085.085,0,1,0,.12.12L5.645.738a.423.423,0,1,0-.6-.6L.124,5.065a.423.423,0,0,0,.6.6L3.064,3.32A.084.084,0,0,0,3.064,3.2Z" transform="translate(0 -0.017)" fill="#039"/>
    <path id="Path_1054" data-name="Path 1054" d="M1.442,2.884A1.442,1.442,0,1,0,0,1.442,1.444,1.444,0,0,0,1.442,2.884Zm0-2.715A1.273,1.273,0,1,1,.169,1.442,1.275,1.275,0,0,1,1.442.169Z" transform="translate(0)" fill="#039"/>
    <path id="Path_1055" data-name="Path 1055" d="M60.766,61.532A.766.766,0,1,0,60,60.766.767.767,0,0,0,60.766,61.532Zm0-1.363a.6.6,0,1,1-.6.6A.6.6,0,0,1,60.766,60.169Z" transform="translate(-59.324 -59.324)" fill="#039"/>
    <path id="Path_1056" data-name="Path 1056" d="M257.442,256a1.442,1.442,0,1,0,1.442,1.442A1.444,1.444,0,0,0,257.442,256Zm0,2.715a1.273,1.273,0,1,1,1.273-1.273A1.275,1.275,0,0,1,257.442,258.715Z" transform="translate(-253.116 -253.116)" fill="#039"/>
    <path id="Path_1057" data-name="Path 1057" d="M316.766,316a.766.766,0,1,0,.766.766A.767.767,0,0,0,316.766,316Zm0,1.363a.6.6,0,1,1,.6-.6A.6.6,0,0,1,316.766,317.363Z" transform="translate(-312.44 -312.439)" fill="#039"/>
  </g>
</svg>
