<svg data-name="Component 93 – 1" xmlns="http://www.w3.org/2000/svg" width="11.857" height="14.229" viewBox="0 0 11.857 14.229">
    <path data-name="Path 16220" d="m794.4 695.94-1.354-1.4a1.79 1.79 0 0 0-1.278-.541h-2.8a2.97 2.97 0 0 0-2.9 2.371H786a2.967 2.967 0 0 0-2.964 2.964v5.928a2.967 2.967 0 0 0 2.964 2.966h3.557a2.967 2.967 0 0 0 2.964-2.964v-.064a2.97 2.97 0 0 0 2.371-2.9v-5.122a1.771 1.771 0 0 0-.492-1.238zm-4.835 11.1H786a1.779 1.779 0 0 1-1.779-1.778v-5.928a1.779 1.779 0 0 1 1.779-1.777v4.743a2.967 2.967 0 0 0 2.964 2.964h2.371a1.779 1.779 0 0 1-1.779 1.778zm2.371-2.964h-2.964a1.779 1.779 0 0 1-1.779-1.779v-5.336a1.779 1.779 0 0 1 1.779-1.779h2.371v1.186a1.186 1.186 0 0 0 1.186 1.186h1.186v4.746a1.779 1.779 0 0 1-1.779 1.779z" transform="translate(-783.04 -694)" style="fill:#44c8f5"/>
</svg>
