<svg xmlns="http://www.w3.org/2000/svg" width="16.667" height="20" viewBox="0 0 16.667 20">
  <g id="Group_20940" data-name="Group 20940" transform="translate(-17.098 -107)">
    <path id="mobile-mail" d="M20.667,3a2,2,0,0,0-2-2H6A2,2,0,0,0,4,3V19a2,2,0,0,0,2,2H18.667a2,2,0,0,0,2-2Zm-3.921-.667L15.6,4.631A.666.666,0,0,1,15,5H9.667a.666.666,0,0,1-.6-.369l-1.149-2.3H6A.667.667,0,0,0,5.333,3V19A.667.667,0,0,0,6,19.667H18.667A.667.667,0,0,0,19.333,19V3a.667.667,0,0,0-.667-.667H16.745Zm-2.412,10v-.013a2,2,0,1,0-.667,1.5A2,2,0,0,0,17,12.333a4.666,4.666,0,1,0-2.333,4.041A.667.667,0,0,0,14,15.221a3.333,3.333,0,1,1,1.667-2.887.667.667,0,0,1-1.333,0Zm-2-.667a.667.667,0,1,1-.667.667A.667.667,0,0,1,12.333,11.667Z" transform="translate(13.098 106)" fill="#44c8f5" fill-rule="evenodd"/>
    <path id="mobile-mail-2" data-name="mobile-mail" d="M14.333,12.333v-.013a2,2,0,1,0-.667,1.5A2,2,0,0,0,17,12.333a4.666,4.666,0,1,0-2.333,4.041A.667.667,0,0,0,14,15.221a3.333,3.333,0,1,1,1.667-2.887.667.667,0,0,1-1.333,0Zm-2-.667a.667.667,0,1,1-.667.667A.667.667,0,0,1,12.333,11.667Z" transform="translate(13.095 106)" fill="#039" fill-rule="evenodd"/>
  </g>
</svg>
