<svg xmlns="http://www.w3.org/2000/svg" width="30" height="30" viewBox="0 0 30 30">
  <g id="Group_20117" data-name="Group 20117" transform="translate(-1324 4924)">
    <g id="Group_20116" data-name="Group 20116" transform="translate(1322 -4923)">
      <path id="Path_20845" data-name="Path 20845" d="M27.75,12.375a2.618,2.618,0,0,0-.67-1.757,1.812,1.812,0,0,1-.459-1.206,1.966,1.966,0,0,1,.038-.373,2.761,2.761,0,0,0,.058-.532A2.641,2.641,0,0,0,24.9,6a1.78,1.78,0,0,1-1.15-1.15,2.609,2.609,0,0,0-.433-.808,2.66,2.66,0,0,0-2.074-1.009,2.793,2.793,0,0,0-.536.058,1.825,1.825,0,0,1-1.572-.42,2.643,2.643,0,0,0-3.5-.02.46.46,0,0,0-.045.035,1.763,1.763,0,0,1-1.555.405,2.774,2.774,0,0,0-.531-.057,2.659,2.659,0,0,0-2.073,1.008A2.607,2.607,0,0,0,11,4.851,1.781,1.781,0,0,1,9.849,6,2.64,2.64,0,0,0,8.034,8.507a2.77,2.77,0,0,0,.057.531,1.956,1.956,0,0,1,.038.374,1.811,1.811,0,0,1-.457,1.2,2.641,2.641,0,0,0,0,3.517,1.812,1.812,0,0,1,.459,1.206,1.966,1.966,0,0,1-.038.373,2.761,2.761,0,0,0-.058.532A2.641,2.641,0,0,0,9.852,18.75a1.715,1.715,0,0,1,.444.229l-2.41,4.634a.415.415,0,0,0,.337.605l2.977.223,1.892,2.307a.415.415,0,0,0,.321.152l.043,0a.414.414,0,0,0,.325-.221l2.237-4.3a2.645,2.645,0,0,0,2.715,0l2.238,4.3a.414.414,0,0,0,.325.221l.043,0a.415.415,0,0,0,.321-.152l1.892-2.307,2.977-.223a.415.415,0,0,0,.337-.605l-2.412-4.637a1.809,1.809,0,0,1,.449-.226,2.64,2.64,0,0,0,1.815-2.506,2.77,2.77,0,0,0-.057-.531,1.956,1.956,0,0,1-.038-.374,1.813,1.813,0,0,1,.459-1.206A2.62,2.62,0,0,0,27.75,12.375ZM11.165,23.606l-2.253-.169,1.976-3.8.012.021a1.827,1.827,0,0,1,.1.241,2.639,2.639,0,0,0,1.3,1.516Zm2.169,2.129L11.9,23.989l1.2-2.305a2.518,2.518,0,0,0,.938-.024,1.96,1.96,0,0,1,.366-.037c.04,0,.077.007.116.009a1.8,1.8,0,0,1,.73.2c.029.015.059.026.087.042h0Zm8.082,0L19.41,21.879a1.877,1.877,0,0,1,.286-.139,1.806,1.806,0,0,1,.544-.109c.035,0,.069-.009.105-.008a1.962,1.962,0,0,1,.323.033c.015,0,.028,0,.043,0l.018,0c.11.021.212.034.309.043.037,0,.073,0,.109.006s.065.005.095.005c.015,0,.029,0,.044,0a2.265,2.265,0,0,0,.356-.028h.007l1.2,2.305Zm4.422-2.3-2.253.169L22.45,21.423c.029-.015.055-.035.083-.051s.082-.049.122-.075c.058-.037.117-.073.173-.115a2.641,2.641,0,0,0,.243-.206c.036-.034.067-.072.1-.109.053-.057.106-.116.154-.178.029-.038.056-.077.083-.116.048-.07.093-.142.134-.216.019-.035.04-.069.057-.1a2.645,2.645,0,0,0,.149-.352l0-.009a1.807,1.807,0,0,1,.113-.245Zm.625-9.859,0,0a2.64,2.64,0,0,0-.669,1.757,2.823,2.823,0,0,0,.053.532,1.963,1.963,0,0,1,.042.373,1.811,1.811,0,0,1-1.245,1.718,2.631,2.631,0,0,0-1.176.792c-.016.019-.033.036-.049.055-.045.056-.085.114-.126.174-.02.029-.041.056-.06.085-.043.068-.081.14-.117.213-.011.021-.024.041-.034.063a2.594,2.594,0,0,0-.119.3,1.839,1.839,0,0,1-.1.24c-.013.026-.028.052-.042.077q-.04.072-.087.139c-.021.03-.042.06-.064.089s-.056.066-.085.1a1.811,1.811,0,0,1-.411.339l-.026.016a1.825,1.825,0,0,1-.183.092l-.014.006a1.84,1.84,0,0,1-.2.073c-.022.007-.043.011-.064.017-.05.012-.1.028-.149.036h-.007a1.814,1.814,0,0,1-.257.021h-.085l-.081,0c-.072-.007-.148-.017-.233-.033a2.888,2.888,0,0,0-.321-.044c-.044,0-.086,0-.13,0-.06,0-.121-.006-.181,0-.084,0-.167.012-.249.022l-.051,0a2.557,2.557,0,0,0-.836.278l0,0a2.641,2.641,0,0,0-.232.142l-.024.015c-.069.048-.135.1-.2.155-.012.01-.025.018-.036.028l0,0-.025.02a1.812,1.812,0,0,1-2.407,0l-.022-.018-.012-.01c-.041-.035-.084-.065-.127-.1s-.071-.058-.108-.084-.062-.037-.092-.057c-.054-.034-.107-.069-.163-.1l-.041-.019a2.624,2.624,0,0,0-1.726-.233A1.6,1.6,0,0,1,13,20.808a1.808,1.808,0,0,1-1.208-1.167,2.571,2.571,0,0,0-.676-1.071l0,0,0,0h0a2.539,2.539,0,0,0-.993-.6,1.811,1.811,0,0,1-1.247-1.719,1.956,1.956,0,0,1,.043-.374,2.834,2.834,0,0,0,.053-.531,2.642,2.642,0,0,0-.671-1.76,1.811,1.811,0,0,1,0-2.409,2.64,2.64,0,0,0,.669-1.757,2.824,2.824,0,0,0-.053-.532,1.963,1.963,0,0,1-.042-.373,1.811,1.811,0,0,1,1.245-1.718,2.637,2.637,0,0,0,1.681-1.68,1.775,1.775,0,0,1,.3-.553,1.823,1.823,0,0,1,1.421-.692,1.982,1.982,0,0,1,.373.042,2.6,2.6,0,0,0,2.242-.58.434.434,0,0,0,.049-.038,1.812,1.812,0,0,1,2.409,0,2.656,2.656,0,0,0,2.289.616,1.989,1.989,0,0,1,.373-.042,1.824,1.824,0,0,1,1.422.693,1.779,1.779,0,0,1,.3.552,2.637,2.637,0,0,0,1.679,1.68,1.811,1.811,0,0,1,1.247,1.718,1.956,1.956,0,0,1-.043.374,2.834,2.834,0,0,0-.053.531,2.642,2.642,0,0,0,.671,1.76,1.811,1.811,0,0,1,0,2.407Z" transform="translate(0)" fill="#0f53ad" stroke="#41c1f1" stroke-width="0.3"/>
      <path id="Path_20846" data-name="Path 20846" d="M29.381,18.16,27,17.695l-1.178-2.119a.776.776,0,0,0-1.357,0l-1.178,2.119-2.38.465a.777.777,0,0,0-.419,1.291l1.651,1.775-.293,2.408a.777.777,0,0,0,1.1.8l2.2-1.022,2.2,1.022a.776.776,0,0,0,1.1-.8l-.293-2.407L29.8,19.451a.776.776,0,0,0-.419-1.291Zm-1.857,2.519a.775.775,0,0,0-.2.623l.284,2.336-2.134-.992a.776.776,0,0,0-.655,0l-2.134.992.284-2.336a.774.774,0,0,0-.2-.623l-1.6-1.723,2.31-.452A.774.774,0,0,0,24,18.119l1.143-2.057,1.143,2.057a.775.775,0,0,0,.529.385l2.31.452Z" transform="translate(-7.769 -7.708)" fill="#0f53ad" stroke="#41c1f1" stroke-width="0.3"/>
      <path id="Path_20847" data-name="Path 20847" d="M21.5,8.588a7.446,7.446,0,1,0,7.446,7.446A7.446,7.446,0,0,0,21.5,8.588Zm0,14.061a6.616,6.616,0,1,1,6.616-6.616A6.616,6.616,0,0,1,21.5,22.65Z" transform="translate(-4.129 -3.854)" fill="#0f53ad" stroke="#41c1f1" stroke-width="0.3"/>
    </g>
    <g id="Rectangle_9237" data-name="Rectangle 9237" transform="translate(1324 -4924)" fill="none" stroke="#707070" stroke-width="1" opacity="0">
      <rect width="30" height="30" stroke="none"/>
      <rect x="0.5" y="0.5" width="29" height="29" fill="none"/>
    </g>
  </g>
</svg>
