<svg xmlns="http://www.w3.org/2000/svg" width="29.979" height="21.317" viewBox="0 0 29.979 21.317">
  <g id="_2921795_banking_business_credit_card_e-commerce_payment_icon" data-name="2921795_banking_business_credit card_e-commerce_payment_icon" transform="translate(0.5 0.501)">
    <path id="Path_36" data-name="Path 36" d="M55.209,102.158,31.62,99.2a1.251,1.251,0,0,1-1.086-1.4L32.2,84.492a1.251,1.251,0,0,1,1.4-1.086L57.187,86.36a1.251,1.251,0,0,1,1.086,1.4l-1.667,13.316A1.251,1.251,0,0,1,55.209,102.158Z" transform="translate(-29.305 -83.396)" fill="#fff" stroke="#44c8f5" stroke-width="1"/>
    <path id="Path_37" data-name="Path 37" d="M34.967,173.983H11.194a1.251,1.251,0,0,1-1.251-1.251v-13.42a1.251,1.251,0,0,1,1.251-1.251H34.967a1.251,1.251,0,0,1,1.251,1.251v13.42A1.251,1.251,0,0,1,34.967,173.983Z" transform="translate(-9.935 -153.667)" fill="#fafafa" stroke="#44c8f5" stroke-width="1"/>
    <path id="Path_38" data-name="Path 38" d="M50.53,341.678a.589.589,0,0,0,0-1.177H43.478a.589.589,0,0,0,0,1.177Z" transform="translate(-40.961 -325.37)" fill="none" stroke="#039" stroke-width="1"/>
    <path id="Path_39" data-name="Path 39" d="M197.979,341.678h1.447a.589.589,0,0,0,0-1.177h-1.447a.589.589,0,0,0,0,1.177Z" transform="translate(-186.37 -325.37)" fill="#fff"/>
    <path id="Path_40" data-name="Path 40" d="M9.811,225.421c.874,0,26.147.037,26.231,0a.144.144,0,0,1,.044,0c.011,0,.011-1.471,0-1.471-.874,0-26.146-.037-26.231,0a.145.145,0,0,1-.044,0c-.011,0-.011,1.471,0,1.471Z" transform="translate(-9.803 -215.662)" fill="none" stroke="#039" stroke-width="1"/>
  </g>
</svg>
