<svg xmlns="http://www.w3.org/2000/svg" xmlns:xlink="http://www.w3.org/1999/xlink" width="120" height="46" viewBox="0 0 120 46">
  <defs>
    <clipPath id="clip-path">
      <rect id="Rectangle_10511" data-name="Rectangle 10511" width="120" height="46" transform="translate(56 267)" fill="#fff" stroke="#707070" stroke-width="1"/>
    </clipPath>
    <clipPath id="clip-path-2">
      <rect id="Rectangle_10510" data-name="Rectangle 10510" width="86.748" height="20.295" fill="#007c76"/>
    </clipPath>
  </defs>
  <g id="Mask_Group_22475" data-name="Mask Group 22475" transform="translate(-56 -267)" clip-path="url(#clip-path)">
    <g id="Group_23381" data-name="Group 23381" transform="translate(72.626 279.853)">
      <g id="Group_23380" data-name="Group 23380" clip-path="url(#clip-path-2)">
        <path id="Path_23155" data-name="Path 23155" d="M57.206,19.172h2.648a1.177,1.177,0,0,1,.045.621c-.236.075-8.06.09-8.384.022a1,1,0,0,1,0-.644h2.754c.007-.132.017-.23.017-.328q0-5.717,0-11.434a3.555,3.555,0,0,0-.157-1.1,1.928,1.928,0,0,0-1.779-1.4,4.339,4.339,0,0,0-3.265,1.3,6.278,6.278,0,0,0-1.8,2.978,1.452,1.452,0,0,0-.053.385q0,4.643,0,9.287c0,.089.009.178.016.3h2.606a1.267,1.267,0,0,1,.03.64c-.223.068-7.951.084-8.289.019a1.138,1.138,0,0,1-.009-.644c.88-.011,1.755,0,2.646-.007a1.771,1.771,0,0,0,.047-.2,1.846,1.846,0,0,0,0-.211q0-6.337,0-12.675V5.652H41.573v-.66c.116-.01.227-.027.338-.028q1.607,0,3.214,0a3.358,3.358,0,0,0,1.029-.138,1.581,1.581,0,0,0,.922-.686A1.323,1.323,0,0,1,47.195,4a5.112,5.112,0,0,1,.035.957c.008.312,0,.625,0,.938V7.774a.737.737,0,0,0,.078-.107,5.346,5.346,0,0,1,2.78-2.9A5.647,5.647,0,0,1,52.3,4.219a6.084,6.084,0,0,1,1.836.154,3.77,3.77,0,0,1,2.951,3.153c.034.174.067.348.106.547.192-.39.345-.759.546-1.1a5.247,5.247,0,0,1,3.816-2.664,5.651,5.651,0,0,1,3.185.346A3.832,3.832,0,0,1,66.9,6.879a4.272,4.272,0,0,1,.244,1.113c.055.611.073,1.227.074,1.841q.01,4.462,0,8.923v.4c.308.024.6.009.9.012s.6,0,.9,0h.9a.986.986,0,0,1,.028.626c-.245.081-8.187.085-8.462,0v-.621c.916-.018,1.818,0,2.737-.012.007-.123.016-.221.016-.319q0-5.505,0-11.011a3.864,3.864,0,0,0-.307-1.617A1.918,1.918,0,0,0,62.265,5.04,3.864,3.864,0,0,0,58.713,6.6,6.9,6.9,0,0,0,57.3,9.314a3.385,3.385,0,0,0-.091.776q-.01,4.356,0,8.712Zm22.553-7.994a20.682,20.682,0,0,0-2.764.246,14.064,14.064,0,0,0-3.655,1,4.829,4.829,0,0,0-2.578,2.609,3.253,3.253,0,0,0,.539,3.62,3.965,3.965,0,0,0,1.838,1.209,7.9,7.9,0,0,0,1.791.321,7.111,7.111,0,0,0,3.937-.727A4.625,4.625,0,0,0,80.62,17.96c.032-.047.072-.087.132-.158.044.142.079.254.113.366a2.573,2.573,0,0,0,1.613,1.769,4.347,4.347,0,0,0,2.337.2,1.986,1.986,0,0,0,1.374-.918,4.431,4.431,0,0,0,.557-1.353.32.32,0,0,0-.017-.1H86.16c-.048.143-.081.27-.131.388-.1.239-.2.479-.323.706a.724.724,0,0,1-.48.365.962.962,0,0,1-1.277-.818c-.012-.069-.036-.137-.041-.207-.062-.853-.163-1.706-.173-2.561-.026-2.269-.01-4.538-.018-6.807a11.248,11.248,0,0,0-.055-1.176A2.844,2.844,0,0,0,82.63,5.668a6.087,6.087,0,0,0-2.06-1.074,11,11,0,0,0-4.522-.425A5.955,5.955,0,0,0,72.5,5.838a3.263,3.263,0,0,0-1.077,2.6,1.933,1.933,0,0,0,.354,1.067,1.474,1.474,0,0,0,1.618.607,1.42,1.42,0,0,0,1.1-1.151,1.692,1.692,0,0,0-.54-1.74c-.129-.121-.265-.236-.381-.37a.583.583,0,0,1-.121-.561,1.331,1.331,0,0,1,.5-.722,3.445,3.445,0,0,1,1.48-.652,9.144,9.144,0,0,1,2.821-.108,4.033,4.033,0,0,1,1.316.332,1.552,1.552,0,0,1,.95,1.24,9,9,0,0,1,.111,1.17c.015,1.069.005,2.138.005,3.207v.364c-.318.022-.6.055-.873.057m.873.99c0,1.42,0,2.84,0,4.261a1.2,1.2,0,0,1-.153.6,4.063,4.063,0,0,1-1.737,1.677,4.974,4.974,0,0,1-3.429.465,2.005,2.005,0,0,1-1.609-1.547,6.66,6.66,0,0,1-.189-2.541,6.4,6.4,0,0,1,.176-.945,2.249,2.249,0,0,1,1.176-1.456,6.183,6.183,0,0,1,1.7-.563,13.265,13.265,0,0,1,2.179-.255c.52-.014,1.04-.034,1.559-.05.094,0,.189,0,.321,0Zm-39.005-.934a7.212,7.212,0,0,0-1.1-3.182,9.181,9.181,0,0,0-3.147-3.02,6.188,6.188,0,0,0-3.089-.9,5.766,5.766,0,0,0-2.052.314,9.007,9.007,0,0,0-5.5,5.226,6.608,6.608,0,0,0-.16,4.745,8.865,8.865,0,0,0,1.882,3.229,7.26,7.26,0,0,0,6.5,2.577,6.359,6.359,0,0,0,2.333-.764,8.5,8.5,0,0,0,2.287-1.879A8.087,8.087,0,0,0,41.7,12.137c-.023-.3-.042-.6-.071-.9M38.354,15.29a8.459,8.459,0,0,1-.23,1.912,2.781,2.781,0,0,1-1.845,2.107,6.388,6.388,0,0,1-2.994.306,7.691,7.691,0,0,1-1.573-.379,2.706,2.706,0,0,1-1.681-1.632,5.352,5.352,0,0,1-.4-1.754c-.036-.683-.051-1.368-.054-2.053q-.012-2.177,0-4.354A7.4,7.4,0,0,1,29.8,7.652a3.424,3.424,0,0,1,2.62-2.683,6.7,6.7,0,0,1,3.378.016,3.611,3.611,0,0,1,1.2.584,2.992,2.992,0,0,1,1.3,2.438c.04,1.379.059,2.759.088,4.138h-.027c0,1.048,0,2.1,0,3.144M17.165,19.17h-.885c-.29,0-.579-.006-.869,0a4.745,4.745,0,0,0-.9.032v.6c.284.082,8.453.076,8.7-.008a1.067,1.067,0,0,0-.041-.622h-1.5c-.261,0-.521.006-.782,0a3,3,0,0,1-.754-.034v-.377c0-2.016,0-4.032,0-6.049,0-.584.03-1.168.058-1.751.011-.241.052-.48.082-.719A9.689,9.689,0,0,1,20.948,7.9a4.747,4.747,0,0,1,.429-.819,4.173,4.173,0,0,1,2.418-1.806c.22-.064.441-.122.661-.183a.282.282,0,0,1-.09.169,1.791,1.791,0,0,0-.555,1.462,1.53,1.53,0,0,0,1.428,1.505,1.438,1.438,0,0,0,1.55-1.2,2.111,2.111,0,0,0-1.522-2.612,3.441,3.441,0,0,0-2.632.369A4.977,4.977,0,0,0,20.6,7.152c-.173.38-.3.781-.472,1.223V4a2.126,2.126,0,0,0-.155.157,1.956,1.956,0,0,1-.761.587,2.678,2.678,0,0,1-1.128.221q-1.607,0-3.214,0c-.112,0-.225.013-.344.021a1.224,1.224,0,0,0,.018.664h2.642c.056.5.037,13.271-.022,13.52m-4.242-3.419a5.407,5.407,0,0,1-2.493,3.275,5.311,5.311,0,0,1-2.035.642,6.321,6.321,0,0,1-2.412-.137A3.072,3.072,0,0,1,3.6,17.018a9.367,9.367,0,0,1-.2-1.828c-.018-2.005-.078-4.012.046-6.016a13.887,13.887,0,0,1,.187-1.526,2.923,2.923,0,0,1,1.6-2.2,4.21,4.21,0,0,1,.893-.342,8.6,8.6,0,0,1,3.5-.024,2.754,2.754,0,0,1,.688.218.562.562,0,0,1,.2.951,3.494,3.494,0,0,0-.5.841,1.807,1.807,0,0,0,.216,1.828,1.477,1.477,0,0,0,1.984.478A1.639,1.639,0,0,0,13,8.287a2.6,2.6,0,0,0-.421-2.036,3.879,3.879,0,0,0-1.41-1.228,5.874,5.874,0,0,0-2.233-.685,7.734,7.734,0,0,0-2.5.106A8.483,8.483,0,0,0,1.48,7.887,8.694,8.694,0,0,0,.373,10.2a5.994,5.994,0,0,0-.309,2.97A8.268,8.268,0,0,0,1.481,16.8a9.765,9.765,0,0,0,2.372,2.286,6.234,6.234,0,0,0,2.33,1.027,8.579,8.579,0,0,0,2.216.167,4.959,4.959,0,0,0,2.555-.777,6.108,6.108,0,0,0,2.688-4.126c.044-.224.071-.451.106-.679a.83.83,0,0,0-.548-.027c-.1.376-.172.73-.277,1.075M72.25.063v1.58c.263.085,10.927.083,11.177,0V.062C83.164-.023,72.5-.021,72.25.063" transform="translate(0 0)" fill="#007771"/>
      </g>
    </g>
  </g>
</svg>
