<svg xmlns="http://www.w3.org/2000/svg" width="30.5" height="30.5" viewBox="0 0 30.5 30.5">
  <g id="Group_11586" data-name="Group 11586" transform="translate(-37.397 -619.678)">
    <path id="Path_954" data-name="Path 954" d="M25.277,12.659a5.18,5.18,0,0,0-3.393,1.264l-2.216-1.859A5.221,5.221,0,1,0,11.7,13.118L8.052,16.383a5.168,5.168,0,0,0-2.83-.84A5.257,5.257,0,1,0,10.445,20.8a5.258,5.258,0,0,0-1.674-3.853l3.649-3.265a5.189,5.189,0,0,0,6.707-.9l2.127,1.784a5.214,5.214,0,1,0,4.023-1.908ZM9.55,20.8a4.327,4.327,0,1,1-4.327-4.355A4.346,4.346,0,0,1,9.55,20.8Zm5.7-7.179a4.355,4.355,0,1,1,4.327-4.355A4.346,4.346,0,0,1,15.25,13.62Zm10.027,8.651a4.359,4.359,0,0,1-3.188-7.3.445.445,0,0,0,.189-.134.452.452,0,0,0,.076-.133,4.3,4.3,0,0,1,2.923-1.147,4.355,4.355,0,0,1,0,8.711Z" transform="translate(37.397 615.67)" fill="#44c8f5"/>
    <path id="Path_956" data-name="Path 956" d="M92.567,396.775H88.633a.461.461,0,0,0-.461.461v5.9a.461.461,0,0,0,.461.461h3.934a.461.461,0,0,0,.461-.461v-5.9A.461.461,0,0,0,92.567,396.775Zm-.461,5.9H89.094V397.7h3.012Z" transform="translate(-45.551 246.487)" fill="#44c8f5"/>
    <path id="Path_957" data-name="Path 957" d="M405.178,396.775h-3.934a.461.461,0,0,0-.461.461v5.9a.461.461,0,0,0,.461.461h3.934a.461.461,0,0,0,.461-.461v-5.9A.461.461,0,0,0,405.178,396.775Zm-.461,5.9h-3.012V397.7h3.012Z" transform="translate(-339.71 246.58)" fill="#44c8f5"/>
    <path id="Path_958" data-name="Path 958" d="M196.77,300.587h-3.934a.461.461,0,0,0-.461.461v11.8a.461.461,0,0,0,.461.461h3.934a.461.461,0,0,0,.461-.461v-2.735a.461.461,0,0,0-.922,0v2.274H193.3v-10.88h3.012v9.119a.461.461,0,0,0,.922,0v-9.58A.461.461,0,0,0,196.77,300.587Z" transform="translate(-143.58 336.774)" fill="#44c8f5"/>
    <path id="Path_959" data-name="Path 959" d="M300.974,348.681H297.04a.461.461,0,0,0-.461.461v8.852a.461.461,0,0,0,.461.461h3.934a.461.461,0,0,0,.461-.461v-8.852A.461.461,0,0,0,300.974,348.681Zm-.461,8.852H297.5V349.6h3.012Z" transform="translate(-241.612 291.63)" fill="#44c8f5"/>
    <path id="Path_15271" data-name="Path 15271" d="M61.515,225.4V224.9a.461.461,0,1,0-.922,0v.527a1.58,1.58,0,0,0,.3,3.13h.32a.658.658,0,1,1,0,1.315h-.479a.5.5,0,0,1-.5-.5.461.461,0,0,0-.922,0,1.422,1.422,0,0,0,1.279,1.413v.505a.461.461,0,1,0,.922,0v-.527a1.58,1.58,0,0,0-.3-3.13h-.32a.658.658,0,0,1,0-1.315h.479a.5.5,0,0,1,.5.5v.32a.461.461,0,1,0,.922,0v-.32A1.422,1.422,0,0,0,61.515,225.4Z" transform="translate(-18.278 408.471)" fill="#039"/>
    <path id="Path_15270" data-name="Path 15270" d="M229.844,33.028v-.5a.461.461,0,1,0-.922,0v.527a1.58,1.58,0,0,0,.3,3.13h.32a.658.658,0,0,1,0,1.315h-.479a.5.5,0,0,1-.5-.5.461.461,0,1,0-.922,0,1.422,1.422,0,0,0,1.279,1.413v.5a.461.461,0,1,0,.922,0v-.527a1.58,1.58,0,0,0-.3-3.13h-.32a.658.658,0,1,1,0-1.315h.479a.5.5,0,0,1,.5.5v.32a.461.461,0,1,0,.922,0v-.32A1.422,1.422,0,0,0,229.844,33.028Z" transform="translate(-176.736 589.337)" fill="#039"/>
    <path id="Path_15269" data-name="Path 15269" d="M398.171,177.31v-.5a.461.461,0,1,0-.922,0v.527a1.58,1.58,0,0,0,.3,3.13h.32a.658.658,0,0,1,0,1.315h-.48a.5.5,0,0,1-.5-.5.461.461,0,1,0-.922,0,1.422,1.422,0,0,0,1.279,1.413v.5a.461.461,0,0,0,.922,0v-.527a1.58,1.58,0,0,0-.3-3.13h-.32a.658.658,0,0,1,0-1.315h.479a.5.5,0,0,1,.5.5v.32a.461.461,0,0,0,.922,0v-.32A1.422,1.422,0,0,0,398.171,177.31Z" transform="translate(-335.192 453.678)" fill="#039"/>
  </g>
</svg>
