<svg id="Group_21931" data-name="Group 21931" xmlns="http://www.w3.org/2000/svg" width="18.776" height="28.11" viewBox="0 0 18.776 28.11">
  <g id="Group_21896" data-name="Group 21896">
    <path id="Path_21089" data-name="Path 21089" d="M0,13.727v0Z" transform="translate(1.235 4.171)" fill="none" stroke="#44c8f5" stroke-width="1"/>
    <rect id="Rectangle_9521" data-name="Rectangle 9521" width="14.384" height="2.196" rx="1.098" transform="translate(2.196 0.412)" fill="none"/>
    <rect id="Rectangle_9522" data-name="Rectangle 9522" width="2.471" height="3.569" transform="translate(12.271 2.608)" fill="none"/>
    <rect id="Rectangle_9523" data-name="Rectangle 9523" width="2.471" height="3.569" transform="translate(4.035 2.608)" fill="none"/>
    <circle id="Ellipse_1388" data-name="Ellipse 1388" cx="3.354" cy="3.354" r="3.354" transform="translate(6.034 12.76)" fill="none" stroke="#707070" stroke-width="1"/>
    <path id="Path_21086" data-name="Path 21086" d="M239.253,270.235a1.033,1.033,0,1,1-2.066,0c0-.559,1.033-1.734,1.033-1.734S239.253,269.677,239.253,270.235Z" transform="translate(-228.832 -253.761)" fill="none"/>
    <rect id="Rectangle_9524" data-name="Rectangle 9524" width="17.953" height="1.647" rx="0.824" transform="translate(0.412 9.525)" fill="none"/>
    <rect id="Rectangle_9525" data-name="Rectangle 9525" width="17.953" height="1.647" rx="0.824" transform="translate(0.412 21.055)" fill="none"/>
    <path id="Path_21088" data-name="Path 21088" d="M102.953,20.714v-9.2a1.235,1.235,0,0,0,0-2.329V8.921a3.161,3.161,0,0,0-2.8-3.136V3.019h.329a1.51,1.51,0,0,0,0-3.02H88.294a1.51,1.51,0,0,0,0,3.02h.329V5.785a3.161,3.161,0,0,0-2.8,3.136v.263a1.235,1.235,0,0,0,0,2.329v9.2a1.235,1.235,0,0,0,0,2.329v.263a3.162,3.162,0,0,0,2.2,3.007v.562a1.237,1.237,0,0,0,1.235,1.235H99.521a1.237,1.237,0,0,0,1.235-1.235v-.562a3.162,3.162,0,0,0,2.2-3.007v-.263a1.235,1.235,0,0,0,0-2.329ZM88.294,2.2a.686.686,0,0,1,0-1.373h12.188a.686.686,0,0,1,0,1.373Zm11.035.824V5.765H97.682V3.019Zm-3.816.988H93.263a.412.412,0,0,0,0,.824h.714v.933H91.918V3.019h4.941V5.765H94.8V4.831h.714a.412.412,0,1,0,0-.824Zm-4.42-.988V5.765H89.447V3.019Zm-4.447,5.9A2.336,2.336,0,0,1,88.98,6.588H99.8a2.336,2.336,0,0,1,2.333,2.333v.192H86.647Zm-.412,1.016h16.306a.412.412,0,0,1,0,.824H86.235a.412.412,0,1,1,0-.824Zm15.894,1.647v9.059H86.647V11.584Zm-2.2,15.29a.412.412,0,0,1-.412.412H89.255a.412.412,0,0,1-.412-.412v-.415c.046,0,.091,0,.137,0H99.8c.046,0,.092,0,.137,0Zm2.2-3.569A2.336,2.336,0,0,1,99.8,25.639H88.98a2.336,2.336,0,0,1-2.333-2.333v-.192h15.482Zm.412-1.016H86.235a.412.412,0,1,1,0-.824h16.306a.412.412,0,0,1,0,.824Zm-8.153-2.411a3.765,3.765,0,1,0-3.765-3.765,3.765,3.765,0,0,0,3.765,3.765Zm0-6.707a2.942,2.942,0,1,1-2.942,2.942,2.942,2.942,0,0,1,2.942-2.942Zm0,4.726a1.436,1.436,0,0,0,1.444-1.423A4.393,4.393,0,0,0,94.7,14.469a.412.412,0,0,0-.619,0,4.393,4.393,0,0,0-1.135,2.005A1.435,1.435,0,0,0,94.388,17.9Zm0-2.508a3.025,3.025,0,0,1,.62,1.085.621.621,0,0,1-1.242,0,3.044,3.044,0,0,1,.621-1.085Z" transform="translate(-85 0)" fill="#44c8f5"/>
  </g>
  <g id="Group_21901" data-name="Group 21901" transform="translate(0.412 0.412)">
    <rect id="Rectangle_9521-2" data-name="Rectangle 9521" width="14.384" height="2.196" rx="1.098" transform="translate(1.784)" fill="none"/>
    <rect id="Rectangle_9522-2" data-name="Rectangle 9522" width="2.471" height="3.569" transform="translate(11.859 2.196)" fill="none"/>
    <rect id="Rectangle_9523-2" data-name="Rectangle 9523" width="2.471" height="3.569" transform="translate(3.624 2.196)" fill="none"/>
    <path id="Path_21114" data-name="Path 21114" d="M3.354,0A3.354,3.354,0,1,1,0,3.354,3.354,3.354,0,0,1,3.354,0Z" transform="translate(5.623 12.348)" fill="none" stroke="#039" stroke-width="1"/>
    <path id="Path_21086-2" data-name="Path 21086" d="M239.253,270.235a1.033,1.033,0,1,1-2.066,0c0-.559,1.033-1.734,1.033-1.734S239.253,269.677,239.253,270.235Z" transform="translate(-229.243 -254.172)" fill="none"/>
    <rect id="Rectangle_9524-2" data-name="Rectangle 9524" width="17.953" height="1.647" rx="0.824" transform="translate(0 9.114)" fill="none"/>
    <rect id="Rectangle_9525-2" data-name="Rectangle 9525" width="17.953" height="1.647" rx="0.824" transform="translate(0 20.643)" fill="none"/>
    <path id="Path_21088-2" data-name="Path 21088" d="M96.343,21.423A1.435,1.435,0,0,0,97.787,20a4.393,4.393,0,0,0-1.135-2.005.412.412,0,0,0-.619,0A4.393,4.393,0,0,0,94.9,20a1.435,1.435,0,0,0,1.444,1.423Zm0-2.508A3.025,3.025,0,0,1,96.963,20a.621.621,0,0,1-1.242,0,3.044,3.044,0,0,1,.621-1.085Z" transform="translate(-87.366 -3.937)" fill="#039"/>
  </g>
</svg>
