<svg id="Component_103_1" data-name="Component 103 – 1" xmlns="http://www.w3.org/2000/svg" width="16.976" height="16.976" viewBox="0 0 16.976 16.976">
    <defs>
        <style>
            .cls-1{fill:#dedfe4}
        </style>
    </defs>
    <path id="Path_15004" data-name="Path 15004" class="cls-1" d="M782.455 1079.78h7.78a1.42 1.42 0 0 0 1.415-1.415v-4.951a1.42 1.42 0 0 0-1.415-1.415h-7.78a1.42 1.42 0 0 0-1.415 1.415v4.951a1.42 1.42 0 0 0 1.415 1.415zm0-6.366h7.78v4.951h-7.78z" transform="translate(-781.04 -1072)"/>
    <path id="Path_15005" data-name="Path 15005" class="cls-1" d="M801.576 1072h-2.122a1.42 1.42 0 0 0-1.415 1.415v4.951a1.42 1.42 0 0 0 1.415 1.415h2.122a1.42 1.42 0 0 0 1.415-1.415v-4.951a1.42 1.42 0 0 0-1.415-1.415zm0 6.366h-2.122v-4.951h2.122z" transform="translate(-786.016 -1072)"/>
    <path id="Path_15006" data-name="Path 15006" class="cls-1" d="M784.576 1085h-2.122a1.42 1.42 0 0 0-1.415 1.415v4.951a1.42 1.42 0 0 0 1.415 1.415h2.122a1.42 1.42 0 0 0 1.415-1.415v-4.951a1.42 1.42 0 0 0-1.415-1.415zm0 6.366h-2.122v-4.951h2.122z" transform="translate(-781.04 -1075.805)"/>
    <path id="Path_15007" data-name="Path 15007" class="cls-1" d="M799.235 1085h-7.78a1.42 1.42 0 0 0-1.415 1.415v4.951a1.42 1.42 0 0 0 1.415 1.415h7.78a1.42 1.42 0 0 0 1.415-1.415v-4.951a1.42 1.42 0 0 0-1.415-1.415zm0 6.366h-7.78v-4.951h7.78z" transform="translate(-783.675 -1075.805)"/>
</svg>
