<svg xmlns="http://www.w3.org/2000/svg" width="13" height="16" viewBox="0 0 13 16">
  <path id="Union_8" data-name="Union 8" d="M4.551,16a3.213,3.213,0,0,1-2.3-.98A3.372,3.372,0,0,1,1.3,12.667V4H.648a.662.662,0,0,1-.461-.194.689.689,0,0,1,0-.945.677.677,0,0,1,.461-.194H2.664A3.3,3.3,0,0,1,3.8.754,3.18,3.18,0,0,1,5.848,0h1.3A3.182,3.182,0,0,1,9.2.754a3.324,3.324,0,0,1,1.133,1.912h2.012a.686.686,0,0,1,.465.194.689.689,0,0,1,0,.945A.672.672,0,0,1,12.348,4H11.7v8.667a3.358,3.358,0,0,1-.953,2.354,3.2,3.2,0,0,1-2.3.98ZM2.6,12.667a2,2,0,0,0,.574,1.415,1.927,1.927,0,0,0,1.379.585h3.9a1.947,1.947,0,0,0,1.379-.585,2.029,2.029,0,0,0,.57-1.415V4H2.6ZM4.727,1.7a2.066,2.066,0,0,0-.719.967h4.98A2.033,2.033,0,0,0,8.273,1.7a1.92,1.92,0,0,0-1.125-.366h-1.3A1.908,1.908,0,0,0,4.727,1.7ZM7.34,11.806a.643.643,0,0,1-.191-.473v-4a.648.648,0,0,1,.191-.473A.669.669,0,0,1,7.8,6.667a.677.677,0,0,1,.461.194.694.694,0,0,1,.188.473v4a.689.689,0,0,1-.187.473A.662.662,0,0,1,7.8,12,.655.655,0,0,1,7.34,11.806Zm-2.6,0a.655.655,0,0,1-.187-.473v-4a.66.66,0,0,1,.188-.473A.669.669,0,0,1,5.2,6.667a.677.677,0,0,1,.461.194.694.694,0,0,1,.188.473v4a.689.689,0,0,1-.187.473A.662.662,0,0,1,5.2,12,.655.655,0,0,1,4.738,11.806Z" fill="#039"/>
</svg>
