<svg xmlns="http://www.w3.org/2000/svg" width="23.579" height="26.635" viewBox="0 0 23.579 26.635">
    <defs>
        <style>
            .cls-1{fill:#00307f}.cls-2{fill:#d1eefc}.cls-3{fill:#2dbff3}
        </style>
    </defs>
    <g id="Group_14875" data-name="Group 14875" transform="translate(1558.939 -3164.141)">
        <g id="Group_14914" data-name="Group 14914" transform="translate(-1558.939 3164.141)">
            <g id="Group_14875-2" data-name="Group 14875" transform="translate(11.313 3)">
                <path id="Path_18935" data-name="Path 18935" class="cls-1" d="M-1546.1 3188.459a.41.41 0 0 1-.41-.41v-20.2a.41.41 0 0 1 .41-.41.411.411 0 0 1 .411.41v20.2a.411.411 0 0 1-.411.41z" transform="translate(1546.513 -3167.436)"/>
            </g>
            <g id="Group_14876" data-name="Group 14876" transform="translate(2.564 8.051)">
                <path id="Path_18936" data-name="Path 18936" class="cls-1" d="M-1538.216 3183.905a.409.409 0 0 1-.2-.055l-17.5-10.1a.409.409 0 0 1-.15-.559.41.41 0 0 1 .56-.15l17.5 10.1a.408.408 0 0 1 .15.559.409.409 0 0 1-.36.205z" transform="translate(1556.122 -3172.984)"/>
            </g>
            <g id="Group_14877" data-name="Group 14877" transform="translate(2.564 8.051)">
                <path id="Path_18937" data-name="Path 18937" class="cls-1" d="M-1555.712 3183.905a.412.412 0 0 1-.356-.205.409.409 0 0 1 .15-.559l17.5-10.1a.41.41 0 0 1 .56.15.408.408 0 0 1-.15.559l-17.5 10.1a.405.405 0 0 1-.204.055z" transform="translate(1556.122 -3172.984)"/>
            </g>
            <g id="Group_14883" data-name="Group 14883" transform="translate(17.637 15.528)">
                <g id="Group_14879" data-name="Group 14879" transform="translate(.409 .41)">
                    <g id="Group_14878" data-name="Group 14878">
                        <circle id="Ellipse_1147" data-name="Ellipse 1147" class="cls-2" cx="2.561" cy="2.561" r="2.561"/>
                    </g>
                </g>
                <g id="Group_14880" data-name="Group 14880" transform="translate(.76 1.497)">
                    <ellipse id="Ellipse_1148" data-name="Ellipse 1148" class="cls-3" cx="2.211" cy="2.018" rx="2.211" ry="2.018"/>
                </g>
                <g id="Group_14882" data-name="Group 14882">
                    <g id="Group_14881" data-name="Group 14881">
                        <path id="Path_18938" data-name="Path 18938" class="cls-1" d="M-1536.6 3187.141a2.975 2.975 0 0 1-2.971-2.972 2.974 2.974 0 0 1 2.971-2.971 2.974 2.974 0 0 1 2.972 2.971 2.975 2.975 0 0 1-2.972 2.972zm0-5.123a2.153 2.153 0 0 0-2.151 2.151 2.153 2.153 0 0 0 2.151 2.151 2.154 2.154 0 0 0 2.152-2.151 2.154 2.154 0 0 0-2.152-2.15z" transform="translate(1539.566 -3181.198)"/>
                    </g>
                </g>
            </g>
            <g id="Group_14889" data-name="Group 14889" transform="translate(.081 15.48)">
                <g id="Group_14885" data-name="Group 14885" transform="translate(.41 .41)">
                    <g id="Group_14884" data-name="Group 14884">
                        <circle id="Ellipse_1149" data-name="Ellipse 1149" class="cls-2" cx="2.561" cy="2.561" r="2.561"/>
                    </g>
                </g>
                <g id="Group_14886" data-name="Group 14886" transform="translate(.76 1.497)">
                    <ellipse id="Ellipse_1150" data-name="Ellipse 1150" class="cls-3" cx="2.211" cy="2.018" rx="2.211" ry="2.018"/>
                </g>
                <g id="Group_14888" data-name="Group 14888">
                    <g id="Group_14887" data-name="Group 14887">
                        <path id="Path_18939" data-name="Path 18939" class="cls-1" d="M-1555.879 3187.088a2.975 2.975 0 0 1-2.971-2.972 2.975 2.975 0 0 1 2.971-2.971 2.974 2.974 0 0 1 2.971 2.971 2.974 2.974 0 0 1-2.971 2.972zm0-5.124a2.154 2.154 0 0 0-2.152 2.152 2.153 2.153 0 0 0 2.152 2.151 2.153 2.153 0 0 0 2.151-2.151 2.154 2.154 0 0 0-2.151-2.152z" transform="translate(1558.85 -3181.145)"/>
                    </g>
                </g>
            </g>
            <g id="Group_14895" data-name="Group 14895" transform="translate(17.637 5.489)">
                <g id="Group_14891" data-name="Group 14891" transform="translate(.409 .409)">
                    <g id="Group_14890" data-name="Group 14890">
                        <circle id="Ellipse_1151" data-name="Ellipse 1151" class="cls-2" cx="2.561" cy="2.561" r="2.561"/>
                    </g>
                </g>
                <g id="Group_14892" data-name="Group 14892" transform="translate(.76 1.497)">
                    <ellipse id="Ellipse_1152" data-name="Ellipse 1152" class="cls-3" cx="2.211" cy="2.018" rx="2.211" ry="2.018"/>
                </g>
                <g id="Group_14894" data-name="Group 14894">
                    <g id="Group_14893" data-name="Group 14893">
                        <path id="Path_18940" data-name="Path 18940" class="cls-1" d="M-1536.6 3176.113a2.974 2.974 0 0 1-2.971-2.97 2.975 2.975 0 0 1 2.971-2.972 2.975 2.975 0 0 1 2.972 2.972 2.974 2.974 0 0 1-2.972 2.97zm0-5.123a2.154 2.154 0 0 0-2.151 2.152 2.154 2.154 0 0 0 2.151 2.151 2.155 2.155 0 0 0 2.152-2.151 2.155 2.155 0 0 0-2.152-2.152z" transform="translate(1539.566 -3170.171)"/>
                    </g>
                </g>
            </g>
            <g id="Group_14901" data-name="Group 14901" transform="translate(0 4.868)">
                <g id="Group_14897" data-name="Group 14897" transform="translate(.409 .41)">
                    <g id="Group_14896" data-name="Group 14896">
                        <circle id="Ellipse_1153" data-name="Ellipse 1153" class="cls-2" cx="2.561" cy="2.561" r="2.561"/>
                    </g>
                </g>
                <g id="Group_14898" data-name="Group 14898" transform="translate(.76 1.497)">
                    <ellipse id="Ellipse_1154" data-name="Ellipse 1154" class="cls-3" cx="2.211" cy="2.018" rx="2.211" ry="2.018"/>
                </g>
                <g id="Group_14900" data-name="Group 14900">
                    <g id="Group_14899" data-name="Group 14899">
                        <path id="Path_18941" data-name="Path 18941" class="cls-1" d="M-1555.968 3175.431a2.975 2.975 0 0 1-2.971-2.972 2.974 2.974 0 0 1 2.971-2.971 2.974 2.974 0 0 1 2.972 2.971 2.975 2.975 0 0 1-2.972 2.972zm0-5.123a2.153 2.153 0 0 0-2.151 2.151 2.153 2.153 0 0 0 2.151 2.151 2.153 2.153 0 0 0 2.151-2.151 2.153 2.153 0 0 0-2.151-2.151z" transform="translate(1558.939 -3169.488)"/>
                    </g>
                </g>
            </g>
            <g id="Group_14907" data-name="Group 14907" transform="translate(8.809 20.693)">
                <g id="Group_14903" data-name="Group 14903" transform="translate(.41 .41)">
                    <g id="Group_14902" data-name="Group 14902">
                        <circle id="Ellipse_1155" data-name="Ellipse 1155" class="cls-2" cx="2.561" cy="2.561" r="2.561"/>
                    </g>
                </g>
                <g id="Group_14904" data-name="Group 14904" transform="translate(.761 1.497)">
                    <ellipse id="Ellipse_1156" data-name="Ellipse 1156" class="cls-3" cx="2.211" cy="2.018" rx="2.211" ry="2.018"/>
                </g>
                <g id="Group_14906" data-name="Group 14906">
                    <g id="Group_14905" data-name="Group 14905">
                        <path id="Path_18942" data-name="Path 18942" class="cls-1" d="M-1546.292 3192.813a2.974 2.974 0 0 1-2.972-2.97 2.975 2.975 0 0 1 2.972-2.971 2.975 2.975 0 0 1 2.972 2.971 2.974 2.974 0 0 1-2.972 2.97zm0-5.123a2.154 2.154 0 0 0-2.151 2.152 2.154 2.154 0 0 0 2.151 2.151 2.154 2.154 0 0 0 2.151-2.151 2.154 2.154 0 0 0-2.151-2.152z" transform="translate(1549.263 -3186.871)"/>
                    </g>
                </g>
            </g>
            <g id="Group_14913" data-name="Group 14913" transform="translate(8.752)">
                <g id="Group_14909" data-name="Group 14909" transform="translate(.41 .41)">
                    <g id="Group_14908" data-name="Group 14908">
                        <circle id="Ellipse_1157" data-name="Ellipse 1157" class="cls-2" cx="2.561" cy="2.561" r="2.561"/>
                    </g>
                </g>
                <g id="Group_14910" data-name="Group 14910" transform="translate(.76 1.497)">
                    <ellipse id="Ellipse_1158" data-name="Ellipse 1158" class="cls-3" cx="2.211" cy="2.018" rx="2.211" ry="2.018"/>
                </g>
                <g id="Group_14912" data-name="Group 14912">
                    <g id="Group_14911" data-name="Group 14911">
                        <path id="Path_18943" data-name="Path 18943" class="cls-1" d="M-1546.355 3170.083a2.974 2.974 0 0 1-2.971-2.971 2.974 2.974 0 0 1 2.971-2.97 2.974 2.974 0 0 1 2.972 2.97 2.974 2.974 0 0 1-2.972 2.971zm0-5.123a2.154 2.154 0 0 0-2.151 2.151 2.154 2.154 0 0 0 2.151 2.152 2.154 2.154 0 0 0 2.152-2.152 2.154 2.154 0 0 0-2.152-2.151z" transform="translate(1549.326 -3164.141)"/>
                    </g>
                </g>
            </g>
        </g>
        <g id="Group_14919" data-name="Group 14919" transform="translate(-1552.191 3172.007)">
            <g id="Group_14915" data-name="Group 14915" transform="translate(.41 2.034)">
                <circle id="Ellipse_1159" data-name="Ellipse 1159" class="cls-3" cx="4.565" cy="4.565" r="4.565"/>
            </g>
            <g id="Group_14916" data-name="Group 14916">
                <circle id="Ellipse_1160" data-name="Ellipse 1160" class="cls-2" cx="4.565" cy="4.565" r="4.565" transform="translate(.41 .41)"/>
                <path id="Path_18944" data-name="Path 18944" class="cls-1" d="M-1546.553 3182.731a4.98 4.98 0 0 1-4.974-4.974 4.98 4.98 0 0 1 4.974-4.975 4.98 4.98 0 0 1 4.975 4.975 4.98 4.98 0 0 1-4.975 4.974zm0-9.13a4.159 4.159 0 0 0-4.154 4.155 4.159 4.159 0 0 0 4.154 4.155 4.16 4.16 0 0 0 4.156-4.155 4.16 4.16 0 0 0-4.156-4.156z" transform="translate(1551.527 -3172.781)"/>
            </g>
            <g id="Group_14918" data-name="Group 14918" transform="translate(3.234 2.47)">
                <g id="Group_14917" data-name="Group 14917">
                    <path id="Path_18945" data-name="Path 18945" class="cls-1" d="M-1547.688 3176.017a.273.273 0 0 1-.218-.08.275.275 0 0 1-.069-.184.262.262 0 0 1 .069-.181.282.282 0 0 1 .218-.078h2.722a.272.272 0 0 1 .218.082.273.273 0 0 1 .069.184.261.261 0 0 1-.069.18.281.281 0 0 1-.218.077h-.4c-.172 0-.317 0-.434-.007a1.855 1.855 0 0 1-.214-.015v.029a.949.949 0 0 1 .3.221.986.986 0 0 1 .22.39h.523a.275.275 0 0 1 .218.081.274.274 0 0 1 .069.184.262.262 0 0 1-.069.181.282.282 0 0 1-.218.077h-.485a1.383 1.383 0 0 1-.184.578 1.389 1.389 0 0 1-.357.393 1.6 1.6 0 0 1-.463.236 2.34 2.34 0 0 1-.5.1l1.662 1.6a.367.367 0 0 1 .118.266.336.336 0 0 1-.088.235.314.314 0 0 1-.243.1.5.5 0 0 1-.158-.026.42.42 0 0 1-.158-.106l-1.957-1.914a.5.5 0 0 1-.118-.15.364.364 0 0 1-.036-.158.322.322 0 0 1 .088-.232.3.3 0 0 1 .228-.092h.1a2.513 2.513 0 0 0 .452-.04 1.322 1.322 0 0 0 .4-.139 1.026 1.026 0 0 0 .306-.255.806.806 0 0 0 .161-.39h-1.493a.273.273 0 0 1-.218-.08.276.276 0 0 1-.069-.185.262.262 0 0 1 .069-.18.282.282 0 0 1 .218-.077h1.457q-.191-.617-1.126-.618z" transform="translate(1547.975 -3175.494)"/>
                </g>
            </g>
        </g>
    </g>
</svg>
