<svg xmlns="http://www.w3.org/2000/svg" width="33.562" height="23.048" viewBox="0 0 33.562 23.048">
  <g id="Group_21590" data-name="Group 21590" transform="translate(-54 -367.872)">
    <g id="Group_20547" data-name="Group 20547" transform="translate(8376.773 11702.433)">
      <g id="Group_20544" data-name="Group 20544" transform="matrix(0.946, -0.326, 0.326, 0.946, -8322.773, -11328.532)">
        <path id="Path_20922" data-name="Path 20922" d="M16.176.206,11.085,5.044a.541.541,0,0,0-.721.022L9.3,6.125,9.26,6.08a.627.627,0,0,0-.866,0L7.572,6.9a.078.078,0,0,1-.059.024h0c-.048,0-.107,0-.175,0a7.5,7.5,0,0,0-5.563,2.6c-.114.114-2.769,2.819-1.368,5.745a3.908,3.908,0,0,0,1.8,1.8,4.074,4.074,0,0,0,1.769.4,6.311,6.311,0,0,0,3.963-1.761A7.462,7.462,0,0,0,10.55,9.964a.077.077,0,0,1,.024-.059l.822-.822a.612.612,0,0,0,0-.866l-.044-.045,1.059-1.059a.525.525,0,0,0,.023-.722L17.271,1.3A.77.77,0,0,0,17.257.22.793.793,0,0,0,16.176.206Zm-5.155,8.5L10.2,9.53a.6.6,0,0,0-.179.454,6.939,6.939,0,0,1-2.442,5.344,5.75,5.75,0,0,1-3.6,1.617,3.546,3.546,0,0,1-1.539-.351A3.375,3.375,0,0,1,.885,15.038c-1.241-2.59,1.24-5.115,1.275-5.151A6.976,6.976,0,0,1,7.337,7.453c.061,0,.113,0,.179,0a.6.6,0,0,0,.43-.179l.822-.822a.072.072,0,0,1,.117,0l.232.232h0L10.79,8.359h0l.232.232a.082.082,0,0,1,.024.058A.081.081,0,0,1,11.022,8.708ZM10.977,7.8l-1.3-1.3,1.059-1.059,1.3,1.3ZM16.887.936,12.061,6.014l-.6-.6L16.541.59a.251.251,0,0,1,.342,0A.243.243,0,0,1,16.887.936Z" transform="translate(0 0)" fill="#039"/>
        <path id="Path_20923" data-name="Path 20923" d="M1.455.68A3.667,3.667,0,0,1,.368.409.265.265,0,0,0,.162.9a4.2,4.2,0,0,0,1.244.31A.265.265,0,1,0,1.455.68ZM4.237.034a5.363,5.363,0,0,1-1.4.543.265.265,0,1,0,.121.516A5.886,5.886,0,0,0,4.5.5.265.265,0,1,0,4.237.034Z" transform="translate(2.357 14.483)" fill="#039"/>
      </g>
      <g id="Group_20546" data-name="Group 20546" transform="translate(-8312.131 -11328.351) rotate(-20)">
        <rect id="Rectangle_9353" data-name="Rectangle 9353" width="3.452" height="0.347" transform="matrix(0.707, 0.707, -0.707, 0.707, 13.931, 0.903)" fill="#44c8f5" stroke="#44c8f5" stroke-width="0.2"/>
        <path id="Path_20925" data-name="Path 20925" d="M1.049,17.782a1.035,1.035,0,0,1-.74-.306A1.046,1.046,0,0,1,0,16.733a1.035,1.035,0,0,1,.306-.74l.354-.351a.172.172,0,0,1,.247,0l1.111,1.111L5.272,13.5A6.113,6.113,0,0,1,7.6,12.048,5.759,5.759,0,0,0,9.8,10.68l7.075-7.075a1.909,1.909,0,0,0-2.7-2.7L7.1,7.981a5.759,5.759,0,0,0-1.368,2.2,6.071,6.071,0,0,1-1.452,2.33L1.393,15.4l-.247-.247,2.886-2.886a5.759,5.759,0,0,0,1.368-2.2,6.071,6.071,0,0,1,1.452-2.33L13.927.66a2.259,2.259,0,0,1,3.2,3.2l-7.075,7.071a6.113,6.113,0,0,1-2.33,1.452,5.759,5.759,0,0,0-2.2,1.368l-3.73,3.73A1.04,1.04,0,0,1,1.049,17.782ZM.781,16.011l-.229.229a.7.7,0,1,0,.99.99L1.771,17Z" fill="#44c8f5" stroke="#44c8f5" stroke-width="0.2"/>
        <path id="Path_20926" data-name="Path 20926" d="M1.646,7.773a.163.163,0,0,1-.122-.052L.052,6.248A.172.172,0,0,1,.052,6l4.73-4.734a.172.172,0,0,1,.247,0L6.5,2.74a.172.172,0,0,1,0,.247L1.768,7.721A.168.168,0,0,1,1.646,7.773ZM.417,6.123,1.646,7.352,6.133,2.865,4.9,1.636ZM6.832,1.875A.938.938,0,1,1,7.769.938.938.938,0,0,1,6.832,1.875Zm0-1.528a.59.59,0,1,0,.59.59A.59.59,0,0,0,6.832.347Z" transform="translate(7.165 2.848)" fill="#44c8f5" stroke="#44c8f5" stroke-width="0.2"/>
        <rect id="Rectangle_9354" data-name="Rectangle 9354" width="0.347" height="0.754" transform="matrix(0.707, 0.707, -0.707, 0.707, 12.196, 5.34)" fill="#44c8f5" stroke="#44c8f5" stroke-width="0.2"/>
        <rect id="Rectangle_9355" data-name="Rectangle 9355" width="0.347" height="3.744" transform="matrix(0.707, 0.707, -0.707, 0.707, 11.089, 6.447)" fill="#44c8f5" stroke="#44c8f5" stroke-width="0.2"/>
      </g>
    </g>
  </g>
</svg>
