<svg xmlns="http://www.w3.org/2000/svg" width="19.088" height="17.544" viewBox="0 0 19.088 17.544">
  <g id="Group_20796" data-name="Group 20796" transform="translate(-35.75 -422.767)">
    <path id="Path_19069" data-name="Path 19069" d="M277.224,371.9a3.861,3.861,0,0,0-3.176-.837l-2.96.538a3.1,3.1,0,0,0-1.764,1,3.1,3.1,0,0,0-1.769-1l-2.956-.538a3.873,3.873,0,0,0-4.57,3.81v8.361a3.873,3.873,0,0,0,3.179,3.811l4.869.885a6.981,6.981,0,0,0,2.492,0l4.872-.885a3.873,3.873,0,0,0,3.176-3.811v-8.361a3.857,3.857,0,0,0-1.394-2.972Zm-8.675,14.536c-.065-.009-.13-.02-.2-.032l-4.868-.885a2.326,2.326,0,0,1-1.908-2.287v-8.361a2.325,2.325,0,0,1,2.324-2.324,2.364,2.364,0,0,1,.418.038l2.959.542a1.549,1.549,0,0,1,1.27,1.521Zm8.52-3.2a2.323,2.323,0,0,1-1.908,2.287l-4.868.885c-.065.012-.13.022-.2.032V374.65a1.55,1.55,0,0,1,1.272-1.525l2.959-.542a2.323,2.323,0,0,1,2.74,2.29Z" transform="translate(-224.03 52.018)" fill="#44c8f5" stroke="#fff" stroke-width="0.5"/>
    <g id="Group_19946" data-name="Group 19946" transform="translate(38.3 425.434)">
      <path id="Path_19071" data-name="Path 19071" d="M898.419,433.459a13.289,13.289,0,0,0,.116,1.407,1.2,1.2,0,0,0,.656,1.047,11.419,11.419,0,0,0,1.947.466" transform="translate(-898.375 -425.335)" fill="none" stroke="#039" stroke-linecap="round" stroke-width="0.8"/>
      <path id="Path_19074" data-name="Path 19074" d="M898.417,436.618a6.107,6.107,0,0,1,0-1.417,1.255,1.255,0,0,1,.956-1.074,8.732,8.732,0,0,1,1.769,0" transform="translate(-898.374 -434.074)" fill="none" stroke="#039" stroke-linecap="round" stroke-width="0.8"/>
      <path id="Path_19075" data-name="Path 19075" d="M901.1,436.618a6.111,6.111,0,0,0,0-1.417,1.255,1.255,0,0,0-.956-1.074,8.731,8.731,0,0,0-1.769,0" transform="translate(-887.431 -434.074)" fill="none" stroke="#039" stroke-linecap="round" stroke-width="0.8"/>
      <path id="Path_19072" data-name="Path 19072" d="M901.138,433.459a13.3,13.3,0,0,1-.117,1.407,1.2,1.2,0,0,1-.656,1.047,11.416,11.416,0,0,1-1.947.466" transform="translate(-887.061 -425.335)" fill="none" stroke="#039" stroke-linecap="round" stroke-width="0.8"/>
    </g>
  </g>
</svg>
