<svg xmlns="http://www.w3.org/2000/svg" width="19.567" height="20.016" viewBox="0 0 19.567 20.016">
  <g id="Group_21605" data-name="Group 21605" transform="translate(-61.216 -370.715)">
    <g id="books" transform="translate(61.216 370.715)">
      <g id="Group_11536" data-name="Group 11536" transform="translate(0 0)">
        <g id="Group_11535" data-name="Group 11535" transform="translate(0 0)">
          <path id="Path_15555" data-name="Path 15555" d="M25.079,18.431h0L20.2.24a.325.325,0,0,0-.4-.23L15.416,1.187a.317.317,0,0,0-.154.1v-.7a.325.325,0,0,0-.325-.325H5.847a.325.325,0,0,0-.325.325V19.423a.325.325,0,0,0,.325.325h9.091a.325.325,0,0,0,.325-.325V1.867l4.8,17.908a.325.325,0,0,0,.314.241A.336.336,0,0,0,20.457,20l4.391-1.177A.325.325,0,0,0,25.079,18.431ZM10.067,19.1h-3.9V.917h3.9Zm4.545,0h-3.9V.917h3.9Zm5.991.195L15.9,1.73,19.661.722l4.706,17.563Z" transform="translate(-5.522 0)" fill="#44c8f5"/>
        </g>
      </g>
      <g id="Group_11538" data-name="Group 11538" transform="translate(1.299 2.215)">
        <g id="Group_11537" data-name="Group 11537" transform="translate(0)">
          <path id="Path_15556" data-name="Path 15556" d="M39.795,54.589H37.847a.325.325,0,0,0,0,.649h1.948a.325.325,0,0,0,0-.649Z" transform="translate(-37.522 -54.589)" fill="#039"/>
        </g>
      </g>
      <g id="Group_11540" data-name="Group 11540" transform="translate(1.299 3.514)">
        <g id="Group_11539" data-name="Group 11539" transform="translate(0)">
          <path id="Path_15557" data-name="Path 15557" d="M39.795,86.589H37.847a.325.325,0,1,0,0,.649h1.948a.325.325,0,1,0,0-.649Z" transform="translate(-37.522 -86.589)" fill="#039"/>
        </g>
      </g>
      <g id="Group_11542" data-name="Group 11542" transform="translate(5.844 2.215)">
        <g id="Group_11541" data-name="Group 11541" transform="translate(0)">
          <path id="Path_15558" data-name="Path 15558" d="M151.795,54.589h-1.948a.325.325,0,0,0,0,.649h1.948a.325.325,0,0,0,0-.649Z" transform="translate(-149.522 -54.589)" fill="#039"/>
        </g>
      </g>
      <g id="Group_11544" data-name="Group 11544" transform="translate(5.844 3.514)">
        <g id="Group_11543" data-name="Group 11543" transform="translate(0)">
          <path id="Path_15559" data-name="Path 15559" d="M151.795,86.589h-1.948a.325.325,0,0,0,0,.649h1.948a.325.325,0,1,0,0-.649Z" transform="translate(-149.522 -86.589)" fill="#039"/>
        </g>
      </g>
      <g id="Group_11546" data-name="Group 11546" transform="translate(11.408 2.216)">
        <g id="Group_11545" data-name="Group 11545">
          <path id="Path_15560" data-name="Path 15560" d="M289.141,54.84a.325.325,0,0,0-.391-.24l-.017,0-1.883.5a.325.325,0,0,0,.165.628h0l1.883-.5A.325.325,0,0,0,289.141,54.84Z" transform="translate(-286.608 -54.591)" fill="#039"/>
        </g>
      </g>
      <g id="Group_11548" data-name="Group 11548" transform="translate(11.747 3.472)">
        <g id="Group_11547" data-name="Group 11547">
          <path id="Path_15561" data-name="Path 15561" d="M297.483,85.795a.325.325,0,0,0-.4-.23h0l-1.881.5a.325.325,0,1,0,.165.628h0l1.883-.5A.325.325,0,0,0,297.483,85.795Z" transform="translate(-294.96 -85.554)" fill="#039"/>
        </g>
      </g>
      <g id="Group_11550" data-name="Group 11550" transform="translate(14.94 15.39)">
        <g id="Group_11549" data-name="Group 11549">
          <path id="Path_15562" data-name="Path 15562" d="M376.164,379.444a.325.325,0,0,0-.4-.229l-1.883.5a.325.325,0,0,0,.084.638h0a.331.331,0,0,0,.084-.011l1.882-.5A.325.325,0,0,0,376.164,379.444Z" transform="translate(-373.644 -379.205)" fill="#039"/>
        </g>
      </g>
      <g id="Group_11552" data-name="Group 11552" transform="translate(15.279 16.644)">
        <g id="Group_11551" data-name="Group 11551" transform="translate(0)">
          <path id="Path_15563" data-name="Path 15563" d="M384.508,410.356a.325.325,0,0,0-.4-.229l-1.883.5a.325.325,0,0,0,.084.638.313.313,0,0,0,.084-.011l1.883-.5A.325.325,0,0,0,384.508,410.356Z" transform="translate(-381.988 -410.117)" fill="#039"/>
        </g>
      </g>
      <g id="Group_11554" data-name="Group 11554" transform="translate(5.844 15.852)">
        <g id="Group_11553" data-name="Group 11553" transform="translate(0)">
          <path id="Path_15564" data-name="Path 15564" d="M151.795,390.589h-1.948a.325.325,0,0,0,0,.649h1.948a.325.325,0,1,0,0-.649Z" transform="translate(-149.522 -390.589)" fill="#039"/>
        </g>
      </g>
      <g id="Group_11556" data-name="Group 11556" transform="translate(5.844 17.151)">
        <g id="Group_11555" data-name="Group 11555" transform="translate(0)">
          <path id="Path_15565" data-name="Path 15565" d="M151.795,422.589h-1.948a.325.325,0,0,0,0,.649h1.948a.325.325,0,0,0,0-.649Z" transform="translate(-149.522 -422.589)" fill="#039"/>
        </g>
      </g>
      <g id="Group_11558" data-name="Group 11558" transform="translate(1.299 15.852)">
        <g id="Group_11557" data-name="Group 11557" transform="translate(0)">
          <path id="Path_15566" data-name="Path 15566" d="M39.795,390.589H37.847a.325.325,0,0,0,0,.649h1.948a.325.325,0,0,0,0-.649Z" transform="translate(-37.522 -390.589)" fill="#039"/>
        </g>
      </g>
      <g id="Group_11560" data-name="Group 11560" transform="translate(1.299 17.151)">
        <g id="Group_11559" data-name="Group 11559" transform="translate(0)">
          <path id="Path_15567" data-name="Path 15567" d="M39.795,422.589H37.847a.325.325,0,0,0,0,.649h1.948a.325.325,0,0,0,0-.649Z" transform="translate(-37.522 -422.589)" fill="#039"/>
        </g>
      </g>
    </g>
  </g>
</svg>
