<svg xmlns="http://www.w3.org/2000/svg" width="24.561" height="28.697" viewBox="0 0 24.561 28.697">
  <g id="Group_21880" data-name="Group 21880" transform="translate(0.5 0.5)">
    <g id="Group_21880-2" data-name="Group 21880">
      <path id="Path_21061" data-name="Path 21061" d="M21.925,12.283H20.642a.642.642,0,0,1,0-1.283h1.283a.642.642,0,1,1,0,1.283Z" transform="translate(0.995 0.495)" fill="none" stroke="#039" stroke-width="1"/>
      <path id="Path_21060" data-name="Path 21060" d="M15.19,4.566a.642.642,0,0,1-.642-.642V2.642a.642.642,0,0,1,1.283,0V3.925A.642.642,0,0,1,15.19,4.566Zm7.263,3A.6.6,0,0,1,22,7.376a.616.616,0,0,1,0-.9l.9-.9a.635.635,0,1,1,.9.9l-.9.9A.6.6,0,0,1,22.453,7.569Zm.9,15.424A.6.6,0,0,1,22.9,22.8l-.9-.9a.635.635,0,0,1,.9-.9l.9.9a.616.616,0,0,1,0,.9A.6.6,0,0,1,23.351,22.993Zm-16.322,0A.6.6,0,0,1,6.58,22.8a.616.616,0,0,1,0-.9l.9-.9a.635.635,0,1,1,.9.9l-.9.9A.6.6,0,0,1,7.029,22.993Zm-2.1-8.161H3.642a.642.642,0,0,1,0-1.283H4.925a.642.642,0,0,1,0,1.283Zm3-7.263a.6.6,0,0,1-.449-.192l-.9-.9a.635.635,0,1,1,.9-.9l.9.9a.616.616,0,0,1,0,.9.6.6,0,0,1-.449.192Z" transform="translate(-3 -2)" fill="none" stroke="#039" stroke-width="1"/>
    </g>
    <path id="Icon_awesome-lightbulb" data-name="Icon awesome-lightbulb" d="M3.821,18.071a1.273,1.273,0,0,0,.213.7l.68,1.022a1.272,1.272,0,0,0,1.06.568H8.227a1.272,1.272,0,0,0,1.06-.568l.68-1.022a1.272,1.272,0,0,0,.213-.7l0-1.525H3.819ZM0,7a6.961,6.961,0,0,0,1.733,4.6,11.43,11.43,0,0,1,2.077,3.637l0,.031h6.373l0-.031A11.43,11.43,0,0,1,12.268,11.6,7,7,0,1,0,0,7ZM7,3.818A3.186,3.186,0,0,0,3.818,7,.636.636,0,0,1,2.545,7,4.459,4.459,0,0,1,7,2.545.636.636,0,1,1,7,3.818Z" transform="translate(4.994 7.333)" fill="none" stroke="#44c8f5" stroke-width="1"/>
  </g>
</svg>
