<svg xmlns="http://www.w3.org/2000/svg" width="30" height="30" viewBox="0 0 30 30">
  <g id="Group_28474" data-name="Group 28474" transform="translate(-906 -1194)">
    <g id="Group_28474-2" data-name="Group 28474" transform="translate(635.997 -142.378)">
      <g id="Group_28440" data-name="Group 28440" transform="translate(271 1344.182)">
        <g id="Group_28420" data-name="Group 28420" transform="translate(0 15.069)">
          <rect id="Rectangle_11103" data-name="Rectangle 11103" width="6.267" height="0.979" rx="0.49" transform="translate(0 3.525)" fill="#44c8f5"/>
          <rect id="Rectangle_11104" data-name="Rectangle 11104" width="6.267" height="0.979" rx="0.49" transform="translate(0 1.763)" fill="#44c8f5"/>
          <rect id="Rectangle_11105" data-name="Rectangle 11105" width="6.267" height="0.979" rx="0.49" transform="translate(0 0)" fill="#44c8f5"/>
        </g>
        <g id="Group_28423" data-name="Group 28423" transform="translate(7.246 9.781)">
          <g id="Group_28421" data-name="Group 28421" transform="translate(0 5.288)">
            <rect id="Rectangle_11103-2" data-name="Rectangle 11103" width="6.267" height="0.979" rx="0.49" transform="translate(0 3.525)" fill="#44c8f5"/>
            <rect id="Rectangle_11104-2" data-name="Rectangle 11104" width="6.267" height="0.979" rx="0.49" transform="translate(0 1.763)" fill="#44c8f5"/>
            <rect id="Rectangle_11105-2" data-name="Rectangle 11105" width="6.267" height="0.979" rx="0.49" fill="#44c8f5"/>
          </g>
          <g id="Group_28422" data-name="Group 28422">
            <rect id="Rectangle_11103-3" data-name="Rectangle 11103" width="6.267" height="0.979" rx="0.49" transform="translate(0 3.525)" fill="#44c8f5"/>
            <rect id="Rectangle_11104-3" data-name="Rectangle 11104" width="6.267" height="0.979" rx="0.49" transform="translate(0 1.763)" fill="#44c8f5"/>
            <rect id="Rectangle_11105-3" data-name="Rectangle 11105" width="6.267" height="0.979" rx="0.49" fill="#44c8f5"/>
          </g>
        </g>
        <g id="Group_28438" data-name="Group 28438" transform="translate(14.493 4.696)">
          <g id="Group_28424" data-name="Group 28424" transform="translate(0 5.085)">
            <g id="Group_28421-2" data-name="Group 28421" transform="translate(0 5.288)">
              <rect id="Rectangle_11103-4" data-name="Rectangle 11103" width="6.267" height="0.979" rx="0.49" transform="translate(0 3.525)" fill="#44c8f5"/>
              <rect id="Rectangle_11104-4" data-name="Rectangle 11104" width="6.267" height="0.979" rx="0.49" transform="translate(0 1.763)" fill="#44c8f5"/>
              <rect id="Rectangle_11105-4" data-name="Rectangle 11105" width="6.267" height="0.979" rx="0.49" fill="#44c8f5"/>
            </g>
            <g id="Group_28422-2" data-name="Group 28422">
              <rect id="Rectangle_11103-5" data-name="Rectangle 11103" width="6.267" height="0.979" rx="0.49" transform="translate(0 3.525)" fill="#44c8f5"/>
              <rect id="Rectangle_11104-5" data-name="Rectangle 11104" width="6.267" height="0.979" rx="0.49" transform="translate(0 1.763)" fill="#44c8f5"/>
              <rect id="Rectangle_11105-5" data-name="Rectangle 11105" width="6.267" height="0.979" rx="0.49" fill="#44c8f5"/>
            </g>
          </g>
          <g id="Group_28437" data-name="Group 28437" transform="translate(0 0)">
            <g id="Group_28421-3" data-name="Group 28421" transform="translate(0 1.763)">
              <rect id="Rectangle_11104-6" data-name="Rectangle 11104" width="6.267" height="0.979" rx="0.49" transform="translate(0 1.763)" fill="#44c8f5"/>
              <rect id="Rectangle_11105-6" data-name="Rectangle 11105" width="6.267" height="0.979" rx="0.49" fill="#44c8f5"/>
            </g>
            <g id="Group_28422-3" data-name="Group 28422" transform="translate(0 0)">
              <rect id="Rectangle_11103-6" data-name="Rectangle 11103" width="6.267" height="0.979" rx="0.49" fill="#44c8f5"/>
            </g>
          </g>
        </g>
        <g id="Group_28439" data-name="Group 28439" transform="translate(21.739 0)">
          <g id="Group_28424-2" data-name="Group 28424" transform="translate(0 9.781)">
            <g id="Group_28421-4" data-name="Group 28421" transform="translate(0 5.288)">
              <rect id="Rectangle_11103-7" data-name="Rectangle 11103" width="6.267" height="0.979" rx="0.49" transform="translate(0 3.525)" fill="#44c8f5"/>
              <rect id="Rectangle_11104-7" data-name="Rectangle 11104" width="6.267" height="0.979" rx="0.49" transform="translate(0 1.763)" fill="#44c8f5"/>
              <rect id="Rectangle_11105-7" data-name="Rectangle 11105" width="6.267" height="0.979" rx="0.49" fill="#44c8f5"/>
            </g>
            <g id="Group_28422-4" data-name="Group 28422">
              <rect id="Rectangle_11103-8" data-name="Rectangle 11103" width="6.267" height="0.979" rx="0.49" transform="translate(0 3.525)" fill="#44c8f5"/>
              <rect id="Rectangle_11104-8" data-name="Rectangle 11104" width="6.267" height="0.979" rx="0.49" transform="translate(0 1.763)" fill="#44c8f5"/>
              <rect id="Rectangle_11105-8" data-name="Rectangle 11105" width="6.267" height="0.979" rx="0.49" fill="#44c8f5"/>
            </g>
          </g>
          <g id="Group_28421-5" data-name="Group 28421" transform="translate(0 6.459)">
            <rect id="Rectangle_11104-9" data-name="Rectangle 11104" width="6.267" height="0.979" rx="0.49" transform="translate(0 1.763)" fill="#44c8f5"/>
            <rect id="Rectangle_11105-9" data-name="Rectangle 11105" width="6.267" height="0.979" rx="0.49" fill="#44c8f5"/>
          </g>
          <g id="Group_28422-5" data-name="Group 28422" transform="translate(0 0)">
            <rect id="Rectangle_11103-9" data-name="Rectangle 11103" width="6.267" height="0.979" rx="0.49" transform="translate(0 4.696)" fill="#44c8f5"/>
            <rect id="Rectangle_11106" data-name="Rectangle 11106" width="6.267" height="0.979" rx="0.49" transform="translate(0 3.131)" fill="#44c8f5"/>
            <rect id="Rectangle_11107" data-name="Rectangle 11107" width="6.267" height="0.979" rx="0.49" transform="translate(0 1.565)" fill="#44c8f5"/>
            <rect id="Rectangle_11108" data-name="Rectangle 11108" width="6.267" height="0.979" rx="0.49" fill="#44c8f5"/>
          </g>
        </g>
      </g>
      <g id="Group_28436" data-name="Group 28436" transform="translate(272.865 1339)">
        <g id="Polygon_7" data-name="Polygon 7" transform="translate(24.022 0.035) rotate(91)" fill="none">
          <path d="M1.224,0,2.447,2H0Z" stroke="none"/>
          <path d="M 1.223667502403259 2.622604370117188e-06 L 2.44733738899231 2.002362489700317 L -2.384185791015625e-06 2.002362489700317 L 1.223667502403259 2.622604370117188e-06 Z" stroke="none" fill="#039"/>
        </g>
        <path id="Path_23378" data-name="Path 23378" d="M151.7,571.472s.255-3.339,2.091-4.726,4.719-.514,5.255-.823.505-3.358,2.414-4.7,4.722-.372,5.221-.66.781-3.351,2.586-4.9,4.83-.911,4.83-.911" transform="translate(-151.702 -553.385)" fill="none" stroke="#039" stroke-linecap="round" stroke-width="0.8"/>
      </g>
    </g>
    <g id="Group_28475" data-name="Group 28475" transform="translate(470 -33)">
      <rect id="Rectangle_11111" data-name="Rectangle 11111" width="30" height="30" transform="translate(436 1227)" fill="none"/>
    </g>
  </g>
</svg>
