<svg xmlns="http://www.w3.org/2000/svg" width="30" height="30" viewBox="0 0 30 30">
  <g id="Group_28485" data-name="Group 28485" transform="translate(-444 -1133)">
    <g id="Group_28481" data-name="Group 28481" transform="translate(-495 -14)">
      <g id="Group_28469" data-name="Group 28469" transform="translate(883 655)">
        <g id="Group_21920" data-name="Group 21920" transform="translate(-118 -1)">
          <rect id="Rectangle_9517" data-name="Rectangle 9517" width="30" height="30" transform="translate(174 493)" fill="none"/>
        </g>
      </g>
    </g>
    <g id="equity_1_" data-name="equity (1)" transform="translate(446.777 1134.777)">
      <path id="Path_23383" data-name="Path 23383" d="M20.7,5a6.7,6.7,0,1,0,6.7,6.7A6.71,6.71,0,0,0,20.7,5Zm0,.789A5.918,5.918,0,0,1,26.242,9.65l-1.514.449a4.331,4.331,0,0,0-7.809-.509l-1.445-.642A5.917,5.917,0,0,1,20.7,5.789Zm0,2.366A3.548,3.548,0,1,1,17.154,11.7,3.552,3.552,0,0,1,20.7,8.154Zm0,9.463a5.9,5.9,0,0,1-5.546-7.948l1.443.641A4.335,4.335,0,1,0,25.04,11.7a4.365,4.365,0,0,0-.084-.849l1.514-.449A5.9,5.9,0,0,1,20.7,17.617Z" transform="translate(-8.48 -2.423)" fill="#039"/>
      <path id="Path_23384" data-name="Path 23384" d="M22.868,7.7a1.577,1.577,0,1,0-1.577-1.577c0,.019,0,.036.006.054l-1.264.375a8.265,8.265,0,0,0-15.2-.99L3.128,4.806A1.575,1.575,0,1,0,1.577,6.126a1.57,1.57,0,0,0,1.228-.6l1.707.759A8.2,8.2,0,0,0,5.52,14.121V24.657H3.943V14.405H.789v11.04H23.657V12.04H20.5V24.657H18.925v-7.1H15.771v7.1h-1.79a2.354,2.354,0,0,0,.607-1.577V20.32a1.18,1.18,0,0,0-.552-1,1.17,1.17,0,0,0,.158-.58v-1.43a8.23,8.23,0,0,0,6.062-10l1.266-.375a1.572,1.572,0,0,0,1.346.767ZM1.577,5.337a.789.789,0,1,1,.789-.789A.789.789,0,0,1,1.577,5.337Zm1.577,19.32H1.577V15.194H3.154ZM21.291,12.828h1.577V24.657H21.291ZM6.308,15.063A8.335,8.335,0,0,0,7.886,16.32v8.337H6.308Zm4.1,4.259a1.18,1.18,0,0,0-.552,1v2.76a2.354,2.354,0,0,0,.607,1.577H8.674V16.749a8.215,8.215,0,0,0,1.577.563v1.43a1.17,1.17,0,0,0,.158.58Zm6.15-.974h1.577v6.308H16.56Zm-5.914,4.731V20.32a.394.394,0,0,1,.394-.394h2.366a.394.394,0,0,1,.394.394v2.76a1.577,1.577,0,0,1-3.154,0Zm2.76-4.337a.394.394,0,0,1-.394.394H11.434a.394.394,0,0,1-.394-.394V17.465a8.244,8.244,0,0,0,1.183.095,8.244,8.244,0,0,0,1.183-.095Zm-1.183-1.971A7.491,7.491,0,1,1,19.714,9.28,7.5,7.5,0,0,1,12.223,16.771ZM22.868,5.337a.789.789,0,1,1-.789.789A.789.789,0,0,1,22.868,5.337Z" transform="translate(0 0)" fill="#44c8f5"/>
      <path id="Icon_awesome-rupee-sign" data-name="Icon awesome-rupee-sign" d="M2.744,2.82a.107.107,0,0,0,.107-.107V2.357a.107.107,0,0,0-.107-.107H.107A.107.107,0,0,0,0,2.357v.4a.107.107,0,0,0,.107.107h.76a.643.643,0,0,1,.543.243H.107A.107.107,0,0,0,0,3.212v.356a.107.107,0,0,0,.107.107H1.521A.616.616,0,0,1,.855,4.2H.107A.107.107,0,0,0,0,4.3v.472a.107.107,0,0,0,.034.079L1.5,6.213a.107.107,0,0,0,.073.028h.736a.107.107,0,0,0,.073-.185L1.041,4.815A1.22,1.22,0,0,0,2.273,3.675h.47a.107.107,0,0,0,.107-.107V3.212a.107.107,0,0,0-.107-.107H2.221a1.22,1.22,0,0,0-.127-.285Z" transform="translate(10.797 5.034)" fill="#039"/>
    </g>
  </g>
</svg>
