<svg xmlns="http://www.w3.org/2000/svg" width="24" height="24" viewBox="0 0 24 24">
  <g id="Group_22333" data-name="Group 22333" transform="translate(-13124 -5705.671)">
    <rect id="Rectangle_9615" data-name="Rectangle 9615" width="24" height="24" transform="translate(13124 5705.671)" fill="#fff"/>
    <g id="Group_22272" data-name="Group 22272" transform="translate(11210.438 183.034)">
      <g id="Group_22269" data-name="Group 22269" transform="translate(-7.979 58)">
        <g id="Ellipse_1450" data-name="Ellipse 1450" transform="translate(1923.54 5471.378)" fill="#fff" stroke="#44c8f5" stroke-width="1">
          <ellipse cx="4.719" cy="4.719" rx="4.719" ry="4.719" stroke="none"/>
          <ellipse cx="4.719" cy="4.719" rx="4.219" ry="4.219" fill="none"/>
        </g>
        <path id="loan" d="M23.814,27.973a.317.317,0,1,0,0,.635h.635a.95.95,0,0,1,.9.645H23.814a.317.317,0,1,0,0,.635h1.525a.95.95,0,0,1-.89.625h-.635a.318.318,0,0,0-.317.317.014.014,0,0,0,0,0,.313.313,0,0,0,.092.229l1.9,1.9a.317.317,0,0,0,.449-.449l-1.384-1.384A1.585,1.585,0,0,0,26,29.888h.352a.317.317,0,1,0,0-.635h-.348a1.575,1.575,0,0,0-.294-.645h.642a.317.317,0,0,0,0-.635h-2.54Z" transform="translate(1903.257 5445.71)" fill="#44c8f5"/>
      </g>
      <path id="Subtraction_10" data-name="Subtraction 10" d="M452.719,5419.788a4.227,4.227,0,0,1-2.692-.97l2.768-2.565,4.017.344A4.212,4.212,0,0,1,452.719,5419.788Zm-3.837-2.462h0a4.188,4.188,0,0,1-.382-1.756,4.237,4.237,0,0,1,3.343-4.128v3.383l-2.96,2.5Zm8-2.475h0l-3.247-.187v-3.216a4.225,4.225,0,0,1,3.248,3.4Z" transform="translate(1478.561 118.529)" fill="#fff" stroke="#44c8f5" stroke-width="1"/>
      <g id="Group_22270" data-name="Group 22270">
        <path id="Path_21163" data-name="Path 21163" d="M1472.1,118.387s-.174-2.137,1.875-2.137c.044.044,8.2,0,8.2,0" transform="translate(448 5410)" fill="none" stroke="#039" stroke-linecap="round" stroke-width="1"/>
        <path id="Path_21164" data-name="Path 21164" d="M1480.913,114.637l1.884,1.884-1.884,1.806" transform="translate(448 5410)" fill="none" stroke="#039" stroke-linecap="round" stroke-width="1"/>
      </g>
      <g id="Group_22271" data-name="Group 22271">
        <path id="Path_21166" data-name="Path 21166" d="M1472.1,118.387s-.174-2.137,1.875-2.137c.044.044,8.2,0,8.2,0" transform="translate(3403.891 5658.694) rotate(180)" fill="none" stroke="#039" stroke-linecap="round" stroke-width="1"/>
        <path id="Path_21165" data-name="Path 21165" d="M1480.913,114.637l1.884,1.884-1.884,1.806" transform="translate(3403.891 5658.694) rotate(180)" fill="none" stroke="#039" stroke-linecap="round" stroke-width="1"/>
      </g>
    </g>
  </g>
</svg>
