<svg xmlns="http://www.w3.org/2000/svg" width="25.809" height="25.809" viewBox="0 0 25.809 25.809">
  <g id="Group_21586" data-name="Group 21586" transform="translate(-275.771 -187.227)">
    <g id="Group_12109" data-name="Group 12109" transform="translate(275.771 187.227)">
      <path id="Path_928" data-name="Path 928" d="M11.829,33.516V21.871a.538.538,0,0,0-.538-.538C5.065,21.333,0,26.881,0,33.7A12.381,12.381,0,0,0,12.367,46.066a9.19,9.19,0,0,0,6.794-2.273.538.538,0,0,0,.083-.745Zm.538,11.475A11.3,11.3,0,0,1,1.075,33.7c0-6.026,4.294-10.965,9.678-11.276V33.7a.534.534,0,0,0,.114.33l7.2,9.258A8.137,8.137,0,0,1,12.367,44.991Z" transform="translate(0 -20.258)" fill="#44c8f5"/>
      <path id="Path_929" data-name="Path 929" d="M256.538,12.9h11.829a.538.538,0,0,0,.538-.538A12.381,12.381,0,0,0,256.538,0,.538.538,0,0,0,256,.538V12.367A.538.538,0,0,0,256.538,12.9Zm.538-11.816a11.306,11.306,0,0,1,10.741,10.741H257.075Z" transform="translate(-243.096 0)" fill="#039"/>
      <path id="Path_930" data-name="Path 930" d="M288.613,277.333H277.86a.537.537,0,0,0-.418.875l6.99,8.653a.535.535,0,0,0,.381.2h.038a.541.541,0,0,0,.367-.144,12.415,12.415,0,0,0,3.935-9.047A.538.538,0,0,0,288.613,277.333Zm-3.718,8.392-5.91-7.317h9.077A11.346,11.346,0,0,1,284.9,285.725Z" transform="translate(-263.342 -263.353)" fill="#44c8f5"/>
    </g>
  </g>
</svg>
