<svg xmlns="http://www.w3.org/2000/svg" width="30" height="30" viewBox="0 0 30 30">
  <g id="Group_28463" data-name="Group 28463" transform="translate(-452 -1225)">
    <rect id="Rectangle_11110" data-name="Rectangle 11110" width="30" height="30" transform="translate(452 1225)" fill="none"/>
    <g id="event_1_" data-name="event (1)" transform="translate(452.741 1227.409)">
      <path id="Path_23367" data-name="Path 23367" d="M4.74,17.836H6.2a2.59,2.59,0,0,0,.88,2.945A3.92,3.92,0,0,0,4.74,24.361v.87a.87.87,0,0,0,.87.87H23.881a.87.87,0,0,0,.87-.87v-.87a3.9,3.9,0,0,0-2.337-3.581,2.591,2.591,0,0,0,.88-2.944h1.457a1.74,1.74,0,0,0,1.74-1.74V2.61A1.74,1.74,0,0,0,24.751.87h-1.74V.435a.435.435,0,0,0-.87,0V.87H19.1V.435a.435.435,0,0,0-.87,0V.87H15.181V.435a.435.435,0,1,0-.87,0V.87H11.265V.435a.435.435,0,1,0-.87,0V.87H7.35V.435a.435.435,0,0,0-.87,0V.87H4.74A1.74,1.74,0,0,0,3,2.61V16.1A1.74,1.74,0,0,0,4.74,17.836Zm2.175.87a1.74,1.74,0,1,1,1.74,1.74A1.74,1.74,0,0,1,6.915,18.706Zm12.343,2.075a3.926,3.926,0,0,0-.838.5,3.934,3.934,0,0,0-2.1-2.243,2.616,2.616,0,0,0,.88-1.2h1.175A2.59,2.59,0,0,0,19.259,20.781ZM11.7,25.232v-2.61a3.045,3.045,0,1,1,6.09,0v2.61Zm3.045-6.525a1.74,1.74,0,1,1,1.74-1.74A1.74,1.74,0,0,1,14.746,18.706Zm-1.577.335a3.93,3.93,0,0,0-2.1,2.242,3.933,3.933,0,0,0-.838-.5,2.591,2.591,0,0,0,.88-2.944h1.175a2.616,2.616,0,0,0,.88,1.2ZM5.61,25.232v-.87a3.045,3.045,0,0,1,5.2-2.155c.014.014.026.029.04.043-.011.122-.019.246-.019.372v2.61Zm17.379-3.026a3.045,3.045,0,0,1,.892,2.156v.87h-5.22v-2.61c0-.124-.007-.246-.019-.366a3.042,3.042,0,0,1,4.347-.05Zm-2.153-1.759a1.74,1.74,0,1,1,1.74-1.74A1.74,1.74,0,0,1,20.836,20.446Zm3.915-3.48H22.776a2.6,2.6,0,0,0-3.88,0h-1.54a2.61,2.61,0,0,0-5.22,0H10.6a2.6,2.6,0,0,0-3.88,0H4.74a.87.87,0,0,1-.87-.87V4.35H25.621V16.1A.87.87,0,0,1,24.751,16.966ZM4.74,1.74H6.48v.435a.435.435,0,0,0,.87,0V1.74H10.4v.435a.435.435,0,1,0,.87,0V1.74h3.045v.435a.435.435,0,1,0,.87,0V1.74h3.045v.435a.435.435,0,0,0,.87,0V1.74h3.045v.435a.435.435,0,0,0,.87,0V1.74h1.74a.87.87,0,0,1,.87.87v.87H3.87V2.61A.87.87,0,0,1,4.74,1.74Z" transform="translate(0)" fill="#44c8f5"/>
      <path id="Path_23368" data-name="Path 23368" d="M28.061,15.122l-1.452-.382L25.68,13.4a.934.934,0,0,0-1.532,0l-.933,1.341-1.454.382a1.02,1.02,0,0,0-.719.679,1,1,0,0,0,.188.953l.925,1.1-.072,1.584a.907.907,0,0,0,.368.771.929.929,0,0,0,.868.127l1.591-.57,1.593.57a.931.931,0,0,0,.868-.127.905.905,0,0,0,.367-.772l-.075-1.584.924-1.1a1,1,0,0,0,.189-.953,1.02,1.02,0,0,0-.717-.679ZM27.924,16.2,26.891,17.43a.435.435,0,0,0-.1.3l.067,1.784a.063.063,0,0,1-.057.008l-1.74-.623a.432.432,0,0,0-.293,0l-1.74.623c-.026.009-.046,0-.074-.039l.083-1.754a.439.439,0,0,0-.1-.3L21.9,16.193a.131.131,0,0,1-.027-.131.149.149,0,0,1,.111-.1l1.61-.424a.438.438,0,0,0,.247-.174l1.02-1.474a.058.058,0,0,1,.1,0h0l1.021,1.473a.435.435,0,0,0,.247.174l1.61.424a.149.149,0,0,1,.111.1A.13.13,0,0,1,27.924,16.2Z" transform="translate(-10.167 -7.344)" fill="#039"/>
    </g>
  </g>
</svg>
