<svg xmlns="http://www.w3.org/2000/svg" width="33.117" height="32.994" viewBox="0 0 33.117 32.994">
  <g id="chatbot" transform="translate(0.513)">
    <path id="Path_21217" data-name="Path 21217" d="M12693.547-5119.9v8.738a3.78,3.78,0,0,0,.754,1.237,3.684,3.684,0,0,0,1.225.742h11.371a4.326,4.326,0,0,0,1.357-.742,4.107,4.107,0,0,0,.9-1.237v-10.111l-.383-.824a8.339,8.339,0,0,1-2.512,1.817,6.7,6.7,0,0,1-2.873.38,6.531,6.531,0,0,0,1.17-1.374,4.014,4.014,0,0,0,.479-1.483,15.4,15.4,0,0,1-3.4,2.175,13.9,13.9,0,0,1-3.8.957,22.174,22.174,0,0,1-2.307,0A13.936,13.936,0,0,1,12693.547-5119.9Z" transform="translate(-12685.271 5135.715)" fill="none" stroke="#44c8f5" stroke-linecap="round" stroke-linejoin="round" stroke-width="0.8"/>
    <path id="Path_21219" data-name="Path 21219" d="M12716.831-5076.788a3.925,3.925,0,0,0,1.049.95,3.568,3.568,0,0,0,1.326.373,4.123,4.123,0,0,0,1.475-.373,3.024,3.024,0,0,0,1-.95" transform="translate(-12703.427 5099.879)" fill="none" stroke="#039" stroke-linecap="round" stroke-width="0.8"/>
    <path id="Path_21221" data-name="Path 21221" d="M12693.547-5073.156a6.548,6.548,0,0,0,3.434.874" transform="translate(-12685.271 5097.047)" fill="none" stroke="#44c8f5" stroke-linecap="round" stroke-width="0.8"/>
    <g id="Ellipse_1465" data-name="Ellipse 1465" transform="translate(10.581 17.977)" fill="#039" stroke="#039" stroke-width="0.8">
      <circle cx="1.322" cy="1.322" r="1.322" stroke="none"/>
      <circle cx="1.322" cy="1.322" r="0.922" fill="none"/>
    </g>
    <g id="Ellipse_1466" data-name="Ellipse 1466" transform="translate(18.733 17.977)" fill="#039" stroke="#039" stroke-width="0.8">
      <circle cx="1.322" cy="1.322" r="1.322" stroke="none"/>
      <circle cx="1.322" cy="1.322" r="0.922" fill="none"/>
    </g>
    <path id="Path_21222" data-name="Path 21222" d="M12672.066-5141.173h-3.5a3.086,3.086,0,0,0-1.328.7,4.263,4.263,0,0,0-.848,1.426v1.575h-2.8v-1.575a4.58,4.58,0,0,1,.3-1.125,4.634,4.634,0,0,1,.623-1,6.928,6.928,0,0,1-1.721-.275,4.779,4.779,0,0,1-1.217-.6,1.685,1.685,0,0,1-.512-.6,2.468,2.468,0,0,1-.127-.9V-5145a4.9,4.9,0,0,1-4.926-4.953c-.008-.177-.576-4.777,3.979-5.8,0,0,.6-5.779,4.426-8.406a14.534,14.534,0,0,1,7.68-2.525c.369.065,3.324-.476,7.652,2.525.135.1,4.225,3.277,4.176,8.406a5.057,5.057,0,0,1,4.15,5.526c-.01.183-.074,4.852-4.926,5.252a9.719,9.719,0,0,0,0,1.451,1.8,1.8,0,0,1-.227.875,2.227,2.227,0,0,1-.721.649,4.832,4.832,0,0,1-1.129.55,7.381,7.381,0,0,1-1.4.275,4.108,4.108,0,0,1,.475.9,8.8,8.8,0,0,1,.322,1.225v1.575h-2.943v-1.575a3.026,3.026,0,0,0-.449-1.125,4.972,4.972,0,0,0-1-1Z" transform="translate(-12655.985 5169.965)" fill="none" stroke="#44c8f5" stroke-linejoin="round" stroke-width="1"/>
    <path id="Path_21223" data-name="Path 21223" d="M12693.547-5149.462a14,14,0,0,1,3.541-3.153,9.72,9.72,0,0,1,4.1-1.074,9.054,9.054,0,0,1,3.936,1.074,14.013,14.013,0,0,1,3.449,3.153,10.248,10.248,0,0,0-2.8-4.1,9.459,9.459,0,0,0-4.586-1.56,9.883,9.883,0,0,0-4.684,1.56A10.66,10.66,0,0,0,12693.547-5149.462Z" transform="translate(-12685.271 5160.948)" fill="none" stroke="#44c8f5" stroke-linecap="round" stroke-linejoin="round" stroke-width="0.6"/>
    <g id="Rectangle_9631" data-name="Rectangle 9631" transform="translate(11.683 24.146)" fill="none" stroke="#44c8f5" stroke-width="0.8">
      <rect width="1.542" height="1.322" rx="0.661" stroke="none"/>
      <rect x="0.4" y="0.4" width="0.742" height="0.522" rx="0.261" fill="none"/>
    </g>
    <g id="Ellipse_1468" data-name="Ellipse 1468" transform="translate(1.755)" fill="none" stroke="#44c8f5" stroke-width="0.8">
      <circle cx="2.267" cy="2.267" r="2.267" stroke="none"/>
      <circle cx="2.267" cy="2.267" r="1.867" fill="none"/>
    </g>
    <g id="Rectangle_9634" data-name="Rectangle 9634" transform="translate(2.81 16.875)" fill="none" stroke="#44c8f5" stroke-width="0.8">
      <rect width="2.424" height="5.509" rx="1.212" stroke="none"/>
      <rect x="0.4" y="0.4" width="1.624" height="4.709" rx="0.812" fill="none"/>
    </g>
    <line id="Line_883" data-name="Line 883" y2="12.45" transform="translate(4.021 4.535)" fill="none" stroke="#44c8f5" stroke-linecap="round" stroke-width="0.8"/>
    <g id="Ellipse_1469" data-name="Ellipse 1469" transform="translate(25.634)" fill="none" stroke="#44c8f5" stroke-width="0.8">
      <circle cx="2.267" cy="2.267" r="2.267" stroke="none"/>
      <circle cx="2.267" cy="2.267" r="1.867" fill="none"/>
    </g>
    <g id="Rectangle_9635" data-name="Rectangle 9635" transform="translate(26.688 16.875)" fill="none" stroke="#44c8f5" stroke-width="0.8">
      <rect width="2.424" height="5.509" rx="1.212" stroke="none"/>
      <rect x="0.4" y="0.4" width="1.624" height="4.709" rx="0.812" fill="none"/>
    </g>
    <line id="Line_884" data-name="Line 884" y2="12.45" transform="translate(27.899 4.535)" fill="none" stroke="#44c8f5" stroke-linecap="round" stroke-width="0.8"/>
  </g>
</svg>
