<svg id="torusSocial" xmlns="http://www.w3.org/2000/svg" width="35.469" height="35.469" viewBox="0 0 35.469 35.469">
  <path id="Path_29" data-name="Path 29" d="M294.279,1295.38a13.123,13.123,0,0,1-7.511-15.849,13.409,13.409,0,0,1,15.832-9.276c-5.853,1.122-10.069,4.324-11.976,10.013C288.708,1285.986,290.219,1291.036,294.279,1295.38Zm10.729-19.832c6.036.035,10.408,3,13.31,8.167a13.46,13.46,0,0,0-26.752-.1C294.56,1278.436,298.97,1275.511,305.008,1275.548Zm.294,24.191c-4.908,3.509-10.215,3.659-15.7,1.141a13.636,13.636,0,0,0,17.973,2.017,13.237,13.237,0,0,0,3.763-17.562C312.046,1291.293,310.219,1296.223,305.3,1299.739Zm8.355-13.186c2.4,5.985.979,11.318-3.29,15.989a13.129,13.129,0,0,0,7.466-15.872,13.4,13.4,0,0,0-15.82-9.233C307.469,1278.446,311.567,1281.34,313.657,1286.552Zm-24.6,12.388c6.187,3.991,13.927,1.953,17.324-2.3-5.434,2.483-10.725,2.281-15.609-1.235s-6.691-8.426-6-14.3A13.154,13.154,0,0,0,289.055,1298.94Z" transform="translate(-282.922 -1269.913)" fill="#039"/>
  <path id="ion_game-controller_2_" data-name="ion_game-controller (2)" d="M14.056,7.009c-.618-2.8-1.549-4.288-2.929-4.7a3.123,3.123,0,0,0-.894-.126,4.019,4.019,0,0,0-1.116.2,5.7,5.7,0,0,1-1.683.266A5.712,5.712,0,0,1,5.75,2.388a4.011,4.011,0,0,0-1.115-.2,3.374,3.374,0,0,0-.925.126c-1.373.406-2.3,1.9-2.93,4.694-.675,3.009-.343,4.909.931,5.35a1.652,1.652,0,0,0,.543.094A2.913,2.913,0,0,0,4.3,11.129c.54-.673,1.173-1.015,3.129-1.015,1.748,0,2.471.237,3.1,1.015a4.264,4.264,0,0,0,1.134,1.047,1.709,1.709,0,0,0,1.462.186,2.084,2.084,0,0,0,1.283-2.019A11.4,11.4,0,0,0,14.056,7.009ZM6.035,6.852H5.1v.933a.466.466,0,1,1-.933,0V6.852H3.236a.466.466,0,1,1,0-.933h.933V4.986a.466.466,0,0,1,.933,0v.933h.933a.466.466,0,0,1,0,.933Zm2.449.117A.583.583,0,1,1,8.9,6.8a.583.583,0,0,1-.412.171ZM9.766,8.251a.583.583,0,1,1,.412-.17.583.583,0,0,1-.412.17Zm0-2.565a.583.583,0,1,1,.412-.171A.583.583,0,0,1,9.766,5.686Zm1.283,1.283a.583.583,0,1,1,.412-.171.583.583,0,0,1-.412.171Z" transform="translate(10.434 9.493)" fill="#039"/>
</svg>
