<svg xmlns="http://www.w3.org/2000/svg" width="24" height="24" viewBox="0 0 24 24">
  <g id="Group_22370" data-name="Group 22370" transform="translate(-22 -96)">
    <rect id="Rectangle_9612" data-name="Rectangle 9612" width="24" height="24" transform="translate(22 96)" fill="#fff"/>
    <g id="Group_20872" data-name="Group 20872" transform="translate(24 98)">
      <path id="Path_16532" data-name="Path 16532" d="M1192.825,1250a.851.851,0,0,0-.585.239.815.815,0,0,0-.239.585v1.647a2.474,2.474,0,0,1-2.471,2.471h-1.647a.851.851,0,0,0-.585.239.835.835,0,0,0,0,1.169.849.849,0,0,0,.585.239h1.647a4.134,4.134,0,0,0,4.118-4.118v-1.647a.85.85,0,0,0-.239-.585A.866.866,0,0,0,1192.825,1250Z" transform="translate(-1173.882 -1236.823)" fill="#44c8f5"/>
      <path id="Path_16533" data-name="Path 16533" d="M1171.884,1240.589a.866.866,0,0,0,.585-.239.85.85,0,0,0,.239-.585v-1.647a2.434,2.434,0,0,1,.725-1.746,2.468,2.468,0,0,1,1.746-.725h1.647a.865.865,0,0,0,.585-.239.835.835,0,0,0,0-1.169.865.865,0,0,0-.585-.239h-1.647a4.119,4.119,0,0,0-4.118,4.118v1.647a.815.815,0,0,0,.239.585A.85.85,0,0,0,1171.884,1240.589Z" transform="translate(-1171.06 -1234)" fill="#44c8f5"/>
      <path id="Path_16534" data-name="Path 16534" d="M1176.825,1254.942h-1.647a2.468,2.468,0,0,1-1.746-.725,2.434,2.434,0,0,1-.725-1.746v-1.647a.851.851,0,0,0-.239-.585.866.866,0,0,0-.585-.239.85.85,0,0,0-.585.239.815.815,0,0,0-.239.585v1.647a4.119,4.119,0,0,0,4.118,4.118h1.647a.864.864,0,0,0,.585-.239.835.835,0,0,0,0-1.169A.866.866,0,0,0,1176.825,1254.942Z" transform="translate(-1171.06 -1236.823)" fill="#44c8f5"/>
      <path id="Path_16535" data-name="Path 16535" d="M1189.531,1234h-1.647a.85.85,0,0,0-.585.239.835.835,0,0,0,0,1.169.85.85,0,0,0,.585.239h1.647a2.474,2.474,0,0,1,2.471,2.471v1.647a.815.815,0,0,0,.239.585.851.851,0,0,0,.585.239.866.866,0,0,0,.585-.239.85.85,0,0,0,.239-.585v-1.647a4.134,4.134,0,0,0-4.118-4.118Z" transform="translate(-1173.882 -1234)" fill="#44c8f5"/>
      <g id="Group_13010" data-name="Group 13010" transform="translate(5.501 5.6)">
        <path id="Path_17618" data-name="Path 17618" d="M3306.01,3492.009a7.831,7.831,0,0,1-4.05-1.152c-.466-.285-.6-.626-.4-.979.209-.368.588-.413,1.08-.134a6.441,6.441,0,0,0,6.765,0c.5-.28.872-.24,1.083.122s.068.7-.432,1.008A7.808,7.808,0,0,1,3306.01,3492.009Z" transform="translate(-3301.456 -3482.247)" fill="#039"/>
        <path id="Path_17619" data-name="Path 17619" d="M3332.152,3433.78a9.694,9.694,0,0,1-.006,1.039,1.911,1.911,0,0,1-1.847,1.655.617.617,0,0,1-.7-.552.591.591,0,0,1,.564-.725.75.75,0,0,0,.725-.888c-.015-.468,0-.937,0-1.4,0-.429.188-.712.638-.717s.641.282.647.707c0,.295,0,.59,0,.885Z" transform="translate(-3326.635 -3430.872)" fill="#039"/>
        <path id="Path_17620" data-name="Path 17620" d="M3302.64,3420.893a5.673,5.673,0,0,1,0,.676.617.617,0,0,1-.638.622.6.6,0,0,1-.654-.6,9.838,9.838,0,0,1,0-1.352.615.615,0,0,1,.637-.628.624.624,0,0,1,.658.607A5.514,5.514,0,0,1,3302.64,3420.893Z" transform="translate(-3301.319 -3419.61)" fill="#039"/>
        <path id="Path_17621" data-name="Path 17621" d="M3377.262,3420.915a5.344,5.344,0,0,1-.005.671.613.613,0,0,1-.643.608.6.6,0,0,1-.648-.6,9.738,9.738,0,0,1,0-1.343.617.617,0,0,1,.669-.639.628.628,0,0,1,.63.631,6.614,6.614,0,0,1,0,.671Z" transform="translate(-3368.135 -3419.613)" fill="#039"/>
      </g>
    </g>
  </g>
</svg>
