<svg xmlns="http://www.w3.org/2000/svg" width="25.207" height="25.207" viewBox="0 0 25.207 25.207">
  <g id="Group_20862" data-name="Group 20862" transform="translate(0.354 0.354)">
    <g id="Group_20861" data-name="Group 20861" transform="translate(4.204 7.375)">
      <line id="Line_528" data-name="Line 528" x2="2" y2="2" transform="translate(0 6.75)" fill="none" stroke="#039" stroke-width="1"/>
      <line id="Line_530" data-name="Line 530" x2="2" y2="2" transform="translate(2.5 3.75)" fill="none" stroke="#039" stroke-width="1"/>
      <line id="Line_533" data-name="Line 533" x2="2" y2="2" transform="translate(5.5 1.5)" fill="none" stroke="#039" stroke-width="1"/>
      <line id="Line_529" data-name="Line 529" x2="3" y2="3" transform="translate(1.296 5.25)" fill="none" stroke="#039" stroke-width="1"/>
      <line id="Line_534" data-name="Line 534" x2="3" y2="3" transform="translate(3.796 2.5)" fill="none" stroke="#039" stroke-width="1"/>
      <line id="Line_536" data-name="Line 536" x2="3" y2="3" transform="translate(6.796)" fill="none" stroke="#039" stroke-width="1"/>
    </g>
    <path id="Path_20947" data-name="Path 20947" d="M-1181.322,10491.494l-1.307,1.281,2.045,2.105,1.381-1.379" transform="translate(1184.5 -10472)" fill="none" stroke="#44c8f5" stroke-width="1"/>
    <path id="Path_20948" data-name="Path 20948" d="M3,0,2.25.75,0,3" transform="translate(0 21.5)" fill="none" stroke="#44c8f5" stroke-width="1"/>
    <line id="Line_532" data-name="Line 532" x2="9" y2="9" transform="translate(14 1.5)" fill="none" stroke="#44c8f5" stroke-width="1"/>
    <path id="Path_20949" data-name="Path 20949" d="M-1167.151,10476.164l2.632-2.611,3.175,3.135-2.722,2.688" transform="translate(1184.5 -10472)" fill="none" stroke="#44c8f5" stroke-width="1"/>
    <path id="Path_20950" data-name="Path 20950" d="M0,0,.375.375,6,6" transform="translate(18.5)" fill="none" stroke="#44c8f5" stroke-width="1"/>
    <path id="Path_20946" data-name="Path 20946" d="M-1181.343,10491.138v-3.908l12.206-12.186,6.232,6.189-12.228,12.018-4.1.134Z" transform="translate(1184.5 -10472)" fill="none" stroke="#44c8f5" stroke-width="1"/>
  </g>
</svg>
