<svg id="filter" xmlns="http://www.w3.org/2000/svg" width="18.041" height="19.504" viewBox="0 0 18.041 19.504">
  <path id="Path_23423" data-name="Path 23423" d="M271.7,875.5a.823.823,0,0,1-.492-.163l-3.281-2.438a.822.822,0,0,1-.242-.287.811.811,0,0,1-.086-.363v-4.567l-5.755-6.414a3.154,3.154,0,0,1,.655-4.763,3.221,3.221,0,0,1,1.737-.509h11.648a3.222,3.222,0,0,1,1.736.51,3.181,3.181,0,0,1,1.179,1.362,3.148,3.148,0,0,1-.525,3.4l-5.753,6.414v7.005a.81.81,0,0,1-.24.575A.823.823,0,0,1,271.7,875.5Zm-2.461-3.657,1.64,1.219v-5.689a.806.806,0,0,1,.208-.54l5.962-6.645a1.536,1.536,0,0,0-.321-2.319,1.565,1.565,0,0,0-.845-.248H264.231a1.576,1.576,0,0,0-.845.248,1.551,1.551,0,0,0-.574.662,1.532,1.532,0,0,0,.254,1.656l5.963,6.646a.81.81,0,0,1,.207.54Z" transform="translate(-261.033 -856)" fill="#fff"/>
</svg>
