<svg xmlns="http://www.w3.org/2000/svg" width="24" height="24" viewBox="0 0 24 24">
  <g id="Group_22371" data-name="Group 22371" transform="translate(-29 -134)">
    <rect id="Rectangle_9612" data-name="Rectangle 9612" width="24" height="24" transform="translate(29 134)" fill="#fff"/>
    <g id="Group_20873" data-name="Group 20873" transform="translate(31 136)">
      <path id="Path_18239" data-name="Path 18239" d="M36.057,198.981a.834.834,0,0,1-.8-.611.817.817,0,0,1,.375-.937c2.95-1.773,2.95-5.583,2.95-7.856a2.5,2.5,0,0,1,5,0,.829.829,0,0,1-.833.833.837.837,0,0,1-.592-.244.818.818,0,0,1-.242-.589.857.857,0,0,0-.242-.589.847.847,0,0,0-.592-.244.83.83,0,0,0-.592.244.819.819,0,0,0-.242.589c0,.583,0,1.289-.069,2.307-.144,2.194-.827,5.258-3.7,6.978A.821.821,0,0,1,36.057,198.981Z" transform="translate(-31.082 -180.411)" fill="#039"/>
      <path id="Path_18240" data-name="Path 18240" d="M40.9,201a12.446,12.446,0,0,0,3.3-8.017.726.726,0,0,0-.033-.324.79.79,0,0,0-.158-.286.756.756,0,0,0-.25-.2.848.848,0,0,0-.317-.091.833.833,0,0,0-.9.759,10.755,10.755,0,0,1-2.825,6.984.857.857,0,0,0-.242.59.84.84,0,0,0,.842.833A.823.823,0,0,0,40.9,201Z" transform="translate(-31.791 -181.244)" fill="#44c8f5"/>
      <path id="Path_18241" data-name="Path 18241" d="M46.075,201.847a14.322,14.322,0,0,0,1.258-2.651.832.832,0,0,0-1.133-1.022.814.814,0,0,0-.433.457,12.976,12.976,0,0,1-1.117,2.351.787.787,0,0,0-.108.306.7.7,0,0,0,.017.325.776.776,0,0,0,.133.295.909.909,0,0,0,.242.22.847.847,0,0,0,.633.1.927.927,0,0,0,.292-.138A.729.729,0,0,0,46.075,201.847Z" transform="translate(-32.634 -182.248)" fill="#44c8f5"/>
      <path id="Path_18242" data-name="Path 18242" d="M46.755,194.069a26.179,26.179,0,0,0,.417-5.159A5.831,5.831,0,0,0,37,185.022a.778.778,0,0,0-.183.281,1.057,1.057,0,0,0-.05.327.863.863,0,0,0,.083.322.726.726,0,0,0,.192.265.864.864,0,0,0,.617.21.845.845,0,0,0,.317-.088.774.774,0,0,0,.258-.205,4.167,4.167,0,0,1,7.275,2.777,24.808,24.808,0,0,1-.383,4.841.829.829,0,0,0,.125.625.843.843,0,0,0,.533.352.773.773,0,0,0,.158.016.819.819,0,0,0,.525-.191.867.867,0,0,0,.292-.482Z" transform="translate(-31.339 -179.744)" fill="#44c8f5"/>
      <path id="Path_18243" data-name="Path 18243" d="M36.087,189.735a3.8,3.8,0,0,1,.058-.694.915.915,0,0,0,.008-.333.864.864,0,0,0-.133-.312.794.794,0,0,0-.233-.235.9.9,0,0,0-.317-.122.817.817,0,0,0-.333.012.783.783,0,0,0-.308.144.818.818,0,0,0-.225.25.841.841,0,0,0-.1.319,5.353,5.353,0,0,0-.083.972c0,3.871-1.125,5.833-3.333,5.833a.828.828,0,0,0-.592.244.833.833,0,0,0,.592,1.422C34.312,197.235,36.087,194.568,36.087,189.735Z" transform="translate(-30.254 -180.569)" fill="#44c8f5"/>
      <path id="Path_18244" data-name="Path 18244" d="M50.636,199.528a24.879,24.879,0,0,0,1.917-10.344,9.088,9.088,0,0,0-.917-3.995A.836.836,0,0,0,50.261,185a.884.884,0,0,0-.167.282.844.844,0,0,0,.042.637,7.512,7.512,0,0,1,.75,3.266,23.376,23.376,0,0,1-1.767,9.655,1.034,1.034,0,0,0-.075.317.849.849,0,0,0,.058.322.745.745,0,0,0,.167.276.827.827,0,0,0,.267.189.817.817,0,0,0,.342.075.839.839,0,0,0,.758-.488Z" transform="translate(-33.386 -180.018)" fill="#44c8f5"/>
      <path id="Path_18245" data-name="Path 18245" d="M32.921,190.743v-2.5a7.5,7.5,0,0,1,12-6,.837.837,0,0,0,.617.158.85.85,0,0,0,.55-.325.824.824,0,0,0,.158-.617.853.853,0,0,0-.325-.549,9.166,9.166,0,0,0-14.666,7.333h0v2.5a.82.82,0,0,0,.242.589.837.837,0,0,0,.592.244.829.829,0,0,0,.833-.833Z" transform="translate(-30.42 -179.077)" fill="#44c8f5"/>
    </g>
  </g>
</svg>
