<svg xmlns="http://www.w3.org/2000/svg" width="24.74" height="21.647" viewBox="0 0 24.74 21.647">
    <defs>
        <style>
            .cls-1{fill:#44c8f5}.cls-2{fill:#039}
        </style>
    </defs>
    <g id="Group_11578" data-name="Group 11578" transform="translate(-31.604 -1379.436)">
        <path id="Path_962" data-name="Path 962" class="cls-1" d="M12.107 21.555h-9.53A2.58 2.58 0 0 1 0 18.978V5.577A2.58 2.58 0 0 1 2.577 3h19.586a2.58 2.58 0 0 1 2.577 2.577v11.585a.515.515 0 1 1-1.031 0V5.577a1.548 1.548 0 0 0-1.546-1.546H2.577a1.548 1.548 0 0 0-1.546 1.546v13.4a1.548 1.548 0 0 0 1.546 1.546h9.53a.515.515 0 0 1 0 1.031z" transform="translate(31.604 1376.436)"/>
        <path id="Path_963" data-name="Path 963" class="cls-1" d="M7.731 16.247H.515A.516.516 0 0 1 0 15.731V8.515A.516.516 0 0 1 .515 8h7.216a2.58 2.58 0 0 1 2.577 2.577v3.093a2.58 2.58 0 0 1-2.577 2.577zm-6.7-1.031h6.7a1.548 1.548 0 0 0 1.546-1.546v-3.093a1.548 1.548 0 0 0-1.546-1.546h-6.7z" transform="translate(31.604 1376.59)"/>
        <path id="Path_964" data-name="Path 964" class="cls-1" d="M5.062 14.123a2.062 2.062 0 1 1 2.062-2.062 2.064 2.064 0 0 1-2.062 2.062zm0-3.093a1.031 1.031 0 1 0 1.031 1.031 1.032 1.032 0 0 0-1.031-1.03z" transform="translate(31.697 1376.652)"/>
        <path id="Path_960" data-name="Path 960" class="cls-2" d="M17.7 24.4a6.7 6.7 0 1 1 6.7-6.7 6.708 6.708 0 0 1-6.7 6.7zm0-12.37a5.67 5.67 0 1 0 5.67 5.67 5.676 5.676 0 0 0-5.67-5.669z" transform="translate(31.944 1376.683)"/>
        <path id="Path_961" data-name="Path 961" class="cls-2" d="M20.092 20.7a.521.521 0 0 1-.323-.112l-2.577-2.062a.519.519 0 0 1-.193-.4v-3.611a.515.515 0 1 1 1.031 0v3.361l2.384 1.907a.515.515 0 0 1-.323.917z" transform="translate(32.129 1376.776)"/>
    </g>
</svg>
