<svg xmlns="http://www.w3.org/2000/svg" width="21.994" height="19.244" viewBox="0 0 21.994 19.244">
  <g id="Group_21583" data-name="Group 21583" transform="translate(-277.771 -187.965)">
    <g id="Group_12107" data-name="Group 12107" transform="translate(246.166 -1191.472)">
      <path id="Path_962" data-name="Path 962" d="M10.763,19.5H2.291A2.294,2.294,0,0,1,0,17.2V5.291A2.294,2.294,0,0,1,2.291,3H19.7a2.294,2.294,0,0,1,2.291,2.291v10.3a.458.458,0,0,1-.916,0V5.291A1.376,1.376,0,0,0,19.7,3.916H2.291A1.376,1.376,0,0,0,.916,5.291V17.2a1.376,1.376,0,0,0,1.375,1.375h8.472a.458.458,0,0,1,0,.916Z" transform="translate(31.604 1376.436)" fill="#44c8f5"/>
      <path id="Path_963" data-name="Path 963" d="M6.873,15.331H.458A.458.458,0,0,1,0,14.873V8.458A.458.458,0,0,1,.458,8H6.873a2.294,2.294,0,0,1,2.291,2.291V13.04A2.294,2.294,0,0,1,6.873,15.331ZM.916,14.415H6.873A1.376,1.376,0,0,0,8.248,13.04V10.291A1.376,1.376,0,0,0,6.873,8.916H.916Z" transform="translate(31.604 1376.018)" fill="#44c8f5"/>
      <path id="Path_964" data-name="Path 964" d="M4.833,13.666a1.833,1.833,0,1,1,1.833-1.833A1.835,1.835,0,0,1,4.833,13.666Zm0-2.749a.916.916,0,1,0,.916.916A.917.917,0,0,0,4.833,10.916Z" transform="translate(31.353 1375.851)" fill="#44c8f5"/>
      <path id="Path_960" data-name="Path 960" d="M16.957,22.913a5.957,5.957,0,1,1,5.957-5.957A5.963,5.963,0,0,1,16.957,22.913Zm0-11A5.04,5.04,0,1,0,22,16.957,5.046,5.046,0,0,0,16.957,11.916Z" transform="translate(30.685 1375.767)" fill="#039"/>
      <path id="Path_961" data-name="Path 961" d="M19.749,19.957a.463.463,0,0,1-.287-.1l-2.291-1.833A.462.462,0,0,1,17,17.666V14.458a.458.458,0,1,1,.916,0v2.987l2.12,1.7a.458.458,0,0,1-.287.816Z" transform="translate(30.183 1375.517)" fill="#039"/>
    </g>
  </g>
</svg>
