<svg xmlns="http://www.w3.org/2000/svg" width="24" height="24" viewBox="0 0 24 24">
  <g id="Group_22339" data-name="Group 22339" transform="translate(-56 -352.455)">
    <rect id="Rectangle_9526" data-name="Rectangle 9526" width="24" height="24" transform="translate(56 352.455)" fill="#fff"/>
    <g id="Group_21887" data-name="Group 21887" transform="translate(1918 3525.246)">
      <path id="Path_962" data-name="Path 962" d="M9.032,18.259H2.119A2.122,2.122,0,0,1,0,16.14V5.119A2.122,2.122,0,0,1,2.119,3H18.226a2.122,2.122,0,0,1,2.119,2.119v8.6a.424.424,0,0,1-.848,0v-8.6a1.273,1.273,0,0,0-1.272-1.272H2.119A1.273,1.273,0,0,0,.848,5.119V16.14a1.273,1.273,0,0,0,1.272,1.272H9.032a.424.424,0,1,1,0,.848Z" transform="translate(-1860 -3172.791)" fill="#44c8f5"/>
      <path id="Path_963" data-name="Path 963" d="M6.358,14.782H.424A.424.424,0,0,1,0,14.358V8.424A.424.424,0,0,1,.424,8H6.358a2.122,2.122,0,0,1,2.119,2.119v2.543A2.122,2.122,0,0,1,6.358,14.782Zm-5.51-.848h5.51A1.273,1.273,0,0,0,7.63,12.663V10.119A1.273,1.273,0,0,0,6.358,8.848H.848Z" transform="translate(-1860 -3173.552)" fill="#44c8f5"/>
      <path id="Path_964" data-name="Path 964" d="M4.7,13.391a1.7,1.7,0,1,1,1.7-1.7A1.7,1.7,0,0,1,4.7,13.391Zm0-2.543a.848.848,0,1,0,.848.848A.849.849,0,0,0,4.7,10.848Z" transform="translate(-1860.457 -3173.857)" fill="#44c8f5"/>
      <g id="Group_21886" data-name="Group 21886" transform="translate(-1849.724 -3161.465)">
        <g id="Group_21885" data-name="Group 21885">
          <g id="Path_21066" data-name="Path 21066" transform="translate(0 2.169)" fill="none">
            <path d="M2.408,0H6.42A2.342,2.342,0,0,1,8.828,2.27V5.3A2.342,2.342,0,0,1,6.42,7.567H2.408A2.342,2.342,0,0,1,0,5.3V2.27A2.342,2.342,0,0,1,2.408,0Z" stroke="none"/>
            <path d="M 2.407565116882324 0.8000030517578125 C 1.521144866943359 0.8000030517578125 0.7999954223632812 1.459433078765869 0.7999954223632812 2.269983291625977 L 0.7999954223632812 5.296633243560791 C 0.7999954223632812 6.107192993164062 1.521144866943359 6.766623497009277 2.407565116882324 6.766623497009277 L 6.420165061950684 6.766623497009277 C 7.306574821472168 6.766623497009277 8.027725219726562 6.107192993164062 8.027725219726562 5.296633243560791 L 8.027725219726562 2.269983291625977 C 8.027725219726562 1.459433078765869 7.306574821472168 0.8000030517578125 6.420165061950684 0.8000030517578125 L 2.407565116882324 0.8000030517578125 M 2.407565116882324 3.337860107421875e-06 L 6.420165061950684 3.337860107421875e-06 C 7.749825000762939 3.337860107421875e-06 8.827725410461426 1.016303062438965 8.827725410461426 2.269983291625977 L 8.827725410461426 5.296633243560791 C 8.827725410461426 6.550312995910645 7.749825000762939 7.566623210906982 6.420165061950684 7.566623210906982 L 2.407565116882324 7.566623210906982 C 1.077905178070068 7.566623210906982 -4.76837158203125e-06 6.550312995910645 -4.76837158203125e-06 5.296633243560791 L -4.76837158203125e-06 2.269983291625977 C -4.76837158203125e-06 1.016303062438965 1.077905178070068 3.337860107421875e-06 2.407565116882324 3.337860107421875e-06 Z" stroke="none" fill="#039"/>
          </g>
          <g id="Rectangle_9525" data-name="Rectangle 9525" transform="translate(2.522)" fill="none" stroke="#039" stroke-width="0.8">
            <path d="M1.85,0h0A1.85,1.85,0,0,1,3.7,1.85v.925a0,0,0,0,1,0,0H0a0,0,0,0,1,0,0V1.85A1.85,1.85,0,0,1,1.85,0Z" stroke="none"/>
            <path d="M1.85.4h0A1.45,1.45,0,0,1,3.3,1.85v.525a0,0,0,0,1,0,0H.4a0,0,0,0,1,0,0V1.85A1.45,1.45,0,0,1,1.85.4Z" fill="none"/>
          </g>
          <line id="Line_717" data-name="Line 717" y2="0.71" transform="translate(4.414 6.583)" fill="none" stroke="#039" stroke-linecap="round" stroke-width="0.8"/>
        </g>
      </g>
    </g>
  </g>
</svg>
