<svg xmlns="http://www.w3.org/2000/svg" xmlns:xlink="http://www.w3.org/1999/xlink" width="106" height="106" viewBox="0 0 106 106">
  <defs>
    <filter id="Path_24401" x="0" y="0" width="106" height="106" filterUnits="userSpaceOnUse">
      <feOffset dy="3" input="SourceAlpha"/>
      <feGaussianBlur stdDeviation="5" result="blur"/>
      <feFlood flood-color="#789fb7" flood-opacity="0.161"/>
      <feComposite operator="in" in2="blur"/>
      <feComposite in="SourceGraphic"/>
    </filter>
    <filter id="Path_24383" x="27.042" y="13.778" width="56.23" height="24.649" filterUnits="userSpaceOnUse">
      <feOffset dy="20" input="SourceAlpha"/>
      <feGaussianBlur stdDeviation="15" result="blur-2"/>
      <feFlood flood-color="#e9ef4b" flood-opacity="0.161" result="color"/>
      <feComposite operator="out" in="SourceGraphic" in2="blur-2"/>
      <feComposite operator="in" in="color"/>
      <feComposite operator="in" in2="SourceGraphic"/>
    </filter>
    <filter id="Path_24382" x="13.596" y="8.421" width="38.096" height="57.703" filterUnits="userSpaceOnUse">
      <feOffset dy="20" input="SourceAlpha"/>
      <feGaussianBlur stdDeviation="15" result="blur-3"/>
      <feFlood flood-color="#e9ef4b" flood-opacity="0.161" result="color-2"/>
      <feComposite operator="out" in="SourceGraphic" in2="blur-3"/>
      <feComposite operator="in" in="color-2"/>
      <feComposite operator="in" in2="SourceGraphic"/>
    </filter>
    <filter id="Path_24378" x="66.32" y="23.234" width="23.733" height="55.99" filterUnits="userSpaceOnUse">
      <feOffset dy="20" input="SourceAlpha"/>
      <feGaussianBlur stdDeviation="15" result="blur-4"/>
      <feFlood flood-color="#e9ef4b" flood-opacity="0.161" result="color-3"/>
      <feComposite operator="out" in="SourceGraphic" in2="blur-4"/>
      <feComposite operator="in" in="color-3"/>
      <feComposite operator="in" in2="SourceGraphic"/>
    </filter>
    <filter id="Path_24377" x="32.603" y="50.478" width="56.937" height="43.104" filterUnits="userSpaceOnUse">
      <feOffset dy="20" input="SourceAlpha"/>
      <feGaussianBlur stdDeviation="15" result="blur-5"/>
      <feFlood flood-color="#e9ef4b" flood-opacity="0.161" result="color-4"/>
      <feComposite operator="out" in="SourceGraphic" in2="blur-5"/>
      <feComposite operator="in" in="color-4"/>
      <feComposite operator="in" in2="SourceGraphic"/>
    </filter>
    <filter id="Path_24379" x="7.526" y="41.147" width="54.706" height="48.59" filterUnits="userSpaceOnUse">
      <feOffset dy="20" input="SourceAlpha"/>
      <feGaussianBlur stdDeviation="15" result="blur-6"/>
      <feFlood flood-color="#e9ef4b" flood-opacity="0.161" result="color-5"/>
      <feComposite operator="out" in="SourceGraphic" in2="blur-6"/>
      <feComposite operator="in" in="color-5"/>
      <feComposite operator="in" in2="SourceGraphic"/>
    </filter>
  </defs>
  <g id="flagIcon" transform="translate(7.595 8.485)">
    <g transform="matrix(1, 0, 0, 1, -7.59, -8.48)" filter="url(#Path_24401)">
      <path id="Path_24401-2" data-name="Path 24401" d="M38,0A38,38,0,1,1,0,38,38,38,0,0,1,38,0Z" transform="translate(15 12)" fill="#f3f3f3"/>
    </g>
    <g id="Group_28916" data-name="Group 28916" transform="translate(-5119 -3210.643)" opacity="0.49">
      <g id="Group_27748" data-name="Group 27748" transform="translate(5138.499 3215.991)">
        <g data-type="innerShadowGroup">
          <path id="Path_24383-2" data-name="Path 24383" d="M28.593,0c6.374,0,22.528,6.121,25.85,18.978C48.823,9.242,34.454,3.7,28.464,3.7S7.792,5.481,0,18.978C7.56,1.842,22.219,0,28.593,0Z" transform="matrix(0.995, -0.105, 0.105, 0.995, 0, 5.691)" fill="#039"/>
          <g transform="matrix(1, 0, 0, 1, -27.09, -13.83)" filter="url(#Path_24383)">
            <path id="Path_24383-3" data-name="Path 24383" d="M28.593,0c6.374,0,22.528,6.121,25.85,18.978C48.823,9.242,34.454,3.7,28.464,3.7S7.792,5.481,0,18.978C7.56,1.842,22.219,0,28.593,0Z" transform="matrix(0.99, -0.1, 0.1, 0.99, 27.09, 19.52)" fill="#fff"/>
          </g>
          <path id="Path_24383-4" data-name="Path 24383" d="M28.593,0c6.374,0,22.528,6.121,25.85,18.978C48.823,9.242,34.454,3.7,28.464,3.7S7.792,5.481,0,18.978C7.56,1.842,22.219,0,28.593,0Z" transform="matrix(0.995, -0.105, 0.105, 0.995, 0, 5.691)" fill="none" stroke="#039" stroke-width="0.1"/>
        </g>
      </g>
      <g data-type="innerShadowGroup">
        <path id="Path_24382-2" data-name="Path 24382" d="M28.593,0c6.374,0,22.528,6.121,25.85,18.978C48.822,9.242,34.454,3.7,28.464,3.7S7.792,5.481,0,18.978C7.56,1.842,22.219,0,28.593,0Z" transform="matrix(0.375, -0.927, 0.927, 0.375, 5125.065, 3261.121)" fill="#039"/>
        <g transform="matrix(1, 0, 0, 1, 5111.41, 3202.16)" filter="url(#Path_24382)">
          <path id="Path_24382-3" data-name="Path 24382" d="M28.593,0c6.374,0,22.528,6.121,25.85,18.978C48.822,9.242,34.454,3.7,28.464,3.7S7.792,5.481,0,18.978C7.56,1.842,22.219,0,28.593,0Z" transform="matrix(0.37, -0.93, 0.93, 0.37, 13.66, 58.96)" fill="#fff"/>
        </g>
        <path id="Path_24382-4" data-name="Path 24382" d="M28.593,0c6.374,0,22.528,6.121,25.85,18.978C48.822,9.242,34.454,3.7,28.464,3.7S7.792,5.481,0,18.978C7.56,1.842,22.219,0,28.593,0Z" transform="matrix(0.375, -0.927, 0.927, 0.375, 5125.065, 3261.121)" fill="none" stroke="#039" stroke-width="0.1"/>
      </g>
      <g data-type="innerShadowGroup">
        <path id="Path_24378-2" data-name="Path 24378" d="M28.593,0c6.374,0,22.528,6.121,25.85,18.978C48.822,9.242,34.454,3.7,28.464,3.7S7.792,5.481,0,18.978C7.56,1.842,22.219,0,28.593,0Z" transform="translate(5196.66 3225.443) rotate(85)" fill="#039"/>
        <g transform="matrix(1, 0, 0, 1, 5111.41, 3202.16)" filter="url(#Path_24378)">
          <path id="Path_24378-3" data-name="Path 24378" d="M28.593,0c6.374,0,22.528,6.121,25.85,18.978C48.822,9.242,34.454,3.7,28.464,3.7S7.792,5.481,0,18.978C7.56,1.842,22.219,0,28.593,0Z" transform="translate(85.25 23.28) rotate(85)" fill="#fff"/>
        </g>
        <path id="Path_24378-4" data-name="Path 24378" d="M28.593,0c6.374,0,22.528,6.121,25.85,18.978C48.822,9.242,34.454,3.7,28.464,3.7S7.792,5.481,0,18.978C7.56,1.842,22.219,0,28.593,0Z" transform="translate(5196.66 3225.443) rotate(85)" fill="none" stroke="#039" stroke-width="0.1"/>
      </g>
      <g data-type="innerShadowGroup">
        <path id="Path_24377-2" data-name="Path 24377" d="M28.593,0c6.374,0,22.528,6.121,25.85,18.978C48.823,9.242,34.454,3.7,28.464,3.7S7.792,5.481,0,18.978C7.56,1.842,22.219,0,28.593,0Z" transform="translate(5200.88 3269.279) rotate(151)" fill="#039"/>
        <g transform="matrix(1, 0, 0, 1, 5111.41, 3202.16)" filter="url(#Path_24377)">
          <path id="Path_24377-3" data-name="Path 24377" d="M28.593,0c6.374,0,22.528,6.121,25.85,18.978C48.823,9.242,34.454,3.7,28.464,3.7S7.792,5.481,0,18.978C7.56,1.842,22.219,0,28.593,0Z" transform="translate(89.47 67.12) rotate(151)" fill="#fff"/>
        </g>
        <path id="Path_24377-4" data-name="Path 24377" d="M28.593,0c6.374,0,22.528,6.121,25.85,18.978C48.823,9.242,34.454,3.7,28.464,3.7S7.792,5.481,0,18.978C7.56,1.842,22.219,0,28.593,0Z" transform="translate(5200.88 3269.279) rotate(151)" fill="none" stroke="#039" stroke-width="0.1"/>
      </g>
      <g data-type="innerShadowGroup">
        <path id="Path_24379-2" data-name="Path 24379" d="M28.593,0c6.374,0,22.528,6.121,25.85,18.978C48.823,9.242,34.454,3.7,28.464,3.7S7.792,5.481,0,18.978C7.56,1.842,22.219,0,28.593,0Z" transform="translate(5161.902 3291.828) rotate(-142)" fill="#039"/>
        <g transform="matrix(1, 0, 0, 1, 5111.41, 3202.16)" filter="url(#Path_24379)">
          <path id="Path_24379-3" data-name="Path 24379" d="M28.593,0c6.374,0,22.528,6.121,25.85,18.978C48.823,9.242,34.454,3.7,28.464,3.7S7.792,5.481,0,18.978C7.56,1.842,22.219,0,28.593,0Z" transform="translate(50.5 89.67) rotate(-142)" fill="#fff"/>
        </g>
        <path id="Path_24379-4" data-name="Path 24379" d="M28.593,0c6.374,0,22.528,6.121,25.85,18.978C48.823,9.242,34.454,3.7,28.464,3.7S7.792,5.481,0,18.978C7.56,1.842,22.219,0,28.593,0Z" transform="translate(5161.902 3291.828) rotate(-142)" fill="none" stroke="#039" stroke-width="0.1"/>
      </g>
    </g>
    <g id="Group_28108" data-name="Group 28108" transform="translate(15300.494 -6566.146)">
      <g id="Group_28105" data-name="Group 28105" transform="translate(-15270.23 6589.947)">
        <path id="Path_73239" data-name="Path 73239" d="M-15265.186,6575.3v-31.054l-1.342-1.306-1.24,1.306V6575.3Z" transform="translate(15269.114 -6539.392)" fill="#868689"/>
        <circle id="Ellipse_1429" data-name="Ellipse 1429" cx="2.702" cy="2.702" r="2.702" transform="translate(0 0)" fill="#868689"/>
      </g>
      <path id="Path_73240" data-name="Path 73240" d="M-15264.2,6544.68v17.513h29.242l-5.384-8.884,5.384-8.629Z" transform="translate(-2.07 50.382)" fill="#e31313"/>
    </g>
  </g>
</svg>
