<svg xmlns="http://www.w3.org/2000/svg" width="21.017" height="21.017" viewBox="0 0 21.017 21.017">
  <g id="Group_21578" data-name="Group 21578" transform="translate(-566.001 -4858.52)">
    <g id="Group_20872" data-name="Group 20872" transform="translate(559.135 4850.3)">
      <g id="Icon-Question" transform="translate(6.866 8.22)">
        <path id="Fill-47" d="M-159.292-248.783A10.508,10.508,0,0,1-169.8-259.292,10.508,10.508,0,0,1-159.292-269.8a10.508,10.508,0,0,1,10.508,10.508,10.508,10.508,0,0,1-10.508,10.508Zm0-19.874a9.4,9.4,0,0,0-9.365,9.365,9.4,9.4,0,0,0,9.365,9.365,9.4,9.4,0,0,0,9.365-9.365,9.373,9.373,0,0,0-9.365-9.365Z" transform="translate(169.8 269.8)" fill="#44c8f5"/>
        <path id="Fill-48" d="M-153.578-256.463a3.016,3.016,0,0,1,.58-1.1,2.83,2.83,0,0,1,.943-.693,3.111,3.111,0,0,1,1.269-.244,3.037,3.037,0,0,1,1.052.2,3.244,3.244,0,0,1,.87.53,2.273,2.273,0,0,1,.58.855,2.94,2.94,0,0,1,.218,1.181,2.908,2.908,0,0,1-.326,1.426,5.969,5.969,0,0,1-.834,1.141l-.653.733a1.54,1.54,0,0,0-.363.53,1.48,1.48,0,0,0-.145.611,5.291,5.291,0,0,0-.036.856h-.834a3.431,3.431,0,0,1,.073-.937,3.286,3.286,0,0,1,.254-.855,4.159,4.159,0,0,1,.471-.733c.218-.244.435-.489.725-.774a2.754,2.754,0,0,0,.616-.856,2.163,2.163,0,0,0,.254-1.059,2.019,2.019,0,0,0-.145-.815,3.738,3.738,0,0,0-.4-.652,1.153,1.153,0,0,0-.616-.407,2.123,2.123,0,0,0-.725-.163,2.2,2.2,0,0,0-.943.2,1.662,1.662,0,0,0-.689.57,2.257,2.257,0,0,0-.4.856,2.883,2.883,0,0,0-.109.978h-.834a3.375,3.375,0,0,1,.145-1.385Zm2.176,7.129h1.015v1.141H-151.4Z" transform="translate(161.41 263.855)" fill="#039"/>
      </g>
    </g>
  </g>
</svg>
