<svg xmlns="http://www.w3.org/2000/svg" width="36" height="36" viewBox="0 0 36 36">
  <g id="gift_icon" data-name="gift icon" transform="translate(-36 -2184.434)">
    <g id="Ellipse_539" data-name="Ellipse 539" transform="translate(36 2184.434)" fill="#fff" stroke="#aceaff" stroke-width="1">
      <circle cx="18" cy="18" r="18" stroke="none"/>
      <circle cx="18" cy="18" r="17.5" fill="none"/>
    </g>
    <path id="Path_22281" data-name="Path 22281" d="M8.567,2.254A1.724,1.724,0,0,0,6.809,3.937a1.625,1.625,0,0,0,.436,1.1H3.879A.884.884,0,0,0,3,5.914V8.258a.881.881,0,0,0,.586.824v8.29a1.16,1.16,0,0,0,1.172,1.14h12.3a1.16,1.16,0,0,0,1.172-1.14V9.082a.882.882,0,0,0,.586-.824V5.914a.884.884,0,0,0-.879-.879H14.576a1.626,1.626,0,0,0,.436-1.1,1.724,1.724,0,0,0-1.758-1.683h-.175a1.95,1.95,0,0,0-1.785,1.017,4.612,4.612,0,0,0-.383.948,4.609,4.609,0,0,0-.382-.948A1.95,1.95,0,0,0,8.743,2.254Zm0,.586h.176a1.264,1.264,0,0,1,1.275.721,7.068,7.068,0,0,1,.488,1.474H8.567a1.128,1.128,0,0,1-1.172-1.1A1.128,1.128,0,0,1,8.567,2.84Zm4.512,0h.175a1.128,1.128,0,0,1,1.172,1.1,1.128,1.128,0,0,1-1.172,1.1H11.317A7.072,7.072,0,0,1,11.8,3.561,1.266,1.266,0,0,1,13.079,2.84Zm-9.2,2.781H8.694A2.611,2.611,0,0,0,7.688,7.668a.293.293,0,1,0,.586,0,2.053,2.053,0,0,1,2.068-2.047h.276v2.93H3.879a.286.286,0,0,1-.293-.293V5.914A.286.286,0,0,1,3.879,5.621Zm7.324,0h.276a2.053,2.053,0,0,1,2.068,2.047.293.293,0,1,0,.586,0,2.612,2.612,0,0,0-1.007-2.047h4.816a.286.286,0,0,1,.293.293V8.258a.286.286,0,0,1-.293.293H11.2ZM4.172,9.137h6.445v8.789H4.758a.563.563,0,0,1-.586-.554Zm7.031,0h6.445v8.235a.563.563,0,0,1-.586.554H11.2Z" transform="translate(43.572 2192.051)" fill="#039"/>
  </g>
</svg>
