<svg id="giftn-bottom_part" data-name="giftn-bottom part" xmlns="http://www.w3.org/2000/svg" width="157.958" height="147.3" viewBox="0 0 157.958 147.3">
  <path id="Path_21801" data-name="Path 21801" d="M78.6,0,.4,26.852,0,119.447,77.983,97.425Z" transform="translate(0 -0.001)" fill="#99293a"/>
  <path id="Path_21802" data-name="Path 21802" d="M237.2,0l-.618,97.424,79.574,22.71.4-91.713Z" transform="translate(-158.604 -0.001)" fill="#d93b52"/>
  <path id="Path_21803" data-name="Path 21803" d="M0,174.058l77.762,27.854.426-97.444L.4,81.463Z" transform="translate(0 -54.612)" fill="#ef405b"/>
  <path id="Path_21804" data-name="Path 21804" d="M236.341,107.66l-.426,97.444,79.8-27.166.4-91.713Z" transform="translate(-158.154 -57.805)" fill="#bf3449"/>
  <path id="Path_21805" data-name="Path 21805" d="M237.18,107.66l-.013,3.064L316.94,88.686l.011-2.46Z" transform="translate(-158.993 -57.805)" fill="#99293a"/>
  <path id="Path_21806" data-name="Path 21806" d="M1.206,81.463,1.2,83.755l77.779,23.776.014-3.064Z" transform="translate(-0.802 -54.612)" fill="#bf3449"/>
  <path id="Path_21807" data-name="Path 21807" d="M67.008,196.053l19.16,6.863-2.6-96.06L68.74,102.472Z" transform="translate(-44.921 -68.696)" fill="#5dadec"/>
  <path id="Path_21808" data-name="Path 21808" d="M350.48,207.509l18.312-6.424-3.77-92.365-14.986,4.027Z" transform="translate(-234.659 -72.884)" fill="#4289c1"/>
</svg>
