<svg xmlns="http://www.w3.org/2000/svg" width="13.496" height="15" viewBox="0 0 13.496 15">
  <path id="GIFT_BLUE_ICON" data-name="GIFT  BLUE ICON" d="M14.247,5.748h-.262a2.587,2.587,0,0,0,.262-1.125,2.617,2.617,0,0,0-4.5-1.83,2.617,2.617,0,0,0-4.5,1.83,2.587,2.587,0,0,0,.262,1.125H5.249A2.249,2.249,0,0,0,3,8V9.5a.75.75,0,0,0,.75.75H4.5v4.5a2.249,2.249,0,0,0,2.249,2.249h6A2.249,2.249,0,0,0,15,14.745v-4.5h.75a.75.75,0,0,0,.75-.75V8A2.249,2.249,0,0,0,14.247,5.748ZM9,15.5H6.749a.75.75,0,0,1-.75-.75v-4.5H9ZM9,8.747H4.5V8a.75.75,0,0,1,.75-.75H9Zm0-3H7.874A1.125,1.125,0,1,1,9,4.623Zm1.5-1.125a1.125,1.125,0,1,1,1.125,1.125H10.5Zm3,10.122a.75.75,0,0,1-.75.75H10.5V10.247h3Zm1.5-6H10.5v-1.5h3.749A.75.75,0,0,1,15,8Z" transform="translate(-3 -1.995)" fill="#44c8f5"/>
</svg>
