<svg id="giftBox" xmlns="http://www.w3.org/2000/svg" xmlns:xlink="http://www.w3.org/1999/xlink" width="163.379" height="169.809" viewBox="0 0 163.379 169.809">
  <defs>
    <clipPath id="clip-path">
      <rect id="Rectangle_9951" data-name="Rectangle 9951" width="82.92" height="45.14" fill="none"/>
    </clipPath>
    <clipPath id="clip-path-3">
      <rect id="Rectangle_9947" data-name="Rectangle 9947" width="12.561" height="3.956" fill="none"/>
    </clipPath>
    <clipPath id="clip-path-4">
      <rect id="Rectangle_9949" data-name="Rectangle 9949" width="4.625" height="4.508" fill="none"/>
    </clipPath>
  </defs>
  <g id="Group_27802" data-name="Group 27802" transform="translate(-4079.077 -1741.156)">
    <g id="Group_21097" data-name="Group 21097" transform="translate(4142.49 1836.972)">
      <path id="Path_21801" data-name="Path 21801" d="M39.483,0,.2,13.489,0,60,39.173,48.94Z" transform="translate(0 -0.001)" fill="#99293a"/>
      <path id="Path_21802" data-name="Path 21802" d="M236.9,0l-.31,48.939,39.972,11.408.2-46.07Z" transform="translate(-197.414 -0.001)" fill="#d93b52"/>
      <path id="Path_21803" data-name="Path 21803" d="M0,127.976l39.062,13.992.214-48.949L.2,81.463Z" transform="translate(0 -67.975)" fill="#ef405b"/>
      <path id="Path_21804" data-name="Path 21804" d="M236.129,96.993l-.214,48.949L276,132.3l.2-46.07Z" transform="translate(-196.854 -71.949)" fill="#bf3449"/>
      <path id="Path_21805" data-name="Path 21805" d="M237.173,96.993l-.007,1.539,40.072-11.071.005-1.236Z" transform="translate(-197.898 -71.949)" fill="#99293a"/>
      <path id="Path_21806" data-name="Path 21806" d="M1.2,81.463l0,1.151L40.267,94.558l.007-1.539Z" transform="translate(-0.998 -67.975)" fill="#bf3449"/>
      <path id="Path_21807" data-name="Path 21807" d="M67.008,149.48l9.625,3.447-1.308-48.254-7.446-2.2Z" transform="translate(-55.913 -85.505)" fill="#5dadec"/>
      <path id="Path_21808" data-name="Path 21808" d="M350.259,158.345l9.2-3.227-1.894-46.4-7.528,2.023Z" transform="translate(-292.079 -90.719)" fill="#4289c1"/>
    </g>
    <g id="Group_21110" data-name="Group 21110" transform="translate(4141 1786)">
      <g id="Group_21109" data-name="Group 21109" clip-path="url(#clip-path)">
        <path id="Path_21809" data-name="Path 21809" d="M0,127.551l40.77,12.057.066-15.072L.062,113.276Z" transform="translate(0 -94.469)" fill="#ef405b"/>
        <g id="Group_21108" data-name="Group 21108">
          <g id="Group_21107" data-name="Group 21107" clip-path="url(#clip-path)">
            <path id="Path_21810" data-name="Path 21810" d="M245.618,130.046c.445-.128,41.667-10.163,41.667-10.163l.417,13.874-1.969.566-40.182,10.8Z" transform="translate(-204.782 -99.979)" fill="#bf3449"/>
            <path id="Path_21811" data-name="Path 21811" d="M.376,71.852l40.858-8.247,41.582,9.344L41.148,83.113Z" transform="translate(-0.313 -53.045)" fill="#ff667d"/>
            <path id="Path_21812" data-name="Path 21812" d="M82.223,135.88h0l5.074,1.4Z" transform="translate(-68.572 -113.32)" fill="#ffd5ca"/>
            <path id="Path_21813" data-name="Path 21813" d="M85.951,137.281l-5.074-1.4-.268,14.481,7.467,2.208-.4-14.811Z" transform="translate(-67.225 -113.32)" fill="#5dadec"/>
            <path id="Path_21814" data-name="Path 21814" d="M357.41,145l.161,14.553,7.548-2.028-.43-14.3L357.41,145" transform="translate(-298.069 -119.446)" fill="#4289c1"/>
            <path id="Path_21815" data-name="Path 21815" d="M89.02,94.756l44.223-8.54-8.448-1.9L82.223,92.879Z" transform="translate(-68.571 -70.318)" fill="#8ccaf7"/>
            <path id="Path_21816" data-name="Path 21816" d="M166.269,91.435,128.215,80.4,135.187,79l38.361,10.664Z" transform="translate(-106.927 -65.881)" fill="#8ccaf7"/>
            <path id="Path_21817" data-name="Path 21817" d="M108.657,55.384a7.794,7.794,0,0,1-2.424.061,92.246,92.246,0,0,1-14.967-2.512A18.3,18.3,0,0,1,84.79,50.27a5.606,5.606,0,0,1-1.757-1.948,2.988,2.988,0,0,1-.119-2.557c.595-1.265,2.124-1.745,3.5-2A20.372,20.372,0,0,1,92.8,43.5a30.372,30.372,0,0,1,5.678,1.529,20.748,20.748,0,0,1,3.252,1.315,16.483,16.483,0,0,1,2.558,1.791A39.964,39.964,0,0,1,108.37,52a7.628,7.628,0,0,1,1.67,2c.3.851-.673,1.224-1.384,1.39" transform="translate(-68.951 -36.155)" fill="#5dadec"/>
            <path id="Path_21818" data-name="Path 21818" d="M115.044,51.364a1.323,1.323,0,0,1-.9.09c-4.9-.729-9.029-4.042-13.779-5.459-2.626-.784-5.4-.974-8.04-1.7-.767-.211-1.652-.614-1.751-1.4a1.865,1.865,0,0,1,1.019-1.617c1.967-1.31,4.507-1.383,6.852-1.09a26.215,26.215,0,0,1,13.895,6.222,11.148,11.148,0,0,1,2.1,2.319c.315.49,1.342,2.173.6,2.639" transform="translate(-75.527 -33.394)" fill="#4289c1"/>
            <path id="Path_21819" data-name="Path 21819" d="M97.959,10.386a18.146,18.146,0,0,0-4.993-2.776,7.758,7.758,0,0,0-5.6.139,7.494,7.494,0,0,0-3.408,3.493,8.907,8.907,0,0,0-1.43,5.384c1.968-4.4,12.836-.509,18.543,2.068a24.314,24.314,0,0,1,8.525,6.434c.174.2,1.046-1.062,1.1-1.207.22-.64-.028-.86-.427-1.323-.91-1.056-1.725-2.2-2.633-3.257a56.681,56.681,0,0,0-5.935-5.979q-1.8-1.566-3.737-2.975" transform="translate(-68.798 -5.969)" fill="#8ccaf7"/>
            <g id="Group_21100" data-name="Group 21100" transform="translate(15.846 2.856)" opacity="0.31">
              <g id="Group_21099" data-name="Group 21099">
                <g id="Group_21098" data-name="Group 21098" clip-path="url(#clip-path-3)">
                  <path id="Path_21820" data-name="Path 21820" d="M97.745,17.838a4.77,4.77,0,0,1,1.938-.588,12.006,12.006,0,0,1,7.761,2.341,1.259,1.259,0,0,1,.523.533.451.451,0,0,1-.262.611.667.667,0,0,1-.4-.1,20.727,20.727,0,0,0-3.059-1.18,4.424,4.424,0,0,0-3.108-.066,8.541,8.541,0,0,0-1.5,1.119,2.179,2.179,0,0,1-1.726.562,6.176,6.176,0,0,0-.99-.3c-.27-.012-1.277.522-1.445.344s.269-.828.361-1a5.513,5.513,0,0,1,1.9-2.281" transform="translate(-95.439 -17.201)" fill="#fff"/>
                </g>
              </g>
            </g>
            <path id="Path_21821" data-name="Path 21821" d="M169.748,120.209a10.648,10.648,0,0,0-.493,3.462,62.957,62.957,0,0,0,.348,8.134l2.051-2.772c1.563,2.082,3.313,4.288,5.823,4.974a19.453,19.453,0,0,1-1.631-5.816,8.1,8.1,0,0,1,1.53-5.72,12.9,12.9,0,0,1,2.385-2.111,39.7,39.7,0,0,0,4.689-3.972,3.461,3.461,0,0,0,1.279-2.626c-.156-1.294-1.618-2.039-2.92-2.079a5.579,5.579,0,0,0-3.219.93,19.619,19.619,0,0,0-1.79,1.776,10.913,10.913,0,0,1-3.2,1.381,10.275,10.275,0,0,0-2.758,1.594,6.791,6.791,0,0,0-2.1,2.846" transform="translate(-141.14 -93.138)" fill="#8ccaf7"/>
            <path id="Path_21822" data-name="Path 21822" d="M276.533,99.952c3.427-.266,6.81-.947,10.233-1.265a23.614,23.614,0,0,1,10.188.9,9.58,9.58,0,0,1,2.647,1.387c2.651,2.057,3.457,5.788,3.082,9.122l2.79-4.786a21.474,21.474,0,0,1,1.79,4.546,8.637,8.637,0,0,0-4.666-12.1,16.772,16.772,0,0,0-3.058-.717c-1.984-.332-3.971-.642-5.958-.951-3.282-.512-6.567-1.024-9.877-1.29-3.164-.255-6.588-.215-9.184,1.611a2.711,2.711,0,0,0-.7,2.793c.389,1.025,1.815.811,2.71.741" transform="translate(-228.251 -78.972)" fill="#8ccaf7"/>
            <path id="Path_21823" data-name="Path 21823" d="M269.45,49.413a7.794,7.794,0,0,0,2.422-.122,92.237,92.237,0,0,0,14.735-3.632,18.306,18.306,0,0,0,6.257-3.143,5.609,5.609,0,0,0,1.606-2.075,2.989,2.989,0,0,0-.074-2.559c-.688-1.216-2.25-1.581-3.639-1.729a20.376,20.376,0,0,0-6.388.213,30.375,30.375,0,0,0-5.546,1.953,20.737,20.737,0,0,0-3.144,1.556,16.472,16.472,0,0,0-2.416,1.978,39.956,39.956,0,0,0-3.784,4.163,7.628,7.628,0,0,0-1.515,2.116c-.235.872.764,1.17,1.484,1.282" transform="translate(-223.445 -30.023)" fill="#5dadec"/>
            <path id="Path_21824" data-name="Path 21824" d="M276.1,45.168a1.323,1.323,0,0,0,.908.022c4.834-1.1,8.7-4.71,13.329-6.481,2.56-.98,5.308-1.378,7.889-2.3.749-.268,1.6-.737,1.64-1.531a1.866,1.866,0,0,0-1.138-1.536c-2.061-1.158-4.6-1.039-6.915-.57a26.213,26.213,0,0,0-13.387,7.25,11.15,11.15,0,0,0-1.923,2.471c-.277.513-1.174,2.267-.4,2.677" transform="translate(-230.007 -27.049)" fill="#4289c1"/>
            <path id="Path_21825" data-name="Path 21825" d="M274.46,3.826A18.14,18.14,0,0,1,279.23.683a7.757,7.757,0,0,1,5.6-.283,7.493,7.493,0,0,1,3.661,3.226,8.907,8.907,0,0,1,1.831,5.261c-2.294-4.243-12.838.458-18.335,3.458a24.317,24.317,0,0,0-8.017,7.057c-.158.218-1.123-.981-1.184-1.121-.268-.622-.037-.86.326-1.352.828-1.122,1.555-2.319,2.38-3.446a56.7,56.7,0,0,1,5.468-6.409q1.682-1.7,3.5-3.248" transform="translate(-219.056 0)" fill="#8ccaf7"/>
            <g id="Group_21103" data-name="Group 21103" transform="translate(61.877 0.838)" opacity="0.31">
              <g id="Group_21102" data-name="Group 21102">
                <path id="Path_21826" data-name="Path 21826" d="M372.7,5.725c.079.422.521.656.911.836,1.289.593,2.661,1.376,3.11,2.721a2.685,2.685,0,0,0,.4.969,1.824,1.824,0,0,0,1.143.463l1.367.21c.233.036.513.055.661-.129a.586.586,0,0,0,.1-.363,3.872,3.872,0,0,0-1.039-2.319q-.631-.813-1.314-1.584a4.375,4.375,0,0,0-1.628-1.3,9.113,9.113,0,0,0-2.514-.144c-.451-.044-1.352-.2-1.2.641" transform="translate(-372.682 -5.044)" fill="#fff"/>
              </g>
            </g>
            <path id="Path_21827" data-name="Path 21827" d="M229.828,80.458a3.36,3.36,0,0,0-1.3,1.854,4.241,4.241,0,0,0-.089,1.2,8.806,8.806,0,0,0,.3,1.923,2.366,2.366,0,0,0,.433.937,2.408,2.408,0,0,0,1.133.643,9.936,9.936,0,0,0,5.764.078,2.425,2.425,0,0,0,1.713-1.238,2.558,2.558,0,0,0,.121-.9,8.94,8.94,0,0,0-.266-2.5,4.108,4.108,0,0,0-1.309-2.105,4.3,4.3,0,0,0-2.179-.845,5.943,5.943,0,0,0-4.326.947" transform="translate(-190.506 -66.257)" fill="#8ccaf7"/>
            <path id="Path_21828" data-name="Path 21828" d="M239.554,85.583a4.109,4.109,0,0,0-1.308-2.105,3.362,3.362,0,0,0-.419-.286,4.764,4.764,0,0,1,.468,1.112,8.939,8.939,0,0,1,.266,2.5,2.557,2.557,0,0,1-.121.9,2.425,2.425,0,0,1-1.713,1.238,9.936,9.936,0,0,1-5.764-.077c-.081-.026-.163-.054-.244-.084a2.037,2.037,0,0,0,.37.72,2.408,2.408,0,0,0,1.133.643,9.938,9.938,0,0,0,5.764.078A2.425,2.425,0,0,0,239.7,88.98a2.558,2.558,0,0,0,.121-.9,8.939,8.939,0,0,0-.266-2.5" transform="translate(-192.412 -69.379)" fill="#5dadec"/>
            <g id="Group_21106" data-name="Group 21106" transform="translate(38.903 14.044)" opacity="0.31">
              <g id="Group_21105" data-name="Group 21105">
                <g id="Group_21104" data-name="Group 21104" clip-path="url(#clip-path-4)">
                  <path id="Path_21829" data-name="Path 21829" d="M234.906,85.645a4.55,4.55,0,0,0-.591,2.32,1.377,1.377,0,0,0,.044.537,1.022,1.022,0,0,0,.91.587.853.853,0,0,0,.595-.138c.362-.282.255-.839.287-1.3a1.838,1.838,0,0,1,1.515-1.639,7.1,7.1,0,0,0,.739-.084.664.664,0,0,0,.52-.474c.136-.8-1.364-.9-1.885-.867a2.767,2.767,0,0,0-2.134,1.055" transform="translate(-234.309 -84.585)" fill="#fff"/>
                </g>
              </g>
            </g>
          </g>
        </g>
      </g>
    </g>
  </g>
  <g id="Group_27803" data-name="Group 27803" transform="translate(-195.077 -98.746)">
    <path id="Path_22941" data-name="Path 22941" d="M1.034,0,0,3.944l5.236,2.2,1.1-3.879Z" transform="translate(322.81 120.346)" fill="#5373f4"/>
    <path id="Path_22942" data-name="Path 22942" d="M6.586,1.551A6.737,6.737,0,0,0,4.008,2.78,8.119,8.119,0,0,0,2.457,5.236L0,3.814a7.238,7.238,0,0,1,2-2.65A4.809,4.809,0,0,1,4.784,0Z" transform="translate(299.421 122.272)" fill="#ed9173"/>
    <path id="Path_22943" data-name="Path 22943" d="M1.357,0A6.409,6.409,0,0,0,2.844,2.521a5.5,5.5,0,0,0,2.2,1.1L4.2,6.206A4.834,4.834,0,0,1,1.357,4.849,5.462,5.462,0,0,1,0,2.069Z" transform="translate(278.979 110.454)" fill="#5373f4"/>
    <path id="Path_22997" data-name="Path 22997" d="M1.357,0A6.409,6.409,0,0,0,2.844,2.521a5.5,5.5,0,0,0,2.2,1.1L4.2,6.206A4.834,4.834,0,0,1,1.357,4.849,5.462,5.462,0,0,1,0,2.069Z" transform="translate(201.222 145.727) rotate(82)" fill="#5373f4"/>
    <path id="Path_22944" data-name="Path 22944" d="M0,3.814,3.426,0A5.939,5.939,0,0,0,6.012,2.78,15,15,0,0,0,10.6,4.331L7.434,8.21A7.837,7.837,0,0,1,2.586,6.723C.388,5.043,0,3.814,0,3.814" transform="translate(325.977 102.237)" fill="#f5c54b"/>
    <path id="Path_22998" data-name="Path 22998" d="M0,3.814,3.426,0A5.939,5.939,0,0,0,6.012,2.78,15,15,0,0,0,10.6,4.331L7.434,8.21A7.837,7.837,0,0,1,2.586,6.723C.388,5.043,0,3.814,0,3.814" transform="translate(216.335 124.726) rotate(112)" fill="#f5c54b"/>
    <path id="Path_22947" data-name="Path 22947" d="M3.915,0a4.15,4.15,0,0,0-.937,2.327,5.521,5.521,0,0,0,.937,2.586H.715A4.439,4.439,0,0,1,0,2.457,3.632,3.632,0,0,1,1.039,0Z" transform="translate(304.049 101.675)" fill="#ed9173"/>
    <path id="Path_22990" data-name="Path 22990" d="M3.915,0a4.15,4.15,0,0,0-.937,2.327,5.521,5.521,0,0,0,.937,2.586H.715A4.439,4.439,0,0,1,0,2.457,3.632,3.632,0,0,1,1.039,0Z" transform="translate(245.714 104.959)" fill="#ed9173"/>
    <path id="Path_22952" data-name="Path 22952" d="M1.164,0,0,2.2,4.525,3.491,5.818,1.164Z" transform="translate(273.161 99.271)" fill="#eb86a8"/>
    <path id="Path_22991" data-name="Path 22991" d="M1.164,0,0,2.2,4.525,3.491,5.818,1.164Z" transform="matrix(0.208, -0.978, 0.978, 0.208, 222.758, 143.53)" fill="#eb86a8"/>
    <path id="Path_22986" data-name="Path 22986" d="M1.164,0,0,2.2,4.525,3.491,5.818,1.164Z" transform="translate(351.539 98.746)" fill="#eb86a8"/>
    <path id="Path_22953" data-name="Path 22953" d="M1.553,0,0,2.217A3.221,3.221,0,0,0,.947,3.963a5,5,0,0,0,2.009.972l1.383-2.05a6.522,6.522,0,0,1-1.86-1.049A4.086,4.086,0,0,1,1.553,0" transform="translate(339.883 124.02)" fill="#eb86a8"/>
    <path id="Path_22999" data-name="Path 22999" d="M1.553,0,0,2.217A3.221,3.221,0,0,0,.947,3.963a5,5,0,0,0,2.009.972l1.383-2.05a6.522,6.522,0,0,1-1.86-1.049A4.086,4.086,0,0,1,1.553,0" transform="translate(248.08 126.064) rotate(93)" fill="#eb86a8"/>
    <path id="Path_22989" data-name="Path 22989" d="M1.553,0,0,2.217A3.221,3.221,0,0,0,.947,3.963a5,5,0,0,0,2.009.972l1.383-2.05a6.522,6.522,0,0,1-1.86-1.049A4.086,4.086,0,0,1,1.553,0" transform="translate(352.278 158.208)" fill="#eb86a8"/>
    <path id="Path_22994" data-name="Path 22994" d="M1.534,0,0,2.189A3.18,3.18,0,0,0,.935,3.913a4.933,4.933,0,0,0,1.983.96L4.284,2.848A6.44,6.44,0,0,1,2.448,1.812,4.034,4.034,0,0,1,1.534,0" transform="matrix(0.105, 0.995, -0.995, 0.105, 210.024, 104.965)" fill="#eb86a8"/>
    <path id="Path_22955" data-name="Path 22955" d="M1.771,0,0,2.029v4.4L1.875,4.292Z" transform="translate(349.664 112.053)" fill="#ed9173"/>
    <path id="Path_23001" data-name="Path 23001" d="M1.771,0,0,2.029v4.4L1.875,4.292Z" transform="translate(265.664 125.807)" fill="#ed9173"/>
    <path id="Path_22995" data-name="Path 22995" d="M1.771,0,0,2.029v4.4L1.875,4.292Z" transform="translate(230.993 107.894) rotate(-135)" fill="#ed9173"/>
    <path id="Path_22983" data-name="Path 22983" d="M1.771,0,0,2.029v4.4L1.875,4.292Z" transform="translate(344.846 142.793) rotate(45)" fill="#ed9173"/>
    <path id="Path_22996" data-name="Path 22996" d="M.152,0,2.735.674v1.46L0,1.426Z" transform="translate(240.991 163.143) rotate(45)" fill="#ed9173"/>
    <path id="Path_22958" data-name="Path 22958" d="M.582,0,0,5.754,3.555,6.788l.453-5.753Z" transform="translate(354.448 130.568)" fill="#5373f4"/>
    <path id="Path_23000" data-name="Path 23000" d="M.582,0,0,5.754,3.555,6.788l.453-5.753Z" transform="translate(245.502 142.793)" fill="#5373f4"/>
  </g>
</svg>
