<svg xmlns="http://www.w3.org/2000/svg" width="31" height="30" viewBox="0 0 31 30">
  <g id="Group_21899" data-name="Group 21899" transform="translate(-275 -266)">
    <g id="ingot" transform="translate(274.99 266)">
      <path id="Path_15543" data-name="Path 15543" d="M20.275,15.264H7.4A1.865,1.865,0,0,1,5.89,14.5a1.929,1.929,0,0,1-.3-1.726L7.528,6.359A1.887,1.887,0,0,1,9.337,5h9a1.886,1.886,0,0,1,1.809,1.36l1.937,6.415a1.929,1.929,0,0,1-.3,1.726A1.869,1.869,0,0,1,20.275,15.264ZM9.337,6.283a.611.611,0,0,0-.581.448L6.819,13.145a.657.657,0,0,0,.1.589.59.59,0,0,0,.48.246H20.274a.593.593,0,0,0,.481-.246.665.665,0,0,0,.1-.589L18.919,6.731a.611.611,0,0,0-.581-.448Z" transform="translate(1.555)" fill="#44c8f5"/>
      <path id="Path_15544" data-name="Path 15544" d="M14.8,22.264H1.911A1.876,1.876,0,0,1,.4,21.5a1.948,1.948,0,0,1-.309-1.731l1.95-6.421A1.893,1.893,0,0,1,3.846,12h9.02a1.9,1.9,0,0,1,1.808,1.361l1.946,6.407a1.954,1.954,0,0,1-.309,1.737,1.872,1.872,0,0,1-1.509.758ZM3.846,13.283a.6.6,0,0,0-.576.437L1.32,20.142a.674.674,0,0,0,.106.594.6.6,0,0,0,.485.245H14.8a.6.6,0,0,0,.484-.245.678.678,0,0,0,.105-.6l-1.946-6.407a.608.608,0,0,0-.579-.444Z" transform="translate(0 1.981)" fill="#44c8f5"/>
      <path id="Path_15545" data-name="Path 15545" d="M25.646,22.264H12.753A1.73,1.73,0,0,1,11.8,22a.641.641,0,1,1,.693-1.079.465.465,0,0,0,.257.065H25.646a.6.6,0,0,0,.484-.245.68.68,0,0,0,.105-.6l-1.946-6.408a.605.605,0,0,0-.577-.445H14.689a.606.606,0,0,0-.576.436l-1.348,4.434a.642.642,0,0,1-1.228-.373l1.346-4.426A1.894,1.894,0,0,1,14.689,12h9.022a1.9,1.9,0,0,1,1.808,1.36l1.946,6.408a1.949,1.949,0,0,1-.308,1.737,1.877,1.877,0,0,1-1.511.758Z" transform="translate(3.254 1.981)" fill="#44c8f5"/>
      <path id="Path_15546" data-name="Path 15546" d="M8.645,12.132a.682.682,0,0,1-.187-.027.641.641,0,0,1-.426-.8L9.207,7.455A.639.639,0,0,1,9.819,7h5.233a.641.641,0,0,1,0,1.283H10.3L9.259,11.678a.642.642,0,0,1-.613.454Z" transform="translate(2.262 0.566)" fill="#039"/>
      <path id="Path_15547" data-name="Path 15547" d="M3.65,19.132a.681.681,0,0,1-.187-.027.641.641,0,0,1-.426-.8l1.175-3.849A.641.641,0,0,1,4.826,14h5.233a.641.641,0,1,1,0,1.283H5.3L4.264,18.678a.64.64,0,0,1-.613.454Z" transform="translate(0.849 2.546)" fill="#039"/>
      <path id="Path_15548" data-name="Path 15548" d="M14.638,19.132a.681.681,0,0,1-.187-.027.642.642,0,0,1-.426-.8L15.2,14.454A.641.641,0,0,1,15.814,14h5.233a.641.641,0,1,1,0,1.283H16.29l-1.037,3.395A.644.644,0,0,1,14.638,19.132Z" transform="translate(3.958 2.546)" fill="#039"/>
    </g>
    <rect id="Rectangle_9509" data-name="Rectangle 9509" width="30" height="30" transform="translate(276 266)" fill="none"/>
  </g>
</svg>
