<svg xmlns="http://www.w3.org/2000/svg" width="24" height="24" viewBox="0 0 24 24">
  <g id="Group_22306" data-name="Group 22306" transform="translate(-2804 -4142)">
    <g id="Group_22303" data-name="Group 22303" transform="translate(2754.625 4144.236)">
      <g id="Group_22246" data-name="Group 22246" transform="translate(49 -2)">
        <rect id="Rectangle_9572" data-name="Rectangle 9572" width="24" height="24" transform="translate(0.375 -0.236)" fill="#fff"/>
        <g id="Group_22245" data-name="Group 22245" transform="translate(1.375 0.248)">
          <g id="Group_22243" data-name="Group 22243" transform="translate(13.865 18.185)">
            <path id="Path_21133" data-name="Path 21133" d="M18.185,16.847H12.1a.817.817,0,0,1-.448-.127.3.3,0,1,1,.327-.51.219.219,0,0,0,.121.031h6.088a.282.282,0,0,0,.228-.116.321.321,0,0,0,.05-.284l-.919-3.026a.286.286,0,0,0-.273-.21h-4.26a.286.286,0,0,0-.272.206L12.1,14.906a.3.3,0,0,1-.58-.176l.636-2.09A.894.894,0,0,1,13.011,12h4.26a.9.9,0,0,1,.854.642l.919,3.026a.92.92,0,0,1-.145.82A.886.886,0,0,1,18.185,16.847Z" transform="translate(-11.509 -12)" fill="#44c8f5" stroke="#44c8f5" stroke-width="0.2"/>
            <path id="Path_21134" data-name="Path 21134" d="M14.3,16.423a.322.322,0,0,1-.088-.013.3.3,0,0,1-.2-.379l.555-1.818a.3.3,0,0,1,.29-.214h2.471a.3.3,0,1,1,0,.606H15.08l-.49,1.6A.3.3,0,0,1,14.3,16.423Z" transform="translate(-12.49 -12.788)" fill="#039"/>
          </g>
          <path id="Path_15543" data-name="Path 15543" d="M12.481,9.847H6.4a.881.881,0,0,1-.713-.361.911.911,0,0,1-.141-.815l.915-3.029A.891.891,0,0,1,7.315,5h4.251a.891.891,0,0,1,.854.642l.915,3.029a.911.911,0,0,1-.141.815A.883.883,0,0,1,12.481,9.847ZM7.315,5.606a.289.289,0,0,0-.274.211L6.126,8.847a.31.31,0,0,0,.048.278.279.279,0,0,0,.227.116h6.08a.28.28,0,0,0,.227-.116.314.314,0,0,0,.048-.278L11.84,5.817a.289.289,0,0,0-.274-.211Z" transform="translate(1.399 4.483)" fill="#44c8f5" stroke="#44c8f5" stroke-width="0.2"/>
          <path id="Path_15544" data-name="Path 15544" d="M7,16.847H.908a.886.886,0,0,1-.714-.359.92.92,0,0,1-.146-.817l.921-3.032A.894.894,0,0,1,1.821,12h4.26a.9.9,0,0,1,.854.643l.919,3.026a.923.923,0,0,1-.146.82A.884.884,0,0,1,7,16.847ZM1.821,12.606a.286.286,0,0,0-.272.207L.628,15.845a.319.319,0,0,0,.05.281.284.284,0,0,0,.229.116H7a.283.283,0,0,0,.228-.116.32.32,0,0,0,.05-.284l-.919-3.026a.287.287,0,0,0-.273-.21Z" transform="translate(3.565 1.724)" fill="#44c8f5" stroke="#44c8f5" stroke-width="0.2"/>
          <path id="Path_15545" data-name="Path 15545" d="M18.185,16.847H12.1a.817.817,0,0,1-.448-.127.3.3,0,1,1,.327-.51.219.219,0,0,0,.121.031h6.088a.282.282,0,0,0,.228-.116.321.321,0,0,0,.05-.284l-.919-3.026a.286.286,0,0,0-.273-.21h-4.26a.286.286,0,0,0-.272.206L12.1,14.906a.3.3,0,0,1-.58-.176l.636-2.09A.894.894,0,0,1,13.011,12h4.26a.9.9,0,0,1,.854.642l.919,3.026a.92.92,0,0,1-.145.82A.886.886,0,0,1,18.185,16.847Z" transform="translate(-0.967 1.724)" fill="#44c8f5" stroke="#44c8f5" stroke-width="0.2"/>
          <path id="Path_15546" data-name="Path 15546" d="M8.307,9.423a.322.322,0,0,1-.088-.013.3.3,0,0,1-.2-.378l.555-1.818A.3.3,0,0,1,8.861,7h2.471a.3.3,0,0,1,0,.606H9.086l-.49,1.6A.3.3,0,0,1,8.307,9.423Z" transform="translate(0.414 3.695)" fill="#039"/>
          <path id="Path_15547" data-name="Path 15547" d="M3.312,16.423a.322.322,0,0,1-.088-.013.3.3,0,0,1-.2-.378l.555-1.818A.3.3,0,0,1,3.867,14H6.338a.3.3,0,1,1,0,.606H4.091l-.49,1.6a.3.3,0,0,1-.29.214Z" transform="translate(2.383 0.936)" fill="#039"/>
          <path id="Path_15548" data-name="Path 15548" d="M14.3,16.423a.322.322,0,0,1-.088-.013.3.3,0,0,1-.2-.379l.555-1.818a.3.3,0,0,1,.29-.214h2.471a.3.3,0,1,1,0,.606H15.08l-.49,1.6A.3.3,0,0,1,14.3,16.423Z" transform="translate(-1.948 0.936)" fill="#039"/>
          <path id="Path_21132" data-name="Path 21132" d="M14.3,16.423a.322.322,0,0,1-.088-.013.3.3,0,0,1-.2-.379l.555-1.818a.3.3,0,0,1,.29-.214h2.471a.3.3,0,1,1,0,.606H15.08l-.49,1.6A.3.3,0,0,1,14.3,16.423Z" transform="translate(-5.523 5.397)" fill="#039"/>
          <path id="Path_21129" data-name="Path 21129" d="M7,16.847H.908a.886.886,0,0,1-.714-.359.92.92,0,0,1-.146-.817l.921-3.032A.894.894,0,0,1,1.821,12h4.26a.9.9,0,0,1,.854.643l.919,3.026a.923.923,0,0,1-.146.82A.884.884,0,0,1,7,16.847ZM1.821,12.606a.286.286,0,0,0-.272.207L.628,15.845a.319.319,0,0,0,.05.281.284.284,0,0,0,.229.116H7a.283.283,0,0,0,.228-.116.32.32,0,0,0,.05-.284l-.919-3.026a.287.287,0,0,0-.273-.21Z" transform="translate(-0.01 6.185)" fill="#44c8f5" stroke="#44c8f5" stroke-width="0.2"/>
          <path id="Path_21130" data-name="Path 21130" d="M3.312,16.423a.322.322,0,0,1-.088-.013.3.3,0,0,1-.2-.378l.555-1.818A.3.3,0,0,1,3.867,14H6.338a.3.3,0,1,1,0,.606H4.091l-.49,1.6a.3.3,0,0,1-.29.214Z" transform="translate(-1.192 5.397)" fill="#039"/>
          <path id="Path_21131" data-name="Path 21131" d="M18.185,16.847H12.1a.817.817,0,0,1-.448-.127.3.3,0,1,1,.327-.51.219.219,0,0,0,.121.031h6.088a.282.282,0,0,0,.228-.116.321.321,0,0,0,.05-.284l-.919-3.026a.286.286,0,0,0-.273-.21h-4.26a.286.286,0,0,0-.272.206L12.1,14.906a.3.3,0,0,1-.58-.176l.636-2.09A.894.894,0,0,1,13.011,12h4.26a.9.9,0,0,1,.854.642l.919,3.026a.92.92,0,0,1-.145.82A.886.886,0,0,1,18.185,16.847Z" transform="translate(-4.543 6.185)" fill="#44c8f5" stroke="#44c8f5" stroke-width="0.2"/>
          <g id="Group_22244" data-name="Group 22244" transform="translate(6.425)">
            <g id="Ellipse_1401" data-name="Ellipse 1401" fill="#fff" stroke="#039" stroke-width="0.5">
              <circle cx="4.329" cy="4.329" r="4.329" stroke="none"/>
              <circle cx="4.329" cy="4.329" r="4.079" fill="none"/>
            </g>
            <path id="loan" d="M23.819,27.973a.323.323,0,1,0,0,.646h.646a.966.966,0,0,1,.912.656H23.819a.323.323,0,1,0,0,.646H25.37a.967.967,0,0,1-.906.636h-.646a.323.323,0,0,0-.323.323.014.014,0,0,0,0,.005.319.319,0,0,0,.093.233l1.937,1.937a.323.323,0,0,0,.457-.457L24.577,31.19a1.612,1.612,0,0,0,1.467-1.27H26.4a.323.323,0,1,0,0-.646h-.354a1.6,1.6,0,0,0-.3-.656H26.4a.323.323,0,1,0,0-.646H23.819Z" transform="translate(-20.739 -26.028)" fill="#039" stroke="#039" stroke-width="0.1"/>
          </g>
        </g>
      </g>
    </g>
  </g>
</svg>
