<svg xmlns="http://www.w3.org/2000/svg" width="17.092" height="10.682" viewBox="0 0 17.092 10.682">
    <defs>
        <style>
            .cls-1{fill:#44c8f5}.cls-2{fill:#039}
        </style>
    </defs>
    <g id="ingot" transform="translate(-0.01 -5)">
        <path id="Path_15543" d="M13.7 10.7H6.557a1.035 1.035 0 0 1-.838-.424 1.071 1.071 0 0 1-.166-.958l1.075-3.564a1.047 1.047 0 0 1 1-.754h5a1.047 1.047 0 0 1 1 .755l1.075 3.561a1.071 1.071 0 0 1-.166.958 1.037 1.037 0 0 1-.837.426zM7.632 5.712a.339.339 0 0 0-.323.249l-1.075 3.56a.365.365 0 0 0 .056.327.327.327 0 0 0 .266.137H13.7a.329.329 0 0 0 .267-.137.369.369 0 0 0 .056-.327l-1.072-3.56a.339.339 0 0 0-.323-.249z" class="cls-1" transform="translate(-1.582)"/>
        <path id="Path_15544" d="M8.221 17.7H1.065a1.042 1.042 0 0 1-.839-.422 1.081 1.081 0 0 1-.172-.961l1.082-3.564a1.051 1.051 0 0 1 1-.751h5.01a1.052 1.052 0 0 1 1 .756l1.08 3.556a1.084 1.084 0 0 1-.172.964 1.039 1.039 0 0 1-.837.421zm-6.082-4.988a.336.336 0 0 0-.32.243L.737 16.519a.374.374 0 0 0 .059.33.334.334 0 0 0 .269.136h7.156a.333.333 0 0 0 .268-.136.377.377 0 0 0 .058-.334l-1.08-3.556a.338.338 0 0 0-.321-.246z" class="cls-1" transform="translate(0 -2.015)"/>
        <path id="Path_15545" d="M19.356 17.7H12.2a.96.96 0 0 1-.527-.149.356.356 0 1 1 .385-.6.258.258 0 0 0 .142.036h7.156a.331.331 0 0 0 .268-.136.377.377 0 0 0 .058-.333L18.6 12.959a.336.336 0 0 0-.32-.247h-5.006a.337.337 0 0 0-.32.242l-.748 2.461a.356.356 0 0 1-.682-.207l.747-2.457a1.051 1.051 0 0 1 1-.751h5.008a1.052 1.052 0 0 1 1 .755l1.08 3.557a1.082 1.082 0 0 1-.171.964 1.042 1.042 0 0 1-.839.421z" class="cls-1" transform="translate(-3.31 -2.015)"/>
        <path id="Path_15546" d="M8.36 9.849a.378.378 0 0 1-.1-.015.356.356 0 0 1-.236-.444l.652-2.136A.355.355 0 0 1 9.012 7h2.9a.356.356 0 0 1 0 .712H9.276L8.7 9.6a.356.356 0 0 1-.34.252z" class="cls-2" transform="translate(-2.301 -0.576)"/>
        <path id="Path_15547" d="M3.365 16.849a.378.378 0 0 1-.1-.015.356.356 0 0 1-.236-.444l.652-2.136A.356.356 0 0 1 4.017 14h2.9a.356.356 0 1 1 0 .712H4.281L3.705 16.6a.355.355 0 0 1-.34.252z" class="cls-2" transform="translate(-0.863 -2.591)"/>
        <path id="Path_15548" d="M14.353 16.849a.378.378 0 0 1-.1-.015.356.356 0 0 1-.236-.445l.652-2.136a.356.356 0 0 1 .34-.252h2.9a.356.356 0 0 1 0 .712H15.27l-.576 1.887a.358.358 0 0 1-.341.249z" class="cls-2" transform="translate(-4.026 -2.591)"/>
    </g>
</svg>
