<svg xmlns="http://www.w3.org/2000/svg" width="31.642" height="19.775" viewBox="0 0 31.642 19.775">
  <g id="Group_21603" data-name="Group 21603" transform="translate(-55.179 -370.955)">
    <g id="ingot" transform="translate(55.169 365.955)">
      <path id="Path_15543" data-name="Path 15543" d="M20.683,15.547H7.452A1.916,1.916,0,0,1,5.9,14.761a1.982,1.982,0,0,1-.307-1.773L7.584,6.4A1.939,1.939,0,0,1,9.443,5h9.25a1.938,1.938,0,0,1,1.859,1.4l1.991,6.592a1.982,1.982,0,0,1-.307,1.773A1.92,1.92,0,0,1,20.683,15.547ZM9.443,6.318a.628.628,0,0,0-.6.46L6.855,13.37a.675.675,0,0,0,.1.605.606.606,0,0,0,.493.253h13.23a.609.609,0,0,0,.494-.253.683.683,0,0,0,.1-.605L19.29,6.778a.628.628,0,0,0-.6-.46Z" transform="translate(1.75)" fill="#44c8f5"/>
      <path id="Path_15544" data-name="Path 15544" d="M15.211,22.547H1.964a1.928,1.928,0,0,1-1.553-.78,2,2,0,0,1-.318-1.778l2-6.6A1.945,1.945,0,0,1,3.952,12h9.269a1.948,1.948,0,0,1,1.858,1.4l2,6.584a2.007,2.007,0,0,1-.318,1.785,1.924,1.924,0,0,1-1.55.779ZM3.952,13.318a.621.621,0,0,0-.592.45l-2,6.6a.693.693,0,0,0,.109.61.619.619,0,0,0,.5.252H15.211a.616.616,0,0,0,.5-.252.7.7,0,0,0,.108-.618l-2-6.584a.625.625,0,0,0-.595-.456Z" transform="translate(0 2.229)" fill="#44c8f5"/>
      <path id="Path_15545" data-name="Path 15545" d="M26.036,22.547H12.788a1.777,1.777,0,0,1-.976-.276.659.659,0,1,1,.712-1.109.477.477,0,0,0,.264.067H26.036a.614.614,0,0,0,.5-.252.7.7,0,0,0,.108-.617l-2-6.585a.622.622,0,0,0-.593-.457H14.777a.623.623,0,0,0-.592.448L12.8,18.323a.659.659,0,0,1-1.262-.384l1.383-4.548A1.946,1.946,0,0,1,14.777,12h9.271a1.948,1.948,0,0,1,1.858,1.4l2,6.585a2,2,0,0,1-.316,1.785,1.929,1.929,0,0,1-1.553.779Z" transform="translate(3.661 2.229)" fill="#44c8f5"/>
      <path id="Path_15546" data-name="Path 15546" d="M8.663,12.273a.7.7,0,0,1-.192-.028.659.659,0,0,1-.438-.823L9.241,7.468A.657.657,0,0,1,9.87,7h5.378a.659.659,0,0,1,0,1.318h-4.89L9.293,11.807a.659.659,0,0,1-.63.467Z" transform="translate(2.545 0.637)" fill="#039"/>
      <path id="Path_15547" data-name="Path 15547" d="M3.668,19.273a.7.7,0,0,1-.192-.028.659.659,0,0,1-.438-.823l1.208-3.955A.659.659,0,0,1,4.876,14h5.378a.659.659,0,0,1,0,1.318H5.364L4.3,18.807a.658.658,0,0,1-.63.467Z" transform="translate(0.955 2.865)" fill="#039"/>
      <path id="Path_15548" data-name="Path 15548" d="M14.656,19.273a.7.7,0,0,1-.192-.028.66.66,0,0,1-.438-.824l1.208-3.955a.659.659,0,0,1,.63-.467h5.378a.659.659,0,1,1,0,1.318H16.353l-1.065,3.488A.662.662,0,0,1,14.656,19.273Z" transform="translate(4.453 2.865)" fill="#039"/>
    </g>
  </g>
</svg>
