<svg id="graphicalView" xmlns="http://www.w3.org/2000/svg" width="44.951" height="45" viewBox="0 0 44.951 45">
  <g id="Group_24015" data-name="Group 24015" transform="translate(11 15)">
    <path id="Path_21330" data-name="Path 21330" d="M-19877.59-1236.341h21.713" transform="translate(19877.59 1249.807)" fill="#989ba8" stroke="#989ba8" stroke-linecap="round" stroke-width="3"/>
    <rect id="Rectangle_10599" data-name="Rectangle 10599" width="4.056" height="8.112" rx="0.5" transform="translate(2.068 5.408)" fill="#989ba8"/>
    <rect id="Rectangle_10600" data-name="Rectangle 10600" width="4.056" height="10.816" rx="0.5" transform="translate(8.828 2.704)" fill="#989ba8"/>
    <rect id="Rectangle_10601" data-name="Rectangle 10601" width="4.056" height="13.52" rx="0.5" transform="translate(15.59)" fill="#989ba8"/>
  </g>
  <g id="Subtraction_16" data-name="Subtraction 16" fill="#989ba8">
    <path d="M 22.45050048828125 44.5 C 16.57427978515625 44.5 11.0498104095459 42.21171188354492 6.894750118255615 38.05664825439453 C 5.119490146636963 36.28137969970703 3.675710201263428 34.24935913085938 2.603510141372681 32.01702117919922 C 1.614930033683777 29.96094512939453 0.9595518708229065 27.77127456665039 0.652248740196228 25.50020027160645 L 3.686782598495483 25.50020027160645 C 5.145088672637939 34.65267944335938 13.13491630554199 41.50040054321289 22.45050048828125 41.50040054321289 C 27.23894882202148 41.50040054321289 31.78471946716309 39.72190475463867 35.30400085449219 36.48186874389648 L 37.54801177978516 38.50255966186523 C 33.45124816894531 42.37422561645508 28.11094284057617 44.5 22.45050048828125 44.5 Z M 40.77774047851562 34.68305587768555 L 38.5121955871582 32.64270782470703 C 40.43624114990234 29.60573577880859 41.45090103149414 26.10857582092285 41.45090103149414 22.5 C 41.45090103149414 18.3264045715332 40.05575561523438 14.23641872406006 37.51358795166016 10.93090724945068 L 39.69101333618164 8.828403472900391 C 41.17332458496094 10.68967437744141 42.33215713500977 12.75746154785156 43.13895034790039 14.98227977752686 C 44.00923156738281 17.38209915161133 44.45050048828125 19.91143035888672 44.45050048828125 22.5 C 44.45050048828125 26.88277244567871 43.18241119384766 31.08262825012207 40.77774047851562 34.68305587768555 Z M 3.554795265197754 20.49970054626465 L 0.5400813221931458 20.49970054626465 C 0.7599679231643677 18.03619384765625 1.384535908699036 15.65679264068604 2.399350166320801 13.41944026947021 C 3.490030288696289 11.01535034179688 5.002540111541748 8.836440086364746 6.894830226898193 6.943270206451416 C 11.0498104095459 2.788290023803711 16.57427978515625 0.5 22.45050048828125 0.5 C 25.0505199432373 0.5 27.5900993347168 0.9448599815368652 29.99868011474609 1.822229981422424 C 32.22708129882812 2.633967638015747 34.29695892333984 3.798938035964966 36.15884399414062 5.288406848907471 L 33.97186279296875 7.400325775146484 C 30.67535400390625 4.881731986999512 26.60183715820312 3.499599933624268 22.45050048828125 3.499599933624268 C 12.77529430389404 3.499599933624268 4.563690185546875 10.93004322052002 3.554795265197754 20.49970054626465 Z" stroke="none"/>
    <path d="M 22.45050048828125 44 C 27.80018997192383 44 32.8574333190918 42.05693817138672 36.8056526184082 38.50691986083984 L 35.30382919311523 37.15455627441406 C 31.74139785766602 40.28628158569336 27.2127799987793 42.00040054321289 22.45050048828125 42.00040054321289 C 13.03323268890381 42.00040054321289 4.936107158660889 35.18184280395508 3.26492714881897 26.00020027160645 L 1.232148170471191 26.00020027160645 C 1.559813380241394 28.01691627502441 2.170844316482544 29.96328544616699 3.054220199584961 31.80055046081543 C 4.101930141448975 33.98191070556641 5.513030052185059 35.96781158447266 7.248310089111328 37.70309066772461 C 11.30893039703369 41.76372146606445 16.70783996582031 44 22.45050048828125 44 M 40.67704772949219 33.91949844360352 C 42.82205200195312 30.51201820373535 43.95050048828125 26.58747863769531 43.95050048828125 22.5 C 43.95050048828125 19.96973037719727 43.51930999755859 17.49774932861328 42.66889953613281 15.15272998809814 C 41.94297790527344 13.15091228485107 40.92530059814453 11.27916145324707 39.63754272460938 9.575076103210449 L 38.17854309082031 10.98387050628662 C 40.61720275878906 14.31152629852295 41.95090103149414 18.36571311950684 41.95090103149414 22.5 C 41.95090103149414 26.06191444396973 40.98741149902344 29.51850700378418 39.15704727172852 32.55058670043945 L 40.67704772949219 33.91949844360352 M 3.110028505325317 19.99970054626465 C 4.350421905517578 10.39506816864014 12.67216014862061 2.999599933624268 22.45050048828125 2.999599933624268 C 26.5674991607666 2.999599933624268 30.60987854003906 4.324014663696289 33.9302978515625 6.745396614074707 L 35.39711380004883 5.328923225402832 C 33.69606018066406 4.039929866790771 31.82704925537109 3.020392656326294 29.82753944396973 2.292030096054077 C 27.47397041320801 1.434700012207031 24.99197959899902 1 22.45050048828125 1 C 16.70783996582031 1 11.30893039703369 3.236279964447021 7.248470306396484 7.296740055084229 C 5.398760318756104 9.147299766540527 3.920470237731934 11.27678966522217 2.854700326919556 13.62596988677979 C 1.938177943229675 15.64662265777588 1.347425580024719 17.78617095947266 1.093601703643799 19.99970054626465 L 3.110028505325317 19.99970054626465 M 22.45050048828125 45 C 16.44073104858398 45 10.79069995880127 42.65969848632812 6.541200160980225 38.41019821166992 C 4.725950241088867 36.59495162963867 3.249480247497559 34.51681137084961 2.152800321578979 32.23350143432617 C 1.059470295906067 29.95956039428711 0.3645402491092682 27.52593040466309 0.08730024099349976 25.00020027160645 L 4.118400096893311 25.00020027160645 C 5.356740474700928 34.1221809387207 13.23741054534912 41.00040054321289 22.45050048828125 41.00040054321289 C 27.2640495300293 41.00040054321289 31.82607078552246 39.15423965454102 35.29619979858398 35.80199813842773 L 38.28060150146484 38.48939895629883 C 34.04206848144531 42.68833923339844 28.42015075683594 45 22.45050048828125 45 Z M 40.8671989440918 35.43569946289062 L 40.86629867553711 35.43569946289062 L 37.86030197143555 32.72850036621094 C 39.88212966918945 29.69124984741211 40.95090103149414 26.15473937988281 40.95090103149414 22.5 C 40.95090103149414 18.28757095336914 39.49129104614258 14.16275024414062 36.8409309387207 10.8853702545166 L 39.73464965820312 8.091219902038574 C 41.41893005371094 10.1046199798584 42.72196197509766 12.36573028564453 43.60900115966797 14.8118200302124 C 44.49914932250977 17.26643943786621 44.95050048828125 19.85312080383301 44.95050048828125 22.5 C 44.95050048828125 27.1760196685791 43.5388298034668 31.64879989624023 40.86809921264648 35.43479919433594 L 40.8671989440918 35.43569946289062 Z M 4.010400295257568 20.99970054626465 L 2.44140608174348e-07 20.99970054626465 C 0.1772702485322952 18.28475952148438 0.8316702246665955 15.66526031494141 1.944000244140625 13.21290016174316 C 3.059590339660645 10.75391006469727 4.606310367584229 8.525580406188965 6.541200160980225 6.589799880981445 C 10.79069995880127 2.3403000831604 16.44073104858398 -3.552713678800501e-15 22.45050048828125 -3.552713678800501e-15 C 25.10906028747559 -3.552713678800501e-15 27.70621109008789 0.455020010471344 30.16980934143066 1.352429986000061 C 32.62619018554688 2.247210025787354 34.8939208984375 3.561269998550415 36.91001892089844 5.258090019226074 L 34.00627136230469 8.062179565429688 C 30.73938941955566 5.442409992218018 26.63594055175781 3.999599933624268 22.45050048828125 3.999599933624268 C 12.87975978851318 3.999599933624268 4.779940128326416 11.46652984619141 4.010480403900146 20.998779296875 L 4.010400295257568 20.99970054626465 Z" stroke="none" fill="#989ba8"/>
  </g>
</svg>
