<svg xmlns="http://www.w3.org/2000/svg" width="14.946" height="14.946" viewBox="0 0 14.946 14.946">
  <g id="Group_17626" data-name="Group 17626" transform="translate(0)">
    <g id="Group_17625" data-name="Group 17625">
      <path id="Path_396" data-name="Path 396" d="M795.363,1689.7H782.908a.641.641,0,0,1-.44-.181.623.623,0,0,1-.182-.442v-12.455a.623.623,0,0,0-.182-.442.627.627,0,0,0-.881,0,.623.623,0,0,0-.182.442v12.455a1.87,1.87,0,0,0,1.868,1.868h12.455a.641.641,0,0,0,.44-.181.627.627,0,0,0,0-.884A.641.641,0,0,0,795.363,1689.7Z" transform="translate(-781.04 -1676)" fill="#033399"/>
      <path id="Path_397" data-name="Path 397" d="M795.663,1692.6a.641.641,0,0,0,.44-.181.623.623,0,0,0,.182-.442v-4.359a.623.623,0,0,0-.182-.442.627.627,0,0,0-.881,0,.623.623,0,0,0-.182.442v4.359a.623.623,0,0,0,.182.442A.641.641,0,0,0,795.663,1692.6Z" transform="translate(-786.322 -1680.15)" fill="#033399"/>
      <path id="Path_398" data-name="Path 398" d="M787.663,1692.6a.641.641,0,0,0,.44-.181.623.623,0,0,0,.182-.442v-4.359a.623.623,0,0,0-.182-.442.627.627,0,0,0-.881,0,.623.623,0,0,0-.182.442v4.359a.623.623,0,0,0,.182.442A.641.641,0,0,0,787.663,1692.6Z" transform="translate(-783.304 -1680.15)" fill="#033399"/>
      <path id="Path_399" data-name="Path 399" d="M799.663,1690.718a.641.641,0,0,0,.44-.181.623.623,0,0,0,.182-.442v-7.473a.623.623,0,0,0-.182-.442.627.627,0,0,0-.881,0,.623.623,0,0,0-.182.442v7.473a.623.623,0,0,0,.182.442A.641.641,0,0,0,799.663,1690.718Z" transform="translate(-787.831 -1678.264)" fill="#033399"/>
      <path id="Path_400" data-name="Path 400" d="M791.663,1690.718a.641.641,0,0,0,.44-.181.623.623,0,0,0,.182-.442v-7.473a.623.623,0,0,0-.182-.442.627.627,0,0,0-.881,0,.623.623,0,0,0-.182.442v7.473a.623.623,0,0,0,.182.442A.641.641,0,0,0,791.663,1690.718Z" transform="translate(-784.813 -1678.264)" fill="#033399"/>
    </g>
  </g>
</svg>
