<svg xmlns="http://www.w3.org/2000/svg" width="21.717" height="18.5" viewBox="0 0 21.717 18.5">
  <g id="Layer_x0020_1" transform="translate(-10.68 -70.81)">
    <path id="Path_20960" data-name="Path 20960" d="M11.461,71.06H31.617a.529.529,0,0,1,.531.527V85.433a.529.529,0,0,1-.531.527H24.982v2.046h3.449a.527.527,0,0,1,0,1.054H14.646a.527.527,0,0,1,0-1.054h3.449V85.96H11.461a.529.529,0,0,1-.531-.527V71.587A.529.529,0,0,1,11.461,71.06Zm16.588,3.977.131,1.652a.53.53,0,0,1-1.058.078l-.051-.653-5.438,4.372a.532.532,0,0,1-.789-.121l-1.65-2.6-3.241,3.648a.527.527,0,0,1-.792-.7l3.708-4.174a.532.532,0,0,1,.844.068L21.421,79.3l4.951-3.98-.6-.153a.526.526,0,0,1,.265-1.017l1.605.413a.525.525,0,0,1,.4.471ZM23.921,85.96H19.156v2.046h4.765Zm7.165-13.846H11.991V84.906H31.086Z" fill="#dedfe4" stroke="#dedfe4" stroke-width="0.5"/>
  </g>
</svg>
