<svg id="Group_22032" data-name="Group 22032" xmlns="http://www.w3.org/2000/svg" width="30" height="30" viewBox="0 0 30 30">
  <g id="Group_22030" data-name="Group 22030" transform="translate(5 0)">
    <g id="Group_22031" data-name="Group 22031">
      <g id="female-gender-svgrepo-com" transform="translate(0 0)">
        <g id="Group_22028" data-name="Group 22028">
          <path id="Path_21028" data-name="Path 21028" d="M9.727,0a9.722,9.722,0,0,0-7.5,15.918l.736.792A9.724,9.724,0,1,0,9.727,0Zm0,18.372a8.646,8.646,0,1,1,8.646-8.646A8.656,8.656,0,0,1,9.727,18.372Z" fill="#44c8f5"/>
        </g>
      </g>
      <g id="female-gender-svgrepo-com-2" data-name="female-gender-svgrepo-com" transform="translate(4.404 24.197) rotate(-45)">
        <g id="Group_22028-2" data-name="Group 22028">
          <path id="Path_21028-2" data-name="Path 21028" d="M6.778,0,3.466,3.311.764.61,0,1.374l2.7,2.7L.54,6.237,1.3,7,3.466,4.84l2.7,2.7.764-.764-2.7-2.7L7.542.764Z" fill="#039"/>
        </g>
      </g>
    </g>
  </g>
  <g id="Rectangle_9231" data-name="Rectangle 9231" fill="none" stroke="#707070" stroke-width="0.5" opacity="0">
    <rect width="30" height="30" stroke="none"/>
    <rect x="0.25" y="0.25" width="29.5" height="29.5" fill="none"/>
  </g>
</svg>
