<svg xmlns="http://www.w3.org/2000/svg" width="12.015" height="15.474" viewBox="0 0 12.015 15.474">
  <g id="Group_14637" data-name="Group 14637" transform="translate(1175.535 -2859.379)">
    <path id="Path_18801" data-name="Path 18801" d="M-1168.081,2859.379h-6.694a.76.76,0,0,0-.76.76v13.954a.76.76,0,0,0,.76.76h10.5a.76.76,0,0,0,.76-.76V2863.94Zm.439,1.836,2.742,2.742h-2.742Zm-6.905,12.649v-13.5h5.917v4.579h4.122v8.918Z" transform="translate(0)" fill="#2dbff3"/>
    <g id="Group_14613" data-name="Group 14613" transform="translate(-1172.973 2867.381)">
      <g id="Group_14612" data-name="Group 14612" transform="translate(0)">
        <path id="Path_18802" data-name="Path 18802" d="M-1165.767,2870.895h-5.9a.494.494,0,0,1-.494-.494.494.494,0,0,1,.494-.495h5.9a.494.494,0,0,1,.494.495A.494.494,0,0,1-1165.767,2870.895Z" transform="translate(1172.165 -2869.906)" fill="#00307f"/>
      </g>
    </g>
    <g id="Group_14615" data-name="Group 14615" transform="translate(-1172.973 2870.426)">
      <g id="Group_14614" data-name="Group 14614" transform="translate(0)">
        <path id="Path_18803" data-name="Path 18803" d="M-1165.767,2874.9h-5.9a.494.494,0,0,1-.494-.494.5.5,0,0,1,.494-.5h5.9a.494.494,0,0,1,.494.5A.494.494,0,0,1-1165.767,2874.9Z" transform="translate(1172.165 -2873.911)" fill="#00307f"/>
      </g>
    </g>
  </g>
</svg>
