<svg id="Layer_1" data-name="Layer 1" xmlns="http://www.w3.org/2000/svg" viewBox="0 0 544.11 77.84"><defs><style>.cls-1{fill:#034ea2;}.cls-2{fill:#21ad6e;}.cls-3{fill:#929497;}</style></defs><path class="cls-1" d="M499.92,82.93H494.5l1.06-5H501Z" transform="translate(-27.95 -47.4)"/><path class="cls-1" d="M519,71.06a3.13,3.13,0,0,0-2.9-2,3.83,3.83,0,0,0-3.09,1.7,7,7,0,0,0-1.41,4.47q0,3.75,3.12,3.75a19,19,0,0,0,4.36-.71l.49,3.94a14.87,14.87,0,0,1-6,1.2,7.84,7.84,0,0,1-5-1.52Q506,80,506,75.84a11.7,11.7,0,0,1,2.8-8,9.51,9.51,0,0,1,7.55-3.34,6.22,6.22,0,0,1,6.13,3.66Z" transform="translate(-27.95 -47.4)"/><path class="cls-1" d="M538.24,79.67q-2.73,3.8-8.19,3.79a7,7,0,0,1-5.67-2.27,7.39,7.39,0,0,1-1.7-5.06,12.91,12.91,0,0,1,2.23-7.84c1.79-2.5,4.55-3.76,8.26-3.76A7.64,7.64,0,0,1,538,66q2.41,1.91,2.41,5.85A13.22,13.22,0,0,1,538.24,79.67Zm-5.71-10.53a3.67,3.67,0,0,0-3.37,2.45,9.57,9.57,0,0,0-.95,4.36c0,1.91.79,2.87,2.37,2.87s2.62-.85,3.4-2.55a9.9,9.9,0,0,0,.89-4.26C534.87,70.1,534.09,69.14,532.53,69.14Z" transform="translate(-27.95 -47.4)"/><path class="cls-1" d="M571.93,72.07c-.08.6-.21,1.3-.37,2.1l-1.85,8.76h-5.38l1.84-8.61a15.6,15.6,0,0,0,.39-2.56c0-1.49-.89-2.23-2.66-2.23a6.85,6.85,0,0,0-3,.74.54.54,0,0,1,0,.25,21,21,0,0,1-.5,3.62l-1.84,8.79h-5.42L555,74.28a14.39,14.39,0,0,0,.26-1.47,8.68,8.68,0,0,0,.1-1.12c0-1.44-.87-2.16-2.59-2.16a8.32,8.32,0,0,0-2.66.46l-2.77,12.94h-5.39l3.59-16.87a28.63,28.63,0,0,1,8.82-1.53,7,7,0,0,1,4.61,1.39,16.56,16.56,0,0,1,6.56-1.39,6.88,6.88,0,0,1,5,1.7,5.75,5.75,0,0,1,1.59,4.29A12.15,12.15,0,0,1,571.93,72.07Z" transform="translate(-27.95 -47.4)"/><path class="cls-1" d="M49.17,64.7a5.63,5.63,0,0,0-1.28-.1,11.66,11.66,0,0,0-6.6,1.64L37.62,83.4H30.08l5.31-24.89h5.9l.15,2.08A12.92,12.92,0,0,1,50,57.66Z" transform="translate(-27.95 -47.4)"/><path class="cls-1" d="M65.19,73.43a26.63,26.63,0,0,1-7.68,1.34Q58.2,78,61.87,78A25.89,25.89,0,0,0,68,77l.69,5.51a23.53,23.53,0,0,1-8.48,1.63,10.32,10.32,0,0,1-7.33-2.53c-2.09-1.81-3.13-4.53-3.13-8.13A16.1,16.1,0,0,1,54,62.32,14.1,14.1,0,0,1,64.8,57.66a9.56,9.56,0,0,1,5.6,1.59,6.32,6.32,0,0,1,2.68,5.5Q73.08,70.75,65.19,73.43ZM64.1,63.81a5.41,5.41,0,0,0-3.62,1.69,9.75,9.75,0,0,0-2.63,4.31,21.24,21.24,0,0,0,4.66-.69q3.83-1.14,3.82-3.43C66.33,64.44,65.59,63.81,64.1,63.81Z" transform="translate(-27.95 -47.4)"/><path class="cls-1" d="M83.94,74.37a10.12,10.12,0,0,0-.25,1.79,1.51,1.51,0,0,0,1.73,1.68,3.53,3.53,0,0,0,1,0l.39,5.91a23.21,23.21,0,0,1-4.56.44A6.48,6.48,0,0,1,78,82.8,6.32,6.32,0,0,1,76,77.6a28.08,28.08,0,0,1,.75-4.81l5.15-24.25,7.84-1.14Z" transform="translate(-27.95 -47.4)"/><path class="cls-1" d="M97.23,83.4H89.69L95,58.51h7.53Zm6.19-29H95.84l1.49-7h7.58Z" transform="translate(-27.95 -47.4)"/><path class="cls-1" d="M125.29,83.4h-5.7l0-1.09a11.2,11.2,0,0,1-5.35,1.39A9,9,0,0,1,107.34,81a10,10,0,0,1-2.58-7.14q0-8.13,5.71-12.5a18.05,18.05,0,0,1,11.4-3.62,31.05,31.05,0,0,1,8.63,1.09Zm-4.53-19.07c-.32,0-.62,0-.92,0A6.49,6.49,0,0,0,115,66.59a8.35,8.35,0,0,0-2.48,6.15A4.24,4.24,0,0,0,113.69,76,3.15,3.15,0,0,0,116,77a6.11,6.11,0,0,0,3.27-.94l2.43-11.6C121.39,64.37,121.07,64.35,120.76,64.33Z" transform="translate(-27.95 -47.4)"/><path class="cls-1" d="M157.72,71.1l-2.63,12.3h-7.48l2.58-12.1c.16-.76.28-1.44.37-2a11.32,11.32,0,0,0,.12-1.48q0-3.14-3.67-3.13a11.48,11.48,0,0,0-3.72.65l-3.87,18.1h-7.53l5-23.56a43.48,43.48,0,0,1,12.35-2.18A9.63,9.63,0,0,1,156.19,60a8.05,8.05,0,0,1,2.23,6A28,28,0,0,1,157.72,71.1Z" transform="translate(-27.95 -47.4)"/><path class="cls-1" d="M180.28,66.79a4.38,4.38,0,0,0-4.06-2.73,5.33,5.33,0,0,0-4.31,2.38,9.63,9.63,0,0,0-2,6.25q0,5.25,4.37,5.25a26.17,26.17,0,0,0,6.09-1l.7,5.51a20.8,20.8,0,0,1-8.38,1.68A10.92,10.92,0,0,1,165.76,82q-3.57-2.73-3.58-8.53a16.44,16.44,0,0,1,3.92-11.16,13.38,13.38,0,0,1,10.56-4.66c4.1,0,7,1.7,8.58,5.11Z" transform="translate(-27.95 -47.4)"/><path class="cls-1" d="M200.57,73.43a26.64,26.64,0,0,1-7.69,1.34q.69,3.23,4.37,3.22a25.75,25.75,0,0,0,6.14-1l.7,5.51a23.57,23.57,0,0,1-8.48,1.63,10.35,10.35,0,0,1-7.34-2.53c-2.09-1.81-3.13-4.53-3.13-8.13a16.06,16.06,0,0,1,4.27-11.16,14.08,14.08,0,0,1,10.76-4.66,9.56,9.56,0,0,1,5.6,1.59,6.3,6.3,0,0,1,2.68,5.5Q208.45,70.75,200.57,73.43Zm-1.09-9.62a5.41,5.41,0,0,0-3.62,1.69,9.67,9.67,0,0,0-2.63,4.31,21.43,21.43,0,0,0,4.66-.69c2.54-.76,3.82-1.9,3.82-3.43C201.71,64.44,201,63.81,199.48,63.81Z" transform="translate(-27.95 -47.4)"/><path class="cls-2" d="M227.63,64.26a10.48,10.48,0,0,0-4.12-.85c-2,0-3,.62-3,1.84a2.26,2.26,0,0,0,1,1.54,10.16,10.16,0,0,0,1,.69l1.88,1.14q4.51,2.68,4.52,6.7A7.56,7.56,0,0,1,225.4,82a15,15,0,0,1-8.48,2.13,17.77,17.77,0,0,1-7.44-1.58L211.26,77A11,11,0,0,0,217,78.59q4.41,0,4.41-2.53A3.22,3.22,0,0,0,220,73.73c-1.09-.73-2.1-1.44-3-2.13a7.19,7.19,0,0,1-3.42-6,6.8,6.8,0,0,1,3-5.9,11.1,11.1,0,0,1,6.74-2,14.51,14.51,0,0,1,6.1,1.29Z" transform="translate(-27.95 -47.4)"/><path class="cls-2" d="M274,68.2c-.12.84-.29,1.83-.52,3L270.92,83.4h-7.54L266,71.35a22.15,22.15,0,0,0,.55-3.57q0-3.14-3.73-3.13a9.49,9.49,0,0,0-4.26,1,1,1,0,0,1,.05.35,29.25,29.25,0,0,1-.69,5.06L255.3,83.4h-7.59l2.58-12.1c.16-.76.29-1.45.37-2.06a12.52,12.52,0,0,0,.13-1.56q0-3-3.62-3a11.39,11.39,0,0,0-3.72.65l-3.87,18.1H232l5-23.61a40.25,40.25,0,0,1,12.35-2.13,9.78,9.78,0,0,1,6.44,1.94A23.11,23.11,0,0,1,265,57.66,9.6,9.6,0,0,1,272,60a8,8,0,0,1,2.23,6A17.12,17.12,0,0,1,274,68.2Z" transform="translate(-27.95 -47.4)"/><path class="cls-2" d="M298.54,83.4h-5.71l0-1.09a11.24,11.24,0,0,1-5.36,1.39A9,9,0,0,1,280.59,81,10,10,0,0,1,278,73.83q0-8.13,5.7-12.5a18.06,18.06,0,0,1,11.41-3.62,31,31,0,0,1,8.62,1.09ZM294,64.33c-.31,0-.62,0-.92,0a6.49,6.49,0,0,0-4.86,2.28,8.35,8.35,0,0,0-2.48,6.15A4.24,4.24,0,0,0,286.93,76a3.17,3.17,0,0,0,2.33.94,6.17,6.17,0,0,0,3.28-.94L295,64.41C294.64,64.37,294.31,64.35,294,64.33Z" transform="translate(-27.95 -47.4)"/><path class="cls-2" d="M324.22,64.7a5.68,5.68,0,0,0-1.29-.1,11.65,11.65,0,0,0-6.59,1.64L312.67,83.4h-7.54l5.31-24.89h5.9l.15,2.08A12.9,12.9,0,0,1,325,57.66Z" transform="translate(-27.95 -47.4)"/><path class="cls-2" d="M344.11,63.91l-6.2,0-2,9.62a17.55,17.55,0,0,0-.4,2.48c0,1.26.84,1.88,2.53,1.88.56,0,1.1,0,1.63-.07a11,11,0,0,0,1.59-.27l0,5.75a19.36,19.36,0,0,1-5.6.89q-7.89,0-7.89-6.59a28.28,28.28,0,0,1,.7-5.26l1.78-8.43h-4.06l.84-4.07,4.26-.74,1.59-7.44,6-.24-.3,7.24,6.7-.1Z" transform="translate(-27.95 -47.4)"/><path class="cls-2" d="M386.83,68.2c-.12.84-.29,1.83-.52,3L383.73,83.4h-7.54l2.58-12.05a22.15,22.15,0,0,0,.55-3.57q0-3.14-3.72-3.13a9.5,9.5,0,0,0-4.27,1,1,1,0,0,1,.05.35,29.25,29.25,0,0,1-.69,5.06l-2.58,12.3h-7.59l2.58-12.1c.17-.76.29-1.45.37-2.06a12.52,12.52,0,0,0,.13-1.56q0-3-3.62-3a11.39,11.39,0,0,0-3.72.65l-3.87,18.1h-7.54l5-23.61a40.3,40.3,0,0,1,12.35-2.13,9.78,9.78,0,0,1,6.44,1.94,23.11,23.11,0,0,1,9.18-1.94A9.6,9.6,0,0,1,384.77,60,8,8,0,0,1,387,66,17.12,17.12,0,0,1,386.83,68.2Z" transform="translate(-27.95 -47.4)"/><path class="cls-2" d="M412.54,78.84q-3.82,5.3-11.46,5.3c-3.47,0-6.11-1-7.93-3.17a10.38,10.38,0,0,1-2.38-7.09q0-6.69,3.12-11,3.78-5.27,11.56-5.26a10.73,10.73,0,0,1,6.74,2q3.38,2.69,3.37,8.19Q415.56,74.57,412.54,78.84Zm-8-14.73c-2.06,0-3.62,1.14-4.72,3.42a13.51,13.51,0,0,0-1.33,6.1c0,2.68,1.1,4,3.32,4s3.67-1.19,4.76-3.57a13.92,13.92,0,0,0,1.24-6Q407.83,64.11,404.56,64.11Z" transform="translate(-27.95 -47.4)"/><path class="cls-2" d="M443.53,71.1,440.9,83.4h-7.48L436,71.3c.17-.76.29-1.44.38-2a11.32,11.32,0,0,0,.12-1.48q0-3.14-3.67-3.13a11.48,11.48,0,0,0-3.72.65l-3.87,18.1H417.7l5-23.56a43.48,43.48,0,0,1,12.35-2.18A9.58,9.58,0,0,1,442,60a8,8,0,0,1,2.24,6A28,28,0,0,1,443.53,71.1Z" transform="translate(-27.95 -47.4)"/><path class="cls-2" d="M463.42,73.43a26.64,26.64,0,0,1-7.69,1.34c.46,2.15,1.92,3.22,4.36,3.22a25.75,25.75,0,0,0,6.15-1l.7,5.51a23.57,23.57,0,0,1-8.48,1.63,10.35,10.35,0,0,1-7.34-2.53C449,79.8,448,77.08,448,73.48a16.06,16.06,0,0,1,4.27-11.16A14.08,14.08,0,0,1,463,57.66a9.56,9.56,0,0,1,5.6,1.59,6.3,6.3,0,0,1,2.68,5.5Q471.3,70.75,463.42,73.43Zm-1.09-9.62a5.41,5.41,0,0,0-3.62,1.69,9.67,9.67,0,0,0-2.63,4.31,21.43,21.43,0,0,0,4.66-.69c2.54-.76,3.82-1.9,3.82-3.43C464.56,64.44,463.81,63.81,462.33,63.81Z" transform="translate(-27.95 -47.4)"/><path class="cls-2" d="M486.08,83.65q-3.61,5.94-7.19,8.53a15.89,15.89,0,0,1-9.57,3L468,88.65c3.6-.23,6.3-1.22,8.08-3a28,28,0,0,0,2.63-3.22l-5-23.95h7.74l2.43,15.66,8.72-15.66h8.78Z" transform="translate(-27.95 -47.4)"/><rect class="cls-3" y="47.35" width="428.64" height="0.53"/><rect class="cls-3" x="456.91" y="47.35" width="82.69" height="0.53"/><path class="cls-1" d="M353.63,115.22h-3.42l-1.8,4.35h3.42l-.76,1.83h-3.42l-1.4,3.44h-2l1.43-3.44h-4.3L340,124.84h-2l1.41-3.44H336l.75-1.83h3.42l1.8-4.35h-3.42l.76-1.86h3.42l1.41-3.41h2l-1.41,3.41H349l1.43-3.41h2L351,113.36h3.42Zm-9.71,0-1.8,4.35h4.31l1.8-4.35Z" transform="translate(-27.95 -47.4)"/><path class="cls-1" d="M376.57,118l-1.43,6.88h-2.22l1.46-6.88a10.84,10.84,0,0,0,.29-2.17c0-1.41-.84-2.3-2.77-2.3a8.34,8.34,0,0,0-3.94,1.07,6.3,6.3,0,0,1,.05.79,13.48,13.48,0,0,1-.31,2.5l-1.46,7H364l1.49-7a9.79,9.79,0,0,0,.26-2.09c0-1.43-.81-2.27-2.69-2.27a11.65,11.65,0,0,0-3.49.58l-2.27,10.77H355l2.67-12.39a20.29,20.29,0,0,1,5.94-1,4.36,4.36,0,0,1,3.5,1.31,12.05,12.05,0,0,1,5.32-1.31c2.93,0,4.47,1.54,4.47,3.92A15.46,15.46,0,0,1,376.57,118Z" transform="translate(-27.95 -47.4)"/><path class="cls-1" d="M389.44,124.84h-1.72l.1-.91A6.52,6.52,0,0,1,384.3,125c-3.08,0-5-2.19-5-5.19,0-6.21,4.93-8.46,9-8.46a18.15,18.15,0,0,1,3.92.47Zm-1.7-11.53a6,6,0,0,0-6.13,6.21c0,2.24,1.39,3.5,3.16,3.5a4.93,4.93,0,0,0,3.08-1.1l1.8-8.45A11.63,11.63,0,0,0,387.74,113.31Z" transform="translate(-27.95 -47.4)"/><path class="cls-1" d="M400,117.36l3.7,7.48h-2.35l-3-6.1-.05.05h-1.65l-1.28,6H393.2l4-18.6,2.29-.34L396.9,118l6.89-6.08h2.53Z" transform="translate(-27.95 -47.4)"/><path class="cls-1" d="M412.62,119.6a20.91,20.91,0,0,1-4.65.57,3.34,3.34,0,0,0,3.55,3.24,11.92,11.92,0,0,0,3.65-.63l.21,1.65a11.5,11.5,0,0,1-4.28.81c-3.39,0-5.37-2.22-5.37-5.56,0-4.26,3.23-8.25,7.72-8.25,2,0,4.18.92,4.18,3.53C417.63,116.89,416.22,118.74,412.62,119.6Zm.65-6.34c-2.56,0-4.85,2.48-5.22,5.3a19.58,19.58,0,0,0,3.76-.4c2.87-.62,3.81-1.87,3.81-3C415.62,113.83,414.55,113.26,413.27,113.26Z" transform="translate(-27.95 -47.4)"/><path class="cls-1" d="M429.27,124.84h-1.73l.11-.91a6.54,6.54,0,0,1-3.52,1.07c-3.08,0-5-2.19-5-5.19,0-6.21,4.93-8.46,8.95-8.46a18.13,18.13,0,0,1,3.91.47Zm-1.7-11.53a6,6,0,0,0-6.13,6.21c0,2.24,1.38,3.5,3.16,3.5a4.93,4.93,0,0,0,3.08-1.1l1.8-8.45A11.72,11.72,0,0,0,427.57,113.31Z" transform="translate(-27.95 -47.4)"/><path class="cls-1" d="M441.38,113.65a5.28,5.28,0,0,0-2.27-.5c-1.49,0-2.56.76-2.56,1.81s.78,1.56,2,2.32c1.41.88,2.9,1.85,2.9,3.86,0,2.79-2.48,4.1-5.79,4.1a8.4,8.4,0,0,1-3.53-.71l.55-1.7a6.31,6.31,0,0,0,3,.74c2.4,0,3.58-.92,3.58-2.25,0-1.51-1.49-2.19-2.82-3.1a3.62,3.62,0,0,1-1.9-3.19c0-2.35,2.29-3.6,4.56-3.6A6.33,6.33,0,0,1,442,112Z" transform="translate(-27.95 -47.4)"/><path class="cls-1" d="M465,118l-1.44,6.88h-2.22l1.47-6.88a10.74,10.74,0,0,0,.28-2.17c0-1.41-.83-2.3-2.76-2.3a8.31,8.31,0,0,0-3.94,1.07c0,.24.05.5.05.79a14.41,14.41,0,0,1-.31,2.5l-1.47,7h-2.24l1.49-7a9.79,9.79,0,0,0,.26-2.09c0-1.43-.81-2.27-2.69-2.27a11.6,11.6,0,0,0-3.49.58l-2.27,10.77h-2.25l2.66-12.39a20.36,20.36,0,0,1,5.95-1,4.37,4.37,0,0,1,3.5,1.31,12,12,0,0,1,5.32-1.31c2.92,0,4.46,1.54,4.46,3.92A15.27,15.27,0,0,1,465,118Z" transform="translate(-27.95 -47.4)"/><path class="cls-1" d="M477.84,124.84h-1.72l.1-.91A6.54,6.54,0,0,1,472.7,125c-3.08,0-5-2.19-5-5.19,0-6.21,4.93-8.46,8.95-8.46a18.13,18.13,0,0,1,3.91.47Zm-1.7-11.53a6,6,0,0,0-6.13,6.21c0,2.24,1.38,3.5,3.16,3.5a5,5,0,0,0,3.08-1.1l1.8-8.45A11.63,11.63,0,0,0,476.14,113.31Z" transform="translate(-27.95 -47.4)"/><path class="cls-1" d="M490.5,113.49a1.7,1.7,0,0,0-.4,0,5.4,5.4,0,0,0-4.2,1.54l-2.08,9.83H481.6l2.76-13h1.78l-.11,1.25a6.22,6.22,0,0,1,4.67-1.7Z" transform="translate(-27.95 -47.4)"/><path class="cls-1" d="M500.34,113.52H496l-1.09,5.19a18,18,0,0,0-.45,2.66,1.8,1.8,0,0,0,2,2,9.46,9.46,0,0,0,2.11-.26l0,1.72a10.18,10.18,0,0,1-2.77.42c-1.56,0-3.65-.68-3.65-3.45a21.28,21.28,0,0,1,.52-3.44l1-4.83h-2.25l.29-1.25L494,112l.81-3.81,1.77-.08-.44,3.79,4.54-.05Z" transform="translate(-27.95 -47.4)"/><path class="cls-1" d="M521.89,118l-1.43,6.88h-2.22L519.7,118a10.84,10.84,0,0,0,.29-2.17c0-1.41-.84-2.3-2.77-2.3a8.34,8.34,0,0,0-3.94,1.07,6.3,6.3,0,0,1,.05.79,13.48,13.48,0,0,1-.31,2.5l-1.46,7h-2.25l1.49-7a9.79,9.79,0,0,0,.26-2.09c0-1.43-.81-2.27-2.69-2.27a11.65,11.65,0,0,0-3.49.58l-2.27,10.77h-2.25L503,112.45a20.29,20.29,0,0,1,5.94-1,4.36,4.36,0,0,1,3.5,1.31,12.05,12.05,0,0,1,5.32-1.31c2.93,0,4.47,1.54,4.47,3.92A15.46,15.46,0,0,1,521.89,118Z" transform="translate(-27.95 -47.4)"/><path class="cls-1" d="M529.85,125.24c-3.75,0-5.21-2.61-5.21-5.35,0-4.2,1.93-8.46,7.43-8.46,2.27,0,5.09,1.1,5.09,5.35S535.31,125.24,529.85,125.24Zm2-11.9c-3.58,0-4.93,3.47-4.93,6.47,0,1.72.78,3.49,3.13,3.49,3.62,0,4.85-3.57,4.85-6.47C534.89,114.28,533.46,113.34,531.84,113.34Z" transform="translate(-27.95 -47.4)"/><path class="cls-1" d="M543.82,125h-2.06l-2.48-13.09h2.29l1.75,10.35,6.16-10.35H552Z" transform="translate(-27.95 -47.4)"/><path class="cls-1" d="M558.93,119.6a20.89,20.89,0,0,1-4.64.57,3.33,3.33,0,0,0,3.54,3.24,12,12,0,0,0,3.66-.63l.2,1.65a11.45,11.45,0,0,1-4.27.81c-3.4,0-5.38-2.22-5.38-5.56,0-4.26,3.24-8.25,7.72-8.25,2,0,4.18.92,4.18,3.53C563.94,116.89,562.53,118.74,558.93,119.6Zm.65-6.34c-2.56,0-4.85,2.48-5.22,5.3a19.5,19.5,0,0,0,3.76-.4c2.87-.62,3.81-1.87,3.81-3C561.93,113.83,560.86,113.26,559.58,113.26Z" transform="translate(-27.95 -47.4)"/></svg>