<svg xmlns="http://www.w3.org/2000/svg" width="170.107" height="91.056" viewBox="0 0 170.107 91.056">
  <g id="Group_14315" data-name="Group 14315" transform="translate(-95 -441.17)">
    <path id="Path_16747" data-name="Path 16747" d="M2323.811,1179.778s-18.223-19.048-3.082-39.671c13.434-18.3,29.1-17.047,40.589-9.621,4.895,3.162,23.178.571,39.167-14.956,17.022-16.53,62.552-8.41,54.653,25.8-4.4,19.048,15.246,19.592,4.925,38.488Z" transform="translate(-2215.758 -655.594)" fill="#eafcfc"/>
    <path id="Rectangle_8092" data-name="Rectangle 8092" d="M.225,0H169.882a.226.226,0,0,1,.226.226v0a.226.226,0,0,1-.226.226H.226A.226.226,0,0,1,0,.225v0A.225.225,0,0,1,.225,0Z" transform="translate(95 523.942)" fill="#2e3552"/>
    <path id="Path_16748" data-name="Path 16748" d="M2812.285,936.506l-25.155,8.319,5.05,4.209h0l-21.766,22.786-19.079-16.382-76.159,62.4.671.01h18.972l56.329-46.154,20.114,17.27,30.509-31.939h0l5.45,4.543Z" transform="translate(-2557.055 -493.908)" fill="#699dee"/>
    <g id="Group_12405" data-name="Group 12405" transform="translate(134.779 464.907)">
      <g id="Group_12403" data-name="Group 12403" transform="translate(0 0)">
        <path id="Path_16749" data-name="Path 16749" d="M3019.754,1558.808l-5.778-.5a30.354,30.354,0,0,0-.682-8.314,29.247,29.247,0,0,0-5.139-11.52c-4.949-6.568-19.648-10.242-19.648-10.242v-.85l.529-.057a2.106,2.106,0,0,0-.529-.251v-2.01a7.106,7.106,0,0,1,1.671.164,11.384,11.384,0,0,0-1.671-.3v-1.057c21.294.57,28.238,13.431,30.414,23.385A39.851,39.851,0,0,1,3019.754,1558.808Z" transform="translate(-2988.506 -1514.956)" fill="#82b378"/>
        <path id="Path_16750" data-name="Path 16750" d="M3045.043,1398.129l-25.29,1.87a41.913,41.913,0,0,0-2.131-10.977,51.881,51.881,0,0,0-1.934-5.134c-7.565-16.577-27.183-18.824-27.183-18.824l21.773-8.917a31.878,31.878,0,0,1,23.059,12.186C3043.447,1380.756,3045.043,1398.129,3045.043,1398.129Z" transform="translate(-2988.506 -1356.147)" fill="#a8d29f"/>
      </g>
      <path id="Path_16751" data-name="Path 16751" d="M3486.5,1615.165l-25.289,1.87-5.779-.5a30.359,30.359,0,0,0-.682-8.314,34.34,34.34,0,0,1,4.33-2.166q.667-.282,1.3-.573c16.1-7.432,14.6-19.009,14.419-20.116C3484.907,1597.792,3486.5,1615.165,3486.5,1615.165Z" transform="translate(-3429.966 -1573.183)" fill="#82b378" opacity="0.5"/>
      <g id="Group_12404" data-name="Group 12404" transform="translate(4.33 1.289)">
        <path id="Path_16752" data-name="Path 16752" d="M3120.165,1423.028l-22.537-.436.079-.434a30.391,30.391,0,0,0-1.533-14.187,28.289,28.289,0,0,0-7.671-11.445c-4.394-4-10.265-6.977-17.451-8.849l-1.107-.288,17.591-7,.067,0a25.555,25.555,0,0,1,10.545,2.682,32.706,32.706,0,0,1,9.341,6.7,43.641,43.641,0,0,1,8.686,13.231c.181.4,4.462,10.014,4.236,15.785v.007Zm-21.654-1.169,20.947.405.2-3.507c.09-2.305-.6-5.7-2-9.828-1.061-3.133-2.163-5.6-2.174-5.621a42.923,42.923,0,0,0-8.516-12.989,31.97,31.97,0,0,0-9.109-6.555,27.577,27.577,0,0,0-8.581-2.518,5.839,5.839,0,0,0-2.82.376l-12.191,4.852a.729.729,0,0,0,.048,1.372,39.526,39.526,0,0,1,14.7,8.141,29.025,29.025,0,0,1,7.866,11.763,32.038,32.038,0,0,1,1.824,10.18A27,27,0,0,1,3098.511,1421.859Z" transform="translate(-3069.946 -1380.387)" fill="#82b378"/>
      </g>
      <path id="Path_16753" data-name="Path 16753" d="M3547,1589.692c0,3.713-2.175,5.956-5.888,5.956s-7.557-2.244-7.557-5.956,2.056-5.933,5.769-5.933S3547,1585.979,3547,1589.692Z" transform="translate(-3504.581 -1571.658)" fill="#82b378"/>
    </g>
    <g id="Group_12428" data-name="Group 12428" transform="translate(170.132 481.05)">
      <g id="Group_12407" data-name="Group 12407" transform="translate(3.778 38.954)">
        <path id="Path_16754" data-name="Path 16754" d="M3761.622,2393.378v2.219a.845.845,0,0,1-.146.477.86.86,0,0,1-.4.32.793.793,0,0,1-.157.044.832.832,0,0,1-.151.014H3725.43a.858.858,0,0,1-.854-.811c0-.015,0-.03,0-.044v-2.219c0-.015,0-.029,0-.044a.858.858,0,0,1,.854-.811h35.337a.854.854,0,0,1,.151.013.794.794,0,0,1,.157.044.857.857,0,0,1,.4.32A.845.845,0,0,1,3761.622,2393.378Z" transform="translate(-3724.575 -2392.523)" fill="#ffb93e"/>
        <path id="Path_16755" data-name="Path 16755" d="M3744.27,2396.451h-18.931a.811.811,0,0,1-.763-.811c0-.015,0-.03,0-.044v-2.219c0-.015,0-.029,0-.044a.811.811,0,0,1,.763-.811h16.606A7.037,7.037,0,0,0,3744.27,2396.451Z" transform="translate(-3724.575 -2392.523)" fill="#ffa412"/>
        <g id="Group_12406" data-name="Group 12406" transform="translate(12.984)">
          <rect id="Rectangle_8093" data-name="Rectangle 8093" width="0.402" height="3.929" transform="translate(19.362 0)" fill="#ffa412"/>
          <rect id="Rectangle_8094" data-name="Rectangle 8094" width="0.402" height="3.929" transform="translate(18.003 0)" fill="#ffa412"/>
          <rect id="Rectangle_8095" data-name="Rectangle 8095" width="0.402" height="3.929" transform="translate(16.373 0)" fill="#ffa412"/>
          <rect id="Rectangle_8096" data-name="Rectangle 8096" width="0.402" height="3.929" transform="translate(13.874 0)" fill="#ffa412"/>
          <rect id="Rectangle_8097" data-name="Rectangle 8097" width="0.402" height="3.929" transform="translate(11.231 0)" fill="#ffa412"/>
          <rect id="Rectangle_8098" data-name="Rectangle 8098" width="0.402" height="3.929" transform="translate(7.18 0)" fill="#ffa412"/>
          <rect id="Rectangle_8099" data-name="Rectangle 8099" width="0.402" height="3.929" transform="translate(3.387 0)" fill="#ffa412"/>
          <rect id="Rectangle_8100" data-name="Rectangle 8100" width="0.402" height="3.929" transform="translate(0 0)" fill="#ffa412"/>
          <rect id="Rectangle_8101" data-name="Rectangle 8101" width="0.402" height="3.929" transform="translate(20.656 0)" fill="#ffa412"/>
          <rect id="Rectangle_8102" data-name="Rectangle 8102" width="0.402" height="3.929" transform="translate(21.511 0)" fill="#ffa412"/>
          <rect id="Rectangle_8103" data-name="Rectangle 8103" width="0.402" height="3.929" transform="translate(22.337 0)" fill="#ffa412"/>
          <path id="Path_16756" data-name="Path 16756" d="M4401.039,2392.536v3.9a.83.83,0,0,1-.15.014h-.251v-3.929h.251A.853.853,0,0,1,4401.039,2392.536Z" transform="translate(-4377.68 -2392.523)" fill="#ffa412"/>
          <path id="Path_16757" data-name="Path 16757" d="M4411.537,2393.927v3.173a.857.857,0,0,1-.4.32v-3.813A.859.859,0,0,1,4411.537,2393.927Z" transform="translate(-4387.62 -2393.549)" fill="#ffa412"/>
        </g>
      </g>
      <g id="Group_12409" data-name="Group 12409" transform="translate(0 35.026)">
        <path id="Path_16758" data-name="Path 16758" d="M3690.552,2319.483v2.219a.845.845,0,0,1-.147.477.856.856,0,0,1-.4.32.793.793,0,0,1-.157.044.826.826,0,0,1-.15.014H3654.36a.857.857,0,0,1-.854-.811c0-.015,0-.029,0-.044v-2.219c0-.015,0-.029,0-.044a.857.857,0,0,1,.854-.811H3689.7l.067,0,.029,0,.031,0,.022,0a.761.761,0,0,1,.157.044l.022.009.021.01.043.021.024.013.022.013.04.026c.015.01.03.021.044.032l.033.027,0,0,.022.02a.847.847,0,0,1,.062.064l.017.02.017.021c.011.014.021.029.031.043A.846.846,0,0,1,3690.552,2319.483Z" transform="translate(-3653.505 -2318.628)" fill="#ffb93e"/>
        <path id="Path_16759" data-name="Path 16759" d="M3673.2,2322.556h-18.932a.81.81,0,0,1-.762-.811c0-.015,0-.029,0-.044v-2.219c0-.015,0-.029,0-.044a.81.81,0,0,1,.762-.811h16.606c.007.032.015.064.023.1A7,7,0,0,0,3673.2,2322.556Z" transform="translate(-3653.505 -2318.628)" fill="#ffa412"/>
        <g id="Group_12408" data-name="Group 12408" transform="translate(12.984)">
          <rect id="Rectangle_8104" data-name="Rectangle 8104" width="0.402" height="3.929" transform="translate(19.362 0)" fill="#ffa412"/>
          <rect id="Rectangle_8105" data-name="Rectangle 8105" width="0.402" height="3.929" transform="translate(18.003 0)" fill="#ffa412"/>
          <rect id="Rectangle_8106" data-name="Rectangle 8106" width="0.402" height="3.929" transform="translate(16.373 0)" fill="#ffa412"/>
          <rect id="Rectangle_8107" data-name="Rectangle 8107" width="0.402" height="3.929" transform="translate(13.874 0)" fill="#ffa412"/>
          <rect id="Rectangle_8108" data-name="Rectangle 8108" width="0.402" height="3.929" transform="translate(11.231 0)" fill="#ffa412"/>
          <rect id="Rectangle_8109" data-name="Rectangle 8109" width="0.402" height="3.929" transform="translate(7.18 0)" fill="#ffa412"/>
          <rect id="Rectangle_8110" data-name="Rectangle 8110" width="0.402" height="3.929" transform="translate(3.387 0)" fill="#ffa412"/>
          <rect id="Rectangle_8111" data-name="Rectangle 8111" width="0.402" height="3.929" transform="translate(0 0)" fill="#ffa412"/>
          <rect id="Rectangle_8112" data-name="Rectangle 8112" width="0.402" height="3.929" transform="translate(20.656 0)" fill="#ffa412"/>
          <rect id="Rectangle_8113" data-name="Rectangle 8113" width="0.402" height="3.929" transform="translate(21.511 0)" fill="#ffa412"/>
          <rect id="Rectangle_8114" data-name="Rectangle 8114" width="0.402" height="3.929" transform="translate(22.337 0)" fill="#ffa412"/>
          <path id="Path_16760" data-name="Path 16760" d="M4329.969,2318.641v3.9a.832.832,0,0,1-.151.014h-.251v-3.928h.251A.832.832,0,0,1,4329.969,2318.641Z" transform="translate(-4306.609 -2318.627)" fill="#ffa412"/>
          <path id="Path_16761" data-name="Path 16761" d="M4340.468,2320.031v3.173a.861.861,0,0,1-.4.32v-3.813A.858.858,0,0,1,4340.468,2320.031Z" transform="translate(-4316.55 -2319.653)" fill="#ffa412"/>
        </g>
      </g>
      <g id="Group_12411" data-name="Group 12411" transform="translate(1.826 31.194)">
        <path id="Path_16762" data-name="Path 16762" d="M3724.9,2247.409v2.219a.847.847,0,0,1-.147.477.862.862,0,0,1-.4.32.761.761,0,0,1-.157.044.832.832,0,0,1-.151.014H3688.7a.846.846,0,0,1-.394-.1.859.859,0,0,1-.457-.676c0-.013,0-.025,0-.038s0-.029,0-.044v-2.219c0-.015,0-.029,0-.044a.858.858,0,0,1,.854-.811h35.337a.832.832,0,0,1,.151.014.793.793,0,0,1,.157.044.861.861,0,0,1,.4.32A.845.845,0,0,1,3724.9,2247.409Z" transform="translate(-3687.849 -2246.554)" fill="#ffb93e"/>
        <path id="Path_16763" data-name="Path 16763" d="M3707.544,2250.482h-18.932a.69.69,0,0,1-.352-.1.864.864,0,0,1-.408-.676c0-.013,0-.025,0-.038s0-.029,0-.044v-2.219c0-.015,0-.029,0-.044a.81.81,0,0,1,.762-.811h16.607a7.086,7.086,0,0,0,2.208,3.832Z" transform="translate(-3687.849 -2246.554)" fill="#ffa412"/>
        <g id="Group_12410" data-name="Group 12410" transform="translate(12.984)">
          <rect id="Rectangle_8115" data-name="Rectangle 8115" width="0.402" height="3.929" transform="translate(19.362 0)" fill="#ffa412"/>
          <rect id="Rectangle_8116" data-name="Rectangle 8116" width="0.402" height="3.929" transform="translate(18.003 0)" fill="#ffa412"/>
          <rect id="Rectangle_8117" data-name="Rectangle 8117" width="0.402" height="3.929" transform="translate(16.373 0)" fill="#ffa412"/>
          <rect id="Rectangle_8118" data-name="Rectangle 8118" width="0.402" height="3.929" transform="translate(13.874 0)" fill="#ffa412"/>
          <rect id="Rectangle_8119" data-name="Rectangle 8119" width="0.402" height="3.929" transform="translate(11.231 0)" fill="#ffa412"/>
          <rect id="Rectangle_8120" data-name="Rectangle 8120" width="0.402" height="3.929" transform="translate(7.18 0)" fill="#ffa412"/>
          <rect id="Rectangle_8121" data-name="Rectangle 8121" width="0.402" height="3.929" transform="translate(3.387 0)" fill="#ffa412"/>
          <rect id="Rectangle_8122" data-name="Rectangle 8122" width="0.402" height="3.929" transform="translate(0 0)" fill="#ffa412"/>
          <rect id="Rectangle_8123" data-name="Rectangle 8123" width="0.402" height="3.929" transform="translate(20.656 0)" fill="#ffa412"/>
          <rect id="Rectangle_8124" data-name="Rectangle 8124" width="0.402" height="3.929" transform="translate(21.511 0)" fill="#ffa412"/>
          <rect id="Rectangle_8125" data-name="Rectangle 8125" width="0.402" height="3.929" transform="translate(22.337 0)" fill="#ffa412"/>
          <path id="Path_16764" data-name="Path 16764" d="M4364.313,2246.568v3.9a.822.822,0,0,1-.15.014h-.251v-3.929h.251A.822.822,0,0,1,4364.313,2246.568Z" transform="translate(-4340.955 -2246.554)" fill="#ffa412"/>
          <path id="Path_16765" data-name="Path 16765" d="M4374.813,2247.958v3.173a.858.858,0,0,1-.4.32v-3.813A.859.859,0,0,1,4374.813,2247.958Z" transform="translate(-4350.896 -2247.58)" fill="#ffa412"/>
        </g>
      </g>
      <g id="Group_12413" data-name="Group 12413" transform="translate(2.672 27.265)">
        <path id="Path_16766" data-name="Path 16766" d="M3740.818,2173.514v2.219a.85.85,0,0,1-.146.477.861.861,0,0,1-.4.32.8.8,0,0,1-.156.044.882.882,0,0,1-.151.013h-35.337a.859.859,0,0,1-.854-.811c0-.015,0-.029,0-.044v-2.219c0-.015,0-.029,0-.044a.859.859,0,0,1,.753-.8.772.772,0,0,1,.1-.006h35.337a.836.836,0,0,1,.151.014.8.8,0,0,1,.156.044.863.863,0,0,1,.4.32A.849.849,0,0,1,3740.818,2173.514Z" transform="translate(-3703.771 -2172.659)" fill="#ffb93e"/>
        <path id="Path_16767" data-name="Path 16767" d="M3723.466,2176.587h-18.932a.811.811,0,0,1-.763-.811c0-.015,0-.029,0-.044v-2.219c0-.015,0-.029,0-.044a.825.825,0,0,1,.672-.8.61.61,0,0,1,.09-.006h16.606v.006A7.038,7.038,0,0,0,3723.466,2176.587Z" transform="translate(-3703.771 -2172.659)" fill="#ffa412"/>
        <g id="Group_12412" data-name="Group 12412" transform="translate(12.984)">
          <rect id="Rectangle_8126" data-name="Rectangle 8126" width="0.402" height="3.929" transform="translate(19.362 0)" fill="#ffa412"/>
          <rect id="Rectangle_8127" data-name="Rectangle 8127" width="0.402" height="3.929" transform="translate(18.003 0)" fill="#ffa412"/>
          <rect id="Rectangle_8128" data-name="Rectangle 8128" width="0.402" height="3.929" transform="translate(16.373 0)" fill="#ffa412"/>
          <rect id="Rectangle_8129" data-name="Rectangle 8129" width="0.402" height="3.929" transform="translate(13.874 0)" fill="#ffa412"/>
          <rect id="Rectangle_8130" data-name="Rectangle 8130" width="0.402" height="3.929" transform="translate(11.231 0)" fill="#ffa412"/>
          <rect id="Rectangle_8131" data-name="Rectangle 8131" width="0.402" height="3.929" transform="translate(7.18 0)" fill="#ffa412"/>
          <rect id="Rectangle_8132" data-name="Rectangle 8132" width="0.402" height="3.929" transform="translate(3.387 0)" fill="#ffa412"/>
          <rect id="Rectangle_8133" data-name="Rectangle 8133" width="0.402" height="3.929" transform="translate(0 0)" fill="#ffa412"/>
          <rect id="Rectangle_8134" data-name="Rectangle 8134" width="0.402" height="3.929" transform="translate(20.656 0)" fill="#ffa412"/>
          <rect id="Rectangle_8135" data-name="Rectangle 8135" width="0.402" height="3.929" transform="translate(21.511 0)" fill="#ffa412"/>
          <rect id="Rectangle_8136" data-name="Rectangle 8136" width="0.402" height="3.929" transform="translate(22.337 0)" fill="#ffa412"/>
          <path id="Path_16768" data-name="Path 16768" d="M4380.235,2172.67v3.9a.822.822,0,0,1-.15.014h-.251v-3.928h.251A.844.844,0,0,1,4380.235,2172.67Z" transform="translate(-4356.875 -2172.657)" fill="#ffa412"/>
          <path id="Path_16769" data-name="Path 16769" d="M4390.735,2174.061v3.173a.86.86,0,0,1-.4.32v-3.813A.859.859,0,0,1,4390.735,2174.061Z" transform="translate(-4366.818 -2173.683)" fill="#ffa412"/>
        </g>
      </g>
      <g id="Group_12415" data-name="Group 12415" transform="translate(0.074 23.343)">
        <path id="Path_16770" data-name="Path 16770" d="M3691.948,2099.734v2.219a.844.844,0,0,1-.146.477.859.859,0,0,1-.4.32.806.806,0,0,1-.156.044l-.05.008-.028,0-.028,0h-35.383a.857.857,0,0,1-.854-.811c0-.015,0-.03,0-.044v-2.219c0-.015,0-.029,0-.044s0-.024,0-.036a.86.86,0,0,1,.641-.749l.026-.007a.872.872,0,0,1,.185-.02h35.337c.026,0,.051,0,.077,0l.034,0h0l.04.007a.789.789,0,0,1,.156.044.861.861,0,0,1,.4.32A.847.847,0,0,1,3691.948,2099.734Z" transform="translate(-3654.9 -2098.879)" fill="#ffb93e"/>
        <path id="Path_16771" data-name="Path 16771" d="M3674.6,2102.807h-18.932a.81.81,0,0,1-.762-.811c0-.015,0-.03,0-.044v-2.219c0-.015,0-.029,0-.044s0-.024,0-.036a.833.833,0,0,1,.593-.754l.033-.008a.661.661,0,0,1,.135-.014h16.606c0,.01,0,.019.007.028a7.031,7.031,0,0,0,2.311,3.894Z" transform="translate(-3654.9 -2098.879)" fill="#ffa412"/>
        <g id="Group_12414" data-name="Group 12414" transform="translate(12.984)">
          <rect id="Rectangle_8137" data-name="Rectangle 8137" width="0.402" height="3.928" transform="translate(19.362 0)" fill="#ffa412"/>
          <rect id="Rectangle_8138" data-name="Rectangle 8138" width="0.402" height="3.928" transform="translate(18.003 0)" fill="#ffa412"/>
          <rect id="Rectangle_8139" data-name="Rectangle 8139" width="0.402" height="3.928" transform="translate(16.372 0)" fill="#ffa412"/>
          <rect id="Rectangle_8140" data-name="Rectangle 8140" width="0.402" height="3.928" transform="translate(13.874 0)" fill="#ffa412"/>
          <rect id="Rectangle_8141" data-name="Rectangle 8141" width="0.402" height="3.928" transform="translate(11.231 0)" fill="#ffa412"/>
          <rect id="Rectangle_8142" data-name="Rectangle 8142" width="0.402" height="3.928" transform="translate(7.18 0)" fill="#ffa412"/>
          <rect id="Rectangle_8143" data-name="Rectangle 8143" width="0.402" height="3.928" transform="translate(3.387 0)" fill="#ffa412"/>
          <rect id="Rectangle_8144" data-name="Rectangle 8144" width="0.402" height="3.928" transform="translate(0 0)" fill="#ffa412"/>
          <rect id="Rectangle_8145" data-name="Rectangle 8145" width="0.402" height="3.928" transform="translate(20.656 0)" fill="#ffa412"/>
          <rect id="Rectangle_8146" data-name="Rectangle 8146" width="0.402" height="3.928" transform="translate(21.511 0)" fill="#ffa412"/>
          <rect id="Rectangle_8147" data-name="Rectangle 8147" width="0.402" height="3.928" transform="translate(22.337 0)" fill="#ffa412"/>
          <path id="Path_16772" data-name="Path 16772" d="M4331.366,2098.891v3.9a.844.844,0,0,1-.15.014h-.251v-3.928h.251A.822.822,0,0,1,4331.366,2098.891Z" transform="translate(-4308.007 -2098.877)" fill="#ffa412"/>
          <path id="Path_16773" data-name="Path 16773" d="M4341.866,2100.282v3.173a.858.858,0,0,1-.4.32v-3.813A.86.86,0,0,1,4341.866,2100.282Z" transform="translate(-4317.949 -2099.904)" fill="#ffa412"/>
        </g>
      </g>
      <g id="Group_12417" data-name="Group 12417" transform="translate(0 19.443)">
        <path id="Path_16774" data-name="Path 16774" d="M3690.552,2026.364v2.219a.846.846,0,0,1-.147.478.86.86,0,0,1-.4.32.8.8,0,0,1-.122.037h0l-.034.007a.849.849,0,0,1-.15.014H3654.36a.785.785,0,0,1-.111-.008l-.042-.007a.857.857,0,0,1-.7-.8q0-.022,0-.044v-2.219q0-.022,0-.044a.857.857,0,0,1,.854-.811H3689.7c.022,0,.045,0,.067,0l.029,0,.031,0,.022,0a.793.793,0,0,1,.157.044l.022.009.021.009.043.021.046.026.04.026c.015.01.03.021.044.032l.033.027,0,0,.022.019a.847.847,0,0,1,.062.064l.017.02.017.021c.011.014.021.029.031.043A.847.847,0,0,1,3690.552,2026.364Z" transform="translate(-3653.505 -2025.509)" fill="#ffb93e"/>
        <path id="Path_16775" data-name="Path 16775" d="M3673.2,2029.437h-18.977l-.049-.005a.825.825,0,0,1-.668-.8q0-.022,0-.044v-2.219q0-.022,0-.044a.81.81,0,0,1,.762-.811h16.606c.007.032.015.064.023.1a7.019,7.019,0,0,0,2.268,3.8Z" transform="translate(-3653.505 -2025.509)" fill="#ffa412"/>
        <g id="Group_12416" data-name="Group 12416" transform="translate(12.984 0)">
          <rect id="Rectangle_8148" data-name="Rectangle 8148" width="0.402" height="3.928" transform="translate(19.362 0)" fill="#ffa412"/>
          <rect id="Rectangle_8149" data-name="Rectangle 8149" width="0.402" height="3.928" transform="translate(18.003 0)" fill="#ffa412"/>
          <rect id="Rectangle_8150" data-name="Rectangle 8150" width="0.402" height="3.928" transform="translate(16.373 0)" fill="#ffa412"/>
          <rect id="Rectangle_8151" data-name="Rectangle 8151" width="0.402" height="3.928" transform="translate(13.874 0)" fill="#ffa412"/>
          <rect id="Rectangle_8152" data-name="Rectangle 8152" width="0.402" height="3.928" transform="translate(11.231 0)" fill="#ffa412"/>
          <rect id="Rectangle_8153" data-name="Rectangle 8153" width="0.402" height="3.928" transform="translate(7.18 0)" fill="#ffa412"/>
          <rect id="Rectangle_8154" data-name="Rectangle 8154" width="0.402" height="3.928" transform="translate(3.387 0)" fill="#ffa412"/>
          <rect id="Rectangle_8155" data-name="Rectangle 8155" width="0.402" height="3.928" transform="translate(0 0)" fill="#ffa412"/>
          <rect id="Rectangle_8156" data-name="Rectangle 8156" width="0.402" height="3.928" transform="translate(20.656 0)" fill="#ffa412"/>
          <rect id="Rectangle_8157" data-name="Rectangle 8157" width="0.402" height="3.928" transform="translate(21.511 0)" fill="#ffa412"/>
          <rect id="Rectangle_8158" data-name="Rectangle 8158" width="0.402" height="3.928" transform="translate(22.337 0)" fill="#ffa412"/>
          <path id="Path_16776" data-name="Path 16776" d="M4329.969,2025.524v3.9a.832.832,0,0,1-.151.014h-.251v-3.929h.251A.832.832,0,0,1,4329.969,2025.524Z" transform="translate(-4306.609 -2025.51)" fill="#ffa412"/>
          <path id="Path_16777" data-name="Path 16777" d="M4340.468,2026.916v3.173a.859.859,0,0,1-.4.32V2026.6A.857.857,0,0,1,4340.468,2026.916Z" transform="translate(-4316.55 -2026.538)" fill="#ffa412"/>
        </g>
      </g>
      <g id="Group_12419" data-name="Group 12419" transform="translate(1.826 15.611)">
        <path id="Path_16778" data-name="Path 16778" d="M3724.9,1954.291v2.219a.847.847,0,0,1-.147.478.863.863,0,0,1-.4.32.81.81,0,0,1-.157.044.832.832,0,0,1-.151.014H3688.7a.849.849,0,0,1-.394-.1.859.859,0,0,1-.457-.676q0-.019,0-.038c0-.015,0-.029,0-.044v-2.219c0-.015,0-.029,0-.044a.858.858,0,0,1,.854-.811h35.337a.81.81,0,0,1,.151.014.777.777,0,0,1,.157.044.862.862,0,0,1,.4.32A.846.846,0,0,1,3724.9,1954.291Z" transform="translate(-3687.849 -1953.436)" fill="#ffb93e"/>
        <path id="Path_16779" data-name="Path 16779" d="M3707.544,1957.365h-18.932a.693.693,0,0,1-.352-.1.864.864,0,0,1-.408-.676q0-.019,0-.038c0-.015,0-.029,0-.044v-2.219c0-.015,0-.029,0-.044a.81.81,0,0,1,.762-.811h16.607a7.086,7.086,0,0,0,2.208,3.832Z" transform="translate(-3687.849 -1953.436)" fill="#ffa412"/>
        <g id="Group_12418" data-name="Group 12418" transform="translate(12.984 0)">
          <rect id="Rectangle_8159" data-name="Rectangle 8159" width="0.402" height="3.928" transform="translate(19.362 0)" fill="#ffa412"/>
          <rect id="Rectangle_8160" data-name="Rectangle 8160" width="0.402" height="3.928" transform="translate(18.003 0)" fill="#ffa412"/>
          <rect id="Rectangle_8161" data-name="Rectangle 8161" width="0.402" height="3.928" transform="translate(16.373 0)" fill="#ffa412"/>
          <rect id="Rectangle_8162" data-name="Rectangle 8162" width="0.402" height="3.928" transform="translate(13.874 0)" fill="#ffa412"/>
          <rect id="Rectangle_8163" data-name="Rectangle 8163" width="0.402" height="3.928" transform="translate(11.231 0)" fill="#ffa412"/>
          <rect id="Rectangle_8164" data-name="Rectangle 8164" width="0.402" height="3.928" transform="translate(7.18 0)" fill="#ffa412"/>
          <rect id="Rectangle_8165" data-name="Rectangle 8165" width="0.402" height="3.928" transform="translate(3.387 0)" fill="#ffa412"/>
          <rect id="Rectangle_8166" data-name="Rectangle 8166" width="0.402" height="3.928" transform="translate(0 0)" fill="#ffa412"/>
          <rect id="Rectangle_8167" data-name="Rectangle 8167" width="0.402" height="3.928" transform="translate(20.656 0)" fill="#ffa412"/>
          <rect id="Rectangle_8168" data-name="Rectangle 8168" width="0.402" height="3.928" transform="translate(21.511 0)" fill="#ffa412"/>
          <rect id="Rectangle_8169" data-name="Rectangle 8169" width="0.402" height="3.928" transform="translate(22.337 0)" fill="#ffa412"/>
          <path id="Path_16780" data-name="Path 16780" d="M4364.313,1953.452v3.9a.844.844,0,0,1-.15.014h-.251v-3.928h.251A.822.822,0,0,1,4364.313,1953.452Z" transform="translate(-4340.955 -1953.438)" fill="#ffa412"/>
          <path id="Path_16781" data-name="Path 16781" d="M4374.813,1954.843v3.173a.857.857,0,0,1-.4.32v-3.813A.857.857,0,0,1,4374.813,1954.843Z" transform="translate(-4350.896 -1954.465)" fill="#ffa412"/>
        </g>
      </g>
      <g id="Group_12421" data-name="Group 12421" transform="translate(4.714 11.683)">
        <path id="Path_16782" data-name="Path 16782" d="M3779.216,1880.4v2.219a.849.849,0,0,1-.146.477.862.862,0,0,1-.4.32.794.794,0,0,1-.157.044.85.85,0,0,1-.151.014h-35.337a.858.858,0,0,1-.854-.811c0-.015,0-.029,0-.044V1880.4c0-.015,0-.029,0-.044a.859.859,0,0,1,.753-.8.77.77,0,0,1,.1-.006h35.337a.828.828,0,0,1,.151.014.793.793,0,0,1,.157.044.86.86,0,0,1,.4.32A.848.848,0,0,1,3779.216,1880.4Z" transform="translate(-3742.168 -1879.541)" fill="#ffb93e"/>
        <path id="Path_16783" data-name="Path 16783" d="M3761.864,1883.469h-18.932a.811.811,0,0,1-.763-.811c0-.015,0-.029,0-.044V1880.4c0-.015,0-.029,0-.044a.824.824,0,0,1,.672-.8.621.621,0,0,1,.091-.006h16.606v.006A7.037,7.037,0,0,0,3761.864,1883.469Z" transform="translate(-3742.168 -1879.541)" fill="#ffa412"/>
        <g id="Group_12420" data-name="Group 12420" transform="translate(12.984)">
          <rect id="Rectangle_8170" data-name="Rectangle 8170" width="0.402" height="3.928" transform="translate(19.362 0)" fill="#ffa412"/>
          <rect id="Rectangle_8171" data-name="Rectangle 8171" width="0.402" height="3.928" transform="translate(18.003 0)" fill="#ffa412"/>
          <rect id="Rectangle_8172" data-name="Rectangle 8172" width="0.402" height="3.928" transform="translate(16.372 0)" fill="#ffa412"/>
          <rect id="Rectangle_8173" data-name="Rectangle 8173" width="0.402" height="3.928" transform="translate(13.874 0)" fill="#ffa412"/>
          <rect id="Rectangle_8174" data-name="Rectangle 8174" width="0.402" height="3.928" transform="translate(11.231 0)" fill="#ffa412"/>
          <rect id="Rectangle_8175" data-name="Rectangle 8175" width="0.402" height="3.928" transform="translate(7.18 0)" fill="#ffa412"/>
          <rect id="Rectangle_8176" data-name="Rectangle 8176" width="0.402" height="3.928" transform="translate(3.387 0)" fill="#ffa412"/>
          <rect id="Rectangle_8177" data-name="Rectangle 8177" width="0.402" height="3.928" transform="translate(0 0)" fill="#ffa412"/>
          <rect id="Rectangle_8178" data-name="Rectangle 8178" width="0.402" height="3.928" transform="translate(20.656 0)" fill="#ffa412"/>
          <rect id="Rectangle_8179" data-name="Rectangle 8179" width="0.402" height="3.928" transform="translate(21.511 0)" fill="#ffa412"/>
          <rect id="Rectangle_8180" data-name="Rectangle 8180" width="0.402" height="3.928" transform="translate(22.337 0)" fill="#ffa412"/>
          <path id="Path_16784" data-name="Path 16784" d="M4418.634,1879.555v3.9a.853.853,0,0,1-.15.014h-.251v-3.929h.251A.83.83,0,0,1,4418.634,1879.555Z" transform="translate(-4395.275 -1879.541)" fill="#ffa412"/>
          <path id="Path_16785" data-name="Path 16785" d="M4429.134,1880.946v3.173a.859.859,0,0,1-.4.32v-3.813A.857.857,0,0,1,4429.134,1880.946Z" transform="translate(-4405.217 -1880.568)" fill="#ffa412"/>
        </g>
      </g>
      <g id="Group_12423" data-name="Group 12423" transform="translate(0.074 7.76)">
        <path id="Path_16786" data-name="Path 16786" d="M3691.948,1806.617v2.219a.846.846,0,0,1-.146.477.86.86,0,0,1-.4.32.789.789,0,0,1-.156.044l-.05.008-.04,0h-35.4a.857.857,0,0,1-.854-.811c0-.015,0-.029,0-.044v-2.219c0-.015,0-.029,0-.044a.857.857,0,0,1,.854-.811h35.383a.888.888,0,0,1,.105.012.773.773,0,0,1,.156.044c.025.01.05.021.074.033l.044.024,0,0,.043.027.007,0,.038.028a.746.746,0,0,1,.085.074l.024.025,0,0,.015.016,0,0c.008.01.017.02.025.031s.023.03.034.046A.846.846,0,0,1,3691.948,1806.617Z" transform="translate(-3654.9 -1805.762)" fill="#ffb93e"/>
        <path id="Path_16787" data-name="Path 16787" d="M3674.6,1809.69h-18.932a.81.81,0,0,1-.762-.811c0-.015,0-.029,0-.044v-2.219c0-.015,0-.029,0-.044a.81.81,0,0,1,.762-.811h16.606c.007.03.014.06.022.091a7.008,7.008,0,0,0,2.3,3.832Z" transform="translate(-3654.9 -1805.762)" fill="#ffa412"/>
        <g id="Group_12422" data-name="Group 12422" transform="translate(12.984)">
          <rect id="Rectangle_8181" data-name="Rectangle 8181" width="0.402" height="3.929" transform="translate(19.362 0)" fill="#ffa412"/>
          <rect id="Rectangle_8182" data-name="Rectangle 8182" width="0.402" height="3.929" transform="translate(18.003 0)" fill="#ffa412"/>
          <rect id="Rectangle_8183" data-name="Rectangle 8183" width="0.402" height="3.929" transform="translate(16.372 0)" fill="#ffa412"/>
          <rect id="Rectangle_8184" data-name="Rectangle 8184" width="0.402" height="3.929" transform="translate(13.874 0)" fill="#ffa412"/>
          <rect id="Rectangle_8185" data-name="Rectangle 8185" width="0.402" height="3.929" transform="translate(11.231 0)" fill="#ffa412"/>
          <rect id="Rectangle_8186" data-name="Rectangle 8186" width="0.402" height="3.929" transform="translate(7.18 0)" fill="#ffa412"/>
          <rect id="Rectangle_8187" data-name="Rectangle 8187" width="0.402" height="3.929" transform="translate(3.387 0)" fill="#ffa412"/>
          <rect id="Rectangle_8188" data-name="Rectangle 8188" width="0.402" height="3.929" transform="translate(0 0)" fill="#ffa412"/>
          <rect id="Rectangle_8189" data-name="Rectangle 8189" width="0.402" height="3.929" transform="translate(20.656 0)" fill="#ffa412"/>
          <rect id="Rectangle_8190" data-name="Rectangle 8190" width="0.402" height="3.929" transform="translate(21.511 0)" fill="#ffa412"/>
          <rect id="Rectangle_8191" data-name="Rectangle 8191" width="0.402" height="3.929" transform="translate(22.337 0)" fill="#ffa412"/>
          <path id="Path_16788" data-name="Path 16788" d="M4331.366,1805.776v3.9a.844.844,0,0,1-.15.014h-.251v-3.928h.251A.822.822,0,0,1,4331.366,1805.776Z" transform="translate(-4308.007 -1805.762)" fill="#ffa412"/>
          <path id="Path_16789" data-name="Path 16789" d="M4341.866,1807.167v3.173a.858.858,0,0,1-.4.32v-3.813A.859.859,0,0,1,4341.866,1807.167Z" transform="translate(-4317.949 -1806.789)" fill="#ffa412"/>
        </g>
      </g>
      <g id="Group_12425" data-name="Group 12425" transform="translate(2.672 3.922)">
        <path id="Path_16790" data-name="Path 16790" d="M3740.818,1734.428v2.219a.85.85,0,0,1-.146.477.863.863,0,0,1-.4.32.806.806,0,0,1-.156.044.836.836,0,0,1-.151.014h-35.337a.845.845,0,0,1-.382-.091.857.857,0,0,1-.469-.685c0-.011,0-.023,0-.035s0-.029,0-.044v-2.219c0-.015,0-.029,0-.044a.859.859,0,0,1,.753-.8.793.793,0,0,1,.1-.006h35.337a.836.836,0,0,1,.151.014.807.807,0,0,1,.156.044.863.863,0,0,1,.4.32A.85.85,0,0,1,3740.818,1734.428Z" transform="translate(-3703.771 -1733.573)" fill="#ffb93e"/>
        <path id="Path_16791" data-name="Path 16791" d="M3723.466,1737.5h-18.932a.688.688,0,0,1-.341-.091.862.862,0,0,1-.419-.685c0-.011,0-.023,0-.035s0-.029,0-.044v-2.219c0-.015,0-.029,0-.044a.825.825,0,0,1,.672-.8.627.627,0,0,1,.09-.006h16.606v.006a7.079,7.079,0,0,0,2.215,3.832C3723.393,1737.442,3723.429,1737.472,3723.466,1737.5Z" transform="translate(-3703.771 -1733.573)" fill="#ffa412"/>
        <g id="Group_12424" data-name="Group 12424" transform="translate(12.984)">
          <rect id="Rectangle_8192" data-name="Rectangle 8192" width="0.402" height="3.928" transform="translate(19.362 0)" fill="#ffa412"/>
          <rect id="Rectangle_8193" data-name="Rectangle 8193" width="0.402" height="3.928" transform="translate(18.003 0)" fill="#ffa412"/>
          <rect id="Rectangle_8194" data-name="Rectangle 8194" width="0.402" height="3.928" transform="translate(16.373 0)" fill="#ffa412"/>
          <rect id="Rectangle_8195" data-name="Rectangle 8195" width="0.402" height="3.928" transform="translate(13.874 0)" fill="#ffa412"/>
          <rect id="Rectangle_8196" data-name="Rectangle 8196" width="0.402" height="3.928" transform="translate(11.231 0)" fill="#ffa412"/>
          <rect id="Rectangle_8197" data-name="Rectangle 8197" width="0.402" height="3.928" transform="translate(7.18 0)" fill="#ffa412"/>
          <rect id="Rectangle_8198" data-name="Rectangle 8198" width="0.402" height="3.928" transform="translate(3.387 0)" fill="#ffa412"/>
          <rect id="Rectangle_8199" data-name="Rectangle 8199" width="0.402" height="3.928" transform="translate(0 0)" fill="#ffa412"/>
          <rect id="Rectangle_8200" data-name="Rectangle 8200" width="0.402" height="3.928" transform="translate(20.656 0)" fill="#ffa412"/>
          <rect id="Rectangle_8201" data-name="Rectangle 8201" width="0.402" height="3.928" transform="translate(21.511 0)" fill="#ffa412"/>
          <rect id="Rectangle_8202" data-name="Rectangle 8202" width="0.402" height="3.928" transform="translate(22.337 0)" fill="#ffa412"/>
          <path id="Path_16792" data-name="Path 16792" d="M4380.235,1733.585v3.9a.833.833,0,0,1-.15.014h-.251v-3.928h.251A.833.833,0,0,1,4380.235,1733.585Z" transform="translate(-4356.875 -1733.571)" fill="#ffa412"/>
          <path id="Path_16793" data-name="Path 16793" d="M4390.735,1734.976v3.173a.858.858,0,0,1-.4.32v-3.813A.859.859,0,0,1,4390.735,1734.976Z" transform="translate(-4366.818 -1734.598)" fill="#ffa412"/>
        </g>
      </g>
      <g id="Group_12427" data-name="Group 12427" transform="translate(0.074 0)">
        <path id="Path_16794" data-name="Path 16794" d="M3691.948,1660.648v2.219a.846.846,0,0,1-.146.477.859.859,0,0,1-.4.32.8.8,0,0,1-.156.044l-.05.008-.028,0-.028,0h-35.383a.857.857,0,0,1-.854-.811c0-.015,0-.029,0-.044v-2.219c0-.015,0-.029,0-.044a.857.857,0,0,1,.854-.811h35.337a.836.836,0,0,1,.151.014.8.8,0,0,1,.156.044.859.859,0,0,1,.4.32A.846.846,0,0,1,3691.948,1660.648Z" transform="translate(-3654.9 -1659.793)" fill="#ffb93e"/>
        <path id="Path_16795" data-name="Path 16795" d="M3674.6,1663.721h-18.932a.81.81,0,0,1-.762-.811c0-.015,0-.029,0-.044v-2.219c0-.015,0-.029,0-.044a.81.81,0,0,1,.762-.811h16.606a7.045,7.045,0,0,0,2.317,3.922Z" transform="translate(-3654.9 -1659.793)" fill="#ffa412"/>
        <g id="Group_12426" data-name="Group 12426" transform="translate(12.984)">
          <rect id="Rectangle_8203" data-name="Rectangle 8203" width="0.402" height="3.929" transform="translate(19.362 0)" fill="#ffa412"/>
          <rect id="Rectangle_8204" data-name="Rectangle 8204" width="0.402" height="3.929" transform="translate(18.003 0)" fill="#ffa412"/>
          <rect id="Rectangle_8205" data-name="Rectangle 8205" width="0.402" height="3.929" transform="translate(16.372 0)" fill="#ffa412"/>
          <rect id="Rectangle_8206" data-name="Rectangle 8206" width="0.402" height="3.929" transform="translate(13.874 0)" fill="#ffa412"/>
          <rect id="Rectangle_8207" data-name="Rectangle 8207" width="0.402" height="3.929" transform="translate(11.231 0)" fill="#ffa412"/>
          <rect id="Rectangle_8208" data-name="Rectangle 8208" width="0.402" height="3.929" transform="translate(7.18 0)" fill="#ffa412"/>
          <rect id="Rectangle_8209" data-name="Rectangle 8209" width="0.402" height="3.929" transform="translate(3.387 0)" fill="#ffa412"/>
          <rect id="Rectangle_8210" data-name="Rectangle 8210" width="0.402" height="3.929" transform="translate(0 0)" fill="#ffa412"/>
          <rect id="Rectangle_8211" data-name="Rectangle 8211" width="0.402" height="3.929" transform="translate(20.656 0)" fill="#ffa412"/>
          <rect id="Rectangle_8212" data-name="Rectangle 8212" width="0.402" height="3.929" transform="translate(21.511 0)" fill="#ffa412"/>
          <rect id="Rectangle_8213" data-name="Rectangle 8213" width="0.402" height="3.929" transform="translate(22.337 0)" fill="#ffa412"/>
          <path id="Path_16796" data-name="Path 16796" d="M4331.366,1659.806v3.9a.833.833,0,0,1-.15.014h-.251v-3.928h.251A.833.833,0,0,1,4331.366,1659.806Z" transform="translate(-4308.007 -1659.792)" fill="#ffa412"/>
          <path id="Path_16797" data-name="Path 16797" d="M4341.866,1661.2v3.173a.859.859,0,0,1-.4.32v-3.813A.859.859,0,0,1,4341.866,1661.2Z" transform="translate(-4317.949 -1660.819)" fill="#ffa412"/>
        </g>
      </g>
    </g>
    <circle id="Ellipse_656" data-name="Ellipse 656" cx="19.999" cy="19.999" r="19.999" transform="translate(146.499 503.943) rotate(-45)" fill="#e2810e"/>
    <circle id="Ellipse_657" data-name="Ellipse 657" cx="19.999" cy="19.999" r="19.999" transform="translate(144.755 503.943) rotate(-45)" fill="#ffb93e"/>
    <g id="Group_12429" data-name="Group 12429" transform="translate(154.816 485.958)">
      <path id="Path_16798" data-name="Path 16798" d="M3383.637,1788.555a18.222,18.222,0,1,1,12.885-5.337A18.1,18.1,0,0,1,3383.637,1788.555Zm0-35.356a17.134,17.134,0,1,0,12.116,5.018A17.022,17.022,0,0,0,3383.637,1753.2Z" transform="translate(-3365.416 -1752.112)" fill="#ffa412"/>
    </g>
    <g id="Group_12438" data-name="Group 12438" transform="translate(212.506 492.79)">
      <g id="Group_12433" data-name="Group 12433" transform="translate(16.578 12.382)">
        <path id="Path_16800" data-name="Path 16800" d="M4813.468,2118.774s-2.169-2.531-.133-4.139a5.774,5.774,0,0,1,2.7-.827s-1.718,2.881-1.162,3.168,1.683-3.348,1.683-3.348,3.384-.328,4.473.2c0,0-2.893,2.368-2.284,2.509s3.734-2.183,3.734-2.183,3.15.536,2.981,2.457-1.253,2.515-1.729,2.464-3.268-1.116-3.329-.726,1.619,1.668,2.795,1.728c0,0-2.22,2.449-3.7,1.742s-1.6-1.827-2.521-2.247-1.705-.419-1.325.01,2.044.845,2.571,1.775,1,1.558-.529,1.328-4.009-1.347-4.118-2.626Z" transform="translate(-4809.801 -2113.525)" fill="#82b378"/>
        <g id="Group_12432" data-name="Group 12432" transform="translate(0 3.117)">
          <path id="Path_16801" data-name="Path 16801" d="M4807.908,2172.166s-8.555-.33-10.444,2.117a6.175,6.175,0,0,1-1.7,2.391l-.2.546s1.482-1.563,2.013-1.657C4797.573,2175.562,4796.743,2172.531,4807.908,2172.166Z" transform="translate(-4793.796 -2172.151)" fill="#82b378"/>
          <path id="Path_16802" data-name="Path 16802" d="M4764.354,2253.385a5.371,5.371,0,0,0-1.963,3.784l.333.03a8.683,8.683,0,0,1,1.646-3.49C4765.431,2252.727,4764.354,2253.385,4764.354,2253.385Z" transform="translate(-4762.391 -2248.862)" fill="#82b378"/>
        </g>
      </g>
      <g id="Group_12435" data-name="Group 12435" transform="translate(0 5.509)">
        <path id="Path_16803" data-name="Path 16803" d="M4463.213,1993.194s3.451-1.933,1.84-4.556a6.853,6.853,0,0,0-2.669-2.025s.736,3.911,0,4-.506-4.418-.506-4.418-3.635-1.749-5.062-1.611c0,0,2.255,3.82,1.519,3.727s-3.267-3.957-3.267-3.957-3.728-.69-4.326,1.519.368,3.313.92,3.451,4.1.092,4,.552-2.484,1.2-3.819.782c0,0,1.473,3.635,3.405,3.451s2.531-1.38,3.728-1.472,2.071.23,1.473.552-2.623.106-3.589.927-1.749,1.328.046,1.7,5.016.138,5.66-1.243Z" transform="translate(-4450.553 -1984.257)" fill="#a8d29f"/>
        <g id="Group_12434" data-name="Group 12434" transform="translate(1.891 2.311)">
          <path id="Path_16804" data-name="Path 16804" d="M4486.13,2027.726s9.664,3.129,10.769,6.626a7.338,7.338,0,0,0,.92,3.359v.69s-1.013-2.347-1.564-2.669C4496.254,2035.733,4498.417,2032.7,4486.13,2027.726Z" transform="translate(-4486.13 -2027.726)" fill="#82b378"/>
          <path id="Path_16805" data-name="Path 16805" d="M4697.769,2207.91a6.374,6.374,0,0,1,.641,5.018l-.383-.1s.372-3.034-.408-4.56S4697.769,2207.91,4697.769,2207.91Z" transform="translate(-4686.081 -2197.924)" fill="#82b378"/>
        </g>
      </g>
      <g id="Group_12437" data-name="Group 12437" transform="translate(15.159 0)">
        <path id="Path_16806" data-name="Path 16806" d="M4738.693,1892.406s-4.55-2.548-2.426-6.005a9.031,9.031,0,0,1,3.518-2.669s-.97,5.156,0,5.277.667-5.823.667-5.823,4.792-2.3,6.673-2.123c0,0-2.973,5.035-2,4.913s4.307-5.217,4.307-5.217,4.914-.91,5.7,2-.486,4.368-1.213,4.55-5.4.121-5.277.728,3.275,1.577,5.035,1.031c0,0-1.941,4.792-4.489,4.549s-3.336-1.82-4.913-1.941-2.73.3-1.941.728,3.458.139,4.731,1.222,2.3,1.75-.061,2.235-6.612.182-7.461-1.638Z" transform="translate(-4735.702 -1880.625)" fill="#a8d29f"/>
        <g id="Group_12436" data-name="Group 12436" transform="translate(0.588 3.046)">
          <path id="Path_16807" data-name="Path 16807" d="M4784.55,1937.927s-12.739,4.125-14.194,8.735a9.678,9.678,0,0,1-1.213,4.428v.91s1.334-3.094,2.063-3.518C4771.2,1948.482,4768.354,1944.478,4784.55,1937.927Z" transform="translate(-4767.953 -1937.927)" fill="#82b378"/>
          <path id="Path_16808" data-name="Path 16808" d="M4747.955,2175.442a8.4,8.4,0,0,0-.845,6.615l.505-.136s-.491-4,.538-6.011S4747.955,2175.442,4747.955,2175.442Z" transform="translate(-4746.765 -2162.279)" fill="#82b378"/>
        </g>
      </g>
      <path id="Path_16809" data-name="Path 16809" d="M4630.36,2299.354a8.911,8.911,0,0,0,8.912-8.912h-17.823A8.911,8.911,0,0,0,4630.36,2299.354Z" transform="translate(-4612.364 -2268.656)" fill="#f1a34f"/>
      <path id="Path_16810" data-name="Path 16810" d="M4651.9,2299.285a8.917,8.917,0,0,1-10.019-8.844h2.214A8.913,8.913,0,0,0,4651.9,2299.285Z" transform="translate(-4631.707 -2268.655)" fill="#ffb973"/>
      <path id="Path_16811" data-name="Path 16811" d="M4637.2,2447.023h-18.069a1.1,1.1,0,0,1,1.1-1.1H4636.1a1.1,1.1,0,0,1,1.1,1.1Z" transform="translate(-4610.171 -2415.871)" fill="#f1a34f"/>
      <rect id="Rectangle_8214" data-name="Rectangle 8214" width="18.319" height="0.273" transform="translate(8.792 21.787)" fill="#d86713"/>
    </g>
    <g id="Group_12441" data-name="Group 12441" transform="translate(137.034 441.17)">
      <path id="Path_16812" data-name="Path 16812" d="M3315.9,1078.056l0,.54s-.147,1.69,1.934,1.937,3.787.215,3.731-1.089a27.572,27.572,0,0,1-.538-3.412,5.931,5.931,0,0,1,.074-1.012l-4.032-.081-1.187.194Z" transform="translate(-3300.731 -1066.152)" fill="#ffb27d"/>
      <path id="Path_16813" data-name="Path 16813" d="M3315.88,1075.133l.015,2.923a3.411,3.411,0,0,0,1.454.321,4.5,4.5,0,0,0,3.677-2.345,5.931,5.931,0,0,1,.074-1.012l-4.032-.081Z" transform="translate(-3300.731 -1066.152)" fill="#e2915a"/>
      <path id="Path_16814" data-name="Path 16814" d="M3301.326,951.312c-.468,2.518-3.716,2.435-5.121,2.277-.4-.044-.644-.094-.644-.094-.446-.119-.694-.821-.81-1.74a14.31,14.31,0,0,1,.367-5.172c.462-1.028,1.333-2.139,4.605-1.337S3301.926,948.086,3301.326,951.312Z" transform="translate(-3280.648 -943.093)" fill="#ffb27d"/>
      <path id="Path_16815" data-name="Path 16815" d="M3387.888,2416.24h-4.6a11.149,11.149,0,0,1,.367-1.653,4.736,4.736,0,0,1,.261-.663c.448-.894,3.292-.325,3.292-.325a2.188,2.188,0,0,1,.47,1.091A9.127,9.127,0,0,1,3387.888,2416.24Z" transform="translate(-3364.552 -2333.476)" fill="#233862"/>
      <path id="Path_16816" data-name="Path 16816" d="M3040.349,2381.415a2.5,2.5,0,0,1-.319,1.453h-9.106a1.57,1.57,0,0,1,1.378-.977,6.912,6.912,0,0,0,3.685-1.705,2.743,2.743,0,0,0,.713-1.292c.429-1.907,3.542.585,3.542.585A15.432,15.432,0,0,1,3040.349,2381.415Z" transform="translate(-3030.925 -2300.104)" fill="#233862"/>
      <path id="Path_16817" data-name="Path 16817" d="M3133.181,1637.63a14.408,14.408,0,0,0-.229,1.682c-.289,5.646-4.753,18.557-5.552,18.858-1.235.466-3.181-.525-4.2-.849a.873.873,0,0,1-.613-.991c2.21-10.162,3.023-24.795,3.318-33.458a39.311,39.311,0,0,1,.9-7.378s10.886-2.9,10.951.77C3137.816,1619.514,3134.152,1632.266,3133.181,1637.63Z" transform="translate(-3117.7 -1576.937)" fill="#2b478b"/>
      <path id="Path_16818" data-name="Path 16818" d="M3192.6,1637.63l-7.272-14.758a39.3,39.3,0,0,1,.9-7.378s10.886-2.9,10.951.77C3197.236,1619.514,3193.572,1632.266,3192.6,1637.63Z" transform="translate(-3177.12 -1576.937)" fill="#233862"/>
      <path id="Path_16819" data-name="Path 16819" d="M3276.564,1625.992l5.755,41.711a11.262,11.262,0,0,0,4.493.122s1.685-22.184,1.544-27.547,1.209-14.351-.308-15.342S3276.564,1625.992,3276.564,1625.992Z" transform="translate(-3263.505 -1586.653)" fill="#2b478b"/>
      <path id="Path_16820" data-name="Path 16820" d="M3283.667,910.745a10.82,10.82,0,0,0,3.139-.849,4.786,4.786,0,0,1,3.683.358.842.842,0,0,0-.138-.34.756.756,0,0,1,.291.431c.026.019.038.032.031.037a.971.971,0,0,1,.472.031s-.129-.019-.175.065a.081.081,0,0,1-.021.023c2.15,1.039,2.349,4.438,1.657,5.224a17.262,17.262,0,0,0-1.831,3.077,1.827,1.827,0,0,1-.212-1.336c.151-.833-.568-.833-1.476-1.211s-.151-1.438-.946-2.082-3.709-.265-3.671-.757C3283.387,913.022,3283.667,910.856,3283.667,910.745Z" transform="translate(-3270.2 -909.653)" fill="#233862"/>
      <path id="Path_16821" data-name="Path 16821" d="M3216.955,1173.3l-1.325,28.43s-11.059.181-10.743-2.322,3.987-25.238,3.987-25.238l8.082-.871Z" transform="translate(-3195.632 -1159.288)" fill="#e9f3fe"/>
      <path id="Path_16822" data-name="Path 16822" d="M3371.032,1170.589c-.658,1.974.583,8.6,1.025,10.84.1.475.162.755.162.755-1.531,2.492-7.14,2.459-7.14,2.459a107.172,107.172,0,0,1-1.64-12.361l4.3-18.866,5.415,5.005s-.41,3.053-.917,6.159A51.5,51.5,0,0,1,3371.032,1170.589Z" transform="translate(-3345.761 -1140.458)" fill="#22407a"/>
      <path id="Path_16823" data-name="Path 16823" d="M3305.294,1066.686s-.1.325-.925.206c0,0-.688-.1-.637-.462A2.234,2.234,0,0,1,3305.294,1066.686Z" transform="translate(-3289.227 -1058.053)" fill="#fff"/>
      <path id="Path_16824" data-name="Path 16824" d="M3051.467,1155.9l0,.012c-.262.254-7.644,7.421-9.074,10.229-1.456,2.848,6.655,8.521,6.655,8.521a1.89,1.89,0,0,0,.884.125c-.383,3.149-.812,6.054-.558,7.294.46,2.241,2.533,2.994,2.533,2.822,0-.055.534-8.173,1.17-12.367,1.411-9.307,3.095-18.042,3.095-18.042A15.565,15.565,0,0,0,3051.467,1155.9Zm-4.4,11.47a.066.066,0,0,1-.011-.043c0-.41,1.564-1.316,3.258-2.384l.032-.033,0,0c-.03.872-.027,1.728.025,2.525a32.293,32.293,0,0,1-.19,5.043C3049.383,1171.222,3047.229,1167.839,3047.072,1167.375Z" transform="translate(-3041.615 -1141.483)" fill="#22407a"/>
      <g id="Group_12440" data-name="Group 12440" transform="translate(12.962 11.955)">
        <path id="Path_16825" data-name="Path 16825" d="M3345.9,1141.27c.013-.271-1.271-.646-1.271-.646a5.34,5.34,0,0,1-3.895,2.075,4.3,4.3,0,0,0,1.5,1.692S3345.817,1142.881,3345.9,1141.27Z" transform="translate(-3337.222 -1140.3)" fill="#d9e9f9"/>
        <g id="Group_12439" data-name="Group 12439" transform="translate(0 2.774)">
          <path id="Path_16826" data-name="Path 16826" d="M3274.842,1205.542a2.684,2.684,0,0,0,.854,1.734l.771.71a.451.451,0,0,0,.661-.053l.955-1.213a1.61,1.61,0,0,0,.337-1.149c-.089-.918-.256-2.686-.389-4.393-.108-1.383-.2-2.727-.2-3.544-.021-2.61.5-10.932.5-10.932l-.626.033a33.517,33.517,0,0,0-2.367,7.626,29.108,29.108,0,0,0-.433,3.427A63.388,63.388,0,0,0,3274.842,1205.542Z" transform="translate(-3274.737 -1186.702)" fill="#c65447"/>
          <path id="Path_16827" data-name="Path 16827" d="M3274.842,1341.943a2.685,2.685,0,0,0,.854,1.734l.771.71a.452.452,0,0,0,.661-.053l.955-1.213a1.61,1.61,0,0,0,.337-1.149c-.089-.918-.256-2.687-.389-4.394a12.626,12.626,0,0,1-2.7-6.817,29.108,29.108,0,0,0-.433,3.427A63.388,63.388,0,0,0,3274.842,1341.943Z" transform="translate(-3274.737 -1323.103)" fill="#ba4c43"/>
        </g>
        <path id="Path_16828" data-name="Path 16828" d="M3294.61,1150.288s-1.284-.761-1.288-1.586c0,0-.829-.1-1.191.3a4.272,4.272,0,0,0,.1,2.235S3294.078,1150.954,3294.61,1150.288Z" transform="translate(-3291.102 -1147.937)" fill="#d9e9f9"/>
        <path id="Path_16829" data-name="Path 16829" d="M3322.179,1169.019l-1.741-.417a.264.264,0,0,0-.221.3,2.217,2.217,0,0,0,.7,1.178C3321.135,1170.15,3322.59,1169.593,3322.179,1169.019Z" transform="translate(-3317.798 -1166.79)" fill="#ba4c43"/>
        <path id="Path_16830" data-name="Path 16830" d="M3345.694,1135.356c.013-.271-.857-.83-.857-.83a6.126,6.126,0,0,1-4.107,2,4.294,4.294,0,0,0,1.5,1.692S3345.614,1136.968,3345.694,1135.356Z" transform="translate(-3337.222 -1134.526)" fill="#e9f3fe"/>
        <path id="Path_16831" data-name="Path 16831" d="M3294.792,1145.246s-1.3-.688-1.3-1.513a4.143,4.143,0,0,0-1.146.747,2.381,2.381,0,0,0,.069,1.714S3294.261,1145.912,3294.792,1145.246Z" transform="translate(-3291.284 -1143.244)" fill="#e9f3fe"/>
      </g>
      <path id="Path_16832" data-name="Path 16832" d="M3160.963,1520.966a1.2,1.2,0,0,1,1.354-1.2.741.741,0,0,1,.5.278c.493.656.962,2.566.088,2.655a1.92,1.92,0,0,1-1.164-.48,1.694,1.694,0,0,1-.781-1.146Z" transform="translate(-3154.05 -1487.32)" fill="#ffb27d"/>
      <path id="Path_16833" data-name="Path 16833" d="M3450.2,1380.262c-1.586-1.65-4.325-4.9-4.228-7.562.129-3.732,4.411-9.287,4.411-9.287a51.537,51.537,0,0,1-1.208,6.008C3448.518,1371.4,3449.758,1378.019,3450.2,1380.262Z" transform="translate(-3423.905 -1339.291)" fill="#233862"/>
      <path id="Path_16834" data-name="Path 16834" d="M3436.593,1558.227a2.837,2.837,0,0,1-1.832.285,1.771,1.771,0,0,0-2.28.381c-.773.881-.937,1.491-.773,1.817s1.966.2,2.265,0,.773-.7,1.073-.617a1.894,1.894,0,0,0,1.916-.895C3437.2,1558.9,3436.563,1558.748,3436.593,1558.227Z" transform="translate(-3410.347 -1523.747)" fill="#ffb27d"/>
      <path id="Path_16835" data-name="Path 16835" d="M3444.394,1153.417s4.54.5,5.611,2.48,6.638,9.99,6.456,13.319-7.594,7.064-7.594,7.064-1.642-.694-1.667-1.44,5.125-5.208,4.812-6.04-5.982-7.417-6.529-9.588S3444.394,1153.417,3444.394,1153.417Z" transform="translate(-3422.413 -1140.458)" fill="#22407a"/>
      <path id="Path_16836" data-name="Path 16836" d="M3136.357,1314.1l-.032.033c-1.693,1.068-3.258,1.974-3.258,2.384-.226-.723,1.974-3.743,2.686-4.358S3136.357,1314.1,3136.357,1314.1Z" transform="translate(-3127.621 -1290.667)" fill="#233862"/>
      <path id="Path_16837" data-name="Path 16837" d="M3365.313,1134.526s-3.447,14.436-2.9,19.874a37.056,37.056,0,0,1,4.317-10.571s-1.113-.979-1.052-1.34a3.81,3.81,0,0,1,1.627-.08s-.089-6.223-.588-6.88A3.641,3.641,0,0,0,3365.313,1134.526Z" transform="translate(-3344.736 -1122.571)" fill="#233862"/>
      <path id="Path_16838" data-name="Path 16838" d="M3250.2,1143.733c.047.022-3.416,14.106-3.707,18.615,0,0,.345-8.045.311-10.363,0,0,1.431-.758,1.431-1.024s-1.527-.985-1.527-.985.967-4.954,1.495-5.5A4.412,4.412,0,0,1,3250.2,1143.733Z" transform="translate(-3235.035 -1131.289)" fill="#233862"/>
    </g>
    <g id="Group_12442" data-name="Group 12442" transform="translate(188.591 470.802)">
      <path id="Path_16839" data-name="Path 16839" d="M4026.361,1507.258l9.438-.011a2.241,2.241,0,0,0,2.231-2.236l0-4.09a2.241,2.241,0,0,0-2.236-2.231l-9.438.011a2.24,2.24,0,0,0-2.231,2.236l0,4.09A2.24,2.24,0,0,0,4026.361,1507.258Z" transform="translate(-4022.875 -1497.007)" fill="#233862"/>
      <path id="Path_16840" data-name="Path 16840" d="M4014.318,1469.785h0a2.249,2.249,0,0,0-1.725-1.118h0c-.072-.007-.145-.011-.219-.011l-1.88,0v-.883a.74.74,0,0,0-.741-.739h-.49l-1.973,0h-.356a.74.74,0,0,0-.738.74v.883l-3.244,0a2.249,2.249,0,0,0-2.239,2.244l.005,4.138a2.248,2.248,0,0,0,2.244,2.239l9.421-.01a2.189,2.189,0,0,0,.483-.054h0a2.2,2.2,0,0,0,.694-.285,2.246,2.246,0,0,0,1.06-1.905l0-4.137A2.219,2.219,0,0,0,4014.318,1469.785Zm-7.662-2.005a.277.277,0,0,1,.194-.264.275.275,0,0,1,.082-.013h2.818a.277.277,0,0,1,.277.276v.883l-3.372,0Z" transform="translate(-4000.711 -1467.037)" fill="#2b478b"/>
    </g>
  </g>
</svg>
