<svg id="Group_12486" data-name="Group 12486" xmlns="http://www.w3.org/2000/svg" width="186.948" height="120" viewBox="0 0 186.948 120">
  <path id="Path_17027" data-name="Path 17027" d="M2325.562,1227.2s-21.731-31.507-3.675-65.618c16.021-30.266,34.7-28.2,48.4-15.914,5.837,5.231,27.64.944,46.708-24.738,20.3-27.342,74.6-13.911,65.176,42.675-5.246,31.507,18.182,32.406,5.873,63.662Z" transform="translate(-2312.921 -1107.27)" fill="#eafcfc"/>
  <g id="Group_12552" data-name="Group 12552" transform="translate(27.023 4.108)">
    <g id="Group_12547" data-name="Group 12547" transform="translate(0 70.243)">
      <path id="Path_16944" data-name="Path 16944" d="M328.742,635.731a104.777,104.777,0,0,1,2.515-36.447h-1.572c-5.079,16.317-3.939,33.225-3.66,36.447Z" transform="translate(-305.7 -590.082)" fill="#09c9ce"/>
      <path id="Path_16945" data-name="Path 16945" d="M328.086,622.656V619.72s-10.176-5.019-14.708-12.142l-1.481.416S316.431,615.117,328.086,622.656Z" transform="translate(-307.062 -589.264)" fill="#09c9ce"/>
      <path id="Path_16946" data-name="Path 16946" d="M326.361,626.744v-2.955s12.31-6.887,17.807-13.6l.856,1.189S339.348,619.157,326.361,626.744Z" transform="translate(-305.637 -589.007)" fill="#09c9ce"/>
      <path id="Path_16947" data-name="Path 16947" d="M319.564,608.673a15.779,15.779,0,0,0-.277,6.568l1.8,1.619s-1.387-4.95-.37-7.817Z" transform="translate(-306.357 -589.157)" fill="#09c9ce"/>
      <path id="Path_16948" data-name="Path 16948" d="M343.6,615.816a12.384,12.384,0,0,1-5.559-.617l-.015.015a3.587,3.587,0,0,1-.7,1.242,15.807,15.807,0,0,0,6.488.554Z" transform="translate(-304.556 -588.514)" fill="#09c9ce"/>
      <path id="Path_16949" data-name="Path 16949" d="M340.743,622.207a15.789,15.789,0,0,0-5.585-3.469l-2.3.776s4.993,1.224,6.99,3.519Z" transform="translate(-304.996 -588.165)" fill="#09c9ce"/>
      <path id="Path_16950" data-name="Path 16950" d="M320.556,615.832a15.976,15.976,0,0,0-3.281,5.273l1.16.36c.5-1.806,2.2-3.733,3.431-4.949A2.918,2.918,0,0,1,320.556,615.832Z" transform="translate(-306.532 -588.451)" fill="#09c9ce"/>
      <path id="Path_16951" data-name="Path 16951" d="M312.334,617.186s5.065-.127,8.194-1.554l-1.018-1.422s-4.062,2.076-7.089,1.764Z" transform="translate(-307.019 -588.611)" fill="#09c9ce"/>
      <path id="Path_16952" data-name="Path 16952" d="M335.5,611.577s-2.145,4.591-2.264,8.027l1.728-.277s-.047-4.562,1.582-7.133Z" transform="translate(-304.959 -588.87)" fill="#09c9ce"/>
      <g id="Group_12528" data-name="Group 12528" transform="translate(19.731)">
        <g id="Group_12526" data-name="Group 12526">
          <path id="Path_16953" data-name="Path 16953" d="M335.468,597.534a5.119,5.119,0,1,1-3.385-6.4A5.119,5.119,0,0,1,335.468,597.534Z" transform="translate(-325.457 -590.907)" fill="#ffd066"/>
          <path id="Path_16954" data-name="Path 16954" d="M334.485,597.173a4.178,4.178,0,1,1-2.763-5.224A4.177,4.177,0,0,1,334.485,597.173Z" transform="translate(-325.372 -590.823)" fill="#feac1a"/>
        </g>
        <g id="Group_12527" data-name="Group 12527" transform="translate(3.024 2.112)">
          <path id="Path_16955" data-name="Path 16955" d="M332.264,594.818c-.07.119-.139.238-.207.358l-.646-.056a1.412,1.412,0,0,1-.292.609,1.756,1.756,0,0,1-.479.4,1.86,1.86,0,0,1-.562.208,1.958,1.958,0,0,1-.546.034l-.042,0a.024.024,0,0,0-.029.023,11.881,11.881,0,0,1,.9,1.126q.42.6.832,1.18l-.008.077-1.248-.108-1.157-1.675q-.147-.185-.305-.369c-.107-.123-.193-.222-.261-.3.057-.126.108-.253.153-.38s.093-.255.145-.381a2.021,2.021,0,0,0,.554.125,1.571,1.571,0,0,0,.771-.118.877.877,0,0,0,.493-.544l-1.911-.166.065-.755,1.886.163a.953.953,0,0,0-.939-.612l-.9-.078.065-.748,4,.347c-.074.119-.145.238-.215.358s-.14.238-.207.358l-1.129-.1,0,.034a1,1,0,0,1,.2.205.929.929,0,0,1,.16.323l1.08.093C332.405,594.576,332.334,594.7,332.264,594.818Z" transform="translate(-328.209 -592.83)" fill="#ffd066"/>
        </g>
      </g>
      <g id="Group_12531" data-name="Group 12531" transform="translate(26.7 14.595)">
        <g id="Group_12529" data-name="Group 12529">
          <path id="Path_16956" data-name="Path 16956" d="M340.811,608.878a4.507,4.507,0,1,1-4.326-4.682A4.507,4.507,0,0,1,340.811,608.878Z" transform="translate(-331.801 -604.193)" fill="#ffd066"/>
          <path id="Path_16957" data-name="Path 16957" d="M339.909,608.771a3.679,3.679,0,1,1-3.531-3.821A3.678,3.678,0,0,1,339.909,608.771Z" transform="translate(-331.726 -604.118)" fill="#feac1a"/>
        </g>
        <g id="Group_12530" data-name="Group 12530" transform="translate(2.367 1.727)">
          <path id="Path_16958" data-name="Path 16958" d="M337.532,607.235c-.033.117-.065.235-.1.351l-.561.1a1.227,1.227,0,0,1-.112.583,1.533,1.533,0,0,1-.317.448,1.652,1.652,0,0,1-.432.3,1.709,1.709,0,0,1-.457.153l-.036.007a.019.019,0,0,0-.019.026,10.481,10.481,0,0,1,1.016.756q.491.414.973.817l.012.066-1.088.19-1.362-1.164c-.111-.082-.225-.164-.344-.245s-.214-.145-.289-.193c.02-.12.034-.24.044-.358s.022-.237.037-.357a1.793,1.793,0,0,0,.5-.019,1.373,1.373,0,0,0,.629-.274.771.771,0,0,0,.3-.574l-1.664.291-.114-.658,1.641-.287a.838.838,0,0,0-.938-.309l-.783.137-.114-.651,3.483-.609q-.053.178-.1.353c-.033.118-.065.236-.094.353l-.984.171.005.03a.874.874,0,0,1,.221.13.845.845,0,0,1,.21.237l.939-.164C337.6,607,337.565,607.117,337.532,607.235Z" transform="translate(-333.955 -605.765)" fill="#ffd066"/>
        </g>
      </g>
      <g id="Group_12534" data-name="Group 12534" transform="translate(33.349 31.965)">
        <g id="Group_12532" data-name="Group 12532">
          <path id="Path_16959" data-name="Path 16959" d="M346.091,627.041a4.507,4.507,0,1,1-1.2-6.259A4.506,4.506,0,0,1,346.091,627.041Z" transform="translate(-337.853 -620.005)" fill="#ffd066"/>
          <path id="Path_16960" data-name="Path 16960" d="M345.331,626.5a3.678,3.678,0,1,1-.981-5.109A3.677,3.677,0,0,1,345.331,626.5Z" transform="translate(-337.779 -619.931)" fill="#feac1a"/>
        </g>
        <g id="Group_12533" data-name="Group 12533" transform="translate(2.617 1.533)">
          <path id="Path_16961" data-name="Path 16961" d="M344.037,624.021c-.09.082-.178.165-.266.248l-.53-.213a1.242,1.242,0,0,1-.4.437,1.554,1.554,0,0,1-.506.212,1.652,1.652,0,0,1-.527.031,1.744,1.744,0,0,1-.468-.112l-.035-.014a.02.02,0,0,0-.03.013,10.2,10.2,0,0,1,.464,1.178q.2.611.4,1.208l-.025.063-1.024-.413-.543-1.708c-.051-.129-.1-.258-.163-.389s-.105-.237-.143-.317c.079-.091.155-.186.226-.28s.144-.191.22-.285a1.78,1.78,0,0,0,.434.248,1.392,1.392,0,0,0,.68.1.773.773,0,0,0,.555-.331l-1.567-.632.249-.62,1.546.623q-.007-.5-.634-.757l-.737-.3.247-.613,3.279,1.322c-.092.082-.183.164-.274.246s-.179.166-.266.249l-.926-.373-.011.027a.951.951,0,0,1,.119.226.83.83,0,0,1,.053.313l.884.356Z" transform="translate(-340.236 -621.401)" fill="#ffd066"/>
        </g>
      </g>
      <g id="Group_12537" data-name="Group 12537" transform="translate(10.226 11.635)">
        <g id="Group_12535" data-name="Group 12535">
          <path id="Path_16962" data-name="Path 16962" d="M325.556,607.525a4.507,4.507,0,1,1-2.727-5.762A4.506,4.506,0,0,1,325.556,607.525Z" transform="translate(-316.804 -601.498)" fill="#ffd066"/>
          <path id="Path_16963" data-name="Path 16963" d="M324.7,607.171a3.678,3.678,0,1,1-2.225-4.7A3.679,3.679,0,0,1,324.7,607.171Z" transform="translate(-316.73 -601.424)" fill="#feac1a"/>
        </g>
        <g id="Group_12536" data-name="Group 12536" transform="translate(2.645 1.796)">
          <path id="Path_16964" data-name="Path 16964" d="M322.838,605.026c-.067.1-.133.2-.2.307l-.566-.075a1.235,1.235,0,0,1-.28.524,1.531,1.531,0,0,1-.438.332,1.624,1.624,0,0,1-.5.161,1.744,1.744,0,0,1-.482.009l-.036-.005c-.015,0-.024,0-.026.02a10.323,10.323,0,0,1,.744,1.026q.344.541.684,1.07l-.009.067-1.094-.144-.951-1.518c-.081-.112-.166-.224-.254-.337s-.161-.2-.219-.271c.055-.108.1-.219.149-.328s.092-.22.142-.33a1.784,1.784,0,0,0,.482.132,1.393,1.393,0,0,0,.683-.073.77.77,0,0,0,.455-.459l-1.674-.221.087-.661,1.652.217a.839.839,0,0,0-.8-.576l-.79-.1.087-.655,3.505.461c-.069.1-.136.2-.2.306s-.132.205-.2.308l-.99-.13,0,.03a.9.9,0,0,1,.172.189.83.83,0,0,1,.129.29l.945.124C322.972,604.818,322.9,604.923,322.838,605.026Z" transform="translate(-319.212 -603.133)" fill="#ffd066"/>
        </g>
      </g>
      <g id="Group_12540" data-name="Group 12540" transform="translate(0 10.916)">
        <g id="Group_12538" data-name="Group 12538">
          <path id="Path_16965" data-name="Path 16965" d="M316.5,605.032a4.507,4.507,0,1,1-4.815-4.177A4.507,4.507,0,0,1,316.5,605.032Z" transform="translate(-307.496 -600.844)" fill="#ffd066"/>
          <path id="Path_16966" data-name="Path 16966" d="M315.6,605.017a3.679,3.679,0,1,1-3.929-3.409A3.68,3.68,0,0,1,315.6,605.017Z" transform="translate(-307.421 -600.769)" fill="#feac1a"/>
        </g>
        <g id="Group_12539" data-name="Group 12539" transform="translate(2.141 1.596)">
          <path id="Path_16967" data-name="Path 16967" d="M313.094,603.747c-.02.121-.038.241-.056.36l-.547.159a1.247,1.247,0,0,1-.047.593,1.522,1.522,0,0,1-.267.479,1.63,1.63,0,0,1-.394.35,1.8,1.8,0,0,1-.437.2l-.036.01a.02.02,0,0,0-.015.029,10.3,10.3,0,0,1,1.093.639l1.058.7.019.065-1.06.309-1.482-1.007c-.119-.069-.242-.138-.368-.205s-.23-.121-.309-.16c.005-.122.008-.242,0-.36s0-.24,0-.359a1.83,1.83,0,0,0,.494-.074,1.387,1.387,0,0,0,.6-.342.772.772,0,0,0,.232-.6l-1.623.471-.187-.64,1.6-.466a.839.839,0,0,0-.966-.2l-.765.223-.185-.635,3.394-.989q-.033.183-.063.362c-.02.121-.037.242-.055.36l-.959.28.009.029a.876.876,0,0,1,.233.1.818.818,0,0,1,.235.214l.915-.267Z" transform="translate(-309.445 -602.296)" fill="#ffd066"/>
        </g>
      </g>
      <g id="Group_12543" data-name="Group 12543" transform="translate(5.515 31.137)">
        <g id="Group_12541" data-name="Group 12541">
          <path id="Path_16968" data-name="Path 16968" d="M321.506,623.287a4.507,4.507,0,1,1-4.953-4.011A4.508,4.508,0,0,1,321.506,623.287Z" transform="translate(-312.516 -619.251)" fill="#ffd066"/>
          <path id="Path_16969" data-name="Path 16969" d="M320.607,623.3a3.678,3.678,0,1,1-4.043-3.274A3.678,3.678,0,0,1,320.607,623.3Z" transform="translate(-312.442 -619.177)" fill="#feac1a"/>
        </g>
        <g id="Group_12542" data-name="Group 12542" transform="translate(2.078 1.562)">
          <path id="Path_16970" data-name="Path 16970" d="M318.071,622.115c-.015.121-.031.242-.043.361l-.543.178a1.244,1.244,0,0,1-.026.593,1.526,1.526,0,0,1-.25.489,1.641,1.641,0,0,1-.382.364,1.818,1.818,0,0,1-.431.216l-.036.011a.02.02,0,0,0-.014.029,10.743,10.743,0,0,1,1.114.6c.365.226.724.449,1.081.669l.021.065-1.048.344L316,625.079c-.121-.066-.246-.13-.375-.193s-.234-.113-.314-.149c0-.122,0-.243-.008-.36s-.012-.238-.015-.359a1.8,1.8,0,0,0,.492-.09,1.389,1.389,0,0,0,.584-.363.767.767,0,0,0,.211-.61l-1.6.526-.209-.634,1.584-.52a.838.838,0,0,0-.973-.171l-.756.248-.205-.628,3.359-1.1c-.019.123-.035.244-.051.365s-.03.242-.043.363l-.949.311.01.029a.884.884,0,0,1,.236.1.834.834,0,0,1,.242.205l.906-.3C318.1,621.87,318.086,621.993,318.071,622.115Z" transform="translate(-314.408 -620.673)" fill="#ffd066"/>
        </g>
      </g>
      <g id="Group_12546" data-name="Group 12546" transform="translate(37.028 13.807)">
        <g id="Group_12544" data-name="Group 12544">
          <path id="Path_16971" data-name="Path 16971" d="M349.278,610.735a4.507,4.507,0,1,1-.816-6.322A4.506,4.506,0,0,1,349.278,610.735Z" transform="translate(-341.203 -603.476)" fill="#ffd066"/>
          <path id="Path_16972" data-name="Path 16972" d="M348.548,610.154a3.678,3.678,0,1,1-.667-5.159A3.679,3.679,0,0,1,348.548,610.154Z" transform="translate(-341.128 -603.401)" fill="#feac1a"/>
        </g>
        <g id="Group_12545" data-name="Group 12545" transform="translate(2.628 1.498)">
          <path id="Path_16973" data-name="Path 16973" d="M347.4,607.612c-.094.077-.189.154-.281.232l-.515-.245a1.238,1.238,0,0,1-.428.411,1.523,1.523,0,0,1-.518.181,1.668,1.668,0,0,1-.527,0,1.8,1.8,0,0,1-.461-.141l-.034-.016a.019.019,0,0,0-.03.011,10.55,10.55,0,0,1,.391,1.2q.162.623.321,1.23l-.029.06-1-.475-.437-1.738q-.064-.2-.138-.4c-.049-.134-.091-.243-.124-.325.086-.086.167-.175.244-.266s.155-.181.236-.27a1.784,1.784,0,0,0,.419.275,1.378,1.378,0,0,0,.672.141.773.773,0,0,0,.575-.3l-1.526-.726.288-.6,1.5.716a.839.839,0,0,0-.586-.8l-.718-.342.285-.6,3.192,1.519c-.1.077-.193.153-.288.23s-.189.154-.281.232l-.9-.428-.013.026a.876.876,0,0,1,.105.233.828.828,0,0,1,.033.315l.861.41Z" transform="translate(-343.595 -604.839)" fill="#ffd066"/>
        </g>
      </g>
      <path id="Path_16974" data-name="Path 16974" d="M317.489,616.04s-2.227-2.244-4.332-2.313-5.365,2.636-5.365,2.636,2.864,3.63,5.365,3.168C316.041,619,317.489,616.04,317.489,616.04Z" transform="translate(-307.466 -588.659)" fill="#09c9ce"/>
      <path id="Path_16975" data-name="Path 16975" d="M351.662,616.04s-2.227-2.244-4.33-2.313-5.366,2.636-5.366,2.636,2.864,3.63,5.366,3.168C350.214,619,351.662,616.04,351.662,616.04Z" transform="translate(-304.099 -588.659)" fill="#09c9ce"/>
    </g>
    <g id="Group_12551" data-name="Group 12551" transform="translate(32.69)">
      <g id="Group_12548" data-name="Group 12548" transform="translate(36.454 54.363)">
        <path id="Path_16976" data-name="Path 16976" d="M376.706,579.787c-.23.2-.694-.328-.9-.428-.405-.2-.709.094-1.093.215-.147.047-.483.209-.564.046-.055-.11.07-.279-.009-.364-.1-.111-.392.093-.5.13-.275.089-.668.13-.527-.287a2.266,2.266,0,0,1,1.278-1.055,1.959,1.959,0,0,1,1.53-.1,1.759,1.759,0,0,1,.876,1.613A.337.337,0,0,1,376.706,579.787Z" transform="translate(-370.178 -576.103)" fill="#e8a393"/>
        <path id="Path_16977" data-name="Path 16977" d="M378.888,578.763a2.358,2.358,0,0,0-.313-1.185,5.762,5.762,0,0,0-.9-1.32c-.134,0-.689.628-.914.763a3.12,3.12,0,0,1-1.15.218,6.353,6.353,0,0,0-.943.056c-.549.17-1.069.319-1.618.48a10.706,10.706,0,0,0-1.617.84c-.356.156-1.315,1.081-.887,1.553.365.4,1.213-.616,1.436-.817a7.565,7.565,0,0,1,1.5-.736,6.026,6.026,0,0,0-.883.276,1.155,1.155,0,0,0-.436.549c-.16.335.019.42.3.431a1.242,1.242,0,0,0,.863-.411,3.407,3.407,0,0,1,1.452-.7,1.342,1.342,0,0,1,.77-.034,2.036,2.036,0,0,1,.731.3c.428.373-.414.807-.532,1.157a.824.824,0,0,0,.063.7c.161.2.478.016.631-.119a4.456,4.456,0,0,0,.426-.54c.177-.214.35-.435.528-.647a1.559,1.559,0,0,1,.665-.539,3.5,3.5,0,0,0,.862-.273C378.935,578.756,378.875,578.775,378.888,578.763Z" transform="translate(-370.439 -576.257)" fill="#fcd4ca"/>
      </g>
      <g id="Group_12549" data-name="Group 12549" transform="translate(0 57.189)">
        <path id="Path_16978" data-name="Path 16978" d="M367.495,583.706s6.6-7.5,10.437-3.766-.28,8.857-3.2,11.9l-1.585-1.4s6.726-5.2,3.591-8.718c-2.846-3.2-7.785,3.52-7.785,3.52Z" transform="translate(-334.274 -578.897)" fill="#ebebeb"/>
        <path id="Path_16979" data-name="Path 16979" d="M368.908,582a15.461,15.461,0,0,0-1.413,1.4l1.459,1.532a18.992,18.992,0,0,1,1.327-1.546Z" transform="translate(-334.274 -578.591)" fill="#c8c8c8"/>
        <path id="Path_16980" data-name="Path 16980" d="M374.646,587.682a18.408,18.408,0,0,1-2,1.891l1.585,1.4c.557-.58,1.149-1.24,1.724-1.951Z" transform="translate(-333.767 -578.031)" fill="#c8c8c8"/>
        <path id="Path_16981" data-name="Path 16981" d="M363.152,594.846l-23.621,3.572.427,4.052,29.593-2.933Z" transform="translate(-337.03 -577.325)" fill="#ebebeb"/>
        <path id="Path_16982" data-name="Path 16982" d="M340.636,597.945l-1.105.168.426,4.051,1.409-.14C341.234,600.963,340.665,598.267,340.636,597.945Z" transform="translate(-337.03 -577.02)" fill="#ebebeb"/>
        <path id="Path_16983" data-name="Path 16983" d="M365.815,597.747c-.068-.081-.14-.161-.209-.242-5.289.727-25.829,3.231-25.829,3.231l.155,1.472,27.706-2.745A11.315,11.315,0,0,1,365.815,597.747Z" transform="translate(-337.005 -577.063)" fill="#c8c8c8"/>
        <path id="Path_16984" data-name="Path 16984" d="M363.162,583.39s-3.914-5.087-7.345-1.614c-3.626,3.672,1.067,7.625,1.067,7.625l1.226-1.252s-3.354-3.212-.987-5.252c2.119-1.827,4.8,1.829,4.8,1.829Z" transform="translate(-335.56 -578.733)" fill="#ebebeb"/>
        <path id="Path_16985" data-name="Path 16985" d="M361.822,584.625l.528-.522c-.777-.9-3.457-4.027-5.987-1.648-2.3,2.166.38,5.321,1.232,6.147l.414-.555s-3.354-3.212-.987-5.252C359.143,580.969,361.822,584.625,361.822,584.625Z" transform="translate(-335.461 -578.632)" fill="#c8c8c8"/>
        <path id="Path_16986" data-name="Path 16986" d="M382.764,596.713,370.49,608.7l-16.956-16.435,12.744-12.477Z" transform="translate(-335.65 -578.809)" fill="#ebebeb"/>
        <path id="Path_16987" data-name="Path 16987" d="M354.054,590.857l16.956,16.435,2.553-2.494-17.049-16.35Z" transform="translate(-335.599 -577.956)" fill="#c8c8c8"/>
        <path id="Path_16988" data-name="Path 16988" d="M368.529,582.115l-.905-.929L355,593.7l.932.9Z" transform="translate(-335.505 -578.671)" fill="#c8c8c8"/>
        <path id="Path_16989" data-name="Path 16989" d="M340.382,598.069l-2.551-.628a.465.465,0,0,0-.57.529l.851,5.063a.465.465,0,0,0,.689.328l2.165-1.223Z" transform="translate(-337.254 -577.071)" fill="#ebebeb"/>
        <path id="Path_16990" data-name="Path 16990" d="M337.7,600.578l.368,2.186a.465.465,0,0,0,.689.328l2.165-1.223-.246-1.715Z" transform="translate(-337.21 -576.802)" fill="#c8c8c8"/>
      </g>
      <path id="Path_16991" data-name="Path 16991" d="M399.336,538.021c-.064.115-.119.234-.187.348a18.436,18.436,0,0,1-2.115,3.028c-.5.55-1.372,1.044-1.784,1.592a6.179,6.179,0,0,1-.534.62,51.228,51.228,0,0,1,2.889,7.618s5.3-1.727,6.719-4.4C404.325,546.829,400.59,541.381,399.336,538.021Z" transform="translate(-331.592 -525.456)" fill="#fcd4ca"/>
      <path id="Path_16992" data-name="Path 16992" d="M398.695,547.758a8.058,8.058,0,0,1,1.441-4.679,12.68,12.68,0,0,1,1.052-1.281,28.357,28.357,0,0,1-1.852-3.778c-.064.115-.119.234-.187.348a18.436,18.436,0,0,1-2.115,3.028c-.5.55-1.372,1.044-1.784,1.592a6.179,6.179,0,0,1-.534.62,51.228,51.228,0,0,1,2.889,7.618,21.726,21.726,0,0,0,2.07-.834A4.159,4.159,0,0,1,398.695,547.758Z" transform="translate(-331.592 -525.456)" fill="#e8a393"/>
      <path id="Path_16993" data-name="Path 16993" d="M400.717,624.894s.283,5.537-.521,6.359-11.769,2.019-12.794,1.085-.6-2.674,1.7-3.514c2.473-.9,3.767-.312,5.3-1.1s.916-3.248.916-3.248Z" transform="translate(-332.364 -517.357)" fill="#110239"/>
      <path id="Path_16994" data-name="Path 16994" d="M425.045,624.48s1.576,5.23.856,6.128-11.726,3.3-12.836,2.47-.858-2.6,1.357-3.663c2.376-1.136,3.721-.672,5.17-1.6s.6-3.322.6-3.322Z" transform="translate(-329.847 -517.357)" fill="#110239"/>
      <path id="Path_16995" data-name="Path 16995" d="M424.476,600.141a165.316,165.316,0,0,0-1.742-30.848,14.043,14.043,0,0,0-5.522.964c-3.392,1.47-6.8,2.877-10.209,4.289,2.642,5.728,8.313,24.371,8.966,28.264.813,4.84,4.4,29.133,4.4,29.133l6.253-.261C426.6,627.713,424.43,601.47,424.476,600.141Z" transform="translate(-330.381 -522.794)" fill="#09c9ce"/>
      <path id="Path_16996" data-name="Path 16996" d="M412.459,572.282a56.025,56.025,0,0,1-5.485,2.117c2.593,5.618,8.2,24.116,8.972,28.2.9-2.569,4.444-11.709,6.156-18.519a36.494,36.494,0,0,0,.767-13.93l-.008-.055A26.228,26.228,0,0,0,412.459,572.282Z" transform="translate(-330.384 -522.535)" fill="#23a1ad"/>
      <path id="Path_16997" data-name="Path 16997" d="M418.326,571.522c-2.393.759-6.741,1.831-10.03,2.94-2.381,5.709-8.8,22.169-10,28.2-1.657,8.344-4.423,28.646-4.423,28.646l7.053.928s7.084-28.8,8.1-30.639c3.336-6.068,6.988-10.86,9.083-14.636,5.063-9.127,5.381-13.59,6.067-16.806C422.309,570.647,420.329,570.886,418.326,571.522Z" transform="translate(-331.675 -522.709)" fill="#09c9ce"/>
      <path id="Path_16998" data-name="Path 16998" d="M407.582,548.376a6.164,6.164,0,0,0-7.669,2.24c-2.778,4.077-7.967,11.639-9.72,13.831-2.438,3.047-13.844,14.8-13.844,14.8l2.961,3.309s14.975-11.552,16.891-14,13.67-14.119,13.409-17.6A3.158,3.158,0,0,0,407.582,548.376Z" transform="translate(-333.402 -524.611)" fill="#0186cb"/>
      <path id="Path_16999" data-name="Path 16999" d="M407.582,548.376a6.164,6.164,0,0,0-7.669,2.24c-2.778,4.077-7.967,11.639-9.72,13.831-2.438,3.047-13.844,14.8-13.844,14.8l2.961,3.309s14.975-11.552,16.891-14,13.67-14.119,13.409-17.6A3.158,3.158,0,0,0,407.582,548.376Z" transform="translate(-333.402 -524.611)" fill="#0056a3" opacity="0.65"/>
      <g id="Group_12550" data-name="Group 12550" transform="translate(65.665 20.401)">
        <path id="Path_17000" data-name="Path 17000" d="M405.537,581.1a48.979,48.979,0,0,0,11.175-2.363c4.05-1.435,7.505-3.806,8.04-5.569,0,0-6.841-16.659-11.426-22.29s-9.808-5.625-9.808-5.625-3.312,3.218-6.49,3.958c0,0,3.179,12.409,4.659,17.313S405.537,581.1,405.537,581.1Z" transform="translate(-397.029 -545.252)" fill="#0186cb"/>
        <path id="Path_17001" data-name="Path 17001" d="M406.211,561.37c-.012-2.241.374-5.783-.633-8.354-.265.224-.536.441-.781.682a18.125,18.125,0,0,1-4.788,3.854,4.187,4.187,0,0,1-.753.244c.8,3.008,1.637,6.053,2.212,7.962,1.481,4.9,3.849,14.576,3.849,14.576s1.6-.121,3.909-.518C406.589,574.475,406.242,567.575,406.211,561.37Z" transform="translate(-396.81 -544.487)" fill="#0056a3" opacity="0.65"/>
      </g>
      <path id="Path_17002" data-name="Path 17002" d="M399.369,531.276s-4.572-3.047-7.184-1.262-4.092,3.265-3.831,4.527,1.369,4.513,1.308,5.994-.728,3.773-.409,4.237,1.974-.29,2.177-.145,3.131,3.164,3.916,3.192,4.791-5.108,4.674-7.139S401.241,533.888,399.369,531.276Z" transform="translate(-332.222 -526.301)" fill="#fcd4ca"/>
      <path id="Path_17003" data-name="Path 17003" d="M394.324,535.186c-.348.958-1.7,2.642-5.355,3.033s-6.312-6.922,0-10.013,7.314-.783,8.708-.957a4.883,4.883,0,0,1,3.856.878c2.108,1.608,3.655,4.087,2.3,8.264-1.368,4.223-3.526,4.915-3.526,4.915-.558-.685-1.239-1.992-.8-2.76a4.922,4.922,0,0,0,.7-1.111,1.362,1.362,0,0,0-2.286-1.306c-.615.492-.245,1.862-.391,2.526-.156.7-.482.76-.762.805-.544.087-1.643-1.082-1.509-3.055C395.341,535.128,394.673,534.229,394.324,535.186Z" transform="translate(-332.533 -526.583)" fill="#110239"/>
      <path id="Path_17004" data-name="Path 17004" d="M379.253,578.9a3.994,3.994,0,0,0-.673.219,2.859,2.859,0,0,1-1.5.415,6,6,0,0,0-2.64.413c-.375.238-2.56,1.8-1.554,2.55.134.1.516.185.589.117.209-.2.8-.736.8-.736a5.822,5.822,0,0,0-.53.539,1.457,1.457,0,0,0-.234.381c-.048.261.337.618.578.605s.312-.29.446-.459l-.008.013c-.113.2-.438.446,0,.862.488.466.512.034.729-.126a1.7,1.7,0,0,0,.219-.211c-.069.09-.343.391-.387.482-.143.294.636.759,1.06.516.26-.148.749-.814.922-.835a3.744,3.744,0,0,0,.584-.168,3.6,3.6,0,0,0,1.5-1c.185-.2.561-.56.736-.773a5.138,5.138,0,0,0,.669-.951A3.535,3.535,0,0,1,379.253,578.9Z" transform="translate(-333.769 -521.646)" fill="#fcd4ca"/>
      <path id="Path_17005" data-name="Path 17005" d="M379.982,585.146l-3-3.831s10.317-10.242,14.149-15.264,7.422-14.7,10.71-15.7,6.916.407,5.577,5.341-10.4,12.421-12.137,14.743S381.809,583.781,379.982,585.146Z" transform="translate(-333.34 -524.405)" fill="#0186cb"/>
    </g>
  </g>
  <g id="Group_12556" data-name="Group 12556" transform="translate(23.333 6.019)">
    <path id="Path_17006" data-name="Path 17006" d="M354.109,533.919h-3.7V575.96h3.7a2.984,2.984,0,0,0,3.058-2.9V536.823A2.984,2.984,0,0,0,354.109,533.919Z" transform="translate(-299.578 -527.772)" fill="#cbcbcb"/>
    <path id="Path_17007" data-name="Path 17007" d="M357.168,544.477v-7.654a2.984,2.984,0,0,0-3.058-2.9h-3.7v10.558Z" transform="translate(-299.578 -527.772)" fill="#0056a3" opacity="0.65"/>
    <rect id="Rectangle_8254" data-name="Rectangle 8254" width="54.679" height="44.272" rx="2.784" transform="translate(0 6.021)" fill="#ebebeb"/>
    <path id="Path_17008" data-name="Path 17008" d="M358.668,533.8H307.2a3.058,3.058,0,0,0-3.058,3.058V544.4h54.678v-5.382a2.779,2.779,0,0,1,.027-.384,1.456,1.456,0,0,1,2.856,0,2.636,2.636,0,0,1,.027.387v-2.183A3.09,3.09,0,0,0,358.668,533.8Z" transform="translate(-304.137 -527.783)" fill="#0186cb"/>
    <rect id="Rectangle_8255" data-name="Rectangle 8255" width="54.679" height="0.985" transform="translate(0 15.631)" fill="#fff"/>
    <g id="Group_12553" data-name="Group 12553" transform="translate(11.51)">
      <path id="Path_17009" data-name="Path 17009" d="M324.529,534.465h-3s.336-4.21-.85-5.173v-.917S324.529,528.778,324.529,534.465Z" transform="translate(-314.017 -528.318)" fill="#110239"/>
      <path id="Path_17010" data-name="Path 17010" d="M314.614,534.47H319.8s-.581-4.21,1.472-5.173l1.248-.474a3.036,3.036,0,0,0-1.864-.5C319.008,528.323,314.614,528.6,314.614,534.47Z" transform="translate(-314.614 -528.323)" fill="#c8c8c8"/>
    </g>
    <g id="Group_12554" data-name="Group 12554" transform="translate(35.059)">
      <path id="Path_17011" data-name="Path 17011" d="M345.966,534.465h-3s.335-4.21-.851-5.173v-.917S345.966,528.778,345.966,534.465Z" transform="translate(-335.454 -528.318)" fill="#110239"/>
      <path id="Path_17012" data-name="Path 17012" d="M336.051,534.47h5.189s-.58-4.21,1.472-5.173l1.248-.474a3.035,3.035,0,0,0-1.863-.5C340.446,528.323,336.051,528.6,336.051,534.47Z" transform="translate(-336.051 -528.323)" fill="#c8c8c8"/>
    </g>
    <rect id="Rectangle_8256" data-name="Rectangle 8256" width="5.857" height="4.44" transform="translate(3.762 19.167)" fill="#fff"/>
    <rect id="Rectangle_8257" data-name="Rectangle 8257" width="5.858" height="4.44" transform="translate(12.021 19.167)" fill="#fff"/>
    <rect id="Rectangle_8258" data-name="Rectangle 8258" width="5.858" height="4.44" transform="translate(20.281 19.167)" fill="#fff"/>
    <rect id="Rectangle_8259" data-name="Rectangle 8259" width="5.858" height="4.44" transform="translate(28.541 19.167)" fill="#fff"/>
    <rect id="Rectangle_8260" data-name="Rectangle 8260" width="5.858" height="4.44" transform="translate(36.8 19.167)" fill="#fff"/>
    <rect id="Rectangle_8261" data-name="Rectangle 8261" width="5.858" height="4.44" transform="translate(45.06 19.167)" fill="#fff"/>
    <rect id="Rectangle_8262" data-name="Rectangle 8262" width="5.857" height="4.44" transform="translate(3.762 26.749)" fill="#fff"/>
    <rect id="Rectangle_8263" data-name="Rectangle 8263" width="5.858" height="4.44" transform="translate(12.021 26.749)" fill="#fff"/>
    <rect id="Rectangle_8264" data-name="Rectangle 8264" width="5.858" height="4.44" transform="translate(20.281 26.749)" fill="#fff"/>
    <rect id="Rectangle_8265" data-name="Rectangle 8265" width="5.858" height="4.44" transform="translate(28.541 26.749)" fill="#fff"/>
    <rect id="Rectangle_8266" data-name="Rectangle 8266" width="5.858" height="4.44" transform="translate(36.8 26.749)" fill="#fff"/>
    <rect id="Rectangle_8267" data-name="Rectangle 8267" width="5.858" height="4.44" transform="translate(45.06 26.749)" fill="#fff"/>
    <rect id="Rectangle_8268" data-name="Rectangle 8268" width="5.857" height="4.44" transform="translate(3.762 34.331)" fill="#fff"/>
    <rect id="Rectangle_8269" data-name="Rectangle 8269" width="5.858" height="4.44" transform="translate(12.021 34.331)" fill="#fff"/>
    <rect id="Rectangle_8270" data-name="Rectangle 8270" width="5.858" height="4.44" transform="translate(20.281 34.331)" fill="#fff"/>
    <rect id="Rectangle_8271" data-name="Rectangle 8271" width="5.858" height="4.44" transform="translate(28.541 34.331)" fill="#fff"/>
    <rect id="Rectangle_8272" data-name="Rectangle 8272" width="5.858" height="4.44" transform="translate(36.8 34.331)" fill="#fff"/>
    <rect id="Rectangle_8273" data-name="Rectangle 8273" width="5.858" height="4.44" transform="translate(45.06 34.331)" fill="#fff"/>
    <rect id="Rectangle_8274" data-name="Rectangle 8274" width="5.857" height="4.44" transform="translate(3.762 41.913)" fill="#fff"/>
    <rect id="Rectangle_8275" data-name="Rectangle 8275" width="5.858" height="4.44" transform="translate(12.021 41.913)" fill="#fff"/>
    <rect id="Rectangle_8276" data-name="Rectangle 8276" width="5.858" height="4.44" transform="translate(20.281 41.913)" fill="#fff"/>
    <rect id="Rectangle_8277" data-name="Rectangle 8277" width="5.858" height="4.44" transform="translate(28.541 41.913)" fill="#fff"/>
    <path id="Path_17013" data-name="Path 17013" d="M310.4,546.128l.454,1.4h1.468l-1.187.863.453,1.4-1.187-.863-1.187.863.454-1.4-1.187-.863h1.468Z" transform="translate(-303.709 -526.569)" fill="#ffd066"/>
    <path id="Path_17014" data-name="Path 17014" d="M310.4,553.107l.454,1.4h1.468l-1.187.863.453,1.4L310.4,555.9l-1.187.863.454-1.4-1.187-.863h1.468Z" transform="translate(-303.709 -525.881)" fill="#ffd066"/>
    <path id="Path_17015" data-name="Path 17015" d="M317.918,546.128l.453,1.4h1.468l-1.187.863.453,1.4-1.187-.863-1.187.863.454-1.4L316,547.524h1.468Z" transform="translate(-302.968 -526.569)" fill="#ffd066"/>
    <path id="Path_17016" data-name="Path 17016" d="M325.437,546.128l.454,1.4h1.468l-1.187.863.453,1.4-1.187-.863-1.187.863.454-1.4-1.187-.863h1.468Z" transform="translate(-302.227 -526.569)" fill="#ffd066"/>
    <path id="Path_17017" data-name="Path 17017" d="M325.437,553.031l.454,1.4h1.468l-1.187.863.453,1.4-1.187-.863-1.187.863.454-1.4-1.187-.863h1.468Z" transform="translate(-302.227 -525.889)" fill="#ffd066"/>
    <path id="Path_17018" data-name="Path 17018" d="M332.956,546.128l.454,1.4h1.468l-1.187.863.453,1.4-1.187-.863-1.187.863.453-1.4-1.187-.863H332.5Z" transform="translate(-301.486 -526.569)" fill="#ffd066"/>
    <path id="Path_17019" data-name="Path 17019" d="M332.956,553.031l.454,1.4h1.468l-1.187.863.453,1.4-1.187-.863-1.187.863.453-1.4-1.187-.863H332.5Z" transform="translate(-301.486 -525.889)" fill="#ffd066"/>
    <path id="Path_17020" data-name="Path 17020" d="M340.475,546.128l.453,1.4H342.4l-1.187.863.454,1.4-1.187-.863-1.187.863.454-1.4-1.187-.863h1.468Z" transform="translate(-300.746 -526.569)" fill="#ffd066"/>
    <path id="Path_17021" data-name="Path 17021" d="M317.918,560.018l.453,1.4h1.468l-1.187.862.453,1.4-1.187-.863-1.187.863.454-1.4L316,561.414h1.468Z" transform="translate(-302.968 -525.2)" fill="#ffd066"/>
    <path id="Path_17022" data-name="Path 17022" d="M317.918,566.835l.453,1.4h1.468l-1.187.863.453,1.4-1.187-.863-1.187.863.454-1.4L316,568.231h1.468Z" transform="translate(-302.968 -524.528)" fill="#ffd066"/>
    <path id="Path_17023" data-name="Path 17023" d="M332.956,559.933l.454,1.4h1.468l-1.187.863.453,1.4-1.187-.863-1.187.863.453-1.4-1.187-.863H332.5Z" transform="translate(-301.486 -525.208)" fill="#ffd066"/>
    <path id="Path_17024" data-name="Path 17024" d="M340.475,559.933l.453,1.4H342.4l-1.187.863.454,1.4-1.187-.863-1.187.863.454-1.4-1.187-.863h1.468Z" transform="translate(-300.746 -525.208)" fill="#ffd066"/>
    <g id="Group_12555" data-name="Group 12555" transform="translate(43.836 12.841)">
      <circle id="Ellipse_661" data-name="Ellipse 661" cx="9.038" cy="9.038" r="9.038" transform="translate(0 17.842) rotate(-80.759)" fill="#f45762"/>
      <path id="Path_17025" data-name="Path 17025" d="M360.625,550.043a6.553,6.553,0,1,1-6.554-6.553A6.553,6.553,0,0,1,360.625,550.043Z" transform="translate(-343.699 -539.67)" fill="#fff"/>
      <path id="Path_17026" data-name="Path 17026" d="M353.377,549.785c-.152,0-1.451-3.738-1.891-3.591-.617.205-2.3,1.021-2.346,1.724s3.4,6.758,3.98,6.758c1.212,0,6.3-6.716,5.889-7.478s-2.332-1.811-2.62-1.523C356.176,545.887,353.507,549.788,353.377,549.785Z" transform="translate(-343.539 -539.46)" fill="#bbeadb"/>
    </g>
  </g>
  <path id="Rectangle_8278" data-name="Rectangle 8278" d="M.249,0H186.7a.249.249,0,0,1,.249.249v0A.249.249,0,0,1,186.7.5H.249A.249.249,0,0,1,0,.249v0A.249.249,0,0,1,.249,0Z" transform="translate(0 119.502)" fill="#2e3552"/>
</svg>
