<svg id="Group_22036" data-name="Group 22036" xmlns="http://www.w3.org/2000/svg" width="30" height="30" viewBox="0 0 30 30">
  <g id="Group_22035" data-name="Group 22035" transform="translate(8 2)">
    <path id="Path_21030" data-name="Path 21030" d="M115.069,18.278l-1.27.819a.724.724,0,0,0,0,1.216l1.27.819a.624.624,0,0,0,.962-.524V18.8C116.031,18.574,115.261,18.154,115.069,18.278Zm.213,2.1-1.045-.674,1.045-.674Zm.386-5.241a.374.374,0,0,0,.374.374h6.438a.374.374,0,1,0,0-.749h-6.438a.374.374,0,0,0-.374.374Zm5.162-6.713h1.151a.374.374,0,0,0,0-.749H120.83a.374.374,0,1,0,0,.749ZM124.724,19.1l-1.27-.819a.624.624,0,0,0-.962.524v1.807a.624.624,0,0,0,.962.524l1.27-.819a.724.724,0,0,0,0-1.216Zm-1.483,1.282V19.032l1.045.674ZM120.83,9.924h1.151a.374.374,0,0,0,0-.749H120.83a.374.374,0,1,0,0,.749Zm3.772,6.463V6.405a.625.625,0,0,0-.624-.624h-9.433a.625.625,0,0,0-.624.624v9.982a.625.625,0,0,0,.624.624h9.433A.625.625,0,0,0,124.6,16.387Zm-.749-.125H114.67V6.53h9.183Zm-6.089-2.645a2.223,2.223,0,0,0,2.221-2.221c0-1.118-1.731-3.328-1.928-3.577a.374.374,0,0,0-.586,0c-.2.248-1.928,2.459-1.928,3.577a2.223,2.223,0,0,0,2.221,2.221Zm0-4.95a7.461,7.461,0,0,1,1.472,2.729,1.472,1.472,0,1,1-2.945,0,7.469,7.469,0,0,1,1.472-2.729Z" transform="translate(-112.086 -4.13)" fill="#039"/>
    <path id="Path_21031" data-name="Path 21031" d="M121.8,0h-10.93A1.874,1.874,0,0,0,109,1.872V17.343a1.874,1.874,0,0,0,1.872,1.872h2.195a1.121,1.121,0,0,0,.934-.5l.589-.884V24.68a.874.874,0,0,0,.873.873h1.747a.874.874,0,0,0,.873-.873V17.831l.589.884a1.121,1.121,0,0,0,.934.5H121.8a1.874,1.874,0,0,0,1.872-1.872V1.872A1.874,1.874,0,0,0,121.8,0Zm-4.467,16.592s0,0,0,0V24.68a.125.125,0,0,1-.125.125h-1.747a.125.125,0,0,1-.125-.125V16.594s0,0,0,0V16.22h2Zm5.59.751a1.124,1.124,0,0,1-1.123,1.123h-2.195a.374.374,0,0,1-.311-.167l-1.212-1.818V16.22h.374a.374.374,0,0,0,0-.749h-4.242a.374.374,0,0,0,0,.749h.374v.261L113.378,18.3a.374.374,0,0,1-.311.167h-2.195a1.124,1.124,0,0,1-1.123-1.123V1.872A1.124,1.124,0,0,1,110.872.749H121.8a1.124,1.124,0,0,1,1.123,1.123Z" transform="translate(-109)" fill="#44c8f5"/>
  </g>
  <g id="Rectangle_9231" data-name="Rectangle 9231" fill="none" stroke="#707070" stroke-width="0.5" opacity="0">
    <rect width="30" height="30" stroke="none"/>
    <rect x="0.25" y="0.25" width="29.5" height="29.5" fill="none"/>
  </g>
</svg>
