<svg id="Group_11842" data-name="Group 11842" xmlns="http://www.w3.org/2000/svg" width="24.469" height="16.312" viewBox="0 0 24.469 16.312">
  <g id="Group_11835" data-name="Group 11835" transform="translate(0 3.059)">
    <g id="Group_11834" data-name="Group 11834">
      <path id="Path_15982" data-name="Path 15982" d="M23.959,149.333H.51a.51.51,0,0,0-.51.51V152.9a.51.51,0,0,0,.51.51H23.959a.51.51,0,0,0,.51-.51v-3.059A.51.51,0,0,0,23.959,149.333Zm-.51,3.059H1.02v-2.039h22.43v2.039Z" transform="translate(0 -149.333)" fill="#039"/>
    </g>
  </g>
  <g id="Group_11837" data-name="Group 11837" transform="translate(3.059 10.195)">
    <g id="Group_11836" data-name="Group 11836" transform="translate(0 0)">
      <path id="Path_15983" data-name="Path 15983" d="M70.627,298.667H64.51a.51.51,0,1,0,0,1.02h6.117a.51.51,0,1,0,0-1.02Z" transform="translate(-64 -298.667)" fill="#039"/>
    </g>
  </g>
  <g id="Group_11839" data-name="Group 11839" transform="translate(3.059 12.234)">
    <g id="Group_11838" data-name="Group 11838" transform="translate(0 0)">
      <path id="Path_15984" data-name="Path 15984" d="M70.627,341.333H64.51a.51.51,0,1,0,0,1.02h6.117a.51.51,0,1,0,0-1.02Z" transform="translate(-64 -341.333)" fill="#039"/>
    </g>
  </g>
  <g id="Group_11841" data-name="Group 11841" transform="translate(17.332 9.176)">
    <g id="Group_11840" data-name="Group 11840" transform="translate(0 0)">
      <path id="Path_15985" data-name="Path 15985" d="M365.216,277.333H364.2a1.531,1.531,0,0,0-1.529,1.529v1.02a1.531,1.531,0,0,0,1.529,1.529h1.019a1.531,1.531,0,0,0,1.529-1.529v-1.02A1.531,1.531,0,0,0,365.216,277.333Zm.51,2.549a.51.51,0,0,1-.51.51H364.2a.51.51,0,0,1-.51-.51v-1.02a.51.51,0,0,1,.51-.51h1.019a.51.51,0,0,1,.51.51Z" transform="translate(-362.667 -277.333)" fill="#039"/>
    </g>
  </g>
  <g id="Group_11833" data-name="Group 11833" transform="translate(0 0)">
    <g id="Group_11832" data-name="Group 11832">
      <path id="Path_15981" data-name="Path 15981" d="M21.92,85.333H2.549A2.552,2.552,0,0,0,0,87.882V99.1a2.552,2.552,0,0,0,2.549,2.549H21.92A2.552,2.552,0,0,0,24.469,99.1V87.882A2.552,2.552,0,0,0,21.92,85.333ZM23.449,99.1a1.531,1.531,0,0,1-1.529,1.529H2.549A1.531,1.531,0,0,1,1.02,99.1V87.882a1.531,1.531,0,0,1,1.529-1.529H21.92a1.531,1.531,0,0,1,1.529,1.529V99.1Z" transform="translate(0 -85.333)" fill="#44c8f5"/>
    </g>
  </g>
</svg>
