<svg id="Group_13414" data-name="Group 13414" xmlns="http://www.w3.org/2000/svg" width="24.252" height="24.281" viewBox="0 0 24.252 24.281">
  <path id="Path_18567" data-name="Path 18567" d="M129.166,488.761a13.219,13.219,0,0,1-.235,1.346,5.131,5.131,0,0,1-4.707,3.734c-.185.008-.249.066-.286.249q-.309,1.605-.648,3.2a3.74,3.74,0,0,1-3.692,2.982q-4.884.006-9.77,0a.546.546,0,0,0-.44.171c-.163.171-.348.321-.519.486a1.2,1.2,0,0,0,.813,2.079q.667.006,1.33.006c2.591,0,5.185,0,7.778,0a2.382,2.382,0,1,1-2.155,1.665l.07-.226h-1.317c.3,1.433.023,2.322-.906,2.931a2.374,2.374,0,0,1-2.676-.043,2.448,2.448,0,0,1-.842-2.9l-.278-.012a10.9,10.9,0,0,1-1.581-.078,2.417,2.417,0,0,1-1.933-1.786,2.5,2.5,0,0,1,.6-2.546c.2-.214.434-.4.632-.609a.474.474,0,0,0,.126-.321c-.126-1.472-.261-2.943-.4-4.413l-.408-4.39c-.163-1.754-.323-3.507-.49-5.3h-2.322V483.58h3.616l.494,5.314h9.737c.019-.257.031-.523.058-.786a5.175,5.175,0,0,1,4.5-4.569,1.023,1.023,0,0,0,.156-.041h1a.8.8,0,0,0,.132.041,5.149,5.149,0,0,1,4.347,3.756,12.408,12.408,0,0,1,.218,1.323Zm-19.224,10.081c.07.006.115.014.163.014,3.178,0,6.356.008,9.534,0a2.312,2.312,0,0,0,2.272-1.887c.128-.609.249-1.22.373-1.832.084-.416.165-.832.251-1.262H109.483Zm17.783-10.17a3.761,3.761,0,1,0-3.752,3.762A3.769,3.769,0,0,0,127.725,488.672Zm-7.348,3.746a5.148,5.148,0,0,1-1.237-1.869.284.284,0,0,0-.323-.22q-4.705.009-9.41,0h-.251l.193,2.085Zm-6.247,12.987a.958.958,0,1,0-.974.953A.959.959,0,0,0,114.131,505.406Zm5.734-.01a.963.963,0,1,0-.965.963A.967.967,0,0,0,119.865,505.4Z" transform="translate(-104.914 -483.498)" fill="#44c8f5"/>
  <g id="Group_13366" data-name="Group 13366" transform="translate(16.69 2.82)">
    <path id="Path_18568" data-name="Path 18568" d="M115,485.269a.383.383,0,1,1,.766,0v1.575h1.575a.383.383,0,1,1,0,.766h-1.575v1.575a.383.383,0,1,1-.766,0V487.61h-1.575a.383.383,0,1,1,0-.766H115Z" transform="translate(-113.023 -484.868)" fill="#039"/>
  </g>
</svg>
