<svg xmlns="http://www.w3.org/2000/svg" width="19" height="19" viewBox="0 0 19 19">
  <g id="Group_11952" data-name="Group 11952" transform="translate(-16 -370)">
    <path id="Path_15958" data-name="Path 15958" d="M16.551,1.484H14.844V.594a.594.594,0,0,0-1.187,0v.891H5.344V.594a.594.594,0,0,0-1.187,0v.891H2.449A2.452,2.452,0,0,0,0,3.934V16.551A2.452,2.452,0,0,0,2.449,19h14.1A2.452,2.452,0,0,0,19,16.551V3.934A2.452,2.452,0,0,0,16.551,1.484ZM2.449,2.672H4.156v.594a.594.594,0,0,0,1.188,0V2.672h8.313v.594a.594.594,0,0,0,1.188,0V2.672h1.707a1.263,1.263,0,0,1,1.262,1.262v1.41H1.188V3.934A1.263,1.263,0,0,1,2.449,2.672Zm14.1,15.141H2.449a1.263,1.263,0,0,1-1.262-1.262V6.531H17.813v10.02A1.263,1.263,0,0,1,16.551,17.813Z" transform="translate(16 370)" fill="#44c8f5"/>
    <path id="Path_15964" data-name="Path 15964" d="M12.84,16.922H10.461a.461.461,0,1,1,0-.922H12.84a.461.461,0,1,1,0,.922Z" transform="translate(8.85 363.5)" fill="#039"/>
    <path id="Path_15967" data-name="Path 15967" d="M12.84,16.922H10.461a.461.461,0,1,1,0-.922H12.84a.461.461,0,1,1,0,.922Z" transform="translate(8.85 367.757)" fill="#039"/>
    <path id="Path_15963" data-name="Path 15963" d="M12.84,16.922H10.461a.461.461,0,1,1,0-.922H12.84a.461.461,0,1,1,0,.922Z" transform="translate(13.85 363.5)" fill="#039"/>
    <path id="Path_15966" data-name="Path 15966" d="M12.84,16.922H10.461a.461.461,0,1,1,0-.922H12.84a.461.461,0,1,1,0,.922Z" transform="translate(13.85 367.757)" fill="#039"/>
    <path id="Path_15962" data-name="Path 15962" d="M12.84,16.922H10.461a.461.461,0,1,1,0-.922H12.84a.461.461,0,1,1,0,.922Z" transform="translate(18.85 363.5)" fill="#039"/>
    <path id="Path_15965" data-name="Path 15965" d="M12.84,16.922H10.461a.461.461,0,1,1,0-.922H12.84a.461.461,0,1,1,0,.922Z" transform="translate(18.85 367.757)" fill="#039"/>
  </g>
</svg>
