<svg width="200" height="200" viewBox="0 0 200 200" fill="none" xmlns="http://www.w3.org/2000/svg">
<rect width="200" height="200" rx="10" fill="url(#paint0_linear_1499_47)"/>
<mask id="mask0_1499_47" style="mask-type:alpha" maskUnits="userSpaceOnUse" x="0" y="0" width="200" height="200">
<rect width="200" height="200" rx="10" fill="url(#paint1_linear_1499_47)"/>
</mask>
<g mask="url(#mask0_1499_47)">
<path d="M42.7013 -26.4872C51.8056 -22.7553 59.1648 -15.7272 63.3017 -6.81339C67.4387 2.10045 68.0471 12.2402 65.0046 21.5696C64.6461 13.4366 61.9514 5.57342 57.2416 -1.08133C52.5318 -7.73608 46.006 -12.9016 38.4425 -15.9621C30.879 -19.0225 22.5969 -19.8487 14.5847 -18.3417C6.57239 -16.8346 -0.831867 -13.0579 -6.74521 -7.46258C-2.4439 -16.2827 5.04424 -23.1463 14.2159 -26.6751C23.3875 -30.2039 33.5636 -30.1366 42.7013 -26.4872V-26.4872ZM-11.0545 27.3642C-14.4683 19.9239 -15.7039 11.6748 -14.6182 3.57143C-13.5325 -4.53193 -10.1701 -12.1587 -4.91962 -18.4267C0.285152 -24.6913 7.17983 -29.3356 14.9505 -31.8115C22.7213 -34.2874 31.0439 -34.4913 38.9357 -32.3995C30.9554 -38.1305 21.0975 -40.6263 11.3567 -39.3814C1.61593 -38.1365 -7.28044 -33.244 -13.5321 -25.6942C-19.8601 -18.1661 -23.1192 -8.53511 -22.6633 1.29077C-22.2075 11.1166 -18.0701 20.4203 -11.0711 27.3575L-11.0545 27.3642ZM20.343 42.5819C12.2743 43.6017 4.07764 42.2773 -3.26492 38.7679C-10.6075 35.2586 -16.7845 29.7131 -21.0562 22.7952C-25.3492 15.8259 -27.5769 7.78851 -27.4811 -0.384896C-27.3853 -8.5583 -24.9702 -16.533 -20.5153 -23.3838C-28.4423 -17.538 -33.8804 -8.93499 -35.7566 0.727581C-37.6329 10.3902 -35.8108 20.4102 -30.6501 28.8111C-25.4951 37.1551 -17.3475 43.2274 -7.87032 45.7879C1.60684 48.3485 11.699 47.2044 20.3463 42.5895L20.343 42.5819ZM44.7312 16.5947C43.1699 24.6158 39.3614 32.0264 33.7473 37.967C28.1332 43.9076 20.9436 48.1349 13.0125 50.1583C5.13135 52.1598 -3.1649 51.8507 -10.8833 49.2682C-18.6017 46.6857 -25.4149 41.939 -30.5073 35.5966C-27.5011 44.9212 -21.0467 52.7573 -12.4603 57.5069C-3.87392 62.2565 6.1981 63.562 15.7022 61.1575C25.2629 58.714 33.5507 52.7786 38.9283 44.524C44.3058 36.2694 46.3818 26.2961 44.746 16.5748L44.7312 16.5947ZM60.7837 27.0339C61.5398 17.2616 58.5481 7.56058 52.4135 -0.106655C46.279 -7.77389 37.4596 -12.8348 27.7401 -14.2654C34.864 -10.2807 40.7016 -4.34764 44.5633 2.83381C48.4251 10.0153 50.15 18.1453 49.5351 26.2649C48.9493 34.4204 46.0619 42.2394 41.207 48.8176C36.352 55.3958 29.728 60.4646 22.1007 63.4374C31.9556 63.3246 41.4014 59.5204 48.5658 52.7789C55.7302 46.0374 60.0901 36.8504 60.7816 27.0393L60.7837 27.0339Z" fill="#0F4880" fill-opacity="0.03"/>
</g>
<defs>
<linearGradient id="paint0_linear_1499_47" x1="6.5" y1="12" x2="200" y2="200" gradientUnits="userSpaceOnUse">
<stop stop-color="white"/>
<stop offset="1" stop-color="#F4FCFF"/>
</linearGradient>
<linearGradient id="paint1_linear_1499_47" x1="6.5" y1="12" x2="200" y2="200" gradientUnits="userSpaceOnUse">
<stop stop-color="white"/>
<stop offset="1" stop-color="#F4FCFF"/>
</linearGradient>
</defs>
</svg>
