<svg id="Group_22139" data-name="Group 22139" xmlns="http://www.w3.org/2000/svg" width="30" height="30" viewBox="0 0 30 30">
  <g id="Component_64_3" data-name="Component 64 – 3" transform="translate(6 3)">
    <g id="Group_10692" data-name="Group 10692" transform="translate(3.661 15.049)">
      <path id="Path_14532" data-name="Path 14532" d="M16.776,21.417a8.246,8.246,0,0,1-5.036-1.71v9.41l5.036-4.983,5.036,4.983v-9.41a8.246,8.246,0,0,1-5.036,1.71" transform="translate(-11.74 -19.707)" fill="none"/>
    </g>
    <path id="Path_14533" data-name="Path 14533" d="M16.616,21.209a8.605,8.605,0,1,1,8.7-8.6A8.661,8.661,0,0,1,16.616,21.209Zm0-16.307A7.7,7.7,0,1,0,24.4,12.6,7.752,7.752,0,0,0,16.616,4.9Z" transform="translate(-7.919 -4)" fill="#44c8f5"/>
    <g id="Path_14534" data-name="Path 14534" transform="translate(-8.06 -4.639)" fill="none">
      <path d="M21.791,29.549a.459.459,0,0,1-.322-.132l-4.714-4.664-4.714,4.664a.458.458,0,0,1-.5.1.452.452,0,0,1-.282-.417v-9.41a.45.45,0,0,1,.255-.405.46.46,0,0,1,.48.049,7.815,7.815,0,0,0,9.514,0,.46.46,0,0,1,.48-.049.45.45,0,0,1,.255.405V29.1a.452.452,0,0,1-.282.417A.456.456,0,0,1,21.791,29.549Zm-5.036-5.886a.463.463,0,0,1,.323.132l4.257,4.213V20.551a8.738,8.738,0,0,1-9.159,0v7.457L16.433,23.8A.463.463,0,0,1,16.756,23.663Z" stroke="none"/>
      <path d="M 11.7203483581543 29.5488224029541 C 11.66157054901123 29.54882431030273 11.60225868225098 29.53753852844238 11.54567527770996 29.51433563232422 C 11.37513542175293 29.44438743591309 11.26399517059326 29.27959632873535 11.26399517059326 29.09756660461426 L 11.26399517059326 19.6872673034668 C 11.26399517059326 19.51480674743652 11.36268520355225 19.35768699645996 11.51885509490967 19.28199577331543 C 11.67501544952393 19.20630645751953 11.86184501647949 19.22546577453613 11.99884510040283 19.33085632324219 C 13.37849521636963 20.38762664794922 15.02351570129395 20.94522666931152 16.75573539733887 20.94522666931152 C 18.48890495300293 20.94522666931152 20.13393592834473 20.38762664794922 21.51262474060059 19.33085632324219 C 21.64962577819824 19.22546768188477 21.83645629882812 19.20630836486816 21.99262619018555 19.28199577331543 C 22.14878463745117 19.35768699645996 22.24747467041016 19.51480674743652 22.24747467041016 19.6872673034668 L 22.24747467041016 29.09756660461426 C 22.24747467041016 29.27959632873535 22.1363353729248 29.44438743591309 21.96579551696777 29.51433563232422 C 21.79997253417969 29.58294296264648 21.60064125061035 29.54629898071289 21.46950531005859 29.41660690307617 L 16.75573539733887 24.75265693664551 L 12.04196548461914 29.41660690307617 C 11.95489692687988 29.50303268432617 11.83872604370117 29.54881858825684 11.7203483581543 29.5488224029541 Z M 16.75573539733887 23.66331672668457 C 16.87645530700684 23.66331672668457 16.99238586425781 23.71121597290039 17.07860565185547 23.7955265045166 L 21.33537483215332 28.00822639465332 L 21.33537483215332 20.55145645141602 C 19.95956611633301 21.40223693847656 18.39310455322266 21.84774589538574 16.75573539733887 21.84774589538574 C 15.11836528778076 21.84774589538574 13.55190563201904 21.40223693847656 12.1760950088501 20.55145645141602 L 12.1760950088501 28.00822639465332 L 16.43286514282227 23.7955265045166 C 16.51909446716309 23.71121597290039 16.6350154876709 23.66331672668457 16.75573539733887 23.66331672668457 Z" stroke="none" fill="#44c8f5"/>
    </g>
    <path id="Path_14535" data-name="Path 14535" d="M16.773,7.5l1.66,3.346,3.537.552L19.458,14l.779,3.458-3.464-1.507-3.464,1.507L14.088,14l-2.512-2.6,3.537-.552Z" transform="translate(-8.072 -4.146)" fill="none"/>
    <path id="Path_14536" data-name="Path 14536" d="M13.289,17.875a.431.431,0,0,1-.421-.526l.728-3.231-2.35-2.437a.432.432,0,0,1,.244-.726l3.316-.517,1.561-3.145a.431.431,0,0,1,.772,0L18.7,10.437l3.316.517a.432.432,0,0,1,.244.726l-2.35,2.437.728,3.231a.431.431,0,0,1-.593.491l-3.292-1.433-3.292,1.433A.434.434,0,0,1,13.289,17.875Zm-.845-6.2,1.935,2.007a.433.433,0,0,1,.11.395L13.9,16.709l2.684-1.168a.432.432,0,0,1,.345,0l2.685,1.168-.593-2.628a.433.433,0,0,1,.11-.395l1.935-2.007-2.716-.423a.432.432,0,0,1-.32-.235L16.754,8.454,15.48,11.02a.432.432,0,0,1-.32.235Z" transform="translate(-8.054 -4.128)" fill="#039"/>
  </g>
  <rect id="Rectangle_9524" data-name="Rectangle 9524" width="30" height="30" fill="none"/>
</svg>
