<svg id="Group_22187" data-name="Group 22187" xmlns="http://www.w3.org/2000/svg" width="30" height="30" viewBox="0 0 30 30">
  <g id="Group_22186" data-name="Group 22186" transform="translate(5 1.001)">
    <path id="Path_20940" data-name="Path 20940" d="M14.276,7.576a1.35,1.35,0,0,0,.174-.341,1.321,1.321,0,0,1,.521.208,1.992,1.992,0,0,0,1.064.341,2.064,2.064,0,0,0,.358-.033,1.9,1.9,0,0,0,1.232-.775,1.036,1.036,0,0,1,1.507-.266,1.9,1.9,0,0,0,1.423.307L20.4,6.125a1.035,1.035,0,0,1-.812-.2,1.926,1.926,0,0,0-2.654.468,1.037,1.037,0,0,1-.7.465.9.9,0,0,1-.4-.01,1.8,1.8,0,0,0,.724-.384,1.9,1.9,0,0,0,.679-1.287,1.034,1.034,0,0,1,.37-.75,1.02,1.02,0,0,1,.8-.234A1.862,1.862,0,0,0,19.8,3.748l-.583-.693a1.081,1.081,0,0,1-.8.233,1.927,1.927,0,0,0-2.065,1.732A1.035,1.035,0,0,1,15.18,6a2.012,2.012,0,0,0-.833.111,1.358,1.358,0,0,0-.526-.513l2.024-4.043A.453.453,0,0,0,15.438.9,1.168,1.168,0,0,1,14.59.551a2.087,2.087,0,0,0-2.828,0A1.2,1.2,0,0,1,10.913.9a1.2,1.2,0,0,1-.849-.353,2.09,2.09,0,0,0-2.83,0A1.172,1.172,0,0,1,6.385.9a.453.453,0,0,0-.405.655L8,5.6a1.343,1.343,0,0,0-.455,1.974A9.513,9.513,0,0,0,.5,16.747V24.9a2.266,2.266,0,0,0,2.263,2.263h16.3A2.266,2.266,0,0,0,21.322,24.9V16.747a9.514,9.514,0,0,0-7.046-9.171ZM7.8,1.258a1.2,1.2,0,0,1,1.7,0,2.089,2.089,0,0,0,2.829,0,1.194,1.194,0,0,1,1.7,0,2.4,2.4,0,0,0,.735.444L12.895,5.431H8.927L7.064,1.7A2.418,2.418,0,0,0,7.8,1.258Zm.848,5.984a.453.453,0,0,1,0-.905h4.527a.453.453,0,1,1,0,.905ZM20.417,24.9a1.358,1.358,0,0,1-1.358,1.358H2.763A1.358,1.358,0,0,1,1.405,24.9V16.747a8.61,8.61,0,0,1,8.6-8.6h1.811a8.61,8.61,0,0,1,8.6,8.6Zm0,0" transform="translate(-0.5 0.001)" fill="#44c8f5"/>
    <path id="Path_20941" data-name="Path 20941" d="M5.247,1.729h-.6A1.883,1.883,0,0,0,4.293.8h.953a.4.4,0,1,0,0-.8H.413a.4.4,0,1,0,0,.8H2.246a1.331,1.331,0,0,1,1.345.926H.413a.413.413,0,0,0,0,.827H3.55a1.452,1.452,0,0,1-1.476.839H.77a.4.4,0,0,0,0,.806H2c.813.031,1.174.383,1.381,1.347.162.716.282,1.183.375,1.462a2.015,2.015,0,0,0,.451.881.486.486,0,0,0,.707-.666.04.04,0,0,0,0-.007,11.652,11.652,0,0,1-.546-1.948,1.869,1.869,0,0,0-.991-1.445,1.928,1.928,0,0,0,1.21-1.271h.664a.413.413,0,0,0,0-.827Z" transform="translate(7.524 14.757)" fill="#039"/>
  </g>
  <rect id="Rectangle_9531" data-name="Rectangle 9531" width="30" height="30" fill="none"/>
</svg>
