<svg id="Group_12471" data-name="Group 12471" xmlns="http://www.w3.org/2000/svg" width="36" height="36" viewBox="0 0 36 36">
  <g id="Ellipse_538" data-name="Ellipse 538" fill="#fff" stroke="#aceaff" stroke-width="1">
    <circle cx="18" cy="18" r="18" stroke="none"/>
    <circle cx="18" cy="18" r="17.5" fill="none"/>
  </g>
  <g id="open-lock" transform="translate(11.998 9)">
    <g id="Group_11868" data-name="Group 11868">
      <g id="Group_11867" data-name="Group 11867" transform="translate(0)">
        <path id="Path_16571" data-name="Path 16571" d="M87.943,6.569H79.371V4.105a3.432,3.432,0,0,1,6.857,0h.857a4.29,4.29,0,0,0-8.571,0V6.569h-.857a.84.84,0,0,0-.857.821V15.6a.84.84,0,0,0,.857.821H87.943A.84.84,0,0,0,88.8,15.6V7.39A.84.84,0,0,0,87.943,6.569Zm0,9.032H77.657V7.39H87.943Z" transform="translate(-76.8)" fill="#039" stroke="#fff" stroke-width="0.1"/>
      </g>
    </g>
    <g id="Group_11870" data-name="Group 11870" transform="translate(4.768 9.853)">
      <g id="Group_11869" data-name="Group 11869" transform="translate(0)">
        <path id="Path_16572" data-name="Path 16572" d="M218.832,307.2a1.229,1.229,0,0,0-.411,2.388v1.307h.821v-1.307a1.229,1.229,0,0,0-.411-2.388Zm0,1.642a.411.411,0,1,1,.411-.411A.411.411,0,0,1,218.832,308.842Z" transform="translate(-217.6 -307.2)" fill="#039" stroke="#fff" stroke-width="0.1"/>
      </g>
    </g>
  </g>
</svg>
