<svg xmlns="http://www.w3.org/2000/svg" width="20.466" height="22.3" viewBox="0 0 20.466 22.3">
    <g data-name="Group 17280">
        <g data-name="Group 17279">
            <g data-name="Group 14310">
                <path data-name="Path 15952" d="M19.374 22.446H8.306A2.308 2.308 0 0 1 6 20.141V6.306A2.308 2.308 0 0 1 8.306 4h11.068a2.308 2.308 0 0 1 2.306 2.306v13.835a2.308 2.308 0 0 1-2.306 2.305zM8.306 4.922a1.385 1.385 0 0 0-1.384 1.384v13.835a1.385 1.385 0 0 0 1.383 1.383h11.069a1.385 1.385 0 0 0 1.383-1.383V6.306a1.385 1.385 0 0 0-1.383-1.383z" transform="translate(-1.363 -.296)" style="fill:#44c8f5;stroke:#44c8f6;stroke-width:.3px"/>
                <path data-name="Path 15953" d="M4.228 19.233h-.922A2.3 2.3 0 0 1 1 16.943V2.29A2.3 2.3 0 0 1 3.306 0h11.068a2.3 2.3 0 0 1 2.306 2.29.461.461 0 0 1-.922 0A1.38 1.38 0 0 0 14.374.916H3.306A1.38 1.38 0 0 0 1.922 2.29v14.653a1.38 1.38 0 0 0 1.383 1.374h.922a.458.458 0 1 1 0 .916z" transform="translate(-.85 .15)" style="fill:#44c8f5;stroke:#44c8f6;stroke-width:.3px"/>
                <path data-name="Path 15954" d="M17.84 16.922h-7.379a.461.461 0 1 1 0-.922h7.379a.461.461 0 1 1 0 .922z" transform="translate(-1.635 -1.187)" style="fill:#039"/>
                <path data-name="Path 15955" d="M17.84 20.922h-7.379a.461.461 0 1 1 0-.922h7.379a.461.461 0 1 1 0 .922z" transform="translate(-1.635 -1.539)" style="fill:#039"/>
                <path data-name="Path 15956" d="M17.84 12.922h-7.379a.461.461 0 1 1 0-.922h7.379a.461.461 0 1 1 0 .922z" transform="translate(-1.635 -.853)" style="fill:#039"/>
                <path data-name="Path 15957" d="M17.84 8.922h-7.379a.461.461 0 1 1 0-.922h7.379a.461.461 0 1 1 0 .922z" transform="translate(-1.635 -.519)" style="fill:#039"/>
            </g>
        </g>
    </g>
</svg>
