<svg id="Group_14976" data-name="Group 14976" xmlns="http://www.w3.org/2000/svg" width="23.941" height="30.884" viewBox="0 0 23.941 30.884">
  <g id="Group_14389" data-name="Group 14389">
    <g id="Path_1043" data-name="Path 1043">
      <path id="Path_18975" data-name="Path 18975" d="M-1110.865,2790.925a13.588,13.588,0,0,0-1.639-4.81,8.139,8.139,0,0,0-3.291-3.108,12.685,12.685,0,0,0-10.266.036,8.99,8.99,0,0,0-3.474,3.178,14.417,14.417,0,0,0-1.886,4.9,31.6,31.6,0,0,0-.575,6.275,38.521,38.521,0,0,0,.459,6.245,13.689,13.689,0,0,0,1.654,4.809,8.15,8.15,0,0,0,3.273,3.112,12.72,12.72,0,0,0,10.284-.036,8.992,8.992,0,0,0,3.473-3.178,14.229,14.229,0,0,0,1.879-4.894,32.183,32.183,0,0,0,.56-6.279A39.626,39.626,0,0,0-1110.865,2790.925Zm-1.286,12.287a13.045,13.045,0,0,1-1.712,4.482,7.8,7.8,0,0,1-3.011,2.761,11.553,11.553,0,0,1-9.175.039,6.964,6.964,0,0,1-2.8-2.663,12.5,12.5,0,0,1-1.5-4.389,37.458,37.458,0,0,1-.446-6.049,30.485,30.485,0,0,1,.552-6.035,13.229,13.229,0,0,1,1.72-4.491,7.811,7.811,0,0,1,3.011-2.761,11.511,11.511,0,0,1,9.163-.038,6.946,6.946,0,0,1,2.811,2.662,12.379,12.379,0,0,1,1.486,4.387,38.193,38.193,0,0,1,.438,6.052,31.017,31.017,0,0,1-.534,6.044Z" transform="translate(1132.097 -2781.842)" fill="#2dbff3"/>
      <path id="Path_18976" data-name="Path 18976" d="M-1121.511,2812.726a12.808,12.808,0,0,1-5.139-1.074,8.241,8.241,0,0,1-3.32-3.152,13.768,13.768,0,0,1-1.667-4.846,38.781,38.781,0,0,1-.459-6.26,31.807,31.807,0,0,1,.577-6.292,14.47,14.47,0,0,1,1.9-4.933,9.119,9.119,0,0,1,3.514-3.215,12.812,12.812,0,0,1,10.352-.039,8.237,8.237,0,0,1,3.337,3.149,13.6,13.6,0,0,1,1.652,4.847,39.739,39.739,0,0,1,.452,6.264,32.257,32.257,0,0,1-.562,6.3,14.285,14.285,0,0,1-1.892,4.927,9.1,9.1,0,0,1-3.513,3.215A12.841,12.841,0,0,1-1121.511,2812.726Zm.626-30.684a12.6,12.6,0,0,0-5.135,1.092,8.9,8.9,0,0,0-3.431,3.141,14.256,14.256,0,0,0-1.872,4.864,31.584,31.584,0,0,0-.573,6.255,38.533,38.533,0,0,0,.457,6.23,13.53,13.53,0,0,0,1.643,4.775,8.04,8.04,0,0,0,3.232,3.073,12.643,12.643,0,0,0,10.2-.038,8.9,8.9,0,0,0,3.43-3.141,14.116,14.116,0,0,0,1.865-4.857,32.254,32.254,0,0,0,.558-6.261,39.625,39.625,0,0,0-.45-6.236h0a13.423,13.423,0,0,0-1.627-4.773,8.026,8.026,0,0,0-3.25-3.069A12.578,12.578,0,0,0-1120.885,2782.042Zm-.623,29.478a11.653,11.653,0,0,1-4.58-.935,7.071,7.071,0,0,1-2.847-2.7,12.576,12.576,0,0,1-1.513-4.426,37.637,37.637,0,0,1-.447-6.064,30.573,30.573,0,0,1,.554-6.052,13.24,13.24,0,0,1,1.733-4.525,7.911,7.911,0,0,1,3.05-2.8,11.656,11.656,0,0,1,9.249-.041,7.046,7.046,0,0,1,2.858,2.7,12.438,12.438,0,0,1,1.5,4.425,38.383,38.383,0,0,1,.439,6.066,31.135,31.135,0,0,1-.536,6.061l-.021.113h0a13.1,13.1,0,0,1-1.7,4.4,7.927,7.927,0,0,1-3.051,2.8A11.689,11.689,0,0,1-1121.508,2811.52Zm.624-28.281a11.444,11.444,0,0,0-4.588.958,7.718,7.718,0,0,0-2.966,2.724,13.061,13.061,0,0,0-1.707,4.456,30.346,30.346,0,0,0-.549,6.015,37.257,37.257,0,0,0,.444,6.034,12.35,12.35,0,0,0,1.489,4.355A6.85,6.85,0,0,0-1126,2810.4a11.484,11.484,0,0,0,9.089-.041,7.715,7.715,0,0,0,2.967-2.722,12.941,12.941,0,0,0,1.7-4.447l.02-.113h0a30.951,30.951,0,0,0,.511-5.912,38.276,38.276,0,0,0-.436-6.038,12.253,12.253,0,0,0-1.475-4.354,6.849,6.849,0,0,0-2.77-2.622A11.407,11.407,0,0,0-1120.884,2783.239Z" transform="translate(1132.097 -2781.842)" fill="#2dbff3"/>
    </g>
    <g id="Path_1044" data-name="Path 1044" transform="translate(5.829 4.593)">
      <path id="Path_18977" data-name="Path 18977" d="M-1116.693,2791.086v-.007a10.845,10.845,0,0,0-.615-2.048,4.277,4.277,0,0,0-.971-1.46,3.439,3.439,0,0,0-1.336-.813h-.01a5.247,5.247,0,0,0-1.551-.221,4.179,4.179,0,0,0-2.512.74,4.766,4.766,0,0,0-1.555,2.147,12.438,12.438,0,0,0-.73,3.276c-.057.523-.1,1.091-.135,1.686a.6.6,0,0,0,.564.631.636.636,0,0,0,.632-.564c.032-.575.076-1.121.131-1.628a11.262,11.262,0,0,1,.651-2.956,3.61,3.61,0,0,1,1.148-1.624,3.013,3.013,0,0,1,1.806-.509,4.046,4.046,0,0,1,1.193.167,2.214,2.214,0,0,1,.868.534l.009.01a3.128,3.128,0,0,1,.693,1.06,9.723,9.723,0,0,1,.542,1.814,22.429,22.429,0,0,1,.328,2.622c.074,1.01.111,2.2.111,3.526,0,1.157-.024,2.146-.074,3.016a18.232,18.232,0,0,1-.284,2.412,9.44,9.44,0,0,1-.507,1.816v.009a3.884,3.884,0,0,1-.712,1.2,2.687,2.687,0,0,1-.949.669h-.008a3.757,3.757,0,0,1-2.966-.161,2.849,2.849,0,0,1-1.09-1.368,11.128,11.128,0,0,1-.721-3,55.475,55.475,0,0,1-.173-8.039.6.6,0,0,0-.623-.571.5.5,0,0,0-.5.489.55.55,0,0,0,.006.082,46.21,46.21,0,0,0,.108,8.184,12.133,12.133,0,0,0,.813,3.34,4.007,4.007,0,0,0,1.586,1.923,4.942,4.942,0,0,0,4.031.23,3.909,3.909,0,0,0,1.372-.963l.009-.01a5.091,5.091,0,0,0,.938-1.571,10.656,10.656,0,0,0,.572-2.037,19.418,19.418,0,0,0,.3-2.568c.052-.89.076-1.9.076-3.085,0-1.358-.038-2.573-.114-3.613A23.192,23.192,0,0,0-1116.693,2791.086Z" transform="translate(1126.268 -2786.435)" fill="#2dbff3"/>
      <path id="Path_18978" data-name="Path 18978" d="M-1121.259,2808.121a5.047,5.047,0,0,1-2.317-.563,4.088,4.088,0,0,1-1.633-1.976,12.22,12.22,0,0,1-.82-3.366,46.5,46.5,0,0,1-.15-7.593.7.7,0,0,1-.029-.243c.033-.6.078-1.167.135-1.692a12.536,12.536,0,0,1,.737-3.3,4.854,4.854,0,0,1,1.586-2.193,4.261,4.261,0,0,1,2.438-.762l.139,0h.049a5.316,5.316,0,0,1,1.514.222l.026.005a3.539,3.539,0,0,1,1.375.835,4.367,4.367,0,0,1,.994,1.494,11.024,11.024,0,0,1,.62,2.067l0,.017a23.418,23.418,0,0,1,.35,2.769c.076,1.043.115,2.26.115,3.619,0,1.19-.026,2.2-.078,3.092a19.608,19.608,0,0,1-.3,2.579,10.757,10.757,0,0,1-.576,2.055,5.176,5.176,0,0,1-.956,1.6,4.018,4.018,0,0,1-1.419,1A5.054,5.054,0,0,1-1121.259,2808.121Zm-4.739-13.2a46.479,46.479,0,0,0,.168,7.277,11.994,11.994,0,0,0,.807,3.313,3.875,3.875,0,0,0,1.547,1.875,4.834,4.834,0,0,0,3.941.22,3.755,3.755,0,0,0,1.335-.936,4.994,4.994,0,0,0,.927-1.548,10.567,10.567,0,0,0,.566-2.02,19.4,19.4,0,0,0,.3-2.554c.051-.887.076-1.9.076-3.081,0-1.354-.038-2.567-.113-3.606a23.192,23.192,0,0,0-.35-2.754v-.026a10.972,10.972,0,0,0-.607-2.011,4.191,4.191,0,0,0-.949-1.426,3.344,3.344,0,0,0-1.284-.784l-.021,0a5.333,5.333,0,0,0-1.521-.217,4.05,4.05,0,0,0-2.457.721,4.66,4.66,0,0,0-1.516,2.1,12.352,12.352,0,0,0-.726,3.249c-.027.257-.053.524-.075.8a.59.59,0,0,1,.4-.156h.037a.694.694,0,0,1,.552.277c.022-.279.048-.552.076-.814a11.389,11.389,0,0,1,.657-2.979,3.706,3.706,0,0,1,1.18-1.668,3.054,3.054,0,0,1,1.872-.531h.04a4.1,4.1,0,0,1,1.177.173,2.31,2.31,0,0,1,.911.559,3.23,3.23,0,0,1,.724,1.1,9.89,9.89,0,0,1,.547,1.83,22.509,22.509,0,0,1,.329,2.636c.074,1.006.112,2.2.112,3.532,0,1.165-.024,2.153-.074,3.022a18.249,18.249,0,0,1-.286,2.425,9.581,9.581,0,0,1-.505,1.817l-.006.024a3.97,3.97,0,0,1-.731,1.231,2.816,2.816,0,0,1-.985.7l-.029.006a3.88,3.88,0,0,1-3.029-.17,2.946,2.946,0,0,1-1.139-1.423,11.232,11.232,0,0,1-.727-3.027,56,56,0,0,1-.212-7.141.729.729,0,0,1-.488.187A.708.708,0,0,1-1126,2794.919Zm1.155-.318a55.779,55.779,0,0,0,.2,7.451,11.055,11.055,0,0,0,.715,2.974,2.734,2.734,0,0,0,1.052,1.322,3.673,3.673,0,0,0,2.877.15l.022-.006a2.589,2.589,0,0,0,.9-.637,3.763,3.763,0,0,0,.686-1.151l.007-.027a9.424,9.424,0,0,0,.5-1.8,18.029,18.029,0,0,0,.283-2.4c.05-.865.074-1.85.074-3.011,0-1.332-.037-2.516-.111-3.518a22.436,22.436,0,0,0-.326-2.612,9.7,9.7,0,0,0-.537-1.794,3,3,0,0,0-.67-1.027,2.139,2.139,0,0,0-.838-.52,4.128,4.128,0,0,0-1.161-.163,2.883,2.883,0,0,0-1.751.493,3.5,3.5,0,0,0-1.11,1.574,11.2,11.2,0,0,0-.646,2.931c-.055.508-.1,1.054-.131,1.625A.687.687,0,0,1-1124.843,2794.6Zm-1.136-.009a.5.5,0,0,0,.441.326.536.536,0,0,0,.5-.352c.007-.183.016-.366.025-.548a.5.5,0,0,0-.519-.467h-.006a.4.4,0,0,0-.4.391.354.354,0,0,0,.005.065C-1125.953,2794.2-1125.966,2794.4-1125.979,2794.592Z" transform="translate(1126.268 -2786.435)" fill="#2dbff3"/>
    </g>
  </g>
  <g id="Group_14975" data-name="Group 14975" transform="translate(10.799 8.621)">
    <g id="Path_130" data-name="Path 130" transform="translate(0.1 0.1)">
      <path id="Path_18979" data-name="Path 18979" d="M-1108.987,2791.3a1.792,1.792,0,0,0-2.5-.385h0l-8.1,5.945a.4.4,0,0,0-.129.157l-1.439,3.192a.4.4,0,0,0,.2.527.4.4,0,0,0,.211.033l3.477-.415a.4.4,0,0,0,.189-.076l8.1-5.945a1.8,1.8,0,0,0,.385-2.506Z" transform="translate(1121.199 -2790.563)" fill="#fff"/>
    </g>
    <g id="Path_130-2" data-name="Path 130">
      <path id="Path_18980" data-name="Path 18980" d="M-1108.987,2791.3a1.792,1.792,0,0,0-2.5-.385h0l-8.1,5.945a.4.4,0,0,0-.129.157l-1.439,3.192a.4.4,0,0,0,.2.527.4.4,0,0,0,.211.033l3.477-.415a.4.4,0,0,0,.189-.076l8.1-5.945a1.8,1.8,0,0,0,.385-2.506Zm-9.789,5.947,6.63-4.866,1.569,2.139-6.631,4.865Zm-.485.687,1.253,1.708-2.135.253Zm9.808-4.238-.481.353-1.569-2.138.482-.353a1,1,0,0,1,1.391.213l.392.534a1,1,0,0,1-.214,1.39Z" transform="translate(1121.299 -2790.464)" fill="#00307f"/>
      <path id="Path_18981" data-name="Path 18981" d="M-1120.8,2800.867a.5.5,0,0,1-.2-.043.5.5,0,0,1-.262-.279.5.5,0,0,1,.013-.381l1.439-3.192a.516.516,0,0,1,.161-.2l8.1-5.945a1.893,1.893,0,0,1,2.644.407l.386.528a1.9,1.9,0,0,1-.406,2.645l-8.1,5.945a.493.493,0,0,1-.235.095l-3.478.415A.584.584,0,0,1-1120.8,2800.867Zm9.342-9.856-8.077,5.926a.294.294,0,0,0-.1.118l-1.439,3.191a.3.3,0,0,0-.008.229.306.306,0,0,0,.157.167.322.322,0,0,0,.157.023l3.477-.415a.293.293,0,0,0,.141-.056l8.1-5.946a1.7,1.7,0,0,0,.363-2.365l-.386-.528a1.693,1.693,0,0,0-2.324-.393v.048Zm-8.848,9,1.025-2.279,1.457,1.985Zm1.067-1.884-.739,1.644,1.79-.212Zm2.011,1.394-1.687-2.3.081-.06,6.71-4.925,1.688,2.3-.081.06Zm-1.407-2.256,1.449,1.976,6.471-4.747-1.451-1.977Zm8.68-3.08-1.688-2.3.564-.412a1.085,1.085,0,0,1,.814-.2,1.1,1.1,0,0,1,.717.435l.391.533a1.1,1.1,0,0,1-.235,1.53l-.005.006,0,0Zm-1.407-2.257,1.45,1.977.4-.294h0a.905.905,0,0,0,.193-1.253l-.391-.532a.891.891,0,0,0-.586-.355.868.868,0,0,0-.666.163Z" transform="translate(1121.299 -2790.464)" fill="#00307f"/>
    </g>
  </g>
</svg>
