<svg xmlns="http://www.w3.org/2000/svg" width="15.734" height="18.039" viewBox="0 0 15.734 18.039">
  <g id="Group_21911" data-name="Group 21911" transform="translate(-36 -486.961)">
    <g id="Group_11810" data-name="Group 11810" transform="translate(36 490.314)">
      <g id="Group_11799" data-name="Group 11799" transform="translate(0)">
        <path id="Path_15950" data-name="Path 15950" d="M79.21,153.6H74.49v1.049h4.2v12.587H65.049V154.649h4.2V153.6h-4.72a.525.525,0,0,0-.524.524v13.636a.525.525,0,0,0,.524.524H79.21a.525.525,0,0,0,.524-.524V154.124A.525.525,0,0,0,79.21,153.6Z" transform="translate(-64 -153.6)" fill="#44c8f5"/>
      </g>
    </g>
    <g id="Group_11811" data-name="Group 11811" transform="translate(40.196 486.961)">
      <g id="Group_11801" data-name="Group 11801" transform="translate(0)">
        <path id="Path_15951" data-name="Path 15951" d="M173.6,9.6a.525.525,0,0,0-.742-.008L170.6,11.8V.524a.524.524,0,1,0-1.049,0V11.8L167.3,9.59a.524.524,0,1,0-.733.75l3.147,3.078a.525.525,0,0,0,.742-.008l3.138-3.07A.525.525,0,0,0,173.6,9.6Z" transform="translate(-166.404)" fill="#039"/>
      </g>
    </g>
  </g>
</svg>
