<svg id="Group_22040" data-name="Group 22040" xmlns="http://www.w3.org/2000/svg" width="30" height="30" viewBox="0 0 30 30">
  <g id="Group_20546" data-name="Group 20546" transform="translate(3 3)">
    <rect id="Rectangle_9353" data-name="Rectangle 9353" width="4.684" height="0.471" transform="matrix(0.707, 0.707, -0.707, 0.707, 18.9, 1.225)" fill="#44c8f5" stroke="#44c8f5" stroke-width="0.2"/>
    <path id="Path_20925" data-name="Path 20925" d="M1.423,24.125a1.4,1.4,0,0,1-1-.415A1.419,1.419,0,0,1,0,22.7a1.4,1.4,0,0,1,.415-1L.9,21.223a.233.233,0,0,1,.335,0l1.508,1.508,4.415-4.415a8.294,8.294,0,0,1,3.162-1.97A7.813,7.813,0,0,0,13.3,14.489l9.6-9.6A2.591,2.591,0,0,0,19.23,1.23l-9.6,9.6a7.813,7.813,0,0,0-1.857,2.983,8.237,8.237,0,0,1-1.97,3.162L1.89,20.888l-.335-.335,3.916-3.916a7.813,7.813,0,0,0,1.857-2.983A8.237,8.237,0,0,1,9.3,10.494L18.9.9A3.065,3.065,0,0,1,23.23,5.23l-9.6,9.594a8.294,8.294,0,0,1-3.162,1.97A7.813,7.813,0,0,0,7.487,18.65L2.427,23.711A1.412,1.412,0,0,1,1.423,24.125Zm-.363-2.4-.311.311a.95.95,0,1,0,1.343,1.343l.311-.311Z" transform="translate(0 0)" fill="#44c8f5" stroke="#44c8f5" stroke-width="0.2"/>
    <path id="Path_20926" data-name="Path 20926" d="M2.233,10.545a.221.221,0,0,1-.165-.071l-2-2a.233.233,0,0,1,0-.335L6.488,1.72a.233.233,0,0,1,.335,0l2,2a.233.233,0,0,1,0,.335L2.4,10.475A.229.229,0,0,1,2.233,10.545ZM.565,8.307,2.233,9.975,8.321,3.887,6.653,2.219Zm8.7-5.763a1.272,1.272,0,1,1,1.272-1.272A1.273,1.273,0,0,1,9.268,2.544Zm0-2.073a.8.8,0,1,0,.8.8A.8.8,0,0,0,9.268.471Z" transform="translate(9.721 3.864)" fill="#039" stroke="#039" stroke-width="0.2"/>
    <rect id="Rectangle_9354" data-name="Rectangle 9354" width="0.471" height="1.023" transform="matrix(0.707, 0.707, -0.707, 0.707, 16.547, 7.244)" fill="#039" stroke="#039" stroke-width="0.2"/>
    <rect id="Rectangle_9355" data-name="Rectangle 9355" width="0.471" height="5.08" transform="matrix(0.707, 0.707, -0.707, 0.707, 15.044, 8.747)" fill="#039" stroke="#039" stroke-width="0.2"/>
  </g>
  <g id="Rectangle_9539" data-name="Rectangle 9539" transform="translate(0 0)" fill="none" stroke="#707070" stroke-width="0.5" opacity="0">
    <rect width="30" height="30" stroke="none"/>
    <rect x="0.25" y="0.25" width="29.5" height="29.5" fill="none"/>
  </g>
</svg>
