<svg xmlns="http://www.w3.org/2000/svg" width="60.504" height="47.985" viewBox="0 0 60.504 47.985">
  <g id="Group_12595" data-name="Group 12595" transform="translate(0 0.5)">
    <g id="Group_12586" data-name="Group 12586" transform="translate(0 8.993)">
      <path id="Path_17046" data-name="Path 17046" d="M1014.936,384.618a17.406,17.406,0,0,1,.393-18.516l2.617,1.829-.486-6.578-6.492,1.7,2.832,1.98a19.247,19.247,0,0,0,20.855,29.272l-1.005-1.674A17.419,17.419,0,0,1,1014.936,384.618Z" transform="translate(-1010.598 -356.419)" fill="#44c8f5"/>
      <path id="Path_17047" data-name="Path 17047" d="M1062.032,360.393a19.285,19.285,0,0,0-21.317-8.729l1.005,1.674a17.383,17.383,0,0,1,18.139,26.8l-2.646-1.85.486,6.578,6.492-1.7-2.806-1.961A19.273,19.273,0,0,0,1062.032,360.393Z" transform="translate(-1026.276 -351.059)" fill="#44c8f5"/>
    </g>
    <g id="Group_12592" data-name="Group 12592" transform="translate(21.98)">
      <g id="Group_12590" data-name="Group 12590" transform="translate(0 2.609)">
        <g id="Group_12587" data-name="Group 12587" transform="translate(2.551)">
          <g id="Rectangle_8279" data-name="Rectangle 8279" transform="translate(0 0)">
            <rect id="Rectangle_8292" data-name="Rectangle 8292" width="35.573" height="25.984" rx="3.6" fill="#fff" stroke="#039" stroke-linejoin="round" stroke-width="0.8"/>
          </g>
          <path id="Path_17048" data-name="Path 17048" d="M1135.966,351.836" transform="translate(-1100.393 -345.079)" fill="#6ec6f0" stroke="#039" stroke-linejoin="round" stroke-width="0.8"/>
          <path id="Path_17049" data-name="Path 17049" d="M1061.766,351.836" transform="translate(-1061.766 -345.079)" fill="#6ec6f0" stroke="#039" stroke-linejoin="round" stroke-width="0.8"/>
          <g id="Rectangle_8279-2" data-name="Rectangle 8279" transform="translate(0)">
            <path id="Path_17050" data-name="Path 17050" d="M1063.492,337.742h32.121a1.726,1.726,0,0,1,1.726,1.726V344.5h-35.573v-5.031A1.726,1.726,0,0,1,1063.492,337.742Z" transform="translate(-1061.766 -337.742)" fill="#6ec6f0" stroke="#039" stroke-linejoin="round" stroke-width="0.8"/>
          </g>
        </g>
        <g id="Group_12588" data-name="Group 12588" transform="translate(1.275 1.438)">
          <g id="Rectangle_8279-3" data-name="Rectangle 8279" transform="translate(0 0)">
            <rect id="Rectangle_8293" data-name="Rectangle 8293" width="35.573" height="25.984" rx="3.6" fill="#fff" stroke="#039" stroke-linejoin="round" stroke-width="0.8"/>
          </g>
          <path id="Path_17051" data-name="Path 17051" d="M1133.305,354.836" transform="translate(-1097.732 -348.079)" fill="#6ec6f0" stroke="#039" stroke-linejoin="round" stroke-width="0.8"/>
          <path id="Path_17052" data-name="Path 17052" d="M1059.1,354.836" transform="translate(-1059.105 -348.079)" fill="#6ec6f0" stroke="#039" stroke-linejoin="round" stroke-width="0.8"/>
          <g id="Rectangle_8279-4" data-name="Rectangle 8279">
            <path id="Path_17053" data-name="Path 17053" d="M1060.831,340.742h32.121a1.726,1.726,0,0,1,1.726,1.726V347.5H1059.1v-5.031A1.726,1.726,0,0,1,1060.831,340.742Z" transform="translate(-1059.105 -340.742)" fill="#6ec6f0" stroke="#039" stroke-linejoin="round" stroke-width="0.8"/>
          </g>
        </g>
        <g id="Group_12589" data-name="Group 12589" transform="translate(0 2.876)">
          <g id="Rectangle_8279-5" data-name="Rectangle 8279" transform="translate(0 0)">
            <rect id="Rectangle_8294" data-name="Rectangle 8294" width="35.573" height="25.984" rx="3.6" fill="#fff" stroke="#039" stroke-linejoin="round" stroke-width="0.8"/>
          </g>
          <path id="Path_17054" data-name="Path 17054" d="M1130.645,357.836" transform="translate(-1095.072 -351.079)" fill="#6ec6f0" stroke="#039" stroke-linejoin="round" stroke-width="0.8"/>
          <path id="Path_17055" data-name="Path 17055" d="M1056.445,357.836" transform="translate(-1056.445 -351.079)" fill="#6ec6f0" stroke="#039" stroke-linejoin="round" stroke-width="0.8"/>
          <g id="Rectangle_8279-6" data-name="Rectangle 8279">
            <path id="Path_17056" data-name="Path 17056" d="M1058.171,343.742h32.121a1.726,1.726,0,0,1,1.726,1.726V350.5h-35.573v-5.031A1.726,1.726,0,0,1,1058.171,343.742Z" transform="translate(-1056.445 -343.742)" fill="#6ec6f0" stroke="#039" stroke-linejoin="round" stroke-width="0.8"/>
          </g>
          <circle id="Ellipse_724" data-name="Ellipse 724" cx="0.7" cy="0.7" r="0.7" transform="translate(9.624 10.562)" fill="#039"/>
          <circle id="Ellipse_725" data-name="Ellipse 725" cx="0.7" cy="0.7" r="0.7" transform="translate(14.673 10.562)" fill="#039"/>
          <circle id="Ellipse_726" data-name="Ellipse 726" cx="0.7" cy="0.7" r="0.7" transform="translate(19.723 10.562)" fill="#039"/>
          <circle id="Ellipse_727" data-name="Ellipse 727" cx="0.7" cy="0.7" r="0.7" transform="translate(24.773 10.562)" fill="#039"/>
          <circle id="Ellipse_728" data-name="Ellipse 728" cx="0.7" cy="0.7" r="0.7" transform="translate(29.822 10.562)" fill="#039"/>
          <circle id="Ellipse_729" data-name="Ellipse 729" cx="0.7" cy="0.7" r="0.7" transform="translate(4.574 15.639)" fill="#039"/>
          <circle id="Ellipse_730" data-name="Ellipse 730" cx="0.7" cy="0.7" r="0.7" transform="translate(9.624 15.639)" fill="#039"/>
          <circle id="Ellipse_731" data-name="Ellipse 731" cx="0.7" cy="0.7" r="0.7" transform="translate(19.723 15.639)" fill="#039"/>
          <circle id="Ellipse_732" data-name="Ellipse 732" cx="0.7" cy="0.7" r="0.7" transform="translate(24.773 15.639)" fill="#039"/>
          <circle id="Ellipse_733" data-name="Ellipse 733" cx="0.7" cy="0.7" r="0.7" transform="translate(29.822 15.639)" fill="#039"/>
          <circle id="Ellipse_734" data-name="Ellipse 734" cx="0.7" cy="0.7" r="0.7" transform="translate(4.574 20.716)" fill="#039"/>
          <circle id="Ellipse_735" data-name="Ellipse 735" cx="0.7" cy="0.7" r="0.7" transform="translate(9.624 20.716)" fill="#039"/>
          <circle id="Ellipse_736" data-name="Ellipse 736" cx="0.7" cy="0.7" r="0.7" transform="translate(14.673 20.716)" fill="#039"/>
          <circle id="Ellipse_737" data-name="Ellipse 737" cx="0.7" cy="0.7" r="0.7" transform="translate(19.723 20.716)" fill="#039"/>
          <circle id="Ellipse_738" data-name="Ellipse 738" cx="0.7" cy="0.7" r="0.7" transform="translate(24.773 20.716)" fill="#039"/>
          <g id="Group_12568" data-name="Group 12568" transform="translate(4.041 10.457)">
            <line id="Line_9" data-name="Line 9" x1="1.598" y2="1.611" transform="translate(0.869)" fill="none" stroke="#039" stroke-linecap="round" stroke-width="2"/>
            <line id="Line_10" data-name="Line 10" x2="0.869" y2="0.869" transform="translate(0 0.742)" fill="none" stroke="#039" stroke-linecap="round" stroke-width="2"/>
          </g>
          <g id="Group_12568-2" data-name="Group 12568" transform="translate(14.14 15.534)">
            <line id="Line_9-2" data-name="Line 9" x1="1.598" y2="1.611" transform="translate(0.869)" fill="none" stroke="#039" stroke-linecap="round" stroke-width="2"/>
            <line id="Line_10-2" data-name="Line 10" x2="0.869" y2="0.869" transform="translate(0 0.742)" fill="none" stroke="#039" stroke-linecap="round" stroke-width="2"/>
          </g>
          <g id="Group_12568-3" data-name="Group 12568" transform="translate(29.289 20.61)">
            <line id="Line_9-3" data-name="Line 9" x1="1.598" y2="1.611" transform="translate(0.869)" fill="none" stroke="#039" stroke-linecap="round" stroke-width="2"/>
            <line id="Line_10-3" data-name="Line 10" x2="0.869" y2="0.869" transform="translate(0 0.742)" fill="none" stroke="#039" stroke-linecap="round" stroke-width="2"/>
          </g>
        </g>
      </g>
      <g id="Group_12591" data-name="Group 12591" transform="translate(6.662)">
        <path id="Path_17057" data-name="Path 17057" d="M1116.609,340.395c-.993,0-1.8-1.812-1.8-4.047s.805-4.047,1.8-4.047c.768,0,1.424,1.083,1.682,2.608" transform="translate(-1093.491 -332.301)" fill="none" stroke="#039" stroke-width="1"/>
        <path id="Path_17058" data-name="Path 17058" d="M1094.374,340.395c-.993,0-1.8-1.812-1.8-4.047s.8-4.047,1.8-4.047c.769,0,1.424,1.083,1.682,2.608" transform="translate(-1081.916 -332.301)" fill="none" stroke="#039" stroke-width="1"/>
        <path id="Path_17059" data-name="Path 17059" d="M1072.14,340.395c-.993,0-1.8-1.812-1.8-4.047s.806-4.047,1.8-4.047c.768,0,1.424,1.083,1.682,2.608" transform="translate(-1070.341 -332.301)" fill="none" stroke="#039" stroke-width="1"/>
      </g>
    </g>
    <g id="Group_12594" data-name="Group 12594" transform="translate(7.911 16.914)">
      <g id="Group_12593" data-name="Group 12593" transform="translate(0 0)">
        <path id="Subtraction_8" data-name="Subtraction 8" d="M1038.4,390.179a11.3,11.3,0,1,1,11.3-11.3A11.3,11.3,0,0,1,1038.4,390.179Z" transform="translate(-1027.1 -367.581)" fill="#44c8f5"/>
      </g>
      <path id="Path_17060" data-name="Path 17060" d="M1043.008,383.271a.754.754,0,0,0-.565.228.8.8,0,0,0-.219.575.913.913,0,0,0,.094.392,1.245,1.245,0,0,0,.292.377l4.85,4.737a1.049,1.049,0,0,0,.393.264,1.221,1.221,0,0,0,.392.064.785.785,0,0,0,.6-.237.833.833,0,0,0,.218-.585.91.91,0,0,0-.292-.659l-4.124-3.955a5.749,5.749,0,0,0,1.232-.257,3.955,3.955,0,0,0,1.15-.583,3.32,3.32,0,0,0,1.341-2.409h1.2a.692.692,0,0,0,.538-.188.663.663,0,0,0-.452-1.109.638.638,0,0,0-.086,0h-1.294a2.435,2.435,0,0,0-.547-.967,2.312,2.312,0,0,0-.748-.547v-.071a4.981,4.981,0,0,0,.529.036c.291.013.653.019,1.077.019h.986a.691.691,0,0,0,.537-.188.664.664,0,0,0-.452-1.11.73.73,0,0,0-.086,0h-6.753a.7.7,0,0,0-.538.188.664.664,0,0,0,.452,1.109.638.638,0,0,0,.086,0h.822c1.538,0,2.477.516,2.791,1.533h-3.613a.7.7,0,0,0-.538.188.664.664,0,0,0,.452,1.109.638.638,0,0,0,.086,0h3.7a2,2,0,0,1-.4.967,2.543,2.543,0,0,1-.754.63,3.268,3.268,0,0,1-1,.346,6.3,6.3,0,0,1-1.126.1Z" transform="translate(-1034.916 -372.537)" fill="#fff"/>
    </g>
  </g>
</svg>
