<svg xmlns="http://www.w3.org/2000/svg" xmlns:xlink="http://www.w3.org/1999/xlink" width="76" height="76" viewBox="0 0 76 76">
  <defs>
    <filter id="Ellipse_310" x="0" y="0" width="76" height="76" filterUnits="userSpaceOnUse">
      <feOffset dy="3" input="SourceAlpha"/>
      <feGaussianBlur stdDeviation="5" result="blur"/>
      <feFlood flood-color="#0e4e95"/>
      <feComposite operator="in" in2="blur"/>
      <feComposite in="SourceGraphic"/>
    </filter>
  </defs>
  <g id="Group_13804" data-name="Group 13804" transform="translate(-28 -116)">
    <g transform="matrix(1, 0, 0, 1, 28, 116)" filter="url(#Ellipse_310)">
      <circle id="Ellipse_310-2" data-name="Ellipse 310" cx="23" cy="23" r="23" transform="translate(15 12)" fill="#fff"/>
    </g>
    <g id="Group_14076" data-name="Group 14076" transform="translate(5.375 -795.219)">
      <path id="Path_14950" data-name="Path 14950" d="M6620.388,1019.208v-4.87l.456-3.994,1.156-2.523,2.348-2.207,3.013-1.612h5.466l2.838.841,1.893,1.4,1.962,2.313s.806,2.418.806,2.523a16.161,16.161,0,0,0,0,2.908,19.95,19.95,0,0,1,.175,3.329v3.153l-.7,2-1.822.631-16.644-.631-.771-2.628Z" transform="translate(-6570.174 -65.325)" fill="#aceaff"/>
      <path id="Path_14943" data-name="Path 14943" d="M14.276,7.576a1.35,1.35,0,0,0,.174-.341,1.321,1.321,0,0,1,.521.208,1.992,1.992,0,0,0,1.064.341,2.064,2.064,0,0,0,.358-.033,1.9,1.9,0,0,0,1.232-.775,1.036,1.036,0,0,1,1.507-.266,1.9,1.9,0,0,0,1.423.307L20.4,6.125a1.035,1.035,0,0,1-.812-.2,1.926,1.926,0,0,0-2.654.468,1.037,1.037,0,0,1-.7.465.9.9,0,0,1-.4-.01,1.8,1.8,0,0,0,.724-.384,1.9,1.9,0,0,0,.679-1.287,1.034,1.034,0,0,1,.37-.75,1.02,1.02,0,0,1,.8-.234A1.862,1.862,0,0,0,19.8,3.748l-.583-.693a1.081,1.081,0,0,1-.8.233,1.927,1.927,0,0,0-2.065,1.732A1.035,1.035,0,0,1,15.18,6a2.012,2.012,0,0,0-.833.111,1.358,1.358,0,0,0-.526-.513l2.024-4.043A.453.453,0,0,0,15.438.9,1.168,1.168,0,0,1,14.59.551a2.087,2.087,0,0,0-2.828,0A1.2,1.2,0,0,1,10.913.9a1.2,1.2,0,0,1-.849-.353,2.09,2.09,0,0,0-2.83,0A1.172,1.172,0,0,1,6.385.9a.453.453,0,0,0-.405.655L8,5.6a1.343,1.343,0,0,0-.455,1.974A9.513,9.513,0,0,0,.5,16.747V24.9a2.266,2.266,0,0,0,2.263,2.263h16.3A2.266,2.266,0,0,0,21.322,24.9V16.747a9.514,9.514,0,0,0-7.046-9.171ZM7.8,1.258a1.2,1.2,0,0,1,1.7,0,2.089,2.089,0,0,0,2.829,0,1.194,1.194,0,0,1,1.7,0,2.4,2.4,0,0,0,.735.444L12.895,5.431H8.927L7.064,1.7A2.418,2.418,0,0,0,7.8,1.258Zm.848,5.984a.453.453,0,0,1,0-.905h4.527a.453.453,0,1,1,0,.905ZM20.417,24.9a1.358,1.358,0,0,1-1.358,1.358H2.763A1.358,1.358,0,0,1,1.405,24.9V16.747a8.61,8.61,0,0,1,8.6-8.6h1.811a8.61,8.61,0,0,1,8.6,8.6Zm0,0" transform="translate(49.714 930.641)" fill="#039"/>
      <path id="Path_14949" data-name="Path 14949" d="M4.3,1.416H3.806A1.543,1.543,0,0,0,3.517.658H4.3A.329.329,0,1,0,4.3,0H.339a.329.329,0,1,0,0,.657h1.5a1.09,1.09,0,0,1,1.1.758H.339a.339.339,0,0,0,0,.677h2.57A1.189,1.189,0,0,1,1.7,2.781H.631a.33.33,0,0,0,0,.661H1.636c.666.025.962.314,1.132,1.1.133.587.231.969.308,1.2a1.651,1.651,0,0,0,.37.721.4.4,0,0,0,.579-.545.033.033,0,0,0,0-.006,9.546,9.546,0,0,1-.448-1.6,1.532,1.532,0,0,0-.812-1.184,1.579,1.579,0,0,0,.991-1.041H4.3a.339.339,0,0,0,0-.677Z" transform="translate(58.25 946.122)" fill="#039"/>
    </g>
  </g>
</svg>
