<svg id="Group_13015" data-name="Group 13015" xmlns="http://www.w3.org/2000/svg" width="20" height="24" viewBox="0 0 20 24">
  <path id="Path_16312" data-name="Path 16312" d="M130.845,293.428a.394.394,0,0,0-.383-.277h-.545l-.165-.516a.4.4,0,0,0-.146-.2.4.4,0,0,0-.563.088.4.4,0,0,0-.058.114l-.166.516h-.545a.4.4,0,0,0-.237.727l.444.325-.169.522a.4.4,0,0,0,.622.448l.434-.319.435.319a.411.411,0,0,0,.237.079.4.4,0,0,0,.384-.278.407.407,0,0,0,0-.249l-.168-.522.444-.325a.4.4,0,0,0,.145-.45Z" transform="translate(-124.402 -284.765)" fill="#193b68"/>
  <path id="Path_16312-2" data-name="Path 16312" d="M134.2,293.428a.394.394,0,0,0-.382-.277h-.546l-.165-.516a.4.4,0,0,0-.146-.2.4.4,0,0,0-.563.088.4.4,0,0,0-.058.114l-.165.516h-.545a.4.4,0,0,0-.237.727l.443.325-.168.522a.4.4,0,0,0,.621.448l.435-.319.434.319a.413.413,0,0,0,.237.079.4.4,0,0,0,.384-.278.393.393,0,0,0,0-.249l-.168-.522.444-.325a.4.4,0,0,0,.145-.45Z" transform="translate(-124.402 -284.765)" fill="#193b68"/>
  <path id="Path_16312-3" data-name="Path 16312" d="M137.555,293.428a.393.393,0,0,0-.382-.277h-.545l-.166-.516a.4.4,0,0,0-.146-.2.4.4,0,0,0-.563.088.422.422,0,0,0-.058.114l-.165.516h-.545a.4.4,0,0,0-.237.727l.444.325-.169.522a.4.4,0,0,0,.622.448l.434-.319.434.319a.413.413,0,0,0,.237.079.4.4,0,0,0,.385-.527l-.169-.522.444-.325a.394.394,0,0,0,.145-.45Z" transform="translate(-124.402 -284.765)" fill="#193b68"/>
  <path id="Path_16312-4" data-name="Path 16312" d="M140.911,293.428a.394.394,0,0,0-.383-.277h-.545l-.165-.516a.4.4,0,0,0-.709-.114.372.372,0,0,0-.058.114l-.166.516h-.545a.4.4,0,0,0-.237.727l.444.325-.169.522a.4.4,0,0,0,.622.448l.434-.319.435.319a.411.411,0,0,0,.237.079.4.4,0,0,0,.384-.278.407.407,0,0,0,0-.249l-.169-.522.445-.325a.4.4,0,0,0,.145-.45Z" transform="translate(-124.402 -284.765)" fill="#193b68"/>
  <path id="Path_16313" data-name="Path 16313" d="M139.4,284.765h-10a5.013,5.013,0,0,0-5,5v14a5.011,5.011,0,0,0,5,5h10a5.011,5.011,0,0,0,5-5v-14A5.013,5.013,0,0,0,139.4,284.765Zm-10,2h10a3,3,0,0,1,3,3h0v12h-16v-12a3,3,0,0,1,3-3Zm10,20h-10a3,3,0,0,1-3-3h7v1a1,1,0,1,0,2,0v-1h7a3,3,0,0,1-3,3Z" transform="translate(-124.402 -284.765)" fill="#44c8f5"/>
</svg>
