<svg id="Group_13017" data-name="Group 13017" xmlns="http://www.w3.org/2000/svg" width="23.99" height="24" viewBox="0 0 23.99 24">
  <path id="Path_18246" data-name="Path 18246" d="M69.573,222.612a13.609,13.609,0,0,1,1.451.345,5.49,5.49,0,0,1,3.7,5.223c.006,1.07,0,2.139,0,3.243.209,0,.408,0,.608,0a4.794,4.794,0,0,1,1.821.237,3.751,3.751,0,0,1,2.438,3.384c.019.663.012,1.328,0,1.992a.935.935,0,1,1-1.869-.012c-.008-.578,0-1.156,0-1.734a1.885,1.885,0,0,0-1.98-1.991q-6.642,0-13.283,0a1.883,1.883,0,0,0-1.981,1.991q0,3.725,0,7.45a1.886,1.886,0,0,0,2,1.994q3.585,0,7.168,0a.954.954,0,0,1,.964.568.931.931,0,0,1-.76,1.3,1.668,1.668,0,0,1-.187.006c-2.429,0-4.857.007-7.286,0a3.73,3.73,0,0,1-3.57-2.539c-.089-.255-.138-.524-.205-.786v-8.531a.668.668,0,0,0,.044-.128,3.661,3.661,0,0,1,2.763-3.058,11.288,11.288,0,0,1,1.742-.141c.1-.007.21,0,.324,0,0-1.107,0-2.176,0-3.246a5.483,5.483,0,0,1,3.681-5.213,13.673,13.673,0,0,1,1.473-.352Zm3.267,8.8c0-1.211.011-2.4-.008-3.582a2.75,2.75,0,0,0-.174-.844,3.755,3.755,0,0,0-4.221-2.445,3.675,3.675,0,0,0-3.082,3.666q0,1.488,0,2.974c0,.075.007.151.011.231Z" transform="translate(-58.607 -222.612)" fill="#44c8f5"/>
  <path id="Path_18247" data-name="Path 18247" d="M76.106,246.609a2.6,2.6,0,0,1-1.924-.7c-.978-.944-1.948-1.9-2.92-2.845a.924.924,0,0,1-.279-1,.9.9,0,0,1,.718-.633.972.972,0,0,1,.906.325q1.354,1.329,2.714,2.652c.045.044.089.088.135.131a.542.542,0,0,0,.895-.086q.924-1.283,1.841-2.57,1.321-1.847,2.644-3.694a.955.955,0,0,1,1.155-.421.935.935,0,0,1,.506,1.295,2.01,2.01,0,0,1-.151.236q-2.249,3.143-4.5,6.284A2.366,2.366,0,0,1,76.106,246.609Z" transform="translate(-58.607 -222.612)" fill="#039"/>
  <path id="Path_18248" data-name="Path 18248" d="M63.845,237.893a.936.936,0,1,1-.925.952A.942.942,0,0,1,63.845,237.893Z" transform="translate(-58.607 -222.612)" fill="#44c8f5"/>
  <path id="Path_18249" data-name="Path 18249" d="M68.306,238.83a.936.936,0,1,1-.941-.937A.941.941,0,0,1,68.306,238.83Z" transform="translate(-58.607 -222.612)" fill="#44c8f5"/>
  <path id="Path_18250" data-name="Path 18250" d="M70.887,239.765a.936.936,0,1,1,.933-.944A.941.941,0,0,1,70.887,239.765Z" transform="translate(-58.607 -222.612)" fill="#44c8f5"/>
  <path id="Path_18251" data-name="Path 18251" d="M75.382,238.838a.936.936,0,1,1-.932-.945A.942.942,0,0,1,75.382,238.838Z" transform="translate(-58.607 -222.612)" fill="#44c8f5"/>
</svg>
