<svg id="Group_17287" data-name="Group 17287" xmlns="http://www.w3.org/2000/svg" width="20.291" height="22" viewBox="0 0 20.291 22">
  <g id="Group_17305" data-name="Group 17305">
    <path id="Path_15952" data-name="Path 15952" d="M19.374,22.446H8.306A2.308,2.308,0,0,1,6,20.141V6.306A2.308,2.308,0,0,1,8.306,4H19.374a2.308,2.308,0,0,1,2.306,2.306V20.141A2.308,2.308,0,0,1,19.374,22.446ZM8.306,4.922A1.385,1.385,0,0,0,6.922,6.306V20.141a1.385,1.385,0,0,0,1.383,1.383H19.374a1.385,1.385,0,0,0,1.383-1.383V6.306a1.385,1.385,0,0,0-1.383-1.383Z" transform="translate(-1.389 -0.446)" fill="#44c8f5"/>
    <path id="Path_15953" data-name="Path 15953" d="M4.228,19.233H3.306A2.3,2.3,0,0,1,1,16.943V2.29A2.3,2.3,0,0,1,3.306,0H14.374a2.3,2.3,0,0,1,2.306,2.29.461.461,0,0,1-.922,0A1.38,1.38,0,0,0,14.374.916H3.306A1.38,1.38,0,0,0,1.922,2.29V16.943a1.38,1.38,0,0,0,1.383,1.374h.922a.458.458,0,1,1,0,.916Z" transform="translate(-1)" fill="#44c8f5"/>
    <g id="Group_17304" data-name="Group 17304" transform="translate(8.3 7.98)">
      <path id="Path_15954" data-name="Path 15954" d="M17.84,16.922H10.461a.461.461,0,1,1,0-.922H17.84a.461.461,0,1,1,0,.922Z" transform="translate(-10 -10.155)" fill="#039"/>
      <path id="Path_15955" data-name="Path 15955" d="M17.84,20.922H10.461a.461.461,0,1,1,0-.922H17.84a.461.461,0,1,1,0,.922Z" transform="translate(-10 -11.233)" fill="#039"/>
      <path id="Path_15956" data-name="Path 15956" d="M17.84,12.922H10.461a.461.461,0,1,1,0-.922H17.84a.461.461,0,1,1,0,.922Z" transform="translate(-10 -9.078)" fill="#039"/>
      <path id="Path_15957" data-name="Path 15957" d="M17.84,8.922H10.461a.461.461,0,1,1,0-.922H17.84a.461.461,0,1,1,0,.922Z" transform="translate(-10 -8)" fill="#039"/>
    </g>
  </g>
</svg>
