<svg id="Group_11833" data-name="Group 11833" xmlns="http://www.w3.org/2000/svg" width="24.469" height="16.312" viewBox="0 0 24.469 16.312">
  <g id="Group_11832" data-name="Group 11832">
    <path id="Path_15981" data-name="Path 15981" d="M21.92,85.333H2.549A2.552,2.552,0,0,0,0,87.882V99.1a2.552,2.552,0,0,0,2.549,2.549H21.92A2.552,2.552,0,0,0,24.469,99.1V87.882A2.552,2.552,0,0,0,21.92,85.333ZM23.449,99.1a1.531,1.531,0,0,1-1.529,1.529H2.549A1.531,1.531,0,0,1,1.02,99.1V87.882a1.531,1.531,0,0,1,1.529-1.529H21.92a1.531,1.531,0,0,1,1.529,1.529V99.1Z" transform="translate(0 -85.333)" fill="#44c8f5"/>
  </g>
</svg>
