<svg xmlns="http://www.w3.org/2000/svg" xmlns:xlink="http://www.w3.org/1999/xlink" width="76" height="76" viewBox="0 0 76 76">
  <defs>
    <filter id="Ellipse_321" x="0" y="0" width="76" height="76" filterUnits="userSpaceOnUse">
      <feOffset dy="3" input="SourceAlpha"/>
      <feGaussianBlur stdDeviation="5" result="blur"/>
      <feFlood flood-color="#0e4e95"/>
      <feComposite operator="in" in2="blur"/>
      <feComposite in="SourceGraphic"/>
    </filter>
  </defs>
  <g id="Group_13803" data-name="Group 13803" transform="translate(-143 -116)">
    <g transform="matrix(1, 0, 0, 1, 143, 116)" filter="url(#Ellipse_321)">
      <circle id="Ellipse_321-2" data-name="Ellipse 321" cx="23" cy="23" r="23" transform="translate(15 12)" fill="#fff"/>
    </g>
    <g id="Group_11498" data-name="Group 11498" transform="translate(-19.707 -602.189)">
      <path id="Path_14956" data-name="Path 14956" d="M6786.161,812.054l.869-.409h11.861s-.051,3.272,0,3.63-.665,5.112-.665,5.112l-2.557,3.323-1.789,1.38v3.323l.92.971.869.613s-.1.665-.256.665h-5.93l.409-1.278.971-.562h0l.41-3.732-2.71-2.607-1.892-2.71-.511-5.982Z" transform="translate(-6592.804 -67.875)" fill="#aceaff"/>
      <path id="Path_14957" data-name="Path 14957" d="M6794.176,816.081l1.071,1.675,1.885.256-1.513,1.908.209,2.071-1.652-1.07-2.117.931.232-2.187-1.512-1.4,2.28-.512Z" transform="translate(-6594.099 -69.234)" fill="#fff"/>
      <g id="trophy" transform="translate(190.033 743.322)">
        <g id="Group_10699" data-name="Group 10699" transform="translate(0)">
          <g id="Group_10698" data-name="Group 10698">
            <path id="Path_14952" data-name="Path 14952" d="M63.967,2.119H62.585V1.382A1.384,1.384,0,0,0,61.2,0H50.146a1.384,1.384,0,0,0-1.382,1.382v.737H47.382A1.384,1.384,0,0,0,46,3.5c0,3,1.4,5.2,3.678,5.813a10.156,10.156,0,0,0,3.578,4.231,1.332,1.332,0,0,1,.576,1.112V17.2a1.845,1.845,0,0,0-1.382,1.785h-.461a1.384,1.384,0,0,0-1.382,1.382v2.764a.461.461,0,0,0,.461.461h9.214a.461.461,0,0,0,.461-.461V20.363a1.384,1.384,0,0,0-1.382-1.382H58.9A1.846,1.846,0,0,0,57.517,17.2V14.66a1.334,1.334,0,0,1,.576-1.115,10.156,10.156,0,0,0,3.579-4.231C63.947,8.7,65.349,6.5,65.349,3.5A1.384,1.384,0,0,0,63.967,2.119ZM46.921,3.5a.461.461,0,0,1,.461-.461h1.382V5.1a10.119,10.119,0,0,0,.473,3.069C47.771,7.443,46.921,5.765,46.921,3.5ZM59.36,19.9a.461.461,0,0,1,.461.461v2.3H51.528v-2.3a.461.461,0,0,1,.461-.461Zm2.3-14.8a9.263,9.263,0,0,1-4.085,7.681A2.254,2.254,0,0,0,56.6,14.66V17.6a.461.461,0,0,0,.461.461.922.922,0,0,1,.921.921H53.371a.922.922,0,0,1,.885-.921h.036a.462.462,0,0,0,.461-.463V14.658a2.252,2.252,0,0,0-.982-1.877A9.265,9.265,0,0,1,49.686,5.1V1.382a.461.461,0,0,1,.461-.461H61.2a.461.461,0,0,1,.461.461Zm.448,3.069A10.125,10.125,0,0,0,62.585,5.1V3.041h1.382a.461.461,0,0,1,.461.461C64.428,5.765,63.578,7.442,62.112,8.169Z" transform="translate(-46)" fill="#039"/>
          </g>
        </g>
        <g id="Group_10701" data-name="Group 10701" transform="translate(5.973 2.783)">
          <g id="Group_10700" data-name="Group 10700">
            <path id="Path_14953" data-name="Path 14953" d="M183,63.061a.46.46,0,0,0-.372-.314l-1.988-.289-.889-1.8a.461.461,0,0,0-.826,0l-.889,1.8-1.988.289a.461.461,0,0,0-.255.786l1.439,1.4-.34,1.98a.461.461,0,0,0,.668.486l1.778-.935,1.779.935a.461.461,0,0,0,.668-.486l-.34-1.98,1.439-1.4A.461.461,0,0,0,183,63.061Zm-2.372,1.384a.461.461,0,0,0-.133.408l.223,1.3-1.167-.613a.461.461,0,0,0-.429,0l-1.166.613.223-1.3a.461.461,0,0,0-.133-.408l-.944-.92,1.3-.189a.461.461,0,0,0,.347-.252l.583-1.182.583,1.182a.461.461,0,0,0,.347.252l1.3.189Z" transform="translate(-175.649 -60.4)" fill="#039"/>
          </g>
        </g>
        <g id="Group_10705" data-name="Group 10705" transform="translate(16.77 22.185)">
          <g id="Group_10704" data-name="Group 10704">
            <path id="Path_14955" data-name="Path 14955" d="M410.01,481.577h.257C410.136,481.551,410.048,481.548,410.01,481.577Z" transform="translate(-410.01 -481.557)" fill="#039"/>
          </g>
        </g>
      </g>
    </g>
  </g>
</svg>
