<svg xmlns="http://www.w3.org/2000/svg" width="16.68" height="16.686" viewBox="0 0 16.68 16.686">
  <g id="Group_14370" data-name="Group 14370" transform="translate(-36 -2691)">
    <g id="Group_14231" data-name="Group 14231" transform="translate(36 2691)">
      <g id="Group_14228" data-name="Group 14228" transform="translate(8.136 6.097)">
        <path id="Path_18735" data-name="Path 18735" d="M387.982,248.272a.4.4,0,0,1,.429.359.326.326,0,1,0,.652,0,1.022,1.022,0,0,0-.755-.964v-.046a.326.326,0,1,0-.652,0h0v.046a1.022,1.022,0,0,0-.755.964,1.049,1.049,0,0,0,1.081,1.011.365.365,0,1,1-.429.359.326.326,0,1,0-.652,0h0a1.023,1.023,0,0,0,.755.964v.046a.326.326,0,1,0,.652,0v-.046a1.023,1.023,0,0,0,.755-.964,1.048,1.048,0,0,0-1.081-1.011.365.365,0,0,1-.129-.718.342.342,0,0,1,.129,0Z" transform="translate(-386.901 -247.296)" fill="#039"/>
      </g>
      <g id="Group_14229" data-name="Group 14229" transform="translate(0 0)">
        <path id="Path_18736" data-name="Path 18736" d="M393.544,250.7a1.244,1.244,0,0,0-1.784-.753,5.741,5.741,0,0,0-.235-2.77.326.326,0,1,0-.617.212,5.088,5.088,0,0,1,.011,3.258l-2.6,2.306a2.624,2.624,0,0,1-.523.361,1.25,1.25,0,0,0-.674-1.429l-2.3-1.1a4.177,4.177,0,0,0-3.229-.153l-.234.086a5.033,5.033,0,0,1,1.193-5.255l2.3-2.3H387.4l1.948,1.955a.326.326,0,1,0,.461-.461l-1.862-1.865.673-1.937a.586.586,0,0,0-.968-.607h0a.347.347,0,0,1-.489,0h0a1.467,1.467,0,0,0-2.074,0h0a.347.347,0,0,1-.489,0h0a.586.586,0,0,0-.968.608l.676,1.932L382.1,245a5.707,5.707,0,0,0-1.344,5.941l-.514.188a.933.933,0,0,0-.74-.366h-1.65a.935.935,0,0,0-.934.934v3.866a.936.936,0,0,0,.934.934h8.586a5.131,5.131,0,0,0,3.591-1.458l3.19-3.1A1.244,1.244,0,0,0,393.544,250.7Zm-8.7-9.7a.991.991,0,0,0,.705-.292.814.814,0,0,1,1.152,0h0a1,1,0,0,0,1.232.142l-.577,1.656H384.9l-.577-1.654a1,1,0,0,0,.523.147Zm-7.28,14.565V251.7a.282.282,0,0,1,.283-.283h1.65a.282.282,0,0,1,.283.283v3.866a.283.283,0,0,1-.283.283h-1.65a.283.283,0,0,1-.283-.283Zm15.2-4.092-3.19,3.1a4.485,4.485,0,0,1-3.137,1.273h-6.047a.931.931,0,0,0,.044-.283v-3.811l1.39-.511a3.52,3.52,0,0,1,2.723.13l2.3,1.1a.6.6,0,0,1,.282.8c-.009.019-.02.037-.03.055a.6.6,0,0,1-.692.258l-3.057-.972a.326.326,0,0,0-.2.621l3.055.972a1.279,1.279,0,0,0,.38.059h.046a3.266,3.266,0,0,0,2.123-.824l3.2-2.839a.594.594,0,0,1,.809.871Z" transform="translate(-376.913 -239.811)" fill="#44c8f5"/>
      </g>
      <g id="Group_14230" data-name="Group 14230" transform="translate(13.317 5.836)">
        <path id="Path_18737" data-name="Path 18737" d="M393.587,247.628a.325.325,0,1,0-.231-.1A.327.327,0,0,0,393.587,247.628Z" transform="translate(-393.261 -246.976)" fill="#44c8f5"/>
      </g>
    </g>
    <g id="Path_1029" data-name="Path 1029" transform="translate(47.911 2695.39)">
      <path id="Path_18738" data-name="Path 18738" d="M394.02,248.9a.285.285,0,0,1-.272-.2,6.239,6.239,0,0,0-2.1-3.046A.285.285,0,1,1,392,245.2a6.813,6.813,0,0,1,2.295,3.323.285.285,0,0,1-.187.358A.278.278,0,0,1,394.02,248.9Z" transform="translate(-391.536 -245.141)" fill="#44c8f5"/>
    </g>
  </g>
</svg>
