<svg xmlns="http://www.w3.org/2000/svg" xmlns:xlink="http://www.w3.org/1999/xlink" width="76" height="76" viewBox="0 0 76 76">
  <defs>
    <filter id="Ellipse_322" x="0" y="0" width="76" height="76" filterUnits="userSpaceOnUse">
      <feOffset dy="3" input="SourceAlpha"/>
      <feGaussianBlur stdDeviation="5" result="blur"/>
      <feFlood flood-color="#0e4e95"/>
      <feComposite operator="in" in2="blur"/>
      <feComposite in="SourceGraphic"/>
    </filter>
  </defs>
  <g id="Group_13801" data-name="Group 13801" transform="translate(-247 -116)">
    <g transform="matrix(1, 0, 0, 1, 247, 116)" filter="url(#Ellipse_322)">
      <circle id="Ellipse_322-2" data-name="Ellipse 322" cx="23" cy="23" r="23" transform="translate(15 12)" fill="#fff"/>
    </g>
    <g id="Group_14078" data-name="Group 14078" transform="translate(272.203 138.202)">
      <path id="Path_14980" data-name="Path 14980" d="M6756.943,1011.741l2.123-5.568a24.444,24.444,0,0,1,2.376-1.466c.2,0,5.055.859,5.055,1.112s1.82,3.185,1.871,3.488.91,3.336.91,3.336-1.668.96-1.82,1.011-1.212.657-1.415.708a9.283,9.283,0,0,1-1.719-.708l-2.881-.354-1.314-.657-2.325-.354Z" transform="translate(-6748.077 -998.943)" fill="#aceaff"/>
      <g id="profit" transform="translate(0 0)">
        <path id="Path_14977" data-name="Path 14977" d="M.646,19.45l6,6a.5.5,0,0,0,.707,0l3.3-3.3a.5.5,0,0,0,0-.707L10.5,21.3H17.71a2.494,2.494,0,0,0,1.7-.67l6.065-5.684a1.93,1.93,0,0,0-2.336-3.051l-1.346.883a8.406,8.406,0,0,0-3.9-6.9,1.5,1.5,0,0,0-.663-2.412l-.074-.023,1.287-2.312a.5.5,0,0,0-.3-.723,10.25,10.25,0,0,0-5.7,0,.5.5,0,0,0-.3.723l1.287,2.312-.075.023a1.5,1.5,0,0,0-.66,2.412A8.406,8.406,0,0,0,8.8,12.8c0,.073,0,.145,0,.217a6.143,6.143,0,0,0-2.428,1.3L4.855,15.646l-.2-.2a.5.5,0,0,0-.707,0l-3.3,3.3a.5.5,0,0,0,0,.707ZM13.338,1.209a9.271,9.271,0,0,1,3.916,0l-1.114,2a6.1,6.1,0,0,0-1.688,0Zm.334,3.2a5.173,5.173,0,0,1,3.246,0,.5.5,0,0,1-.125.974,4.89,4.89,0,0,0-2.995,0h0a.5.5,0,0,1-.126-.973Zm.277,1.977a3.9,3.9,0,0,1,2.634-.021c2.323.8,4.212,3.683,4.212,6.429a4.811,4.811,0,0,1-.044.662l-2.4,1.576A1.988,1.988,0,0,0,16.8,14.3h-1a2.669,2.669,0,0,0-.553,0c-.44.009-.014-.005-.447,0H14.63c-.246,0-.356-.16-.529-.272a6.133,6.133,0,0,0-4.3-1.2c0-.011,0-.021,0-.032A7.145,7.145,0,0,1,13.949,6.39Zm-6.917,8.68a5.14,5.14,0,0,1,6.468-.244,1.773,1.773,0,0,0,1.129.472H16.8a1,1,0,0,1,0,2H13.3a.5.5,0,1,0,0,1h3.5a2,2,0,0,0,1.97-2.339l4.909-3.221a.93.93,0,0,1,1.12,1.475L18.731,19.9a1.5,1.5,0,0,1-1.021.4H9.5L5.563,16.355ZM4.3,16.5,9.59,21.8,7,24.388,1.706,19.1Zm0,0" transform="translate(-0.499 0)" fill="#039"/>
      </g>
      <g id="Path_14979" data-name="Path 14979" transform="translate(12.797 8.149)" fill="#039">
        <path d="M 2.964499711990356 5.288779735565186 C 2.868959903717041 5.288779735565186 2.778409719467163 5.252299785614014 2.70950984954834 5.186049938201904 C 2.546719789505005 5.029249668121338 2.452189922332764 4.774580001831055 2.401559829711914 4.588539600372314 C 2.341269731521606 4.409409999847412 2.26298975944519 4.104699611663818 2.156049728393555 3.632399797439575 C 2.025109767913818 3.023269653320312 1.809499859809875 2.811359882354736 1.30148983001709 2.792049884796143 L 0.8152698278427124 2.792089700698853 L 0.8081198334693909 2.792089700698853 L 0.8052579760551453 2.791319847106934 L 0.5024998188018799 2.791319847106934 C 0.3298798203468323 2.791319847106934 0.1894398182630539 2.650869846343994 0.1894398182630539 2.478229761123657 C 0.1894298195838928 2.394609689712524 0.2219998240470886 2.315999746322632 0.2811298072338104 2.25685977935791 C 0.3402598202228546 2.197729825973511 0.4188798069953918 2.165169715881348 0.5024998188018799 2.165169715881348 L 0.8152798414230347 2.165169715881348 L 1.353249788284302 2.165169715881348 C 1.780495285987854 2.165169715881348 2.099125385284424 2.003106832504272 2.240453481674194 1.71757972240448 L 0.2697098255157471 1.71757972240448 C 0.09341982007026672 1.71757972240448 -0.05000017955899239 1.574109792709351 -0.05000017955899239 1.397769808769226 C -0.05000017955899239 1.221429824829102 0.09341982007026672 1.077959775924683 0.2697098255157471 1.077959775924683 L 2.277033805847168 1.077959775924683 C 2.151211023330688 0.7030383944511414 1.768953442573547 0.5961382985115051 1.462149858474731 0.5737997889518738 L 0.2697098255157471 0.5739297866821289 C 0.09042982012033463 0.5739297866821289 -0.05000017955899239 0.4376497864723206 -0.05000017955899239 0.2636697590351105 C -0.05000017955899239 0.08792977035045624 0.09042982012033463 -0.04973022639751434 0.2697098255157471 -0.04973022639751434 L 1.275459766387939 -0.04973022639751434 L 1.28184986114502 -0.0498502291738987 L 1.290869832038879 -0.05000022798776627 L 1.303449869155884 -0.04986022785305977 L 1.313959836959839 -0.04973022639751434 L 3.423669815063477 -0.04973022639751434 C 3.602949857711792 -0.04973022639751434 3.743379831314087 0.08792977035045624 3.743379831314087 0.2636697590351105 C 3.743379831314087 0.4376497864723206 3.602949857711792 0.5739398002624512 3.423669815063477 0.5739398002624512 L 2.896885633468628 0.5739312767982483 C 2.987745761871338 0.7186406254768372 3.048888921737671 0.8904751539230347 3.075926780700684 1.077959775924683 L 3.423689842224121 1.077959775924683 C 3.599959850311279 1.077959775924683 3.743369817733765 1.221389770507812 3.743369817733765 1.39769971370697 C 3.743369817733765 1.574039816856384 3.599949836730957 1.717509746551514 3.423659801483154 1.717509746551514 L 3.027671813964844 1.717509746551514 C 2.917019605636597 2.063929796218872 2.668765544891357 2.33790135383606 2.320210695266724 2.500294923782349 C 2.601953268051147 2.662131547927856 2.790965795516968 2.967117547988892 2.896429777145386 3.428519725799561 C 3.038259744644165 4.035039901733398 3.154259920120239 4.513039588928223 3.248249769210815 4.6874098777771 L 3.250981092453003 4.692470550537109 C 3.366334676742554 4.836799144744873 3.357993125915527 5.042585849761963 3.229669809341431 5.175959587097168 C 3.1596999168396 5.248709678649902 3.0655198097229 5.288779735565186 2.964499711990356 5.288779735565186 Z" stroke="none"/>
        <path d="M 1.29086971282959 0 C 1.285739898681641 0 1.280589818954468 0.0002698898315429688 1.275459766387939 0.0002698898315429688 L 0.2697098255157471 0.0002698898315429688 C 0.120689868927002 0.0002698898315429688 -2.384185791015625e-07 0.1146998405456543 -2.384185791015625e-07 0.2636699676513672 C -2.384185791015625e-07 0.4126396179199219 0.1206998825073242 0.5239295959472656 0.2697098255157471 0.5239295959472656 L 1.465779781341553 0.5239295959472656 C 1.843519806861877 0.5514297485351562 2.239179849624634 0.6975598335266113 2.3433997631073 1.127959728240967 L 0.2697098255157471 1.127959728240967 C 0.1206998825073242 1.127959728240967 -2.384185791015625e-07 1.248729705810547 -2.384185791015625e-07 1.397769689559937 C -2.384185791015625e-07 1.546749830245972 0.1206998825073242 1.667579889297485 0.2697098255157471 1.667579889297485 L 2.316519737243652 1.667579889297485 C 2.18917989730835 2.007719755172729 1.839399814605713 2.215169668197632 1.353249788284302 2.215169668197632 L 0.5024998188018799 2.215169668197632 C 0.357219934463501 2.215169668197632 0.2394297122955322 2.332949876785278 0.2394397258758545 2.478229761123657 C 0.2394397258758545 2.623539686203003 0.357219934463501 2.74131965637207 0.5024998188018799 2.74131965637207 L 0.8115699291229248 2.74131965637207 C 0.812849760055542 2.741459846496582 0.8139998912811279 2.742089748382568 0.8152697086334229 2.742089748382568 L 1.30338978767395 2.742089748382568 C 1.833699822425842 2.762239694595337 2.069569826126099 2.992199659347534 2.204819679260254 3.621359825134277 C 2.310629844665527 4.088699817657471 2.388529777526855 4.393089771270752 2.449799776077271 4.575409889221191 C 2.495709896087646 4.744089603424072 2.586569786071777 4.998219966888428 2.74416971206665 5.150009632110596 C 2.870694875717163 5.271669864654541 3.071980237960815 5.267785549163818 3.193639755249023 5.141289710998535 C 3.307979822158813 5.022449970245361 3.310049772262573 4.838549613952637 3.205269813537598 4.715629577636719 C 3.204789876937866 4.714179992675781 3.204999923706055 4.712589740753174 3.204239845275879 4.711129665374756 C 3.107499837875366 4.531659603118896 2.990469932556152 4.050259590148926 2.847689867019653 3.439659595489502 C 2.73419976234436 2.943169832229614 2.522159814834595 2.633919715881348 2.200869798660278 2.496609687805176 C 2.604299783706665 2.341739654541016 2.881829738616943 2.045509815216064 2.990599870681763 1.667509794235229 L 3.423659801483154 1.667509794235229 C 3.572689771652222 1.667509794235229 3.69336986541748 1.546679735183716 3.69336986541748 1.39769983291626 C 3.69336986541748 1.248719692230225 3.572719812393188 1.127959728240967 3.423689842224121 1.127959728240967 L 3.031969785690308 1.127959728240967 C 3.006059885025024 0.90093994140625 2.926989793777466 0.6884298324584961 2.801499843597412 0.5239295959472656 L 3.423669815063477 0.5239396095275879 C 3.572699785232544 0.5239396095275879 3.693379878997803 0.4126496315002441 3.693379878997803 0.2636699676513672 C 3.693379878997803 0.1146197319030762 3.572689771652222 0.0002698898315429688 3.423669815063477 0.0002698898315429688 L 1.313959836959839 0.0002698898315429688 C 1.306229829788208 0.0002698898315429688 1.298799753189087 0 1.29086971282959 0 M 1.29086971282959 -0.1000003814697266 L 1.313959836959839 -0.09973001480102539 L 3.423669815063477 -0.09973001480102539 C 3.630979776382446 -0.09973001480102539 3.793379783630371 0.05988979339599609 3.793379783630371 0.2636699676513672 C 3.793379783630371 0.4656896591186523 3.630979776382446 0.6239399909973145 3.423669815063477 0.6239399909973145 L 2.98338794708252 0.6239328384399414 C 3.047529220581055 0.7453527450561523 3.093277454376221 0.8817853927612305 3.118612766265869 1.027959823608398 L 3.423689842224121 1.027959823608398 C 3.627529859542847 1.027959823608398 3.793369770050049 1.193819999694824 3.793369770050049 1.39769983291626 C 3.793369770050049 1.601609706878662 3.627519845962524 1.767509698867798 3.423659801483154 1.767509698867798 L 3.063666820526123 1.767509698867798 C 2.952890157699585 2.084279537200928 2.729682683944702 2.339900255203247 2.421460866928101 2.505502939224243 C 2.673880577087402 2.6832115650177 2.846047639846802 2.983717203140259 2.94517993927002 3.417379856109619 C 3.081239700317383 3.999249935150146 3.201359748840332 4.495029926300049 3.292269706726074 4.663679599761963 L 3.292951822280884 4.664944648742676 C 3.420953035354614 4.828677177429199 3.410470962524414 5.060154914855957 3.265699863433838 5.210619926452637 C 3.186219692230225 5.293259620666504 3.079249858856201 5.338779926300049 2.964499950408936 5.338779926300049 C 2.855979919433594 5.338779926300049 2.753109931945801 5.297339916229248 2.674859762191772 5.222089767456055 C 2.504665374755859 5.058174133300781 2.406572818756104 4.796382427215576 2.35408878326416 4.604523181915283 C 2.292535781860352 4.420652389526367 2.214069366455078 4.115096092224121 2.107289791107178 3.643439769744873 C 1.980769872665405 3.054919719696045 1.784559845924377 2.86044979095459 1.299589872360229 2.84201979637146 L 0.8009698390960693 2.842089891433716 L 0.7982082366943359 2.841319799423218 L 0.5024998188018799 2.841319799423218 C 0.3023097515106201 2.841319799423218 0.1394398212432861 2.678439855575562 0.1394398212432861 2.478229761123657 C 0.1394298076629639 2.381259679794312 0.1771998405456543 2.290089845657349 0.2457797527313232 2.221509695053101 C 0.314349889755249 2.152939796447754 0.4055197238922119 2.115169763565063 0.5024998188018799 2.115169763565063 L 1.353249788284302 2.115169763565063 C 1.722099304199219 2.115169763565063 2.005163669586182 1.990325927734375 2.15385913848877 1.767579793930054 L 0.2697098255157471 1.767579793930054 C 0.06584978103637695 1.767579793930054 -0.1000001430511475 1.601679801940918 -0.1000001430511475 1.397769689559937 C -0.1000001430511475 1.193859577178955 0.06584978103637695 1.027959823608398 0.2697098255157471 1.027959823608398 L 2.203147172927856 1.027959823608398 C 2.064848184585571 0.7332806587219238 1.733187198638916 0.6442193984985352 1.462041854858398 0.6239299774169922 L 0.2697098255157471 0.6239299774169922 C 0.06239986419677734 0.6239299774169922 -0.1000001430511475 0.4656796455383301 -0.1000001430511475 0.2636699676513672 C -0.1000001430511475 0.05988979339599609 0.06239986419677734 -0.09973001480102539 0.2697098255157471 -0.09973001480102539 L 1.29086971282959 -0.1000003814697266 Z" stroke="none" fill="#039"/>
      </g>
    </g>
  </g>
</svg>
