<svg xmlns="http://www.w3.org/2000/svg" width="20.291" height="22.136" viewBox="0 0 20.291 22.136">
  <g id="Group_14310" data-name="Group 14310" transform="translate(-16 -310)">
    <path id="Path_15952" data-name="Path 15952" d="M19.374,22.446H8.306A2.308,2.308,0,0,1,6,20.141V6.306A2.308,2.308,0,0,1,8.306,4H19.374a2.308,2.308,0,0,1,2.306,2.306V20.141A2.308,2.308,0,0,1,19.374,22.446ZM8.306,4.922A1.385,1.385,0,0,0,6.922,6.306V20.141a1.385,1.385,0,0,0,1.383,1.383H19.374a1.385,1.385,0,0,0,1.383-1.383V6.306a1.385,1.385,0,0,0-1.383-1.383Z" transform="translate(14.611 309.689)" fill="#44c8f5"/>
    <path id="Path_15953" data-name="Path 15953" d="M4.228,19.369H3.306A2.308,2.308,0,0,1,1,17.063V2.306A2.308,2.308,0,0,1,3.306,0H14.374a2.308,2.308,0,0,1,2.306,2.306.461.461,0,1,1-.922,0A1.385,1.385,0,0,0,14.374.922H3.306A1.385,1.385,0,0,0,1.922,2.306V17.063a1.385,1.385,0,0,0,1.383,1.383h.922a.461.461,0,0,1,0,.922Z" transform="translate(15 310)" fill="#44c8f5"/>
    <path id="Path_15954" data-name="Path 15954" d="M17.84,16.922H10.461a.461.461,0,1,1,0-.922H17.84a.461.461,0,1,1,0,.922Z" transform="translate(14.301 308.757)" fill="#039"/>
    <path id="Path_15955" data-name="Path 15955" d="M17.84,20.922H10.461a.461.461,0,1,1,0-.922H17.84a.461.461,0,1,1,0,.922Z" transform="translate(14.301 308.446)" fill="#039"/>
    <path id="Path_15956" data-name="Path 15956" d="M17.84,12.922H10.461a.461.461,0,1,1,0-.922H17.84a.461.461,0,1,1,0,.922Z" transform="translate(14.301 309.068)" fill="#039"/>
    <path id="Path_15957" data-name="Path 15957" d="M17.84,8.922H10.461a.461.461,0,1,1,0-.922H17.84a.461.461,0,1,1,0,.922Z" transform="translate(14.301 309.379)" fill="#039"/>
  </g>
</svg>
