<svg xmlns="http://www.w3.org/2000/svg" width="24.843" height="28.022" viewBox="0 0 24.843 28.022">
  <g id="Group_15015" data-name="Group 15015" transform="translate(0.1 0.1)">
    <g id="Group_15010" data-name="Group 15010">
      <g id="Group_14977" data-name="Group 14977" transform="translate(11.77 3.121)">
        <line id="Line_382" data-name="Line 382" y2="21.02" transform="translate(0.482 0.482)" fill="#e9e8e8"/>
        <path id="Path_18982" data-name="Path 18982" d="M-1082.746,2807.7a.482.482,0,0,1-.482-.482V2786.2a.482.482,0,0,1,.482-.482.482.482,0,0,1,.482.482v21.02A.482.482,0,0,1-1082.746,2807.7Z" transform="translate(1083.228 -2785.715)" fill="#2dbff3" stroke="#2dc0f3" stroke-width="0.2"/>
      </g>
      <g id="Group_14978" data-name="Group 14978" transform="translate(2.668 8.375)">
        <line id="Line_383" data-name="Line 383" x2="18.203" y2="10.51" transform="translate(0.482 0.483)" fill="#e9e8e8"/>
        <path id="Path_18983" data-name="Path 18983" d="M-1074.922,2803.181a.476.476,0,0,1-.24-.064l-18.2-10.51a.482.482,0,0,1-.176-.659.484.484,0,0,1,.659-.176l18.2,10.511a.483.483,0,0,1,.176.659A.484.484,0,0,1-1074.922,2803.181Z" transform="translate(1093.607 -2791.707)" fill="#2dbff3" stroke="#2dc0f3" stroke-width="0.2"/>
      </g>
      <g id="Group_14979" data-name="Group 14979" transform="translate(2.668 8.376)">
        <line id="Line_384" data-name="Line 384" y1="10.51" x2="18.203" transform="translate(0.482 0.482)" fill="#e9e8e8"/>
        <path id="Path_18984" data-name="Path 18984" d="M-1093.125,2803.181a.482.482,0,0,1-.417-.24.482.482,0,0,1,.176-.66l18.2-10.511a.485.485,0,0,1,.659.176.483.483,0,0,1-.176.66l-18.2,10.51A.48.48,0,0,1-1093.125,2803.181Z" transform="translate(1093.607 -2791.708)" fill="#2dbff3" stroke="#2dc0f3" stroke-width="0.2"/>
      </g>
      <g id="Group_14984" data-name="Group 14984" transform="translate(18.349 16.156)">
        <g id="Group_14981" data-name="Group 14981">
          <g id="Group_14980" data-name="Group 14980">
            <circle id="Ellipse_1174" data-name="Ellipse 1174" cx="2.665" cy="2.665" r="2.665" transform="translate(0.482 0.482)" fill="#e9e8e8"/>
            <path id="Path_18985" data-name="Path 18985" d="M-1072.579,2806.875a3.151,3.151,0,0,1-3.146-3.147,3.15,3.15,0,0,1,3.146-3.147,3.15,3.15,0,0,1,3.147,3.147A3.151,3.151,0,0,1-1072.579,2806.875Zm0-5.33a2.185,2.185,0,0,0-2.182,2.183,2.185,2.185,0,0,0,2.182,2.183,2.186,2.186,0,0,0,2.183-2.183A2.186,2.186,0,0,0-1072.579,2801.545Z" transform="translate(1075.725 -2800.58)" fill="#2dbff3"/>
          </g>
        </g>
        <g id="Group_14983" data-name="Group 14983">
          <g id="Group_14982" data-name="Group 14982">
            <circle id="Ellipse_1175" data-name="Ellipse 1175" cx="2.665" cy="2.665" r="2.665" transform="translate(0.482 0.482)" fill="#fff"/>
            <path id="Path_18986" data-name="Path 18986" d="M-1072.579,2806.875a3.151,3.151,0,0,1-3.146-3.147,3.15,3.15,0,0,1,3.146-3.147,3.15,3.15,0,0,1,3.147,3.147A3.151,3.151,0,0,1-1072.579,2806.875Zm0-5.33a2.185,2.185,0,0,0-2.182,2.183,2.185,2.185,0,0,0,2.182,2.183,2.186,2.186,0,0,0,2.183-2.183A2.186,2.186,0,0,0-1072.579,2801.545Z" transform="translate(1075.725 -2800.58)" fill="#2dbff3" stroke="#2dc0f3" stroke-width="0.2"/>
          </g>
        </g>
      </g>
      <g id="Group_14989" data-name="Group 14989" transform="translate(0.084 16.105)">
        <g id="Group_14986" data-name="Group 14986" transform="translate(0.482 0.482)">
          <g id="Group_14985" data-name="Group 14985">
            <circle id="Ellipse_1176" data-name="Ellipse 1176" cx="2.665" cy="2.665" r="2.665" fill="#d1eefc"/>
          </g>
        </g>
        <g id="Group_14988" data-name="Group 14988">
          <g id="Group_14987" data-name="Group 14987">
            <circle id="Ellipse_1177" data-name="Ellipse 1177" cx="2.665" cy="2.665" r="2.665" transform="translate(0.482 0.482)" fill="#fff"/>
            <path id="Path_18987" data-name="Path 18987" d="M-1093.407,2806.816a3.15,3.15,0,0,1-3.147-3.146,3.151,3.151,0,0,1,3.147-3.147,3.151,3.151,0,0,1,3.147,3.147A3.15,3.15,0,0,1-1093.407,2806.816Zm0-5.329a2.185,2.185,0,0,0-2.183,2.183,2.186,2.186,0,0,0,2.183,2.183,2.186,2.186,0,0,0,2.183-2.183A2.186,2.186,0,0,0-1093.407,2801.487Z" transform="translate(1096.554 -2800.522)" fill="#2dbff3" stroke="#2dbff3" stroke-width="0.2"/>
          </g>
        </g>
      </g>
      <g id="Group_14994" data-name="Group 14994" transform="translate(18.349 5.711)">
        <g id="Group_14991" data-name="Group 14991">
          <g id="Group_14990" data-name="Group 14990">
            <circle id="Ellipse_1178" data-name="Ellipse 1178" cx="2.665" cy="2.665" r="2.665" transform="translate(0.482 0.482)" fill="#e9e8e8"/>
            <path id="Path_18988" data-name="Path 18988" d="M-1072.579,2794.962a3.15,3.15,0,0,1-3.146-3.147,3.15,3.15,0,0,1,3.146-3.146,3.15,3.15,0,0,1,3.147,3.146A3.151,3.151,0,0,1-1072.579,2794.962Zm0-5.329a2.184,2.184,0,0,0-2.182,2.182,2.185,2.185,0,0,0,2.182,2.183,2.186,2.186,0,0,0,2.183-2.183A2.185,2.185,0,0,0-1072.579,2789.634Z" transform="translate(1075.725 -2788.669)" fill="#2dbff3"/>
          </g>
        </g>
        <g id="Group_14993" data-name="Group 14993">
          <g id="Group_14992" data-name="Group 14992">
            <circle id="Ellipse_1179" data-name="Ellipse 1179" cx="2.665" cy="2.665" r="2.665" transform="translate(0.482 0.482)" fill="#fff"/>
            <path id="Path_18989" data-name="Path 18989" d="M-1072.579,2794.962a3.15,3.15,0,0,1-3.146-3.147,3.15,3.15,0,0,1,3.146-3.146,3.15,3.15,0,0,1,3.147,3.146A3.151,3.151,0,0,1-1072.579,2794.962Zm0-5.329a2.184,2.184,0,0,0-2.182,2.182,2.185,2.185,0,0,0,2.182,2.183,2.186,2.186,0,0,0,2.183-2.183A2.185,2.185,0,0,0-1072.579,2789.634Z" transform="translate(1075.725 -2788.669)" fill="#2dbff3" stroke="#2dc0f3" stroke-width="0.2"/>
          </g>
        </g>
      </g>
      <g id="Group_14999" data-name="Group 14999" transform="translate(0 5.065)">
        <g id="Group_14996" data-name="Group 14996" transform="translate(0.482 0.482)">
          <g id="Group_14995" data-name="Group 14995">
            <circle id="Ellipse_1180" data-name="Ellipse 1180" cx="2.665" cy="2.665" r="2.665" fill="#d1eefc"/>
          </g>
        </g>
        <g id="Group_14998" data-name="Group 14998">
          <g id="Group_14997" data-name="Group 14997">
            <circle id="Ellipse_1181" data-name="Ellipse 1181" cx="2.665" cy="2.665" r="2.665" transform="translate(0.482 0.482)" fill="#fff"/>
            <path id="Path_18990" data-name="Path 18990" d="M-1093.5,2794.226a3.15,3.15,0,0,1-3.146-3.146,3.15,3.15,0,0,1,3.146-3.147,3.15,3.15,0,0,1,3.147,3.147A3.15,3.15,0,0,1-1093.5,2794.226Zm0-5.33a2.185,2.185,0,0,0-2.182,2.184,2.185,2.185,0,0,0,2.182,2.183,2.186,2.186,0,0,0,2.183-2.183A2.186,2.186,0,0,0-1093.5,2788.9Z" transform="translate(1096.65 -2787.932)" fill="#2dbff3" stroke="#2dc0f3" stroke-width="0.2"/>
          </g>
        </g>
      </g>
      <g id="Group_15004" data-name="Group 15004" transform="translate(9.165 21.529)">
        <g id="Group_15001" data-name="Group 15001" transform="translate(0.482 0.482)">
          <g id="Group_15000" data-name="Group 15000">
            <circle id="Ellipse_1182" data-name="Ellipse 1182" cx="2.665" cy="2.665" r="2.665" fill="#d1eefc"/>
          </g>
        </g>
        <g id="Group_15003" data-name="Group 15003">
          <g id="Group_15002" data-name="Group 15002">
            <circle id="Ellipse_1183" data-name="Ellipse 1183" cx="2.665" cy="2.665" r="2.665" transform="translate(0.482 0.482)" fill="#fff"/>
            <path id="Path_18991" data-name="Path 18991" d="M-1083.051,2813a3.151,3.151,0,0,1-3.147-3.146,3.15,3.15,0,0,1,3.147-3.147,3.149,3.149,0,0,1,3.146,3.147A3.15,3.15,0,0,1-1083.051,2813Zm0-5.329a2.186,2.186,0,0,0-2.183,2.183,2.185,2.185,0,0,0,2.183,2.182,2.185,2.185,0,0,0,2.183-2.182A2.186,2.186,0,0,0-1083.051,2807.671Z" transform="translate(1086.198 -2806.707)" fill="#2dbff3" stroke="#2dc0f3" stroke-width="0.2"/>
          </g>
        </g>
      </g>
      <g id="Group_15009" data-name="Group 15009" transform="translate(9.105)">
        <g id="Group_15006" data-name="Group 15006">
          <g id="Group_15005" data-name="Group 15005">
            <circle id="Ellipse_1184" data-name="Ellipse 1184" cx="2.665" cy="2.665" r="2.665" transform="translate(0.483 0.482)" fill="#e9e8e8"/>
            <path id="Path_18992" data-name="Path 18992" d="M-1083.12,2788.45a3.15,3.15,0,0,1-3.147-3.147,3.151,3.151,0,0,1,3.147-3.146,3.151,3.151,0,0,1,3.147,3.146A3.15,3.15,0,0,1-1083.12,2788.45Zm0-5.329a2.185,2.185,0,0,0-2.183,2.182,2.185,2.185,0,0,0,2.183,2.183,2.186,2.186,0,0,0,2.183-2.183A2.185,2.185,0,0,0-1083.12,2783.121Z" transform="translate(1086.267 -2782.156)" fill="#2dbff3"/>
          </g>
        </g>
        <g id="Group_15008" data-name="Group 15008">
          <g id="Group_15007" data-name="Group 15007">
            <circle id="Ellipse_1185" data-name="Ellipse 1185" cx="2.665" cy="2.665" r="2.665" transform="translate(0.483 0.482)" fill="#fff"/>
            <path id="Path_18993" data-name="Path 18993" d="M-1083.12,2788.45a3.15,3.15,0,0,1-3.147-3.147,3.151,3.151,0,0,1,3.147-3.146,3.151,3.151,0,0,1,3.147,3.146A3.15,3.15,0,0,1-1083.12,2788.45Zm0-5.329a2.185,2.185,0,0,0-2.183,2.182,2.185,2.185,0,0,0,2.183,2.183,2.186,2.186,0,0,0,2.183-2.183A2.185,2.185,0,0,0-1083.12,2783.121Z" transform="translate(1086.267 -2782.156)" fill="#2dbff3" stroke="#2dc0f3" stroke-width="0.2"/>
          </g>
        </g>
      </g>
    </g>
    <g id="Group_15014" data-name="Group 15014" transform="translate(6.977 8.139)">
      <g id="Group_15011" data-name="Group 15011">
        <circle id="Ellipse_1186" data-name="Ellipse 1186" cx="4.749" cy="4.749" r="4.749" transform="translate(0.526 0.526)" fill="#fff"/>
        <path id="Path_18994" data-name="Path 18994" d="M-1083.419,2801.989a5.282,5.282,0,0,1-5.275-5.275,5.282,5.282,0,0,1,5.275-5.275,5.281,5.281,0,0,1,5.276,5.275A5.281,5.281,0,0,1-1083.419,2801.989Zm0-9.5a4.229,4.229,0,0,0-4.223,4.223,4.229,4.229,0,0,0,4.223,4.224,4.229,4.229,0,0,0,4.223-4.224A4.228,4.228,0,0,0-1083.419,2792.49Z" transform="translate(1088.694 -2791.438)" fill="#00307f" stroke="#00307f" stroke-width="0.2"/>
      </g>
      <g id="Group_15013" data-name="Group 15013" transform="translate(3.42 2.626)">
        <g id="Group_15012" data-name="Group 15012">
          <path id="Path_18995" data-name="Path 18995" d="M-1084.446,2795.026a.281.281,0,0,1-.225-.083.283.283,0,0,1-.073-.192.271.271,0,0,1,.073-.188.293.293,0,0,1,.225-.08h2.833a.283.283,0,0,1,.226.084.286.286,0,0,1,.073.191.273.273,0,0,1-.073.188.291.291,0,0,1-.226.08h-.413c-.179,0-.33,0-.452-.007a1.9,1.9,0,0,1-.223-.016v.031a.964.964,0,0,1,.314.23,1.014,1.014,0,0,1,.23.406h.544a.284.284,0,0,1,.226.084.287.287,0,0,1,.073.191.273.273,0,0,1-.073.188.291.291,0,0,1-.226.08h-.505a1.434,1.434,0,0,1-.191.6,1.449,1.449,0,0,1-.371.409,1.67,1.67,0,0,1-.482.245,2.468,2.468,0,0,1-.517.108l1.73,1.661a.38.38,0,0,1,.123.275.345.345,0,0,1-.092.245.327.327,0,0,1-.253.1.5.5,0,0,1-.165-.027.425.425,0,0,1-.164-.11l-2.037-1.991a.527.527,0,0,1-.122-.157.378.378,0,0,1-.039-.165.337.337,0,0,1,.092-.241.316.316,0,0,1,.237-.1h.1a2.588,2.588,0,0,0,.471-.042,1.358,1.358,0,0,0,.421-.145,1.082,1.082,0,0,0,.318-.265.834.834,0,0,0,.168-.406h-1.554a.281.281,0,0,1-.225-.083.283.283,0,0,1-.073-.191.271.271,0,0,1,.073-.189.292.292,0,0,1,.225-.08h1.516q-.2-.643-1.171-.644Z" transform="translate(1084.788 -2794.439)" fill="#00307f"/>
          <path id="Path_18996" data-name="Path 18996" d="M-1082.178,2799.894a.592.592,0,0,1-.179-.028.484.484,0,0,1-.181-.122l-2.036-1.99a.557.557,0,0,1-.131-.17.415.415,0,0,1-.043-.183.376.376,0,0,1,.1-.271.358.358,0,0,1,.269-.109h.1a2.605,2.605,0,0,0,.463-.042,1.333,1.333,0,0,0,.408-.141,1.053,1.053,0,0,0,.305-.253.766.766,0,0,0,.15-.335h-1.5a.327.327,0,0,1-.259-.1.334.334,0,0,1-.083-.221.312.312,0,0,1,.084-.217.326.326,0,0,1,.258-.1H-1083c-.143-.373-.507-.556-1.109-.556h-.345a.327.327,0,0,1-.259-.1.327.327,0,0,1-.083-.221.312.312,0,0,1,.084-.217.331.331,0,0,1,.258-.095h2.833a.323.323,0,0,1,.26.1.322.322,0,0,1,.083.219.306.306,0,0,1-.083.216.332.332,0,0,1-.259.095h-.413c-.178,0-.331,0-.454-.007l-.082,0a1.058,1.058,0,0,1,.207.175,1.044,1.044,0,0,1,.231.392h.511a.33.33,0,0,1,.26.1.333.333,0,0,1,.083.221.31.31,0,0,1-.083.217.331.331,0,0,1-.259.095h-.467a1.445,1.445,0,0,1-.193.581,1.474,1.474,0,0,1-.382.422,1.759,1.759,0,0,1-.495.252,2.836,2.836,0,0,1-.432.1l1.663,1.595a.432.432,0,0,1,.136.308.392.392,0,0,1-.1.274A.369.369,0,0,1-1082.178,2799.894Zm-2.2-2.786a.271.271,0,0,0-.206.082.291.291,0,0,0-.08.21.332.332,0,0,0,.034.146.46.46,0,0,0,.112.143l2.038,1.992a.372.372,0,0,0,.147.1.44.44,0,0,0,.151.026.282.282,0,0,0,.22-.086.3.3,0,0,0,.081-.215.338.338,0,0,0-.11-.246l-1.8-1.726.1-.009a2.435,2.435,0,0,0,.507-.1,1.658,1.658,0,0,0,.47-.239,1.388,1.388,0,0,0,.36-.4,1.376,1.376,0,0,0,.185-.583l0-.039h.545a.247.247,0,0,0,.194-.066.225.225,0,0,0,.061-.158.245.245,0,0,0-.062-.163.244.244,0,0,0-.193-.068h-.576l-.01-.031a.973.973,0,0,0-.219-.389.937.937,0,0,0-.3-.219l-.026-.01v-.116l.054.012c.027.007.152.012.213.015.122.005.274.008.451.008h.413a.251.251,0,0,0,.194-.066.232.232,0,0,0,.061-.159.241.241,0,0,0-.062-.162.241.241,0,0,0-.193-.07h-2.833a.254.254,0,0,0-.193.066.23.23,0,0,0-.061.159.241.241,0,0,0,.061.163.247.247,0,0,0,.193.069h.345c.667,0,1.075.227,1.214.674l.018.057h-1.576a.249.249,0,0,0-.193.066.229.229,0,0,0-.061.159.244.244,0,0,0,.061.163.243.243,0,0,0,.193.068h1.606l-.008.051a.88.88,0,0,1-.178.426,1.135,1.135,0,0,1-.331.276,1.439,1.439,0,0,1-.434.15,2.716,2.716,0,0,1-.479.042Z" transform="translate(1084.794 -2794.433)" fill="#00307f"/>
        </g>
      </g>
    </g>
  </g>
</svg>
