<svg id="Group_22039" data-name="Group 22039" xmlns="http://www.w3.org/2000/svg" width="30" height="30" viewBox="0 0 30 30">
  <g id="Group_22038" data-name="Group 22038" transform="translate(5 2)">
    <path id="Path_20938" data-name="Path 20938" d="M13.9,28.757a.436.436,0,0,0-.016-.082l-.005-.022a.019.019,0,0,0-.005-.011l-2.157-6.249a1.144,1.144,0,0,0-1.084-.774H8.044a1.2,1.2,0,0,0-1.2,1.2v10.9a1,1,0,0,1,.817,0v-4.5h5.432v5.96a.409.409,0,0,0,.817,0V28.806C13.906,28.79,13.9,28.773,13.9,28.757ZM7.657,28.4V22.819a.381.381,0,0,1,.387-.381h2.588a.332.332,0,0,1,.316.229L12.931,28.4Z" transform="translate(-6.252 -10.245)" fill="#039"/>
    <path id="Path_20939" data-name="Path 20939" d="M26.508,6.824c1-.256,2.047-2.357,1.626-4.011A2.506,2.506,0,0,0,24.983.836,2.506,2.506,0,0,0,23.162,4.08C23.583,5.731,25.506,7.079,26.508,6.824Z" transform="translate(-13.621 -0.741)" fill="none" stroke="#44c8f5" stroke-width="1"/>
    <path id="Path_20940" data-name="Path 20940" d="M27.918,13.9c-1.994-3.144-4.511-2.637-4.658-2.615a7.144,7.144,0,0,0-1.683.73c-.147.131-1.634,2.512-2.354,3.672a2.138,2.138,0,0,1-1.079.877L14.57,17.92a1,1,0,0,0-.327.2,1.044,1.044,0,0,0-.343.774,1.078,1.078,0,0,0,.06.338,1.024,1.024,0,0,0,.932.686.951.951,0,0,0,.4-.054l4.473-1.634a1.806,1.806,0,0,0,.883-.686l1.291-1.88a.46.46,0,0,1,.665-.114,4.176,4.176,0,0,1,1.411,1.923c.311.861.054,1.231.054,1.231l-3.536,5.377-.153,5.552v.027a1.2,1.2,0,0,0,2.392.065l.245-4.843,3.007-3.748L25.515,25.3l1.591,4.762a1.157,1.157,0,0,0,1.09.779,1.22,1.22,0,0,0,.311-.044,1.144,1.144,0,0,0,.774-1.46L28.038,25.5a35.358,35.358,0,0,0,1.3-6.26A10.859,10.859,0,0,0,27.918,13.9Z" transform="translate(-9.465 -5.521)" fill="none" stroke="#44c8f5" stroke-width="1"/>
    <circle id="Ellipse_1307" data-name="Ellipse 1307" cx="0.997" cy="0.997" r="0.997" transform="translate(0 23.345)" fill="#039"/>
  </g>
  <g id="Rectangle_9538" data-name="Rectangle 9538" fill="none" stroke="#707070" stroke-width="0.5" opacity="0">
    <rect width="30" height="30" stroke="none"/>
    <rect x="0.25" y="0.25" width="29.5" height="29.5" fill="none"/>
  </g>
</svg>
