<svg id="Group_13011" data-name="Group 13011" xmlns="http://www.w3.org/2000/svg" width="24" height="24" viewBox="0 0 24 24">
  <path id="Path_16532" data-name="Path 16532" d="M1194.06,1250a1.033,1.033,0,0,0-.71.29.99.99,0,0,0-.29.71v2a3,3,0,0,1-3,3h-2a1.033,1.033,0,0,0-.71.29,1.014,1.014,0,0,0,0,1.42,1.033,1.033,0,0,0,.71.29h2a5.019,5.019,0,0,0,5-5v-2a1.033,1.033,0,0,0-.29-.71A1.052,1.052,0,0,0,1194.06,1250Z" transform="translate(-1171.06 -1234)" fill="#44c8f5"/>
  <path id="Path_16533" data-name="Path 16533" d="M1172.06,1242a1.052,1.052,0,0,0,.71-.29,1.033,1.033,0,0,0,.29-.71v-2a2.956,2.956,0,0,1,.88-2.12,3,3,0,0,1,2.12-.88h2a1.052,1.052,0,0,0,.71-.29,1.014,1.014,0,0,0,0-1.42,1.052,1.052,0,0,0-.71-.29h-2a5,5,0,0,0-5,5v2a.99.99,0,0,0,.29.71A1.033,1.033,0,0,0,1172.06,1242Z" transform="translate(-1171.06 -1234)" fill="#44c8f5"/>
  <path id="Path_16534" data-name="Path 16534" d="M1178.06,1256h-2a3,3,0,0,1-2.12-.88,2.956,2.956,0,0,1-.88-2.12v-2a1.033,1.033,0,0,0-.29-.71,1.052,1.052,0,0,0-.71-.29,1.033,1.033,0,0,0-.71.29.99.99,0,0,0-.29.71v2a5,5,0,0,0,5,5h2a1.052,1.052,0,0,0,.71-.29,1.014,1.014,0,0,0,0-1.42A1.052,1.052,0,0,0,1178.06,1256Z" transform="translate(-1171.06 -1234)" fill="#44c8f5"/>
  <path id="Path_16535" data-name="Path 16535" d="M1190.06,1234h-2a1.033,1.033,0,0,0-.71.29,1.014,1.014,0,0,0,0,1.42,1.033,1.033,0,0,0,.71.29h2a3,3,0,0,1,3,3v2a.99.99,0,0,0,.29.71,1.033,1.033,0,0,0,.71.29,1.052,1.052,0,0,0,.71-.29,1.033,1.033,0,0,0,.29-.71v-2a5.019,5.019,0,0,0-5-5Z" transform="translate(-1171.06 -1234)" fill="#44c8f5"/>
  <g id="Group_13010" data-name="Group 13010" transform="translate(6.679 6.8)">
    <path id="Path_17618" data-name="Path 17618" d="M3306.982,3492.533a9.513,9.513,0,0,1-4.917-1.4c-.565-.346-.726-.76-.484-1.188.253-.448.714-.5,1.311-.163a7.819,7.819,0,0,0,8.215.005c.6-.34,1.058-.292,1.314.148s.083.855-.524,1.223A9.475,9.475,0,0,1,3306.982,3492.533Z" transform="translate(-3301.452 -3480.68)" fill="#039"/>
    <path id="Path_17619" data-name="Path 17619" d="M3332.7,3434.121a11.87,11.87,0,0,1-.007,1.261,2.319,2.319,0,0,1-2.242,2.01.749.749,0,0,1-.848-.67.718.718,0,0,1,.686-.88.911.911,0,0,0,.88-1.079c-.018-.568,0-1.137,0-1.705,0-.52.228-.865.774-.87s.779.342.786.859c0,.358,0,.716,0,1.074Z" transform="translate(-3326.002 -3430.591)" fill="#039"/>
    <path id="Path_17620" data-name="Path 17620" d="M3302.924,3421.168a6.917,6.917,0,0,1-.005.821.749.749,0,0,1-.775.755.725.725,0,0,1-.793-.729,11.921,11.921,0,0,1-.006-1.642.747.747,0,0,1,.773-.763.757.757,0,0,1,.8.737A6.706,6.706,0,0,1,3302.924,3421.168Z" transform="translate(-3301.319 -3419.61)" fill="#039"/>
    <path id="Path_17621" data-name="Path 17621" d="M3377.545,3421.194a6.567,6.567,0,0,1-.006.815.746.746,0,0,1-.781.739.726.726,0,0,1-.786-.728,11.867,11.867,0,0,1-.006-1.63.75.75,0,0,1,.813-.776.762.762,0,0,1,.765.766,8.025,8.025,0,0,1,0,.815Z" transform="translate(-3366.463 -3419.612)" fill="#039"/>
  </g>
</svg>
