<svg xmlns="http://www.w3.org/2000/svg" width="22.652" height="26.815" viewBox="0 0 22.652 26.815">
  <g id="Group_24320" data-name="Group 24320" transform="translate(-3214.718 -2695.178)">
    <path id="Subtraction_4" data-name="Subtraction 4" d="M19.2,10H1V5.46a1.233,1.233,0,0,1,.35-.9A1.182,1.182,0,0,1,2.2,4.2H4.185a1.753,1.753,0,0,1-.166-.42,2.961,2.961,0,0,1,.248-2.226A2.777,2.777,0,0,1,6.045.124,2.9,2.9,0,0,1,6.882,0a2.928,2.928,0,0,1,2.8,2.1L10.1,3.527,10.512,2.1A2.914,2.914,0,0,1,14.151.124a2.782,2.782,0,0,1,1.778,1.428,2.961,2.961,0,0,1,.248,2.226,1.829,1.829,0,0,1-.166.42H18a1.179,1.179,0,0,1,.848.357,1.23,1.23,0,0,1,.351.9V10Zm-6.2-4.121V8.4h4.549V5.879Zm-4.135,0V8.4h2.481V5.879Zm-6.2,0V8.4H7.2V5.879Zm10.713-4.2a1.367,1.367,0,0,0-1.285.922l-.455,1.6h1.751a1.278,1.278,0,0,0,1.227-.924,1.246,1.246,0,0,0-.124-.923,1.319,1.319,0,0,0-.786-.63A1.349,1.349,0,0,0,13.368,1.68Zm-6.539,0a1.347,1.347,0,0,0-.328.041,1.315,1.315,0,0,0-.786.63,1.242,1.242,0,0,0-.124.923A1.277,1.277,0,0,0,6.817,4.2H8.568L8.114,2.6A1.368,1.368,0,0,0,6.829,1.68Z" transform="translate(3213.852 2704.776) rotate(-30)" fill="#039"/>
    <path id="Subtraction_5" data-name="Subtraction 5" d="M17.17,18.936H3.026a1.146,1.146,0,0,1-.848-.383,1.379,1.379,0,0,1-.35-.97V11.943l0-3.8H18.37v9.439a1.375,1.375,0,0,1-.351.97A1.143,1.143,0,0,1,17.17,18.936ZM12.993,9.921v7.212h3.721V9.921Zm-4.135,0v7.212h2.481V9.921Zm-5.376,0v7.212H7.2V9.921Z" transform="translate(3219 2703.057)" fill="#039"/>
  </g>
</svg>
