<svg xmlns="http://www.w3.org/2000/svg" xmlns:xlink="http://www.w3.org/1999/xlink" width="76" height="76" viewBox="0 0 76 76">
  <defs>
    <filter id="Ellipse_322" x="0" y="0" width="76" height="76" filterUnits="userSpaceOnUse">
      <feOffset dy="3" input="SourceAlpha"/>
      <feGaussianBlur stdDeviation="5" result="blur"/>
      <feFlood flood-color="#0e4e95"/>
      <feComposite operator="in" in2="blur"/>
      <feComposite in="SourceGraphic"/>
    </filter>
  </defs>
  <g id="Group_13801" data-name="Group 13801" transform="translate(-247 -116)">
    <g transform="matrix(1, 0, 0, 1, 247, 116)" filter="url(#Ellipse_322)">
      <circle id="Ellipse_322-2" data-name="Ellipse 322" cx="23" cy="23" r="23" transform="translate(15 12)" fill="#fff"/>
    </g>
    <g id="Group_10707" data-name="Group 10707" transform="translate(271.5 143.641)">
      <g id="Rectangle_6128" data-name="Rectangle 6128" transform="translate(0 -0.141)" fill="#aceaff" stroke="#039" stroke-width="1">
        <rect width="27" height="15" rx="2" stroke="none"/>
        <rect x="0.5" y="0.5" width="26" height="14" rx="1.5" fill="none"/>
      </g>
      <path id="Path_14986" data-name="Path 14986" d="M294.583,474.992h-1.1a1.645,1.645,0,0,1-1.643-1.643v-3.287a1.645,1.645,0,0,1,1.643-1.644h1.1a1.646,1.646,0,0,1,1.643,1.644v3.287A1.645,1.645,0,0,1,294.583,474.992Zm-1.1-5.479a.548.548,0,0,0-.548.548v3.287a.548.548,0,0,0,.548.548h1.1a.548.548,0,0,0,.548-.548v-3.287a.548.548,0,0,0-.548-.548Zm0,0" transform="translate(-274.422 -464.508)" fill="#039"/>
      <path id="Path_14988" data-name="Path 14988" d="M178.574,469.514h-3.287a.548.548,0,1,1,0-1.1h3.287a.548.548,0,1,1,0,1.1Zm0,0" transform="translate(-163.344 -464.508)" fill="#039"/>
      <path id="Path_14989" data-name="Path 14989" d="M178.574,522.745h-3.287a.548.548,0,1,1,0-1.1h3.287a.548.548,0,0,1,0,1.1Zm0,0" transform="translate(-163.344 -515)" fill="#039"/>
      <path id="Path_14987" data-name="Path 14987" d="M61.471,474.981a.547.547,0,0,1-.469-.266l-2.27-3.783v3.5a.548.548,0,0,1-1.1,0v-5.479a.548.548,0,0,1,1.017-.282l2.27,3.782v-3.5a.548.548,0,1,1,1.1,0v5.479a.548.548,0,0,1-.4.528A.533.533,0,0,1,61.471,474.981Zm0,0" transform="translate(-52.268 -464.497)" fill="#039"/>
      <path id="Path_14990" data-name="Path 14990" d="M175.287,474.992a.548.548,0,0,1-.548-.548v-5.479a.548.548,0,1,1,1.1,0v5.479A.548.548,0,0,1,175.287,474.992Zm0,0" transform="translate(-163.344 -464.508)" fill="#039"/>
    </g>
  </g>
</svg>
