<svg id="Group_22043" data-name="Group 22043" xmlns="http://www.w3.org/2000/svg" width="30" height="30" viewBox="0 0 30 30">
  <g id="Group_22042" data-name="Group 22042" transform="translate(6 1)">
    <path id="Path_21054" data-name="Path 21054" d="M97.532,32.588V32h1a.3.3,0,0,0,0-.59h-1v-.3a.3.3,0,0,0-.59,0v.3h-1a.3.3,0,0,0,0,.59h1v.59h-1.89a.3.3,0,1,0,0,.59h1.89v.59h-1a.3.3,0,1,0,0,.59h1v.483l-.215-.087A.888.888,0,0,0,96.06,36.4l.827.335a.979.979,0,0,0,.739,0l.827-.335a.888.888,0,0,0-.667-1.646l-.254.1v-.5h1a.3.3,0,1,0,0-.59h-1v-.59h1.89a.314.314,0,0,0,0-.59Zm.006,2.9.47-.191a.3.3,0,0,1,.224.552h0l-.827.335a.392.392,0,0,1-.3,0l-.827-.335a.3.3,0,1,1,.224-.552l.47.19a.744.744,0,0,0,.562,0Z" transform="translate(-88.076 -19.818)" fill="#039"/>
    <path id="Path_21056" data-name="Path 21056" d="M14.177,13.37a4.477,4.477,0,0,1,3.672-1.824h5.542a4.477,4.477,0,0,1,3.672,1.824,6.166,6.166,0,0,1,1.177,3.665v3.43a2.068,2.068,0,0,1-2.078,2.058,2.094,2.094,0,0,1-.693-.117V29.5a1.967,1.967,0,0,1-3.921.2l-.68-5.8h-.5l-.68,5.8a1.967,1.967,0,0,1-3.921-.2V22.406a2.094,2.094,0,0,1-.693.117A2.068,2.068,0,0,1,13,20.465v-3.43A6.166,6.166,0,0,1,14.177,13.37Zm3.672-.451h5.542a3.089,3.089,0,0,1,2.563,1.274,4.806,4.806,0,0,1,.9,2.842v3.43a.693.693,0,0,1-1.386,0V16.006H24.085V29.5a.58.58,0,0,1-1.157.057v-.005l-.752-6.417a.69.69,0,0,0-.688-.607H19.755a.69.69,0,0,0-.688.607l-.752,6.417v.005a.58.58,0,0,1-1.157-.057V19.436H15.771v1.029a.693.693,0,0,1-1.386,0v-3.43a4.806,4.806,0,0,1,.9-2.842A3.089,3.089,0,0,1,17.85,12.919Zm4.5-5.831a1.732,1.732,0,1,1-1.732-1.715A1.724,1.724,0,0,1,22.353,7.087Zm1.386,0A3.118,3.118,0,1,1,20.621,4,3.1,3.1,0,0,1,23.738,7.087Z" transform="translate(-11.237 -4)" fill="#44c8f5" fill-rule="evenodd"/>
    <g id="Rectangle_9541" data-name="Rectangle 9541" transform="translate(0 9.425)" fill="none" stroke="#039" stroke-width="0.7">
      <rect width="19" height="9" rx="2" stroke="none"/>
      <rect x="0.35" y="0.35" width="18.3" height="8.3" rx="1.65" fill="none"/>
    </g>
  </g>
  <g id="Rectangle_9542" data-name="Rectangle 9542" fill="none" stroke="#707070" stroke-width="0.5" opacity="0">
    <rect width="30" height="30" stroke="none"/>
    <rect x="0.25" y="0.25" width="29.5" height="29.5" fill="none"/>
  </g>
</svg>
