<svg xmlns="http://www.w3.org/2000/svg" width="14.025" height="10.918" viewBox="0 0 14.025 10.918">
  <g id="Group_11814" data-name="Group 11814" transform="translate(-299.017 -142.644)">
    <path id="Path_438" data-name="Path 438" d="M664.631,754.606a7.461,7.461,0,0,0-13.168,0,2.865,2.865,0,0,0,0,3.015,7.461,7.461,0,0,0,13.168,0,2.868,2.868,0,0,0,0-3.015Zm-1,2.4a6.3,6.3,0,0,1-11.176,0,1.7,1.7,0,0,1,0-1.792,6.3,6.3,0,0,1,11.176,0,1.707,1.707,0,0,1,0,1.792Z" transform="translate(-352.017 -608.011)" fill="#039"/>
    <path id="Path_439" data-name="Path 439" d="M660.96,755a2.924,2.924,0,1,0,2.064.856A2.918,2.918,0,0,0,660.96,755Zm0,4.673a1.753,1.753,0,1,1,1.239-.513A1.753,1.753,0,0,1,660.96,759.673Z" transform="translate(-354.93 -609.818)" fill="#039"/>
  </g>
</svg>
