<svg id="Group_22169" data-name="Group 22169" xmlns="http://www.w3.org/2000/svg" width="30" height="30" viewBox="0 0 30 30">
  <rect id="Rectangle_9529" data-name="Rectangle 9529" width="30" height="30" fill="none"/>
  <g id="Group_14255" data-name="Group 14255" transform="translate(3 3)">
    <g id="Group_10706" data-name="Group 10706">
      <path id="Path_14980" data-name="Path 14980" d="M399.4,273.008l2.009-5.27a23.186,23.186,0,0,1,2.249-1.388c.191,0,4.784.813,4.784,1.053s1.723,3.014,1.771,3.3.861,3.158.861,3.158-1.579.909-1.723.957-1.147.622-1.339.67a8.8,8.8,0,0,1-1.627-.67l-2.727-.335-1.244-.622-2.2-.335Z" transform="translate(-391.011 -260.895)" fill="#fff"/>
      <g id="profit">
        <path id="Path_14977" data-name="Path 14977" d="M391.15,279.3l5.678,5.678a.473.473,0,0,0,.669,0h0l3.123-3.123a.473.473,0,0,0,0-.669h0l-.139-.139H407.3a2.362,2.362,0,0,0,1.612-.634l5.74-5.38a1.827,1.827,0,0,0-2.211-2.888l-1.274.836a7.955,7.955,0,0,0-3.693-6.531,1.422,1.422,0,0,0-.627-2.283l-.07-.022L408,261.961a.47.47,0,0,0-.285-.683,9.7,9.7,0,0,0-5.4,0,.472.472,0,0,0-.322.586.5.5,0,0,0,.041.1l1.218,2.188-.071.022a1.42,1.42,0,0,0-.625,2.283,7.957,7.957,0,0,0-3.694,6.553v.206a5.815,5.815,0,0,0-2.3,1.233l-1.425,1.256-.192-.192a.473.473,0,0,0-.669,0h0l-3.123,3.123a.473.473,0,0,0,0,.669Zm12.014-17.265a8.774,8.774,0,0,1,3.707,0l-1.059,1.894a5.793,5.793,0,0,0-1.6,0Zm.316,3.032a4.9,4.9,0,0,1,3.072,0,.473.473,0,0,1-.118.922,4.622,4.622,0,0,0-2.835,0h0a.473.473,0,0,1-.119-.921Zm.262,1.871a3.687,3.687,0,0,1,2.493-.02,6.718,6.718,0,0,1,3.987,6.085,4.529,4.529,0,0,1-.041.627l-2.274,1.492a1.881,1.881,0,0,0-1.47-.7h-.946a2.539,2.539,0,0,0-.523,0c-.416.008-.013,0-.423,0h-.157c-.233,0-.337-.152-.5-.257a5.8,5.8,0,0,0-4.076-1.131v-.03a6.763,6.763,0,0,1,3.93-6.065Zm-6.547,8.216a4.864,4.864,0,0,1,6.122-.231,1.678,1.678,0,0,0,1.069.447h2.05a.947.947,0,1,1,0,1.893h-3.312a.473.473,0,0,0,0,.946h3.313a1.892,1.892,0,0,0,1.894-1.889,1.915,1.915,0,0,0-.029-.329l4.646-3.049a.88.88,0,0,1,1.06,1.4l-5.74,5.38a1.416,1.416,0,0,1-.966.379h-7.766l-3.731-3.73Zm-2.583,1.358,5,5.009-2.45,2.454-5.008-5.009Z" transform="translate(-391.011 -260.895)" fill="#44c8f5"/>
      </g>
      <g id="Path_14979" data-name="Path 14979" transform="translate(12.012 7.614)">
        <path id="Path_18751" data-name="Path 18751" d="M405.929,273.617a.346.346,0,0,1-.243-.1,1.272,1.272,0,0,1-.292-.566c-.057-.17-.131-.458-.233-.9-.123-.576-.327-.776-.806-.794H403.6a.3.3,0,1,1,0-.6h.8a.873.873,0,0,0,.835-.419h-1.861a.305.305,0,0,1,0-.611h1.9a.8.8,0,0,0-.768-.471h-1.129a.3.3,0,1,1,0-.6h2.986a.3.3,0,1,1,0,.6h-.494a1.241,1.241,0,0,1,.167.471h.327a.305.305,0,0,1,0,.611h-.373a1.227,1.227,0,0,1-.666.739,1.267,1.267,0,0,1,.542.877,7.287,7.287,0,0,0,.333,1.191l0,.005a.349.349,0,0,1-.274.568Z" transform="translate(-403.023 -268.509)" fill="#039"/>
        <path id="Path_18752" data-name="Path 18752" d="M404.345,268.609h-.967a.248.248,0,1,0,0,.5h1.133a.821.821,0,0,1,.83.571h-1.963a.256.256,0,0,0,0,.511h1.938a.9.9,0,0,1-.912.519h-.8a.249.249,0,0,0,0,.5h.758c.5.019.725.237.853.832.1.443.174.731.232.9a1.229,1.229,0,0,0,.279.543.3.3,0,0,0,.436-.411v0a7.176,7.176,0,0,1-.337-1.2,1.158,1.158,0,0,0-.613-.893,1.192,1.192,0,0,0,.748-.785h.41a.256.256,0,0,0,0-.511h-.371a1.164,1.164,0,0,0-.218-.571h.589a.248.248,0,1,0,0-.5h-2.019m0-.1h2.019a.348.348,0,1,1,0,.7h-.408a1.275,1.275,0,0,1,.123.371h.285a.355.355,0,0,1,0,.711h-.337a1.266,1.266,0,0,1-.6.694,1.382,1.382,0,0,1,.491.861,7.448,7.448,0,0,0,.328,1.179h0a.4.4,0,0,1-.027.523.4.4,0,0,1-.567.011,1.326,1.326,0,0,1-.3-.586c-.058-.175-.132-.464-.233-.91-.12-.554-.3-.737-.76-.755H403.6a.349.349,0,0,1,0-.7h.8a.87.87,0,0,0,.748-.319h-1.774a.355.355,0,0,1,0-.711H405.2a.792.792,0,0,0-.693-.371h-1.129a.348.348,0,1,1,0-.7h.967Z" transform="translate(-403.023 -268.509)" fill="#039"/>
      </g>
    </g>
  </g>
</svg>
