<svg xmlns="http://www.w3.org/2000/svg" width="22.034" height="28.388" viewBox="0 0 22.034 28.388">
  <g id="Group_15022" data-name="Group 15022" transform="translate(0)">
    <g id="Group_15016" data-name="Group 15016">
      <path id="Path_18997" data-name="Path 18997" d="M-1043.868,2785.052l9.816,2.912v13.207a9.828,9.828,0,0,1-9.816,9.817,9.828,9.828,0,0,1-9.817-9.817v-13.207l9.817-2.912m0-1.148-10.917,3.238v14.029a10.916,10.916,0,0,0,10.917,10.917,10.917,10.917,0,0,0,10.917-10.917v-14.029l-10.917-3.238Z" transform="translate(1054.885 -2783.8)" fill="#2dbff3"/>
      <path id="Path_18998" data-name="Path 18998" d="M-1043.868,2812.188a11.028,11.028,0,0,1-11.017-11.016v-14.105l.072-.021,10.945-3.246.028.009,10.989,3.258v14.105A11.028,11.028,0,0,1-1043.868,2812.188Zm-10.817-24.972v13.956a10.829,10.829,0,0,0,10.817,10.817,10.829,10.829,0,0,0,10.817-10.817v-13.956l-10.817-3.207Zm10.817,23.871a9.927,9.927,0,0,1-9.917-9.915V2787.89l.072-.022,9.845-2.92.028.009,9.888,2.933v13.282A9.926,9.926,0,0,1-1043.868,2811.087Zm-9.716-23.049v13.134a9.727,9.727,0,0,0,9.716,9.716,9.727,9.727,0,0,0,9.716-9.716v-13.134l-9.716-2.881Z" transform="translate(1054.885 -2783.8)" fill="#2dbff3"/>
    </g>
    <g id="Group_15021" data-name="Group 15021" transform="translate(4.021 6.878)">
      <g id="Group_15018" data-name="Group 15018" transform="translate(2.136 3.986)">
        <g id="Group_15017" data-name="Group 15017">
          <path id="Path_18999" data-name="Path 18999" d="M-1044.5,2800.043a.269.269,0,0,1-.039,0,.613.613,0,0,1-.428-.211l-2.507-2.868a.621.621,0,0,1,.059-.877.622.622,0,0,1,.877.06l2.095,2.4,5.214-4.621a.623.623,0,0,1,.877.052.623.623,0,0,1-.053.879l-5.682,5.036A.627.627,0,0,1-1044.5,2800.043Z" transform="translate(1047.728 -2793.664)" fill="#00307f"/>
          <path id="Path_19000" data-name="Path 19000" d="M-1044.5,2800.143a.315.315,0,0,1-.055,0,.714.714,0,0,1-.489-.244l-2.506-2.868a.723.723,0,0,1,.068-1.018.724.724,0,0,1,1.018.07l2.028,2.319,5.139-4.554a.724.724,0,0,1,1.019.061.725.725,0,0,1-.062,1.02l-5.682,5.036A.726.726,0,0,1-1044.5,2800.143Zm-2.508-4.11a.527.527,0,0,0-.343.127.524.524,0,0,0-.049.737l2.507,2.868a.518.518,0,0,0,.359.176l.034,0a.522.522,0,0,0,.345-.131l5.682-5.037a.521.521,0,0,0,.045-.736.521.521,0,0,0-.736-.044l-5.289,4.688-2.161-2.472A.525.525,0,0,0-1047.008,2796.033Z" transform="translate(1047.728 -2793.664)" fill="#00307f"/>
        </g>
      </g>
      <g id="Group_15020" data-name="Group 15020">
        <g id="Group_15019" data-name="Group 15019">
          <path id="Path_19001" data-name="Path 19001" d="M-1043.868,2792.021a5.658,5.658,0,0,1,5.652,5.652,5.659,5.659,0,0,1-5.652,5.652,5.658,5.658,0,0,1-5.652-5.652,5.658,5.658,0,0,1,5.652-5.652m0-1.244a6.9,6.9,0,0,0-6.9,6.9,6.9,6.9,0,0,0,6.9,6.9,6.9,6.9,0,0,0,6.9-6.9,6.9,6.9,0,0,0-6.9-6.9Z" transform="translate(1050.864 -2790.678)" fill="#2dbff3"/>
          <path id="Path_19002" data-name="Path 19002" d="M-1043.869,2804.668a7,7,0,0,1-6.995-6.995,7,7,0,0,1,6.995-7,7,7,0,0,1,7,7A7,7,0,0,1-1043.869,2804.668Zm0-13.791a6.8,6.8,0,0,0-6.795,6.8,6.8,6.8,0,0,0,6.795,6.8,6.8,6.8,0,0,0,6.8-6.8A6.8,6.8,0,0,0-1043.869,2790.877Zm0,12.547a5.759,5.759,0,0,1-5.752-5.751,5.759,5.759,0,0,1,5.752-5.752,5.759,5.759,0,0,1,5.753,5.752A5.759,5.759,0,0,1-1043.869,2803.424Zm0-11.3a5.558,5.558,0,0,0-5.551,5.553,5.559,5.559,0,0,0,5.551,5.552,5.56,5.56,0,0,0,5.553-5.552A5.559,5.559,0,0,0-1043.869,2792.12Z" transform="translate(1050.864 -2790.678)" fill="#2dbff3"/>
        </g>
      </g>
    </g>
  </g>
</svg>
