<svg id="Group_22037" data-name="Group 22037" xmlns="http://www.w3.org/2000/svg" width="30" height="30" viewBox="0 0 30 30">
  <g id="bacteria-coronavirus-covid-covid-19-disease-malware-svgrepo-com" transform="translate(4 1)">
    <path id="Path_21032" data-name="Path 21032" d="M25.989,38.8a1.222,1.222,0,0,0-.815,1.495c.073.24.155.481.244.717a1.222,1.222,0,0,0,1.124.778h0a1.222,1.222,0,0,0,1.149-1.511l1.222-.407a7.189,7.189,0,0,0,2.444,3.067l-.371.635-.322.509a1.169,1.169,0,0,0-.627-.041,1.185,1.185,0,0,0-.762.517,1.173,1.173,0,0,0-.175.9,1.193,1.193,0,0,0,.5.782c.212.138.407.273.648.407a1.193,1.193,0,0,0,.591.155h0a1.2,1.2,0,0,0,.717-2.191l.367-.623.3-.472h0a7.1,7.1,0,0,0,3.291.815,3.96,3.96,0,0,0,.538-.024l.208,1.336a1.2,1.2,0,0,0,.407,2.334.55.55,0,0,0,.138,0q.371-.041.745-.11a1.216,1.216,0,0,0-.248-2.411l-.208-1.32a7.1,7.1,0,0,0,3.442-1.865l1.01.908a1.222,1.222,0,0,0,.2,1.5,1.2,1.2,0,0,0,.815.33h0a1.222,1.222,0,0,0,.851-.375c.175-.183.342-.375.5-.566a1.222,1.222,0,0,0-1.723-1.662l-1.006-.9a7.14,7.14,0,0,0,1.446-3.6h.619l.737.053A1.222,1.222,0,0,0,45.1,38.97h.086a1.222,1.222,0,0,0,1.185-1.128v-.794a1.212,1.212,0,0,0-2.061-.847,1.177,1.177,0,0,0-.326.635H42.66a7.148,7.148,0,0,0-1.222-3.7l1.022-.815a1.222,1.222,0,0,0,.815.305,1.2,1.2,0,0,0,.945-1.918c-.151-.2-.31-.407-.472-.591a1.222,1.222,0,0,0-1.935,1.413l-1.018.815a7.14,7.14,0,0,0-3.258-2.061l.106-.688.134-.591h0a1.2,1.2,0,0,0,.261-2.371c-.244-.057-.493-.106-.741-.147a1.2,1.2,0,0,0-.578,2.322l-.1.639-.134.595v.033a7.4,7.4,0,0,0-.957-.069,7.107,7.107,0,0,0-2.851.595l-.363-.566-.277-.554a1.2,1.2,0,0,0-.407-2.037,1.177,1.177,0,0,0-.916.069c-.224.11-.444.232-.664.363a1.222,1.222,0,0,0-.55.737,1.187,1.187,0,0,0,1.593,1.426l.358.57.24.481.024.041a7.156,7.156,0,0,0-2.6,2.888l-.749-.285-.432-.2a1.222,1.222,0,0,0-2.3-.639c-.1.232-.191.468-.273.7a1.222,1.222,0,0,0,1.136,1.6h0a1.222,1.222,0,0,0,1.075-.688l1.12.448h.037a7.156,7.156,0,0,0-.342,2.179,7.026,7.026,0,0,0,.212,1.764l-1.25.407A1.222,1.222,0,0,0,25.989,38.8Zm9.535-7.771a6.134,6.134,0,1,1-6.134,6.13A6.134,6.134,0,0,1,35.524,31.027Z" transform="translate(-24.156 -22.857)" fill="#44c8f5"/>
    <path id="Path_21033" data-name="Path 21033" d="M54.616,44.169a.615.615,0,0,0,.045.09.594.594,0,0,0,.065.077.509.509,0,0,0,.358.147.432.432,0,0,0,.1,0l.094-.029a.383.383,0,0,0,.09-.049.51.51,0,0,0,.077-.061.525.525,0,0,0,.147-.363.517.517,0,0,0-.147-.358.509.509,0,0,0-.077-.061.383.383,0,0,0-.09-.049l-.094-.029a.509.509,0,0,0-.611.5.408.408,0,0,0,0,.1A.359.359,0,0,0,54.616,44.169Z" transform="translate(-41.607 -32.932)" fill="#039"/>
    <path id="Path_21034" data-name="Path 21034" d="M54.622,49.721a.615.615,0,0,0,.045.09.6.6,0,0,0,.065.077.509.509,0,0,0,.358.147.432.432,0,0,0,.1,0l.094-.029a.383.383,0,0,0,.09-.049.509.509,0,0,0,.077-.061.566.566,0,0,0,.061-.077.493.493,0,0,0,.077-.183.86.86,0,0,0,0-.1.517.517,0,0,0-.147-.358l-.077-.065-.09-.045a.407.407,0,0,0-.094-.029.517.517,0,0,0-.46.138.6.6,0,0,0-.065.077.615.615,0,0,0-.045.09.358.358,0,0,0-.029.094.407.407,0,0,0,0,.1.435.435,0,0,0,0,.1.359.359,0,0,0,.037.086Z" transform="translate(-41.613 -36.222)" fill="#039"/>
    <path id="Path_21035" data-name="Path 21035" d="M57.4,46.973a.358.358,0,0,0,.049.086.408.408,0,0,0,.061.077l.077.065.09.045a.366.366,0,0,0,.094.033h.2a.46.46,0,0,0,.1-.033l.086-.045.077-.065a.407.407,0,0,0,.065-.077.566.566,0,0,0,.045-.086.444.444,0,0,0,.029-.1.407.407,0,0,0,0-.2.444.444,0,0,0-.029-.1.566.566,0,0,0-.045-.086.407.407,0,0,0-.065-.077l-.077-.065-.086-.045a.46.46,0,0,0-.1-.033.55.55,0,0,0-.2,0,.367.367,0,0,0-.094.033l-.09.045-.077.065a.408.408,0,0,0-.061.077.358.358,0,0,0-.049.086.884.884,0,0,0-.029.1.591.591,0,0,0,0,.2.885.885,0,0,0,.029.1Z" transform="translate(-43.259 -34.587)" fill="#039"/>
    <path id="Path_21036" data-name="Path 21036" d="M52.318,47.259a.507.507,0,0,0,.358-.868.525.525,0,0,0-.721,0,.509.509,0,0,0,.362.868Z" transform="translate(-39.968 -34.576)" fill="#039"/>
    <path id="Path_21037" data-name="Path 21037" d="M59.166,22.375a.444.444,0,0,0,.175.033.481.481,0,1,0-.175-.033Z" transform="translate(-44.152 -19.849)" fill="#039"/>
    <path id="Path_21038" data-name="Path 21038" d="M60.508,18.572a.505.505,0,1,0-.322-.6A.5.5,0,0,0,60.508,18.572Z" transform="translate(-44.925 -17.59)" fill="#039"/>
    <path id="Path_21039" data-name="Path 21039" d="M65.908,23.466a.489.489,0,0,0,.265-.077.492.492,0,1,0-.265.077Z" transform="translate(-48.031 -20.448)" fill="#039"/>
    <path id="Path_21040" data-name="Path 21040" d="M69.254,21.406a.521.521,0,0,0,.265-.073.513.513,0,1,0-.265.073Z" transform="translate(-50.004 -19.243)" fill="#039"/>
    <path id="Path_21041" data-name="Path 21041" d="M62.05,25.391a.513.513,0,0,0,.432.24.521.521,0,0,0,.269-.073.509.509,0,1,0-.7-.167Z" transform="translate(-45.994 -21.754)" fill="#039"/>
    <path id="Path_21042" data-name="Path 21042" d="M64.877,29.656h.033a.493.493,0,1,0-.033,0Z" transform="translate(-47.432 -24.157)" fill="#039"/>
    <path id="Path_21043" data-name="Path 21043" d="M68.871,29.9H68.9a.5.5,0,1,0-.033,0Z" transform="translate(-49.796 -24.3)" fill="#039"/>
    <path id="Path_21044" data-name="Path 21044" d="M31.743,83.66A.51.51,0,1,0,31.437,83a.517.517,0,0,0,.305.656Z" transform="translate(-27.877 -56.163)" fill="#039"/>
    <path id="Path_21045" data-name="Path 21045" d="M33.772,79.6a.509.509,0,1,0-.656.305.525.525,0,0,0,.175.029.513.513,0,0,0,.481-.334Z" transform="translate(-28.693 -53.938)" fill="#039"/>
    <path id="Path_21046" data-name="Path 21046" d="M26.427,77.893a.509.509,0,0,0-.167.7.517.517,0,0,0,.436.244.509.509,0,1,0-.269-.945Z" transform="translate(-24.782 -53.288)" fill="#039"/>
    <path id="Path_21047" data-name="Path 21047" d="M30.1,76.7a.5.5,0,0,0,.269-.069.509.509,0,1,0-.269.077Z" transform="translate(-26.799 -52.025)" fill="#039"/>
    <path id="Path_21048" data-name="Path 21048" d="M23.253,80.9a.489.489,0,0,0,.265-.077.507.507,0,1,0-.265.077Z" transform="translate(-22.74 -54.508)" fill="#039"/>
    <path id="Path_21049" data-name="Path 21049" d="M28.18,72.207a.509.509,0,1,0-.542.472h.033A.509.509,0,0,0,28.18,72.207Z" transform="translate(-25.362 -49.638)" fill="#039"/>
    <path id="Path_21050" data-name="Path 21050" d="M23.542,72.306h.033a.558.558,0,1,0-.033,0Z" transform="translate(-22.894 -49.359)" fill="#039"/>
  </g>
  <g id="Rectangle_9537" data-name="Rectangle 9537" fill="none" stroke="#707070" stroke-width="0.5" opacity="0">
    <rect width="30" height="30" stroke="none"/>
    <rect x="0.25" y="0.25" width="29.5" height="29.5" fill="none"/>
  </g>
</svg>
