<svg id="Group_13397" data-name="Group 13397" xmlns="http://www.w3.org/2000/svg" width="23" height="23" viewBox="0 0 23 23">
  <g id="Ellipse_1108" data-name="Ellipse 1108" fill="none" stroke="#039" stroke-width="0.7">
    <circle cx="11.5" cy="11.5" r="11.5" stroke="none"/>
    <circle cx="11.5" cy="11.5" r="11.15" fill="none"/>
  </g>
  <g id="Union_9" data-name="Union 9" transform="translate(7 4.5)" fill="none">
    <path d="M2.776,14a.7.7,0,0,1,0-1.4H6.223a.7.7,0,1,1,0,1.4Zm.3-2.8a1,1,0,0,1-1-1V8.386A4.561,4.561,0,0,1,4.5,0,4.561,4.561,0,0,1,6.923,8.385V10.2a1,1,0,0,1-1,1Z" stroke="none"/>
    <path d="M 5.922900199890137 10.49960041046143 C 6.08827018737793 10.49960041046143 6.222799777984619 10.36507034301758 6.222799777984619 10.19970035552979 L 6.222799777984619 8.004220008850098 L 6.54286003112793 7.797389984130859 C 7.643119812011719 7.086329936981201 8.300000190734863 5.872509956359863 8.300000190734863 4.550400257110596 C 8.300000190734863 2.427280187606812 6.595330238342285 0.7000001668930054 4.5 0.7000001668930054 C 2.404670000076294 0.7000001668930054 0.699999988079071 2.427280187606812 0.699999988079071 4.550400257110596 C 0.699999988079071 5.872280120849609 1.356989979743958 7.086510181427002 2.45743989944458 7.798480033874512 L 2.777199983596802 8.005350112915039 L 2.777199983596802 10.19970035552979 C 2.777199983596802 10.36507034301758 2.911730051040649 10.49960041046143 3.077100038528442 10.49960041046143 L 5.922900199890137 10.49960041046143 M 6.222599983215332 13.9995002746582 L 2.77649998664856 13.9995002746582 C 2.390399932861328 13.9995002746582 2.077199935913086 13.68630027770996 2.077199935913086 13.30020046234131 C 2.077199935913086 12.91320037841797 2.390399932861328 12.60000038146973 2.77649998664856 12.60000038146973 L 6.222599983215332 12.60000038146973 C 6.609600067138672 12.60000038146973 6.922800064086914 12.91320037841797 6.922800064086914 13.30020046234131 C 6.922800064086914 13.68630027770996 6.609600067138672 13.9995002746582 6.222599983215332 13.9995002746582 Z M 5.922900199890137 11.19960021972656 L 3.077100038528442 11.19960021972656 C 2.524499893188477 11.19960021972656 2.077199935913086 10.75230026245117 2.077199935913086 10.19970035552979 L 2.077199935913086 8.386199951171875 C 0.828000009059906 7.578000068664551 0 6.163199901580811 0 4.550400257110596 C 0 2.034900188446045 2.012399911880493 1.373290956507844e-07 4.5 1.373290956507844e-07 C 6.987599849700928 1.373290956507844e-07 9 2.034900188446045 9 4.550400257110596 C 9 6.162300109863281 8.171999931335449 7.578000068664551 6.922800064086914 8.385299682617188 L 6.922800064086914 10.19970035552979 C 6.922800064086914 10.75230026245117 6.475500106811523 11.19960021972656 5.922900199890137 11.19960021972656 Z" stroke="none" fill="#039"/>
  </g>
</svg>
