<svg id="Group_13365" data-name="Group 13365" xmlns="http://www.w3.org/2000/svg" width="24.468" height="24.468" viewBox="0 0 24.468 24.468">
  <path id="Path_16249" data-name="Path 16249" d="M173.891,408.939H153.5a1.047,1.047,0,0,1-.721-.3,1.022,1.022,0,0,1-.3-.724v-20.39a1.015,1.015,0,0,0-.3-.724,1.028,1.028,0,0,0-1.442,0,1.015,1.015,0,0,0-.3.724v20.39a3.058,3.058,0,0,0,3.059,3.059h20.39a1.051,1.051,0,0,0,.72-.3,1.025,1.025,0,0,0,0-1.448A1.038,1.038,0,0,0,173.891,408.939Z" transform="translate(-150.442 -386.509)" fill="#44c8f5"/>
  <path id="Path_16250" data-name="Path 16250" d="M161.182,403.321a1.052,1.052,0,0,0,.72-.3,1.022,1.022,0,0,0,.3-.724v-7.137a1.02,1.02,0,1,0-2.04,0V402.3a1.022,1.022,0,0,0,.3.724A1.053,1.053,0,0,0,161.182,403.321Z" transform="translate(-145.889 -382.931)" fill="#039"/>
  <path id="Path_16251" data-name="Path 16251" d="M155.628,403.321a1.052,1.052,0,0,0,.72-.3,1.023,1.023,0,0,0,.3-.724v-7.137a1.02,1.02,0,1,0-2.04,0V402.3a1.022,1.022,0,0,0,.3.724A1.053,1.053,0,0,0,155.628,403.321Z" transform="translate(-148.491 -382.931)" fill="#039"/>
  <path id="Path_16252" data-name="Path 16252" d="M163.959,404.948a1.058,1.058,0,0,0,.721-.3,1.027,1.027,0,0,0,.3-.724V391.694a1.02,1.02,0,1,0-2.04,0v12.234a1.022,1.022,0,0,0,.3.724A1.055,1.055,0,0,0,163.959,404.948Z" transform="translate(-144.588 -384.558)" fill="#44c8f5"/>
  <path id="Path_16253" data-name="Path 16253" d="M158.4,404.948a1.052,1.052,0,0,0,.72-.3,1.022,1.022,0,0,0,.3-.724V391.694a1.02,1.02,0,1,0-2.04,0v12.234a1.022,1.022,0,0,0,.3.724A1.052,1.052,0,0,0,158.4,404.948Z" transform="translate(-147.19 -384.558)" fill="#44c8f5"/>
</svg>
