<svg id="medicines" xmlns="http://www.w3.org/2000/svg" width="24" height="24" viewBox="0 0 24 24">
  <g id="Group_20083" data-name="Group 20083" transform="translate(-30 -328)">
    <g id="Group_20082" data-name="Group 20082" transform="translate(33.375 332.063)">
      <path id="Path_20839" data-name="Path 20839" d="M244.537,32.3h0a4.348,4.348,0,0,0-3.136,1.35,4.7,4.7,0,0,0-1.3,3.253v.673a.445.445,0,1,0,.89,0V36.9a3.756,3.756,0,0,1,1.038-2.6,3.479,3.479,0,0,1,2.51-1.077,3.617,3.617,0,0,1,3.548,3.684v3.53h-4.256a.462.462,0,0,0,0,.923h4.259v3.53a3.763,3.763,0,0,1-1.038,2.6,3.473,3.473,0,0,1-2.51,1.077,3.437,3.437,0,0,1-1.627-.408.437.437,0,0,0-.6.2.47.47,0,0,0,.189.619,4.285,4.285,0,0,0,2.035.511,4.348,4.348,0,0,0,3.136-1.35,4.7,4.7,0,0,0,1.3-3.253V36.9A4.528,4.528,0,0,0,244.537,32.3Z" transform="translate(-231.784 -32.3)" fill="#039"/>
      <path id="Path_20840" data-name="Path 20840" d="M37.9,187.9a5.4,5.4,0,0,0,0,10.795h0a5.4,5.4,0,1,0,0-10.795Zm0,.886a4.515,4.515,0,0,1,4.489,4.067H33.408A4.515,4.515,0,0,1,37.9,188.786Zm0,9.023a4.515,4.515,0,0,1-4.489-4.066h8.978A4.515,4.515,0,0,1,37.9,197.809Z" transform="translate(-32.5 -181.512)" fill="#44c8f5"/>
    </g>
    <g id="Rectangle_9230" data-name="Rectangle 9230" transform="translate(32 330)" fill="none" stroke="#707070" stroke-width="0.5" opacity="0">
      <rect width="21" height="21" stroke="none"/>
      <rect x="0.25" y="0.25" width="20.5" height="20.5" fill="none"/>
    </g>
  </g>
  <rect id="Rectangle_9536" data-name="Rectangle 9536" width="24" height="24" fill="none"/>
</svg>
