<svg xmlns="http://www.w3.org/2000/svg" width="24" height="24" viewBox="0 0 24 24">
  <g id="Group_22311" data-name="Group 22311" transform="translate(-822 -2513)">
    <rect id="Rectangle_9585" data-name="Rectangle 9585" width="24" height="24" transform="translate(822 2513)" fill="#fff"/>
    <g id="Group_22253" data-name="Group 22253" transform="translate(696.537 2169)">
      <path id="Icon_ionic-ios-heart-empty" data-name="Icon ionic-ios-heart-empty" d="M14.552,3.938h-.037a4.183,4.183,0,0,0-3.493,1.912A4.183,4.183,0,0,0,7.53,3.938H7.493A4.157,4.157,0,0,0,3.375,8.092a8.95,8.95,0,0,0,1.757,4.879,30.8,30.8,0,0,0,5.89,5.673,30.8,30.8,0,0,0,5.89-5.673A8.95,8.95,0,0,0,18.67,8.092,4.157,4.157,0,0,0,14.552,3.938Zm1.53,8.427a28.2,28.2,0,0,1-5.059,4.986,28.242,28.242,0,0,1-5.059-4.989A7.932,7.932,0,0,1,4.4,8.092,3.12,3.12,0,0,1,7.5,4.971h.033a3.083,3.083,0,0,1,1.511.4,3.213,3.213,0,0,1,1.118,1.048,1.033,1.033,0,0,0,1.728,0,3.245,3.245,0,0,1,1.118-1.048,3.083,3.083,0,0,1,1.511-.4h.033a3.12,3.12,0,0,1,3.1,3.122A8.032,8.032,0,0,1,16.082,12.365Z" transform="translate(125.088 345.063)" fill="#44c8f5"/>
      <rect id="Rectangle_9584" data-name="Rectangle 9584" width="10.458" height="7.321" transform="translate(136.065 353.739)" fill="#fff"/>
      <path id="Path_21126" data-name="Path 21126" d="M-32.2,2489.3h1.572l.491-.885.786,3s1.769-4.079,1.769-3.882,1.425,5.652,1.671,5.652l1.31-2.752.607-1.13h3.2" transform="translate(166.7 -2133.692)" fill="none" stroke="#039" stroke-linecap="round" stroke-linejoin="round" stroke-width="1"/>
    </g>
  </g>
</svg>
