<svg xmlns="http://www.w3.org/2000/svg" width="20.006" height="22.793" viewBox="0 0 20.006 22.793">
  <g id="Group_21593" data-name="Group 21593" transform="translate(-60.997 -365)">
    <g id="Group_11591" data-name="Group 11591" transform="translate(-289.003 123.508)">
      <g id="Path_1009" data-name="Path 1009" transform="translate(350 241.492)">
        <path id="Path_18730" data-name="Path 18730" d="M369.993,254.47v-8.551a.575.575,0,0,0-.356-.526l-9.419-3.857a.569.569,0,0,0-.443,0l-9.419,3.857a.567.567,0,0,0-.356.526v8.552a10,10,0,0,0,20.006,0Zm-10,8.671a8.764,8.764,0,0,1-8.84-8.673V246.3l8.84-3.62,8.836,3.62v8.17A8.768,8.768,0,0,1,359.991,263.142Z" transform="translate(-350 -241.492)" fill="#44c8f5"/>
      </g>
      <g id="Path_917" data-name="Path 917" transform="translate(355.185 249.232)">
        <path id="Path_18731" data-name="Path 18731" d="M361.583,249.092a2.332,2.332,0,0,1,2.342,2.3c0,2.321-4.306,4.619-4.306,4.619s-4.306-2.332-4.306-4.619a2.321,2.321,0,0,1,2.342-2.3h0a2.333,2.333,0,0,1,1.964,1.036A2.355,2.355,0,0,1,361.583,249.092Z" transform="translate(-354.593 -248.385)" fill="#fff"/>
        <path id="Path_18732" data-name="Path 18732" d="M359.691,256.786a.732.732,0,0,1-.349-.088c-.478-.26-4.677-2.611-4.677-5.238a3.037,3.037,0,0,1,3.062-3,2.989,2.989,0,0,1,1.966.691,3.085,3.085,0,0,1,1.955-.691h.011a3.059,3.059,0,0,1,3.059,3c0,2.666-4.2,4.988-4.684,5.244A.722.722,0,0,1,359.691,256.786Zm-1.946-6.916h-.012a1.609,1.609,0,0,0-1.626,1.59c0,1.258,2.072,2.912,3.586,3.8,1.513-.881,3.583-2.524,3.583-3.8a1.624,1.624,0,0,0-1.626-1.59h0a1.625,1.625,0,0,0-1.356.717.676.676,0,0,1-.6.319.72.72,0,0,1-.6-.322A1.6,1.6,0,0,0,357.745,249.87Z" transform="translate(-354.665 -248.456)" fill="#039"/>
      </g>
    </g>
  </g>
</svg>
