<svg xmlns="http://www.w3.org/2000/svg" width="25.699" height="23.793" viewBox="0 0 25.699 23.793">
  <g id="Group_21601" data-name="Group 21601" transform="translate(-58.151 -367)">
    <g id="Group_14372" data-name="Group 14372" transform="translate(-11.85 -2158)">
      <g id="Group_548" data-name="Group 548" transform="translate(72.834 2532.623)">
        <path id="Path_1036" data-name="Path 1036" d="M75.816,228.543a.668.668,0,0,0-.668.668v14.167H69.807v-5.8a3.339,3.339,0,1,0-6.678,0v5.8H57.787V229.211a.668.668,0,1,0-1.335,0v14.835a.668.668,0,0,0,.668.668H63.8a.667.667,0,0,0,.665-.616.5.5,0,0,0,0-.052v-6.469a2,2,0,0,1,4.007,0v6.469a.488.488,0,0,0,0,.051.667.667,0,0,0,.665.616h6.677a.668.668,0,0,0,.668-.668V229.211A.668.668,0,0,0,75.816,228.543Z" transform="translate(-56.452 -228.543)" fill="#44c8f5"/>
      </g>
      <g id="Group_546" data-name="Group 546" transform="translate(70 2525)">
        <path id="Path_1035" data-name="Path 1035" d="M25.425,36.846,13.243,27.926a.668.668,0,0,0-.789,0L.273,36.846a.668.668,0,1,0,.789,1.078l11.787-8.63,11.787,8.63a.668.668,0,0,0,.789-1.077Z" transform="translate(0.001 -27.797)" fill="#039"/>
      </g>
    </g>
  </g>
</svg>
