<svg xmlns="http://www.w3.org/2000/svg" width="21.382" height="23.67" viewBox="0 0 21.382 23.67">
  <g id="Group_22920" data-name="Group 22920" transform="translate(11738.5 14379.266)">
    <path id="Path_21282" data-name="Path 21282" d="M22.25,21.669H16.361a1.21,1.21,0,0,0,.113-.62A8.257,8.257,0,0,0,22.136,13.4a8.172,8.172,0,0,0-2.378-5.582l.679-.62a.524.524,0,0,0,.226-.413l.793-2.171a1.056,1.056,0,0,0-.226-1.034L18.853,1.41A.961.961,0,0,0,17.72,1.2l-2.265.62A.893.893,0,0,0,15,2.03L7.756,8.646a.94.94,0,0,0,0,1.447h0L6.171,11.54a.94.94,0,0,0,0,1.447h0l2.378,2.171a1.168,1.168,0,0,0,1.585,0l1.585-1.447h0a1.168,1.168,0,0,0,1.585,0h0l4.982-4.445a5.755,5.755,0,0,1,1.7,4.135,6.254,6.254,0,0,1-3.963,5.582,3.544,3.544,0,0,0-4.643-1.034,2.859,2.859,0,0,0-1.132,1.137A4.536,4.536,0,0,1,9,18.465a1.014,1.014,0,0,0,.793-.93A1.026,1.026,0,0,0,8.662,16.5H4.132a1.038,1.038,0,1,0,0,2.067H5.6a10.692,10.692,0,0,0,4.19,2.584,4.136,4.136,0,0,0,.113.517H4.132a1.038,1.038,0,1,0,0,2.067H22.25A1.026,1.026,0,0,0,23.382,22.7,1.087,1.087,0,0,0,22.25,21.669ZM9.341,12.987l-.786-.717-.007-.006.793-.724.793.724Z" transform="translate(-11741 -14379.832)" fill="#fff" stroke="#44c8f5" stroke-width="1"/>
    <path id="Path_21283" data-name="Path 21283" d="M9.341,12.987l-.786-.717-.007-.006.793-.724.793.724Z" transform="translate(-11741 -14379.832)" fill="#fff" stroke="#039" stroke-width="1"/>
    <g id="Ellipse_1409" data-name="Ellipse 1409" transform="translate(-11729.399 -14360.7)" fill="#fff" stroke="#039" stroke-width="1">
      <circle cx="1.6" cy="1.6" r="1.6" stroke="none"/>
      <circle cx="1.6" cy="1.6" r="1.1" fill="none"/>
    </g>
  </g>
</svg>
