<svg xmlns="http://www.w3.org/2000/svg" width="12.792" height="20.335">
    <path data-name="Path 20238" d="M34.477 19.222a6.412 6.412 0 0 0-2.82-5.182V8.5a4.5 4.5 0 0 0 .94-2.751.752.752 0 0 0-.752-.749h-7.52a.752.752 0 0 0-.752.752 4.5 4.5 0 0 0 .94 2.752v5.536a6.412 6.412 0 0 0-2.821 5.3.752.752 0 0 0 .752.752h4.888v4.5a.752.752 0 1 0 1.5 0v-4.5h4.9a.755.755 0 0 0 .745-.87zm-11.221-.639a4.91 4.91 0 0 1 2.4-3.484.746.746 0 0 0 .363-.756V8.234a.751.751 0 0 0-.188-.5 3.009 3.009 0 0 1-.659-1.234H31a3.009 3.009 0 0 1-.656 1.231.752.752 0 0 0-.188.5V14.3a.752.752 0 0 0 .362.8 4.913 4.913 0 0 1 2.4 3.484h-9.663z" transform="translate(-21.692 -5)" style="fill:#033399"/>
</svg>
