<svg xmlns="http://www.w3.org/2000/svg" width="12.793" height="20.334" viewBox="0 0 12.793 20.334">
  <path id="Path_20790" data-name="Path 20790" d="M3180.641-3794.418v-4.495h-4.888a.752.752,0,0,1-.752-.752,6.412,6.412,0,0,1,2.822-5.3v-5.536a4.491,4.491,0,0,1-.94-2.752.752.752,0,0,1,.751-.751h7.521a.752.752,0,0,1,.752.751,4.494,4.494,0,0,1-.94,2.751v5.537a6.41,6.41,0,0,1,2.82,5.182.755.755,0,0,1-.744.865h-4.9v4.495a.752.752,0,0,1-.751.752A.752.752,0,0,1,3180.641-3794.418Z" transform="translate(-3175 3814)" fill="#033399"/>
</svg>
