<svg id="information" xmlns="http://www.w3.org/2000/svg" width="12" height="12" viewBox="0 0 12 12">
  <g id="Group_12256" data-name="Group 12256">
    <g id="Group_12255" data-name="Group 12255">
      <path id="Path_16699" data-name="Path 16699" d="M6,0a6,6,0,1,0,6,6A6,6,0,0,0,6,0ZM6,11.063A5.062,5.062,0,1,1,11.063,6,5.06,5.06,0,0,1,6,11.063Z" fill="#039"/>
    </g>
  </g>
  <g id="Group_12258" data-name="Group 12258" transform="translate(5.55 5.121)">
    <g id="Group_12257" data-name="Group 12257">
      <path id="Path_16700" data-name="Path 16700" d="M236.45,214.33a.45.45,0,0,0-.45.45v2.9a.45.45,0,1,0,.9,0v-2.9A.45.45,0,0,0,236.45,214.33Z" transform="translate(-236 -214.33)" fill="#039"/>
    </g>
  </g>
  <g id="Group_12260" data-name="Group 12260" transform="translate(5.392 3.199)">
    <g id="Group_12259" data-name="Group 12259">
      <circle id="Ellipse_632" data-name="Ellipse 632" cx="0.608" cy="0.608" r="0.608" fill="#039"/>
    </g>
  </g>
</svg>
