<svg xmlns="http://www.w3.org/2000/svg" width="24" height="24" viewBox="0 0 24 24">
  <g id="Group_22342" data-name="Group 22342" transform="translate(-22 -169.545)">
    <rect id="Rectangle_9520" data-name="Rectangle 9520" width="24" height="24" transform="translate(22 169.545)" fill="#fff"/>
    <g id="Group_22270" data-name="Group 22270" transform="translate(0 -2)">
      <g id="Group_20918" data-name="Group 20918" transform="translate(31.662 172.545)">
        <g id="Ellipse_1251" data-name="Ellipse 1251" transform="translate(0)" fill="none" stroke="#44c8f5" stroke-width="1.3">
          <ellipse cx="5.729" cy="5.729" rx="5.729" ry="5.729" stroke="none"/>
          <ellipse cx="5.729" cy="5.729" rx="5.079" ry="5.079" fill="none"/>
        </g>
        <path id="loan" d="M23.822,27.973a.326.326,0,1,0,0,.652h.652a.976.976,0,0,1,.921.663H23.822a.326.326,0,1,0,0,.652h1.567a.976.976,0,0,1-.915.642h-.652a.326.326,0,0,0-.326.326.015.015,0,0,0,0,.005.322.322,0,0,0,.094.236l1.957,1.957a.326.326,0,1,0,.461-.461l-1.422-1.422A1.629,1.629,0,0,0,26.07,29.94h.362a.326.326,0,1,0,0-.652h-.358a1.618,1.618,0,0,0-.3-.663h.66a.326.326,0,1,0,0-.652H23.822Z" transform="translate(-19.398 -24.511)" fill="#039" stroke="#039" stroke-width="0.25"/>
      </g>
      <g id="Group_21890" data-name="Group 21890" transform="translate(22 182.514)">
        <g id="Group_11599" data-name="Group 11599" transform="translate(2.016 1.875)">
          <g id="Group_11598" data-name="Group 11598">
            <path id="Path_15600" data-name="Path 15600" d="M43.469,301a.469.469,0,1,0,.469.469A.469.469,0,0,0,43.469,301Z" transform="translate(-43 -301)" fill="#44c8f5"/>
          </g>
        </g>
        <g id="Group_11601" data-name="Group 11601" transform="translate(0 0)">
          <g id="Group_11600" data-name="Group 11600">
            <path id="Path_15601" data-name="Path 15601" d="M23.231,264.428a1.809,1.809,0,0,0-1.652-.221l-.012,0-4.43,1.738a1.872,1.872,0,0,0-1.856-2.137H12.246a.469.469,0,0,1-.23-.06l-2.477-1.393a3.284,3.284,0,0,0-1.609-.422h-3.1v-.469A.469.469,0,0,0,4.359,261H.469a.469.469,0,0,0-.469.469v8.438a.469.469,0,0,0,.469.469H4.359a.469.469,0,0,0,.469-.469v-.469h.353l4.472,1.81a7.3,7.3,0,0,0,5.765-.122l.007,0,7.454-3.544a1.807,1.807,0,0,0,.353-3.151Zm-19.341,5.01H.937v-7.5H3.891Zm18.625-2.724-.027.012-7.462,3.548a6.367,6.367,0,0,1-5.021.105l-4.557-1.845a.471.471,0,0,0-.176-.034H4.828v-5.625h3.1a2.345,2.345,0,0,1,1.149.3l2.477,1.393a1.408,1.408,0,0,0,.69.181h3.036a.937.937,0,0,1,.491,1.735h0a.463.463,0,0,0-.1.053.933.933,0,0,1-.39.085H10.516a1.408,1.408,0,0,0-1.406,1.406.469.469,0,0,0,.937,0,.469.469,0,0,1,.469-.469h4.765a1.868,1.868,0,0,0,.9-.229l5.726-2.247a.869.869,0,0,1,.613,1.627Z" transform="translate(0 -261)" fill="#44c8f5"/>
          </g>
        </g>
        <g id="Group_11603" data-name="Group 11603" transform="translate(2.016 3.75)">
          <g id="Group_11602" data-name="Group 11602">
            <path id="Path_15602" data-name="Path 15602" d="M43.469,341a.469.469,0,0,0-.469.469v2.812a.469.469,0,0,0,.938,0v-2.812A.469.469,0,0,0,43.469,341Z" transform="translate(-43 -341)" fill="#44c8f5"/>
          </g>
        </g>
      </g>
    </g>
  </g>
</svg>
