<svg id="Group_21933" data-name="Group 21933" xmlns="http://www.w3.org/2000/svg" width="23.555" height="25.508" viewBox="0 0 23.555 25.508">
  <path id="Path_21218" data-name="Path 21218" d="M50.542,9.351a1.07,1.07,0,0,0-1.11-1.02h-.706a1.07,1.07,0,0,0-1.11,1.02v2.084H45.334a1.07,1.07,0,0,0-1.11,1.02V13.1a1.07,1.07,0,0,0,1.11,1.02h2.281v2.084a1.07,1.07,0,0,0,1.11,1.02h.706a1.07,1.07,0,0,0,1.11-1.02V14.121h2.281a1.07,1.07,0,0,0,1.11-1.02v-.647a1.07,1.07,0,0,0-1.11-1.02H50.542Zm2.281,2.831a.289.289,0,0,1,.3.273V13.1a.289.289,0,0,1-.3.273H50.138a.39.39,0,0,0-.4.374v2.457a.289.289,0,0,1-.3.273h-.706a.289.289,0,0,1-.3-.273V13.748a.39.39,0,0,0-.4-.374H45.334a.289.289,0,0,1-.3-.273v-.647a.289.289,0,0,1,.3-.273h2.684a.39.39,0,0,0,.4-.374V9.351a.289.289,0,0,1,.3-.273h.706a.289.289,0,0,1,.3.273v2.457a.39.39,0,0,0,.4.374Zm5.5-6.65A16.747,16.747,0,0,1,52.8,4.33a15.893,15.893,0,0,1-3.436-1.914.43.43,0,0,0-.508,0,15.115,15.115,0,0,1-3.276,1.9,16.017,16.017,0,0,1-5.733,1.249.388.388,0,0,0-.389.373v4.725a12.324,12.324,0,0,0,1.539,5.981A14.323,14.323,0,0,0,48.938,23.2a.434.434,0,0,0,.281,0,14.323,14.323,0,0,0,7.943-6.549A12.324,12.324,0,0,0,58.7,10.667V5.9a.388.388,0,0,0-.383-.373Zm-.424,5.135a11.629,11.629,0,0,1-1.452,5.644,13.517,13.517,0,0,1-7.363,6.137,13.518,13.518,0,0,1-7.363-6.137,11.629,11.629,0,0,1-1.452-5.644V6.3A16.827,16.827,0,0,0,45.913,5a15.972,15.972,0,0,0,3.2-1.813,16.753,16.753,0,0,0,3.358,1.829,17.57,17.57,0,0,0,5.421,1.241Zm2.683-6.7a.94.94,0,0,0-.663-.225A14.785,14.785,0,0,1,53.662,2.71,13.565,13.565,0,0,1,49.706.255a.947.947,0,0,0-1.253.012A12.81,12.81,0,0,1,44.68,2.713a14.071,14.071,0,0,1-6.419,1.043.937.937,0,0,0-.674.218.8.8,0,0,0-.286.606v6.293a14.18,14.18,0,0,0,1.772,6.882,16.512,16.512,0,0,0,9.883,7.761.435.435,0,0,0,.244,0,16.512,16.512,0,0,0,9.883-7.761,14.18,14.18,0,0,0,1.772-6.882v-6.3a.8.8,0,0,0-.279-.6Zm-.529,6.9a13.484,13.484,0,0,1-1.685,6.544,15.7,15.7,0,0,1-9.285,7.35,15.7,15.7,0,0,1-9.285-7.35,13.484,13.484,0,0,1-1.685-6.544V4.579a.074.074,0,0,1,.027-.057.087.087,0,0,1,.058-.021H38.2a14.94,14.94,0,0,0,6.816-1.109,13.62,13.62,0,0,0,4.011-2.6.089.089,0,0,1,.118,0,14.375,14.375,0,0,0,4.192,2.6,15.652,15.652,0,0,0,6.621,1.1.091.091,0,0,1,.063.021.074.074,0,0,1,.026.057Z" transform="translate(-37.301 -0.024)" fill="#44c8f5"/>
  <path id="Path_21219" data-name="Path 21219" d="M50.542,9.351a1.07,1.07,0,0,0-1.11-1.02h-.706a1.07,1.07,0,0,0-1.11,1.02v2.084H45.334a1.07,1.07,0,0,0-1.11,1.02V13.1a1.07,1.07,0,0,0,1.11,1.02h2.281v2.084a1.07,1.07,0,0,0,1.11,1.02h.706a1.07,1.07,0,0,0,1.11-1.02V14.121h2.281a1.07,1.07,0,0,0,1.11-1.02v-.647a1.07,1.07,0,0,0-1.11-1.02H50.542Zm2.281,2.831a.289.289,0,0,1,.3.273V13.1a.289.289,0,0,1-.3.273H50.138a.39.39,0,0,0-.4.374v2.457a.289.289,0,0,1-.3.273h-.706a.289.289,0,0,1-.3-.273V13.748a.39.39,0,0,0-.4-.374H45.334a.289.289,0,0,1-.3-.273v-.647a.289.289,0,0,1,.3-.273h2.684a.39.39,0,0,0,.4-.374V9.351a.289.289,0,0,1,.3-.273h.706a.289.289,0,0,1,.3.273v2.457a.39.39,0,0,0,.4.374Zm-14.714-7.6C38.108,4.557,38.2,4.5,38.109,4.579Z" transform="translate(-37.301 -0.024)" fill="#039"/>
</svg>
