<svg xmlns="http://www.w3.org/2000/svg" width="21.974" height="26.437" viewBox="0 0 21.974 26.437">
  <g id="Group_21585" data-name="Group 21585" transform="translate(-279.033 -358.965)">
    <path id="Subtraction_4" data-name="Subtraction 4" d="M12.5,32.188A12.5,12.5,0,0,1,3.661,10.85l.078-.077.724.7A11.495,11.495,0,0,0,12.5,31.189a11.526,11.526,0,0,0,8.51-3.773l.724.7c-.134.147-.267.285-.4.413A12.418,12.418,0,0,1,12.5,32.188Z" transform="translate(279.133 348.424)" fill="#44c8f5" stroke="#44c8f5" stroke-width="0.2"/>
    <path id="Subtraction_5" data-name="Subtraction 5" d="M8.5,18.716a8,8,0,0,1,0-16v8.906h7.949A7.989,7.989,0,0,1,8.5,18.716Z" transform="translate(283.133 357.396)" fill="none" stroke="#44c8f5" stroke-width="1.2"/>
    <g id="Subtraction_6" data-name="Subtraction 6" transform="translate(285.133 356.249)" fill="none">
      <path d="M8.5,10.77V2.716a7.24,7.24,0,0,1,7.189,8.054Z" stroke="none"/>
      <path d="M 14.52256298065186 9.570182800292969 C 14.35116386413574 6.823708057403564 12.33391571044922 4.569263935089111 9.69951343536377 4.035869121551514 L 9.69951343536377 9.570182800292969 L 14.52256298065186 9.570182800292969 M 15.68845367431641 10.77018260955811 L 8.499513626098633 10.77018260955811 L 8.499513626098633 2.716063022613525 C 12.49489307403564 2.716063022613525 15.73437309265137 5.954442977905273 15.73437309265137 9.949823379516602 C 15.73437309265137 10.2271032333374 15.71892356872559 10.50085258483887 15.68845367431641 10.77018260955811 Z" stroke="none" fill="#039"/>
    </g>
    <path id="Path_20995" data-name="Path 20995" d="M4229.951-2121.664v4.853" transform="translate(-3938.318 2501.612)" fill="#44c8f5" stroke="#44c8f5" stroke-width="1.2"/>
    <path id="Path_20996" data-name="Path 20996" d="M4229.951-2118.465h7.948" transform="translate(-3942.318 2503.266)" fill="#44c8f5" stroke="#44c8f5" stroke-width="1.2"/>
  </g>
</svg>
