<svg id="ipo_1_" data-name="ipo (1)" xmlns="http://www.w3.org/2000/svg" width="16.537" height="16.827" viewBox="0 0 16.537 16.827">
  <g id="Group_509" data-name="Group 509" transform="translate(0)">
    <g id="Group_508" data-name="Group 508">
      <path id="Path_946" data-name="Path 946" d="M20.6,4.96,18.273,2.327a.329.329,0,0,0-.246-.111H9.033V1.131a1.131,1.131,0,1,0-2.263,0v13.15H6.075a.739.739,0,0,0-.738.738V16.17H4.746a.329.329,0,1,0,0,.657h6.268a.329.329,0,1,0,0-.657h-.551V15.02a.739.739,0,0,0-.738-.738H9.033V9.618a.329.329,0,0,0-.657,0v4.664H7.427V9.594h10.6a.328.328,0,0,0,.246-.111L20.6,6.85A1.43,1.43,0,0,0,20.6,4.96ZM8.7,14.939h1.02a.081.081,0,0,1,.081.081V16.17H5.994V15.02a.081.081,0,0,1,.081-.081H8.7ZM7.427,1.131a.474.474,0,1,1,.948,0V2.215H7.427ZM20.1,6.415,17.878,8.937H7.427V2.873h10.45L20.1,5.395A.772.772,0,0,1,20.1,6.415Z" transform="translate(-4.417)" fill="#44c8f5"/>
    </g>
  </g>
  <g id="Group_513" data-name="Group 513" transform="translate(9.31 4.323)">
    <g id="Group_512" data-name="Group 512">
      <path id="Path_948" data-name="Path 948" d="M324.685,131.528h-1.061a.62.62,0,0,0-.619.619v2.146a.62.62,0,0,0,.619.619h1.061a.62.62,0,0,0,.619-.619v-2.146A.62.62,0,0,0,324.685,131.528Zm-.038,2.728h-.985v-2.071h.985Z" transform="translate(-323.005 -131.528)" fill="#039"/>
    </g>
  </g>
  <g id="Group_515" data-name="Group 515" transform="translate(6.432 4.323)">
    <g id="Group_514" data-name="Group 514">
      <path id="Path_949" data-name="Path 949" d="M237.117,131.528h-1.061a.62.62,0,0,0-.619.619V134.5a.329.329,0,0,0,.657,0v-.671h1.023a.62.62,0,0,0,.619-.619v-1.061A.62.62,0,0,0,237.117,131.528Zm-.038,1.642h-.985v-.985h.985Z" transform="translate(-235.437 -131.528)" fill="#039"/>
    </g>
  </g>
  <g id="Group_517" data-name="Group 517" transform="translate(5.103 4.323)">
    <g id="Group_516" data-name="Group 516">
      <path id="Path_950" data-name="Path 950" d="M195.34,131.528a.329.329,0,0,0-.329.329v2.728a.329.329,0,0,0,.657,0v-2.728A.329.329,0,0,0,195.34,131.528Z" transform="translate(-195.011 -131.528)" fill="#039"/>
    </g>
  </g>
</svg>
