<svg xmlns="http://www.w3.org/2000/svg" width="22.981" height="23.384" viewBox="0 0 22.981 23.384">
  <g id="Group_21587" data-name="Group 21587" transform="translate(-277.53 -185.174)">
    <g id="ipo_1_" data-name="ipo (1)" transform="translate(277.53 185.174)">
      <g id="Group_509" data-name="Group 509" transform="translate(0)">
        <g id="Group_508" data-name="Group 508">
          <path id="Path_946" data-name="Path 946" d="M26.9,6.893l-3.23-3.66a.457.457,0,0,0-.342-.155h-12.5V1.572a1.572,1.572,0,1,0-3.144,0V19.848H6.722A1.027,1.027,0,0,0,5.7,20.874v1.6H4.874a.457.457,0,1,0,0,.913h8.711a.457.457,0,1,0,0-.913h-.766v-1.6a1.027,1.027,0,0,0-1.026-1.026h-.961V13.366a.457.457,0,0,0-.913,0v6.481H8.6V13.333H23.33a.456.456,0,0,0,.342-.155l3.23-3.66A1.988,1.988,0,0,0,26.9,6.893ZM10.375,20.761h1.418a.113.113,0,0,1,.113.113v1.6h-5.3v-1.6a.113.113,0,0,1,.113-.113h3.653ZM8.6,1.572a.659.659,0,1,1,1.317,0V3.079H8.6ZM26.218,8.915,23.124,12.42H8.6V3.992H23.124L26.218,7.5A1.073,1.073,0,0,1,26.218,8.915Z" transform="translate(-4.417)" fill="#44c8f5"/>
        </g>
      </g>
      <g id="Group_513" data-name="Group 513" transform="translate(12.938 6.007)">
        <g id="Group_512" data-name="Group 512">
          <path id="Path_948" data-name="Path 948" d="M325.34,131.528h-1.474a.862.862,0,0,0-.861.861v2.983a.862.862,0,0,0,.861.861h1.474a.862.862,0,0,0,.861-.861v-2.983A.862.862,0,0,0,325.34,131.528Zm-.053,3.791h-1.368v-2.877h1.368Z" transform="translate(-323.005 -131.528)" fill="#039"/>
        </g>
      </g>
      <g id="Group_515" data-name="Group 515" transform="translate(8.939 6.007)">
        <g id="Group_514" data-name="Group 514">
          <path id="Path_949" data-name="Path 949" d="M237.772,131.528H236.3a.862.862,0,0,0-.861.861v3.268a.457.457,0,0,0,.913,0v-.933h1.421a.862.862,0,0,0,.861-.861v-1.474A.862.862,0,0,0,237.772,131.528Zm-.053,2.282H236.35v-1.369h1.368Z" transform="translate(-235.437 -131.528)" fill="#039"/>
        </g>
      </g>
      <g id="Group_517" data-name="Group 517" transform="translate(7.092 6.007)">
        <g id="Group_516" data-name="Group 516">
          <path id="Path_950" data-name="Path 950" d="M195.468,131.528a.457.457,0,0,0-.457.457v3.791a.457.457,0,0,0,.913,0v-3.791A.457.457,0,0,0,195.468,131.528Z" transform="translate(-195.011 -131.528)" fill="#039"/>
        </g>
      </g>
    </g>
  </g>
</svg>
