<svg xmlns="http://www.w3.org/2000/svg" width="42.5" height="42.5" viewBox="0 0 42.5 42.5">
  <g id="jackpots_icon" data-name="jackpots icon" transform="translate(10233 -16880)">
    <g id="Group_24031" data-name="Group 24031" transform="translate(-10358.214 16725.785)">
      <path id="Path_23940" data-name="Path 23940" d="M21.25,0A21.25,21.25,0,1,1,0,21.25,21.25,21.25,0,0,1,21.25,0Z" transform="translate(125.214 154.215)" fill="#f6f7fb"/>
    </g>
    <g id="Component_612_27" data-name="Component 612 – 27" transform="translate(-10224 16887)">
      <g id="Rectangle_10322" data-name="Rectangle 10322" transform="translate(0 5)" fill="#fff" stroke="#0d3399" stroke-width="1">
        <rect width="23" height="20" rx="4" stroke="none"/>
        <rect x="0.5" y="0.5" width="22" height="19" rx="3.5" fill="none"/>
      </g>
      <rect id="Rectangle_10324" data-name="Rectangle 10324" width="21" height="12" transform="translate(1 9)" fill="#aceaff"/>
      <line id="Line_692" data-name="Line 692" x2="22.334" transform="translate(0.335 8.992)" fill="none" stroke="#0d3399" stroke-width="1"/>
      <line id="Line_694" data-name="Line 694" y2="12" transform="translate(8 9)" fill="none" stroke="#0d3399" stroke-width="1"/>
      <line id="Line_695" data-name="Line 695" y2="12" transform="translate(15 9)" fill="none" stroke="#0d3399" stroke-width="1"/>
      <line id="Line_696" data-name="Line 696" y2="11" transform="translate(24 3)" fill="none" stroke="#0d3399" stroke-width="1"/>
      <line id="Line_693" data-name="Line 693" x2="22.334" transform="translate(0.335 21.572)" fill="none" stroke="#0d3399" stroke-width="1"/>
      <g id="Rectangle_10323" data-name="Rectangle 10323" transform="translate(22 14)" fill="#fff" stroke="#0d3399" stroke-width="1">
        <rect width="4" height="4" stroke="none"/>
        <rect x="0.5" y="0.5" width="3" height="3" fill="none"/>
      </g>
      <g id="Ellipse_1330" data-name="Ellipse 1330" transform="translate(22)" fill="#fff" stroke="#0d3399" stroke-width="1">
        <circle cx="2" cy="2" r="2" stroke="none"/>
        <circle cx="2" cy="2" r="1.5" fill="none"/>
      </g>
      <text id="_7" data-name="7" transform="translate(4 18)" fill="#0d3399" stroke="rgba(0,0,0,0)" stroke-width="1" font-size="8" font-family="RobotoCondensed-Regular, Roboto"><tspan x="-1.975" y="0">7</tspan></text>
      <text id="_7-2" data-name="7" transform="translate(12 18)" fill="#0d3399" stroke="rgba(0,0,0,0)" stroke-width="1" font-size="8" font-family="RobotoCondensed-Regular, Roboto"><tspan x="-1.975" y="0">7</tspan></text>
      <text id="_7-3" data-name="7" transform="translate(19 18)" fill="#0d3399" stroke="rgba(0,0,0,0)" stroke-width="1" font-size="8" font-family="RobotoCondensed-Regular, Roboto"><tspan x="-1.975" y="0">7</tspan></text>
    </g>
  </g>
</svg>
