<svg xmlns="http://www.w3.org/2000/svg" width="9.135" height="9.135" viewBox="0 0 9.135 9.135">
    <defs>
        <style>
            .cls-1{fill:#29ad00}
        </style>
    </defs>
    <g id="Group_11792" transform="translate(-183 -246)">
        <path id="Path_15939" d="M394.607 748a4.573 4.573 0 1 0 3.229 1.339 4.57 4.57 0 0 0-3.229-1.339zm0 8.374a3.81 3.81 0 1 1 2.69-1.116 3.807 3.807 0 0 1-2.69 1.116z" class="cls-1" transform="translate(-207.04 -502)"/>
        <path id="Path_273" d="M270.645 1566.134l-1.787 1.792-.957-1a.379.379 0 0 0-.137-.1.445.445 0 0 0-.331-.013.459.459 0 0 0-.142.089.491.491 0 0 0-.1.141.423.423 0 0 0-.035.166.444.444 0 0 0 .032.167.474.474 0 0 0 .094.141l.984 1.024a.806.806 0 0 0 .261.183.8.8 0 0 0 .313.073h.014a.771.771 0 0 0 .308-.064.745.745 0 0 0 .261-.175l1.822-1.822a.417.417 0 0 0 .093-.136.454.454 0 0 0 .033-.167.424.424 0 0 0-.032-.162.435.435 0 0 0-.093-.141.457.457 0 0 0-.139-.094.465.465 0 0 0-.328 0 .452.452 0 0 0-.134.098z" class="cls-1" transform="translate(-81.7 -1316.838)"/>
    </g>
</svg>
