<svg id="Group_12094" data-name="Group 12094" xmlns="http://www.w3.org/2000/svg" width="95" height="15" viewBox="0 0 95 15">
  <text id="KYC_-_Completed" data-name="KYC - Completed" transform="translate(14 12)" fill="#29ad00" font-size="10" font-family="Muli-Regular, Muli"><tspan x="0" y="0">KYC - Completed</tspan></text>
  <g id="Group_11792" data-name="Group 11792" transform="translate(0 3.933)">
    <path id="Path_15939" data-name="Path 15939" d="M394.607,748a4.573,4.573,0,1,0,3.229,1.339A4.57,4.57,0,0,0,394.607,748Zm0,8.374a3.81,3.81,0,1,1,2.69-1.116A3.807,3.807,0,0,1,394.607,756.374Z" transform="translate(-390.039 -748)" fill="#29ad00"/>
    <path id="Path_273" data-name="Path 273" d="M270.645,1566.134l-1.787,1.792-.957-1a.379.379,0,0,0-.137-.1.445.445,0,0,0-.331-.013.459.459,0,0,0-.142.089.491.491,0,0,0-.1.141.423.423,0,0,0-.035.166.444.444,0,0,0,.032.167.474.474,0,0,0,.094.141l.984,1.024a.806.806,0,0,0,.261.183.8.8,0,0,0,.313.073h.014a.771.771,0,0,0,.308-.064.745.745,0,0,0,.261-.175l1.822-1.822a.417.417,0,0,0,.093-.136.454.454,0,0,0,.033-.167.424.424,0,0,0-.032-.162.435.435,0,0,0-.093-.141.457.457,0,0,0-.139-.094.465.465,0,0,0-.328,0A.452.452,0,0,0,270.645,1566.134Z" transform="translate(-264.7 -1562.838)" fill="#29ad00"/>
  </g>
</svg>
