<svg xmlns="http://www.w3.org/2000/svg" width="25.207" height="25.207" viewBox="0 0 25.207 25.207">
  <g id="Group_21589" data-name="Group 21589" transform="translate(-168.521 -275.855)">
    <g id="Group_20862" data-name="Group 20862" transform="translate(1353.375 -10195.791)">
      <g id="Group_20861" data-name="Group 20861" transform="translate(0.204 -0.375)">
        <line id="Line_528" data-name="Line 528" x2="2" y2="2" transform="translate(-1180.5 10486.5)" fill="none" stroke="#039" stroke-width="1"/>
        <line id="Line_530" data-name="Line 530" x2="2" y2="2" transform="translate(-1178 10483.5)" fill="none" stroke="#039" stroke-width="1"/>
        <line id="Line_533" data-name="Line 533" x2="2" y2="2" transform="translate(-1175 10481.25)" fill="none" stroke="#039" stroke-width="1"/>
        <line id="Line_529" data-name="Line 529" x2="3" y2="3" transform="translate(-1179.204 10485)" fill="none" stroke="#039" stroke-width="1"/>
        <line id="Line_534" data-name="Line 534" x2="3" y2="3" transform="translate(-1176.704 10482.25)" fill="none" stroke="#039" stroke-width="1"/>
        <line id="Line_536" data-name="Line 536" x2="3" y2="3" transform="translate(-1173.704 10479.75)" fill="none" stroke="#039" stroke-width="1"/>
      </g>
      <path id="Path_20947" data-name="Path 20947" d="M-1181.322,10491.494l-1.307,1.281,2.045,2.105,1.381-1.379" fill="none" stroke="#44c8f5" stroke-width="1"/>
      <path id="Path_20948" data-name="Path 20948" d="M3,0,2.25.75,0,3" transform="translate(-1184.5 10493.5)" fill="none" stroke="#44c8f5" stroke-width="1"/>
      <line id="Line_532" data-name="Line 532" x2="9" y2="9" transform="translate(-1170.5 10473.5)" fill="none" stroke="#44c8f5" stroke-width="1"/>
      <path id="Path_20949" data-name="Path 20949" d="M-1167.151,10476.164l2.632-2.611,3.175,3.135-2.722,2.688" fill="none" stroke="#44c8f5" stroke-width="1"/>
      <path id="Path_20950" data-name="Path 20950" d="M0,0,.375.375,6,6" transform="translate(-1166 10472)" fill="none" stroke="#44c8f5" stroke-width="1"/>
      <path id="Path_20946" data-name="Path 20946" d="M-1181.343,10491.138v-3.908l12.206-12.186,6.232,6.189-12.228,12.018-4.1.134Z" fill="none" stroke="#44c8f5" stroke-width="1"/>
    </g>
  </g>
</svg>
