<svg id="Group_21890" data-name="Group 21890" xmlns="http://www.w3.org/2000/svg" width="27.235" height="27.235" viewBox="0 0 27.235 27.235">
  <path id="Path_21064" data-name="Path 21064" d="M8.433,9V30.5A1.433,1.433,0,0,1,7,29.068V10.433A1.433,1.433,0,0,1,8.433,9Zm22.935,1.433V29.068A1.433,1.433,0,0,1,29.935,30.5H18.467V9H29.935A1.433,1.433,0,0,1,31.368,10.433Z" transform="translate(-5.567 -6.133)" fill="none"/>
  <rect id="Rectangle_9513" data-name="Rectangle 9513" width="6.905" height="24.167" rx="1" transform="translate(4.603 1.151)" fill="#fff"/>
  <path id="Path_21065" data-name="Path 21065" d="M8.584,7H7.867A2.867,2.867,0,0,0,5,9.867V28.5a2.867,2.867,0,0,0,2.867,2.867h.717a.717.717,0,0,0,.717-.717V7.717A.717.717,0,0,0,8.584,7ZM6.433,28.5V9.867A1.433,1.433,0,0,1,7.867,8.433v21.5A1.433,1.433,0,0,1,6.433,28.5ZM29.368,7H17.184a.717.717,0,0,0-.717.717V30.651a.717.717,0,0,0,.717.717H29.368A2.867,2.867,0,0,0,32.235,28.5V9.867A2.867,2.867,0,0,0,29.368,7ZM30.8,28.5a1.433,1.433,0,0,1-1.433,1.433H17.9V8.433H29.368A1.433,1.433,0,0,1,30.8,9.867Z" transform="translate(-5 -5.567)" fill="#44c8f5"/>
  <path id="Path_21066" data-name="Path 21066" d="M34.317,11h-8.6a.717.717,0,0,0-.717.717V15.3a.717.717,0,0,0,.717.717h8.6a.717.717,0,0,0,.717-.717V11.717A.717.717,0,0,0,34.317,11ZM33.6,14.584H26.433v-2.15H33.6Z" transform="translate(-10.666 -6.7)" fill="#44c8f5"/>
  <rect id="Rectangle_9514" data-name="Rectangle 9514" width="6.905" height="2.302" transform="translate(16.111 5.754)" fill="#f9f9f9"/>
  <path id="Path_21067" data-name="Path 21067" d="M27.15,21.433H25.717a.717.717,0,1,1,0-1.433H27.15a.717.717,0,0,1,0,1.433Zm3.584,0H29.3A.717.717,0,0,1,29.3,20h1.433a.717.717,0,1,1,0,1.433Zm3.584,0H32.884a.717.717,0,1,1,0-1.433h1.433a.717.717,0,0,1,0,1.433Zm-7.167,2.15H25.717a.717.717,0,1,1,0-1.433H27.15a.717.717,0,0,1,0,1.433Zm3.584,0H29.3a.717.717,0,0,1,0-1.433h1.433a.717.717,0,1,1,0,1.433Zm3.584,0H32.884a.717.717,0,1,1,0-1.433h1.433a.717.717,0,0,1,0,1.433Zm-7.167,2.15H25.717a.717.717,0,1,1,0-1.433H27.15a.717.717,0,0,1,0,1.433Zm3.584,0H29.3a.717.717,0,0,1,0-1.433h1.433a.717.717,0,1,1,0,1.433Zm0,2.15H29.3a.717.717,0,0,1,0-1.433h1.433a.717.717,0,1,1,0,1.433Zm3.584-2.15H32.884a.717.717,0,1,1,0-1.433h1.433a.717.717,0,0,1,0,1.433Z" transform="translate(-10.666 -9.249)" fill="#44c8f5"/>
  <path id="Path_21068" data-name="Path 21068" d="M33.184,36.433H21.717a.717.717,0,1,1,0-1.433H33.184a.717.717,0,1,1,0,1.433Z" transform="translate(-9.533 -13.499)" fill="#44c8f5"/>
  <path id="Path_21069" data-name="Path 21069" d="M18.9,6.433A2.15,2.15,0,0,0,16.884,5H11.15A2.15,2.15,0,0,0,9.129,6.433,1.985,1.985,0,0,0,9,7.15V30.085a1.985,1.985,0,0,0,.129.717,2.15,2.15,0,0,0,2.021,1.433h5.734A2.15,2.15,0,0,0,18.9,30.8a1.985,1.985,0,0,0,.129-.717V7.15A1.985,1.985,0,0,0,18.9,6.433ZM16.884,30.8H11.15a.717.717,0,0,1-.717-.717V7.15a.717.717,0,0,1,.717-.717h5.734a.717.717,0,0,1,.717.717V30.085A.717.717,0,0,1,16.884,30.8Z" transform="translate(-6.133 -5)" fill="#039"/>
</svg>
