<svg xmlns="http://www.w3.org/2000/svg" width="21.804" height="20.014" viewBox="0 0 21.804 20.014">
  <g id="Group_21606" data-name="Group 21606" transform="translate(-60 -370.716)">
    <g id="Group_14364" data-name="Group 14364" transform="translate(23 -2201.242)">
      <g id="Group_11599" data-name="Group 11599" transform="translate(38.831 2583.882)">
        <g id="Group_11598" data-name="Group 11598">
          <path id="Path_15600" data-name="Path 15600" d="M43.426,301a.426.426,0,1,0,.426.426A.426.426,0,0,0,43.426,301Z" transform="translate(-43 -301)" fill="#44c8f5"/>
        </g>
      </g>
      <g id="Group_11601" data-name="Group 11601" transform="translate(37 2582.178)">
        <g id="Group_11600" data-name="Group 11600">
          <path id="Path_15601" data-name="Path 15601" d="M21.105,264.114a1.644,1.644,0,0,0-1.5-.2l-.011,0L15.569,265.5a1.7,1.7,0,0,0-1.686-1.941H11.125a.426.426,0,0,1-.209-.055l-2.25-1.265a2.984,2.984,0,0,0-1.462-.383H4.386v-.426A.426.426,0,0,0,3.96,261H.426a.426.426,0,0,0-.426.426v7.665a.426.426,0,0,0,.426.426H3.96a.426.426,0,0,0,.426-.426v-.426h.32L8.77,270.31a6.636,6.636,0,0,0,5.237-.111l.006,0,6.772-3.22a1.642,1.642,0,0,0,.32-2.862ZM3.535,268.665H.852v-6.814H3.535Zm16.92-2.474-.025.011-6.78,3.223a5.784,5.784,0,0,1-4.562.1l-4.14-1.676a.427.427,0,0,0-.16-.031h-.4V262.7H7.2a2.131,2.131,0,0,1,1.044.274l2.25,1.266a1.28,1.28,0,0,0,.627.164h2.758a.851.851,0,0,1,.446,1.576h0a.421.421,0,0,0-.089.048.848.848,0,0,1-.354.078H9.554a1.279,1.279,0,0,0-1.278,1.278.426.426,0,0,0,.852,0,.426.426,0,0,1,.426-.426h4.329a1.7,1.7,0,0,0,.814-.208l5.2-2.041a.79.79,0,0,1,.557,1.478Z" transform="translate(0 -261)" fill="#44c8f5"/>
        </g>
      </g>
      <g id="Group_11603" data-name="Group 11603" transform="translate(38.831 2585.585)">
        <g id="Group_11602" data-name="Group 11602">
          <path id="Path_15602" data-name="Path 15602" d="M43.426,341a.426.426,0,0,0-.426.426v2.555a.426.426,0,0,0,.852,0v-2.555A.426.426,0,0,0,43.426,341Z" transform="translate(-43 -341)" fill="#44c8f5"/>
        </g>
      </g>
      <g id="Group_11605" data-name="Group 11605" transform="translate(51.309 2578.771)">
        <g id="Group_11604" data-name="Group 11604">
          <path id="Path_15603" data-name="Path 15603" d="M338.555,181a2.555,2.555,0,1,0,2.555,2.555A2.558,2.558,0,0,0,338.555,181Zm0,4.259a1.7,1.7,0,1,1,1.7-1.7A1.705,1.705,0,0,1,338.555,185.259Z" transform="translate(-336 -181)" fill="#039"/>
        </g>
      </g>
      <g id="Group_11607" data-name="Group 11607" transform="translate(49.605 2571.958)">
        <g id="Group_11606" data-name="Group 11606">
          <path id="Path_15604" data-name="Path 15604" d="M298.555,21a2.555,2.555,0,1,0,2.555,2.555A2.558,2.558,0,0,0,298.555,21Zm0,4.259a1.7,1.7,0,1,1,1.7-1.7A1.705,1.705,0,0,1,298.555,25.259Z" transform="translate(-296 -21)" fill="#039"/>
        </g>
      </g>
      <g id="Group_11609" data-name="Group 11609" transform="translate(44.495 2577.068)">
        <g id="Group_11608" data-name="Group 11608">
          <path id="Path_15605" data-name="Path 15605" d="M178.555,141a2.555,2.555,0,1,0,2.555,2.555A2.558,2.558,0,0,0,178.555,141Zm0,4.259a1.7,1.7,0,1,1,1.7-1.7A1.705,1.705,0,0,1,178.555,145.259Z" transform="translate(-176 -141)" fill="#039"/>
        </g>
      </g>
    </g>
  </g>
</svg>
