<svg xmlns="http://www.w3.org/2000/svg" width="25.054" height="24.896" viewBox="0 0 25.054 24.896">
  <g id="Group_21608" data-name="Group 21608" transform="translate(-167.779 -363.658)">
    <g id="Group_21249" data-name="Group 21249" transform="translate(-140 -180.354)">
      <path id="Path_20987" data-name="Path 20987" d="M-428.5,22372.652l15.119-14.93,1.617,1.691s-2.714,2.191.188,4.852,4.927.3,4.927.3l1.768,1.691-14.819,14.934-1.805-1.879s2.766-2.2,0-4.965a3.408,3.408,0,0,0-5.19,0Z" transform="translate(737 -21812.998)" fill="none" stroke="#44c8f5" stroke-width="1"/>
      <g id="Rectangle_9368" data-name="Rectangle 9368" transform="translate(320.31 551.828) rotate(45)" fill="#fff" stroke="#039" stroke-width="1">
        <rect width="1.402" height="1.402" stroke="none"/>
        <rect x="0.5" y="0.5" width="0.402" height="0.402" fill="none"/>
      </g>
      <g id="Rectangle_9369" data-name="Rectangle 9369" transform="translate(322.292 553.81) rotate(45)" fill="#fff" stroke="#039" stroke-width="1">
        <rect width="1.402" height="1.402" stroke="none"/>
        <rect x="0.5" y="0.5" width="0.402" height="0.402" fill="none"/>
      </g>
      <g id="Rectangle_9370" data-name="Rectangle 9370" transform="translate(324.274 555.877) rotate(45)" fill="#fff" stroke="#039" stroke-width="1">
        <rect width="1.402" height="1.402" stroke="none"/>
        <rect x="0.5" y="0.5" width="0.402" height="0.402" fill="none"/>
      </g>
    </g>
  </g>
</svg>
