<svg xmlns="http://www.w3.org/2000/svg" width="30" height="30" viewBox="0 0 30 30">
  <g id="Group_22124" data-name="Group 22124" transform="translate(-68.938 -1332.781)">
    <g id="Group_21892" data-name="Group 21892" transform="translate(-97.063 257.397)">
      <path id="Path_21071" data-name="Path 21071" d="M18.5,30.577H0L1.876,12.5H16.624l.3,3.016Z" transform="translate(170 1072.106)" fill="#fff" stroke="#44c8f5" stroke-width="1.2"/>
      <path id="Path_21073" data-name="Path 21073" d="M19.834,24.24H30.082l1.3,12.234H18.53Z" transform="translate(160.693 1066.209)" fill="#fff" stroke="#44c8f5" stroke-width="1.2"/>
      <path id="Path_21074" data-name="Path 21074" d="M21.48,20.932a2.742,2.742,0,0,1-2.742-2.742V15.821a.368.368,0,1,1,.732,0V18.2a2.008,2.008,0,1,0,4.017,0V15.821a.368.368,0,0,1,.732,0V18.2a2.889,2.889,0,0,1-.946,2.067A2.56,2.56,0,0,1,21.48,20.932Z" transform="translate(164.173 1076.863)" fill="#039"/>
      <path id="Path_21075" data-name="Path 21075" d="M18.179,8.357a.368.368,0,0,1-.368-.368V4.345a3.613,3.613,0,1,0-7.222,0V7.993a.368.368,0,1,1-.732,0V4.345a4.345,4.345,0,1,1,8.69,0V7.993a.368.368,0,0,1-.368.363Z" transform="translate(165.05 1078.384)" fill="#039" stroke="#039" stroke-width="0.2"/>
    </g>
    <rect id="Rectangle_9543" data-name="Rectangle 9543" width="30" height="30" transform="translate(68.938 1332.781)" fill="none"/>
  </g>
</svg>
