<svg xmlns="http://www.w3.org/2000/svg" width="39.037" height="39.037" viewBox="0 0 39.037 39.037">
  <g id="link_icon" data-name="link icon" transform="translate(0.5 0.5)">
    <path id="Path_18292" data-name="Path 18292" d="M238.686,573.249A19.018,19.018,0,1,1,257.7,592.268,19.018,19.018,0,0,1,238.686,573.249Z" transform="translate(-238.686 -554.231)" fill="none" stroke="#c8dee8" stroke-width="1" opacity="0.63"/>
    <g id="Group_13125" data-name="Group 13125" transform="translate(7.78 7.779)">
      <path id="Path_18293" data-name="Path 18293" d="M257.792,562.01a.987.987,0,0,1,.648.575.879.879,0,0,1-.74,1.175,2.574,2.574,0,0,1-.263.006q-3.677,0-7.353,0a1.739,1.739,0,0,0-1.788,1.3,2.082,2.082,0,0,0-.071.562q-.006,7.628,0,15.254a1.761,1.761,0,0,0,1.848,1.85q7.628,0,15.254,0a1.764,1.764,0,0,0,1.861-1.859q0-3.7,0-7.4a.9.9,0,0,1,.6-.923.876.876,0,0,1,1.152.748c.007.073.006.146.006.22q0,3.687,0,7.374a3.478,3.478,0,0,1-2.371,3.391,3.762,3.762,0,0,1-1.181.2q-7.683.018-15.364.006a3.5,3.5,0,0,1-3.52-3.017.482.482,0,0,0-.04-.1V565.127a.475.475,0,0,0,.04-.1,3.41,3.41,0,0,1,1.983-2.674,7.863,7.863,0,0,1,1.094-.346Z" transform="translate(-246.466 -562.01)" fill="#9bbad1"/>
      <path id="Path_18294" data-name="Path 18294" d="M258.922,570.894a8.321,8.321,0,0,1-.505-.838,4.149,4.149,0,0,1,.2-3.819,8.709,8.709,0,0,1,3.528-3.57,4.306,4.306,0,0,1,5.458.859,4.368,4.368,0,0,1,1.339,3.009,4.731,4.731,0,0,1-.793,2.653,8.74,8.74,0,0,1-3.267,3.113,6.959,6.959,0,0,1-1.267.474.85.85,0,0,1-1.084-.6.864.864,0,0,1,.629-1.086,6.171,6.171,0,0,0,3.734-3.3,2.472,2.472,0,0,0-.632-3.122,3.1,3.1,0,0,0-1.235-.768,2.543,2.543,0,0,0-1.991.277,6.939,6.939,0,0,0-2.981,3.118,2.33,2.33,0,0,0-.064,1.977,2.987,2.987,0,0,0,.179.313c.519-.519,1.016-1.014,1.511-1.512a.906.906,0,0,1,.81-.3.872.872,0,0,1,.545,1.416,4.111,4.111,0,0,1-.3.318q-1.2,1.2-2.406,2.4a1.584,1.584,0,0,1-.186.142c.161.3.312.563.437.833a4.166,4.166,0,0,1-.181,3.86,8.709,8.709,0,0,1-3.527,3.571,4.305,4.305,0,0,1-5.459-.859,4.364,4.364,0,0,1-1.339-3.008,4.761,4.761,0,0,1,.8-2.672,9.226,9.226,0,0,1,3.221-3.108,6.279,6.279,0,0,1,1.171-.48.873.873,0,1,1,.5,1.671,5.333,5.333,0,0,0-2.228,1.429,6.25,6.25,0,0,0-1.432,1.9,2.551,2.551,0,0,0,.643,3.128,3.1,3.1,0,0,0,1.235.769,2.547,2.547,0,0,0,1.991-.276,6.933,6.933,0,0,0,2.981-3.118,2.353,2.353,0,0,0-.024-2.177c-.019-.037-.042-.072-.078-.131l-.954.958c-.186.186-.371.374-.559.558a.883.883,0,1,1-1.247-1.238q1.317-1.321,2.64-2.637A1.215,1.215,0,0,1,258.922,570.894Z" transform="translate(-246.466 -562.01)" fill="#ee9c15"/>
    </g>
  </g>
</svg>
