<svg id="link" xmlns="http://www.w3.org/2000/svg" width="17.795" height="16.572" viewBox="0 0 17.795 16.572">
    <defs>
        <style>
            .cls-1{fill:#039}
        </style>
    </defs>
    <g id="Group_578" data-name="Group 578">
        <path id="Path_1091" data-name="Path 1091" class="cls-1" d="M9.406 188.809a.5.5 0 0 0 0 .7 2.071 2.071 0 0 1 0 2.927l-4.239 4.239a2.071 2.071 0 0 1-2.927 0l-.638-.638a2.071 2.071 0 0 1 0-2.927l4.239-4.239a.5.5 0 0 0-.7-.7L.9 192.41a3.061 3.061 0 0 0 0 4.335l.638.638a3.07 3.07 0 0 0 4.335 0l4.239-4.239a3.07 3.07 0 0 0 0-4.335.5.5 0 0 0-.706 0z" transform="translate(0 -181.707)"/>
        <path id="Path_1092" data-name="Path 1092" class="cls-1" d="m194.407 18.133-.638-.638a3.07 3.07 0 0 0-4.335 0l-4.234 4.239a3.07 3.07 0 0 0 0 4.335.5.5 0 0 0 .7-.7 2.071 2.071 0 0 1 0-2.927l4.239-4.239a2.071 2.071 0 0 1 2.927 0l.638.638a2.071 2.071 0 0 1 0 2.927L189.464 26a.5.5 0 0 0 .35.851.485.485 0 0 0 .35-.147l4.239-4.239a3.066 3.066 0 0 0 0-4.335z" transform="translate(-177.507 -16.6)"/>
    </g>
</svg>
