<svg id="logout" xmlns="http://www.w3.org/2000/svg" width="14.14" height="14.141" viewBox="0 0 14.14 14.141">
  <path id="Path_20938" data-name="Path 20938" d="M21.1,13.4l-3.214-3.214a.643.643,0,1,0-.909.909l2.117,2.117H11.643a.643.643,0,1,0,0,1.286H19.09l-2.117,2.117a.643.643,0,1,0,.909.909L21.1,14.311A.643.643,0,0,0,21.1,13.4Z" transform="translate(-7.145 -6.786)" fill="#039"/>
  <path id="Path_20939" data-name="Path 20939" d="M8.214,17.856H6.286V6.286H8.214A.643.643,0,1,0,8.214,5H5.643A.643.643,0,0,0,5,5.643V18.5a.643.643,0,0,0,.643.643H8.214a.643.643,0,1,0,0-1.286Z" transform="translate(-5 -5)" fill="#44c7f4"/>
</svg>
