<svg xmlns="http://www.w3.org/2000/svg" width="19.394" height="19.394" viewBox="0 0 19.394 19.394">
  <g id="Layer_2" data-name="Layer 2" transform="translate(-5 -5)">
    <path id="Path_20938" data-name="Path 20938" d="M24.846,14.666l-4.408-4.408A.881.881,0,1,0,19.192,11.5l2.9,2.9H11.882a.882.882,0,0,0,0,1.763H22.1l-2.9,2.9a.881.881,0,1,0,1.247,1.247l4.408-4.408A.882.882,0,0,0,24.846,14.666Z" transform="translate(-0.711 -0.592)" fill="#039"/>
    <path id="Path_20939" data-name="Path 20939" d="M9.408,22.631H6.763V6.763H9.408A.882.882,0,1,0,9.408,5H5.882A.882.882,0,0,0,5,5.882V23.512a.882.882,0,0,0,.882.882H9.408a.882.882,0,1,0,0-1.763Z" fill="#44c7f4"/>
  </g>
</svg>
