<svg xmlns="http://www.w3.org/2000/svg" width="25" height="25" viewBox="0 0 25 25">
  <g id="Group_21591" data-name="Group 21591" transform="translate(-59.125 -274)">
    <g id="Group_20083" data-name="Group 20083" transform="translate(27.125 -56)">
      <g id="Group_20082" data-name="Group 20082" transform="translate(33.637 332.456)">
        <path id="Path_20839" data-name="Path 20839" d="M245.382,32.3h0a5.176,5.176,0,0,0-3.733,1.607A5.592,5.592,0,0,0,240.1,37.78v.8a.53.53,0,1,0,1.059,0v-.8a4.472,4.472,0,0,1,1.236-3.1,4.142,4.142,0,0,1,2.988-1.282,4.306,4.306,0,0,1,4.223,4.386v4.2h-5.066a.55.55,0,0,0,0,1.1h5.071v4.2a4.48,4.48,0,0,1-1.236,3.1,4.135,4.135,0,0,1-2.988,1.282,4.092,4.092,0,0,1-1.937-.485.52.52,0,0,0-.71.233.559.559,0,0,0,.225.737,5.1,5.1,0,0,0,2.423.609,5.176,5.176,0,0,0,3.733-1.607,5.592,5.592,0,0,0,1.549-3.873v-9.5A5.391,5.391,0,0,0,245.382,32.3Z" transform="translate(-230.201 -32.3)" fill="#039"/>
        <path id="Path_20840" data-name="Path 20840" d="M38.925,187.9a6.425,6.425,0,1,0,0,12.851h0a6.425,6.425,0,1,0,0-12.851Zm0,1.055A5.375,5.375,0,0,1,44.27,193.8H33.581A5.375,5.375,0,0,1,38.925,188.955Zm0,10.741a5.375,5.375,0,0,1-5.344-4.841H44.27A5.375,5.375,0,0,1,38.925,199.7Z" transform="translate(-32.5 -180.295)" fill="#44c8f5"/>
      </g>
      <g id="Rectangle_9230" data-name="Rectangle 9230" transform="translate(32 330)" fill="none" stroke="#707070" stroke-width="0.5" opacity="0">
        <rect width="25" height="25" stroke="none"/>
        <rect x="0.25" y="0.25" width="24.5" height="24.5" fill="none"/>
      </g>
    </g>
  </g>
</svg>
