<svg xmlns="http://www.w3.org/2000/svg" width="14.688" height="16.321" viewBox="0 0 14.688 16.321">
    <defs>
        <style>
            .cls-1{fill:#039}.cls-2{fill:#44c8f5}
        </style>
    </defs>
    <g id="Group_14250" transform="translate(-234 -237.666)">
        <g id="Group_11317" transform="translate(239.428 237.666)">
            <path id="Path_732" d="M243.707 243.373a2.791 2.791 0 0 0 3.546-1.877 2.951 2.951 0 0 0-1.8-3.686 2.792 2.792 0 0 0-3.546 1.875 2.941 2.941 0 0 0 1.784 3.68l.021.007zm-1.3-3.514a2.243 2.243 0 0 1 2.847-1.511 2.371 2.371 0 0 1 1.453 2.961 2.244 2.244 0 0 1-2.847 1.511 2.371 2.371 0 0 1-1.463-2.932z" class="cls-1" transform="translate(-241.76 -237.666)"/>
            <g id="india-rupee-currency-symbol" transform="translate(1.555 1.559)">
                <g id="Path_739">
                    <path id="Path_18724" d="M246.144 242.7a.185.185 0 0 1-.143-.018.7.7 0 0 1-.229-.261c-.052-.081-.129-.223-.241-.445-.139-.281-.267-.357-.508-.3l-.233.065h-.006l-.144.04a.164.164 0 0 1-.2-.121.172.172 0 0 1 .117-.21l.15-.042.259-.072a.463.463 0 0 0 .358-.32l-.932.259a.167.167 0 0 1-.206-.123.177.177 0 0 1 .119-.215l.951-.265a.41.41 0 0 0-.439-.127l-.572.159a.164.164 0 0 1-.2-.119.173.173 0 0 1 .12-.211l.483-.134H244.661l1.013-.283a.164.164 0 0 1 .206.12.172.172 0 0 1-.12.21l-.237.066a.69.69 0 0 1 .138.211l.159-.044a.168.168 0 0 1 .206.123.177.177 0 0 1-.119.215l-.184.051a.685.685 0 0 1-.229.474.7.7 0 0 1 .385.386 4.124 4.124 0 0 0 .329.58.2.2 0 0 1 .054.256.191.191 0 0 1-.118.095z" class="cls-1" transform="translate(-243.998 -239.909)"/>
                    <path id="Path_18725" d="M244.642 240.256h-.008l-.483.134a.138.138 0 0 0-.1.168.13.13 0 0 0 .163.094l.574-.16a.424.424 0 0 1 .5.184l-1 .278a.141.141 0 0 0-.094.171.133.133 0 0 0 .164.1l.983-.273a.481.481 0 0 1-.392.4l-.257.072-.15.042a.137.137 0 0 0-.092.166.13.13 0 0 0 .16.1l.148-.041.234-.065c.257-.061.4.022.546.318.111.219.187.36.241.443a.675.675 0 0 0 .215.248.155.155 0 0 0 .215-.065.167.167 0 0 0-.049-.214 3.854 3.854 0 0 1-.335-.587.612.612 0 0 0-.432-.384.658.658 0 0 0 .273-.52l.208-.058a.14.14 0 0 0 .094-.171.132.132 0 0 0-.164-.1l-.188.052a.633.633 0 0 0-.189-.271l.3-.083a.136.136 0 0 0 .1-.166.131.131 0 0 0-.164-.1l-1.013.283zm-.017-.069h.006l1.014-.283a.2.2 0 0 1 .247.145.207.207 0 0 1-.144.253l-.183.05a.755.755 0 0 1 .093.15l.132-.036a.2.2 0 0 1 .248.148.212.212 0 0 1-.143.258l-.16.045a.717.717 0 0 1-.2.432.781.781 0 0 1 .352.383 4.12 4.12 0 0 0 .324.571.239.239 0 0 1 .061.3.227.227 0 0 1-.14.114.217.217 0 0 1-.168-.022.726.726 0 0 1-.24-.272c-.054-.084-.131-.227-.243-.448-.132-.267-.246-.336-.471-.282l-.232.064h-.009l-.14.038a.2.2 0 0 1-.243-.146.208.208 0 0 1 .141-.253l.15-.042.258-.072a.464.464 0 0 0 .313-.234l-.869.242a.2.2 0 0 1-.248-.148.212.212 0 0 1 .143-.258l.9-.25a.389.389 0 0 0-.369-.073l-.571.159a.2.2 0 0 1-.247-.144.213.213 0 0 1 .021-.159.206.206 0 0 1 .123-.1l.483-.134z" class="cls-1" transform="translate(-243.983 -239.894)"/>
                </g>
            </g>
        </g>
        <path id="Path_15266" d="M240.985 248.8a.311.311 0 0 0 .451 0 .34.34 0 0 0 0-.469l-.413-.426h.187a.332.332 0 0 0 0-.664h-.955a.326.326 0 0 0-.32.332.341.341 0 0 0 .094.236z" class="cls-2" transform="translate(-1.784 -2.878)"/>
        <ellipse id="Ellipse_531" cx=".484" cy=".503" class="cls-2" rx=".484" ry=".503" transform="translate(237.141 245.269)"/>
        <path id="Rectangle_7196" fill="#fff" d="M0 0H4.859V1.011H0z" transform="translate(239.831 242.203)"/>
        <path id="Path_15267" d="M234 248.089v1.865a1.351 1.351 0 0 0 .447 1.008l1.232 1.1a9.572 9.572 0 0 0 1.481 1.085l.441.262a4.652 4.652 0 0 0 1.188.5v1.483a.325.325 0 0 0 .319.332h1.919a.325.325 0 0 0 .319-.332v-1.328h3.192v1.328a.326.326 0 0 0 .32.332h1.915a.326.326 0 0 0 .32-.332v-1.922a3.7 3.7 0 0 0 1.6-3.057v-3.32a3.588 3.588 0 0 0-3.512-3.652h-5.935a2.174 2.174 0 0 0-1 .245l-.055.028a4.575 4.575 0 0 0-2.183 2.525l-.308.851h-.743a.974.974 0 0 0-.955.993zm6.065-3.983h4.469v.332a.326.326 0 0 1-.319.332h-3.83a.326.326 0 0 1-.32-.332v-.332zm-5.426 3.983a.325.325 0 0 1 .319-.332h.955a.321.321 0 0 0 .3-.213l.385-1.069a3.918 3.918 0 0 1 1.875-2.169l.055-.028a1.552 1.552 0 0 1 .713-.175h.186v.332a.975.975 0 0 0 .955.993h3.831a.975.975 0 0 0 .955-.993v-.335a2.934 2.934 0 0 1 2.873 2.987v.548l-.536.7a1.88 1.88 0 0 1-1.5.747.332.332 0 0 0 0 .664h.116a.251.251 0 0 0 .064-.006 2.508 2.508 0 0 0 1.814-.988l.037-.05v1.709A3.022 3.022 0 0 1 246.6 253a.336.336 0 0 0-.159.284v1.773h-1.272v-1.328a.325.325 0 0 0-.319-.332h-3.827a.325.325 0 0 0-.32.332v1.328h-1.28v-1.418a.329.329 0 0 0-.257-.326 4.058 4.058 0 0 1-1.253-.487l-.438-.253a8.894 8.894 0 0 1-1.382-1.013l-1.232-1.1a.676.676 0 0 1-.224-.5z" class="cls-2" transform="translate(0 -1.735)"/>
    </g>
</svg>
