<svg xmlns="http://www.w3.org/2000/svg" width="46" height="46" viewBox="0 0 46 46">
    <defs>
        <style>
            .cls-4{fill:#039}
        </style>
    </defs>
    <g id="Group_13799" data-name="Group 13799" transform="translate(-158 -169)">
        <circle id="Ellipse_321" data-name="Ellipse 321" cx="23" cy="23" r="23" transform="translate(158 169)" style="fill:#d9f5ff"/>
        <g id="Component_60_1" data-name="Component 60 – 1" transform="translate(169.204 177.687)">
            <path id="Path_1058" data-name="Path 1058" d="M272.973 14.53 266.6 8.562l-6.37 5.968h4.712v19.861h5.126V14.53z" transform="translate(-252.425 -8.164)" style="fill:#44c8f5"/>
            <path id="Path_1061" data-name="Path 1061" d="M55.937 178a6.133 6.133 0 1 1-2.246-4.743A6.133 6.133 0 0 1 55.937 178z" transform="translate(-42.945 -161.369)" style="fill:#aceaff"/>
            <path id="Path_1064" data-name="Path 1064" class="cls-4" d="m266.024 7.018-6.372-5.968a.4.4 0 0 0-.544 0l-6.371 5.968a.4.4 0 0 0 .272.688h2.507v5.342a.4.4 0 1 0 .8 0v-5.74a.4.4 0 0 0-.4-.4h-1.9l5.365-5.025 5.365 5.025h-1.9a.4.4 0 0 0-.4.4V20.92a.4.4 0 0 0 .8 0V7.706h2.507a.4.4 0 0 0 .272-.688z" transform="translate(-245.204 -.943)"/>
            <path id="Path_1065" data-name="Path 1065" class="cls-4" d="M315.594 386.587a.4.4 0 0 0-.4.4v15.143h-6.138l-.005-4.545a.382.382 0 0 0-.4-.379.4.4 0 0 0-.393.409v4.912a.4.4 0 0 0 .4.4h6.934a.4.4 0 0 0 .4-.4v-15.566a.378.378 0 0 0-.398-.374z" transform="translate(-297.951 -376.3)"/>
            <path id="Path_1067" data-name="Path 1067" class="cls-4" d="M38.008 175.327a6.449 6.449 0 1 0 0-9.12 6.429 6.429 0 0 0 0 9.12zm4.56-10.374a5.814 5.814 0 1 1-4.113 1.7 5.8 5.8 0 0 1 4.113-1.7z" transform="translate(-36.022 -154.134)"/>
            <path id="Path_1067_-_Outline" data-name="Path 1067 - Outline" class="cls-4" d="M42.568 177.313A6.539 6.539 0 1 1 47.2 175.4a6.5 6.5 0 0 1-4.632 1.913zm0-12.892a6.339 6.339 0 1 0 4.49 1.857 6.306 6.306 0 0 0-4.49-1.857zm0 12.26a5.907 5.907 0 1 1 4.184-1.73 5.877 5.877 0 0 1-4.184 1.73zm0-11.628a5.707 5.707 0 1 0 4.042 1.672 5.678 5.678 0 0 0-4.042-1.672z" transform="translate(-36.022 -154.134)"/>
            <path id="Path_739" data-name="Path 739" class="cls-4" d="M4.44 1.463h-.508a1.594 1.594 0 0 0-.3-.783h.808a.34.34 0 1 0 0-.68H.35a.34.34 0 1 0 0 .68H1.9a1.126 1.126 0 0 1 1.138.783H.35a.35.35 0 0 0 0 .7H3a1.228 1.228 0 0 1-1.249.71H.652a.341.341 0 0 0 0 .682H1.69c.688.026.994.324 1.169 1.14C3 5.3 3.1 5.7 3.177 5.934a1.706 1.706 0 0 0 .382.745.411.411 0 0 0 .6-.563.034.034 0 0 0 0-.006 9.861 9.861 0 0 1-.462-1.649 1.582 1.582 0 0 0-.839-1.223 1.632 1.632 0 0 0 1.021-1.075h.561a.35.35 0 0 0 0-.7z" transform="translate(4.105 13.614)"/>
        </g>
    </g>
</svg>
