<svg id="Component_100_1" data-name="Component 100 – 1" xmlns="http://www.w3.org/2000/svg" width="16.975" height="16.975" viewBox="0 0 16.975 16.975">
    <defs>
        <style>
            .cls-1{fill:#dedfe4}
        </style>
    </defs>
    <path id="Path_328" data-name="Path 328" class="cls-1" d="M924.478 1342h-9.9a3.545 3.545 0 0 0-3.536 3.536v9.9a3.545 3.545 0 0 0 3.536 3.536h9.9a3.545 3.545 0 0 0 3.536-3.536v-9.9a3.545 3.545 0 0 0-3.536-3.536zm-8.487 15.561v-.707a3.536 3.536 0 1 1 7.073 0v.707zm10.609-2.122a2.124 2.124 0 0 1-2.122 2.122v-.707a4.951 4.951 0 1 0-9.9 0v.707a2.124 2.124 0 0 1-2.122-2.122v-9.9a2.124 2.124 0 0 1 2.122-2.122h9.9a2.124 2.124 0 0 1 2.122 2.122z" transform="translate(-911.039 -1342)"/>
    <path id="Path_329" data-name="Path 329" class="cls-1" d="M921.868 1346a2.829 2.829 0 1 0 1.083 5.446 2.863 2.863 0 0 0 1.27-1.047 2.828 2.828 0 0 0-2.352-4.4zm0 4.244a1.412 1.412 0 0 1-1-2.412 1.432 1.432 0 0 1 .724-.389 1.414 1.414 0 1 1 .276 2.8z" transform="translate(-913.381 -1343.17)"/>
</svg>
