<svg id="micConfirmation" xmlns="http://www.w3.org/2000/svg" width="79.428" height="79.428" viewBox="0 0 79.428 79.428">
  <path id="Ellipse_601" data-name="Ellipse 601" d="M38.714-1A39.724,39.724,0,0,1,54.173,75.307,39.724,39.724,0,0,1,23.255,2.122,39.467,39.467,0,0,1,38.714-1Zm0,76.048A36.344,36.344,0,0,0,52.856,5.235,36.344,36.344,0,0,0,24.572,72.194,36.1,36.1,0,0,0,38.714,75.048Z" transform="translate(1 1)" fill="#29ad00"/>
  <path id="Path_16635" data-name="Path 16635" d="M14047.5,1056.153l-.1,0a2.676,2.676,0,0,1-1.953-.957l-9.728-11.609a2.681,2.681,0,0,1,4.109-3.443l7.824,9.338,18.249-18.689a2.681,2.681,0,1,1,3.836,3.746l-20.319,20.809A2.676,2.676,0,0,1,14047.5,1056.153Z" transform="translate(-14011.725 -1001.504)" fill="#29ad00"/>
</svg>
