<svg xmlns="http://www.w3.org/2000/svg" width="13.329" height="13.203" viewBox="0 0 13.329 13.203">
  <path id="Path_20330" data-name="Path 20330" d="M120.086.845a1.994,1.994,0,0,0-2.82,0L109.36,8.751a.443.443,0,0,0-.114.2l-1.04,3.753a.443.443,0,0,0,.545.545l3.753-1.04a.443.443,0,0,0,.2-.114l7.906-7.906a2,2,0,0,0,0-2.82Zm-9.761,8.194,6.47-6.471,2.087,2.087-6.471,6.471Zm-.417.836,1.667,1.667-2.306.639Zm10.071-6.317-.47.47-2.087-2.087.47-.47a1.108,1.108,0,0,1,1.567,0l.52.52A1.109,1.109,0,0,1,119.979,3.558Zm0,0" transform="translate(-108.087 -0.161)" fill="#123493" stroke="#039" stroke-width="0.2"/>
</svg>
