<svg xmlns="http://www.w3.org/2000/svg" width="11.526" height="11.417" viewBox="0 0 11.526 11.417">
  <g id="Group_20803" data-name="Group 20803" transform="translate(-284.897 -438.182)">
    <path id="Path_20772" data-name="Path 20772" d="M118.451.765a1.72,1.72,0,0,0-2.433,0l-6.82,6.82a.382.382,0,0,0-.1.168l-.9,3.238a.382.382,0,0,0,.47.471l3.238-.9a.382.382,0,0,0,.168-.1l6.82-6.82a1.722,1.722,0,0,0,0-2.433Zm-8.42,7.068,5.581-5.582,1.8,1.8-5.582,5.582Zm-.36.722,1.438,1.438-1.989.551Zm8.687-5.449-.405.405-1.8-1.8.406-.405a.956.956,0,0,1,1.351,0l.449.449A.957.957,0,0,1,118.359,3.105Zm0,0" transform="translate(176.81 438.021)" fill="#fff" stroke="#fff" stroke-width="0.2"/>
  </g>
</svg>
