<svg xmlns="http://www.w3.org/2000/svg" width="15.814" height="13.025" viewBox="0 0 15.814 13.025">
  <g id="Group_20954" data-name="Group 20954" transform="translate(-22.218 -312.814)">
    <g id="Group_20807" data-name="Group 20807" transform="translate(22.218 311.531)">
      <g id="Group_20806" data-name="Group 20806">
        <path id="Path_20895" data-name="Path 20895" d="M11.385,5.812A2.456,2.456,0,0,0,9.163,4.406H6V3h8.436V4.406H12.144a3.856,3.856,0,0,1,.738,1.406h1.554V7.218h-1.42a3.868,3.868,0,0,1-3.852,3.515H8.65l4.731,4.921H11.434L6.7,10.733V9.327h2.46A2.456,2.456,0,0,0,11.6,7.218H6V5.812Z" transform="translate(-6 -1.717)" fill="#44c8f5"/>
      </g>
    </g>
    <g id="Group_19938" data-name="Group 19938" transform="translate(31.509 319)">
      <line id="Line_304" data-name="Line 304" y2="6.239" transform="translate(2.962)" fill="none" stroke="#039" stroke-linecap="round" stroke-width="1.2"/>
      <line id="Line_305" data-name="Line 305" x1="5.923" transform="translate(0 3.12)" fill="none" stroke="#039" stroke-linecap="round" stroke-width="1.2"/>
    </g>
  </g>
</svg>
