<svg xmlns="http://www.w3.org/2000/svg" width="17.297" height="22.388" viewBox="0 0 17.297 22.388">
  <g id="Group_20903" data-name="Group 20903" transform="translate(-11386.396 -5937.691)">
    <path id="Path_20896" data-name="Path 20896" d="M11391.3,5945.375s-2.885,4.42-3.386,5.312a5.209,5.209,0,0,0-.879,2.416,3.668,3.668,0,0,0,.3,2.252,6.522,6.522,0,0,0,.989,1.867,9.717,9.717,0,0,0,1.421,1.146,9.353,9.353,0,0,0,3.887,1.094c1.843,0,3.264.044,3.911,0a7.2,7.2,0,0,0,2.188-.619,6.3,6.3,0,0,0,2.21-1.511,3.287,3.287,0,0,0,.933-1.977,9.1,9.1,0,0,0,.221-2.252,5.117,5.117,0,0,0-.742-2.416c-.5-.865-3.953-5.312-3.953-5.312a4.755,4.755,0,0,0,.992-1.162,1.049,1.049,0,0,0,0-1.183,2.043,2.043,0,0,0-.992-.633s1.141-3.428,1.141-3.634-.319-.432-.681-.464a1.267,1.267,0,0,0-.767.333,2.866,2.866,0,0,1-1.312.681c-.53,0-.656-.467-.8-.55a1.768,1.768,0,0,0-1.173-.464c-.57.068-1,.776-1.077.908s-.582.156-.738.106a2.185,2.185,0,0,1-.725-.456,2.528,2.528,0,0,0-.544-.41.955.955,0,0,0-1.156.316,20.822,20.822,0,0,0,.975,3.634,2.428,2.428,0,0,0-.9.633.971.971,0,0,0-.231,1.183A4.922,4.922,0,0,0,11391.3,5945.375Z" fill="none" stroke="#44c8f5" stroke-width="1.2"/>
    <path id="Path_20897" data-name="Path 20897" d="M0,0H7" transform="translate(11391.533 5942.5)" fill="none" stroke="#44c8f5" stroke-width="1"/>
    <line id="Line_413" data-name="Line 413" x2="2" transform="translate(11391.5 5945.5)" fill="none" stroke="#44c8f5" stroke-linecap="round" stroke-width="1"/>
    <line id="Line_414" data-name="Line 414" x1="2" transform="translate(11396.5 5945.5)" fill="none" stroke="#44c8f5" stroke-linecap="round" stroke-width="1"/>
    <g id="currency_rupee_black_24dp" transform="translate(11391 5949)">
      <g id="Group_20805" data-name="Group 20805">
        <rect id="Rectangle_9205" data-name="Rectangle 9205" width="8" height="8" fill="none"/>
      </g>
      <g id="Group_20807" data-name="Group 20807" transform="translate(1.876 0.938)">
        <g id="Group_20806" data-name="Group 20806">
          <path id="Path_20895" data-name="Path 20895" d="M8.394,4.25a1.092,1.092,0,0,0-.988-.625H6V3H9.751v.625s-.846-.156-1.019,0,.263.394.328.625h.691v.625H9.12A1.72,1.72,0,0,1,7.407,6.439H7.178l2.1,2.188H8.416l-2.1-2.188V5.813H7.407a1.092,1.092,0,0,0,1.082-.938H6V4.25Z" transform="translate(-6 -3)" fill="#039" stroke="#039" stroke-linecap="round" stroke-width="0.2"/>
        </g>
      </g>
    </g>
  </g>
</svg>
