<svg xmlns="http://www.w3.org/2000/svg" width="24" height="24" viewBox="0 0 24 24">
  <g id="Group_22373" data-name="Group 22373" transform="translate(-25 -247)">
    <rect id="Rectangle_9612" data-name="Rectangle 9612" width="24" height="24" transform="translate(25 247)" fill="#fff"/>
    <g id="Group_20875" data-name="Group 20875" transform="translate(28 248)">
      <path id="Path_16312" data-name="Path 16312" d="M130.643,293.355a.367.367,0,0,0-.357-.258h-.508l-.154-.481a.37.37,0,0,0-.136-.188.375.375,0,0,0-.525.082.368.368,0,0,0-.054.106l-.155.481h-.508a.375.375,0,0,0-.221.678l.414.3-.158.487a.374.374,0,0,0,.58.418l.4-.3.405.3a.383.383,0,0,0,.221.074.375.375,0,0,0,.358-.259.379.379,0,0,0,0-.232l-.157-.487.414-.3a.37.37,0,0,0,.135-.419Z" transform="translate(-124.638 -285.281)" fill="#193b68"/>
      <path id="Path_16312-2" data-name="Path 16312" d="M134,293.355a.367.367,0,0,0-.356-.258h-.509l-.154-.481a.369.369,0,0,0-.136-.188.375.375,0,0,0-.525.082.368.368,0,0,0-.054.106l-.154.481H131.6a.374.374,0,0,0-.221.678l.413.3-.157.487a.374.374,0,0,0,.579.418l.405-.3.4.3a.385.385,0,0,0,.221.074.374.374,0,0,0,.358-.259.366.366,0,0,0,0-.232l-.157-.487.414-.3a.37.37,0,0,0,.135-.419Z" transform="translate(-124.866 -285.281)" fill="#193b68"/>
      <path id="Path_16312-3" data-name="Path 16312" d="M137.353,293.355A.366.366,0,0,0,137,293.1h-.508l-.155-.481a.37.37,0,0,0-.136-.188.375.375,0,0,0-.525.082.393.393,0,0,0-.054.106l-.154.481h-.508a.375.375,0,0,0-.221.678l.414.3-.158.487a.374.374,0,0,0,.58.418l.4-.3.4.3a.385.385,0,0,0,.221.074.375.375,0,0,0,.359-.491l-.158-.487.414-.3a.367.367,0,0,0,.135-.419Z" transform="translate(-125.094 -285.281)" fill="#193b68"/>
      <path id="Path_16312-4" data-name="Path 16312" d="M140.709,293.355a.367.367,0,0,0-.357-.258h-.508l-.154-.481a.376.376,0,0,0-.661-.106.347.347,0,0,0-.054.106l-.155.481h-.508a.375.375,0,0,0-.221.678l.414.3-.157.487a.374.374,0,0,0,.58.418l.4-.3.405.3a.383.383,0,0,0,.221.074.375.375,0,0,0,.358-.259.38.38,0,0,0,0-.232l-.158-.487.415-.3a.37.37,0,0,0,.135-.419Z" transform="translate(-125.322 -285.281)" fill="#193b68"/>
      <path id="Path_16313" data-name="Path 16313" d="M138.383,284.765h-9.321a4.672,4.672,0,0,0-4.66,4.66v13.049a4.671,4.671,0,0,0,4.66,4.66h9.321a4.671,4.671,0,0,0,4.66-4.66V289.425A4.672,4.672,0,0,0,138.383,284.765Zm-9.321,1.864h9.321a2.8,2.8,0,0,1,2.8,2.8h0V300.61H126.266V289.425a2.8,2.8,0,0,1,2.8-2.8Zm9.321,18.641h-9.321a2.8,2.8,0,0,1-2.8-2.8h6.524v.932a.932.932,0,1,0,1.864,0v-.932h6.524a2.8,2.8,0,0,1-2.8,2.8Z" transform="translate(-124.402 -284.765)" fill="#44c8f5"/>
    </g>
  </g>
</svg>
