<svg xmlns="http://www.w3.org/2000/svg" width="30" height="30" viewBox="0 0 30 30">
  <g id="Group_28464" data-name="Group 28464" transform="translate(-436 -1227)">
    <rect id="Rectangle_11111" data-name="Rectangle 11111" width="30" height="30" transform="translate(436 1227)" fill="none"/>
    <g id="Group_28464-2" data-name="Group 28464" transform="translate(131.641 -2.689)">
      <path id="Path_926" data-name="Path 926" d="M24.814,158.34H23.29v-13.78a1.417,1.417,0,0,0-1.415-1.415H20.058a1.417,1.417,0,0,0-1.415,1.415v13.78h-.925V147.593a1.417,1.417,0,0,0-1.415-1.415H14.487a1.417,1.417,0,0,0-1.415,1.415V158.34h-.924V144.294a1.417,1.417,0,0,0-1.415-1.415H8.915A1.417,1.417,0,0,0,7.5,144.294V158.34H6.576V147.593a1.417,1.417,0,0,0-1.415-1.415H3.344a1.417,1.417,0,0,0-1.415,1.415V158.34H.4a.4.4,0,0,0,0,.809h24.41a.4.4,0,0,0,0-.809Zm-19.047,0H2.737V147.593a.607.607,0,0,1,.606-.606H5.16a.607.607,0,0,1,.606.606Zm5.571,0H8.309V144.294a.607.607,0,0,1,.606-.606h1.817a.607.607,0,0,1,.606.606Zm5.571,0H13.88V147.593a.607.607,0,0,1,.606-.606H16.3a.607.607,0,0,1,.606.606Zm5.571,0h-3.03v-13.78a.607.607,0,0,1,.606-.606h1.817a.607.607,0,0,1,.606.606Zm0,0" transform="translate(306.75 1099.293)" fill="#44c8f5" stroke="#44c8f5" stroke-width="0.3"/>
      <path id="Path_23379" data-name="Path 23379" d="M75.512,41a1.479,1.479,0,0,0-1.3,2.184L70.379,46.3a1.477,1.477,0,0,0-2.206.071l-3.591-1.723c0-.006,0-.013,0-.019a1.48,1.48,0,1,0-2.764.733l-4.371,4.888a1.482,1.482,0,1,0,.64.495l4.308-4.817a1.477,1.477,0,0,0,1.951-.5l3.5,1.678a1.48,1.48,0,1,0,2.916-.076l4.02-3.271A1.479,1.479,0,1,0,75.512,41ZM56.9,52.3a.673.673,0,1,1,.673-.673A.673.673,0,0,1,56.9,52.3ZM63.1,45.3a.673.673,0,1,1,.673-.673A.673.673,0,0,1,63.1,45.3Zm6.205,2.69a.673.673,0,1,1,.673-.673A.673.673,0,0,1,69.307,47.994Zm6.205-4.842a.673.673,0,1,1,.673-.673A.673.673,0,0,1,75.512,43.152Z" transform="translate(253.157 1189.936)" fill="#039"/>
    </g>
  </g>
</svg>
