<svg xmlns="http://www.w3.org/2000/svg" width="32.265" height="22.082" viewBox="0 0 32.265 22.082">
  <g id="Group_22875" data-name="Group 22875" transform="translate(4781 -3319.201)">
    <g id="Group_22876" data-name="Group 22876" transform="translate(-27 -27)">
      <path id="Path_21261" data-name="Path 21261" d="M6.032,4.567h.827a.621.621,0,0,0,.62-.62v-1.6a.621.621,0,0,0-.62-.62H6.032a.207.207,0,0,0-.207.207V4.361a.207.207,0,0,0,.207.207Zm.207-2.426h.62a.207.207,0,0,1,.207.207v1.6a.207.207,0,0,1-.207.207h-.62Zm-2.677,0h.62V4.361a.207.207,0,0,0,.414,0V2.141h.62a.207.207,0,1,0,0-.414H3.562a.207.207,0,0,0,0,.414ZM3.344,5.808H7.719a.207.207,0,0,0,0-.414H3.344a.207.207,0,0,0,0,.414ZM14.115,7.462a3.015,3.015,0,0,0-2.735-3V.452A.372.372,0,0,0,10.8.143l-.5.333a.068.068,0,0,1-.076,0l-.6-.4a.48.48,0,0,0-.537,0l-.6.4a.068.068,0,0,1-.076,0l-.6-.4a.481.481,0,0,0-.537,0l-.6.4a.068.068,0,0,1-.076,0L6,.073a.481.481,0,0,0-.537,0l-.6.4a.068.068,0,0,1-.076,0l-.6-.4a.481.481,0,0,0-.537,0l-.6.4a.068.068,0,0,1-.076,0l-.5-.333a.372.372,0,0,0-.58.31v11.31H.207A.207.207,0,0,0,0,11.97v.965a1.173,1.173,0,0,0,1.172,1.172h9.175a1.037,1.037,0,0,0,1.034-1.037v-.033s0,0,0-.005V10.46a3.015,3.015,0,0,0,2.735-3ZM1.172,13.693a.759.759,0,0,1-.758-.758v-.758H9.23v.855a1.07,1.07,0,0,0,.229.662Zm9.8-.656a.662.662,0,0,1-1.323-.005V11.97a.292.292,0,0,0-.271-.207H2.311V.529l.432.29a.48.48,0,0,0,.537,0l.6-.4a.068.068,0,0,1,.077,0l.6.4a.48.48,0,0,0,.537,0l.6-.4a.068.068,0,0,1,.076,0l.6.4a.48.48,0,0,0,.537,0l.6-.4a.069.069,0,0,1,.077,0l.6.4a.479.479,0,0,0,.537,0l.6-.4a.068.068,0,0,1,.076,0l.6.4a.48.48,0,0,0,.537,0l.432-.29V4.454a3.011,3.011,0,0,0,0,6.016ZM11.1,10.06a2.6,2.6,0,1,1,2.6-2.6,2.6,2.6,0,0,1-2.6,2.6ZM8.734,4.154H8.1a.207.207,0,0,0,0,.414h.634a.813.813,0,1,0,0-1.627H8.706a.4.4,0,1,1,0-.8H9.34a.207.207,0,0,0,0-.414H8.706a.813.813,0,1,0,0,1.627h.028a.4.4,0,1,1,0,.8Zm3.608,2.07a.207.207,0,0,0-.292,0L9.866,8.408a.207.207,0,1,0,.292.292l2.183-2.183a.207.207,0,0,0,0-.292Zm-.8,1.677a.62.62,0,1,0,.877.877h0a.62.62,0,1,0-.877-.877Zm.585.585a.207.207,0,1,1,0-.292.207.207,0,0,1,0,.292ZM10.665,7.024h0Zm-.585-.585a.206.206,0,1,1-.061.146.207.207,0,0,1,.061-.146Zm-6.736.61H7.306a.207.207,0,1,0,0-.414H3.344a.207.207,0,1,0,0,.414Zm-.207,3.515a.207.207,0,0,0,.207.207h5.7a.207.207,0,0,0,0-.414h-5.7a.207.207,0,0,0-.207.207ZM3.344,9.53H7.8a.207.207,0,1,0,0-.414H3.344a.207.207,0,1,0,0,.414Zm0-1.241H7.361a.207.207,0,1,0,0-.414H3.344a.207.207,0,0,0,0,.414Z" transform="translate(-4736 3354.028)" fill="#44c8f5" stroke="#44c8f5" stroke-width="0.3"/>
      <g id="Group_22875-2" data-name="Group 22875" transform="translate(-12135 17559.201)">
        <g id="bank" transform="translate(7379.875 -14214.01)">
          <path id="Path_21021" data-name="Path 21021" d="M11.679,1.01,1.125,6.091V8.735H22.983V6.077Zm9.847,6.268H2.582V7.007L11.7,2.617l9.825,4.4Z" fill="#44c8f5"/>
          <path id="Path_21022" data-name="Path 21022" d="M3.375,28.688H22.319v1.457H3.375Z" transform="translate(-0.793 -9.753)" fill="#44c8f5"/>
          <path id="Path_21023" data-name="Path 21023" d="M1.125,32.625H22.983v1.457H1.125Z" transform="translate(0 -11.14)" fill="#44c8f5"/>
          <path id="Path_21024" data-name="Path 21024" d="M3.938,15.188H5.4v7.286H3.938Z" transform="translate(-0.991 -4.996)" fill="#44c8f5"/>
          <path id="Path_21025" data-name="Path 21025" d="M29.813,15.188H31.27v7.286H29.813Z" transform="translate(-10.108 -4.996)" fill="#44c8f5"/>
          <path id="Path_21026" data-name="Path 21026" d="M23.063,15.188H24.52v7.286H23.063Z" transform="translate(-7.73 -4.996)" fill="#44c8f5"/>
          <path id="Path_21027" data-name="Path 21027" d="M10.688,15.188h1.457v7.286H10.688Z" transform="translate(-3.37 -4.996)" fill="#44c8f5"/>
          <path id="Path_21028" data-name="Path 21028" d="M16.875,15.188h1.457v7.286H16.875Z" transform="translate(-5.55 -4.996)" fill="#44c8f5"/>
        </g>
        <path id="Path_21031" data-name="Path 21031" d="M20.6,11346.833v7.265" transform="translate(7379.696 -25550.633)" fill="none" stroke="#039" stroke-width="1.3"/>
        <path id="Path_21032" data-name="Path 21032" d="M20.6,11346.833v7.265" transform="translate(7375.295 -25550.633)" fill="none" stroke="#039" stroke-width="1.3"/>
        <path id="Path_21033" data-name="Path 21033" d="M20.6,11346.833v7.265" transform="translate(7371.295 -25550.633)" fill="none" stroke="#039" stroke-width="1.3"/>
        <path id="Path_21034" data-name="Path 21034" d="M20.6,11346.833v7.265" transform="translate(7367.295 -25550.633)" fill="none" stroke="#039" stroke-width="1.3"/>
        <path id="Path_21035" data-name="Path 21035" d="M20.6,11346.833v7.265" transform="translate(7362.896 -25550.633)" fill="none" stroke="#039" stroke-width="1.3"/>
      </g>
    </g>
    <path id="Path_21262" data-name="Path 21262" d="M12.342,6.224a.207.207,0,0,0-.292,0L9.866,8.408a.207.207,0,1,0,.292.292l2.183-2.183a.207.207,0,0,0,0-.292Zm-.8,1.677a.62.62,0,1,0,.877.877h0a.62.62,0,1,0-.877-.877Zm.585.585a.207.207,0,1,1,0-.292.207.207,0,0,1,0,.292ZM10.665,7.024h0Zm-.585-.585a.206.206,0,1,1-.061.146.207.207,0,0,1,.061-.146Z" transform="translate(-4763 3327.028)" fill="#039" stroke="#039" stroke-width="0.2"/>
  </g>
</svg>
