<svg xmlns="http://www.w3.org/2000/svg" width="21" height="23.334" viewBox="0 0 21 23.334">
    <defs>
        <style>
            .cls-1{fill:#039}.cls-2{fill:#44c8f5}
        </style>
    </defs>
    <g id="Group_14216" data-name="Group 14216" transform="translate(-234 -237.666)">
        <g id="Group_11317" data-name="Group 11317">
            <path id="Path_732" data-name="Path 732" class="cls-1" d="M244.543 245.825a3.991 3.991 0 0 0 5.069-2.683 4.219 4.219 0 0 0-2.58-5.27 3.992 3.992 0 0 0-5.069 2.68 4.2 4.2 0 0 0 2.55 5.261l.03.01zm-1.853-5.025a3.206 3.206 0 0 1 4.071-2.16 3.389 3.389 0 0 1 2.078 4.233 3.208 3.208 0 0 1-4.071 2.16 3.389 3.389 0 0 1-2.091-4.192z"/>
            <g id="india-rupee-currency-symbol">
                <g id="Path_739" data-name="Path 739">
                    <path id="Path_18724" data-name="Path 18724" class="cls-1" d="M247.051 243.879a.265.265 0 0 1-.2-.026 1 1 0 0 1-.327-.373 8.281 8.281 0 0 1-.344-.636c-.2-.4-.382-.511-.727-.429l-.333.093h-.007l-.206.057a.235.235 0 0 1-.289-.173.246.246 0 0 1 .167-.3l.214-.06.37-.1a.662.662 0 0 0 .512-.457l-1.332.371a.239.239 0 0 1-.294-.176.252.252 0 0 1 .17-.307l1.36-.379a.586.586 0 0 0-.628-.182l-.818.228a.234.234 0 0 1-.293-.17.247.247 0 0 1 .171-.3l.691-.192h.026l1.448-.4a.234.234 0 0 1 .294.172.246.246 0 0 1-.172.3l-.339.094a.987.987 0 0 1 .2.3l.228-.063a.24.24 0 0 1 .295.176.252.252 0 0 1-.17.307l-.263.073a.979.979 0 0 1-.327.677 1 1 0 0 1 .551.552 5.9 5.9 0 0 0 .471.829.291.291 0 0 1 .077.366.273.273 0 0 1-.176.128z"/>
                    <path id="Path_18725" data-name="Path 18725" class="cls-1" d="M244.925 240.411h-.011l-.69.192a.2.2 0 0 0-.137.24.185.185 0 0 0 .233.134l.821-.229a.607.607 0 0 1 .714.263l-1.424.4a.2.2 0 0 0-.135.245.19.19 0 0 0 .235.14l1.4-.391a.688.688 0 0 1-.561.575l-.368.1-.215.06a.2.2 0 0 0-.132.238.186.186 0 0 0 .229.137l.212-.059.335-.093c.368-.087.572.032.781.455.158.313.268.515.344.634a.965.965 0 0 0 .307.354.221.221 0 0 0 .307-.093.239.239 0 0 0-.07-.306 5.507 5.507 0 0 1-.479-.839.875.875 0 0 0-.618-.549.94.94 0 0 0 .39-.743l.3-.083a.2.2 0 0 0 .135-.244.189.189 0 0 0-.234-.141l-.269.075a.905.905 0 0 0-.27-.387l.427-.119a.2.2 0 0 0 .138-.238.187.187 0 0 0-.234-.136l-1.448.4zm-.025-.1h.015l1.449-.4a.283.283 0 0 1 .353.208.3.3 0 0 1-.206.362l-.261.072a1.08 1.08 0 0 1 .133.215l.188-.052a.289.289 0 0 1 .355.212.3.3 0 0 1-.205.369l-.229.064a1.025 1.025 0 0 1-.282.618 1.117 1.117 0 0 1 .5.548 5.884 5.884 0 0 0 .463.816.342.342 0 0 1 .087.428.324.324 0 0 1-.2.163.311.311 0 0 1-.24-.031 1.038 1.038 0 0 1-.343-.389 8.23 8.23 0 0 1-.347-.64c-.189-.382-.352-.48-.673-.4l-.332.092h-.013l-.2.055a.283.283 0 0 1-.348-.209.3.3 0 0 1 .2-.362l.215-.06.369-.1a.663.663 0 0 0 .448-.334l-1.242.346a.288.288 0 0 1-.354-.212.3.3 0 0 1 .2-.369l1.285-.358a.557.557 0 0 0-.528-.1l-.817.228a.282.282 0 0 1-.353-.206.3.3 0 0 1 .03-.227.3.3 0 0 1 .176-.137l.69-.192z"/>
                </g>
            </g>
        </g>
        <path id="Path_15266" data-name="Path 15266" class="cls-2" d="M241.436 249.472a.444.444 0 0 0 .645 0 .486.486 0 0 0 0-.671l-.59-.609h.267a.475.475 0 0 0 0-.949h-1.365a.467.467 0 0 0-.458.474.487.487 0 0 0 .135.337z"/>
        <ellipse id="Ellipse_531" data-name="Ellipse 531" class="cls-2" cx=".691" cy=".719" rx=".691" ry=".719" transform="translate(238.491 248.536)"/>
        <path id="Rectangle_7196" data-name="Rectangle 7196" transform="translate(242.337 244.152)" style="fill:#fff" d="M0 0h6.947v1.445H0z"/>
        <path id="Path_15267" data-name="Path 15267" class="cls-2" d="M234 250.086v2.667a1.931 1.931 0 0 0 .639 1.441l1.761 1.57a13.685 13.685 0 0 0 2.118 1.551l.63.374a6.651 6.651 0 0 0 1.7.716v2.12a.465.465 0 0 0 .456.475h2.744a.465.465 0 0 0 .456-.475v-1.9h4.564v1.9a.466.466 0 0 0 .457.475h2.738a.466.466 0 0 0 .457-.475v-2.748a5.292 5.292 0 0 0 2.282-4.37v-4.746a5.13 5.13 0 0 0-5.021-5.221h-8.485a3.109 3.109 0 0 0-1.427.35l-.078.04a6.541 6.541 0 0 0-3.121 3.61l-.44 1.217h-1.063a1.393 1.393 0 0 0-1.367 1.419zm8.671-5.695h6.39v.474a.466.466 0 0 1-.456.475h-5.476a.467.467 0 0 1-.457-.475v-.474zm-7.758 5.695a.465.465 0 0 1 .456-.475h1.366a.459.459 0 0 0 .427-.3l.551-1.528a5.6 5.6 0 0 1 2.681-3.1l.078-.04a2.219 2.219 0 0 1 1.02-.25h.266v.474a1.394 1.394 0 0 0 1.366 1.42h5.476a1.394 1.394 0 0 0 1.366-1.42v-.474a4.2 4.2 0 0 1 4.107 4.271v.783l-.766 1a2.688 2.688 0 0 1-2.138 1.068.475.475 0 0 0 0 .949h.166a.359.359 0 0 0 .092-.009 3.585 3.585 0 0 0 2.593-1.413l.053-.071v2.444a4.32 4.32 0 0 1-2.054 3.7.48.48 0 0 0-.228.406v2.535h-1.818v-1.9a.465.465 0 0 0-.456-.474h-5.472a.465.465 0 0 0-.457.474v1.9h-1.83v-2.028a.471.471 0 0 0-.367-.466 5.8 5.8 0 0 1-1.792-.7l-.626-.361a12.715 12.715 0 0 1-1.973-1.458l-1.761-1.569a.966.966 0 0 1-.32-.721z"/>
    </g>
</svg>
