<svg xmlns="http://www.w3.org/2000/svg" width="23.347" height="24.956" viewBox="0 0 23.347 24.956">
  <g id="Group_21577" data-name="Group 21577" transform="translate(-616 -4826)">
    <g id="Group_12088" data-name="Group 12088" transform="translate(616 4826)">
      <g id="Group_11317" data-name="Group 11317" transform="translate(8.633)">
        <path id="Path_732" data-name="Path 732" d="M135.244,8.726a4.473,4.473,0,1,0-2.869-5.637h0a4.455,4.455,0,0,0,2.836,5.626l.033.011Zm-2.059-5.373a3.594,3.594,0,1,1-.015.045l.015-.045Zm0,0" transform="translate(-132.15 0.001)" fill="#039"/>
        <g id="india-rupee-currency-symbol" transform="matrix(0.966, -0.259, 0.259, 0.966, 2.53, 3.201)">
          <g id="Path_739" data-name="Path 739" transform="translate(0 0)" fill="#039">
            <path d="M 2.34271764755249 4.189978122711182 C 2.264497518539429 4.189978122711182 2.190347671508789 4.160108089447021 2.13393759727478 4.105868339538574 C 2.003567695617676 3.980308294296265 1.928087592124939 3.777178287506104 1.887727618217468 3.628878355026245 C 1.840147614479065 3.487588167190552 1.778197646141052 3.246458292007446 1.693597674369812 2.872838258743286 C 1.59137761592865 2.397318363189697 1.423477649688721 2.231938362121582 1.028107643127441 2.21690821647644 L 0.6442676186561584 2.216948270797729 L 0.63721764087677 2.216948270797729 L 0.6349875330924988 2.216348171234131 L 0.3971076309680939 2.216348171234131 C 0.2549076080322266 2.216348171234131 0.1392176151275635 2.100648164749146 0.1392176151275635 1.958438277244568 C 0.1392176151275635 1.816238284111023 0.2549076080322266 1.70054829120636 0.3971076309680939 1.70054829120636 L 0.6442776322364807 1.70054829120636 L 1.069417595863342 1.70054829120636 C 1.395131349563599 1.70054829120636 1.639758586883545 1.580303430557251 1.753334522247314 1.367818236351013 L 0.2131376266479492 1.367818236351013 C 0.06803762167692184 1.367818236351013 -0.05000238120555878 1.249738216400146 -0.05000238120555878 1.1045982837677 C -0.05000238120555878 0.9594582319259644 0.06803762167692184 0.8413782715797424 0.2131376266479492 0.8413782715797424 L 1.78463351726532 0.8413782715797424 C 1.68219792842865 0.5617074966430664 1.390017747879028 0.4810377955436707 1.154717564582825 0.4639082551002502 L 0.2131376266479492 0.4640382528305054 C 0.06557761877775192 0.4640382528305054 -0.05000238120555878 0.3517382442951202 -0.05000238120555878 0.208368256688118 C -0.05000238120555878 0.06360825151205063 0.06557761877775192 -0.04979174956679344 0.2131376266479492 -0.04979174956679344 L 1.007937669754028 -0.04979174956679344 L 1.0201176404953 -0.05000174790620804 L 1.030227661132812 -0.04989174753427505 L 1.038367629051208 -0.04979174956679344 L 2.705577611923218 -0.04978175088763237 C 2.853137731552124 -0.04978175088763237 2.968717575073242 0.06360825151205063 2.968717575073242 0.208368256688118 C 2.968717575073242 0.3517382442951202 2.853137731552124 0.4640382528305054 2.705577611923218 0.4640382528305054 L 2.308016777038574 0.4640382528305054 C 2.373762130737305 0.5738426446914673 2.418641090393066 0.7021159529685974 2.439813613891602 0.8413782715797424 L 2.70558762550354 0.8413782715797424 C 2.850667715072632 0.8413782715797424 2.96870756149292 0.9594382643699646 2.96870756149292 1.104548215866089 C 2.96870756149292 1.249678254127502 2.850667715072632 1.367758274078369 2.705567598342896 1.367758274078369 L 2.400263786315918 1.367758274078369 C 2.312721014022827 1.634982228279114 2.122208595275879 1.847521424293518 1.85586154460907 1.976875901222229 C 2.071735620498657 2.108603954315186 2.217241525650024 2.34874439239502 2.299147605895996 2.707068204879761 C 2.407187700271606 3.169098138809204 2.502637624740601 3.562848329544067 2.576177597045898 3.699278354644775 L 2.577881097793579 3.702432870864868 C 2.671735525131226 3.820558547973633 2.66469407081604 3.988599300384521 2.559817552566528 4.097598075866699 C 2.502537727355957 4.157168388366699 2.425427675247192 4.189978122711182 2.34271764755249 4.189978122711182 Z" stroke="none"/>
            <path d="M 1.0201176404953 -1.9073486328125e-06 C 1.01605761051178 -1.9073486328125e-06 1.011997580528259 0.0002083778381347656 1.007937669754028 0.0002083778381347656 L 0.2131376266479492 0.0002083778381347656 C 0.09537768363952637 0.0002083778381347656 -2.384185791015625e-06 0.09063816070556641 -2.384185791015625e-06 0.2083683013916016 C -2.384185791015625e-06 0.3260881900787354 0.09537768363952637 0.4140381813049316 0.2131376266479492 0.4140381813049316 L 1.158347606658936 0.4140381813049316 C 1.456847667694092 0.4357683658599854 1.769527673721313 0.55124831199646 1.851887583732605 0.8913781642913818 L 0.2131376266479492 0.8913781642913818 C 0.09537768363952637 0.8913781642913818 -2.384185791015625e-06 0.9868183135986328 -2.384185791015625e-06 1.1045982837677 C -2.384185791015625e-06 1.222328186035156 0.09537768363952637 1.317818164825439 0.2131376266479492 1.317818164825439 L 1.830647587776184 1.317818164825439 C 1.73001766204834 1.586608171463013 1.453597664833069 1.750548362731934 1.069417595863342 1.750548362731934 L 0.3971076011657715 1.750548362731934 C 0.2822976112365723 1.750548362731934 0.1892175674438477 1.843628168106079 0.1892175674438477 1.958428144454956 C 0.1892175674438477 2.073268175125122 0.2822976112365723 2.166348218917847 0.3971076011657715 2.166348218917847 L 0.6413476467132568 2.166348218917847 C 0.6423575878143311 2.166458129882812 0.6432676315307617 2.166948318481445 0.6442675590515137 2.166948318481445 L 1.030007600784302 2.166948318481445 C 1.449087619781494 2.182878255844116 1.635487675666809 2.364608287811279 1.742367625236511 2.861798286437988 C 1.825987577438354 3.231118202209473 1.887547612190247 3.471668243408203 1.935967683792114 3.615748167037964 C 1.97224760055542 3.749038219451904 2.044047594070435 3.949878215789795 2.168587684631348 4.069828033447266 C 2.268588066101074 4.165969848632812 2.427649259567261 4.16290807723999 2.523787498474121 4.062928199768066 C 2.614147663116455 3.969018220901489 2.615787506103516 3.823688268661499 2.532987594604492 3.726558208465576 C 2.532607555389404 3.725408315658569 2.532767534255981 3.724148273468018 2.532167673110962 3.722998142242432 C 2.45571756362915 3.581168174743652 2.363237619400024 3.200748205184937 2.250407695770264 2.718208312988281 C 2.160717487335205 2.325858116149902 1.993157625198364 2.081468343734741 1.739247560501099 1.972958326339722 C 2.058067560195923 1.850568294525146 2.277377605438232 1.616478204727173 2.363337516784668 1.317758321762085 L 2.705567598342896 1.317758321762085 C 2.823337554931641 1.317758321762085 2.918707609176636 1.222278356552124 2.918707609176636 1.104538202285767 C 2.918707609176636 0.9868083000183105 2.823357582092285 0.8913781642913818 2.70558762550354 0.8913781642913818 L 2.396027565002441 0.8913781642913818 C 2.375557661056519 0.7119681835174561 2.313067674636841 0.5440282821655273 2.213907718658447 0.4140381813049316 L 2.705577611923218 0.4140381813049316 C 2.823347568511963 0.4140381813049316 2.918717622756958 0.3260982036590576 2.918717622756958 0.2083683013916016 C 2.918717622756958 0.09057807922363281 2.823337554931641 0.0002183914184570312 2.705577611923218 0.0002183914184570312 L 1.038367629051208 0.0002083778381347656 C 1.032257676124573 0.0002083778381347656 1.026387572288513 -1.9073486328125e-06 1.0201176404953 -1.9073486328125e-06 M 1.0201176404953 -0.1000018119812012 L 1.038367629051208 -0.09979152679443359 L 2.705577611923218 -0.09978151321411133 C 2.881167650222778 -0.09978151321411133 3.018717527389526 0.03557825088500977 3.018717527389526 0.2083683013916016 C 3.018717527389526 0.3797681331634521 2.881167650222778 0.5140383243560791 2.705577611923218 0.5140383243560791 L 2.391762256622314 0.5140383243560791 C 2.432956695556641 0.5990431308746338 2.463369369506836 0.6923408508300781 2.482022762298584 0.7913782596588135 L 2.70558762550354 0.7913782596588135 C 2.878237724304199 0.7913782596588135 3.018707513809204 0.9318583011627197 3.018707513809204 1.104538202285767 C 3.018707513809204 1.27724814414978 2.878237724304199 1.417758226394653 2.705567598342896 1.417758226394653 L 2.435858726501465 1.417758226394653 C 2.348578929901123 1.65673041343689 2.181271553039551 1.851441621780396 1.952401161193848 1.982446193695068 C 2.141700267791748 2.127806663513184 2.271836280822754 2.363209247589111 2.347897529602051 2.69592809677124 C 2.45488715171814 3.153524875640869 2.54931378364563 3.543444633483887 2.619901657104492 3.674997568130493 C 2.726325035095215 3.812511444091797 2.717139720916748 4.006202220916748 2.595847606658936 4.13226842880249 C 2.529067516326904 4.201718330383301 2.439157485961914 4.239978313446045 2.34271764755249 4.239978313446045 C 2.251507759094238 4.239978313446045 2.16505765914917 4.205148220062256 2.099277496337891 4.141918182373047 C 1.961522102355957 4.009231090545654 1.882474899291992 3.79898476600647 1.840257883071899 3.644865036010742 C 1.791416764259338 3.498831510543823 1.729288578033447 3.256851673126221 1.644837617874146 2.883878231048584 C 1.547397613525391 2.430638313293457 1.397137641906738 2.280978202819824 1.026207566261292 2.266878128051758 L 0.6301577091217041 2.266948223114014 L 0.6279957294464111 2.266348361968994 L 0.3971076011657715 2.266348361968994 C 0.2273375988006592 2.266348361968994 0.0892176628112793 2.128218173980713 0.0892176628112793 1.958428144454956 C 0.0892176628112793 1.788658142089844 0.2273375988006592 1.650548219680786 0.3971076011657715 1.650548219680786 L 1.069417595863342 1.650548219680786 C 1.33468222618103 1.650548219680786 1.541964411735535 1.567380428314209 1.660791754722595 1.417818307876587 L 0.2131376266479492 1.417818307876587 C 0.04046750068664551 1.417818307876587 -0.1000022888183594 1.277308225631714 -0.1000022888183594 1.1045982837677 C -0.1000022888183594 0.9318883419036865 0.04046750068664551 0.7913782596588135 0.2131376266479492 0.7913782596588135 L 1.70649266242981 0.7913782596588135 C 1.593299746513367 0.5915253162384033 1.35303807258606 0.5290021896362305 1.154593348503113 0.5140383243560791 L 0.2131376266479492 0.5140383243560791 C 0.03754758834838867 0.5140383243560791 -0.1000022888183594 0.3797681331634521 -0.1000022888183594 0.2083683013916016 C -0.1000022888183594 0.0355682373046875 0.03754758834838867 -0.09979152679443359 0.2131376266479492 -0.09979152679443359 L 1.0201176404953 -0.1000018119812012 Z" stroke="none" fill="#039"/>
          </g>
        </g>
      </g>
      <path id="Path_15266" data-name="Path 15266" d="M112.6,266.932a.508.508,0,0,0,.718-.718l-.656-.656h.3a.508.508,0,0,0,0-1.015h-1.523a.508.508,0,0,0-.359.866Zm0,0" transform="translate(-104.331 -254.305)" fill="#44c8f5"/>
      <ellipse id="Ellipse_531" data-name="Ellipse 531" cx="0.768" cy="0.768" rx="0.768" ry="0.768" transform="translate(4.995 11.626)" fill="#44c8f5"/>
      <rect id="Rectangle_7196" data-name="Rectangle 7196" width="7.725" height="1.545" transform="translate(9.27 6.938)" fill="#fff"/>
      <path id="Path_15267" data-name="Path 15267" d="M0,203.386v2.852a2.03,2.03,0,0,0,.711,1.541l1.959,1.68a15.266,15.266,0,0,0,2.355,1.659l.7.4a7.6,7.6,0,0,0,1.888.766v2.268a.508.508,0,0,0,.507.507h3.045a.508.508,0,0,0,.507-.507v-2.03h5.076v2.03a.508.508,0,0,0,.507.507H20.3a.507.507,0,0,0,.507-.507v-2.939a5.6,5.6,0,0,0,2.538-4.675v-5.076a5.589,5.589,0,0,0-5.583-5.583H8.332a3.56,3.56,0,0,0-1.587.375l-.087.042a7.086,7.086,0,0,0-3.476,3.861l-.489,1.305H1.523A1.522,1.522,0,0,0,0,203.386ZM9.643,197.3h7.106v.508a.508.508,0,0,1-.508.507h-6.09a.508.508,0,0,1-.507-.507V197.3Zm-8.628,6.091a.508.508,0,0,1,.507-.508H3.045a.507.507,0,0,0,.475-.329l.613-1.634a6.074,6.074,0,0,1,2.977-3.309l.087-.043a2.549,2.549,0,0,1,1.135-.268h.3v.508a1.523,1.523,0,0,0,1.523,1.523h6.09a1.523,1.523,0,0,0,1.523-1.523V197.3a4.573,4.573,0,0,1,4.568,4.568v.837l-.852,1.066a3.03,3.03,0,0,1-2.378,1.142.508.508,0,1,0,0,1.015h.185a.5.5,0,0,0,.1-.01,4.034,4.034,0,0,0,2.884-1.512l.06-.076v2.613a4.584,4.584,0,0,1-2.284,3.952.508.508,0,0,0-.254.439v2.715h-2.03v-2.03a.508.508,0,0,0-.507-.507h-6.09a.508.508,0,0,0-.508.507v2.03H8.628v-2.166a.508.508,0,0,0-.409-.5,6.6,6.6,0,0,1-1.993-.744l-.7-.4a14.218,14.218,0,0,1-2.2-1.549L1.37,207.01a1.016,1.016,0,0,1-.355-.772Zm0,0" transform="translate(0 -190.104)" fill="#44c8f5"/>
    </g>
  </g>
</svg>
