<svg xmlns="http://www.w3.org/2000/svg" width="24" height="24" viewBox="0 0 24 24">
  <g id="Group_22327" data-name="Group 22327" transform="translate(-1611 -2217)">
    <rect id="Rectangle_9618" data-name="Rectangle 9618" width="24" height="24" transform="translate(1611 2217)" fill="#fff"/>
    <g id="Group_22205" data-name="Group 22205" transform="translate(1444 2035)">
      <g id="Group_22326" data-name="Group 22326">
        <g id="Group_21882" data-name="Group 21882" transform="translate(-4 -1.227)">
          <path id="Path_21063" data-name="Path 21063" d="M-1842.463-3149.62c-4.411,0-9.092,1.088-8.9-6.267a9.628,9.628,0,0,1,6.794-9.115,19.271,19.271,0,0,1-1.357-2.422,5.91,5.91,0,0,1-.5-1.877,1.907,1.907,0,0,1,.347-.952,1.141,1.141,0,0,1,.875-.5c.436-.077.494.069.836.263a1.611,1.611,0,0,1,.533.514,1.7,1.7,0,0,1,.563-.641,1.491,1.491,0,0,1,.806-.136,1.228,1.228,0,0,1,.734.136,1.248,1.248,0,0,1,.39.641,2.441,2.441,0,0,1,.774-.641,2.019,2.019,0,0,1,.937-.136,1.432,1.432,0,0,1,.689.39,1.406,1.406,0,0,1,.24.75,5.723,5.723,0,0,1-.24,1.988,18.048,18.048,0,0,1-1.08,2.622s6.452,2.279,6.305,9.115S-1838.052-3149.62-1842.463-3149.62Z" transform="translate(2023.365 3355)" fill="none" stroke="#44c8f5" stroke-linejoin="round" stroke-width="1"/>
          <g id="Rectangle_9514" data-name="Rectangle 9514" transform="translate(187.686 204.396)" fill="#fff" stroke="#039" stroke-width="1">
            <rect width="7.314" height="2.831" rx="1.415" stroke="none"/>
            <rect x="0.5" y="0.5" width="6.314" height="1.831" rx="0.915" fill="none"/>
          </g>
          <g id="Rectangle_9519" data-name="Rectangle 9519" transform="translate(187.686 198.194)" fill="#fff" stroke="#039" stroke-width="1">
            <rect width="7.314" height="2.831" rx="1.415" stroke="none"/>
            <rect x="0.5" y="0.5" width="6.314" height="1.831" rx="0.915" fill="none"/>
          </g>
          <g id="Rectangle_9520" data-name="Rectangle 9520" transform="translate(187.686 200.22)" fill="#fff" stroke="#039" stroke-width="1">
            <rect width="7.314" height="2.831" rx="1.415" stroke="none"/>
            <rect x="0.5" y="0.5" width="6.314" height="1.831" rx="0.915" fill="none"/>
          </g>
          <g id="Rectangle_9521" data-name="Rectangle 9521" transform="translate(187.686 202.417)" fill="#fff" stroke="#039" stroke-width="1">
            <rect width="7.314" height="2.831" rx="1.415" stroke="none"/>
            <rect x="0.5" y="0.5" width="6.314" height="1.831" rx="0.915" fill="none"/>
          </g>
          <path id="Path_21064" data-name="Path 21064" d="M-1794.877-3116.389a7.839,7.839,0,0,1,1.386-1.66,21.3,21.3,0,0,1,2.362-1.78,15.238,15.238,0,0,1,2.276,1.694,2.821,2.821,0,0,1,.873,1.455" transform="translate(1973.008 3309.444)" fill="none" stroke="#039" stroke-linecap="round" stroke-width="1"/>
          <g id="Rectangle_9518" data-name="Rectangle 9518" transform="translate(177.554 188.762)" fill="#fff" stroke="#039" stroke-width="1">
            <rect width="7.801" height="1.95" rx="0.975" stroke="none"/>
            <rect x="0.5" y="0.5" width="6.801" height="0.95" rx="0.475" fill="none"/>
          </g>
          <g id="india-rupee-currency-symbol" transform="translate(179.937 195.645)">
            <g id="Path_739" data-name="Path 739" transform="translate(0 0)" fill="#039">
              <path d="M 3.307310342788696 5.894584178924561 C 3.20222020149231 5.894584178924561 3.102610349655151 5.854454040527344 3.026840209960938 5.781594276428223 C 2.846190214157104 5.607614040374756 2.741160154342651 5.324504375457764 2.684860229492188 5.117644309997559 C 2.617560386657715 4.91767406463623 2.530280351638794 4.577914237976074 2.411010265350342 4.051174163818359 C 2.264230251312256 3.368384122848511 2.02232027053833 3.130814075469971 1.452210307121277 3.10914421081543 L 0.9095502495765686 3.109174251556396 L 0.9025402665138245 3.109174251556396 L 0.8993154168128967 3.108334064483643 L 0.560610294342041 3.10832405090332 C 0.3712102770805359 3.10832405090332 0.2171202749013901 2.954224109649658 0.2171202749013901 2.764804124832153 C 0.2171202749013901 2.575404167175293 0.3712102770805359 2.421324253082275 0.560610294342041 2.421324253082275 L 0.9095602631568909 2.421324253082275 L 1.509740233421326 2.421324253082275 C 1.992876291275024 2.421324253082275 2.352238178253174 2.236202478408813 2.508793354034424 1.910423755645752 L 0.3009002804756165 1.910414099693298 C 0.10741026699543 1.910414099693298 -0.04999973252415657 1.752954125404358 -0.04999973252415657 1.559404134750366 C -0.04999973252415657 1.365854144096375 0.10741026699543 1.208394169807434 0.3009002804756165 1.208394169807434 L 2.548352956771851 1.208403825759888 C 2.409699678421021 0.7809152007102966 1.977839827537537 0.6595908403396606 1.631660223007202 0.6343941688537598 L 0.3009002804756165 0.6345141530036926 C 0.1041302680969238 0.6345141530036926 -0.04999973252415657 0.4850141406059265 -0.04999973252415657 0.2941641509532928 C -0.04999973252415657 0.1013441383838654 0.1041302680969238 -0.04969586059451103 0.3009002804756165 -0.04969586059451103 L 1.422950267791748 -0.04969586059451103 L 1.430240273475647 -0.04982585832476616 L 1.440140247344971 -0.04999586194753647 L 1.45408022403717 -0.04983586072921753 L 1.465910315513611 -0.04969586059451103 L 3.819580316543579 -0.04969586059451103 C 4.016350269317627 -0.04969586059451103 4.170480251312256 0.1013441383838654 4.170480251312256 0.2941641509532928 C 4.170480251312256 0.4850241541862488 4.016350269317627 0.6345241665840149 3.819580316543579 0.6345241665840149 L 3.221374988555908 0.6345241665840149 C 3.32622241973877 0.7983786463737488 3.39638614654541 0.994256854057312 3.426605463027954 1.208404183387756 L 3.819600343704224 1.208404183387756 C 4.013070106506348 1.208404183387756 4.170470237731934 1.36583411693573 4.170470237731934 1.5593341588974 C 4.170470237731934 1.752884149551392 4.013060092926025 1.910344123840332 3.819570302963257 1.910344123840332 L 3.373559713363647 1.910344123840332 C 3.250170707702637 2.300522804260254 2.969962120056152 2.608422517776489 2.575859308242798 2.788901805877686 C 2.894100427627563 2.967181921005249 3.107248544692993 3.307923555374146 3.225740194320679 3.826284170150757 C 3.384070158004761 4.50339412689209 3.513590335845947 5.037034034729004 3.618790149688721 5.232203960418701 L 3.622097253799438 5.238325119018555 C 3.749298572540283 5.397088527679443 3.740230798721313 5.6236891746521 3.598980188369751 5.770493984222412 C 3.522040367126465 5.850513935089111 3.418450355529785 5.894584178924561 3.307310342788696 5.894584178924561 Z" stroke="none"/>
              <path d="M 1.440140247344971 4.291534423828125e-06 C 1.434420347213745 4.291534423828125e-06 1.428680181503296 0.0003042221069335938 1.422950267791748 0.0003042221069335938 L 0.3009002208709717 0.0003042221069335938 C 0.1346502304077148 0.0002942085266113281 4.76837158203125e-07 0.1279640197753906 4.76837158203125e-07 0.2941641807556152 C 4.76837158203125e-07 0.4603543281555176 0.1346502304077148 0.5845141410827637 0.3009002208709717 0.5845141410827637 L 1.635290384292603 0.5845241546630859 C 2.056700229644775 0.6151943206787109 2.498120307922363 0.778223991394043 2.61439037322998 1.25840425491333 L 0.3009002208709717 1.258394241333008 C 0.1346502304077148 1.258394241333008 4.76837158203125e-07 1.393134117126465 4.76837158203125e-07 1.559404373168945 C 4.76837158203125e-07 1.725614070892334 0.1346502304077148 1.860414028167725 0.3009002208709717 1.860414028167725 L 2.584400177001953 1.860424041748047 C 2.44234037399292 2.2398841381073 2.05210018157959 2.47132420539856 1.509740352630615 2.47132420539856 L 0.560610294342041 2.47132420539856 C 0.3985302448272705 2.47132420539856 0.267120361328125 2.602724075317383 0.267120361328125 2.764804124832153 C 0.267120361328125 2.926924228668213 0.3985302448272705 3.058324098587036 0.560610294342041 3.058324098587036 L 0.9054203033447266 3.058334112167358 C 0.9068503379821777 3.058484077453613 0.9081301689147949 3.059174060821533 0.9095501899719238 3.059174060821533 L 1.454110383987427 3.059184074401855 C 2.045750379562378 3.081664085388184 2.308890342712402 3.338224172592163 2.459780216217041 4.040134429931641 C 2.57783031463623 4.561513900756836 2.664740324020386 4.901103973388672 2.733100414276123 5.104514122009277 C 2.78432035446167 5.292694091796875 2.885670185089111 5.57621431350708 3.061500310897827 5.745553970336914 C 3.202666521072388 5.881301403045654 3.427236557006836 5.87695837020874 3.562950134277344 5.735824108123779 C 3.690510272979736 5.603244304656982 3.692820310592651 5.398074150085449 3.57593035697937 5.260944366455078 C 3.575390338897705 5.259324073791504 3.575630187988281 5.257544040679932 3.574780225753784 5.255924224853516 C 3.466850280761719 5.055694103240967 3.33629035949707 4.518633842468262 3.177000284194946 3.837424039840698 C 3.050380229949951 3.283514022827148 2.813820362091064 2.938504219055176 2.455370426177979 2.785314083099365 C 2.905460357666016 2.612534046173096 3.215080261230469 2.28205418586731 3.336430311203003 1.860344171524048 L 3.819570302963257 1.860344171524048 C 3.985830307006836 1.860344171524048 4.12047004699707 1.725543975830078 4.12047004699707 1.559334278106689 C 4.12047004699707 1.393124103546143 3.985860347747803 1.25840425491333 3.819600343704224 1.25840425491333 L 3.382580280303955 1.25840425491333 C 3.35368013381958 1.005124092102051 3.265460252761841 0.7680339813232422 3.125470161437988 0.5845241546630859 L 3.819580316543579 0.5845241546630859 C 3.985840320587158 0.5845241546630859 4.120480060577393 0.4603743553161621 4.120480060577393 0.2941641807556152 C 4.120480060577393 0.1278743743896484 3.985830307006836 0.0003042221069335938 3.819580316543579 0.0003042221069335938 L 1.465910196304321 0.0003042221069335938 C 1.457290172576904 0.0003042221069335938 1.448990345001221 4.291534423828125e-06 1.440140247344971 4.291534423828125e-06 M 1.440140247344971 -0.09999608993530273 L 1.465910196304321 -0.09969568252563477 L 3.819580316543579 -0.09969568252563477 C 4.044380187988281 -0.09969568252563477 4.220480442047119 0.07330417633056641 4.220480442047119 0.2941641807556152 C 4.220480442047119 0.513054370880127 4.044380187988281 0.6845240592956543 3.819580316543579 0.6845240592956543 L 3.30904483795166 0.6845240592956543 C 3.386266708374023 0.8257408142089844 3.440636157989502 0.9860262870788574 3.469483375549316 1.158404350280762 L 3.819600343704224 1.158404350280762 C 4.040640354156494 1.158404350280762 4.220470428466797 1.338263988494873 4.220470428466797 1.559334278106689 C 4.220470428466797 1.780454158782959 4.040630340576172 1.960344076156616 3.819570302963257 1.960344076156616 L 3.409713983535767 1.960344076156616 C 3.286064863204956 2.320244312286377 3.031699419021606 2.609549045562744 2.679213523864746 2.793940305709839 C 2.966922521591187 2.989079713821411 3.16254186630249 3.325445890426636 3.274490356445312 3.815144062042236 C 3.426490306854248 4.465174198150635 3.560710191726685 5.019063949584961 3.662810325622559 5.208474159240723 L 3.664032936096191 5.210743427276611 C 3.803902864456177 5.388925552368164 3.792717456817627 5.641249179840088 3.635010242462158 5.805154323577881 C 3.54856014251709 5.895064353942871 3.432170391082764 5.944584369659424 3.307310342788696 5.944584369659424 C 3.18923020362854 5.944584369659424 3.077320098876953 5.8995041847229 2.992190361022949 5.817634105682373 C 2.804141998291016 5.636524677276611 2.695540904998779 5.346314430236816 2.637388229370117 5.133625507354736 C 2.568825244903564 4.928910732269287 2.481357097625732 4.588289737701416 2.362250328063965 4.062213897705078 C 2.221450328826904 3.407284021377563 1.991400241851807 3.17967414855957 1.450310230255127 3.159114122390747 L 0.8955402374267578 3.159174203872681 L 0.8924458026885986 3.158333778381348 L 0.560610294342041 3.158324241638184 C 0.3436403274536133 3.158324241638184 0.1671202182769775 2.981794118881226 0.1671202182769775 2.764804124832153 C 0.1671202182769775 2.547834157943726 0.3436403274536133 2.371324062347412 0.560610294342041 2.371324062347412 L 1.509740352630615 2.371324062347412 C 1.935180187225342 2.371324062347412 2.259569644927979 2.223463296890259 2.424201726913452 1.960423469543457 L 0.3009002208709717 1.960414171218872 C 0.07984018325805664 1.960414171218872 -0.09999990463256836 1.780524253845215 -0.09999990463256836 1.559404373168945 C -0.09999990463256836 1.338284015655518 0.07984018325805664 1.158394336700439 0.3009002208709717 1.158394336700439 L 2.475903034210205 1.158403396606445 C 2.324213027954102 0.8112940788269043 1.942507028579712 0.7077245712280273 1.631555080413818 0.6845240592956543 L 0.3009002208709717 0.684514045715332 C 0.07610034942626953 0.684514045715332 -0.09999990463256836 0.513054370880127 -0.09999990463256836 0.2941641807556152 C -0.09999990463256836 0.07330417633056641 0.07609033584594727 -0.09969568252563477 0.3008801937103271 -0.09969568252563477 L 1.440140247344971 -0.09999608993530273 Z" stroke="none" fill="#039"/>
            </g>
          </g>
        </g>
      </g>
    </g>
  </g>
</svg>
