<svg xmlns="http://www.w3.org/2000/svg" xmlns:xlink="http://www.w3.org/1999/xlink" width="82.413" height="18.836" viewBox="0 0 82.413 18.836">
  <defs>
    <clipPath id="clip-path">
      <rect id="Rectangle_9795" data-name="Rectangle 9795" width="26.343" height="18.836" fill="none"/>
    </clipPath>
  </defs>
  <g id="Group_23398" data-name="Group 23398" transform="translate(-36.461 -278.485)">
    <g id="Group_20956" data-name="Group 20956" transform="translate(36.461 278.485)">
      <g id="Group_20955" data-name="Group 20955" transform="translate(0 0)" clip-path="url(#clip-path)">
        <path id="Path_21489" data-name="Path 21489" d="M444.026,63.714c0-.03-.005-.06-.005-.09q0-1.661,0-3.322c0-.028-.015-.062.024-.079v3.5a.024.024,0,0,1-.018-.01" transform="translate(-379.672 -51.496)" fill="#ad0505"/>
        <path id="Path_21495" data-name="Path 21495" d="M23.792,18.836l-.072-.069a2.831,2.831,0,0,1-.836-.388,5.285,5.285,0,0,1-1.039-.913,9.9,9.9,0,0,1-.965-1.282c-.2-.318-.361-.585-.494-.841l-.037-.072c-.145-.278-.294-.565-.436-.856-.2-.421-.4-.877-.616-1.436-.2-.518-.386-1.043-.551-1.56q-.083-.262-.161-.517c-.131.436-.275.873-.428,1.3-.221.614-.439,1.163-.667,1.676-.176.4-.367.792-.569,1.174s-.431.773-.664,1.13a10.614,10.614,0,0,1-.667.911,6.93,6.93,0,0,1-.768.8,4.041,4.041,0,0,1-.633.461l-.04.021a.674.674,0,0,1-.1.051,1.679,1.679,0,0,1-.623.253,2.565,2.565,0,0,1-.485.046h-.057a1.7,1.7,0,0,1-1.1-.433c-.023-.02-.045-.04-.067-.062a1.26,1.26,0,0,1-.222-.147l-.022-.018a6.146,6.146,0,0,1-.884-.83,9.833,9.833,0,0,1-.918-1.223,14.685,14.685,0,0,1-.828-1.475,18.573,18.573,0,0,1-.767-1.8c-.146-.4-.281-.794-.4-1.181l-.059-.2c-.058.183-.12.37-.186.561-.2.592-.406,1.132-.625,1.65-.143.34-.3.681-.458,1.015a14.462,14.462,0,0,1-1.127,1.962,8.151,8.151,0,0,1-.584.758l-.066.076c-.084.1-.171.2-.269.3a4.855,4.855,0,0,1-.984.791,2.943,2.943,0,0,1-.619.279l-.064.09h-.96l-.094-.066a1.736,1.736,0,0,1-.819-.522A2.707,2.707,0,0,1,.2,17.191a4.849,4.849,0,0,1-.13-.574c-.016-.089-.023-.171-.029-.243,0-.03-.005-.06-.009-.089a7.011,7.011,0,0,1-.025-1.019l0-.108c0-.138.017-.269.03-.385,0-.041.009-.082.012-.122.007-.072.015-.144.023-.216l0-.043c.03-.273.076-.536.12-.79.094-.542.227-1.067.332-1.465.073-.273.154-.545.225-.775.05-.165.1-.329.159-.492l.052-.155A.672.672,0,0,1,1,10.563c.055-.165.112-.328.169-.491,0-.012.009-.026.016-.041l.031-.1c.023-.074.046-.149.071-.223.03-.09.063-.179.1-.268.008-.02.016-.039.024-.056s.009-.03.015-.046l.1-.291c.1-.272.195-.544.3-.814.238-.629.5-1.266.795-1.946.319-.73.659-1.454,1.012-2.153a22.689,22.689,0,0,1,1.119-2,7.742,7.742,0,0,1,.674-.924,3.882,3.882,0,0,1,.59-.564c.159-.12.342-.2.5-.32a1.3,1.3,0,0,1,.539-.22A2.627,2.627,0,0,1,8.135.133a3.342,3.342,0,0,1,.5.142A3.577,3.577,0,0,1,9.713.953a5.2,5.2,0,0,1,.639.708,13.826,13.826,0,0,1,.992,1.529c.305.534.6,1.1.869,1.69A17.79,17.79,0,0,1,13.1,7.2c.376-.93.747-1.783,1.127-2.594.312-.666.579-1.2.841-1.674a11.744,11.744,0,0,1,.826-1.324,4.821,4.821,0,0,1,.669-.75,3.209,3.209,0,0,1,.958-.6,3.345,3.345,0,0,1,.536-.154A2.789,2.789,0,0,1,18.788,0,2.02,2.02,0,0,1,19.8.357c.126.089.258.19.405.309a7.288,7.288,0,0,1,.57.5,6.827,6.827,0,0,1,.826,1.022c.259.383.517.811.81,1.348.438.8.873,1.691,1.328,2.72.263.6.512,1.2.74,1.8.172.453.342.94.535,1.531l0,.008c.008.019.016.039.022.061.079.247.158.5.237.745a.766.766,0,0,1,.025.106l.017.047c.069.2.135.395.2.588.077.242.142.46.2.665.095.332.194.69.275,1.063.058.268.119.545.168.828.031.178.054.353.076.522.01.076.02.152.031.228.023.162.034.316.044.466,0,.051.007.1.011.153.017.212.017.414.017.61v.1a5.2,5.2,0,0,1-.04.576l-.007.063a4.308,4.308,0,0,1-.178.851,2.653,2.653,0,0,1-.445.867,1.8,1.8,0,0,1-.89.627l-.1.073Z" transform="translate(0 0)" fill="#fff"/>
        <path id="Path_21496" data-name="Path 21496" d="M11.585,15.58c-.04.161-.078.322-.121.482-.1.362-.195.724-.3,1.085-.132.468-.278.931-.435,1.39-.185.542-.386,1.079-.608,1.607q-.21.5-.444.984A13.933,13.933,0,0,1,8.6,23a7.517,7.517,0,0,1-.536.7c-.1.116-.2.235-.31.345a4.207,4.207,0,0,1-.849.685,2.2,2.2,0,0,1-.577.244c-.037.009-.082-.008-.109.031H5.817c-.009-.007-.018-.017-.028-.019a1.047,1.047,0,0,1-.6-.351,2.032,2.032,0,0,1-.42-.8,4.178,4.178,0,0,1-.111-.5c-.017-.1-.021-.2-.032-.295A7.365,7.365,0,0,1,4.6,22.008c0-.154.025-.307.039-.46.008-.083.017-.165.026-.248.028-.251.071-.5.114-.749.082-.475.2-.942.32-1.408.067-.252.142-.5.218-.75.066-.215.139-.428.21-.642.011-.034.026-.066.039-.1s.023-.048.032-.074q.067-.2.133-.394a.376.376,0,0,0,.009-.068h0c.027,0,.024-.028.028-.047s.015-.009.016-.015c.041-.141.106-.274.155-.411A.553.553,0,0,0,6,16.471l.232-.557a.06.06,0,0,0,.007-.022.589.589,0,0,1,.048-.155c.01-.041.044-.06.057-.1.03-.09.074-.174.113-.261.093-.209.184-.419.281-.627.147-.315.293-.631.447-.943.186-.376.38-.747.571-1.121.03-.06.059-.121.091-.18q.21-.385.421-.77c.051-.094.1-.188.153-.281.109-.192.222-.383.331-.575.142-.251.294-.5.453-.737.139-.211.284-.419.435-.621.13-.174.266-.345.412-.506a4.659,4.659,0,0,1,.379-.393,4.287,4.287,0,0,1,.474-.374,1.387,1.387,0,0,1,.395-.185.715.715,0,0,1,.383-.03.474.474,0,0,1,.209.1.362.362,0,0,0-.068.015.888.888,0,0,0-.408.378,1.987,1.987,0,0,0-.213.544,1.8,1.8,0,0,0-.074.378.247.247,0,0,0-.022.126c0,.046-.019.092-.022.138,0,.063,0,.126,0,.19-.021.011-.021.031-.021.051,0,.194-.006.388,0,.582a3.337,3.337,0,0,0,.022.579c-.01.225.024.449.027.674,0,.142.032.282.026.425a.041.041,0,0,0,0,.012c.032.131.02.266.04.4s.024.267.035.4c0,0,0,.007.006.012l.034.006c-.006.025-.034.044-.021.075.009.11.015.22.027.329.01.089.029.178.04.267s.019.188.029.282c.008.066.016.133.027.2.021.128.044.255.064.383s.034.249.054.373.045.255.069.382c0,.01.013.018.02.027h0a.739.739,0,0,0,0,.082.123.123,0,0,0,.021.038h0c0,.036,0,.071,0,.106" transform="translate(-3.929 -6.857)" fill="#ff00b5"/>
        <path id="Path_21497" data-name="Path 21497" d="M133.7,24.984c-.005-.005-.011-.014-.017-.015a2.035,2.035,0,0,1-.794-.333,4.638,4.638,0,0,1-.908-.8,9.289,9.289,0,0,1-.9-1.2c-.165-.257-.323-.518-.464-.789-.157-.3-.316-.6-.465-.911-.219-.453-.413-.917-.595-1.386q-.292-.753-.537-1.522c-.24-.754-.456-1.514-.64-2.283-.041-.173-.085-.345-.129-.522l-.027-.012v-.026a.466.466,0,0,0,.038-.083c.013-.053.018-.108.03-.161a2.355,2.355,0,0,0,.063-.261c.01-.094.039-.184.057-.275.036-.191.088-.38.116-.573.038-.052.017-.115.033-.172a1.64,1.64,0,0,0,.058-.286,2.84,2.84,0,0,0,.053-.336,2.232,2.232,0,0,0,.065-.321,2.8,2.8,0,0,0,.046-.3c.014-.125.046-.246.056-.372a1.408,1.408,0,0,1,.026-.2,1.1,1.1,0,0,0,.019-.127,1.1,1.1,0,0,0,.021-.139,2.912,2.912,0,0,0,.027-.305.039.039,0,0,1,0-.023.33.33,0,0,0,.021-.163.215.215,0,0,1,0-.059.808.808,0,0,0,.022-.258c0-.027,0-.055.008-.082A.751.751,0,0,0,129,10.6q0-.53,0-1.059a.2.2,0,0,0-.007-.082.336.336,0,0,1-.016-.117c-.008-.086-.012-.173-.028-.257s-.044-.182-.067-.272a1.539,1.539,0,0,0-.218-.5.67.67,0,0,0-.348-.268A.077.077,0,0,1,128.265,8l.194-.005.066.023c.067.022.136.04.2.066a2.308,2.308,0,0,1,.686.457,5.368,5.368,0,0,1,.456.468c.089.105.18.21.265.318.119.152.239.3.346.465.135.2.275.4.4.612s.244.414.365.622.235.42.356.627c.089.153.174.309.258.466.144.268.29.534.427.805.28.553.563,1.1.815,1.671.093.209.191.415.285.624.044.1.083.2.125.293s.1.224.144.336c.07.167.138.334.208.5l.122.294a3.354,3.354,0,0,0,.118.338c.053.153.1.307.158.465l.026.007a.7.7,0,0,0,.043.133c.065.191.131.382.192.574.068.215.134.43.2.647.1.338.19.678.264,1.021.058.267.116.533.163.8.042.241.069.485.1.728.027.192.036.386.052.58.018.218.014.436.015.654a5.329,5.329,0,0,1-.043.569,3.623,3.623,0,0,1-.15.719,2.007,2.007,0,0,1-.331.654,1.1,1.1,0,0,1-.664.43c-.01,0-.018.013-.027.02Z" transform="translate(-109.641 -6.836)" fill="#ff008d"/>
        <path id="Path_21498" data-name="Path 21498" d="M81.717,67.221a1,1,0,0,1-.457.211,1.9,1.9,0,0,1-.4.033,1.046,1.046,0,0,1-.68-.27c-.03-.026-.057-.055-.085-.083,0-.033-.022-.033-.045-.032h0a.022.022,0,0,0-.028-.022h0a.067.067,0,0,0-.012-.055c-.045-.064-.09-.128-.13-.2a2.44,2.44,0,0,1-.208-.461,3.777,3.777,0,0,1-.12-.523.823.823,0,0,1-.028-.269.054.054,0,0,0,0-.035.222.222,0,0,1-.018-.127c0-.063,0-.127,0-.19a.572.572,0,0,0-.007-.07.721.721,0,0,1-.014-.092c0-.119,0-.238,0-.357a.14.14,0,0,1,0-.059.41.41,0,0,0,.02-.187.847.847,0,0,1,.005-.189.93.93,0,0,0,.019-.211c0-.02-.005-.043,0-.059a.231.231,0,0,0,.019-.139.836.836,0,0,1,.025-.15c.008-.09.016-.179.025-.269a.068.068,0,0,1,0-.023,1.042,1.042,0,0,0,.039-.206c.02-.083.029-.168.045-.252s.04-.175.052-.264a3.716,3.716,0,0,1,.083-.4q.084-.34.175-.678c.076-.282.162-.561.244-.841.036-.123.079-.245.12-.367.058-.174.11-.35.175-.521.075-.2.143-.4.223-.592.05-.123.1-.248.152-.393,0-.021-.013-.063-.018-.1-.011-.089-.047-.173-.059-.263a1.968,1.968,0,0,0-.068-.283c-.018-.063-.046-.124-.069-.186l.055,0c.028.106.058.212.084.318s.07.215.109.337a.475.475,0,0,0,.036-.06c.088-.231.175-.463.264-.694.018-.047.041-.092.061-.139h.055c.005.029-.019.038-.032.057s-.006.041-.016.063q-.1.232-.2.466c-.043.1-.082.211-.124.317a.194.194,0,0,0,0,.149c.028.073.056.146.081.22.128.381.258.762.38,1.145.069.215.135.431.194.65.035.132.085.26.114.393.04.179.1.353.139.531q.053.215.1.432c.011.049.016.1.027.15s.028.105.039.158c.008.034.007.071.018.1.031.1.035.2.06.3a1.144,1.144,0,0,1,.023.114,1.452,1.452,0,0,0,.028.209c.038.125.03.256.067.38-.01.091.039.177.025.269a.037.037,0,0,0,0,.023.313.313,0,0,1,.021.162.214.214,0,0,0,0,.071.535.535,0,0,1,.021.211.321.321,0,0,0,.005.106.348.348,0,0,1,.018.152c0,.159,0,.318,0,.476a2.667,2.667,0,0,1-.021.484c-.015.076-.009.155-.022.234s-.032.184-.049.276a2.468,2.468,0,0,1-.139.483,1.519,1.519,0,0,1-.339.546.068.068,0,0,0-.026.063h0c-.02,0-.04,0-.049.021" transform="translate(-67.957 -49.433)" fill="#ff4200"/>
        <path id="Path_21499" data-name="Path 21499" d="M92.145,12.31H92.09c.052-.141.1-.283.157-.423.412-1.043.849-2.075,1.324-3.09.259-.553.527-1.1.821-1.636a11.324,11.324,0,0,1,.779-1.251,4.18,4.18,0,0,1,.577-.648,2.614,2.614,0,0,1,.979-.545,1.642,1.642,0,0,1,1.437.092c.126.089.249.184.369.282a6.754,6.754,0,0,1,.519.455,6.282,6.282,0,0,1,.746.925c.283.417.536.853.777,1.294.476.87.9,1.763,1.3,2.67q.387.875.726,1.769c.188.5.36,1,.525,1.5a.133.133,0,0,1,0,.035l-.039,0-.122-.294c-.069-.167-.138-.335-.207-.5-.047-.113-.1-.224-.144-.337s-.081-.2-.125-.293c-.094-.208-.192-.415-.285-.624-.252-.566-.535-1.118-.815-1.671-.137-.271-.283-.538-.427-.805-.084-.156-.169-.312-.258-.466-.121-.208-.234-.42-.356-.627s-.238-.418-.365-.622-.269-.408-.4-.612c-.107-.161-.227-.313-.346-.465-.085-.109-.176-.213-.265-.318a5.351,5.351,0,0,0-.456-.469,2.311,2.311,0,0,0-.686-.456c-.065-.027-.134-.044-.2-.066l-.066-.024s0-.008-.006-.01a.659.659,0,0,0-.513-.075,1.041,1.041,0,0,0-.3.108,2.829,2.829,0,0,0-.622.449,4.989,4.989,0,0,0-.55.591c-.08.1-.169.2-.247.3-.11.149-.216.3-.319.455-.128.19-.255.38-.375.574-.105.171-.2.349-.3.523-.117.205-.237.41-.353.616q-.134.237-.262.477c-.151.282-.305.562-.448.848-.187.374-.38.746-.556,1.126-.116.25-.238.5-.351.75l-.218.485" transform="translate(-78.745 -3.932)" fill="#ad0505"/>
        <path id="Path_21500" data-name="Path 21500" d="M24.785,12.883l-.055,0a.216.216,0,0,0-.008-.035q-.086-.219-.172-.439c-.075-.19-.149-.38-.227-.569-.069-.167-.142-.333-.212-.5s-.143-.349-.217-.522c-.065-.152-.133-.3-.2-.454-.033-.076-.068-.151-.1-.226-.1-.226-.2-.455-.306-.678-.2-.411-.4-.824-.622-1.224-.086-.155-.165-.314-.26-.464-.167-.267-.329-.537-.511-.795a8.033,8.033,0,0,0-.507-.653,3.236,3.236,0,0,0-.478-.461,1.873,1.873,0,0,0-.453-.273.967.967,0,0,0-.416-.067c-.014,0-.027.014-.04.021h-.043a.474.474,0,0,0-.209-.1.714.714,0,0,0-.383.03,1.389,1.389,0,0,0-.395.185,4.287,4.287,0,0,0-.474.374,4.637,4.637,0,0,0-.379.393c-.146.161-.282.332-.412.506-.151.2-.3.41-.434.621-.159.241-.311.486-.453.737-.109.193-.221.383-.331.575-.053.093-.1.187-.153.281q-.21.385-.421.77c-.032.059-.061.12-.091.18-.191.373-.385.745-.571,1.121-.154.312-.3.627-.447.942-.1.208-.187.418-.281.627-.039.087-.083.171-.113.261-.013.038-.047.057-.057.1a.579.579,0,0,0-.048.155.06.06,0,0,1-.007.022l-.232.557-.042.007a.583.583,0,0,1,.017-.08c.132-.365.26-.732.4-1.1.243-.645.506-1.282.782-1.914q.469-1.073,1-2.119c.334-.662.687-1.314,1.086-1.941a7.167,7.167,0,0,1,.616-.846,3.244,3.244,0,0,1,.489-.469,2.218,2.218,0,0,1,.333-.211,1.567,1.567,0,0,1,.612-.189,2.755,2.755,0,0,1,.5-.028,1.659,1.659,0,0,1,.58.171,4.237,4.237,0,0,1,.823.522,4.579,4.579,0,0,1,.557.619,13.277,13.277,0,0,1,.944,1.457q.457.8.842,1.639a17,17,0,0,1,.884,2.343c.091.311.172.626.256.94.017.065.029.131.043.2" transform="translate(-11.993 -4.266)" fill="#ad0505"/>
        <path id="Path_21501" data-name="Path 21501" d="M168.01,67.681l.039,0c.007.009.018.017.021.027q.119.372.237.745a.174.174,0,0,1,0,.035l-.026-.007c-.053-.159-.1-.313-.158-.466a3.339,3.339,0,0,1-.118-.338" transform="translate(-143.662 -57.873)" fill="#ff012c"/>
        <path id="Path_21502" data-name="Path 21502" d="M12.8,66.346l.042-.007a.553.553,0,0,1-.06.173c-.05.138-.115.27-.155.411,0,.006-.011.01-.016.015l-.018-.024c.031-.1.06-.195.092-.291s.058-.163.089-.243a.14.14,0,0,1,.026-.033" transform="translate(-10.771 -56.725)" fill="#ff008d"/>
        <path id="Path_21503" data-name="Path 21503" d="M11.435,70.794a.376.376,0,0,1-.009.068q-.065.2-.133.394c-.009.025-.021.049-.032.074,0-.015-.014-.032-.01-.044.054-.161.11-.321.166-.481,0-.005.012-.007.018-.011" transform="translate(-9.619 -60.535)" fill="#ff012c"/>
        <path id="Path_21504" data-name="Path 21504" d="M12.533,70.31l.018.024c0,.019,0,.042-.029.047l.011-.071" transform="translate(-10.707 -60.121)" fill="#ff012c"/>
        <path id="Path_21505" data-name="Path 21505" d="M90.217,14.6l.218-.485c.113-.252.235-.5.351-.75.176-.38.369-.752.556-1.126.143-.286.3-.566.448-.848q.129-.24.262-.477c.116-.206.235-.41.353-.616.1-.174.195-.352.3-.523.12-.195.247-.384.375-.574.1-.154.209-.306.319-.455.078-.1.166-.2.246-.3a4.989,4.989,0,0,1,.55-.591,2.829,2.829,0,0,1,.622-.449,1.041,1.041,0,0,1,.3-.108.659.659,0,0,1,.513.075s0,.007.006.01l-.194.005c-.049.014-.1.024-.146.043a.78.78,0,0,0-.423.425,2.057,2.057,0,0,0-.175.571,1.642,1.642,0,0,1-.028.2c-.017.063-.008.126-.02.187a.91.91,0,0,0-.02.187c0,.321,0,.643,0,.964a.167.167,0,0,0,0,.059.7.7,0,0,1,.021.223.331.331,0,0,0,0,.083,2.994,2.994,0,0,1,.04.327,1.963,1.963,0,0,1,.03.3.084.084,0,0,0,0,.024,1.963,1.963,0,0,1,.041.267c.022.078.012.165.031.245.03.126.037.255.064.382s.032.241.054.36c.033.177.068.353.095.531.032.05.017.108.03.161.023.1.042.207.063.31s.037.192.058.288c.027.126.057.252.084.378.035.165.062.331.1.494a.447.447,0,0,0,.049.181c0,.009,0,.017,0,.026s-.023.021-.027.034c-.106.422-.206.845-.317,1.265-.087.329-.185.654-.283.98q-.2.653-.426,1.3c-.2.551-.412,1.1-.649,1.632q-.255.576-.549,1.133t-.633,1.076a9.9,9.9,0,0,1-.624.854,6.26,6.26,0,0,1-.694.719,3.337,3.337,0,0,1-.528.385.231.231,0,0,1-.044.015.069.069,0,0,1,.026-.063,1.515,1.515,0,0,0,.339-.547,2.467,2.467,0,0,0,.139-.482c.017-.092.034-.184.049-.276s.007-.158.022-.234a2.655,2.655,0,0,0,.021-.484c0-.159,0-.318,0-.476a.347.347,0,0,0-.018-.151.322.322,0,0,1-.005-.106.532.532,0,0,0-.021-.21.21.21,0,0,1,0-.071.313.313,0,0,0-.021-.162.038.038,0,0,1,0-.023c.014-.092-.035-.178-.025-.269-.037-.124-.029-.255-.067-.38a1.435,1.435,0,0,1-.029-.209,1.141,1.141,0,0,0-.023-.114c-.025-.1-.029-.2-.06-.3-.011-.033-.01-.07-.018-.1-.012-.053-.028-.105-.039-.158s-.016-.1-.027-.15c-.033-.144-.066-.288-.1-.432-.043-.178-.1-.352-.139-.531-.03-.133-.079-.261-.114-.393-.059-.218-.126-.434-.194-.65-.122-.383-.253-.764-.38-1.145-.025-.074-.053-.147-.081-.22a.194.194,0,0,1,0-.149c.042-.105.081-.212.124-.317q.1-.234.2-.466c.009-.022,0-.049.016-.063s.037-.028.032-.057" transform="translate(-76.817 -6.224)" fill="#ff4200"/>
        <path id="Path_21506" data-name="Path 21506" d="M53.319,8.674c.013-.007.026-.02.04-.021a.967.967,0,0,1,.416.067,1.873,1.873,0,0,1,.453.273,3.236,3.236,0,0,1,.478.461,8.035,8.035,0,0,1,.507.653c.182.258.344.528.511.795.094.15.173.309.259.464.223.4.42.813.622,1.224.109.222.2.452.306.678.034.076.068.151.1.226.067.151.135.3.2.454.074.173.144.349.217.522s.143.332.212.5c.077.189.152.379.227.569q.087.219.172.439a.215.215,0,0,1,.008.035c.023.062.05.123.069.186a1.977,1.977,0,0,1,.068.283c.012.09.048.173.059.263.005.042.015.084.018.1-.056.145-.1.27-.152.393-.08.2-.148.4-.223.592-.065.171-.118.347-.175.521-.041.122-.083.244-.12.367-.082.28-.169.559-.244.841q-.091.338-.175.678a3.741,3.741,0,0,0-.083.4c-.012.088-.035.175-.052.264s-.025.17-.045.252a1.044,1.044,0,0,1-.039.206.075.075,0,0,0,0,.023c-.008.09-.017.179-.025.269a.832.832,0,0,0-.025.15.232.232,0,0,1-.019.139c-.009.016,0,.039,0,.059a.936.936,0,0,1-.019.211.847.847,0,0,0-.006.19.407.407,0,0,1-.02.187.139.139,0,0,0,0,.059c0,.119,0,.238,0,.357a.722.722,0,0,0,.014.092.57.57,0,0,1,.007.07c0,.063,0,.127,0,.19a.222.222,0,0,0,.018.127.053.053,0,0,1,0,.034.824.824,0,0,0,.028.269,3.776,3.776,0,0,0,.12.523,2.443,2.443,0,0,0,.208.46c.039.068.085.132.13.2a.067.067,0,0,1,.012.055.613.613,0,0,1-.189-.119,5.531,5.531,0,0,1-.788-.741,9.229,9.229,0,0,1-.855-1.141,14.061,14.061,0,0,1-.791-1.409,18.046,18.046,0,0,1-.74-1.736q-.21-.568-.387-1.146c-.147-.48-.281-.964-.395-1.453-.082-.35-.157-.7-.233-1.053a.659.659,0,0,1-.007-.095c0-.016,0-.032,0-.049s.017-.008.018-.013c.038-.2.084-.4.13-.6s.086-.4.129-.6.081-.375.108-.565c.02-.147.059-.291.088-.437a1.1,1.1,0,0,0,.026-.15c.007-.114.04-.224.056-.337.019-.135.043-.27.068-.4.011-.058.013-.118.028-.174.021-.08.022-.163.039-.243s.011-.166.032-.245c.016-.059,0-.12.024-.174a.661.661,0,0,0,.019-.176c0-.012,0-.026,0-.035a.372.372,0,0,0,.021-.151c.006-.051.017-.1.021-.151.006-.078.011-.156.021-.235.016-.129.012-.259.024-.389a4.305,4.305,0,0,0,0-.476,4.524,4.524,0,0,0-.018-.485c-.017-.14-.027-.281-.051-.42a2.479,2.479,0,0,0-.1-.4,1.14,1.14,0,0,0-.325-.513.37.37,0,0,1-.039-.045" transform="translate(-45.311 -7.397)" fill="#ff8900"/>
        <path id="Path_21507" data-name="Path 21507" d="M52.854,59.529c0,.016,0,.032,0,.049l-.023-.012c0-.035,0-.071,0-.106.038.013.022.045.025.07" transform="translate(-45.173 -50.842)" fill="#ff4200"/>
        <path id="Path_21508" data-name="Path 21508" d="M83.427,121.773c.023,0,.046,0,.045.032l-.045-.032" transform="translate(-71.337 -104.126)" fill="#ff8900"/>
        <path id="Path_21509" data-name="Path 21509" d="M94.946,122.615c.009-.025.029-.023.049-.021a.035.035,0,0,1-.049.021" transform="translate(-81.187 -104.827)" fill="#ff8900"/>
        <path id="Path_21510" data-name="Path 21510" d="M83.243,121.625a.022.022,0,0,1,.027.022l-.027-.022" transform="translate(-71.18 -103.999)" fill="#ff8900"/>
        <path id="Path_21511" data-name="Path 21511" d="M49.9,16.215c0-.025.013-.057-.025-.07h0a.742.742,0,0,0,0-.088c0-.011-.015-.021-.023-.032h0a1.155,1.155,0,0,0-.04-.3,1.5,1.5,0,0,1-.03-.2,2.153,2.153,0,0,0-.041-.253,1.349,1.349,0,0,1-.029-.2,1.462,1.462,0,0,1-.028-.244c-.041-.083-.006-.18-.046-.263.009-.091-.039-.177-.025-.268a.037.037,0,0,0,0-.023.279.279,0,0,1-.021-.15.162.162,0,0,0,0-.059.385.385,0,0,1-.021-.162.227.227,0,0,0-.045-.127c-.013-.031.015-.05.021-.075a1.512,1.512,0,0,1-.024-.293.023.023,0,0,0,0-.012.4.4,0,0,1-.022-.186.219.219,0,0,0,0-.071.608.608,0,0,1-.021-.222.2.2,0,0,0,0-.059.8.8,0,0,1-.022-.269c0-.028.007-.06,0-.082a.316.316,0,0,1-.018-.151.872.872,0,0,0-.007-.2.683.683,0,0,1-.018-.174c0-.1,0-.19,0-.285a.211.211,0,0,0-.009-.081.215.215,0,0,1-.013-.092q0-.481,0-.962c0-.063,0-.127,0-.189,0-.046.017-.092.022-.138a.247.247,0,0,1,.022-.126,1.82,1.82,0,0,1,.074-.378,1.983,1.983,0,0,1,.214-.544.887.887,0,0,1,.408-.378.367.367,0,0,1,.068-.015h.043a.37.37,0,0,0,.039.045,1.141,1.141,0,0,1,.325.513,2.47,2.47,0,0,1,.1.4c.025.139.034.28.051.42a4.524,4.524,0,0,1,.018.485,4.3,4.3,0,0,1,0,.476c-.012.13-.009.261-.024.389-.01.078-.015.156-.021.235,0,.051-.015.1-.021.151a.372.372,0,0,1-.021.151c-.005.009,0,.023,0,.035a.662.662,0,0,1-.019.176c-.019.054-.008.115-.024.174-.021.079-.016.164-.032.245s-.017.163-.039.243c-.015.056-.016.116-.027.174-.025.134-.049.27-.068.4-.016.113-.049.222-.056.336a1.092,1.092,0,0,1-.026.15c-.03.146-.068.29-.088.437-.027.19-.067.378-.108.565s-.083.4-.129.6-.092.4-.13.6c0,.005-.012.009-.018.013" transform="translate(-42.218 -7.529)" fill="#ff012c"/>
        <path id="Path_21512" data-name="Path 21512" d="M49.229,21q0,.481,0,.962a.216.216,0,0,0,.013.093.21.21,0,0,1,.009.081c0,.095,0,.19,0,.285a.677.677,0,0,0,.018.174.872.872,0,0,1,.006.2.316.316,0,0,0,.018.151c.012.022,0,.054,0,.082a.8.8,0,0,0,.022.269.2.2,0,0,1,0,.059.6.6,0,0,0,.021.222.218.218,0,0,1,0,.071.4.4,0,0,0,.022.186.023.023,0,0,1,0,.012,1.512,1.512,0,0,0,.024.292l-.034-.006a.038.038,0,0,1-.006-.012c-.011-.133-.015-.268-.035-.4s-.008-.268-.04-.4a.045.045,0,0,1,0-.012c.006-.143-.024-.283-.026-.425,0-.225-.038-.449-.027-.674a3.32,3.32,0,0,1-.022-.579c0-.194,0-.388,0-.582,0-.02,0-.04.021-.051" transform="translate(-42.073 -17.955)" fill="#ff4200"/>
        <path id="Path_21513" data-name="Path 21513" d="M50.386,43.18a.227.227,0,0,1,.045.127.384.384,0,0,0,.021.162.166.166,0,0,1,0,.059.278.278,0,0,0,.021.15.037.037,0,0,1,0,.023c-.014.092.034.177.025.268.039.084,0,.18.046.264a1.461,1.461,0,0,0,.028.244,1.371,1.371,0,0,0,.029.2,2.116,2.116,0,0,1,.041.253,1.5,1.5,0,0,0,.03.2,1.149,1.149,0,0,1,.04.3c-.007-.009-.018-.017-.02-.027-.024-.127-.049-.254-.069-.382s-.035-.249-.054-.373-.043-.255-.064-.383c-.011-.066-.019-.132-.027-.2-.011-.094-.017-.188-.029-.282s-.03-.178-.04-.267c-.012-.109-.018-.219-.027-.329" transform="translate(-43.084 -36.922)" fill="#ff4200"/>
        <path id="Path_21514" data-name="Path 21514" d="M52.668,58.635c.008.011.022.021.023.032a.811.811,0,0,1,0,.088.12.12,0,0,1-.021-.038.677.677,0,0,1,0-.082" transform="translate(-45.035 -50.138)" fill="#ff4200"/>
        <path id="Path_21515" data-name="Path 21515" d="M123.679,15.22a.45.45,0,0,1-.049-.181c-.041-.163-.069-.329-.1-.494-.027-.126-.057-.252-.084-.378-.021-.1-.039-.192-.058-.288s-.04-.207-.063-.31c-.012-.054,0-.112-.029-.161-.026-.178-.062-.354-.095-.531-.022-.119-.029-.242-.054-.36s-.034-.255-.064-.381c-.019-.08-.009-.166-.031-.245a1.984,1.984,0,0,0-.041-.267.074.074,0,0,1,0-.024,1.96,1.96,0,0,0-.03-.3,2.992,2.992,0,0,0-.04-.327.332.332,0,0,1,0-.083.7.7,0,0,0-.021-.223.163.163,0,0,1,0-.059q0-.482,0-.964a.9.9,0,0,1,.02-.187c.012-.061,0-.124.02-.187a1.676,1.676,0,0,0,.028-.2,2.058,2.058,0,0,1,.174-.571.781.781,0,0,1,.424-.425c.047-.018.1-.029.146-.043a.077.077,0,0,0,.053.043.67.67,0,0,1,.348.268,1.541,1.541,0,0,1,.218.5c.023.091.05.181.067.272s.02.171.028.257a.332.332,0,0,0,.016.117.2.2,0,0,1,.007.082q0,.53,0,1.059a.793.793,0,0,1-.014.092c0,.027-.007.054-.008.082a.812.812,0,0,1-.022.258.214.214,0,0,0,0,.059.328.328,0,0,1-.021.163.041.041,0,0,0,0,.023,2.914,2.914,0,0,1-.027.305,1.026,1.026,0,0,1-.021.139,1.065,1.065,0,0,1-.019.127,1.408,1.408,0,0,0-.026.2c-.01.125-.042.247-.056.372a2.73,2.73,0,0,1-.046.3,2.229,2.229,0,0,1-.065.321,2.872,2.872,0,0,1-.053.336,1.665,1.665,0,0,1-.058.286c-.017.057,0,.12-.033.172-.028.193-.08.382-.116.573-.017.092-.046.181-.057.275a2.412,2.412,0,0,1-.063.261c-.012.053-.017.108-.03.161a.476.476,0,0,1-.038.083" transform="translate(-105.096 -6.867)" fill="#ff012c"/>
      </g>
    </g>
    <g id="Group_20957" data-name="Group 20957" transform="translate(68.897 282.452)">
      <path id="Path_21488" data-name="Path 21488" d="M419.632,56.31a.235.235,0,0,1-.071.025q-.662,0-1.325,0a.269.269,0,0,1-.048-.011c-.015-.036-.035-.076-.051-.118-.111-.281-.221-.563-.333-.844-.016-.04-.039-.078-.067-.13-.041.045-.072.078-.1.112a3.477,3.477,0,0,1-.61.588,2.613,2.613,0,0,1-1.157.475,4.251,4.251,0,0,1-1.123.027,2.335,2.335,0,0,1-1.368-.6,1.96,1.96,0,0,1-.462-.682,2.433,2.433,0,0,1-.218-1.035c0-.092,0-.184,0-.276a2.008,2.008,0,0,1,.886-1.678,2.787,2.787,0,0,1,.841-.383,6.013,6.013,0,0,1,1.476-.242c.513-.021,1.027-.038,1.54-.057.033,0,.065-.005.108-.008a.785.785,0,0,0,.015-.112,2.8,2.8,0,0,0-.036-.59.922.922,0,0,0-.682-.743,1.781,1.781,0,0,0-.665-.056,5.7,5.7,0,0,0-1.737.425c-.1.041-.191.083-.3.13-.246-.473-.475-.945-.715-1.422a.632.632,0,0,1,.08-.056,6.589,6.589,0,0,1,3.724-.627,3.236,3.236,0,0,1,1.286.418,2.2,2.2,0,0,1,1.053,1.484,1.7,1.7,0,0,1,.047.391c0,.031-.006.067.038.079v.2c-.059.026-.036.078-.036.12q0,2.533,0,5.066c0,.046.005.091.008.137m-2.07-3.615c-.051,0-.082,0-.114,0-.329.011-.658.02-.986.034a2.212,2.212,0,0,0-1.064.324.991.991,0,0,0-.445.582,1.322,1.322,0,0,0-.011.682.7.7,0,0,0,.512.547,1.512,1.512,0,0,0,.25.055,1.731,1.731,0,0,0,1.321-.337,1.323,1.323,0,0,0,.533-.995c.019-.288,0-.578,0-.893" transform="translate(-369.682 -46.16)" fill="#20466c"/>
      <path id="Path_21490" data-name="Path 21490" d="M220,48.539c-.171.032-1.246.041-1.915.018-.006-.034-.015-.071-.018-.108s0-.079,0-.119V38.419l.027-.023a.035.035,0,0,1,.017-.008l2.769,0c.032,0,.065,0,.109,0,.208.646.4,1.294.6,1.939s.4,1.295.6,1.942l.6,1.943.6,1.951a.149.149,0,0,0,.075-.11q.393-1.2.786-2.4.834-2.55,1.667-5.1c.016-.05.035-.1.05-.143a.22.22,0,0,1,.021-.015A.04.04,0,0,1,226,38.39l2.749,0h.116a.345.345,0,0,1,.029.218q0,1.423,0,2.847,0,3.44,0,6.88a.862.862,0,0,1-.009.212c-.151.023-1.753.027-1.988,0a.484.484,0,0,1-.014-.207q0-2.323,0-4.646c0-.56.009-1.12.021-1.68.009-.428.028-.856.042-1.284a1.2,1.2,0,0,0-.009-.128.067.067,0,0,0-.08.056c-.074.225-.149.45-.223.675l-1.964,5.98q-.191.581-.383,1.161c-.008.024-.018.048-.026.068-.152.025-1.468.032-1.812.011-.015-.037-.034-.078-.047-.12l-2.31-7.464c-.037-.12-.076-.238-.112-.358a.057.057,0,0,0-.079-.044c0,.042-.008.087-.006.132q.03.7.062,1.4c0,.033,0,.066,0,.1.014.632.038,1.265.041,1.9.006,1.41,0,2.821,0,4.231,0,.071,0,.142-.005.211" transform="translate(-218.064 -38.386)" fill="#20466c"/>
      <path id="Path_21491" data-name="Path 21491" d="M277.553,54.758c.054-.287.089-.555.158-.815.087-.33.2-.655.3-.979q.617-1.874,1.238-3.746c.02-.062.046-.122.069-.183h2.236c.034.055,0,.094-.015.135l-1.453,3.859q-.925,2.455-1.85,4.911a3.779,3.779,0,0,1-1.191,1.644,3,3,0,0,1-1.262.582,3.71,3.71,0,0,1-1.2.05c-.144-.016-.288-.033-.431-.054-.064-.009-.127-.027-.187-.041-.022-.18-.021-1.492,0-1.651a.46.46,0,0,1,.094,0,3.151,3.151,0,0,0,.766.06,1.683,1.683,0,0,0,.428-.067,1.424,1.424,0,0,0,.6-.359,2.226,2.226,0,0,0,.517-.81c.061-.167.107-.339.16-.512l-1.02-2.568q-.514-1.293-1.027-2.585c-.338-.855-.682-1.707-1.02-2.575a.372.372,0,0,1,.083-.024q1.078,0,2.155,0a.345.345,0,0,1,.066.015c.017.045.038.092.055.141q.7,2.064,1.4,4.129a5.464,5.464,0,0,1,.271,1.231c0,.046.013.091.022.136a.676.676,0,0,0,.028.078" transform="translate(-261.228 -46.677)" fill="#20466c"/>
      <path id="Path_21492" data-name="Path 21492" d="M322.425,56.426h-2.14c-.054-.059-.029-.128-.029-.19q0-1.917,0-3.835c0-.217,0-.435,0-.652a2.211,2.211,0,0,0-.2-.937.989.989,0,0,0-.561-.525,1,1,0,0,0-.4-.08c-.079,0-.158-.005-.237,0a1.347,1.347,0,0,0-1.249.818,2.52,2.52,0,0,0-.2.72,7.818,7.818,0,0,0-.074,1.143q0,1.69,0,3.38c0,.064,0,.128-.008.2h-2.1a.329.329,0,0,1-.02-.07q0-3.844,0-7.693a.332.332,0,0,1,.08-.024q.751,0,1.5,0a.249.249,0,0,1,.05.013c.119.311.193.644.311.966h.1a.13.13,0,0,0,.033-.025,2.286,2.286,0,0,1,1.176-.89,3.353,3.353,0,0,1,1.179-.211,3.886,3.886,0,0,1,1.094.135,2.092,2.092,0,0,1,.929.539,2.45,2.45,0,0,1,.4.562,3.085,3.085,0,0,1,.37,1.478q0,2.481,0,4.962Z" transform="translate(-293.732 -46.293)" fill="#20466c"/>
      <path id="Path_21493" data-name="Path 21493" d="M355.835,41.481h1.333c.048.042.032.09.032.134,0,.448,0,.9,0,1.344,0,.058,0,.116.007.178a4.878,4.878,0,0,0,.542.011c.178,0,.356,0,.534,0h.534c.177,0,.354,0,.515,0a.234.234,0,0,1,.028.027.039.039,0,0,1,.006.019q0,.721,0,1.442a.629.629,0,0,1-.006.079c0,.005-.008.009-.027.029-.1.006-.22,0-.337,0h-1.786a.908.908,0,0,0-.013.1q0,1.858,0,3.716a.906.906,0,0,0,.043.271.676.676,0,0,0,.393.443,1.141,1.141,0,0,0,.44.1,4.384,4.384,0,0,0,.863-.1c.161-.032.319-.076.488-.117a.359.359,0,0,1,.019.074q0,.721,0,1.443a.391.391,0,0,1-.011.064,3.6,3.6,0,0,1-.652.21,4.4,4.4,0,0,1-1.076.13c-.191,0-.382.007-.572,0a2.369,2.369,0,0,1-1.357-.528,1.582,1.582,0,0,1-.481-.687,2.85,2.85,0,0,1-.2-.9c-.015-.263-.024-.526-.025-.79,0-1.087,0-2.174,0-3.261v-.148a.7.7,0,0,0-.113-.019c-.237,0-.475,0-.712,0h-.174a4.185,4.185,0,0,1-.02-.894.136.136,0,0,1,.009-.017.046.046,0,0,1,.012-.015l1.151-.712.609-1.63" transform="translate(-323.989 -40.797)" fill="#20466c"/>
      <path id="Path_21494" data-name="Path 21494" d="M385.667,56.273c0-.023-.006-.054-.007-.086-.023-1.422-.012-7.436.015-7.654a.407.407,0,0,1,.072-.016c.307-.015,1.368,0,1.515.017l.3,1.263h.111a2.712,2.712,0,0,1,3.072-1.346,5.812,5.812,0,0,1-.038.642c-.007.217-.031.433-.048.65s-.036.431-.055.659c-.064,0-.115,0-.164-.013a2.98,2.98,0,0,0-.886-.028,2.115,2.115,0,0,0-1.179.509,1.747,1.747,0,0,0-.546.985,2.078,2.078,0,0,0-.04.432q0,1.917,0,3.835v.14a.224.224,0,0,1-.025.03.034.034,0,0,1-.018.006l-1.958,0a.812.812,0,0,1-.1-.009c-.005,0-.01-.007-.025-.019" transform="translate(-348.611 -46.164)" fill="#20466c"/>
    </g>
  </g>
</svg>
