<svg xmlns="http://www.w3.org/2000/svg" xmlns:xlink="http://www.w3.org/1999/xlink" width="120" height="70" viewBox="0 0 120 70">
  <defs>
    <clipPath id="clip-path">
      <rect id="Rectangle_10552" data-name="Rectangle 10552" width="120" height="70" transform="translate(56 241)" fill="#fff" stroke="#707070" stroke-width="1"/>
    </clipPath>
    <clipPath id="clip-path-2">
      <rect id="Rectangle_10551" data-name="Rectangle 10551" width="36.312" height="25.964" fill="none"/>
    </clipPath>
  </defs>
  <g id="Mask_Group_22491" data-name="Mask Group 22491" transform="translate(-56 -241)" clip-path="url(#clip-path)">
    <g id="Group_23463" data-name="Group 23463" transform="translate(0.383 -2)">
      <g id="Group_23461" data-name="Group 23461" transform="translate(97.461 250.485)">
        <g id="Group_23460" data-name="Group 23460" transform="translate(0 0)" clip-path="url(#clip-path-2)">
          <path id="Path_23306" data-name="Path 23306" d="M444.03,65.035c0-.041-.007-.082-.007-.124q0-2.29,0-4.579c0-.038-.021-.085.033-.108v4.825a.033.033,0,0,1-.025-.014" transform="translate(-355.321 -48.193)" fill="#ad0505"/>
          <path id="Path_23307" data-name="Path 23307" d="M32.8,25.964l-.1-.095a3.9,3.9,0,0,1-1.152-.535,7.285,7.285,0,0,1-1.433-1.259A13.651,13.651,0,0,1,28.78,22.31c-.281-.438-.5-.807-.681-1.16l-.052-.1c-.2-.383-.406-.779-.6-1.18-.281-.58-.551-1.209-.85-1.979-.277-.715-.532-1.438-.759-2.151q-.115-.361-.221-.713c-.18.6-.379,1.2-.59,1.79-.3.847-.605,1.6-.919,2.311-.242.547-.506,1.092-.784,1.619-.286.542-.594,1.066-.916,1.558a14.63,14.63,0,0,1-.919,1.256,9.552,9.552,0,0,1-1.058,1.1,5.571,5.571,0,0,1-.872.636l-.055.03a.928.928,0,0,1-.134.071,2.314,2.314,0,0,1-.858.349,3.536,3.536,0,0,1-.669.063h-.079a2.345,2.345,0,0,1-1.519-.6c-.031-.027-.062-.056-.092-.085a1.737,1.737,0,0,1-.306-.2l-.031-.024A8.472,8.472,0,0,1,14.6,23.753a13.554,13.554,0,0,1-1.265-1.685,20.242,20.242,0,0,1-1.142-2.034,25.6,25.6,0,0,1-1.057-2.481c-.2-.546-.387-1.094-.55-1.628l-.082-.27c-.081.252-.166.51-.256.774-.278.815-.56,1.56-.861,2.275-.2.468-.41.939-.631,1.4a19.935,19.935,0,0,1-1.553,2.7A11.236,11.236,0,0,1,6.4,23.852l-.091.1c-.116.133-.236.271-.371.409a6.692,6.692,0,0,1-1.357,1.09,4.056,4.056,0,0,1-.853.385l-.088.124H2.312l-.129-.091a2.393,2.393,0,0,1-1.129-.72A3.731,3.731,0,0,1,.276,23.7,6.684,6.684,0,0,1,.1,22.905c-.022-.123-.032-.236-.04-.335,0-.041-.007-.082-.012-.123a9.665,9.665,0,0,1-.035-1.4l0-.149c0-.19.024-.371.041-.53.006-.056.012-.112.017-.169.009-.1.02-.2.031-.3l.007-.059c.042-.376.1-.738.165-1.089C.4,18,.587,17.279.732,16.731c.1-.376.213-.751.31-1.068.069-.227.145-.453.22-.679l.071-.214a.926.926,0,0,1,.045-.209c.076-.228.155-.452.234-.677.006-.017.013-.036.021-.056l.043-.138c.032-.1.064-.2.1-.307.042-.124.087-.247.134-.369.011-.027.022-.053.034-.078s.013-.042.021-.063l.144-.4c.134-.375.268-.749.409-1.122.327-.867.686-1.745,1.1-2.682C4.05,7.662,4.519,6.664,5,5.7A31.275,31.275,0,0,1,6.547,2.946a10.672,10.672,0,0,1,.929-1.273A5.351,5.351,0,0,1,8.29.895c.219-.166.472-.276.689-.441a1.789,1.789,0,0,1,.743-.3,3.621,3.621,0,0,1,1.491.033,4.607,4.607,0,0,1,.684.2,4.93,4.93,0,0,1,1.492.935,7.171,7.171,0,0,1,.881.976A19.058,19.058,0,0,1,15.638,4.4c.42.736.823,1.52,1.2,2.329a24.522,24.522,0,0,1,1.219,3.2c.519-1.282,1.03-2.458,1.553-3.576.43-.918.8-1.651,1.159-2.308A16.188,16.188,0,0,1,21.9,2.216a6.645,6.645,0,0,1,.923-1.034A4.423,4.423,0,0,1,24.148.36a4.611,4.611,0,0,1,.739-.213A3.845,3.845,0,0,1,25.9,0a2.784,2.784,0,0,1,1.4.49c.173.122.356.262.559.426a10.046,10.046,0,0,1,.785.691,9.41,9.41,0,0,1,1.138,1.409c.357.528.712,1.118,1.117,1.859.6,1.1,1.2,2.331,1.83,3.749.363.821.706,1.657,1.02,2.484.237.625.471,1.3.738,2.111l0,.011c.011.026.021.054.031.084.109.34.218.684.327,1.028a1.055,1.055,0,0,1,.034.146q.013.032.024.065c.1.279.186.544.271.811.105.334.2.633.277.917.131.457.267.951.379,1.465.08.369.163.751.232,1.141.043.246.075.487.105.72.014.1.028.21.042.315.031.224.047.436.061.642,0,.07.01.14.016.211.024.292.024.571.023.84v.134a7.17,7.17,0,0,1-.055.794l-.009.087A5.939,5.939,0,0,1,36,23.8,3.657,3.657,0,0,1,35.39,25a2.476,2.476,0,0,1-1.227.865l-.131.1Z" transform="translate(0 0)" fill="#fff"/>
          <path id="Path_23308" data-name="Path 23308" d="M14.23,18.441c-.056.222-.108.444-.167.664-.134.5-.269,1-.409,1.5-.182.645-.383,1.283-.6,1.917-.255.748-.532,1.487-.839,2.216q-.289.686-.612,1.357a19.2,19.2,0,0,1-1.482,2.582,10.361,10.361,0,0,1-.739.961c-.141.16-.278.324-.427.476a5.8,5.8,0,0,1-1.171.944,3.035,3.035,0,0,1-.8.337c-.05.013-.112-.011-.151.043H6.28c-.013-.009-.025-.024-.039-.026a1.444,1.444,0,0,1-.831-.484,2.8,2.8,0,0,1-.579-1.106,5.758,5.758,0,0,1-.153-.684c-.024-.134-.029-.271-.045-.406A10.152,10.152,0,0,1,4.608,27.3c0-.212.034-.423.054-.635.011-.114.024-.228.036-.341.038-.346.1-.689.157-1.033.113-.655.271-1.3.441-1.94.092-.347.2-.691.3-1.034.091-.3.192-.59.289-.885.015-.046.036-.091.054-.136s.032-.067.044-.1q.093-.271.183-.543a.519.519,0,0,0,.013-.094h0c.037-.007.033-.039.039-.064.008-.007.02-.013.023-.021.056-.195.146-.377.214-.567a.762.762,0,0,0,.083-.239l.319-.767a.083.083,0,0,0,.01-.031.811.811,0,0,1,.066-.214c.014-.057.061-.083.079-.136.041-.123.1-.24.155-.359.128-.288.254-.578.387-.864.2-.435.4-.87.616-1.3.256-.518.524-1.03.787-1.545.042-.083.081-.167.126-.248q.289-.531.58-1.061c.071-.129.138-.259.211-.387.151-.265.306-.527.456-.793.2-.346.405-.684.624-1.016.192-.291.391-.577.6-.857.179-.24.366-.476.567-.7a6.423,6.423,0,0,1,.523-.541,5.91,5.91,0,0,1,.653-.516,1.912,1.912,0,0,1,.544-.256.986.986,0,0,1,.528-.041.654.654,0,0,1,.289.135.5.5,0,0,0-.094.02A1.224,1.224,0,0,0,14,8.717a2.739,2.739,0,0,0-.294.75,2.482,2.482,0,0,0-.1.52.34.34,0,0,0-.031.173c-.007.064-.026.126-.03.19-.005.087,0,.174,0,.261-.029.016-.029.043-.029.071,0,.267-.008.535,0,.8a4.6,4.6,0,0,0,.03.8c-.014.311.034.619.038.929,0,.2.045.389.036.586a.057.057,0,0,0,0,.016c.045.18.027.367.055.55s.033.367.048.551c0,0,0,.01.008.016l.047.008c-.008.035-.047.061-.03.1.012.151.021.3.038.453.014.123.04.245.055.369s.026.259.04.388c.01.091.023.183.037.274.028.176.061.351.088.527s.047.343.075.514.062.351.1.526c0,.014.018.025.028.037h0a1.019,1.019,0,0,0,0,.113.169.169,0,0,0,.029.052h0c0,.049,0,.1,0,.146" transform="translate(-3.677 -6.417)" fill="#ff00b5"/>
          <path id="Path_23309" data-name="Path 23309" d="M135.771,31.413c-.008-.007-.015-.02-.023-.021a2.8,2.8,0,0,1-1.094-.459,6.392,6.392,0,0,1-1.252-1.1,12.8,12.8,0,0,1-1.241-1.649c-.227-.354-.445-.714-.64-1.087-.217-.417-.435-.833-.64-1.255-.3-.624-.569-1.264-.82-1.91q-.4-1.037-.74-2.1c-.33-1.039-.628-2.087-.883-3.147-.057-.238-.118-.476-.178-.719l-.037-.016v-.035a.642.642,0,0,0,.053-.115c.018-.073.025-.149.041-.222a3.241,3.241,0,0,0,.087-.36c.014-.13.054-.253.078-.38.05-.264.122-.524.16-.79.053-.071.023-.159.046-.237a2.26,2.26,0,0,0,.08-.395,3.918,3.918,0,0,0,.074-.463,3.076,3.076,0,0,0,.09-.442,3.865,3.865,0,0,0,.063-.414c.02-.172.064-.339.077-.512a1.946,1.946,0,0,1,.036-.272,1.51,1.51,0,0,0,.026-.176,1.517,1.517,0,0,0,.029-.191,4.016,4.016,0,0,0,.037-.421.053.053,0,0,1,0-.032.455.455,0,0,0,.029-.224.3.3,0,0,1,0-.082,1.113,1.113,0,0,0,.031-.356c0-.038.006-.075.011-.113a1.036,1.036,0,0,0,.019-.127q0-.73,0-1.46a.282.282,0,0,0-.01-.112.462.462,0,0,1-.022-.161c-.011-.118-.017-.238-.039-.354s-.06-.251-.092-.376a2.121,2.121,0,0,0-.3-.694.923.923,0,0,0-.48-.37A.106.106,0,0,1,128.282,8l.268-.007.091.032c.092.03.188.055.278.091a3.182,3.182,0,0,1,.946.629,7.4,7.4,0,0,1,.628.646c.123.145.248.289.366.439.164.21.33.418.477.64.186.281.379.557.557.843s.336.571.5.857.324.578.49.865c.123.212.24.426.355.642.2.369.4.737.588,1.11.385.762.776,1.522,1.123,2.3.128.288.263.573.393.86.06.133.115.269.173.4.066.155.133.309.2.464.1.23.191.461.286.692l.168.405a4.622,4.622,0,0,0,.163.466c.073.211.143.423.217.642l.036.009a.961.961,0,0,0,.06.183c.09.263.18.526.264.791.094.3.184.593.27.892.133.466.261.934.365,1.408.08.367.16.735.225,1.1.058.333.1.669.142,1,.037.265.05.532.071.8.025.3.02.6.02.9a7.343,7.343,0,0,1-.059.784,4.993,4.993,0,0,1-.207.991,2.766,2.766,0,0,1-.456.9,1.522,1.522,0,0,1-.915.593c-.013,0-.024.018-.037.027Z" transform="translate(-102.609 -6.398)" fill="#ff008d"/>
          <path id="Path_23310" data-name="Path 23310" d="M82.565,70.782a1.373,1.373,0,0,1-.63.291,2.62,2.62,0,0,1-.554.046,1.442,1.442,0,0,1-.937-.373c-.041-.036-.078-.076-.117-.114,0-.046-.03-.046-.062-.045h0a.031.031,0,0,0-.038-.03v0a.093.093,0,0,0-.017-.076c-.061-.089-.124-.177-.179-.27a3.364,3.364,0,0,1-.287-.635,5.207,5.207,0,0,1-.166-.721,1.135,1.135,0,0,1-.039-.37.074.074,0,0,0-.006-.048.306.306,0,0,1-.025-.176c0-.087,0-.175,0-.262a.789.789,0,0,0-.01-.1.994.994,0,0,1-.02-.127c0-.164,0-.328,0-.492a.194.194,0,0,1,0-.081.565.565,0,0,0,.027-.257,1.167,1.167,0,0,1,.007-.261,1.281,1.281,0,0,0,.027-.29c0-.027-.007-.06,0-.081a.319.319,0,0,0,.027-.191,1.153,1.153,0,0,1,.034-.207c.011-.124.023-.247.034-.371a.094.094,0,0,1,.007-.032,1.437,1.437,0,0,0,.054-.284c.028-.114.041-.232.062-.348s.055-.241.071-.363a5.122,5.122,0,0,1,.115-.551q.116-.468.241-.935c.1-.389.223-.773.337-1.16.05-.17.109-.338.165-.506.08-.24.152-.483.242-.719.1-.272.2-.547.307-.816.069-.169.132-.342.209-.542,0-.029-.018-.086-.025-.145-.016-.123-.065-.238-.081-.362a2.713,2.713,0,0,0-.094-.391c-.025-.087-.063-.171-.095-.256l.076,0c.039.146.079.292.115.438s.1.3.15.464a.655.655,0,0,0,.05-.083c.122-.319.242-.638.363-.957.025-.065.056-.127.084-.191h.076c.007.039-.026.053-.044.078s-.009.057-.021.087q-.138.32-.269.642c-.059.145-.113.291-.171.437a.267.267,0,0,0,0,.206c.039.1.078.2.112.3.176.525.356,1.05.524,1.578.094.3.187.595.267.9.049.182.117.358.158.541.055.247.132.487.192.732q.073.3.14.6c.016.068.022.138.037.206s.038.145.054.218c.011.047.009.1.024.143.043.134.049.275.083.41a1.578,1.578,0,0,1,.032.158,2,2,0,0,0,.039.288c.052.172.041.353.093.523-.013.126.054.244.034.371a.051.051,0,0,0,0,.032.432.432,0,0,1,.029.224.3.3,0,0,0,0,.1.738.738,0,0,1,.029.29.443.443,0,0,0,.007.146.479.479,0,0,1,.025.209c0,.219,0,.438,0,.656a3.676,3.676,0,0,1-.029.667c-.021.1-.013.214-.03.322-.021.127-.044.254-.067.381a3.4,3.4,0,0,1-.191.665,2.094,2.094,0,0,1-.467.753.094.094,0,0,0-.035.087h0c-.028,0-.056-.005-.068.029" transform="translate(-63.599 -46.263)" fill="#ff4200"/>
          <path id="Path_23311" data-name="Path 23311" d="M92.166,15.229H92.09c.072-.194.141-.39.217-.583.568-1.437,1.17-2.86,1.825-4.259.357-.762.726-1.517,1.132-2.255a15.61,15.61,0,0,1,1.074-1.725,5.761,5.761,0,0,1,.8-.893,3.6,3.6,0,0,1,1.35-.751,2.264,2.264,0,0,1,1.98.127c.174.123.343.254.508.389a9.309,9.309,0,0,1,.715.627,8.661,8.661,0,0,1,1.028,1.276c.39.575.739,1.175,1.072,1.784.656,1.2,1.244,2.431,1.8,3.68q.533,1.206,1,2.438c.259.684.5,1.375.724,2.07a.184.184,0,0,1,0,.048l-.054,0-.168-.405c-.1-.231-.19-.461-.286-.692-.065-.155-.132-.309-.2-.464-.058-.135-.112-.27-.173-.4-.13-.287-.265-.572-.393-.86-.348-.781-.738-1.541-1.123-2.3-.189-.374-.39-.741-.588-1.11-.116-.216-.233-.43-.355-.642-.166-.287-.323-.579-.49-.865s-.328-.576-.5-.857-.371-.562-.557-.843c-.147-.222-.313-.431-.477-.64-.118-.15-.243-.293-.366-.438a7.376,7.376,0,0,0-.628-.646A3.185,3.185,0,0,0,100,5.4c-.09-.037-.185-.061-.278-.091l-.091-.033s0-.011-.009-.014a.909.909,0,0,0-.708-.1,1.435,1.435,0,0,0-.412.149,3.9,3.9,0,0,0-.857.619,6.877,6.877,0,0,0-.757.814c-.11.142-.233.274-.34.418-.152.205-.3.415-.44.627-.176.261-.352.523-.517.791-.145.236-.276.48-.414.721-.162.283-.326.565-.486.849q-.184.327-.362.658c-.208.388-.421.774-.618,1.169-.258.516-.524,1.028-.766,1.552-.16.345-.328.686-.484,1.034l-.3.668" transform="translate(-73.694 -3.68)" fill="#ad0505"/>
          <path id="Path_23312" data-name="Path 23312" d="M28.857,15.87l-.076,0a.3.3,0,0,0-.011-.048q-.118-.3-.237-.6c-.1-.262-.206-.524-.312-.784-.094-.231-.2-.459-.292-.689s-.2-.481-.3-.72c-.089-.21-.183-.418-.275-.626-.046-.1-.094-.208-.14-.312-.14-.312-.271-.628-.422-.934-.278-.566-.55-1.136-.857-1.687-.119-.213-.228-.433-.358-.64-.23-.368-.453-.74-.7-1.1a11.073,11.073,0,0,0-.7-.9,4.46,4.46,0,0,0-.659-.636,2.582,2.582,0,0,0-.625-.376,1.333,1.333,0,0,0-.573-.092c-.019,0-.037.019-.055.029H22.2a.653.653,0,0,0-.288-.135.984.984,0,0,0-.528.041,1.915,1.915,0,0,0-.544.255,5.909,5.909,0,0,0-.653.516,6.391,6.391,0,0,0-.523.541c-.2.222-.388.458-.568.7-.208.279-.407.566-.6.856-.219.332-.428.67-.624,1.016-.15.265-.305.528-.456.793-.073.128-.141.258-.211.387q-.29.531-.58,1.061c-.044.082-.083.165-.126.248-.263.515-.53,1.027-.787,1.545-.213.429-.414.865-.616,1.3-.133.286-.258.576-.387.864-.053.119-.114.236-.155.359-.018.053-.065.079-.079.136a.8.8,0,0,0-.066.214.083.083,0,0,1-.01.031l-.319.767-.058.01a.8.8,0,0,1,.023-.11c.181-.5.359-1.009.548-1.51.336-.889.7-1.767,1.078-2.638q.647-1.479,1.373-2.921c.46-.913.947-1.812,1.5-2.675a9.88,9.88,0,0,1,.849-1.166,4.471,4.471,0,0,1,.674-.647,3.057,3.057,0,0,1,.46-.291,2.16,2.16,0,0,1,.844-.26A3.8,3.8,0,0,1,22.061,5a2.287,2.287,0,0,1,.8.236,5.841,5.841,0,0,1,1.134.719,6.311,6.311,0,0,1,.768.853,18.3,18.3,0,0,1,1.3,2.008q.63,1.1,1.161,2.259a23.434,23.434,0,0,1,1.219,3.23c.126.429.237.863.353,1.3.024.089.04.181.06.271" transform="translate(-11.224 -3.993)" fill="#ad0505"/>
          <path id="Path_23313" data-name="Path 23313" d="M168.01,67.681l.054,0c.01.013.025.024.029.038q.164.513.327,1.028a.24.24,0,0,1,0,.048l-.036-.009c-.074-.219-.144-.431-.217-.642a4.608,4.608,0,0,1-.163-.466" transform="translate(-134.448 -54.161)" fill="#ff012c"/>
          <path id="Path_23314" data-name="Path 23314" d="M12.882,66.349l.059-.01a.762.762,0,0,1-.083.239c-.068.19-.158.372-.214.567,0,.009-.015.014-.023.021l-.024-.034c.042-.134.083-.268.127-.4.038-.113.08-.224.122-.336a.193.193,0,0,1,.036-.046" transform="translate(-10.081 -53.087)" fill="#ff008d"/>
          <path id="Path_23315" data-name="Path 23315" d="M11.5,70.794a.519.519,0,0,1-.013.094q-.089.272-.183.543c-.012.035-.029.068-.044.1-.005-.02-.019-.044-.014-.06.074-.222.151-.442.229-.663,0-.007.017-.01.025-.015" transform="translate(-9.002 -56.652)" fill="#ff012c"/>
          <path id="Path_23316" data-name="Path 23316" d="M12.537,70.31l.024.034c-.007.026,0,.058-.039.064l.015-.1" transform="translate(-10.021 -56.265)" fill="#ff012c"/>
          <path id="Path_23317" data-name="Path 23317" d="M90.362,17.374l.3-.668c.156-.347.324-.689.484-1.034.242-.524.508-1.036.766-1.552.2-.394.41-.78.618-1.169q.177-.331.362-.658c.16-.284.325-.566.486-.849.138-.241.268-.485.414-.721.165-.268.341-.53.517-.791.142-.212.288-.422.44-.627.107-.144.23-.276.34-.418a6.876,6.876,0,0,1,.757-.814,3.9,3.9,0,0,1,.857-.619,1.435,1.435,0,0,1,.412-.149.909.909,0,0,1,.708.1s.006.009.009.014l-.268.007c-.067.019-.136.034-.2.059a1.075,1.075,0,0,0-.584.586,2.835,2.835,0,0,0-.241.787,2.265,2.265,0,0,1-.039.272c-.024.087-.01.174-.028.258a1.256,1.256,0,0,0-.028.257c0,.443,0,.886,0,1.328a.23.23,0,0,0,0,.082.959.959,0,0,1,.029.307.457.457,0,0,0,0,.114,4.124,4.124,0,0,1,.055.45,2.7,2.7,0,0,1,.041.42.115.115,0,0,0,0,.033,2.706,2.706,0,0,1,.057.368c.03.108.017.228.043.337.042.174.051.352.089.526s.044.332.074.5c.046.244.094.487.13.732.044.069.024.149.041.223.032.142.059.285.087.427s.051.265.079.4c.037.174.079.347.116.521.048.227.086.456.143.68a.616.616,0,0,0,.067.249c0,.012,0,.024,0,.036s-.032.03-.037.047c-.146.581-.284,1.164-.437,1.744-.12.453-.256.9-.39,1.351q-.269.9-.587,1.786c-.273.76-.568,1.511-.895,2.25q-.352.794-.757,1.562T93.529,27.6a13.649,13.649,0,0,1-.861,1.177,8.628,8.628,0,0,1-.957.991,4.6,4.6,0,0,1-.728.531.318.318,0,0,1-.061.021.1.1,0,0,1,.035-.087,2.088,2.088,0,0,0,.467-.753,3.4,3.4,0,0,0,.191-.665c.024-.127.047-.253.067-.381.017-.108.009-.218.03-.322a3.659,3.659,0,0,0,.029-.667c0-.219,0-.438,0-.657a.478.478,0,0,0-.025-.209.444.444,0,0,1-.007-.146.733.733,0,0,0-.029-.29.29.29,0,0,1,0-.1.432.432,0,0,0-.029-.224.052.052,0,0,1,0-.032c.02-.127-.048-.245-.034-.371-.052-.17-.041-.352-.092-.523a1.976,1.976,0,0,1-.039-.288,1.574,1.574,0,0,0-.032-.158c-.034-.135-.04-.276-.083-.41-.015-.046-.014-.1-.024-.143-.016-.073-.038-.145-.054-.218s-.022-.138-.037-.206c-.045-.2-.091-.4-.14-.6-.06-.245-.137-.485-.192-.732-.041-.183-.109-.36-.158-.541-.081-.3-.173-.6-.267-.9-.168-.528-.348-1.053-.524-1.578-.034-.1-.073-.2-.112-.3a.268.268,0,0,1,0-.206c.058-.145.112-.292.171-.437q.132-.322.269-.642c.013-.03.007-.067.021-.087s.051-.039.044-.078" transform="translate(-71.89 -5.825)" fill="#ff4200"/>
          <path id="Path_23318" data-name="Path 23318" d="M53.443,8.683c.018-.01.036-.028.055-.029a1.333,1.333,0,0,1,.573.092,2.582,2.582,0,0,1,.625.376,4.46,4.46,0,0,1,.659.636,11.075,11.075,0,0,1,.7.9c.251.355.474.728.7,1.1.129.207.239.426.358.64.308.551.579,1.121.857,1.687.151.307.282.623.422.934.047.1.094.208.14.312.092.208.186.416.275.626.1.239.2.48.3.72s.2.458.292.689c.107.26.209.523.312.784q.12.3.237.6a.3.3,0,0,1,.011.048c.032.085.07.169.095.256a2.726,2.726,0,0,1,.094.391c.017.124.066.239.081.362.007.059.02.116.025.145-.077.2-.14.372-.209.542-.11.269-.2.545-.307.816-.09.236-.162.479-.242.719-.056.168-.115.336-.165.506-.114.386-.233.771-.337,1.16q-.125.466-.241.935a5.159,5.159,0,0,0-.115.551c-.016.122-.049.242-.071.363s-.034.234-.062.348a1.439,1.439,0,0,1-.054.284.1.1,0,0,0-.007.032c-.012.124-.024.247-.034.371a1.148,1.148,0,0,0-.034.207.319.319,0,0,1-.027.191c-.012.021,0,.054,0,.081a1.291,1.291,0,0,1-.026.29,1.168,1.168,0,0,0-.008.261.562.562,0,0,1-.027.257.191.191,0,0,0,0,.081c0,.164,0,.328,0,.492a1,1,0,0,0,.02.127.787.787,0,0,1,.01.1c0,.087,0,.175,0,.262a.306.306,0,0,0,.025.176.074.074,0,0,1,.006.048,1.136,1.136,0,0,0,.039.37,5.206,5.206,0,0,0,.166.721,3.368,3.368,0,0,0,.287.635c.054.093.117.181.179.27a.093.093,0,0,1,.017.076.844.844,0,0,1-.26-.165,7.624,7.624,0,0,1-1.086-1.022,12.723,12.723,0,0,1-1.179-1.573,19.384,19.384,0,0,1-1.09-1.942A24.876,24.876,0,0,1,54.4,24.127q-.289-.783-.534-1.58c-.2-.662-.387-1.329-.544-2-.113-.483-.216-.967-.322-1.451a.909.909,0,0,1-.01-.13c0-.022,0-.045,0-.067.009-.006.023-.01.025-.017.052-.276.116-.549.179-.822s.118-.548.178-.822c.056-.258.112-.517.149-.779.028-.2.081-.4.121-.6a1.516,1.516,0,0,0,.036-.207c.009-.158.055-.309.077-.464.027-.186.059-.373.094-.558.015-.08.017-.162.038-.24.029-.11.031-.224.053-.335s.015-.229.044-.337c.021-.081.006-.166.033-.241a.911.911,0,0,0,.026-.242c0-.016,0-.036,0-.049a.512.512,0,0,0,.029-.209c.008-.07.024-.138.029-.208.008-.108.015-.216.028-.323.022-.177.017-.357.034-.536a5.936,5.936,0,0,0,.007-.656,6.238,6.238,0,0,0-.025-.668c-.024-.193-.037-.387-.071-.579a3.416,3.416,0,0,0-.135-.55,1.571,1.571,0,0,0-.448-.707.511.511,0,0,1-.053-.062" transform="translate(-42.405 -6.923)" fill="#ff8900"/>
          <path id="Path_23319" data-name="Path 23319" d="M52.863,59.555c0,.022,0,.045,0,.067l-.032-.017c0-.049,0-.1,0-.146.053.018.03.062.034.1" transform="translate(-42.276 -47.581)" fill="#ff4200"/>
          <path id="Path_23320" data-name="Path 23320" d="M83.427,121.773c.032,0,.064,0,.062.045l-.062-.045" transform="translate(-66.762 -97.447)" fill="#ff8900"/>
          <path id="Path_23321" data-name="Path 23321" d="M94.946,122.624c.012-.035.04-.032.068-.029a.048.048,0,0,1-.068.029" transform="translate(-75.98 -98.104)" fill="#ff8900"/>
          <path id="Path_23322" data-name="Path 23322" d="M83.243,121.625a.031.031,0,0,1,.038.03l-.038-.03" transform="translate(-66.614 -97.329)" fill="#ff8900"/>
          <path id="Path_23323" data-name="Path 23323" d="M50.1,19.02c0-.035.019-.079-.034-.1h0a1.025,1.025,0,0,0,0-.121c0-.016-.021-.029-.032-.044h0a1.591,1.591,0,0,0-.055-.414,2.074,2.074,0,0,1-.042-.269,2.967,2.967,0,0,0-.057-.349,1.86,1.86,0,0,1-.04-.269,2.015,2.015,0,0,1-.038-.337c-.057-.115-.009-.248-.063-.363.012-.125-.054-.244-.035-.37a.051.051,0,0,0,0-.032.384.384,0,0,1-.029-.207.223.223,0,0,0,0-.081.531.531,0,0,1-.029-.224.313.313,0,0,0-.062-.175c-.018-.042.021-.069.03-.1a2.084,2.084,0,0,1-.034-.4.031.031,0,0,0,0-.016.544.544,0,0,1-.03-.256.3.3,0,0,0,0-.1.838.838,0,0,1-.029-.305.274.274,0,0,0,0-.081,1.1,1.1,0,0,1-.031-.371c0-.038.01-.083-.006-.113a.436.436,0,0,1-.025-.208,1.2,1.2,0,0,0-.009-.277.941.941,0,0,1-.024-.24c0-.131,0-.262,0-.393a.29.29,0,0,0-.013-.112.3.3,0,0,1-.019-.127q0-.663,0-1.327c0-.087,0-.174,0-.261,0-.064.023-.126.03-.19a.34.34,0,0,1,.03-.173,2.508,2.508,0,0,1,.1-.52,2.733,2.733,0,0,1,.294-.75,1.222,1.222,0,0,1,.563-.521.505.505,0,0,1,.094-.02h.059a.509.509,0,0,0,.053.062,1.573,1.573,0,0,1,.448.708,3.406,3.406,0,0,1,.135.55c.034.192.047.386.071.579a6.234,6.234,0,0,1,.025.668,5.936,5.936,0,0,1-.007.656c-.017.179-.012.359-.034.536-.013.108-.021.215-.028.323,0,.07-.021.139-.029.208a.512.512,0,0,1-.029.209c-.007.013,0,.032,0,.049a.912.912,0,0,1-.026.242c-.027.075-.012.159-.033.24-.029.109-.022.227-.044.338s-.024.225-.053.335c-.02.078-.023.16-.038.24-.035.185-.067.372-.094.558-.023.155-.068.306-.077.464a1.505,1.505,0,0,1-.036.207c-.041.2-.093.4-.121.6-.037.262-.092.521-.149.779-.06.274-.114.549-.178.822s-.127.546-.179.822c0,.007-.016.012-.025.018" transform="translate(-39.511 -7.046)" fill="#ff012c"/>
          <path id="Path_23324" data-name="Path 23324" d="M49.239,21q0,.663,0,1.327a.3.3,0,0,0,.019.128.29.29,0,0,1,.013.112c0,.131,0,.262,0,.393a.934.934,0,0,0,.024.241,1.2,1.2,0,0,1,.009.277.435.435,0,0,0,.025.208c.016.03,0,.075.006.113a1.1,1.1,0,0,0,.031.371.28.28,0,0,1,0,.081.834.834,0,0,0,.029.306.3.3,0,0,1,0,.1.548.548,0,0,0,.03.256.031.031,0,0,1,0,.016,2.084,2.084,0,0,0,.034.4l-.047-.008a.052.052,0,0,1-.008-.016c-.015-.184-.02-.369-.048-.551s-.011-.369-.055-.55a.063.063,0,0,1,0-.016c.009-.2-.034-.39-.036-.586,0-.31-.052-.619-.038-.929a4.577,4.577,0,0,1-.03-.8c0-.267,0-.535,0-.8,0-.028,0-.055.029-.071" transform="translate(-39.374 -16.803)" fill="#ff4200"/>
          <path id="Path_23325" data-name="Path 23325" d="M50.386,43.18a.313.313,0,0,1,.062.175.53.53,0,0,0,.029.223.228.228,0,0,1,0,.081.383.383,0,0,0,.029.206.051.051,0,0,1,0,.032c-.019.126.047.244.035.37.054.115.006.248.063.363a2.014,2.014,0,0,0,.038.336,1.889,1.889,0,0,0,.04.27,2.917,2.917,0,0,1,.057.348,2.073,2.073,0,0,0,.042.269,1.583,1.583,0,0,1,.055.414c-.01-.012-.025-.024-.028-.037-.033-.175-.067-.35-.1-.526s-.048-.343-.075-.514-.06-.351-.088-.527c-.015-.091-.027-.182-.037-.274-.015-.129-.024-.259-.04-.388s-.042-.245-.055-.369c-.017-.151-.025-.3-.038-.453" transform="translate(-40.321 -34.554)" fill="#ff4200"/>
          <path id="Path_23326" data-name="Path 23326" d="M52.668,58.635c.011.015.03.028.032.044a1.119,1.119,0,0,1,0,.121.165.165,0,0,1-.029-.052.935.935,0,0,1,0-.113" transform="translate(-42.147 -46.922)" fill="#ff4200"/>
          <path id="Path_23327" data-name="Path 23327" d="M123.971,17.941a.621.621,0,0,1-.068-.249c-.057-.225-.1-.454-.143-.68-.037-.174-.078-.347-.116-.521-.028-.132-.053-.264-.08-.4s-.055-.286-.087-.427c-.017-.074,0-.154-.041-.223-.036-.245-.085-.488-.13-.732-.031-.164-.039-.333-.075-.5s-.047-.352-.089-.526c-.027-.11-.013-.229-.043-.337a2.737,2.737,0,0,0-.057-.368.1.1,0,0,1,0-.033,2.7,2.7,0,0,0-.041-.42,4.12,4.12,0,0,0-.055-.45.458.458,0,0,1,0-.114.96.96,0,0,0-.029-.307.224.224,0,0,1,0-.081q0-.664,0-1.328a1.243,1.243,0,0,1,.028-.258c.017-.084,0-.171.027-.258A2.308,2.308,0,0,0,123,9.463a2.836,2.836,0,0,1,.241-.787,1.077,1.077,0,0,1,.584-.586c.065-.025.133-.039.2-.059a.106.106,0,0,0,.073.059.924.924,0,0,1,.48.37,2.124,2.124,0,0,1,.3.694c.032.125.069.249.092.375s.027.236.038.355a.458.458,0,0,0,.022.161.282.282,0,0,1,.01.112q0,.73,0,1.46a1.092,1.092,0,0,1-.019.127c-.005.037-.009.075-.011.113a1.12,1.12,0,0,1-.031.356.3.3,0,0,0,0,.081.453.453,0,0,1-.029.224.057.057,0,0,0,0,.032,4.02,4.02,0,0,1-.037.421,1.414,1.414,0,0,1-.029.191,1.468,1.468,0,0,1-.026.176,1.941,1.941,0,0,0-.036.272c-.014.173-.058.34-.077.512a3.761,3.761,0,0,1-.063.414,3.073,3.073,0,0,1-.09.442,3.96,3.96,0,0,1-.074.463,2.294,2.294,0,0,1-.08.395c-.023.079.006.166-.046.237-.038.266-.11.526-.16.79-.024.127-.064.25-.078.38a3.326,3.326,0,0,1-.087.36c-.017.073-.023.149-.041.222a.657.657,0,0,1-.053.115" transform="translate(-98.355 -6.427)" fill="#ff012c"/>
        </g>
      </g>
      <g id="Group_23462" data-name="Group 23462" transform="translate(81.171 283.954)">
        <path id="Path_23328" data-name="Path 23328" d="M422.257,59.316a.323.323,0,0,1-.1.034q-.913,0-1.826,0a.371.371,0,0,1-.067-.015c-.021-.049-.048-.1-.071-.162-.153-.387-.3-.776-.459-1.163-.022-.055-.054-.107-.092-.179-.056.062-.1.107-.138.155a4.8,4.8,0,0,1-.841.811,3.6,3.6,0,0,1-1.594.654,5.859,5.859,0,0,1-1.548.038,3.219,3.219,0,0,1-1.885-.832,2.7,2.7,0,0,1-.637-.94,3.353,3.353,0,0,1-.3-1.426c0-.127,0-.254,0-.381a2.768,2.768,0,0,1,1.221-2.313,3.841,3.841,0,0,1,1.159-.528,8.289,8.289,0,0,1,2.035-.334c.708-.028,1.416-.053,2.123-.079.045,0,.09-.007.149-.012a1.078,1.078,0,0,0,.021-.154,3.851,3.851,0,0,0-.049-.813,1.271,1.271,0,0,0-.94-1.025,2.454,2.454,0,0,0-.917-.077,7.857,7.857,0,0,0-2.394.586c-.132.056-.263.115-.41.179-.339-.652-.654-1.3-.985-1.961a.869.869,0,0,1,.11-.078,9.083,9.083,0,0,1,5.133-.864,4.461,4.461,0,0,1,1.772.576,3.038,3.038,0,0,1,1.452,2.046,2.346,2.346,0,0,1,.065.539c0,.043-.008.093.052.109v.273c-.082.035-.05.108-.05.165q0,3.492,0,6.984c0,.063.007.126.011.189M419.4,54.333c-.07,0-.113,0-.157,0-.453.015-.907.027-1.36.047a3.049,3.049,0,0,0-1.467.447,1.366,1.366,0,0,0-.613.8,1.823,1.823,0,0,0-.015.94.971.971,0,0,0,.706.754,2.084,2.084,0,0,0,.344.076,2.386,2.386,0,0,0,1.821-.465,1.823,1.823,0,0,0,.735-1.371c.027-.4.005-.8.005-1.231" transform="translate(-353.404 -45.325)" fill="#223e6e"/>
        <path id="Path_23329" data-name="Path 23329" d="M220.73,52.381c-.235.044-1.717.057-2.64.025-.008-.047-.02-.1-.024-.148s0-.109,0-.164V38.431c.023-.019.029-.026.037-.031a.049.049,0,0,1,.023-.011l3.817,0c.045,0,.089,0,.15.006.287.89.551,1.783.828,2.673s.549,1.785.823,2.678l.823,2.678.828,2.69a.206.206,0,0,0,.1-.152q.541-1.654,1.084-3.308,1.15-3.515,2.3-7.031c.023-.068.048-.136.069-.2a.306.306,0,0,1,.029-.021.055.055,0,0,1,.025-.009l3.789-.006h.161a.476.476,0,0,1,.04.3q0,1.962,0,3.924,0,4.742,0,9.484a1.188,1.188,0,0,1-.013.293c-.208.032-2.416.037-2.741.007a.667.667,0,0,1-.019-.286q0-3.2,0-6.4c0-.772.013-1.544.029-2.316.012-.59.039-1.18.058-1.77a1.648,1.648,0,0,0-.013-.176.093.093,0,0,0-.11.077c-.1.31-.206.62-.307.93q-1.354,4.121-2.707,8.243-.263.8-.528,1.6c-.011.033-.025.066-.036.094-.209.034-2.024.044-2.5.015-.02-.051-.047-.108-.065-.166q-1.593-5.145-3.184-10.289c-.051-.165-.1-.328-.155-.493a.078.078,0,0,0-.109-.061c0,.058-.011.12-.008.182q.042.966.086,1.932c0,.045.005.091.007.136.02.872.052,1.743.056,2.615.009,1.944,0,3.888,0,5.832,0,.1,0,.2-.007.29" transform="translate(-218.064 -38.386)" fill="#223e6e"/>
        <path id="Path_23330" data-name="Path 23330" d="M279.1,56.926c.075-.4.123-.765.218-1.123.12-.455.272-.9.42-1.35q.85-2.583,1.706-5.163c.028-.085.063-.168.1-.252h3.083c.047.075,0,.129-.02.186l-2,5.319q-1.275,3.384-2.55,6.769a5.209,5.209,0,0,1-1.641,2.266,4.138,4.138,0,0,1-1.74.8,5.114,5.114,0,0,1-1.653.069c-.2-.022-.4-.046-.594-.074-.089-.012-.176-.038-.258-.056-.03-.248-.028-2.057,0-2.276a.634.634,0,0,1,.129,0,4.343,4.343,0,0,0,1.056.082,2.321,2.321,0,0,0,.59-.093,1.963,1.963,0,0,0,.834-.495,3.068,3.068,0,0,0,.712-1.116c.084-.23.147-.467.221-.706L276.3,56.177q-.708-1.782-1.416-3.564c-.466-1.178-.94-2.353-1.406-3.55a.512.512,0,0,1,.115-.033q1.486,0,2.971,0a.475.475,0,0,1,.091.02c.024.062.053.127.076.194q.965,2.846,1.928,5.691a7.53,7.53,0,0,1,.374,1.7c.006.063.018.126.03.188a.938.938,0,0,0,.038.107" transform="translate(-256.594 -45.786)" fill="#223e6e"/>
        <path id="Path_23331" data-name="Path 23331" d="M325.159,59.411h-2.95c-.074-.081-.04-.176-.04-.262q0-2.643,0-5.286c0-.3,0-.6,0-.9a3.049,3.049,0,0,0-.281-1.292,1.364,1.364,0,0,0-.774-.724,1.38,1.38,0,0,0-.557-.11c-.109,0-.218-.007-.327,0a1.857,1.857,0,0,0-1.722,1.127,3.471,3.471,0,0,0-.276.993,10.77,10.77,0,0,0-.1,1.575q0,2.33,0,4.66c0,.088-.006.176-.011.281h-2.894a.453.453,0,0,1-.027-.1q0-5.3,0-10.6a.458.458,0,0,1,.11-.033q1.036,0,2.072,0a.344.344,0,0,1,.069.018c.164.428.266.888.429,1.332h.137a.178.178,0,0,0,.046-.034,3.151,3.151,0,0,1,1.621-1.227,4.622,4.622,0,0,1,1.625-.291,5.356,5.356,0,0,1,1.508.186,2.883,2.883,0,0,1,1.281.743,3.377,3.377,0,0,1,.551.774,4.252,4.252,0,0,1,.511,2.037q-.005,3.419,0,6.839Z" transform="translate(-285.608 -45.444)" fill="#223e6e"/>
        <path id="Path_23332" data-name="Path 23332" d="M356.513,41.481h1.837c.066.057.044.125.044.185,0,.618,0,1.235,0,1.853,0,.08.006.159.009.246a6.725,6.725,0,0,0,.747.015c.245,0,.49,0,.736,0h.736c.244,0,.488,0,.71,0a.323.323,0,0,1,.039.038.053.053,0,0,1,.008.026q0,.994,0,1.988a.866.866,0,0,1-.009.108c0,.007-.012.013-.037.039-.141.009-.3,0-.464,0h-2.462a1.257,1.257,0,0,0-.018.143q0,2.561,0,5.122a1.249,1.249,0,0,0,.059.374.932.932,0,0,0,.541.611,1.573,1.573,0,0,0,.606.134,6.043,6.043,0,0,0,1.189-.131c.221-.044.44-.105.673-.162a.492.492,0,0,1,.026.1q0,.994,0,1.989a.544.544,0,0,1-.015.088,4.968,4.968,0,0,1-.9.29,6.066,6.066,0,0,1-1.483.179c-.263,0-.527.01-.789,0a3.266,3.266,0,0,1-1.87-.727,2.18,2.18,0,0,1-.664-.947A3.928,3.928,0,0,1,355.5,51.8c-.021-.362-.033-.726-.034-1.089,0-1.5,0-3,0-4.5v-.2a.969.969,0,0,0-.155-.027c-.327,0-.654,0-.981,0h-.24a5.77,5.77,0,0,1-.027-1.232.191.191,0,0,1,.013-.024.063.063,0,0,1,.017-.021l1.587-.981.839-2.246" transform="translate(-312.616 -40.538)" fill="#223e6e"/>
        <path id="Path_23333" data-name="Path 23333" d="M385.674,59.263c0-.032-.009-.075-.01-.119-.032-1.96-.016-10.25.021-10.55a.56.56,0,0,1,.1-.022c.423-.02,1.886,0,2.088.024l.414,1.741h.153a3.739,3.739,0,0,1,4.234-1.855,8,8,0,0,1-.053.885c-.009.3-.043.6-.067.9s-.05.594-.076.908c-.088-.007-.158-.006-.227-.018a4.108,4.108,0,0,0-1.221-.039,2.916,2.916,0,0,0-1.625.7,2.409,2.409,0,0,0-.753,1.357,2.866,2.866,0,0,0-.055.6q0,2.643,0,5.286v.193a.314.314,0,0,1-.034.041.046.046,0,0,1-.024.008l-2.7,0a1.119,1.119,0,0,1-.135-.012c-.007,0-.014-.01-.035-.026" transform="translate(-334.594 -45.329)" fill="#223e6e"/>
      </g>
    </g>
  </g>
</svg>
