<svg xmlns="http://www.w3.org/2000/svg" width="11" height="11" viewBox="0 0 11 11">
  <g id="Group_21414" data-name="Group 21414" transform="translate(-16 -478)">
    <path id="Path" d="M5.5,11A5.5,5.5,0,1,0,0,5.5,5.5,5.5,0,0,0,5.5,11Z" transform="translate(16 478)" fill="#039"/>
    <g id="Group_22366" data-name="Group 22366" transform="translate(1922.568 -6115.429)">
      <path id="Path_21057" data-name="Path 21057" d="M-1903.127,6602.187l-.182-2.28-.063-1.281,0-.081v-1.05s1.47-.229,1.932-.378,1.241-.513,1.662-.675.725,1.412.713,2.188a6.656,6.656,0,0,1-.4,2.025c-.137.325-1.444-.385-1.9-.525l-.608-.221" fill="none" stroke="#fff" stroke-linecap="round" stroke-width="0.6"/>
      <path id="Path_21058" data-name="Path 21058" d="M-1901.952,6599.973l.2,1.765a2.42,2.42,0,0,1,0,.36c-.016.152-1.348.137-1.348.137" fill="none" stroke="#fff" stroke-linecap="round" stroke-width="0.6"/>
      <path id="Path_21059" data-name="Path 21059" d="M-1898.577,6597.179l.85-.209" transform="translate(0.255)" fill="none" stroke="#fff" stroke-linecap="round" stroke-width="0.6"/>
      <path id="Path_21060" data-name="Path 21060" d="M-1897.559,6598.513h-.919" transform="translate(0.318)" fill="none" stroke="#fff" stroke-linecap="round" stroke-width="0.6"/>
      <path id="Path_21061" data-name="Path 21061" d="M-1897.6,6598.513h-.878" transform="translate(1540.086 656.813) rotate(14)" fill="none" stroke="#fff" stroke-linecap="round" stroke-width="0.6"/>
      <path id="Path_21062" data-name="Path 21062" d="M-1903.566,6597.495a2.481,2.481,0,0,0-.437,0,.576.576,0,0,0-.375.313,2.718,2.718,0,0,0-.178.712,4.1,4.1,0,0,0,0,.571,1.393,1.393,0,0,0,.25.585c.119.153.26.1.422.118a1.7,1.7,0,0,0,.319,0" fill="none" stroke="#fff" stroke-width="0.6"/>
      <path id="Path_21063" data-name="Path 21063" d="M-1903.4,6597.58v1.737" transform="translate(0 0.189)" fill="none" stroke="#039" stroke-width="0.8"/>
    </g>
  </g>
</svg>
