<svg xmlns="http://www.w3.org/2000/svg" width="88" height="88" viewBox="0 0 88 88">
  <g id="Group_21043" data-name="Group 21043" transform="translate(-124 -300)">
    <g id="Path_20980" data-name="Path 20980" transform="translate(124 300)" fill="#f6f7fb">
      <path d="M 44 86.5 C 38.26187515258789 86.5 32.69618606567383 85.37651062011719 27.45755004882812 83.16075134277344 C 22.3968505859375 81.020263671875 17.85157585144043 77.95565032958984 13.94796276092529 74.05204010009766 C 10.04434967041016 70.14842224121094 6.979737281799316 65.6031494140625 4.839250087738037 60.54244995117188 C 2.62348747253418 55.30381393432617 1.5 49.73812484741211 1.5 44 C 1.5 38.26187515258789 2.62348747253418 32.69618606567383 4.839250087738037 27.45755004882812 C 6.979737281799316 22.3968505859375 10.04434967041016 17.85157585144043 13.94796276092529 13.94796276092529 C 17.85157585144043 10.04434967041016 22.3968505859375 6.979737281799316 27.45755004882812 4.839250087738037 C 32.69618606567383 2.62348747253418 38.26187515258789 1.5 44 1.5 C 49.73812484741211 1.5 55.30381393432617 2.62348747253418 60.54244995117188 4.839250087738037 C 65.6031494140625 6.979737281799316 70.14842224121094 10.04434967041016 74.05204010009766 13.94796276092529 C 77.95565032958984 17.85157585144043 81.020263671875 22.3968505859375 83.16075134277344 27.45755004882812 C 85.37651062011719 32.69618606567383 86.5 38.26187515258789 86.5 44 C 86.5 49.73812484741211 85.37651062011719 55.30381393432617 83.16075134277344 60.54244995117188 C 81.020263671875 65.6031494140625 77.95565032958984 70.14842224121094 74.05204010009766 74.05204010009766 C 70.14842224121094 77.95565032958984 65.6031494140625 81.020263671875 60.54244995117188 83.16075134277344 C 55.30381393432617 85.37651062011719 49.73812484741211 86.5 44 86.5 Z" stroke="none"/>
      <path d="M 44 3 C 38.46371459960938 3 33.09462738037109 4.083610534667969 28.0418701171875 6.220756530761719 C 23.15997314453125 8.285614013671875 18.77495574951172 11.24228668212891 15.00862884521484 15.00862884521484 C 11.24228668212891 18.77495574951172 8.285614013671875 23.15997314453125 6.220756530761719 28.0418701171875 C 4.083610534667969 33.09462738037109 3 38.46371459960938 3 44 C 3 49.53628540039062 4.083610534667969 54.90537261962891 6.220756530761719 59.9581298828125 C 8.285614013671875 64.84002685546875 11.24228668212891 69.22504425048828 15.00862884521484 72.99137115478516 C 18.77495574951172 76.75771331787109 23.15997314453125 79.71438598632812 28.0418701171875 81.77924346923828 C 33.09462738037109 83.9163818359375 38.46371459960938 85 44 85 C 49.53628540039062 85 54.90537261962891 83.9163818359375 59.9581298828125 81.77924346923828 C 64.84002685546875 79.71438598632812 69.22504425048828 76.75771331787109 72.99137115478516 72.99137115478516 C 76.75771331787109 69.22504425048828 79.71438598632812 64.84002685546875 81.77924346923828 59.9581298828125 C 83.9163818359375 54.90537261962891 85 49.53628540039062 85 44 C 85 38.46371459960938 83.9163818359375 33.09462738037109 81.77924346923828 28.0418701171875 C 79.71438598632812 23.15997314453125 76.75771331787109 18.77495574951172 72.99137115478516 15.00862884521484 C 69.22504425048828 11.24228668212891 64.84002685546875 8.285614013671875 59.9581298828125 6.220756530761719 C 54.90537261962891 4.083610534667969 49.53628540039062 3 44 3 M 44 0 C 68.30052947998047 0 88 19.69947052001953 88 44 C 88 68.30052947998047 68.30052947998047 88 44 88 C 19.69947052001953 88 0 68.30052947998047 0 44 C 0 19.69947052001953 19.69947052001953 0 44 0 Z" stroke="none" fill="#44c8f5"/>
    </g>
    <path id="Path_20977" data-name="Path 20977" d="M4266,9177.771s1.981-5.971,7.957-5.971,8.011,5.971,8.011,5.971" transform="translate(-4126.478 -8838.599)" fill="none" stroke="#44c8f5" stroke-linecap="round" stroke-width="3"/>
    <path id="Path_20979" data-name="Path 20979" d="M4286.4,9188.207s-2.517-5.886-10.148-5.886a11.1,11.1,0,0,0-10.254,5.886" transform="translate(-4108.202 -8820.879)" fill="none" stroke="#44c8f5" stroke-linecap="round" stroke-width="3"/>
    <path id="Path_20978" data-name="Path 20978" d="M4266,9177.771s1.981-5.971,7.957-5.971,8.011,5.971,8.011,5.971" transform="translate(-4085.345 -8838.599)" fill="none" stroke="#44c8f5" stroke-linecap="round" stroke-width="3"/>
  </g>
</svg>
