<svg id="notification" xmlns="http://www.w3.org/2000/svg" width="18" height="21.505" viewBox="0 0 18 21.505">
  <path id="ringing" d="M7.349,18.165h2.92a4.037,4.037,0,0,0,7.952,0h2.92a2.02,2.02,0,0,0,.168-4.037V9.419A7.01,7.01,0,0,0,19.24,4.427a7.1,7.1,0,0,0-2.3-1.544V2.691a2.691,2.691,0,1,0-5.382,0v.2A7.064,7.064,0,0,0,7.181,9.419v4.709a2.02,2.02,0,1,0,.168,4.037Zm6.9,2.018a2.691,2.691,0,0,1-2.6-2.018h5.207a2.691,2.691,0,0,1-2.6,2.018Zm0-18.837A1.346,1.346,0,0,1,15.57,2.482a6.943,6.943,0,0,0-1.325-.128,7.168,7.168,0,0,0-1.325.128,1.346,1.346,0,0,1,1.325-1.137ZM6.868,15.672a.673.673,0,0,1,.481-.2h.5a.673.673,0,0,0,.673-.673V9.419a5.719,5.719,0,0,1,11.437,0V14.8a.673.673,0,0,0,.673.673h.5a.673.673,0,0,1,0,1.346H7.349a.676.676,0,0,1-.481-1.147Z" transform="translate(-5.245)" fill="#fff"/>
</svg>
