<svg xmlns="http://www.w3.org/2000/svg" xmlns:xlink="http://www.w3.org/1999/xlink" width="183.067" height="128.1" viewBox="0 0 183.067 128.1">
  <defs>
    <clipPath id="clip-path">
      <rect id="Rectangle_11163" data-name="Rectangle 11163" width="6.397" height="47.975" transform="translate(0 6.397) rotate(-90)" fill="none"/>
    </clipPath>
  </defs>
  <g id="OBJECTS" transform="translate(-21.729 -97.471)">
    <g id="Group_30061" data-name="Group 30061" transform="translate(21.729 97.471)">
      <ellipse id="Ellipse_1449" data-name="Ellipse 1449" cx="77.09" cy="7.215" rx="77.09" ry="7.215" transform="translate(16.729 113.67)" fill="#cacaca" opacity="0.46" style="mix-blend-mode: multiply;isolation: isolate"/>
      <g id="Group_30045" data-name="Group 30045">
        <path id="Path_95801" data-name="Path 95801" d="M204.8,97.471l-57.831,16.281,13.981,14.15c-15.506,15.768-34.9,35.566-35.413,36.5-.865,1.565-15.912-29.2-15.912-29.2L68.995,180.1,54.163,160.477,21.729,196.719l30.28-20.627L68.37,197.428l36.518-37.1,15.571,31.823,54.289-50.284,15.027,15.208Z" transform="translate(-21.729 -97.471)" fill="#d03240"/>
        <path id="Path_95802" data-name="Path 95802" d="M254.888,248.528l54.779-49.283-3.114-3.731Z" transform="translate(-155.586 -153.758)" fill="#ae2436"/>
        <path id="Path_95803" data-name="Path 95803" d="M131.241,282.17l38.6-32.92-2.062-4.171Z" transform="translate(-84.6 -182.214)" fill="#ae2436"/>
        <path id="Path_95804" data-name="Path 95804" d="M52.009,282.072,21.729,302.7l32.325-17.96Z" transform="translate(-21.729 -203.451)" fill="#ae2436"/>
      </g>
      <g id="Group_30048" data-name="Group 30048" transform="translate(84.198 30.327)">
        <g id="Group_30046" data-name="Group 30046" transform="translate(0 19.71)">
          <path id="Path_95805" data-name="Path 95805" d="M261.808,238.222c-6.79-11.664-24.938-6.446-25-6.426-5.223,6.69-12.058,17.055-15.226,28.732-5.495,20.253,1.256,30.458,1.256,30.458s3.768,7.851,25.748,5.652c7.5-.75,14.315-.484,20.073-.608h0C278.4,276.186,268.611,249.909,261.808,238.222Z" transform="translate(-219.424 -223.947)" fill="#404799"/>
          <path id="Path_95806" data-name="Path 95806" d="M310.79,271.634c.471-17.741-15.877-48.875-27.475-56.677H267.036a89.742,89.742,0,0,0-6.8,7.849c.067-.019,18.214-5.238,25,6.426,6.8,11.686,16.592,37.964,6.847,57.809h0C303.259,286.8,310.433,285.094,310.79,271.634Z" transform="translate(-242.852 -214.957)" fill="#3b448e"/>
        </g>
        <path id="Path_95807" data-name="Path 95807" d="M266.151,188.434s-13.633-19.982-4.041-19.651,7.816,3.8,13.831,3.142,7.173-4.961,14.118-2.316-9.1,20.673-9.1,20.673Z" transform="translate(-241.967 -168.724)" fill="#404799"/>
        <path id="Path_95808" data-name="Path 95808" d="M281.779,272.135a2.327,2.327,0,0,0,0-4.654H263.348a2.327,2.327,0,0,0,0,4.654h5.283a5.561,5.561,0,0,1,5.073,3.258H263.372a2.327,2.327,0,1,0,0,4.654H273.7a5.6,5.6,0,0,1-5.073,3.258h-5.283a2.334,2.334,0,0,0-1.606,4.026l13.172,12.45a2.329,2.329,0,0,0,1.606.628,2.4,2.4,0,0,0,1.7-.721,2.319,2.319,0,0,0-.093-3.282l-8.936-8.447a10.27,10.27,0,0,0,9.4-7.889h3.188a2.327,2.327,0,0,0,0-4.654h-3.188a10.16,10.16,0,0,0-1.4-3.258h4.584Z" transform="translate(-243.303 -225.402)" fill="#e9f4f9"/>
        <path id="Path_95809" data-name="Path 95809" d="M295.577,385.013" transform="translate(-263.144 -292.877)" fill="#404799"/>
        <path id="Path_95810" data-name="Path 95810" d="M271.847,374.736s-13.952,0-17.577-7.624c0,0-.68,6,4.842,8.236C259.112,375.348,268.918,375.635,271.847,374.736Z" transform="translate(-239.414 -282.6)" fill="#3b448e"/>
        <path id="Path_95811" data-name="Path 95811" d="M307.447,183.828a42.053,42.053,0,0,0,5.8-15.115s9.426-.875,5.942,6.374c0,0-1.505,4.77-7.308,11.631Z" transform="translate(-269.958 -168.679)" fill="#3b448e"/>
        <g id="Group_30047" data-name="Group 30047" transform="translate(19.26 14.873)">
          <path id="Path_95812" data-name="Path 95812" d="M274.412,209.189a1.535,1.535,0,0,1-.878-2.814c.319-.212,7.951-5.133,18.564-1.347a1.536,1.536,0,0,1-1.032,2.893c-9.114-3.25-15.572.844-15.843,1.019A1.537,1.537,0,0,1,274.412,209.189Z" transform="translate(-269.354 -203.601)" fill="#18186b"/>
          <path id="Path_95813" data-name="Path 95813" d="M289.457,215.444a1.531,1.531,0,0,1-.507-.086c-13.378-4.678-21.949-.148-22.033-.1a1.536,1.536,0,1,1-1.469-2.7c.4-.216,9.867-5.221,24.516-.1a1.536,1.536,0,0,1-.507,2.986Z" transform="translate(-264.647 -207.367)" fill="#1c1980"/>
          <path id="Path_95814" data-name="Path 95814" d="M299.26,227.109a1.536,1.536,0,0,1-1.414-2.135c3.924-9.27.559-11.106.524-11.123.032.016-.161-.1-.161-.1l1.379-2.719a5.255,5.255,0,0,1,2.6,2.919c1.195,2.906.684,7.018-1.517,12.219A1.537,1.537,0,0,1,299.26,227.109Z" transform="translate(-283.637 -207.868)" fill="#1c1980"/>
          <path id="Path_95815" data-name="Path 95815" d="M315.229,233.657a1.536,1.536,0,0,1-1.727-1.314h0a25.043,25.043,0,0,0-1.841-6.054c-1.865-4.173-4.517-7.043-7.881-8.529a1.536,1.536,0,1,1,1.241-2.81c9.706,4.289,11.454,16.463,11.523,16.98A1.535,1.535,0,0,1,315.229,233.657Z" transform="translate(-286.588 -210.041)" fill="#1c1980"/>
        </g>
      </g>
      <g id="Group_30052" data-name="Group 30052" transform="translate(32.306 113.03)">
        <path id="Path_95816" data-name="Path 95816" d="M97.583,363.47s23.988-1.366,47.976,0Z" transform="translate(-97.583 -362.863)" fill="#f1e28e" fill-rule="evenodd"/>
        <rect id="Rectangle_11162" data-name="Rectangle 11162" width="6.397" height="47.975" transform="translate(0 7.004) rotate(-90)" fill="#ca9a27"/>
        <g id="Group_30051" data-name="Group 30051" transform="translate(0 0.607)">
          <g id="Group_30050" data-name="Group 30050" transform="translate(0 0)" clip-path="url(#clip-path)">
            <g id="Group_30049" data-name="Group 30049" transform="translate(2.159 -1.767)">
              <line id="Line_911" data-name="Line 911" y1="9.41" transform="translate(0 0.765)" fill="none" stroke="#ecd757" stroke-width="1.869"/>
              <line id="Line_912" data-name="Line 912" y1="9.41" transform="translate(3.667 0.581)" fill="none" stroke="#ecd757" stroke-width="1.869"/>
              <line id="Line_913" data-name="Line 913" y1="9.41" transform="translate(7.334 0.398)" fill="none" stroke="#ecd757" stroke-width="1.869"/>
              <line id="Line_914" data-name="Line 914" y1="9.41" transform="translate(11.001)" fill="none" stroke="#ecd757" stroke-width="1.869"/>
              <line id="Line_915" data-name="Line 915" y1="9.41" transform="translate(14.668 0.305)" fill="none" stroke="#ecd757" stroke-width="1.869"/>
              <line id="Line_916" data-name="Line 916" y1="9.41" transform="translate(18.335 0.305)" fill="none" stroke="#ecd757" stroke-width="1.869"/>
              <line id="Line_917" data-name="Line 917" y1="9.41" transform="translate(22.002 0.781)" fill="none" stroke="#ecd757" stroke-width="1.869"/>
              <line id="Line_918" data-name="Line 918" y1="9.41" transform="translate(25.669 0.305)" fill="none" stroke="#ecd757" stroke-width="1.869"/>
              <line id="Line_919" data-name="Line 919" y1="9.41" transform="translate(36.67 0.729)" fill="none" stroke="#ecd757" stroke-width="1.869"/>
              <line id="Line_920" data-name="Line 920" y1="9.41" transform="translate(29.336 0.305)" fill="none" stroke="#ecd757" stroke-width="1.869"/>
              <line id="Line_921" data-name="Line 921" y1="9.41" transform="translate(40.336 0.294)" fill="none" stroke="#ecd757" stroke-width="1.869"/>
              <line id="Line_922" data-name="Line 922" y1="9.41" transform="translate(33.003 0.484)" fill="none" stroke="#ecd757" stroke-width="1.869"/>
              <line id="Line_923" data-name="Line 923" y1="9.41" transform="translate(44.003 0.174)" fill="none" stroke="#ecd757" stroke-width="1.869"/>
            </g>
          </g>
        </g>
      </g>
      <g id="Group_30056" data-name="Group 30056" transform="translate(30.245 105.613)">
        <path id="Path_95817" data-name="Path 95817" d="M92.745,346.057s23.987-1.366,47.975,0Z" transform="translate(-92.745 -345.45)" fill="#f1e28e" fill-rule="evenodd"/>
        <rect id="Rectangle_11164" data-name="Rectangle 11164" width="6.397" height="47.975" transform="translate(0 7.004) rotate(-90)" fill="#ca9a27"/>
        <g id="Group_30055" data-name="Group 30055" transform="translate(0 0.607)">
          <g id="Group_30054" data-name="Group 30054" transform="translate(0 0)" clip-path="url(#clip-path)">
            <g id="Group_30053" data-name="Group 30053" transform="translate(2.159 -1.767)">
              <line id="Line_924" data-name="Line 924" y1="9.41" transform="translate(0 0.765)" fill="none" stroke="#ecd757" stroke-width="1.869"/>
              <line id="Line_925" data-name="Line 925" y1="9.41" transform="translate(3.667 0.581)" fill="none" stroke="#ecd757" stroke-width="1.869"/>
              <line id="Line_926" data-name="Line 926" y1="9.41" transform="translate(7.334 0.398)" fill="none" stroke="#ecd757" stroke-width="1.869"/>
              <line id="Line_927" data-name="Line 927" y1="9.41" transform="translate(11.001)" fill="none" stroke="#ecd757" stroke-width="1.869"/>
              <line id="Line_928" data-name="Line 928" y1="9.41" transform="translate(14.668 0.305)" fill="none" stroke="#ecd757" stroke-width="1.869"/>
              <line id="Line_929" data-name="Line 929" y1="9.41" transform="translate(18.335 0.305)" fill="none" stroke="#ecd757" stroke-width="1.869"/>
              <line id="Line_930" data-name="Line 930" y1="9.41" transform="translate(22.002 0.781)" fill="none" stroke="#ecd757" stroke-width="1.869"/>
              <line id="Line_931" data-name="Line 931" y1="9.41" transform="translate(25.669 0.305)" fill="none" stroke="#ecd757" stroke-width="1.869"/>
              <line id="Line_932" data-name="Line 932" y1="9.41" transform="translate(36.669 0.729)" fill="none" stroke="#ecd757" stroke-width="1.869"/>
              <line id="Line_933" data-name="Line 933" y1="9.41" transform="translate(29.336 0.305)" fill="none" stroke="#ecd757" stroke-width="1.869"/>
              <line id="Line_934" data-name="Line 934" y1="9.41" transform="translate(40.336 0.294)" fill="none" stroke="#ecd757" stroke-width="1.869"/>
              <line id="Line_935" data-name="Line 935" y1="9.41" transform="translate(33.003 0.484)" fill="none" stroke="#ecd757" stroke-width="1.869"/>
              <line id="Line_936" data-name="Line 936" y1="9.41" transform="translate(44.003 0.174)" fill="none" stroke="#ecd757" stroke-width="1.869"/>
            </g>
          </g>
        </g>
      </g>
      <g id="Group_30060" data-name="Group 30060" transform="translate(49.452 78.762)">
        <g id="Group_30058" data-name="Group 30058">
          <circle id="Ellipse_1450" data-name="Ellipse 1450" cx="21.894" cy="21.894" r="21.894" transform="translate(0.948)" fill="#ca9a27"/>
          <circle id="Ellipse_1451" data-name="Ellipse 1451" cx="21.894" cy="21.894" r="21.894" fill="#ecd757"/>
          <circle id="Ellipse_1452" data-name="Ellipse 1452" cx="21.894" cy="21.894" r="21.894" fill="#ecd757"/>
          <circle id="Ellipse_1453" data-name="Ellipse 1453" cx="17.654" cy="17.654" r="17.654" transform="translate(4.24 4.24)" fill="#ca9a27"/>
          <g id="Group_30057" data-name="Group 30057" transform="translate(21.507 4.24)">
            <path id="Path_95818" data-name="Path 95818" d="M188.727,292.359c-.129,0-.258,0-.387.005a17.653,17.653,0,0,1,0,35.3c.129,0,.258,0,.387,0a17.654,17.654,0,1,0,0-35.308Z" transform="translate(-188.34 -292.359)" fill="#f1e28e"/>
          </g>
          <path id="Path_95819" data-name="Path 95819" d="M148.982,310.013a17.654,17.654,0,0,1,17.062-17.643c-.2-.006-.394-.011-.593-.011a17.654,17.654,0,0,0,0,35.308c.2,0,.4,0,.593-.011A17.654,17.654,0,0,1,148.982,310.013Z" transform="translate(-143.557 -288.119)" fill="#b68d24"/>
        </g>
        <g id="Group_30059" data-name="Group 30059" transform="translate(13.773 10.179)">
          <path id="Path_95820" data-name="Path 95820" d="M181.045,311.856a8.913,8.913,0,0,1,1.378,2.912h3.225l-1.253,3.757h-1.785a8.353,8.353,0,0,1-7.045,7.453l5.807,8.193H176.8l-5.776-8.1v-3.757h3.131a4.8,4.8,0,0,0,4.7-3.758H170.18l1.253-3.758h7.139a4.782,4.782,0,0,0-4.415-2.912H170.18l1.253-3.757h14.216l-1.253,3.757h-3.351Z" transform="translate(-170.18 -307.352)" fill="#b68d24" fill-rule="evenodd"/>
          <path id="Path_95821" data-name="Path 95821" d="M183,310.028a8.9,8.9,0,0,1,1.378,2.912h3.225l-1.253,3.757h-1.785a8.352,8.352,0,0,1-7.045,7.453l5.807,8.193h-4.572l-5.776-8.1v-3.757h3.131a4.8,4.8,0,0,0,4.7-3.758h-8.674l1.253-3.758h7.139a4.782,4.782,0,0,0-4.415-2.912h-3.977l1.253-3.757h14.216l-1.253,3.757H183Z" transform="translate(-171.304 -306.302)" fill="#ecd757" fill-rule="evenodd"/>
        </g>
      </g>
    </g>
  </g>
</svg>
