<svg id="offer" xmlns="http://www.w3.org/2000/svg" width="29" height="21.001" viewBox="0 0 29 21.001">
  <g id="Subtraction_11" data-name="Subtraction 11" transform="translate(0 0.001)" fill="none">
    <path d="M27,21H2a2,2,0,0,1-2-2V13.6a2.4,2.4,0,0,0,.5.053A2.567,2.567,0,0,0,3,11.025,2.568,2.568,0,0,0,.5,8.4a2.4,2.4,0,0,0-.5.053V2A2,2,0,0,1,2,0H27a2,2,0,0,1,2,2V8.452a2.4,2.4,0,0,0-.5-.052A2.568,2.568,0,0,0,26,11.025a2.567,2.567,0,0,0,2.5,2.624A2.4,2.4,0,0,0,29,13.6V19A2,2,0,0,1,27,21Z" stroke="none"/>
    <path d="M 27 19.49970054626465 C 27.27559089660645 19.49970054626465 27.49980163574219 19.27548980712891 27.49980163574219 18.99990081787109 L 27.49980163574219 15.0188045501709 C 25.77659797668457 14.55966567993164 24.50010108947754 12.9431619644165 24.50010108947754 11.02500057220459 C 24.50010108947754 9.106415748596191 25.77659797668457 7.489562034606934 27.49980163574219 7.03032398223877 L 27.49980163574219 1.999800086021423 C 27.49980163574219 1.723710179328918 27.27559089660645 1.499100089073181 27 1.499100089073181 L 1.999800801277161 1.499100089073181 C 1.724210858345032 1.499100089073181 1.500000834465027 1.723710179328918 1.500000834465027 1.999800086021423 L 1.500000834465027 7.030144691467285 C 3.223193645477295 7.489114284515381 4.499701023101807 9.106138229370117 4.499701023101807 11.02500057220459 C 4.499701023101807 12.94344043731689 3.223193645477295 14.56011390686035 1.500000834465027 15.01898384094238 L 1.500000834465027 18.99990081787109 C 1.500000834465027 19.27548980712891 1.724210858345032 19.49970054626465 1.999800801277161 19.49970054626465 L 27 19.49970054626465 M 27 20.99970054626465 L 1.999800801277161 20.99970054626465 C 0.8971108198165894 20.99970054626465 8.178710686479462e-07 20.10259056091309 8.178710686479462e-07 18.99990081787109 L 8.178710686479462e-07 13.59683036804199 C 0.1621208190917969 13.63138008117676 0.330070823431015 13.64939975738525 0.5004008412361145 13.64939975738525 C 1.878520846366882 13.64939975738525 2.999700784683228 12.47210025787354 2.999700784683228 11.02500057220459 C 2.999700784683228 9.577400207519531 1.878520846366882 8.399700164794922 0.5004008412361145 8.399700164794922 C 0.3319708108901978 8.399700164794922 0.1636108160018921 8.417389869689941 8.178710686479462e-07 8.4522705078125 L 8.178710686479462e-07 1.999800086021423 C 8.178710686479462e-07 0.8966101408004761 0.8971108198165894 -0.0008998611592687666 1.999800801277161 -0.0008998611592687666 L 27 -0.0008998611592687666 C 28.10269165039062 -0.0008998611592687666 28.99980163574219 0.8966101408004761 28.99980163574219 1.999800086021423 L 28.99980163574219 8.452139854431152 C 28.83792114257812 8.417670249938965 28.6702709197998 8.399700164794922 28.50030136108398 8.399700164794922 C 27.12169075012207 8.399700164794922 26.00010108947754 9.577400207519531 26.00010108947754 11.02500057220459 C 26.00010108947754 12.47210025787354 27.12169075012207 13.64939975738525 28.50030136108398 13.64939975738525 C 28.66833114624023 13.64939975738525 28.83639144897461 13.631760597229 28.99980163574219 13.59696006774902 L 28.99980163574219 18.99990081787109 C 28.99980163574219 20.10259056091309 28.10269165039062 20.99970054626465 27 20.99970054626465 Z" stroke="none" fill="#44c8f5"/>
  </g>
  <g id="Group_23776" data-name="Group 23776" transform="translate(8.926 6.263)">
    <path id="Path_20276" data-name="Path 20276" d="M-557.851,393.134a2.329,2.329,0,0,1-2.317-2.321,2.31,2.31,0,0,1,.682-1.645,2.311,2.311,0,0,1,1.645-.684h.007a2.329,2.329,0,0,1,2.316,2.321,2.308,2.308,0,0,1-.681,1.645,2.312,2.312,0,0,1-1.646.684Zm.008-3.3a.986.986,0,0,0-.97.957.963.963,0,0,0,.283.692.96.96,0,0,0,.686.292h.012a.986.986,0,0,0,.959-.974.985.985,0,0,0-.966-.966Z" transform="translate(560.168 -388.483)" fill="#44c8f5"/>
    <path id="Path_24397" data-name="Path 24397" d="M-557.849,393.14a2.332,2.332,0,0,1-2.32-2.324,2.313,2.313,0,0,1,.683-1.647,2.314,2.314,0,0,1,1.647-.685h.007a2.332,2.332,0,0,1,2.319,2.324,2.311,2.311,0,0,1-.682,1.647,2.315,2.315,0,0,1-1.648.685Zm.008-3.3a.987.987,0,0,0-.971.959.964.964,0,0,0,.283.692.961.961,0,0,0,.687.292h.012a.987.987,0,0,0,.96-.975.986.986,0,0,0-.967-.968Z" transform="translate(567.079 -384.244)" fill="#44c8f5"/>
  </g>
</svg>
