<svg xmlns="http://www.w3.org/2000/svg" width="36" height="36" viewBox="0 0 36 36">
  <g id="offers_icon" data-name="offers icon" transform="translate(-15 -98.002)">
    <g id="Ellipse_539" data-name="Ellipse 539" transform="translate(15 98.002)" fill="#fff" stroke="#aceaff" stroke-width="1">
      <circle cx="18" cy="18" r="18" stroke="none"/>
      <circle cx="18" cy="18" r="17.5" fill="none"/>
    </g>
    <g id="Outline" transform="translate(23 105.016)">
      <path id="Path_23121" data-name="Path 23121" d="M22.268,39.561a.268.268,0,0,0,.268-.268V37.951a.268.268,0,0,0-.537,0v1.341A.268.268,0,0,0,22.268,39.561Zm0-2.683a.268.268,0,0,0,.268-.268V35.268a.268.268,0,1,0-.537,0V36.61A.268.268,0,0,0,22.268,36.878Z" transform="translate(-14.634 -23.424)" fill="#039"/>
      <path id="Path_23122" data-name="Path 23122" d="M3.073,18.283H17.024A1.073,1.073,0,0,0,18.1,17.21V15.868a.268.268,0,0,0-.268-.268,1.744,1.744,0,0,1,0-3.488.268.268,0,0,0,.268-.268v-1.61a.8.8,0,0,0-.164-.483.975.975,0,0,0,.03-1.025l-.6-1.031A.268.268,0,0,0,17,7.6a1.52,1.52,0,1,1-1.52-2.633.27.27,0,0,0,.1-.366l-.716-1.239a.749.749,0,0,0-1.018-.273L2.859,9.429H2.8a.8.8,0,0,0-.8.8v1.61a.268.268,0,0,0,.268.268,1.744,1.744,0,1,1,0,3.488A.268.268,0,0,0,2,15.868V17.21A1.073,1.073,0,0,0,3.073,18.283ZM14.114,3.55a.21.21,0,0,1,.285.076l.59,1.022a2.057,2.057,0,0,0,2.039,3.533L17.5,9a.44.44,0,0,1-.012.46.8.8,0,0,0-.194-.026H3.932ZM2.537,16.121a2.28,2.28,0,0,0,0-4.529V10.234A.268.268,0,0,1,2.8,9.966H7.366V10.5a.268.268,0,1,0,.537,0V9.966h9.39a.268.268,0,0,1,.268.268v1.357a2.28,2.28,0,0,0,0,4.529V17.21a.537.537,0,0,1-.537.537H7.9V17.21a.268.268,0,1,0-.537,0v.537H3.073a.537.537,0,0,1-.537-.537Z" fill="#039" stroke="#039" stroke-width="0.2"/>
    </g>
  </g>
</svg>
