<svg id="open-lock" xmlns="http://www.w3.org/2000/svg" width="23.52" height="33.6" viewBox="0 0 23.52 33.6">
  <g id="Group_11868" data-name="Group 11868">
    <g id="Group_11867" data-name="Group 11867">
      <path id="Path_16571" data-name="Path 16571" d="M98.639,13.44H81.84V8.4a6.72,6.72,0,0,1,13.44,0h1.68a8.4,8.4,0,1,0-16.8,0v5.04H78.48a1.68,1.68,0,0,0-1.68,1.68v16.8a1.68,1.68,0,0,0,1.68,1.68H98.639a1.68,1.68,0,0,0,1.68-1.68V15.12A1.68,1.68,0,0,0,98.639,13.44Zm0,18.479H78.48V15.12H98.639Z" transform="translate(-76.8)" fill="#44c8f5"/>
    </g>
  </g>
  <g id="Group_11870" data-name="Group 11870" transform="translate(9.24 20.159)">
    <g id="Group_11869" data-name="Group 11869" transform="translate(0)">
      <path id="Path_16572" data-name="Path 16572" d="M220.12,307.2a2.514,2.514,0,0,0-.84,4.885v2.674h1.68v-2.674a2.514,2.514,0,0,0-.84-4.885Zm0,3.36a.84.84,0,1,1,.84-.84A.84.84,0,0,1,220.12,310.56Z" transform="translate(-217.6 -307.2)" fill="#039"/>
    </g>
  </g>
</svg>
