<svg xmlns="http://www.w3.org/2000/svg" width="34" height="33" viewBox="0 0 34 33">
  <g id="Outgoing_Call" data-name="Outgoing Call" transform="translate(-24 -23.999)">
    <g id="Group_19952" data-name="Group 19952" transform="translate(24 23.999)">
      <ellipse id="Ellipse_782" data-name="Ellipse 782" cx="17" cy="16.5" rx="17" ry="16.5" fill="#d9f5ff"/>
    </g>
    <g id="Group_23518" data-name="Group 23518" transform="translate(29 28.999)">
      <rect id="Rectangle_9570" data-name="Rectangle 9570" width="24" height="24" fill="none"/>
      <path id="Icon_feather-phone-call" data-name="Icon feather-phone-call" d="M18.643,13.876V16.21a1.556,1.556,0,0,1-1.7,1.556,15.4,15.4,0,0,1-6.715-2.389,15.174,15.174,0,0,1-4.669-4.669A15.4,15.4,0,0,1,3.174,3.962a1.556,1.556,0,0,1,1.548-1.7H7.057A1.556,1.556,0,0,1,8.613,3.6a9.991,9.991,0,0,0,.545,2.187,1.556,1.556,0,0,1-.35,1.642l-.988.988a12.45,12.45,0,0,0,4.669,4.669l.988-.988a1.556,1.556,0,0,1,1.642-.35,9.991,9.991,0,0,0,2.187.545A1.556,1.556,0,0,1,18.643,13.876Z" transform="translate(1.403 3.084)" fill="none" stroke="#0f4880" stroke-linecap="round" stroke-linejoin="round" stroke-width="1"/>
    </g>
  </g>
</svg>
