<svg xmlns="http://www.w3.org/2000/svg" width="86.489" height="86.623" viewBox="0 0 86.489 86.623">
  <g id="Group_21027" data-name="Group 21027" transform="translate(-5703.099 -766)">
    <path id="Path_20972" data-name="Path 20972" d="M71.328,54h-13.4a1.356,1.356,0,0,1-1.353-1.353A1.279,1.279,0,0,1,57.929,51.3h13.4a12.723,12.723,0,1,0,0-25.445,16.662,16.662,0,0,0-2.707.271,1.287,1.287,0,0,1-1.353-.541,1.466,1.466,0,0,1,0-1.489,7.689,7.689,0,0,0-6.226-12.046,8.021,8.021,0,0,0-6.226,3.113A1.47,1.47,0,0,1,53.6,15.7a1.311,1.311,0,0,1-1.083-.947,18.013,18.013,0,0,0-35.055,5.82,17.122,17.122,0,0,0,.406,3.79,1.381,1.381,0,0,1-.271,1.218,1.122,1.122,0,0,1-1.083.406H15.43a12.723,12.723,0,1,0,0,25.445h13.4a1.356,1.356,0,0,1,1.353,1.353,1.279,1.279,0,0,1-1.353,1.353H15.43a15.435,15.435,0,0,1-.541-30.859,18.139,18.139,0,0,1-.135-2.707,20.673,20.673,0,0,1,39.522-8.392A10.263,10.263,0,0,1,61.042,9.61a10.045,10.045,0,0,1,9.474,13.67h.677A15.308,15.308,0,0,1,86.487,38.71,15.079,15.079,0,0,1,71.328,54Z" transform="translate(5703.099 766)" fill="#039"/>
    <path id="Path_20973" data-name="Path 20973" d="M13.74,76.8a.5.5,0,0,1-.406-.135,1.408,1.408,0,0,1-.812-1.76L34.855,16.842a4.518,4.518,0,0,1,8.392,0L65.308,74.907a1.37,1.37,0,0,1-2.572.947L40.675,17.79a1.841,1.841,0,0,0-1.76-1.083,2.057,2.057,0,0,0-1.76,1.218l-22.2,57.929A1.445,1.445,0,0,1,13.74,76.8Z" transform="translate(5707.495 770.949)" fill="#44c8f5"/>
    <path id="Path_20974" data-name="Path 20974" d="M44.429,25.407H31.03a1.353,1.353,0,1,1,0-2.707h13.4a1.356,1.356,0,0,1,1.353,1.353A1.279,1.279,0,0,1,44.429,25.407ZM53.5,49.093H21.961a1.353,1.353,0,1,1,0-2.707H53.5a1.356,1.356,0,0,1,1.353,1.353A1.279,1.279,0,0,1,53.5,49.093Zm-4.06-10.557H26.022a1.353,1.353,0,1,1,0-2.707H49.437a1.353,1.353,0,1,1,0,2.707Zm9.2,23.686H16.953a1.353,1.353,0,1,1,0-2.707H58.505a1.356,1.356,0,0,1,1.353,1.353A1.335,1.335,0,0,1,58.641,62.222Z" transform="translate(5708.613 774.024)" fill="#44c8f5"/>
    <path id="Path_20976" data-name="Path 20976" d="M68.836,65.979H11.99a3.79,3.79,0,1,1,0-7.579H68.836a3.79,3.79,0,0,1,0,7.579ZM11.99,61.107a1.218,1.218,0,0,0,0,2.436H68.836a1.218,1.218,0,0,0,0-2.436Z" transform="translate(5705.997 786.643)" fill="#44c8f5"/>
  </g>
</svg>
