<svg xmlns="http://www.w3.org/2000/svg" width="24" height="24" viewBox="0 0 24 24">
  <g id="Group_22372" data-name="Group 22372" transform="translate(-39 -188)">
    <g id="Group_22287" data-name="Group 22287" transform="translate(1 -1)">
      <rect id="Rectangle_9612" data-name="Rectangle 9612" width="24" height="24" transform="translate(38 189)" fill="#fff"/>
      <g id="Group_20874" data-name="Group 20874" transform="translate(40 191)">
        <path id="Path_18246" data-name="Path 18246" d="M68.206,222.612a11.925,11.925,0,0,1,1.27.3,4.806,4.806,0,0,1,3.241,4.572c.005.937,0,1.872,0,2.839.183,0,.357,0,.532,0a4.2,4.2,0,0,1,1.594.207,3.284,3.284,0,0,1,2.134,2.962c.017.58.01,1.162,0,1.744a.818.818,0,1,1-1.636-.01c-.007-.506,0-1.012,0-1.518a1.65,1.65,0,0,0-1.733-1.743q-5.814,0-11.627,0a1.649,1.649,0,0,0-1.734,1.743q0,3.26,0,6.521A1.651,1.651,0,0,0,62,241.977q3.138,0,6.275,0a.835.835,0,0,1,.844.5.815.815,0,0,1-.665,1.14,1.452,1.452,0,0,1-.164.005c-2.126,0-4.252.006-6.378,0a3.265,3.265,0,0,1-3.125-2.223c-.078-.223-.121-.459-.179-.688v-7.468a.584.584,0,0,0,.039-.112,3.205,3.205,0,0,1,2.419-2.677,9.881,9.881,0,0,1,1.525-.123c.091-.006.184,0,.284,0,0-.969,0-1.9,0-2.841A4.8,4.8,0,0,1,66.1,222.92a11.976,11.976,0,0,1,1.289-.308Zm2.86,7.706c0-1.06.01-2.1-.007-3.136a2.407,2.407,0,0,0-.152-.739,3.287,3.287,0,0,0-3.695-2.14,3.217,3.217,0,0,0-2.7,3.209q0,1.3,0,2.6c0,.066.006.132.01.2Z" transform="translate(-58.607 -222.612)" fill="#44c8f5"/>
        <path id="Path_18247" data-name="Path 18247" d="M75.461,245.5a2.272,2.272,0,0,1-1.684-.614c-.856-.826-1.705-1.659-2.556-2.49a.809.809,0,0,1-.244-.876.787.787,0,0,1,.628-.554.851.851,0,0,1,.793.284q1.186,1.163,2.376,2.321c.039.039.078.077.118.115a.474.474,0,0,0,.783-.075q.809-1.123,1.612-2.25,1.157-1.616,2.314-3.234a.836.836,0,0,1,1.011-.369.819.819,0,0,1,.443,1.134,1.757,1.757,0,0,1-.132.207q-1.968,2.751-3.937,5.5A2.071,2.071,0,0,1,75.461,245.5Z" transform="translate(-60.143 -224.493)" fill="#039"/>
        <path id="Path_18248" data-name="Path 18248" d="M63.73,237.893a.819.819,0,1,1-.81.833A.824.824,0,0,1,63.73,237.893Z" transform="translate(-59.145 -224.517)" fill="#44c8f5"/>
        <path id="Path_18249" data-name="Path 18249" d="M68.073,238.713a.819.819,0,1,1-.824-.82A.824.824,0,0,1,68.073,238.713Z" transform="translate(-59.583 -224.517)" fill="#44c8f5"/>
        <path id="Path_18250" data-name="Path 18250" d="M70.77,239.532a.819.819,0,1,1,.817-.826A.824.824,0,0,1,70.77,239.532Z" transform="translate(-60.021 -224.517)" fill="#44c8f5"/>
        <path id="Path_18251" data-name="Path 18251" d="M75.149,238.72a.819.819,0,1,1-.816-.827A.824.824,0,0,1,75.149,238.72Z" transform="translate(-60.465 -224.517)" fill="#44c8f5"/>
      </g>
    </g>
  </g>
</svg>
