<svg xmlns="http://www.w3.org/2000/svg" width="18" height="18" viewBox="0 0 18 18">
  <path id="Path_20288" data-name="Path 20288" d="M945.8,125.636v-2.777a.688.688,0,0,0,.031-.1,2.2,2.2,0,0,1,.908-1.461,2.612,2.612,0,0,1,1.03-.409h14.063a.454.454,0,0,0,.081.029,2.107,2.107,0,0,1,1.584,1.091,5.317,5.317,0,0,1,.3.849v2.777a.417.417,0,0,0-.03.08,2.148,2.148,0,0,1-1.741,1.817,10.321,10.321,0,0,1-1.383.062c-.073,0-.147,0-.232,0v.254q0,4.623,0,9.246a1.642,1.642,0,0,1-.7,1.471,4.271,4.271,0,0,1-.765.324h-8.3a4.273,4.273,0,0,1-.765-.324,1.642,1.642,0,0,1-.7-1.471q0-4.632,0-9.263V127.6c-.387,0-.749,0-1.111,0a2.166,2.166,0,0,1-1.984-1.141A4.9,4.9,0,0,1,945.8,125.636Zm4.452-.864c0,.073-.01.13-.01.187q0,6.081,0,12.162a.624.624,0,0,0,.708.714h7.7a.624.624,0,0,0,.71-.713q0-6.081,0-12.162c0-.062-.007-.123-.011-.189Zm10.173,1.762c.409,0,.808.026,1.2-.006a1.149,1.149,0,0,0,1.118-1.239c0-.7.008-1.406,0-2.109a1.414,1.414,0,0,0-.115-.56,1.161,1.161,0,0,0-1.153-.676q-6.671,0-13.342,0c-.059,0-.117,0-.176,0a1.137,1.137,0,0,0-1.089,1.087q-.036,1.2,0,2.408a1.1,1.1,0,0,0,1.036,1.075c.408.031.819.014,1.229.017.015,0,.03-.014.043-.021v-1.751c-.212,0-.411,0-.609,0a.49.49,0,0,1-.447-.29.532.532,0,0,1,.547-.759q6.135,0,12.269,0a.816.816,0,0,1,.291.051.52.52,0,0,1-.168,1c-.209.011-.418,0-.631,0Zm-5.629-.556a3.347,3.347,0,1,1-3.343,3.356A3.349,3.349,0,0,1,954.8,125.977Zm2.3,3.353a2.293,2.293,0,1,0-2.294,2.287A2.289,2.289,0,0,0,957.094,129.331Zm-4.964,5.683c-.064,0-.129,0-.193,0a.522.522,0,0,0-.057,1.033,1.358,1.358,0,0,0,.245.017h5.357a1.332,1.332,0,0,0,.244-.017.509.509,0,0,0,.422-.509.52.52,0,0,0-.573-.527c-.925,0-1.85,0-2.775,0Z" transform="translate(-945.801 -120.89)" fill="#fff"/>
</svg>
