<svg id="pendingIcon" xmlns="http://www.w3.org/2000/svg" width="19.957" height="19.956" viewBox="0 0 19.957 19.956">
  <path id="Path_15939" data-name="Path 15939" d="M400.018,748a9.989,9.989,0,1,0,7.053,2.926A9.984,9.984,0,0,0,400.018,748Zm0,18.293a8.324,8.324,0,1,1,5.878-2.438A8.316,8.316,0,0,1,400.018,766.293Z" transform="translate(-390.039 -748)" fill="#d23d50"/>
  <path id="Path_15940" data-name="Path 15940" d="M401.871,753a.832.832,0,0,0-.831.832v6.652a.832.832,0,0,0,1.663,0v-6.652a.832.832,0,0,0-.832-.832Z" transform="translate(-391.892 -748.842)" fill="#d23d50"/>
  <path id="Path_15941" data-name="Path 15941" d="M402.7,765.831a.832.832,0,1,0-.832.832A.832.832,0,0,0,402.7,765.831Z" transform="translate(-391.892 -750.864)" fill="#d23d50"/>
</svg>
