<svg id="Group_14353" data-name="Group 14353" xmlns="http://www.w3.org/2000/svg" width="14.363" height="18.158" viewBox="0 0 14.363 18.158">
  <g id="Group_11564" data-name="Group 11564" transform="translate(0 0)">
    <path id="Path_1026" data-name="Path 1026" d="M14.276,15.744l-.648-.648a.3.3,0,0,0-.381-.039,8.4,8.4,0,0,1-1.725.847l-.912-3.194h.2A1.515,1.515,0,0,0,12.328,11.2v-.605A1.515,1.515,0,0,0,10.815,9.08h-.2l.433-1.513h.982a.908.908,0,1,0,0-1.816H3.977L3.316.79a.91.91,0,0,0-.9-.79h-.9a.905.905,0,0,0-.9,1.024L1.975,11.919a.912.912,0,0,0,.9.792h.309l-.59,3.1a8.264,8.264,0,0,1-1.478-.754.3.3,0,0,0-.38.039l-.648.648a.3.3,0,0,0,.042.462,9.834,9.834,0,0,0,2.421,1.209c.288.1.585.192.878.267a14.423,14.423,0,0,0,3.753.477,14.527,14.527,0,0,0,3.624-.442c.3-.077.592-.161.859-.252a9.884,9.884,0,0,0,2.57-1.259.3.3,0,0,0,.04-.461Zm-3.327.356-.082.026-.076.022-.1.027L9.7,12.711h.278Zm-1.876-3.39L10.1,16.319a13.08,13.08,0,0,1-2.919.326,13,13,0,0,1-3.15-.382l.677-3.552ZM9.981,9.08H9.7l.432-1.513h.278Zm-5.559,0-.2-1.513H9.506L9.073,9.08Zm7.906-2.421a.3.3,0,0,1-.093.215.29.29,0,0,1-.21.087H3.552a.3.3,0,0,1-.3-.3.3.3,0,0,1,.093-.215.288.288,0,0,1,.21-.087h8.474A.3.3,0,0,1,12.328,6.658ZM2.575,11.841,1.219.946a.3.3,0,0,1,.3-.341h.9a.3.3,0,0,1,.3.264l.654,4.9a.885.885,0,0,0-.151.046c-.015.005-.028.012-.042.019a.9.9,0,0,0-.1.055l-.038.025a.819.819,0,0,0-.121.1.889.889,0,0,0-.27.643.908.908,0,0,0,.908.908H3.61l.247,1.856a.3.3,0,0,0,.3.263h6.658a.908.908,0,0,1,.908.908V11.2a.908.908,0,0,1-.908.908H2.877a.306.306,0,0,1-.3-.265Zm1.519.87-.647,3.4-.058-.017L3.3,16.064l-.128-.042.63-3.31Zm7.381,4.18c-.254.086-.528.166-.817.239a13.919,13.919,0,0,1-3.475.423,13.839,13.839,0,0,1-3.6-.456c-.279-.072-.559-.157-.833-.253a9.549,9.549,0,0,1-1.973-.932L.995,15.7a9.355,9.355,0,0,0,1.73.814c.311.109.6.2.878.272h0a13.525,13.525,0,0,0,3.578.468,13.6,13.6,0,0,0,3.356-.407l.02,0c.294-.074.583-.159.857-.252a9.5,9.5,0,0,0,1.956-.892l.215.216a9.624,9.624,0,0,1-2.112.98Zm0,0" transform="translate(-0.002 0)" fill="#44c8f5"/>
    <path id="Intersection_1" data-name="Intersection 1" d="M3.48,12.726v-.007c.648.018.374,0,0-.009H3.191l0,.011-.614-.011h-.31a.913.913,0,0,1-.9-.792L.008,1.024A.905.905,0,0,1,.907,0h.9a.91.91,0,0,1,.9.79l.661,4.96,0,.021.579.585-.579-.585a4.751,4.751,0,0,0,.106.585H2.941a.288.288,0,0,0-.107.019c-.039-.286-.061-.464-.075-.606L2.105.869a.3.3,0,0,0-.3-.264h-.9a.3.3,0,0,0-.3.341L1.964,11.841a.305.305,0,0,0,.3.265H10.2a.908.908,0,0,0,.908-.908v-.605a.908.908,0,0,0-.908-.908H3.546a.3.3,0,0,1-.3-.263L3,7.566l-.085-.606h.77a2.1,2.1,0,0,0,.385.576l.028.029H3.61l.2,1.513H8.462l.013-.044q.3.019.621.03l0,.014H9.37l0-.007q.3.007.628.007h.2a1.515,1.515,0,0,1,1.513,1.513V11.2A1.515,1.515,0,0,1,10.2,12.711H10l-.627.009,0-.009H9.092l0,.013-.627.009-.006-.022H4.1l0,.025ZM8.62,8.53l.521.381ZM7.3,7.566l-.827-.605Zm-2.153,0-.6-.605Zm.5-1.21-.8-.587Z" transform="translate(0.609 0)" fill="#039"/>
  </g>
</svg>
