<svg xmlns="http://www.w3.org/2000/svg" width="23.785" height="23.793" viewBox="0 0 23.785 23.793">
  <g id="Group_21600" data-name="Group 21600" transform="translate(-59.107 -367)">
    <g id="Group_14370" data-name="Group 14370" transform="translate(23.107 -2324)">
      <g id="Group_14231" data-name="Group 14231" transform="translate(36 2691)">
        <g id="Group_14228" data-name="Group 14228" transform="translate(11.602 8.694)">
          <path id="Path_18735" data-name="Path 18735" d="M388.442,248.688a.568.568,0,0,1,.612.512.465.465,0,1,0,.929,0,1.457,1.457,0,0,0-1.077-1.374v-.065a.465.465,0,0,0-.929,0h0v.065A1.457,1.457,0,0,0,386.9,249.2a1.5,1.5,0,0,0,1.541,1.441.52.52,0,1,1-.612.512.465.465,0,1,0-.929,0h0a1.459,1.459,0,0,0,1.077,1.374v.065a.465.465,0,1,0,.929,0v-.065a1.459,1.459,0,0,0,1.077-1.374,1.494,1.494,0,0,0-1.541-1.441.52.52,0,0,1-.184-1.025.487.487,0,0,1,.184,0Z" transform="translate(-386.901 -247.296)" fill="#039"/>
        </g>
        <g id="Group_14229" data-name="Group 14229" transform="translate(0 0)">
          <path id="Path_18736" data-name="Path 18736" d="M400.628,255.337a1.774,1.774,0,0,0-2.544-1.074,8.186,8.186,0,0,0-.336-3.949.465.465,0,1,0-.879.3,7.254,7.254,0,0,1,.015,4.646l-3.7,3.288a3.74,3.74,0,0,1-.746.515,1.783,1.783,0,0,0-.961-2.037l-3.279-1.573a5.956,5.956,0,0,0-4.6-.218l-.333.122a7.177,7.177,0,0,1,1.7-7.493l3.28-3.285h3.631l2.778,2.788a.465.465,0,0,0,.657-.657l-2.655-2.659.959-2.762a.836.836,0,0,0-1.38-.865h0a.494.494,0,0,1-.7,0h0a2.091,2.091,0,0,0-2.957,0h0a.494.494,0,0,1-.7,0h0a.836.836,0,0,0-1.38.867l.964,2.755-3.161,3.162a8.137,8.137,0,0,0-1.917,8.472l-.733.268a1.331,1.331,0,0,0-1.056-.522h-2.353a1.333,1.333,0,0,0-1.332,1.332v5.513a1.334,1.334,0,0,0,1.332,1.332h12.244a7.317,7.317,0,0,0,5.121-2.079l4.549-4.421A1.774,1.774,0,0,0,400.628,255.337ZM388.223,241.5a1.414,1.414,0,0,0,1.006-.416,1.16,1.16,0,0,1,1.642,0h0a1.423,1.423,0,0,0,1.756.2l-.822,2.361h-3.5l-.822-2.358a1.419,1.419,0,0,0,.746.21Zm-10.381,20.769v-5.513a.4.4,0,0,1,.4-.4H380.6a.4.4,0,0,1,.4.4v5.513a.4.4,0,0,1-.4.4h-2.353a.4.4,0,0,1-.4-.4Zm21.67-5.835-4.549,4.422a6.4,6.4,0,0,1-4.473,1.815h-8.622a1.327,1.327,0,0,0,.063-.4v-5.435l1.983-.728a5.02,5.02,0,0,1,3.883.185l3.28,1.57a.854.854,0,0,1,.4,1.139c-.013.027-.028.053-.043.079a.856.856,0,0,1-.987.368l-4.359-1.386a.465.465,0,0,0-.281.885l4.357,1.386a1.823,1.823,0,0,0,.542.085h.065a4.657,4.657,0,0,0,3.027-1.174l4.558-4.048a.848.848,0,0,1,1.153,1.242Z" transform="translate(-376.913 -239.811)" fill="#44c8f5"/>
        </g>
        <g id="Group_14230" data-name="Group 14230" transform="translate(18.989 8.322)">
          <path id="Path_18737" data-name="Path 18737" d="M393.726,247.905a.464.464,0,1,0-.329-.136A.466.466,0,0,0,393.726,247.905Z" transform="translate(-393.261 -246.976)" fill="#44c8f5"/>
        </g>
      </g>
      <g id="Path_1029" data-name="Path 1029" transform="translate(52.985 2697.26)">
        <path id="Path_18738" data-name="Path 18738" d="M395.079,250.5a.406.406,0,0,1-.388-.285,8.9,8.9,0,0,0-3-4.344.407.407,0,1,1,.5-.639,9.715,9.715,0,0,1,3.272,4.739.407.407,0,0,1-.267.51A.4.4,0,0,1,395.079,250.5Z" transform="translate(-391.536 -245.141)" fill="#44c8f5"/>
      </g>
    </g>
  </g>
</svg>
