<svg xmlns="http://www.w3.org/2000/svg" width="24" height="24" viewBox="0 0 24 24">
  <g id="Group_22351" data-name="Group 22351" transform="translate(1579 -5690)">
    <g id="Group_22234" data-name="Group 22234">
      <rect id="Rectangle_9564" data-name="Rectangle 9564" width="24" height="24" transform="translate(-1579 5690)" fill="#fff"/>
      <g id="Group_22178" data-name="Group 22178" transform="translate(-398.523 8286.157)">
        <g id="Ellipse_1391" data-name="Ellipse 1391" transform="translate(-1175.37 -2593.75)" fill="none" stroke="#44c8f5" stroke-width="0.8">
          <circle cx="5.561" cy="5.561" r="5.561" stroke="none"/>
          <circle cx="5.561" cy="5.561" r="5.161" fill="none"/>
        </g>
        <g id="Ellipse_1392" data-name="Ellipse 1392" transform="translate(-1164.248 -2589.106)" fill="none" stroke="#44c8f5" stroke-width="0.8">
          <ellipse cx="3.793" cy="3.793" rx="3.793" ry="3.793" stroke="none"/>
          <ellipse cx="3.793" cy="3.793" rx="3.393" ry="3.393" fill="none"/>
        </g>
        <g id="Ellipse_1393" data-name="Ellipse 1393" transform="translate(-1164.248 -2596.157)" fill="none" stroke="#44c8f5" stroke-width="0.8">
          <ellipse cx="2.884" cy="2.884" rx="2.884" ry="2.884" stroke="none"/>
          <ellipse cx="2.884" cy="2.884" rx="2.484" ry="2.484" fill="none"/>
        </g>
        <path id="loan" d="M23.813,27.973a.317.317,0,1,0,0,.633h.633a.947.947,0,0,1,.894.643H23.813a.317.317,0,1,0,0,.633h1.521a.948.948,0,0,1-.888.623h-.633a.317.317,0,0,0-.317.317.014.014,0,0,0,0,0,.313.313,0,0,0,.092.229l1.9,1.9a.317.317,0,0,0,.448-.448l-1.38-1.38a1.581,1.581,0,0,0,1.438-1.245h.351a.317.317,0,0,0,0-.633H26a1.571,1.571,0,0,0-.293-.643h.641a.317.317,0,1,0,0-.633H23.813Z" transform="translate(-1194.983 -2618.362)" fill="#039" stroke="#039" stroke-width="0.25"/>
        <path id="loan-2" data-name="loan" d="M23.712,27.973a.216.216,0,1,0,0,.432h.432a.646.646,0,0,1,.61.439H23.712a.216.216,0,1,0,0,.432H24.75a.646.646,0,0,1-.606.425h-.432a.216.216,0,0,0-.216.216.01.01,0,0,0,0,0,.213.213,0,0,0,.062.156l1.3,1.3a.216.216,0,0,0,.305-.305l-.941-.941a1.078,1.078,0,0,0,.981-.849h.24a.216.216,0,1,0,0-.432H25.2A1.071,1.071,0,0,0,25,28.4h.437a.216.216,0,1,0,0-.432H23.712Z" transform="translate(-1185.096 -2614.787)" fill="#039" stroke="#039" stroke-width="0.25"/>
        <path id="loan-3" data-name="loan" d="M23.66,27.973a.164.164,0,1,0,0,.328h.328a.491.491,0,0,1,.464.333H23.66a.164.164,0,1,0,0,.328h.789a.491.491,0,0,1-.46.323H23.66a.164.164,0,0,0-.164.164v0a.162.162,0,0,0,.047.119l.985.985a.164.164,0,1,0,.232-.232l-.716-.716a.82.82,0,0,0,.746-.646h.182a.164.164,0,1,0,0-.328h-.18a.814.814,0,0,0-.152-.333h.332a.164.164,0,1,0,0-.328H23.66Z" transform="translate(-1185.73 -2622.387)" fill="#039" stroke="#039" stroke-width="0.25"/>
        <g id="Group_22125" data-name="Group 22125" transform="translate(-1180.477 -2582.893)">
          <g id="Group_21890" data-name="Group 21890" transform="translate(0 0)">
            <g id="Group_11599" data-name="Group 11599" transform="translate(1.929 1.795)">
              <g id="Group_11598" data-name="Group 11598">
                <path id="Path_15600" data-name="Path 15600" d="M43.449,301a.449.449,0,1,0,.449.449A.449.449,0,0,0,43.449,301Z" transform="translate(-43 -301)" fill="#44c8f5"/>
              </g>
            </g>
            <g id="Group_11601" data-name="Group 11601" transform="translate(0 0)">
              <g id="Group_11600" data-name="Group 11600">
                <path id="Path_15601" data-name="Path 15601" d="M22.233,264.28a1.731,1.731,0,0,0-1.581-.211l-.011,0L16.4,265.737a1.791,1.791,0,0,0-1.776-2.045H11.719a.449.449,0,0,1-.22-.058L9.129,262.3a3.143,3.143,0,0,0-1.54-.4H4.621v-.449A.449.449,0,0,0,4.172,261H.449a.449.449,0,0,0-.449.449v8.075a.449.449,0,0,0,.449.449H4.172a.449.449,0,0,0,.449-.449v-.449h.337l4.28,1.733a6.99,6.99,0,0,0,5.517-.117l.007,0L21.9,267.3a1.729,1.729,0,0,0,.338-3.015Zm-18.51,4.795H.9V261.9H3.723Zm17.825-2.607-.026.011-7.142,3.4a6.093,6.093,0,0,1-4.806.1L5.214,268.21a.451.451,0,0,0-.168-.033H4.621v-5.383H7.589a2.245,2.245,0,0,1,1.1.288l2.37,1.333a1.348,1.348,0,0,0,.66.173h2.905a.9.9,0,0,1,.47,1.661h0A.443.443,0,0,0,15,266.3a.892.892,0,0,1-.373.082H10.064a1.347,1.347,0,0,0-1.346,1.346.449.449,0,0,0,.9,0,.449.449,0,0,1,.449-.449h4.561a1.788,1.788,0,0,0,.857-.219l5.48-2.15a.832.832,0,0,1,.586,1.557Z" transform="translate(0 -261)" fill="#44c8f5"/>
              </g>
            </g>
            <g id="Group_11603" data-name="Group 11603" transform="translate(1.929 3.589)">
              <g id="Group_11602" data-name="Group 11602">
                <path id="Path_15602" data-name="Path 15602" d="M43.449,341a.449.449,0,0,0-.449.449v2.692a.449.449,0,1,0,.9,0v-2.692A.449.449,0,0,0,43.449,341Z" transform="translate(-43 -341)" fill="#44c8f5"/>
              </g>
            </g>
          </g>
        </g>
      </g>
    </g>
  </g>
</svg>
