<svg xmlns="http://www.w3.org/2000/svg" width="31.228" height="29.238" viewBox="0 0 31.228 29.238">
  <g id="Group_22881" data-name="Group 22881" transform="translate(1440 -383)">
    <g id="Group_22881-2" data-name="Group 22881" transform="translate(-1440 366.682)">
      <path id="Path_21281" data-name="Path 21281" d="M18.474,22.312a.457.457,0,0,0,.529.373l.92-.159a.457.457,0,0,0-.156-.9l-.92.159A.457.457,0,0,0,18.474,22.312Zm12.3,20.255h-1.8V34.76h1.8a.457.457,0,1,0,0-.915h-1.81a2.29,2.29,0,0,0-2.277-2.074h-.061a2.29,2.29,0,0,0-2.277,2.074H22.5a2.29,2.29,0,0,0-2.277-2.074H19.212v-.823a1.008,1.008,0,0,0-1.006-1.006h-.159V28.583a6.374,6.374,0,1,0-4.866,0v1.358h-.159a1.008,1.008,0,0,0-1.006,1.006v.823H11.009a2.29,2.29,0,0,0-2.277,2.074H6.868a2.29,2.29,0,0,0-2.277-2.074H4.53a2.29,2.29,0,0,0-2.277,2.074H.457a.457.457,0,1,0,0,.915H2.243v7.807H.457a.457.457,0,0,0,0,.915h1.8A2.29,2.29,0,0,0,4.53,45.555h.061a2.29,2.29,0,0,0,2.277-2.074H8.732a2.29,2.29,0,0,0,2.277,2.074h9.21A2.29,2.29,0,0,0,22.5,43.482h1.85a2.29,2.29,0,0,0,2.277,2.074h.061a2.29,2.29,0,0,0,2.277-2.074h1.81a.457.457,0,1,0,0-.915ZM5.964,34.3s0,0,0,0,0,0,0,0v8.715s0,0,0,0,0,0,0,0v.241A1.374,1.374,0,0,1,4.591,44.64H4.53a1.374,1.374,0,0,1-1.372-1.372v-9.21A1.374,1.374,0,0,1,4.53,32.686h.061a1.374,1.374,0,0,1,1.372,1.372Zm2.758,8.268H6.879V34.76H8.722Zm1.433-19.875a5.459,5.459,0,1,1,5.459,5.459,5.459,5.459,0,0,1-5.459-5.459Zm6.977,6.191v1.058H14.1V28.883a6.382,6.382,0,0,0,3.036,0Zm-4.2,2.065a.092.092,0,0,1,.091-.091h5.184a.092.092,0,0,1,.091.091v.823H12.93Zm8.661,12.321a1.374,1.374,0,0,1-1.372,1.372h-9.21a1.374,1.374,0,0,1-1.372-1.372v-9.21a1.374,1.374,0,0,1,1.372-1.372h9.21a1.374,1.374,0,0,1,1.372,1.372Zm2.745-.7h-1.83V34.76h1.83Zm3.721.7a1.374,1.374,0,0,1-1.372,1.372h-.061a1.374,1.374,0,0,1-1.372-1.372v-9.21a1.374,1.374,0,0,1,1.372-1.372h.061a1.374,1.374,0,0,1,1.372,1.372ZM15.614,36.553a.457.457,0,0,0-.344.156,5.264,5.264,0,0,0-1.358,2.39,1.7,1.7,0,1,0,3.4,0,5.266,5.266,0,0,0-1.358-2.39.457.457,0,0,0-.344-.155Zm0,3.306a.775.775,0,0,1-.786-.761,3.71,3.71,0,0,1,.786-1.371A3.709,3.709,0,0,1,16.4,39.1a.775.775,0,0,1-.786.761Zm1.863-18.9a.457.457,0,0,0,.645-.05l.6-.7a.457.457,0,1,0-.695-.6l-.6.7a.457.457,0,0,0,.05.645Zm-.062,4.279A1.8,1.8,0,0,0,16.071,23.5V21.523a.457.457,0,0,0-.915,0V23.5a1.8,1.8,0,1,0,2.259,1.742Zm-2.688,0a.887.887,0,1,1,.887.887.887.887,0,0,1-.887-.887ZM13.8,20.317l-.6-.7a.457.457,0,1,0-.695.6l.6.7a.457.457,0,1,0,.695-.6Zm1.814,13.849a4.5,4.5,0,1,0,4.5,4.5A4.5,4.5,0,0,0,15.614,34.166Zm0,8.079A3.582,3.582,0,1,1,19.2,38.663,3.582,3.582,0,0,1,15.614,42.245ZM12.381,21.783l-.92-.159a.457.457,0,1,0-.156.9l.92.159a.457.457,0,0,0,.156-.9Zm3.233-1.612a.457.457,0,0,0,.457-.457V18.8a.457.457,0,1,0-.915,0v.915a.457.457,0,0,0,.457.457Z" fill="#44c8f5"/>
    </g>
    <g id="Group_22883" data-name="Group 22883" transform="translate(-1441.925 417.682)">
      <path id="Path_21281-2" data-name="Path 21281" d="M18.474,22.312a.457.457,0,0,0,.529.373l.92-.159a.457.457,0,0,0-.156-.9l-.92.159A.457.457,0,0,0,18.474,22.312Zm-1-1.349a.457.457,0,0,0,.645-.05l.6-.7a.457.457,0,1,0-.695-.6l-.6.7a.457.457,0,0,0,.05.645Zm-.062,4.279A1.8,1.8,0,0,0,16.071,23.5c0-2.229-.2-2.434-.457-2.434a.457.457,0,0,0-.457.457V23.5a1.8,1.8,0,1,0,2.259,1.742Zm-2.688,0a.887.887,0,1,1,.887.887.887.887,0,0,1-.887-.887ZM13.8,20.317l-.6-.7a.457.457,0,1,0-.695.6l.6.7a.457.457,0,1,0,.695-.6Zm-1.419,1.466-.92-.159a.457.457,0,1,0-.156.9l.92.159a.457.457,0,0,0,.156-.9Zm3.233-1.612a.457.457,0,0,0,.457-.457V18.8a.457.457,0,1,0-.915,0v.915a.457.457,0,0,0,.457.457Z" transform="translate(2 -51)" fill="#039"/>
    </g>
    <g id="Group_22882" data-name="Group 22882" transform="translate(-1440 406.682)">
      <path id="Path_21281-3" data-name="Path 21281" d="M15.614,36.553a.457.457,0,0,0-.344.156,5.264,5.264,0,0,0-1.358,2.39,1.7,1.7,0,1,0,3.4,0,5.266,5.266,0,0,0-1.358-2.39.457.457,0,0,0-.344-.155Zm0,3.306a.775.775,0,0,1-.786-.761,3.71,3.71,0,0,1,.786-1.371A3.709,3.709,0,0,1,16.4,39.1a.775.775,0,0,1-.786.761Z" transform="translate(0 -40)" fill="#039"/>
    </g>
  </g>
</svg>
