<svg id="Group_21876" data-name="Group 21876" xmlns="http://www.w3.org/2000/svg" width="17.918" height="20.507" viewBox="0 0 17.918 20.507">
  <g id="Group_21874" data-name="Group 21874">
    <path id="Path_21051" data-name="Path 21051" d="M10.908,1.519c-.236,0-.139-.047-.139.189s-.1.205.139.205.16.087.16-.149S11.144,1.519,10.908,1.519ZM15.181,0H6.636A2.136,2.136,0,0,0,4.5,2.136V18.371a2.136,2.136,0,0,0,2.136,2.136h8.545a2.136,2.136,0,0,0,2.136-2.136V2.136A2.136,2.136,0,0,0,15.181,0Zm1.282,18.371a1.282,1.282,0,0,1-1.282,1.282H6.636a1.282,1.282,0,0,1-1.282-1.282V15.38H16.462Zm0-3.845H5.354V3.418H16.462Zm0-11.962H5.354V2.136A1.282,1.282,0,0,1,6.636.854h8.545a1.282,1.282,0,0,1,1.282,1.282ZM11,18.371l.793-.854-.888-.852c-.708,0-.854.144-.854.852S10.3,18.371,11,18.371Zm-.1-1.482c.236,0,.888.392.888.627s-.653.676-.888.676L10.4,18.01l-.129-.494.129-.574Z" transform="translate(-4.5)" fill="#44c8f5"/>
    <g id="Ellipse_1385" data-name="Ellipse 1385" transform="translate(5.908 1.3)" fill="#fff" stroke="#039" stroke-width="1">
      <circle cx="0.5" cy="0.5" r="0.5" stroke="none"/>
      <circle cx="0.5" cy="0.5" fill="none"/>
    </g>
    <g id="Ellipse_1386" data-name="Ellipse 1386" transform="translate(5 16)" fill="none" stroke="#039" stroke-width="1">
      <circle cx="1.5" cy="1.5" r="1.5" stroke="none"/>
      <circle cx="1.5" cy="1.5" r="1" fill="none"/>
    </g>
  </g>
  <path id="Icon_awesome-receipt" data-name="Icon awesome-receipt" d="M5.777.052,5.158.774,4.281.052a.256.256,0,0,0-.309,0L3.095.774,2.218.052a.256.256,0,0,0-.309,0L1.032.774.413.052A.258.258,0,0,0,0,.258V8A.258.258,0,0,0,.413,8.2l.619-.722.877.722a.256.256,0,0,0,.309,0l.877-.722.877.722a.256.256,0,0,0,.309,0l.877-.722.619.722A.258.258,0,0,0,6.189,8V.258A.258.258,0,0,0,5.777.052ZM5.158,5.8a.129.129,0,0,1-.129.129H1.161A.129.129,0,0,1,1.032,5.8V5.545a.129.129,0,0,1,.129-.129H5.029a.129.129,0,0,1,.129.129Zm0-1.547a.129.129,0,0,1-.129.129H1.161a.129.129,0,0,1-.129-.129V4a.129.129,0,0,1,.129-.129H5.029A.129.129,0,0,1,5.158,4Zm0-1.547a.129.129,0,0,1-.129.129H1.161a.129.129,0,0,1-.129-.129V2.45a.129.129,0,0,1,.129-.129H5.029a.129.129,0,0,1,.129.129Z" transform="translate(17.553 7.159) rotate(90)" fill="none" stroke="#039" stroke-width="0.7"/>
</svg>
