<svg id="Group_21888" data-name="Group 21888" xmlns="http://www.w3.org/2000/svg" width="12.817" height="20.507" viewBox="0 0 12.817 20.507">
  <g id="Group_21874" data-name="Group 21874">
    <path id="Path_21051" data-name="Path 21051" d="M10.908,1.519c-.236,0-.139-.047-.139.189s-.1.205.139.205.16.087.16-.149S11.144,1.519,10.908,1.519ZM15.181,0H6.636A2.136,2.136,0,0,0,4.5,2.136V18.371a2.136,2.136,0,0,0,2.136,2.136h8.545a2.136,2.136,0,0,0,2.136-2.136V2.136A2.136,2.136,0,0,0,15.181,0Zm1.282,18.371a1.282,1.282,0,0,1-1.282,1.282H6.636a1.282,1.282,0,0,1-1.282-1.282V15.38H16.462Zm0-3.845H5.354V3.418H16.462Zm0-11.962H5.354V2.136A1.282,1.282,0,0,1,6.636.854h8.545a1.282,1.282,0,0,1,1.282,1.282ZM11,18.371l.793-.854-.888-.852c-.708,0-.854.144-.854.852S10.3,18.371,11,18.371Zm-.1-1.482c.236,0,.888.392.888.627s-.653.676-.888.676L10.4,18.01l-.129-.494.129-.574Z" transform="translate(-4.5)" fill="#44c8f5"/>
    <g id="Ellipse_1385" data-name="Ellipse 1385" transform="translate(5.908 1.3)" fill="#fff" stroke="#039" stroke-width="1">
      <circle cx="0.5" cy="0.5" r="0.5" stroke="none"/>
      <circle cx="0.5" cy="0.5" fill="none"/>
    </g>
    <g id="Ellipse_1386" data-name="Ellipse 1386" transform="translate(5 16)" fill="none" stroke="#039" stroke-width="1">
      <circle cx="1.5" cy="1.5" r="1.5" stroke="none"/>
      <circle cx="1.5" cy="1.5" r="1" fill="none"/>
    </g>
  </g>
</svg>
