<svg xmlns="http://www.w3.org/2000/svg" width="24" height="24" viewBox="0 0 24 24">
  <g id="Group_22368" data-name="Group 22368" transform="translate(-4436 -2296)">
    <g id="Group_22289" data-name="Group 22289" transform="translate(1 3)">
      <rect id="Rectangle_9608" data-name="Rectangle 9608" width="24" height="24" transform="translate(4435 2293)" fill="#fff"/>
      <g id="Group_22262" data-name="Group 22262" transform="translate(-317.001 -2975.874)">
        <g id="Group_22256" data-name="Group 22256" transform="translate(4755 5270.874)">
          <path id="Path_21141" data-name="Path 21141" d="M4306.819-66.374v17.532a2.117,2.117,0,0,0,.492,1.153,2.28,2.28,0,0,0,1.193.477h14.476a2.329,2.329,0,0,0,1.233-.477,1.82,1.82,0,0,0,.4-1.153V-62.2l-6.045-6.005h-10.34a1.407,1.407,0,0,0-1.095.448A2.237,2.237,0,0,0,4306.819-66.374Z" transform="translate(-4306.811 68.211)" fill="none" stroke="#44c8f5" stroke-linecap="round" stroke-linejoin="round" stroke-width="1"/>
          <path id="Path_21143" data-name="Path 21143" d="M4316.708-68v4.834a2.045,2.045,0,0,0,.489,1.285,2.281,2.281,0,0,0,1.377.367h4.5" transform="translate(-4305.242 68.245)" fill="none" stroke="#44c8f5" stroke-linecap="round" stroke-linejoin="round" stroke-width="1"/>
        </g>
        <path id="Path_21144" data-name="Path 21144" d="M3479.914,4963.9v3.869l3.513,2.749,3.182-2.749V4963.9l-3.182-1.807Z" transform="translate(1280.299 316.412)" fill="none" stroke="#039" stroke-linecap="round" stroke-linejoin="round" stroke-width="1"/>
        <path id="Path_21146" data-name="Path 21146" d="M3473.869,5020.674h8.746" transform="translate(1285.185 268.191)" fill="none" stroke="#44c8f5" stroke-linecap="round" stroke-width="1"/>
        <path id="Path_21155" data-name="Path 21155" d="M3491.357,4980.544l.98.942,1.909-1.833" transform="translate(1271.174 301.958)" fill="none" stroke="#039" stroke-linecap="round" stroke-linejoin="round" stroke-width="1"/>
      </g>
    </g>
  </g>
</svg>
