<svg xmlns="http://www.w3.org/2000/svg" width="13.978" height="13.963" viewBox="0 0 13.978 13.963">
    <path data-name="fi-rr-share" d="M11.236 8.532A2.711 2.711 0 0 0 9 9.71L5.216 8a2.661 2.661 0 0 0 0-2.029L9 4.252a2.711 2.711 0 1 0-.481-1.538 2.7 2.7 0 0 0 .047.457L4.546 5a2.716 2.716 0 1 0-.009 3.97l4.03 1.82a2.755 2.755 0 0 0-.046.457 2.715 2.715 0 1 0 2.715-2.714zm0-7.369a1.552 1.552 0 1 1-1.551 1.552 1.552 1.552 0 0 1 1.551-1.551zM2.7 8.532a1.552 1.552 0 1 1 1.555-1.551A1.552 1.552 0 0 1 2.7 8.532zm8.536 4.268a1.552 1.552 0 1 1 1.552-1.552 1.552 1.552 0 0 1-1.552 1.552z" transform="translate(.027 .001)" style="fill:#44c8f5"/>
</svg>
