<svg id="quickModeTorusIcon" xmlns="http://www.w3.org/2000/svg" width="76.342" height="76.342" viewBox="0 0 76.342 76.342">
  <path id="Path_24395" data-name="Path 24395" d="M17.671,39.625c-8.2-3.1-15-13.417-11.686-24.66A20.864,20.864,0,0,1,30.619.532C21.513,2.277,14.953,7.26,11.986,16.112,9,25.008,11.353,32.865,17.671,39.625ZM34.365,8.766c9.392.056,16.194,4.676,20.71,12.707A20.753,20.753,0,0,0,33.341,2.8c-11.8.449-19.371,10.032-19.892,18.514C18.108,13.261,24.971,8.71,34.365,8.766Zm.458,37.641C27.186,51.867,18.929,52.1,10.4,48.183a21.217,21.217,0,0,0,27.966,3.138A20.6,20.6,0,0,0,44.216,24C45.316,33.266,42.473,40.938,34.823,46.407Zm13-20.517C51.557,35.2,49.346,43.5,42.7,50.768c8.318-3.2,14.914-13.557,11.617-24.7A20.842,20.842,0,0,0,29.706,11.705C38.195,13.277,44.571,17.779,47.823,25.89ZM9.542,45.165C19.17,51.375,31.212,48.2,36.5,41.59c-8.455,3.863-16.688,3.55-24.288-1.922S1.8,26.558,2.88,17.42C-2.166,25.33-.964,38.387,9.542,45.165Z" transform="matrix(0.545, -0.839, 0.839, 0.545, 0, 46.285)" fill="#fff"/>
</svg>
