<svg xmlns="http://www.w3.org/2000/svg" width="24" height="24" viewBox="0 0 24 24">
  <g id="Group_22364" data-name="Group 22364" transform="translate(-23 -249.228)">
    <rect id="Rectangle_9612" data-name="Rectangle 9612" width="24" height="24" transform="translate(23 249.228)" fill="#fff"/>
    <g id="Group_20944" data-name="Group 20944" transform="translate(7 -72.683)">
      <g id="Group_20922" data-name="Group 20922" transform="translate(18 323.91)">
        <g id="Group_20921" data-name="Group 20921" transform="translate(4.698)">
          <g id="cross-reference">
            <g id="Ellipse_1250" data-name="Ellipse 1250" transform="translate(0)" fill="none" stroke="#44c8f5" stroke-width="1.3">
              <circle cx="4.975" cy="4.975" r="4.975" stroke="none"/>
              <circle cx="4.975" cy="4.975" r="4.325" fill="none"/>
            </g>
          </g>
        </g>
        <path id="Icon_ionic-md-star" data-name="Icon ionic-md-star" d="M7.3,9.847l2.162,1.3L8.886,8.691,10.8,7.036,8.279,6.82,7.3,4.5,6.313,6.82,3.8,7.036,5.706,8.691l-.572,2.461Z" transform="translate(-3.797 10.848)" fill="#039"/>
        <path id="Icon_ionic-md-star-2" data-name="Icon ionic-md-star" d="M7.3,9.847l2.162,1.3L8.886,8.691,10.8,7.036,8.279,6.82,7.3,4.5,6.313,6.82,3.8,7.036,5.706,8.691l-.572,2.461Z" transform="translate(2.116 7.768)" fill="#039"/>
        <path id="Icon_ionic-md-star-3" data-name="Icon ionic-md-star" d="M7.3,9.847l2.162,1.3L8.886,8.691,10.8,7.036,8.279,6.82,7.3,4.5,6.313,6.82,3.8,7.036,5.706,8.691l-.572,2.461Z" transform="translate(8.275 10.848)" fill="#039"/>
      </g>
      <path id="Path_20937" data-name="Path 20937" d="M5305.283-5006.248s6.671-7.838,15.262,0" transform="translate(-5285.625 5343.453)" fill="none" stroke="#44c8f5" stroke-linecap="round" stroke-width="1.3"/>
    </g>
  </g>
</svg>
