<svg xmlns="http://www.w3.org/2000/svg" width="36" height="36" viewBox="0 0 36 36">
  <g id="redeem_now_icon" data-name="redeem now icon" transform="translate(-15 86.998)">
    <g id="Ellipse_537" data-name="Ellipse 537" transform="translate(15 -86.998)" fill="#fff" stroke="#aceaff" stroke-width="1">
      <circle cx="18" cy="18" r="18" stroke="none"/>
      <circle cx="18" cy="18" r="17.5" fill="none"/>
    </g>
    <path id="Link" d="M26.865,18.865l-2.548,2.548a.417.417,0,0,1-.59-.59l2.548-2.548a3.19,3.19,0,0,0,0-4.507,3.118,3.118,0,0,0-2.253-.927,3.243,3.243,0,0,0-2.253.927l-2.548,2.548a3.19,3.19,0,0,0,0,4.507,2.965,2.965,0,0,0,1.053.695.427.427,0,0,1,.232.548.409.409,0,0,1-.548.232,4.07,4.07,0,0,1-1.327-.885,4,4,0,0,1,0-5.686l2.548-2.548a4.021,4.021,0,0,1,5.686,5.686Zm-6.739-1.158a.42.42,0,1,0-.316.779,3.276,3.276,0,0,1,1.053.695,3.19,3.19,0,0,1,0,4.507l-2.548,2.548a3.118,3.118,0,0,1-2.253.927,3.242,3.242,0,0,1-2.253-.927,3.19,3.19,0,0,1,0-4.507l2.548-2.548a.417.417,0,0,0-.59-.59L13.219,21.14a4.042,4.042,0,0,0,0,5.686,4.017,4.017,0,0,0,5.686,0l2.548-2.548a4,4,0,0,0,0-5.686A4.07,4.07,0,0,0,20.126,17.707Z" transform="translate(13.974 -88.926)" fill="#039"/>
  </g>
</svg>
