<svg xmlns="http://www.w3.org/2000/svg" xmlns:xlink="http://www.w3.org/1999/xlink" width="223" height="138" viewBox="0 0 223 138">
  <defs>
    <clipPath id="clip-path">
      <rect id="Rectangle_9943" data-name="Rectangle 9943" width="223" height="138" transform="translate(0 -0.159)" fill="none"/>
    </clipPath>
    <clipPath id="clip-path-2">
      <rect id="Rectangle_9818" data-name="Rectangle 9818" width="21.21" height="5.941" fill="#739af0"/>
    </clipPath>
    <clipPath id="clip-path-3">
      <rect id="Rectangle_9940" data-name="Rectangle 9940" width="10.813" height="21.729" fill="none"/>
    </clipPath>
    <clipPath id="clip-path-4">
      <rect id="Rectangle_9941" data-name="Rectangle 9941" width="11.366" height="11.812" fill="none"/>
    </clipPath>
    <clipPath id="clip-path-5">
      <rect id="Rectangle_9942" data-name="Rectangle 9942" width="19.585" height="20.345" fill="none"/>
    </clipPath>
  </defs>
  <g id="Group_21002" data-name="Group 21002" transform="translate(0 0.429)">
    <g id="Group_21015" data-name="Group 21015" transform="translate(0 -0.27)">
      <g id="Group_21014" data-name="Group 21014" transform="translate(0 0)" clip-path="url(#clip-path)">
        <path id="Path_21634" data-name="Path 21634" d="M256.286,179.613c-12.1,0-176.009.264-183.141-.062,0,0-12.478.163-16.025,0-.067-.159-26.712-54.428,25.665-76.144,18.873-7.825-1.031-20.175,12.07-33.7,15.056-15.547,31.487,1.652,48.229-5.4a26.9,26.9,0,0,0,8.9-6.321,33.082,33.082,0,0,1,5.468-4.545q.451-.3.912-.588a36.4,36.4,0,0,1,3.648-1.983q1.264-.6,2.576-1.1h0a42.143,42.143,0,0,1,4.27-1.392,48.263,48.263,0,0,1,6.369-1.251q1.421-.185,2.864-.292c18.707-1.408,32.354,3.5,43.652,14.639,6.467,6.378,11.943,18.059,8.091,36.826-2.445,11.912,18.961,18.053,26.33,30,18.736,30.387.292,50.918.122,51.314" transform="translate(-45.751 -42.079)" fill="#ebf3ff"/>
        <path id="Path_21635" data-name="Path 21635" d="M1170.064,889.865l-4.356,52.312s-.457,3.171,1.879,3.177c3.84.009,19.114,0,19.114,0s-2.89-.66-2.855-2.145c.041-1.751,5.091-53.838,5.091-53.838Z" transform="translate(-1060.595 -808.131)" fill="#798ee8"/>
        <path id="Path_21636" data-name="Path 21636" d="M1200.81,934.7c-.755,0-15.542.028-19.282-.021-1.63-.02-1.915-1.463-1.929-2.4a4.712,4.712,0,0,1,.05-.779l.113-1.36.289-3.465.255-3.062.328-3.934.276-3.321,3.1-37.171,18.873-.495s-2.127,21.8-3.631,37.666c-.168,1.768-.328,3.463-.476,5.045q-.072.758-.139,1.48c-.14,1.5-.267,2.88-.378,4.1-.058.641-.113,1.238-.161,1.784-.192,2.14-.3,3.506-.306,3.766a2.206,2.206,0,0,0,.037.423c.309,1.667,2.7,1.743,2.986,1.743" transform="translate(-1073.266 -798.427)" fill="#c0d8fb"/>
        <path id="Path_21637" data-name="Path 21637" d="M705.943,581.872l10.611,43.046,1.453,5.9,4.942,20.05h91.819l-18.216-68.991Z" transform="translate(-642.307 -528.627)" fill="#c0d8fb"/>
        <path id="Path_21638" data-name="Path 21638" d="M691.1,581.871l-1.471.495L706.15,652.36l1.955-1.5Z" transform="translate(-627.462 -528.626)" fill="#6385db"/>
        <path id="Path_21639" data-name="Path 21639" d="M872.915,1341.207h91.254l2.52-1.5H874.87Z" transform="translate(-794.227 -1217.473)" fill="#849def"/>
        <rect id="Rectangle_9817" data-name="Rectangle 9817" width="19.758" height="0.948" transform="translate(110.733 136.271)" fill="#aec3ff"/>
        <path id="Path_21640" data-name="Path 21640" d="M1203.3,1356.152l-.1.725-18.581,3.791.255-3.061.122-1.454Z" transform="translate(-1077.828 -1232.419)" fill="#739af0"/>
        <g id="Group_21004" data-name="Group 21004" transform="translate(106.334 130.339)" opacity="0.5">
          <g id="Group_21003" data-name="Group 21003">
            <g id="Group_21002-2" data-name="Group 21002" clip-path="url(#clip-path-2)">
              <path id="Path_21641" data-name="Path 21641" d="M1200.815,1434.647c-.755,0-15.542.027-19.282-.021-1.63-.021-1.915-1.463-1.929-2.4l18.493-3.514c-.192,2.14-.3,3.507-.306,3.766a2.206,2.206,0,0,0,.037.423c.31,1.667,2.7,1.743,2.986,1.743" transform="translate(-1179.605 -1428.715)" fill="#739af0"/>
            </g>
          </g>
        </g>
        <path id="Path_21642" data-name="Path 21642" d="M705.942,581.871h90.609l14.7,55.447H719.61Z" transform="translate(-642.306 -528.626)" fill="#739af0"/>
        <path id="Path_21643" data-name="Path 21643" d="M844.857,664.575H760.02l-3.032-12.2-1.173-4.719-.478-1.924L752.221,633.2l-.161-.653-1.648-6.625-.737-2.964-.628-2.529-.513-2.062-.961-3.865h83.615l1.055,3.865.563,2.062.69,2.529.809,2.964,5.332,19.53h0l.451,1.655.21.768,3.681,13.483Z" transform="translate(-680.184 -558.285)" fill="#2a4e96"/>
        <g id="Component_245_1" data-name="Component 245 – 1" transform="translate(116.676 84.153) rotate(60)" opacity="0">
          <path id="Path_21644" data-name="Path 21644" d="M1207.253,970.351a1.676,1.676,0,0,0-.223-.357h0a1.693,1.693,0,0,0-.217-.221l-.327-.334-.086.064c-1.672-.826-5.124.05-8.616,2.352-4.22,2.782-6.93,6.614-6.148,8.65l-.119.089.469.472c.023.024.046.047.069.07l.013.013,0,0a1.937,1.937,0,0,0,.406.285l0,0h0c1.65.873,5.139,0,8.669-2.323,4.3-2.835,7.031-6.758,6.1-8.763" transform="translate(-1191 -968.69)" fill="#ffa412"/>
          <path id="Path_21645" data-name="Path 21645" d="M1192.212,966.285c4.3-2.835,8.538-3.507,9.468-1.5s-1.8,5.928-6.1,8.763-8.538,3.507-9.468,1.5,1.8-5.928,6.1-8.763" transform="translate(-1185.93 -963.628)" fill="#ffb93e"/>
          <path id="Path_21646" data-name="Path 21646" d="M1199.136,982.635a3.405,3.405,0,0,1-.946-.121,1.641,1.641,0,0,1-1.106-.891c-.388-.854-.029-2.121,1.011-3.569a17,17,0,0,1,4.366-4.039c2.764-1.828,5.574-2.711,7.161-2.249a1.643,1.643,0,0,1,1.106.891c.387.854.028,2.121-1.011,3.569a16.992,16.992,0,0,1-4.366,4.039,12.558,12.558,0,0,1-6.215,2.37m9.55-10.67a12.394,12.394,0,0,0-6.052,2.317,16.683,16.683,0,0,0-4.283,3.96c-.956,1.331-1.313,2.515-.98,3.249a1.34,1.34,0,0,0,.906.717,3.058,3.058,0,0,0,.849.107,12.393,12.393,0,0,0,6.053-2.317,16.686,16.686,0,0,0,4.283-3.959c.956-1.331,1.313-2.516.979-3.249a1.339,1.339,0,0,0-.906-.717,3.056,3.056,0,0,0-.849-.107" transform="translate(-1195.94 -970.917)" fill="#ffa412"/>
        </g>
        <g id="Component_247_1" data-name="Component 247 – 1" transform="translate(146.116 120.969) rotate(60)" opacity="0">
          <path id="Path_21648" data-name="Path 21648" d="M1537.926,1378.832a1.662,1.662,0,0,0-.191-.363h0a1.69,1.69,0,0,0-.194-.231l-.294-.349-.088.056c-1.566-.927-4.987-.33-8.55,1.651-4.306,2.4-7.219,5.922-6.606,7.96l-.122.078.422.494c.02.025.041.049.063.073l.012.014,0,0a1.871,1.871,0,0,0,.375.307l0,0h0c1.542.971,5,.383,8.6-1.62,4.387-2.44,7.327-6.054,6.568-8.073" transform="translate(-1521.47 -1376.984)" fill="#ffa412"/>
          <path id="Path_21649" data-name="Path 21649" d="M1524.009,1373.77c4.387-2.44,8.558-2.781,9.318-.763s-2.182,5.633-6.568,8.073-8.558,2.781-9.317.762,2.182-5.633,6.568-8.073" transform="translate(-1517.321 -1371.691)" fill="#ffb93e"/>
          <path id="Path_21650" data-name="Path 21650" d="M1530.521,1389.017a3.318,3.318,0,0,1-.912-.188,1.6,1.6,0,0,1-1.011-.948c-.315-.859.125-2.065,1.242-3.4a16.539,16.539,0,0,1,4.539-3.606c2.82-1.574,5.618-2.225,7.128-1.659a1.6,1.6,0,0,1,1.011.948c.315.859-.126,2.065-1.242,3.4a16.551,16.551,0,0,1-4.539,3.606,12.233,12.233,0,0,1-6.216,1.846m10.061-9.674a12.078,12.078,0,0,0-6.055,1.807,16.228,16.228,0,0,0-4.453,3.535c-1.026,1.224-1.459,2.35-1.188,3.088a1.31,1.31,0,0,0,.83.765,2.979,2.979,0,0,0,.818.167,12.067,12.067,0,0,0,6.055-1.807,16.228,16.228,0,0,0,4.453-3.535c1.026-1.224,1.459-2.349,1.188-3.088a1.307,1.307,0,0,0-.829-.765,2.991,2.991,0,0,0-.818-.168" transform="translate(-1527.491 -1378.349)" fill="#ffa412"/>
        </g>
        <g id="Component_246_1" data-name="Component 246 – 1" transform="translate(119.041 110.759) rotate(-60)" opacity="0">
          <path id="Path_21652" data-name="Path 21652" d="M1338.185,1105.251a1.729,1.729,0,0,1,.225-.36h0a1.759,1.759,0,0,1,.219-.224l.33-.338.087.065c1.688-.834,5.173.05,8.7,2.375,4.261,2.81,7,6.678,6.208,8.734l.12.09-.474.477c-.022.024-.046.048-.07.071l-.013.014,0,0a1.944,1.944,0,0,1-.41.288l0,0h0c-1.666.882-5.189,0-8.753-2.346-4.341-2.862-7.1-6.823-6.16-8.848" transform="translate(-1338.002 -1103.571)" fill="#ffa412"/>
          <path id="Path_21653" data-name="Path 21653" d="M1353.368,1101.144c-4.341-2.862-8.621-3.541-9.559-1.517s1.819,5.985,6.16,8.848,8.621,3.541,9.559,1.517-1.819-5.986-6.16-8.848" transform="translate(-1343.119 -1098.462)" fill="#ffb93e"/>
          <path id="Path_21654" data-name="Path 21654" d="M1360.318,1115.261a17.165,17.165,0,0,1-4.408-4.078c-1.049-1.462-1.412-2.742-1.021-3.6a1.657,1.657,0,0,1,1.116-.9c1.6-.466,4.44.425,7.231,2.271a17.169,17.169,0,0,1,4.408,4.078c1.05,1.462,1.412,2.742,1.021,3.6a1.657,1.657,0,0,1-1.116.9,3.424,3.424,0,0,1-.956.122,12.681,12.681,0,0,1-6.275-2.393m-4.224-8.272a1.353,1.353,0,0,0-.915.724c-.336.741.024,1.937.989,3.281a16.842,16.842,0,0,0,4.325,4,12.507,12.507,0,0,0,6.111,2.339,3.1,3.1,0,0,0,.857-.108,1.354,1.354,0,0,0,.915-.725c.336-.741-.024-1.937-.989-3.281a16.848,16.848,0,0,0-4.325-4,12.513,12.513,0,0,0-6.111-2.339,3.079,3.079,0,0,0-.857.109" transform="translate(-1353.228 -1105.819)" fill="#ffa412"/>
        </g>
        <path id="Path_21656" data-name="Path 21656" d="M986.5,1480.592v1.245a.426.426,0,0,1-.1.268.567.567,0,0,1-.265.179.573.573,0,0,1-.1.025.647.647,0,0,1-.1.007H962.553a.548.548,0,0,1-.56-.408.47.47,0,0,1,0-.047c0-.008,0-.016,0-.024v-1.245c0-.008,0-.016,0-.024a.456.456,0,0,1,0-.047.548.548,0,0,1,.56-.408h23.378a.618.618,0,0,1,.1.007.606.606,0,0,1,.1.025.565.565,0,0,1,.265.179.426.426,0,0,1,.1.268" transform="translate(-875.27 -1345.095)" fill="#ffb93e"/>
        <path id="Path_21657" data-name="Path 21657" d="M975.017,1482.317H962.492a.5.5,0,0,1-.486-.355.416.416,0,0,1-.014-.053.458.458,0,0,1,0-.047c0-.008,0-.016,0-.024v-1.245c0-.008,0-.016,0-.024a.456.456,0,0,1,0-.047.431.431,0,0,1,.014-.052.5.5,0,0,1,.486-.355h10.987a3.863,3.863,0,0,0,1.538,2.2" transform="translate(-875.27 -1345.095)" fill="#ffa412"/>
        <rect id="Rectangle_9819" data-name="Rectangle 9819" width="0.266" height="2.204" transform="translate(108.116 135.018)" fill="#ffa412"/>
        <rect id="Rectangle_9820" data-name="Rectangle 9820" width="0.266" height="2.204" transform="translate(107.216 135.018)" fill="#ffa412"/>
        <rect id="Rectangle_9821" data-name="Rectangle 9821" width="0.266" height="2.204" transform="translate(106.138 135.018)" fill="#ffa412"/>
        <rect id="Rectangle_9822" data-name="Rectangle 9822" width="0.266" height="2.204" transform="translate(104.485 135.018)" fill="#ffa412"/>
        <rect id="Rectangle_9823" data-name="Rectangle 9823" width="0.266" height="2.204" transform="translate(102.736 135.018)" fill="#ffa412"/>
        <rect id="Rectangle_9824" data-name="Rectangle 9824" width="0.266" height="2.204" transform="translate(100.057 135.018)" fill="#ffa412"/>
        <rect id="Rectangle_9825" data-name="Rectangle 9825" width="0.266" height="2.204" transform="translate(97.547 135.018)" fill="#ffa412"/>
        <rect id="Rectangle_9826" data-name="Rectangle 9826" width="0.266" height="2.204" transform="translate(95.307 135.018)" fill="#ffa412"/>
        <rect id="Rectangle_9827" data-name="Rectangle 9827" width="0.266" height="2.204" transform="translate(108.972 135.018)" fill="#ffa412"/>
        <rect id="Rectangle_9828" data-name="Rectangle 9828" width="0.266" height="2.204" transform="translate(109.537 135.018)" fill="#ffa412"/>
        <rect id="Rectangle_9829" data-name="Rectangle 9829" width="0.266" height="2.204" transform="translate(110.084 135.018)" fill="#ffa412"/>
        <path id="Path_21658" data-name="Path 21658" d="M1226.031,1480.121v2.188a.651.651,0,0,1-.1.008h-.166v-2.2h.166a.621.621,0,0,1,.1.008" transform="translate(-1115.271 -1345.095)" fill="#ffa412"/>
        <path id="Path_21659" data-name="Path 21659" d="M1230.126,1480.648v1.781a.565.565,0,0,1-.266.179v-2.14a.566.566,0,0,1,.266.18" transform="translate(-1118.997 -1345.417)" fill="#ffa412"/>
        <path id="Path_21660" data-name="Path 21660" d="M958.773,1456.38v1.244a.431.431,0,0,1-.1.269.6.6,0,0,1-.053.057.6.6,0,0,1-.316.146.634.634,0,0,1-.1.008H934.829a.548.548,0,0,1-.559-.408c0-.016,0-.031-.005-.047s0-.016,0-.025v-1.244c0-.008,0-.017,0-.025s0-.031.005-.047a.548.548,0,0,1,.559-.409h23.378l.044,0,.016,0h0l.021,0,.014,0a.562.562,0,0,1,.1.024q.029.01.057.022h0l.036.018.021.011.019.012a.433.433,0,0,1,.069.051l.02.018.012.011.006.007.005.005a.217.217,0,0,1,.021.024.428.428,0,0,1,.1.268" transform="translate(-850.046 -1323.086)" fill="#ffb93e"/>
        <path id="Path_21661" data-name="Path 21661" d="M947.294,1458.1H934.769a.5.5,0,0,1-.485-.356.458.458,0,0,1-.014-.053c0-.016,0-.031-.005-.047s0-.016,0-.025v-1.244c0-.008,0-.017,0-.025s0-.031.005-.046a.458.458,0,0,1,.014-.053.5.5,0,0,1,.485-.356h10.987c0,.019.01.036.015.054a3.855,3.855,0,0,0,1.523,2.15" transform="translate(-850.047 -1323.085)" fill="#ffa412"/>
        <rect id="Rectangle_9830" data-name="Rectangle 9830" width="0.266" height="2.204" transform="translate(105.616 132.814)" fill="#ffa412"/>
        <rect id="Rectangle_9831" data-name="Rectangle 9831" width="0.266" height="2.204" transform="translate(104.717 132.814)" fill="#ffa412"/>
        <rect id="Rectangle_9832" data-name="Rectangle 9832" width="0.266" height="2.204" transform="translate(103.638 132.814)" fill="#ffa412"/>
        <rect id="Rectangle_9833" data-name="Rectangle 9833" width="0.266" height="2.204" transform="translate(101.985 132.814)" fill="#ffa412"/>
        <rect id="Rectangle_9834" data-name="Rectangle 9834" width="0.266" height="2.204" transform="translate(100.237 132.814)" fill="#ffa412"/>
        <rect id="Rectangle_9835" data-name="Rectangle 9835" width="0.266" height="2.204" transform="translate(97.557 132.814)" fill="#ffa412"/>
        <rect id="Rectangle_9836" data-name="Rectangle 9836" width="0.266" height="2.204" transform="translate(95.048 132.814)" fill="#ffa412"/>
        <rect id="Rectangle_9837" data-name="Rectangle 9837" width="0.266" height="2.204" transform="translate(92.807 132.814)" fill="#ffa412"/>
        <rect id="Rectangle_9838" data-name="Rectangle 9838" width="0.266" height="2.204" transform="translate(106.472 132.814)" fill="#ffa412"/>
        <rect id="Rectangle_9839" data-name="Rectangle 9839" width="0.266" height="2.204" transform="translate(107.038 132.814)" fill="#ffa412"/>
        <rect id="Rectangle_9840" data-name="Rectangle 9840" width="0.266" height="2.204" transform="translate(107.584 132.814)" fill="#ffa412"/>
        <path id="Path_21662" data-name="Path 21662" d="M1198.3,1455.909v2.189a.635.635,0,0,1-.1.008h-.166v-2.2h.166a.635.635,0,0,1,.1.008" transform="translate(-1090.041 -1323.087)" fill="#ffa412"/>
        <path id="Path_21663" data-name="Path 21663" d="M1202.4,1456.436v1.78a.561.561,0,0,1-.265.179v-2.139a.565.565,0,0,1,.265.179" transform="translate(-1093.769 -1323.41)" fill="#ffa412"/>
        <path id="Path_21664" data-name="Path 21664" d="M972.174,1432.77v1.245a.427.427,0,0,1-.1.268.561.561,0,0,1-.265.179.651.651,0,0,1-.1.025.732.732,0,0,1-.1.007H948.23a.645.645,0,0,1-.261-.055.5.5,0,0,1-.3-.348c0-.011,0-.021,0-.031a.172.172,0,0,1,0-.021c0-.008,0-.016,0-.024v-1.245c0-.008,0-.016,0-.025a.358.358,0,0,1,.005-.047.547.547,0,0,1,.559-.408h23.378a.645.645,0,0,1,.1.007.613.613,0,0,1,.1.025.567.567,0,0,1,.265.18.427.427,0,0,1,.1.268" transform="translate(-862.239 -1301.626)" fill="#ffb93e"/>
        <path id="Path_21665" data-name="Path 21665" d="M960.694,1434.495H948.169a.521.521,0,0,1-.232-.055.483.483,0,0,1-.266-.348c0-.01,0-.02,0-.031a.2.2,0,0,1,0-.021c0-.008,0-.016,0-.024v-1.245c0-.008,0-.016,0-.025a.358.358,0,0,1,.005-.047.4.4,0,0,1,.013-.051.5.5,0,0,1,.485-.357h10.987a3.872,3.872,0,0,0,1.461,2.149c.025.018.05.037.077.055" transform="translate(-862.239 -1301.626)" fill="#ffa412"/>
        <rect id="Rectangle_9841" data-name="Rectangle 9841" width="0.266" height="2.204" transform="translate(106.824 130.665)" fill="#ffa412"/>
        <rect id="Rectangle_9842" data-name="Rectangle 9842" width="0.266" height="2.204" transform="translate(105.925 130.665)" fill="#ffa412"/>
        <rect id="Rectangle_9843" data-name="Rectangle 9843" width="0.266" height="2.204" transform="translate(104.846 130.665)" fill="#ffa412"/>
        <rect id="Rectangle_9844" data-name="Rectangle 9844" width="0.266" height="2.204" transform="translate(103.193 130.665)" fill="#ffa412"/>
        <rect id="Rectangle_9845" data-name="Rectangle 9845" width="0.266" height="2.204" transform="translate(101.445 130.665)" fill="#ffa412"/>
        <rect id="Rectangle_9846" data-name="Rectangle 9846" width="0.266" height="2.204" transform="translate(98.765 130.665)" fill="#ffa412"/>
        <rect id="Rectangle_9847" data-name="Rectangle 9847" width="0.266" height="2.204" transform="translate(96.256 130.665)" fill="#ffa412"/>
        <rect id="Rectangle_9848" data-name="Rectangle 9848" width="0.266" height="2.204" transform="translate(94.015 130.665)" fill="#ffa412"/>
        <rect id="Rectangle_9849" data-name="Rectangle 9849" width="0.266" height="2.204" transform="translate(107.68 130.665)" fill="#ffa412"/>
        <rect id="Rectangle_9850" data-name="Rectangle 9850" width="0.266" height="2.204" transform="translate(108.246 130.665)" fill="#ffa412"/>
        <rect id="Rectangle_9851" data-name="Rectangle 9851" width="0.266" height="2.204" transform="translate(108.792 130.665)" fill="#ffa412"/>
        <path id="Path_21666" data-name="Path 21666" d="M1211.7,1432.295v2.188a.669.669,0,0,1-.1.008h-.166v-2.2h.166a.609.609,0,0,1,.1.008" transform="translate(-1102.234 -1301.622)" fill="#ffa412"/>
        <path id="Path_21667" data-name="Path 21667" d="M1215.8,1432.821v1.78a.562.562,0,0,1-.265.179v-2.139a.563.563,0,0,1,.265.18" transform="translate(-1105.961 -1301.945)" fill="#ffa412"/>
        <path id="Path_21668" data-name="Path 21668" d="M978.387,1408.556v1.244a.425.425,0,0,1-.1.268c-.008.01-.017.02-.026.03a.552.552,0,0,1-.161.119.716.716,0,0,1-.078.032.6.6,0,0,1-.1.025l-.049.006-.051,0H954.443a.549.549,0,0,1-.56-.409c0-.015,0-.031-.005-.046v-1.294a.523.523,0,0,1,.5-.451.61.61,0,0,1,.067,0h23.378l.051,0a.49.49,0,0,1,.049.006.6.6,0,0,1,.1.024.564.564,0,0,1,.265.179.428.428,0,0,1,.1.269" transform="translate(-867.892 -1279.615)" fill="#ffb93e"/>
        <path id="Path_21669" data-name="Path 21669" d="M966.907,1410.279H954.383a.5.5,0,0,1-.486-.356.445.445,0,0,1-.014-.053c0-.015,0-.031-.005-.046v-1.295a.494.494,0,0,1,.445-.451.536.536,0,0,1,.06,0h10.987s0,0,0,0a3.869,3.869,0,0,0,1.537,2.2" transform="translate(-867.892 -1279.615)" fill="#ffa412"/>
        <rect id="Rectangle_9852" data-name="Rectangle 9852" width="0.266" height="2.204" transform="translate(107.384 128.46)" fill="#ffa412"/>
        <rect id="Rectangle_9853" data-name="Rectangle 9853" width="0.266" height="2.204" transform="translate(106.485 128.46)" fill="#ffa412"/>
        <rect id="Rectangle_9854" data-name="Rectangle 9854" width="0.266" height="2.204" transform="translate(105.406 128.46)" fill="#ffa412"/>
        <rect id="Rectangle_9855" data-name="Rectangle 9855" width="0.266" height="2.204" transform="translate(103.753 128.46)" fill="#ffa412"/>
        <rect id="Rectangle_9856" data-name="Rectangle 9856" width="0.266" height="2.204" transform="translate(102.005 128.46)" fill="#ffa412"/>
        <rect id="Rectangle_9857" data-name="Rectangle 9857" width="0.266" height="2.204" transform="translate(99.325 128.46)" fill="#ffa412"/>
        <rect id="Rectangle_9858" data-name="Rectangle 9858" width="0.266" height="2.204" transform="translate(96.816 128.46)" fill="#ffa412"/>
        <rect id="Rectangle_9859" data-name="Rectangle 9859" width="0.266" height="2.204" transform="translate(94.575 128.46)" fill="#ffa412"/>
        <rect id="Rectangle_9860" data-name="Rectangle 9860" width="0.266" height="2.204" transform="translate(108.24 128.46)" fill="#ffa412"/>
        <rect id="Rectangle_9861" data-name="Rectangle 9861" width="0.266" height="2.204" transform="translate(108.806 128.46)" fill="#ffa412"/>
        <rect id="Rectangle_9862" data-name="Rectangle 9862" width="0.266" height="2.204" transform="translate(109.352 128.46)" fill="#ffa412"/>
        <path id="Path_21670" data-name="Path 21670" d="M1217.913,1408.083v2.189a.623.623,0,0,1-.1.008h-.166v-2.2h.166a.653.653,0,0,1,.1.008" transform="translate(-1107.885 -1279.615)" fill="#ffa412"/>
        <path id="Path_21671" data-name="Path 21671" d="M1222.009,1408.61v1.78a.565.565,0,0,1-.266.18v-2.14a.563.563,0,0,1,.266.18" transform="translate(-1111.612 -1279.938)" fill="#ffa412"/>
        <path id="Path_21672" data-name="Path 21672" d="M959.316,1384.382v1.244a.422.422,0,0,1-.1.267.554.554,0,0,1-.266.18.577.577,0,0,1-.1.025l-.033,0h0l-.017,0H935.373a.536.536,0,0,1-.565-.455c0-.008,0-.016,0-.025v-1.244c0-.008,0-.017,0-.025s0-.013,0-.02a.514.514,0,0,1,.424-.42l.017,0a.685.685,0,0,1,.123-.012H958.75l.05,0,.021,0h0l.026,0a.6.6,0,0,1,.1.024.558.558,0,0,1,.266.18.424.424,0,0,1,.1.268" transform="translate(-850.54 -1257.642)" fill="#ffb93e"/>
        <path id="Path_21673" data-name="Path 21673" d="M947.837,1386.105H935.313a.5.5,0,0,1-.5-.455c0-.008,0-.016,0-.025v-1.244c0-.008,0-.017,0-.025s0-.013,0-.02a.491.491,0,0,1,.392-.422l.021,0a.508.508,0,0,1,.09-.008H946.3c0,.006,0,.01,0,.016a3.862,3.862,0,0,0,1.529,2.185l.005,0" transform="translate(-850.541 -1257.641)" fill="#ffa412"/>
        <rect id="Rectangle_9863" data-name="Rectangle 9863" width="0.266" height="2.204" transform="translate(105.665 126.26)" fill="#ffa412"/>
        <rect id="Rectangle_9864" data-name="Rectangle 9864" width="0.266" height="2.204" transform="translate(104.766 126.26)" fill="#ffa412"/>
        <rect id="Rectangle_9865" data-name="Rectangle 9865" width="0.266" height="2.204" transform="translate(103.687 126.26)" fill="#ffa412"/>
        <rect id="Rectangle_9866" data-name="Rectangle 9866" width="0.266" height="2.204" transform="translate(102.034 126.26)" fill="#ffa412"/>
        <rect id="Rectangle_9867" data-name="Rectangle 9867" width="0.266" height="2.204" transform="translate(100.286 126.26)" fill="#ffa412"/>
        <rect id="Rectangle_9868" data-name="Rectangle 9868" width="0.266" height="2.204" transform="translate(97.606 126.26)" fill="#ffa412"/>
        <rect id="Rectangle_9869" data-name="Rectangle 9869" width="0.266" height="2.204" transform="translate(95.097 126.26)" fill="#ffa412"/>
        <rect id="Rectangle_9870" data-name="Rectangle 9870" width="0.266" height="2.204" transform="translate(92.856 126.26)" fill="#ffa412"/>
        <rect id="Rectangle_9871" data-name="Rectangle 9871" width="0.266" height="2.204" transform="translate(106.521 126.26)" fill="#ffa412"/>
        <rect id="Rectangle_9872" data-name="Rectangle 9872" width="0.266" height="2.204" transform="translate(107.087 126.26)" fill="#ffa412"/>
        <rect id="Rectangle_9873" data-name="Rectangle 9873" width="0.266" height="2.204" transform="translate(107.633 126.26)" fill="#ffa412"/>
        <path id="Path_21674" data-name="Path 21674" d="M1198.845,1383.909v2.188a.622.622,0,0,1-.1.008h-.166v-2.2h.166a.622.622,0,0,1,.1.008" transform="translate(-1090.536 -1257.642)" fill="#ffa412"/>
        <path id="Path_21675" data-name="Path 21675" d="M1202.943,1384.438v1.781a.564.564,0,0,1-.265.179v-2.139a.56.56,0,0,1,.265.18" transform="translate(-1094.264 -1257.967)" fill="#ffa412"/>
        <path id="Path_21676" data-name="Path 21676" d="M958.773,1360.344v1.244a.428.428,0,0,1-.1.268.67.67,0,0,1-.053.057.58.58,0,0,1-.213.122.564.564,0,0,1-.08.021h0l-.021,0a.619.619,0,0,1-.1.008H934.829a.667.667,0,0,1-.073,0l-.028,0a.528.528,0,0,1-.459-.405c0-.014,0-.028,0-.042s0-.017,0-.025v-1.244c0-.009,0-.017,0-.025a.463.463,0,0,1,.005-.046.548.548,0,0,1,.559-.408h23.442l.021,0,.014,0a.6.6,0,0,1,.1.024c.02.007.039.014.057.022h0a.573.573,0,0,1,.187.133l.021.024a.43.43,0,0,1,.1.268" transform="translate(-850.046 -1235.793)" fill="#ffb93e"/>
        <path id="Path_21677" data-name="Path 21677" d="M947.294,1362.067H934.74l-.032,0a.5.5,0,0,1-.438-.41.405.405,0,0,1,0-.041c0-.009,0-.017,0-.025v-1.244c0-.009,0-.017,0-.025s0-.031.005-.047a.51.51,0,0,1,.5-.408h10.987c0,.018.01.036.015.054a3.856,3.856,0,0,0,1.5,2.134l.023.016" transform="translate(-850.047 -1235.792)" fill="#ffa412"/>
        <rect id="Rectangle_9874" data-name="Rectangle 9874" width="0.266" height="2.204" transform="translate(105.616 124.071)" fill="#ffa412"/>
        <rect id="Rectangle_9875" data-name="Rectangle 9875" width="0.266" height="2.204" transform="translate(104.717 124.071)" fill="#ffa412"/>
        <rect id="Rectangle_9876" data-name="Rectangle 9876" width="0.266" height="2.204" transform="translate(103.638 124.071)" fill="#ffa412"/>
        <rect id="Rectangle_9877" data-name="Rectangle 9877" width="0.266" height="2.204" transform="translate(101.985 124.071)" fill="#ffa412"/>
        <rect id="Rectangle_9878" data-name="Rectangle 9878" width="0.266" height="2.204" transform="translate(100.237 124.071)" fill="#ffa412"/>
        <rect id="Rectangle_9879" data-name="Rectangle 9879" width="0.266" height="2.204" transform="translate(97.557 124.071)" fill="#ffa412"/>
        <rect id="Rectangle_9880" data-name="Rectangle 9880" width="0.266" height="2.204" transform="translate(95.048 124.071)" fill="#ffa412"/>
        <rect id="Rectangle_9881" data-name="Rectangle 9881" width="0.266" height="2.204" transform="translate(92.807 124.071)" fill="#ffa412"/>
        <rect id="Rectangle_9882" data-name="Rectangle 9882" width="0.266" height="2.204" transform="translate(106.472 124.071)" fill="#ffa412"/>
        <rect id="Rectangle_9883" data-name="Rectangle 9883" width="0.266" height="2.204" transform="translate(107.038 124.071)" fill="#ffa412"/>
        <rect id="Rectangle_9884" data-name="Rectangle 9884" width="0.266" height="2.204" transform="translate(107.584 124.071)" fill="#ffa412"/>
        <path id="Path_21678" data-name="Path 21678" d="M1198.3,1359.872v2.189a.621.621,0,0,1-.1.008h-.166v-2.2h.166a.65.65,0,0,1,.1.008" transform="translate(-1090.041 -1235.793)" fill="#ffa412"/>
        <path id="Path_21679" data-name="Path 21679" d="M1202.4,1360.4v1.78a.563.563,0,0,1-.265.18v-2.139a.563.563,0,0,1,.265.18" transform="translate(-1093.769 -1236.116)" fill="#ffa412"/>
        <path id="Path_21680" data-name="Path 21680" d="M972.174,1336.729v1.244a.427.427,0,0,1-.1.269.56.56,0,0,1-.265.179.58.58,0,0,1-.1.025.63.63,0,0,1-.1.008H948.23a.641.641,0,0,1-.261-.055.5.5,0,0,1-.3-.348c0-.01,0-.02,0-.031a.178.178,0,0,1,0-.021c0-.008,0-.016,0-.025v-1.244c0-.008,0-.017,0-.025a.369.369,0,0,1,.005-.047.548.548,0,0,1,.559-.408h23.378a.629.629,0,0,1,.1.008.569.569,0,0,1,.1.024.555.555,0,0,1,.265.18.425.425,0,0,1,.1.268" transform="translate(-862.239 -1214.328)" fill="#ffb93e"/>
        <path id="Path_21681" data-name="Path 21681" d="M960.694,1338.452H948.169a.516.516,0,0,1-.232-.055.482.482,0,0,1-.266-.348c0-.01,0-.02,0-.031a.207.207,0,0,1,0-.021c0-.008,0-.016,0-.025v-1.244c0-.008,0-.017,0-.025a.366.366,0,0,1,.005-.046.4.4,0,0,1,.013-.051.5.5,0,0,1,.485-.357h10.987a3.869,3.869,0,0,0,1.461,2.15l.077.055" transform="translate(-862.239 -1214.327)" fill="#ffa412"/>
        <rect id="Rectangle_9885" data-name="Rectangle 9885" width="0.266" height="2.204" transform="translate(106.824 121.922)" fill="#ffa412"/>
        <rect id="Rectangle_9886" data-name="Rectangle 9886" width="0.266" height="2.204" transform="translate(105.925 121.922)" fill="#ffa412"/>
        <rect id="Rectangle_9887" data-name="Rectangle 9887" width="0.266" height="2.204" transform="translate(104.846 121.922)" fill="#ffa412"/>
        <rect id="Rectangle_9888" data-name="Rectangle 9888" width="0.266" height="2.204" transform="translate(103.193 121.922)" fill="#ffa412"/>
        <rect id="Rectangle_9889" data-name="Rectangle 9889" width="0.266" height="2.204" transform="translate(101.445 121.922)" fill="#ffa412"/>
        <rect id="Rectangle_9890" data-name="Rectangle 9890" width="0.266" height="2.204" transform="translate(98.765 121.922)" fill="#ffa412"/>
        <rect id="Rectangle_9891" data-name="Rectangle 9891" width="0.266" height="2.204" transform="translate(96.256 121.922)" fill="#ffa412"/>
        <rect id="Rectangle_9892" data-name="Rectangle 9892" width="0.266" height="2.204" transform="translate(94.015 121.922)" fill="#ffa412"/>
        <rect id="Rectangle_9893" data-name="Rectangle 9893" width="0.266" height="2.204" transform="translate(107.68 121.922)" fill="#ffa412"/>
        <rect id="Rectangle_9894" data-name="Rectangle 9894" width="0.266" height="2.204" transform="translate(108.246 121.922)" fill="#ffa412"/>
        <rect id="Rectangle_9895" data-name="Rectangle 9895" width="0.266" height="2.204" transform="translate(108.792 121.922)" fill="#ffa412"/>
        <path id="Path_21682" data-name="Path 21682" d="M1211.7,1336.26v2.189a.686.686,0,0,1-.1.007h-.166v-2.2h.166a.638.638,0,0,1,.1.007" transform="translate(-1102.234 -1214.33)" fill="#ffa412"/>
        <path id="Path_21683" data-name="Path 21683" d="M1215.8,1336.785v1.781a.564.564,0,0,1-.265.179v-2.139a.562.562,0,0,1,.265.179" transform="translate(-1105.961 -1214.652)" fill="#ffa412"/>
        <path id="Path_21684" data-name="Path 21684" d="M993.367,1312.519v1.245a.429.429,0,0,1-.1.267h0c-.008.01-.017.02-.026.03a.534.534,0,0,1-.125.1.563.563,0,0,1-.074.036h0l-.039.015a.57.57,0,0,1-.1.024.617.617,0,0,1-.1.007H969.423a.548.548,0,0,1-.56-.408.364.364,0,0,1,0-.047.226.226,0,0,1,0-.024v-1.245a.232.232,0,0,1,0-.025.576.576,0,0,1,.564-.455H992.8a.754.754,0,0,1,.1.007.666.666,0,0,1,.1.025.574.574,0,0,1,.24.15c.009.01.018.019.026.03h0a.429.429,0,0,1,.1.267" transform="translate(-881.522 -1192.322)" fill="#ffb93e"/>
        <path id="Path_21685" data-name="Path 21685" d="M981.887,1314.244H969.363a.5.5,0,0,1-.486-.357.462.462,0,0,1-.013-.051.364.364,0,0,1,0-.047.23.23,0,0,1,0-.024v-1.245a.232.232,0,0,1,0-.025.492.492,0,0,1,.444-.452.422.422,0,0,1,.06,0h10.987a.03.03,0,0,1,0,0,3.861,3.861,0,0,0,1.537,2.2" transform="translate(-881.522 -1192.322)" fill="#ffa412"/>
        <rect id="Rectangle_9896" data-name="Rectangle 9896" width="0.266" height="2.204" transform="translate(108.735 119.717)" fill="#ffa412"/>
        <rect id="Rectangle_9897" data-name="Rectangle 9897" width="0.266" height="2.204" transform="translate(107.835 119.717)" fill="#ffa412"/>
        <rect id="Rectangle_9898" data-name="Rectangle 9898" width="0.266" height="2.204" transform="translate(106.757 119.717)" fill="#ffa412"/>
        <rect id="Rectangle_9899" data-name="Rectangle 9899" width="0.266" height="2.204" transform="translate(105.104 119.717)" fill="#ffa412"/>
        <rect id="Rectangle_9900" data-name="Rectangle 9900" width="0.266" height="2.204" transform="translate(103.355 119.717)" fill="#ffa412"/>
        <rect id="Rectangle_9901" data-name="Rectangle 9901" width="0.266" height="2.204" transform="translate(100.675 119.717)" fill="#ffa412"/>
        <rect id="Rectangle_9902" data-name="Rectangle 9902" width="0.266" height="2.204" transform="translate(98.166 119.717)" fill="#ffa412"/>
        <rect id="Rectangle_9903" data-name="Rectangle 9903" width="0.266" height="2.204" transform="translate(95.925 119.717)" fill="#ffa412"/>
        <rect id="Rectangle_9904" data-name="Rectangle 9904" width="0.266" height="2.204" transform="translate(109.591 119.717)" fill="#ffa412"/>
        <rect id="Rectangle_9905" data-name="Rectangle 9905" width="0.266" height="2.204" transform="translate(110.156 119.717)" fill="#ffa412"/>
        <rect id="Rectangle_9906" data-name="Rectangle 9906" width="0.266" height="2.204" transform="translate(110.702 119.717)" fill="#ffa412"/>
        <path id="Path_21686" data-name="Path 21686" d="M1232.9,1312.047v2.189a.648.648,0,0,1-.1.008h-.166v-2.2h.166a.605.605,0,0,1,.1.008" transform="translate(-1121.517 -1192.321)" fill="#ffa412"/>
        <path id="Path_21687" data-name="Path 21687" d="M1236.992,1312.574v1.781a.563.563,0,0,1-.265.179V1312.4a.561.561,0,0,1,.265.179" transform="translate(-1125.244 -1192.645)" fill="#ffa412"/>
        <path id="Path_21688" data-name="Path 21688" d="M959.316,1288.346v1.244a.424.424,0,0,1-.1.268.56.56,0,0,1-.266.18.622.622,0,0,1-.1.024l-.033,0h0l-.022,0H935.373a.592.592,0,0,1-.481-.229.426.426,0,0,1-.084-.226c0-.009,0-.017,0-.025v-1.244c0-.009,0-.017,0-.025a.5.5,0,0,1,.4-.434.626.626,0,0,1,.164-.021H958.78l.015,0a.5.5,0,0,1,.055.006.587.587,0,0,1,.1.024.331.331,0,0,1,.048.019h0a.551.551,0,0,1,.164.1l0,0,.006.006a.509.509,0,0,1,.045.048.426.426,0,0,1,.1.268" transform="translate(-850.54 -1170.349)" fill="#ffb93e"/>
        <path id="Path_21689" data-name="Path 21689" d="M947.837,1290.069H935.313a.512.512,0,0,1-.422-.218.456.456,0,0,1-.083-.237c0-.009,0-.017,0-.025v-1.244c0-.009,0-.017,0-.025a.49.49,0,0,1,.4-.445.511.511,0,0,1,.1-.01H946.3c0,.017.01.034.015.051a3.855,3.855,0,0,0,1.518,2.15l.005,0" transform="translate(-850.541 -1170.348)" fill="#ffa412"/>
        <rect id="Rectangle_9907" data-name="Rectangle 9907" width="0.266" height="2.204" transform="translate(105.665 117.517)" fill="#ffa412"/>
        <rect id="Rectangle_9908" data-name="Rectangle 9908" width="0.266" height="2.204" transform="translate(104.766 117.517)" fill="#ffa412"/>
        <rect id="Rectangle_9909" data-name="Rectangle 9909" width="0.266" height="2.204" transform="translate(103.687 117.517)" fill="#ffa412"/>
        <rect id="Rectangle_9910" data-name="Rectangle 9910" width="0.266" height="2.204" transform="translate(102.034 117.517)" fill="#ffa412"/>
        <rect id="Rectangle_9911" data-name="Rectangle 9911" width="0.266" height="2.204" transform="translate(100.286 117.517)" fill="#ffa412"/>
        <rect id="Rectangle_9912" data-name="Rectangle 9912" width="0.266" height="2.204" transform="translate(97.606 117.517)" fill="#ffa412"/>
        <rect id="Rectangle_9913" data-name="Rectangle 9913" width="0.266" height="2.204" transform="translate(95.097 117.517)" fill="#ffa412"/>
        <rect id="Rectangle_9914" data-name="Rectangle 9914" width="0.266" height="2.204" transform="translate(92.856 117.517)" fill="#ffa412"/>
        <rect id="Rectangle_9915" data-name="Rectangle 9915" width="0.266" height="2.204" transform="translate(106.521 117.517)" fill="#ffa412"/>
        <rect id="Rectangle_9916" data-name="Rectangle 9916" width="0.266" height="2.204" transform="translate(107.087 117.517)" fill="#ffa412"/>
        <rect id="Rectangle_9917" data-name="Rectangle 9917" width="0.266" height="2.204" transform="translate(107.633 117.517)" fill="#ffa412"/>
        <path id="Path_21690" data-name="Path 21690" d="M1198.845,1287.874v2.189a.684.684,0,0,1-.1.007h-.166v-2.2h.166a.651.651,0,0,1,.1.008" transform="translate(-1090.536 -1170.35)" fill="#ffa412"/>
        <path id="Path_21691" data-name="Path 21691" d="M1202.943,1288.4v1.78a.563.563,0,0,1-.265.18v-2.14a.562.562,0,0,1,.265.18" transform="translate(-1094.264 -1170.673)" fill="#ffa412"/>
        <path id="Path_21692" data-name="Path 21692" d="M978.384,1264.7v1.245a.427.427,0,0,1-.1.268.564.564,0,0,1-.266.179.624.624,0,0,1-.1.025.637.637,0,0,1-.1.008H954.441a.64.64,0,0,1-.253-.051.49.49,0,0,1-.311-.385c0-.006,0-.013,0-.02s0-.016,0-.025V1264.7c0-.008,0-.016,0-.025a.523.523,0,0,1,.5-.451.633.633,0,0,1,.067,0h23.378a.668.668,0,0,1,.1.007.636.636,0,0,1,.1.025.566.566,0,0,1,.266.18.428.428,0,0,1,.1.268" transform="translate(-867.89 -1148.852)" fill="#ffb93e"/>
        <path id="Path_21693" data-name="Path 21693" d="M966.9,1266.42H954.38a.518.518,0,0,1-.225-.051.482.482,0,0,1-.277-.385c0-.006,0-.013,0-.02s0-.017,0-.025V1264.7c0-.008,0-.016,0-.025a.492.492,0,0,1,.445-.451.5.5,0,0,1,.06,0h10.986v0a3.87,3.87,0,0,0,1.465,2.15l.072.051" transform="translate(-867.89 -1148.852)" fill="#ffa412"/>
        <rect id="Rectangle_9918" data-name="Rectangle 9918" width="0.266" height="2.204" transform="translate(107.384 115.364)" fill="#ffa412"/>
        <rect id="Rectangle_9919" data-name="Rectangle 9919" width="0.266" height="2.204" transform="translate(106.485 115.364)" fill="#ffa412"/>
        <rect id="Rectangle_9920" data-name="Rectangle 9920" width="0.266" height="2.204" transform="translate(105.406 115.364)" fill="#ffa412"/>
        <rect id="Rectangle_9921" data-name="Rectangle 9921" width="0.266" height="2.204" transform="translate(103.753 115.364)" fill="#ffa412"/>
        <rect id="Rectangle_9922" data-name="Rectangle 9922" width="0.266" height="2.204" transform="translate(102.005 115.364)" fill="#ffa412"/>
        <rect id="Rectangle_9923" data-name="Rectangle 9923" width="0.266" height="2.204" transform="translate(99.325 115.364)" fill="#ffa412"/>
        <rect id="Rectangle_9924" data-name="Rectangle 9924" width="0.266" height="2.204" transform="translate(96.816 115.364)" fill="#ffa412"/>
        <rect id="Rectangle_9925" data-name="Rectangle 9925" width="0.266" height="2.204" transform="translate(94.575 115.364)" fill="#ffa412"/>
        <rect id="Rectangle_9926" data-name="Rectangle 9926" width="0.266" height="2.204" transform="translate(108.24 115.364)" fill="#ffa412"/>
        <rect id="Rectangle_9927" data-name="Rectangle 9927" width="0.266" height="2.204" transform="translate(108.806 115.364)" fill="#ffa412"/>
        <rect id="Rectangle_9928" data-name="Rectangle 9928" width="0.266" height="2.204" transform="translate(109.352 115.364)" fill="#ffa412"/>
        <path id="Path_21694" data-name="Path 21694" d="M1217.913,1264.222v2.189a.623.623,0,0,1-.1.008h-.166v-2.2h.166a.653.653,0,0,1,.1.007" transform="translate(-1107.885 -1148.851)" fill="#ffa412"/>
        <path id="Path_21695" data-name="Path 21695" d="M1222.009,1264.748v1.78a.559.559,0,0,1-.266.18v-2.14a.566.566,0,0,1,.266.18" transform="translate(-1111.612 -1149.173)" fill="#ffa412"/>
        <path id="Path_21696" data-name="Path 21696" d="M986.5,1240.522v1.245a.426.426,0,0,1-.1.268.56.56,0,0,1-.266.179.573.573,0,0,1-.1.025l-.033,0H962.557a.535.535,0,0,1-.565-.455c0-.008,0-.016,0-.024v-1.245c0-.008,0-.016,0-.025a.535.535,0,0,1,.565-.455h23.378a.666.666,0,0,1,.1.008.629.629,0,0,1,.1.025.564.564,0,0,1,.266.179.427.427,0,0,1,.1.268" transform="translate(-875.274 -1126.879)" fill="#ffb93e"/>
        <path id="Path_21697" data-name="Path 21697" d="M975.02,1242.246H962.5a.5.5,0,0,1-.5-.455c0-.008,0-.016,0-.024v-1.245c0-.008,0-.016,0-.025a.5.5,0,0,1,.5-.455h10.986a3.865,3.865,0,0,0,1.533,2.2l0,0" transform="translate(-875.274 -1126.879)" fill="#ffa412"/>
        <rect id="Rectangle_9929" data-name="Rectangle 9929" width="0.266" height="2.204" transform="translate(108.116 113.163)" fill="#ffa412"/>
        <rect id="Rectangle_9930" data-name="Rectangle 9930" width="0.266" height="2.204" transform="translate(107.216 113.163)" fill="#ffa412"/>
        <rect id="Rectangle_9931" data-name="Rectangle 9931" width="0.266" height="2.204" transform="translate(106.138 113.163)" fill="#ffa412"/>
        <rect id="Rectangle_9932" data-name="Rectangle 9932" width="0.266" height="2.204" transform="translate(104.485 113.163)" fill="#ffa412"/>
        <rect id="Rectangle_9933" data-name="Rectangle 9933" width="0.266" height="2.204" transform="translate(102.737 113.163)" fill="#ffa412"/>
        <rect id="Rectangle_9934" data-name="Rectangle 9934" width="0.266" height="2.204" transform="translate(100.057 113.163)" fill="#ffa412"/>
        <rect id="Rectangle_9935" data-name="Rectangle 9935" width="0.266" height="2.204" transform="translate(97.547 113.163)" fill="#ffa412"/>
        <rect id="Rectangle_9936" data-name="Rectangle 9936" width="0.266" height="2.204" transform="translate(95.307 113.163)" fill="#ffa412"/>
        <rect id="Rectangle_9937" data-name="Rectangle 9937" width="0.266" height="2.204" transform="translate(108.972 113.163)" fill="#ffa412"/>
        <rect id="Rectangle_9938" data-name="Rectangle 9938" width="0.266" height="2.204" transform="translate(109.537 113.163)" fill="#ffa412"/>
        <rect id="Rectangle_9939" data-name="Rectangle 9939" width="0.266" height="2.204" transform="translate(110.084 113.163)" fill="#ffa412"/>
        <path id="Path_21698" data-name="Path 21698" d="M1226.031,1240.049v2.189a.613.613,0,0,1-.1.008h-.166v-2.2h.166a.673.673,0,0,1,.1.008" transform="translate(-1115.271 -1126.878)" fill="#ffa412"/>
        <path id="Path_21699" data-name="Path 21699" d="M1230.126,1240.576v1.781a.565.565,0,0,1-.266.179V1240.4a.561.561,0,0,1,.266.179" transform="translate(-1118.997 -1127.202)" fill="#ffa412"/>
        <path id="Path_21700" data-name="Path 21700" d="M1093.453,1078.471s-1.228,1.746-2.354,1.77a8.166,8.166,0,0,1-2.839-.809s-1.034-2.326-.332-3.237a1.492,1.492,0,0,1,1.438.239,2.212,2.212,0,0,1,.381.368,1.208,1.208,0,0,0,.591.405c.8.246,1.757-.334,2.113.226a3.8,3.8,0,0,0,.621.743,2.841,2.841,0,0,0,.381.3" transform="translate(-989.637 -977.868)" fill="#ffeddc"/>
        <path id="Path_21701" data-name="Path 21701" d="M974.093,1132.338s4.34-10.62,12.152-10.823c0,0,7.211.809,7.612,10.823Z" transform="translate(-886.285 -1019.142)" fill="#ffeddc"/>
        <path id="Path_21702" data-name="Path 21702" d="M1085,1111.353s3.131.7,4.1.29c0,0,.146-1.322-1.173-1.137a2.747,2.747,0,0,1-1.836-.489c-.489-.252-1.219.783-1.089,1.336" transform="translate(-987.184 -1008.656)" fill="#db6a1d"/>
        <path id="Path_21703" data-name="Path 21703" d="M1107.16,1081.833c-.2.152-.815-2.138-.815-2.138a2.225,2.225,0,0,1,.38.368,1.208,1.208,0,0,0,.591.4c0,.067.038,1.218-.156,1.366" transform="translate(-1006.615 -981.129)" fill="#e5c1a1"/>
        <path id="Path_21704" data-name="Path 21704" d="M1130.194,1091.414a12.872,12.872,0,0,1-1.688.9c-.2,0,1.067-1.645,1.067-1.645a3.8,3.8,0,0,0,.621.742" transform="translate(-1026.759 -991.107)" fill="#e5c1a1"/>
        <path id="Path_21705" data-name="Path 21705" d="M1021.111,1160.669c-.08-.069,3.071-4.686,3.939-4.72s2.818,1.011,4.23,1.146,2.781-.269,3.048.573,1,3.831.551,4.31-10.035.186-11.768-1.309" transform="translate(-929.063 -1050.441)" fill="#f9ddbf"/>
        <g id="Group_21007" data-name="Group 21007" transform="translate(84.218 114.738)" opacity="0.5">
          <g id="Group_21006" data-name="Group 21006">
            <g id="Group_21005" data-name="Group 21005" clip-path="url(#clip-path-3)">
              <path id="Path_21706" data-name="Path 21706" d="M945.063,1268.868c0,.006,0,.011,0,.016a10.655,10.655,0,0,1-.35,2.185s0,0,0,0c-.028.1-.057.206-.089.309a10.85,10.85,0,0,1-.77,1.892,10.981,10.981,0,0,1-1.468,2.15l-.048.054a11.281,11.281,0,0,1-2.568,2.15q-.311.192-.638.365-.221.117-.445.223c-.142.083-.293.155-.435.243a6.028,6.028,0,0,1-1.485.617v-.969c0-.008,0-.016,0-.024a.463.463,0,0,1,0-.047.385.385,0,0,1,.014-.052.5.5,0,0,1,.486-.355h-2.5a.5.5,0,0,1-.485-.356.44.44,0,0,1-.014-.053c0-.016,0-.031-.005-.047s0-.016,0-.025V1275.9c0-.008,0-.017,0-.025s0-.031.005-.046a.406.406,0,0,1,.014-.053.5.5,0,0,1,.485-.356h.976a.485.485,0,0,1-.266-.348c0-.01,0-.021,0-.031a.189.189,0,0,1,0-.021c0-.008,0-.016,0-.024v-1.245c0-.008,0-.016,0-.024a.367.367,0,0,1,.005-.047.384.384,0,0,1,.013-.051.5.5,0,0,1,.485-.357h.56a.5.5,0,0,1-.486-.356.363.363,0,0,1-.014-.053c0-.015,0-.031-.005-.046v-1.294a.494.494,0,0,1,.445-.451h-1.659a.5.5,0,0,1-.5-.455c0-.008,0-.016,0-.025v-1.244c0-.008,0-.017,0-.025a.162.162,0,0,1,0-.02.49.49,0,0,1,.392-.423.5.5,0,0,1-.438-.41.4.4,0,0,1,0-.041c0-.009,0-.017,0-.025v-1.244c0-.009,0-.017,0-.025s0-.031.005-.047a.42.42,0,0,1,.014-.052.5.5,0,0,1,.485-.356h.976a.483.483,0,0,1-.266-.348c0-.01,0-.021,0-.031s0-.014,0-.021,0-.016,0-.026v-1.244c0-.008,0-.017,0-.025a.384.384,0,0,1,.005-.046.415.415,0,0,1,.013-.051.5.5,0,0,1,.485-.358h1.91a.5.5,0,0,1-.486-.357.4.4,0,0,1-.013-.051.346.346,0,0,1-.005-.047c0-.008,0-.016,0-.024v-1.245c0-.008,0-.016,0-.024a.492.492,0,0,1,.444-.451h-3.009a.512.512,0,0,1-.422-.218v-.011l.317-1.955v-.011l.451-2.788a12,12,0,0,1,1.549.315l.089.024.006,0q.444.125.876.284l.008,0a11.545,11.545,0,0,1,3.63,2.15c.019.016.038.033.056.051a11.011,11.011,0,0,1,1.522,1.656c.091.121.18.244.265.369.029.042.057.083.084.125a0,0,0,0,1,0,0q.207.309.393.634a10.888,10.888,0,0,1,.74,1.566,10.55,10.55,0,0,1,.567,2.15c0,.018.006.036.009.055a10.62,10.62,0,0,1,.1,2.134" transform="translate(-934.265 -1257.347)" fill="#e2810e"/>
            </g>
          </g>
        </g>
        <path id="Path_21707" data-name="Path 21707" d="M771.724,1261.041a11.673,11.673,0,0,1,4.519-15.776,11.44,11.44,0,0,1,15.621,4.564,11.673,11.673,0,0,1-4.519,15.776,11.441,11.441,0,0,1-15.621-4.564" transform="translate(-700.856 -1130.313)" fill="#e2810e"/>
        <path id="Path_21708" data-name="Path 21708" d="M778.03,1270.724q-.212.131-.432.253l-.149.081q-.17.092-.341.177a11.443,11.443,0,0,1-15.132-4.822,11.687,11.687,0,0,1,3.346-15.027,11.517,11.517,0,0,1,1.173-.749q.221-.123.445-.235t.438-.208a11.391,11.391,0,0,1,3.451-.937,11.474,11.474,0,0,1,11.287,5.944,11.678,11.678,0,0,1-4.087,15.523" transform="translate(-691.988 -1135.196)" fill="#ffb93e"/>
        <path id="Path_21709" data-name="Path 21709" d="M784.833,1284.633a10.3,10.3,0,0,1-9.038-5.387,10.427,10.427,0,0,1-.874-7.915,10.273,10.273,0,0,1,18.92-2.132,10.471,10.471,0,0,1-4.049,14.136,10.17,10.17,0,0,1-4.959,1.3M784.8,1264.1a9.885,9.885,0,0,0-4.823,1.256,10.04,10.04,0,0,0-4.791,6.053,10.147,10.147,0,0,0,.851,7.7,9.98,9.98,0,0,0,5.994,4.838,9.873,9.873,0,0,0,7.626-.859,10.189,10.189,0,0,0,3.94-13.755,10.017,10.017,0,0,0-8.8-5.235" transform="translate(-704.694 -1148.492)" fill="#ffa412"/>
        <path id="Path_21711" data-name="Path 21711" d="M465.9,891.505s-.195-1.954.817-1.887,1.28.536,1.167.911a10.671,10.671,0,0,1-1.1,1.618Z" transform="translate(-423.887 -808.355)" fill="#ffb27d"/>
        <path id="Path_21712" data-name="Path 21712" d="M291.124,911.194a16.563,16.563,0,0,0,3.529,2.864c.228.146.467.292.719.44a26.615,26.615,0,0,0,3.3,1.64c.139.058.3.122.488.188a23.579,23.579,0,0,0,5.746,1.34c.143.006.279.006.405,0,2.505-.1,2.811-9.923,2.811-9.923a1.231,1.231,0,0,0-1.566-.735s-1.955,5.546-2.655,6c-.622.4-4.2-5.074-7.278-5.457-2.072-.258-5.5,3.643-5.5,3.643" transform="translate(-264.881 -824.128)" fill="#739af0"/>
        <path id="Path_21713" data-name="Path 21713" d="M365.416,1470.386s-.185,2.162.268,2.387l5.791-.012s0-.675-.93-.825-2.564-.7-2.841-1.925-2.288.375-2.288.375" transform="translate(-332.442 -1335.492)" fill="#132642"/>
        <path id="Path_21714" data-name="Path 21714" d="M338.643,1124.414c-.029,1.414-.1,2.872-.228,4.182-.625,6.219-.845,13.731-.935,15.18-.156,2.515-.648,6.532-.648,6.532a3.157,3.157,0,0,1-2.877.489,65.984,65.984,0,0,1-1.928-11.878c-.005-.1-.011-.2-.016-.3-.041-.805-.083-1.726-.127-2.719-.29-6.652-.6-16.533-.6-16.533l7.267-1.723s.167,3.248.1,6.772" transform="translate(-301.417 -1015.622)" fill="#2a4e96"/>
        <path id="Path_21715" data-name="Path 21715" d="M338.643,1124.414c-1.842,3.209-5.352,9.121-6.758,11.484-.29-6.652-.6-16.533-.6-16.533l7.267-1.723s.167,3.248.1,6.772" transform="translate(-301.417 -1015.622)" fill="#233862"/>
        <path id="Path_21716" data-name="Path 21716" d="M377.777,985.292a23.586,23.586,0,0,0,5.746,1.34,5.635,5.635,0,0,1-2.763-1.241c-.728-.889-1.954-3.3-2.929-2.317-.459.464-.324,1.38-.055,2.218" transform="translate(-343.499 -893.094)" fill="#6385db"/>
        <path id="Path_21717" data-name="Path 21717" d="M240.921,1179.455a11.491,11.491,0,0,0-.377,2.183,7.861,7.861,0,0,0,.789,2.075c.275.333.286-1.45.468-1.73s.084.666.23.743.39-.717.5-1-.39-1.261-.436-1.964-1.173-.31-1.173-.31" transform="translate(-218.853 -1071.708)" fill="#ffb27d"/>
        <path id="Path_21718" data-name="Path 21718" d="M197.125,1447.259s-1.031.95-.83,1.625,1.131,1.125,1.257,1.95.628,1.275,1.081,1.275h2.157s.333-.58-.471-.755-1.108-1.144-1.057-2.044a16.009,16.009,0,0,0-.075-2.1l-1.709-.4Z" transform="translate(-178.577 -1314.822)" fill="#132642"/>
        <path id="Path_21719" data-name="Path 21719" d="M223.2,1115.925s-6.8,14.7-10.423,21.149-4.751,8.25-4.751,8.25-2.074-.825-2.263-1.387c0,0,1.384-12.452,3.809-15.487,1.37-1.715,2.979-6.862,3.054-8.662a31.794,31.794,0,0,1,1.665-6.1Z" transform="translate(-187.213 -1012.031)" fill="#2a4e96"/>
        <path id="Path_21720" data-name="Path 21720" d="M273.221,929.029a11.761,11.761,0,0,1-5.979,3.135c-1.652.319-5,.628-5.837-.56a2.143,2.143,0,0,1-.154-1.336c.112-1.676.529-4.915-1.355-11.424a11.213,11.213,0,0,1-.362-1.74c-.411-3.33-.366-5.844,2.494-7.187,4.287-2.012,6.046-.357,6.046-.357a7.23,7.23,0,0,1,3.322,4.212c2.083,6.272,1.824,15.258,1.824,15.258" transform="translate(-235.969 -825.9)" fill="#739af0"/>
        <path id="Path_21721" data-name="Path 21721" d="M316.755,870.592a3.156,3.156,0,0,0,3.2.212,3.737,3.737,0,0,0,.058-1.329c-.023-.623-.081-1.235-.081-1.235l-1.525-1.011-1.456-.964c.175,3.316-.524,4.092-.2,4.327" transform="translate(-288.122 -787.13)" fill="#ffb27d"/>
        <path id="Path_21722" data-name="Path 21722" d="M322.681,877.263a4.689,4.689,0,0,0,2.806,1.841c-.023-.623-.089-1.31-.089-1.31l-1.518-.936Z" transform="translate(-293.593 -796.758)" fill="#ed985f"/>
        <path id="Path_21723" data-name="Path 21723" d="M312.917,823.4s-3.69,1.391-4.511-.906-1.85-3.663.471-4.648,3.095-.274,3.557.424,1.422,4.708.484,5.129" transform="translate(-279.739 -742.675)" fill="#ffb27d"/>
        <path id="Path_21724" data-name="Path 21724" d="M289.4,802.993c-.043-.033-.129-.049-.308-.024a.733.733,0,0,1,.314-.161.923.923,0,0,1,.438-.917.551.551,0,0,0-.182.44c.393-.609,1.375-1.191,4.344-1.542,3.912-.461,3.13,2.282,2.689,2.679s-1.855-.167-2.769.093-.826,1.651-1.1,1.9-.219-.1-.684-.214-.366.612-.152,1.052-.252,1.168-.252,1.168l-.718-.526a6.862,6.862,0,0,1-1.654-3.778c.014-.056.027-.113.041-.17" transform="translate(-263.033 -727.567)" fill="#2c3a64"/>
        <path id="Path_21725" data-name="Path 21725" d="M263.139,1010.782c.112-1.675.529-4.915-1.355-11.424a11.207,11.207,0,0,1-.362-1.74h0c1.4-.466,3.95.571,3.95.571s.6,8.6-2.234,12.594" transform="translate(-237.857 -906.415)" fill="#6385db"/>
        <path id="Path_21726" data-name="Path 21726" d="M229.622,924.654s-1.722.633-2.821,5.238c-.726,3.043-2.062,7.516-2.213,8.922s1.528,9.635,1.528,9.635a1.083,1.083,0,0,0,.817.057,1.348,1.348,0,0,0,.813-.491s.4-5.485.3-8.075c-.043-1.076,4.932-7.88,7.617-8.756,1.054-.344-6.039-6.53-6.039-6.53" transform="translate(-204.334 -840.203)" fill="#739af0"/>
        <path id="Path_21727" data-name="Path 21727" d="M426.866,776.536a56.75,56.75,0,0,0-10.724.925l-.6-1.528-.658-1.674s5.768-2.508,9.235-6Z" transform="translate(-377.485 -698.047)" fill="#ffb93e"/>
        <path id="Path_21728" data-name="Path 21728" d="M516.452,766.834l2.858,8.521a.77.77,0,0,0,.5-.993L517.3,767.2a.625.625,0,0,0-.843-.368" transform="translate(-469.897 -696.701)" fill="#f0920f"/>
        <path id="Path_21729" data-name="Path 21729" d="M463.811,858.6h0a1.034,1.034,0,0,1-1.213-.817l-.984-4.973a1.031,1.031,0,1,1,2.021-.408l.984,4.973a1.043,1.043,0,0,1-.808,1.224" transform="translate(-419.984 -773.766)" fill="#e2810e"/>
        <path id="Path_21730" data-name="Path 21730" d="M433.509,849.4a56.743,56.743,0,0,0-10.724.925l-.6-1.527a27.179,27.179,0,0,1,11.324.6" transform="translate(-384.128 -770.91)" fill="#f0920f"/>
        <path id="Path_21731" data-name="Path 21731" d="M409.46,828.391l-1.556.276a1.71,1.71,0,0,1-1.927-1.026,1.078,1.078,0,0,1-.092-.284c-.374-1.639.517-1.941.517-1.941l2-.788.636,2.273v.008Z" transform="translate(-369.214 -749.284)" fill="#f0920f"/>
        <path id="Path_21732" data-name="Path 21732" d="M411.317,851.09l-1.556.276a1.71,1.71,0,0,1-1.927-1.026,7.478,7.478,0,0,1,3.063-.739v.008Z" transform="translate(-371.071 -771.983)" fill="#e2810e"/>
        <path id="Path_21733" data-name="Path 21733" d="M478.264,875.5s-.761.306-.622.645,1.107.8,1.26.537-.16-1.467-.638-1.182" transform="translate(-434.571 -795.482)" fill="#ffb27d"/>
        <path id="Path_21734" data-name="Path 21734" d="M464.161,888.862a10.9,10.9,0,0,1-.153-1.147c-.009-.361-.051-.656.033-.667s.145.056.18.172.166.837.166.837l-.066.7Z" transform="translate(-422.164 -806.02)" fill="#ffb27d"/>
        <g id="Component_243_1" data-name="Component 243 – 1" transform="translate(108.176 0.273)">
          <path id="Path_21738" data-name="Path 21738" d="M1283.81,12.431a12.311,12.311,0,1,1,12.311,12.433,12.372,12.372,0,0,1-12.311-12.433" transform="translate(-1283.81 0.002)" fill="#739af0"/>
          <path id="Path_21739" data-name="Path 21739" d="M1367.022,38.035a3.951,3.951,0,1,1,3.951,3.99,3.971,3.971,0,0,1-3.951-3.99" transform="translate(-1358.661 -30.591)" fill="#ebf3ff"/>
          <path id="Path_21740" data-name="Path 21740" d="M1344.438,112.708a6.949,6.949,0,0,0-6.915,6.983h13.829a6.949,6.949,0,0,0-6.915-6.983" transform="translate(-1332.127 -101.273)" fill="#ebf3ff"/>
        </g>
        <g id="Component_243_3" data-name="Component 243 – 3" transform="translate(134.018 20.762) rotate(20)">
          <path id="Path_21738-2" data-name="Path 21738" d="M1283.81,7.1a7.028,7.028,0,1,1,7.028,7.1,7.063,7.063,0,0,1-7.028-7.1" transform="translate(-1283.81 0.002)" fill="#739af0"/>
          <path id="Path_21739-2" data-name="Path 21739" d="M1367.022,36.323a2.256,2.256,0,1,1,2.256,2.278,2.267,2.267,0,0,1-2.256-2.278" transform="translate(-1362.249 -32.073)" fill="#ebf3ff"/>
          <path id="Path_21740-2" data-name="Path 21740" d="M1341.47,112.708a3.967,3.967,0,0,0-3.947,3.987h7.895a3.967,3.967,0,0,0-3.948-3.987" transform="translate(-1334.442 -106.18)" fill="#ebf3ff"/>
        </g>
        <g id="Component_243_4" data-name="Component 243 – 4" transform="translate(87.928 26.409) rotate(-20)">
          <path id="Path_21738-3" data-name="Path 21738" d="M1283.81,9.009a8.923,8.923,0,1,1,8.922,9.011,8.967,8.967,0,0,1-8.922-9.011" transform="translate(-1283.81 0.002)" fill="#739af0"/>
          <path id="Path_21739-3" data-name="Path 21739" d="M1367.022,36.937a2.864,2.864,0,1,1,2.864,2.892,2.878,2.878,0,0,1-2.864-2.892" transform="translate(-1360.962 -31.541)" fill="#ebf3ff"/>
          <path id="Path_21740-3" data-name="Path 21740" d="M1342.534,112.708a5.036,5.036,0,0,0-5.011,5.061h10.023a5.037,5.037,0,0,0-5.012-5.061" transform="translate(-1333.612 -104.42)" fill="#ebf3ff"/>
        </g>
        <g id="Component_243_2" data-name="Component 243 – 2" transform="translate(111.995 31.173)">
          <path id="Path_21738-4" data-name="Path 21738" d="M1283.81,7.119a7.051,7.051,0,1,1,7.051,7.121,7.086,7.086,0,0,1-7.051-7.121" transform="translate(-1283.81 0.002)" fill="#739af0"/>
          <path id="Path_21739-4" data-name="Path 21739" d="M1367.022,36.33a2.263,2.263,0,1,1,2.263,2.285,2.274,2.274,0,0,1-2.263-2.285" transform="translate(-1362.233 -32.066)" fill="#ebf3ff"/>
          <path id="Path_21740-4" data-name="Path 21740" d="M1341.483,112.708a3.98,3.98,0,0,0-3.96,4h7.921a3.98,3.98,0,0,0-3.96-4" transform="translate(-1334.432 -106.159)" fill="#ebf3ff"/>
        </g>
        <path id="Path_21744" data-name="Path 21744" d="M1776.983,1286.282q.2.123.405.238l.14.076c.106.057.213.112.32.166a10.742,10.742,0,0,0,14.2-4.526,10.972,10.972,0,0,0-3.141-14.107,10.732,10.732,0,0,0-1.1-.7q-.207-.116-.418-.221c-.136-.068-.274-.134-.411-.2a10.7,10.7,0,0,0-3.24-.88,10.771,10.771,0,0,0-10.595,5.58,10.962,10.962,0,0,0,3.837,14.572" transform="translate(-1612.087 -1150.537)" fill="#ffb93e"/>
        <path id="Path_21745" data-name="Path 21745" d="M1787.129,1296.831a9.972,9.972,0,0,1-3.856-13.462,9.773,9.773,0,0,1,13.33-3.894,9.972,9.972,0,0,1,3.856,13.462,9.8,9.8,0,0,1-8.61,5.124,9.673,9.673,0,0,1-4.72-1.23m-3.382-13.2a9.422,9.422,0,0,0,3.644,12.719,9.234,9.234,0,0,0,12.594-3.679,9.422,9.422,0,0,0-3.644-12.719,9.138,9.138,0,0,0-4.46-1.162,9.264,9.264,0,0,0-8.135,4.841" transform="translate(-1621.414 -1161.604)" fill="#ffa412"/>
        <path id="Path_21747" data-name="Path 21747" d="M1952.667,963.91a20.086,20.086,0,0,1,3.023,1.492c1.364,1.528.975,3.522.194,3.541-.5.012-.4.852-.4.852l-5.576-2.382s.671-3.954,2.762-3.5" transform="translate(-1774.134 -875.853)" fill="#2c3a64"/>
        <path id="Path_21748" data-name="Path 21748" d="M1972.89,945.75a2.011,2.011,0,0,1,2.228-2.193,2.839,2.839,0,0,0-1.116.6,2.847,2.847,0,0,1,3.232.492c1.684,1.41.637,4.947,1.15,5.618s2.507.806,2.263,2.977-6.331,4.891-5.94,6.687c0,0-2.385-3.541-.68-5.157a3.2,3.2,0,0,0-.916,1.731s-.226-1.836.931-2.422a4.319,4.319,0,0,0,1.773-2.759c-.089-.34-2.926-5.578-2.926-5.578" transform="translate(-1795.043 -857.385)" fill="#2c3a64"/>
        <path id="Path_21749" data-name="Path 21749" d="M1935.954,1063.558a2.148,2.148,0,0,1,3.816-.9,1.98,1.98,0,0,1,.385.956c.252,2.066-3.019,10.48-3.487,11.242-.853,1.387-5.874,6.142-5.874,6.142l-.926-.567s3.562-6.089,4.113-6.659c.638-.659,1.262-6.761,1.972-10.217" transform="translate(-1755.904 -964.873)" fill="#ed985f"/>
        <path id="Path_21750" data-name="Path 21750" d="M1904.965,1258.024s-1.35-.9-1.862-.838-1.991.488-2.009.707,1.649.357,1.761.477,1.244.883,1.654.644.456-.99.456-.99" transform="translate(-1729.723 -1142.46)" fill="#ed985f"/>
        <path id="Path_21751" data-name="Path 21751" d="M2048.553,1181.625l1.207-.179a14.438,14.438,0,0,0,4.661-9.331,10.95,10.95,0,0,0,.029-1.878.327.327,0,0,1,.043-.208v0c.13-.2.454-.7.891-1.421s1.169-2.04,1.981-3.536c1.463-2.7,3.166-5.921,3.75-6.947,1.861-3.273.964-5.474.964-5.474s-5.193-.518-6.616-1.775l-.512.8s-1.125,5.03-1.072,5.054l-.169.522a88.335,88.335,0,0,0-2.466,9.044,15.094,15.094,0,0,0-.389,3.908,6.935,6.935,0,0,1-.092,1.431c-.5,3.61-2.21,10-2.21,10" transform="translate(-1863.889 -1045.827)" fill="#2b478b"/>
        <path id="Path_21752" data-name="Path 21752" d="M2020.476,1477.364h5.034a2.812,2.812,0,0,0-.142-1.363c-.252-.564-.611-.582-.046-1.466a3.039,3.039,0,0,1-2.076.372,6.226,6.226,0,0,1-.873,1.342c-.329.239-1.8.154-1.9,1.116" transform="translate(-1838.344 -1340.024)" fill="#1a2d4c"/>
        <path id="Path_21753" data-name="Path 21753" d="M2105.769,1157.247c.44,2.449,1.479,6.526,3.655,7.823,1.462-2.7,3.166-5.921,3.75-6.947,1.861-3.273.964-5.474.964-5.474s-5.193-.518-6.616-1.775l-.512.8s-1.125,5.03-1.072,5.054l-.169.522" transform="translate(-1915.948 -1045.827)" fill="#233862"/>
        <path id="Path_21754" data-name="Path 21754" d="M1992.885,1068.613a5.436,5.436,0,0,0-1.037,1.643s1.135,3.293,3.788,3.706c0,0-2.1-5.35-2.752-5.349" transform="translate(-1812.297 -971.056)" fill="#ed7d2b"/>
        <path id="Path_21755" data-name="Path 21755" d="M2144.762,1142.432l-.017-.951c1.876.239,6.468-2.264,6.468-2.264s1.962,1.318,2.231,5.083c.132,1.837.961,9.608,1.053,11.929.033.841.044,1.441.048,1.681v0a.332.332,0,0,0,.08.2,10.874,10.874,0,0,1,1.017,1.573c2.862,5.378,1.365,12.687,1.365,12.687l-.665-.171s-2.42-7.576-4-10.853a6.848,6.848,0,0,0-.716-1.238,14.988,14.988,0,0,1-1.84-3.46,91.011,91.011,0,0,1-3.112-9.419c-.057.01-1.909-4.8-1.909-4.8" transform="translate(-1951.411 -1035.234)" fill="#2b478b"/>
        <path id="Path_21756" data-name="Path 21756" d="M1990.26,1031.95c3.066-.711,1.107-5.063.93-4.986a4.842,4.842,0,0,1-2.193-2.312l-.113.1-1.883,1.668s.436.649.8,1.284a2.921,2.921,0,0,1,.49,1.156c-.152.12,1.149,3.282,1.967,3.093" transform="translate(-1807.886 -931.096)" fill="#ffb27d"/>
        <path id="Path_21757" data-name="Path 21757" d="M1987,1027.41s.436.648.8,1.284a2.961,2.961,0,0,0,1.082-2.952Z" transform="translate(-1807.886 -932.089)" fill="#ed985f"/>
        <path id="Path_21758" data-name="Path 21758" d="M1955.429,994.3s2.843-1.6,1.831-3.37-1.327-3.173-3.186-2.228-1.821,1.825-1.626,2.5,2.215,3.469,2.981,3.1" transform="translate(-1776.366 -898.141)" fill="#ffb27d"/>
        <path id="Path_21759" data-name="Path 21759" d="M1947.835,987.767c.13-.787.526-.862.8-.81a2.262,2.262,0,0,1,2.766-1.069,3.861,3.861,0,0,0,2.241,1.359,2.691,2.691,0,0,1-1.689,1,2.3,2.3,0,0,1-1.341-.109,7.527,7.527,0,0,0,1.929.735c-1.792.166-3.5-1.489-3.673-1.665a2.6,2.6,0,0,0-.14,1.185c.118.533.586,1.5.3,1.624,0,0-1.39-1.074-1.195-2.254" transform="translate(-1772.234 -895.743)" fill="#2c3a64"/>
        <path id="Path_21760" data-name="Path 21760" d="M2236.356,1477h5.034a2.819,2.819,0,0,0-.143-1.363c-.252-.564-.646-.82-.552-1.5a1.8,1.8,0,0,1-1.569.606,5.563,5.563,0,0,1-.874,1.143c-.329.239-1.8.154-1.9,1.116" transform="translate(-2034.763 -1339.657)" fill="#1a2d4c"/>
        <path id="Path_21761" data-name="Path 21761" d="M2002.437,1050.1a12.143,12.143,0,0,0,2.487.455,16.634,16.634,0,0,1,3.406.534.77.77,0,0,1,.49.4,9.427,9.427,0,0,0,1.678,2.4c8.765-.4,9.728-4.106,9.728-4.106-5.9-6.926-15.883-8.93-15.883-8.93s-.713-.306-2.509,1.136c-1.2.963-1.041,1.332-1.041,1.332s-.261,6.109,1.644,6.781" transform="translate(-1820.424 -945.798)" fill="#f99746"/>
        <path id="Path_21762" data-name="Path 21762" d="M2046.743,1075.814a16.625,16.625,0,0,1,3.406.534,14.2,14.2,0,0,0-1.771-7.736s-1.346,5.531-1.636,7.2" transform="translate(-1862.242 -971.056)" fill="#ed7d2b"/>
        <path id="Path_21763" data-name="Path 21763" d="M1958.392,1059.229s3.318.331,3.584,2.508-3.181,11.044-3.674,11.847c-.9,1.461-6.19,6.472-6.19,6.472l-.975-.6s3.753-6.417,4.334-7.017c.912-.943,1.8-12.459,2.921-13.213" transform="translate(-1775.255 -962.527)" fill="#ffb27d"/>
        <path id="Path_21764" data-name="Path 21764" d="M2019.29,1057.836c-.009.05-3.062,1.007-5.026,0,0,0-.421-4.578,1.925-4.33s3.734.995,3.794,2.129a4.032,4.032,0,0,1-.693,2.2" transform="translate(-1832.665 -957.316)" fill="#f99746"/>
        <path id="Path_21765" data-name="Path 21765" d="M1926.936,1269.707s-1.19-1.1-1.7-1.13-2.043.157-2.1.371,1.57.62,1.661.757,1.087,1.074,1.53.9.608-.9.608-.9" transform="translate(-1749.777 -1152.814)" fill="#ffb27d"/>
        <path id="Path_21766" data-name="Path 21766" d="M672.468,755.325h0a1.022,1.022,0,0,0,.929-.652l23.883-74.1a.486.486,0,0,0-.506-.661,1.021,1.021,0,0,0-.93.652l-23.883,74.1a.486.486,0,0,0,.506.661" transform="translate(-611.361 -617.739)" fill="#233862"/>
        <path id="Path_21767" data-name="Path 21767" d="M458.936,754.079h0a1.022,1.022,0,0,0,.929-.652l23.883-74.1a.486.486,0,0,0-.506-.661,1.021,1.021,0,0,0-.929.652l-23.883,74.1a.486.486,0,0,0,.506.661" transform="translate(-417.077 -616.606)" fill="#233862"/>
        <path id="Path_21768" data-name="Path 21768" d="M689.157,786.964l19.329.114a.968.968,0,0,0,.877-.616.46.46,0,0,0-.478-.624l-19.329-.114a.968.968,0,0,0-.877.616.46.46,0,0,0,.478.624" transform="translate(-626.573 -713.922)" fill="#233862"/>
        <path id="Path_21769" data-name="Path 21769" d="M642.9,929.083l19.329.114a.968.968,0,0,0,.877-.616.459.459,0,0,0-.478-.624l-19.329-.114a.968.968,0,0,0-.878.616.46.46,0,0,0,.478.624" transform="translate(-584.484 -843.102)" fill="#233862"/>
        <path id="Path_21770" data-name="Path 21770" d="M598.346,1065.96l19.329.114a.969.969,0,0,0,.877-.616.46.46,0,0,0-.478-.624l-19.329-.114a.968.968,0,0,0-.877.616.46.46,0,0,0,.478.624" transform="translate(-543.948 -967.518)" fill="#233862"/>
        <path id="Path_21771" data-name="Path 21771" d="M548.188,1220.055l19.329.114a.967.967,0,0,0,.877-.616.46.46,0,0,0-.478-.624l-19.329-.114a.968.968,0,0,0-.878.616.46.46,0,0,0,.478.624" transform="translate(-498.312 -1107.585)" fill="#233862"/>
        <path id="Path_21772" data-name="Path 21772" d="M495.691,1381.341l19.329.114a.967.967,0,0,0,.877-.616.46.46,0,0,0-.478-.624l-19.329-.114a.968.968,0,0,0-.877.616.46.46,0,0,0,.478.624" transform="translate(-450.547 -1254.188)" fill="#233862"/>
        <path id="Path_21773" data-name="Path 21773" d="M223.425,1504.63H.264a.266.266,0,0,1-.264-.267v-.117a.266.266,0,0,1,.264-.267H223.425a.266.266,0,0,1,.264.267v.117a.266.266,0,0,1-.264.267" transform="translate(0 -1366.788)" fill="#233862"/>
        <path id="Path_21777" data-name="Path 21777" d="M683.891,523.1a10.232,10.232,0,0,0-.449,1.561c-.052.351.062,1.229-.422,1.328-.518.106-.761-1.567-.7-1.844.063-.3.25-1.356.586-1.431s.987.386.987.386" transform="translate(-620.804 -474.851)" fill="#ffb27d"/>
        <path id="Path_21778" data-name="Path 21778" d="M694.6,528.32a5.818,5.818,0,0,1,.2.963c0,.261.154,1.029,0,1.077-.2.062-.55-.878-.55-.878Z" transform="translate(-631.674 -479.95)" fill="#ffb27d"/>
        <path id="Path_21779" data-name="Path 21779" d="M1008.862,432.136c-.546.344-.388.138-1.147.638a2.218,2.218,0,0,1-2.246.277l-.339-.057-.407-.069-.093-1.239s.249-.03.561-.076c.094-.014.2-.03.3-.047.194-.139.534-.471.786-.615l.081.35a3.626,3.626,0,0,1,2.1-.069.8.8,0,0,1,.526.35.358.358,0,0,1-.123.558" transform="translate(-914.07 -391.442)" fill="#ffb27d"/>
        <path id="Path_21780" data-name="Path 21780" d="M797.378,284.008s1.758,2.106,4,1.225a6.9,6.9,0,0,0,.489-2.043c0-.107,0-.21,0-.309.012-.976.045-1.524.045-1.524h0c-.1-.043-3.422-1.42-3.419-1.305a5.984,5.984,0,0,1-1.112,3.957" transform="translate(-725.5 -254.277)" fill="#ffb27d"/>
        <path id="Path_21781" data-name="Path 21781" d="M813.385,286.79a5.2,5.2,0,0,0,3.044,2.2c.012-.976.045-1.524.045-1.524h0a21.143,21.143,0,0,0-3.086-.676" transform="translate(-740.062 -260.386)" fill="#ed975d"/>
        <path id="Path_21782" data-name="Path 21782" d="M806.821,231.292s-3.734.887-4.245-1.47-1.337-3.83,1.025-4.5,3.022.131,3.382.876.8,4.8-.163,5.09" transform="translate(-729.714 -204.313)" fill="#ffb27d"/>
        <path id="Path_21783" data-name="Path 21783" d="M783.5,212.013c-.051.033-.854.282-2.376-2.779a2.689,2.689,0,0,1,.155-2.439c.557-.919,2.531-1.641,4.171-1.955s2.034.618,2.42,1.555a5.039,5.039,0,0,0,1.577,1.793c-1.414.8-3.118-.343-3.708-.156s-.8,1.127-.843,1.428-.112.551-.854.282-.336,1.062-.217,1.317c0,0,.1.678-.325.953" transform="translate(-710.507 -185.862)" fill="#a9453d"/>
        <path id="Path_21784" data-name="Path 21784" d="M654.406,871.821h-2.261c-.474,0-1-.479-1.133-1.357s-1.106-1.357-1.317-2.075.87-1.729.87-1.729l.181-.234.188-.244,1.791.425s.044.431.072.979c.019.4.03.854.007,1.256-.053.958.266,1.989,1.108,2.176s.494.8.494.8" transform="translate(-591.105 -787.053)" fill="#a9453d"/>
        <path id="Path_21785" data-name="Path 21785" d="M810.3,895.934h-4.947a.541.541,0,0,1-.127-.037c-.4-.2-.275-1.75-.227-2.228.009-.088.016-.14.016-.14s2.107-1.7,2.4-.4c.009.041.02.08.031.12h0c.366,1.22,2.023,1.241,2.967,1.4.023,0,.045.008.066.013a.65.65,0,0,1-.177,1.275" transform="translate(-732.384 -811.102)" fill="#a9453d"/>
        <path id="Path_21786" data-name="Path 21786" d="M773.948,540.895s-.32,4.033-.7,8.881c-.511,6.585-1.126,14.674-1.187,16.207-.105,2.661-.527,6.917-.527,6.917a3.291,3.291,0,0,1-3,.585,70.256,70.256,0,0,1-2.294-12.5l-.024-.318c-.474-6.545-1.211-20.325-1.211-20.325Z" transform="translate(-696.045 -490.872)" fill="#f99746"/>
        <path id="Path_21787" data-name="Path 21787" d="M773.948,540.895s-.32,4.033-.7,8.881l-7.011,11.2-.024-.318c-.474-6.545-1.211-20.325-1.211-20.325Z" transform="translate(-696.045 -490.872)" fill="#ed7d2b"/>
        <path id="Path_21788" data-name="Path 21788" d="M677.3,525.436s-5.769,14.605-9.562,21.469-4.979,8.779-4.979,8.779-2.173-.878-2.371-1.476c0,0,1.45-13.251,3.991-16.481,1.435-1.825,3.122-7.3,3.2-9.218s.514-5.707.514-5.707Z" transform="translate(-600.856 -474.934)" fill="#f99746"/>
        <path id="Path_21789" data-name="Path 21789" d="M686.582,344.714c.639.207.741.16.741.16s3.108-5.715,3.423-6.238,6.6-6.408,6.6-6.408l-1.615-6.081s-7.147,9.347-7.919,10.688c-1.275,2.216-2.023,7.364-2.023,7.364a1.871,1.871,0,0,0,.794.515" transform="translate(-623.969 -296.182)" fill="#2c3a64"/>
        <path id="Path_21790" data-name="Path 21790" d="M753.053,321.039c-.023,1.249-.094,2.653-.191,4.079q-.009.127-.018.254c-.062.883-.129,1.769-.206,2.632q-.046.519-.1,1.025l-.005.045c0,.126-.018.263-.032.387-.315,3.234-.645,5.789-.707,5.828a.357.357,0,0,1-.246.063,36.233,36.233,0,0,1-5.4-.365,15.475,15.475,0,0,1-4.8-2.01c-.21-.125-.687-.457-.649-.7.038-.272.109-.666.2-1.161a63.41,63.41,0,0,0,1.032-8.142q.053-.968.155-1.909a29.247,29.247,0,0,1,.836-4.558c.7-2.558,1.737-4.516,3.034-5.282.169-.1,1.081.49,1.918,1.032a3.668,3.668,0,0,0,2.379.569l.7.778a7.891,7.891,0,0,1,1.988,4.184c.018.139.034.286.047.442a27.8,27.8,0,0,1,.065,2.813" transform="translate(-673.932 -282.605)" fill="#2b478b"/>
        <path id="Path_21791" data-name="Path 21791" d="M819.737,376.757c-.023,1.249-.094,2.653-.191,4.079q-.009.127-.018.254a13.071,13.071,0,0,1-5.536-8.581,13.017,13.017,0,0,1,5.679,1.436,27.778,27.778,0,0,1,.065,2.813" transform="translate(-740.616 -338.323)" fill="#2c3a64"/>
        <path id="Path_21792" data-name="Path 21792" d="M810.938,346.2c.05-.719-.319-.838-.319-.838s-7.233-1.324-7.848-1.519-5.872-5.719-5.872-5.719-2.015-2.3-3.665-1.788a3.125,3.125,0,0,0-2.185,2.646,3.181,3.181,0,0,0,1.457,3.254c2.468,1.529,7.409,4.541,8.573,4.886,2.59.767,9.549.062,9.549.062a2.28,2.28,0,0,0,.309-.983" transform="translate(-719.697 -305.375)" fill="#2b478b"/>
        <path id="Path_21793" data-name="Path 21793" d="M1083.545,516.681l11.772,27.8h19.2l12.316-27.8Z" transform="translate(-985.871 -469.37)" fill="#f99746"/>
        <path id="Path_21794" data-name="Path 21794" d="M1105.073,502.618h-44.191a1.463,1.463,0,0,1,0-2.926h44.191a1.463,1.463,0,0,1,0,2.926" transform="translate(-963.933 -453.928)" fill="#f78248"/>
        <path id="Path_21795" data-name="Path 21795" d="M1231.279,831.558h-15.16a1.993,1.993,0,0,1-1.983-2v-7.488h19.126v7.488a1.993,1.993,0,0,1-1.983,2" transform="translate(-1104.69 -746.956)" fill="#f78248"/>
        <path id="Path_21796" data-name="Path 21796" d="M1455.006,911.973l1.818-.995a.454.454,0,0,1,.477.03q.269.191.558.363a7.657,7.657,0,0,0,1.095.542.456.456,0,0,1,.29.423l.024,2.182a.446.446,0,0,0,.414.444l1.97.15a.44.44,0,0,0,.463-.359l.363-1.975a.442.442,0,0,1,.385-.366,7.93,7.93,0,0,0,2.417-.716.451.451,0,0,1,.541.123l.77.944a.456.456,0,0,0,.6.093l1.636-1.092a.4.4,0,0,0,.089-.077.448.448,0,0,0,.059-.515l-.734-1.372-.18-.334a7.958,7.958,0,0,0,.633-.93,8.139,8.139,0,0,0,.634-1.362.44.44,0,0,1,.411-.3l1.74-.018a.458.458,0,0,0,.45-.427l.114-1.521.031-.436a.467.467,0,0,0-.376-.5l-1.635-.308a.442.442,0,0,1-.363-.374,8.057,8.057,0,0,0-.433-1.656,1.351,1.351,0,0,0-.049-.135.232.232,0,0,1-.015-.046.458.458,0,0,1,.15-.482l1.514-1.265a.344.344,0,0,0,.047-.046.467.467,0,0,0,.043-.559l-1.076-1.649a.453.453,0,0,0-.6-.151l-1.9,1.039a.438.438,0,0,1-.5-.05,8.074,8.074,0,0,0-1.007-.707q-.286-.17-.579-.313a.469.469,0,0,1-.262-.417l-.024-2.1a.446.446,0,0,0-.41-.442l-1.949-.146a.464.464,0,0,0-.492.382l-.288,1.563a.457.457,0,0,1-.421.376,7.892,7.892,0,0,0-2.4.509.45.45,0,0,1-.515-.137l-1.128-1.379a.465.465,0,0,0-.615-.093l-1.628,1.081a.455.455,0,0,0-.147.595l.042.08.854,1.594a.466.466,0,0,1-.057.524v0a8.021,8.021,0,0,0-.816,1.154c-.129.222-.245.447-.352.676a.448.448,0,0,1-.4.265l-1.767.018a.466.466,0,0,0-.459.433l-.145,1.96a.513.513,0,0,0,.017.16.464.464,0,0,0,.354.327l1.306.242a.463.463,0,0,1,.345.3.5.5,0,0,1,.026.126,8.082,8.082,0,0,0,.794,3.067.455.455,0,0,1-.061.492.461.461,0,0,1-.055.055l-1.227,1.023a.462.462,0,0,0-.09.6l.025.039,1.047,1.608a.46.46,0,0,0,.605.151m10-10.441a5.35,5.35,0,0,1,.614.783,4.25,4.25,0,0,1,.571,2.224c0,.071-.011.141-.019.211a4.315,4.315,0,0,1-8.01,1.944,4.4,4.4,0,0,1-.594-1.9,2.834,2.834,0,0,1,0-.423,5,5,0,0,1,.4-1.635,4.262,4.262,0,0,1,7.036-1.2" transform="translate(-1321.04 -812.499)" fill="#dfebfd"/>
        <g id="Group_21010" data-name="Group 21010" transform="translate(132.825 67.158)" opacity="0.5">
          <g id="Group_21009" data-name="Group 21009">
            <g id="Group_21008" data-name="Group 21008" clip-path="url(#clip-path-4)">
              <path id="Path_21797" data-name="Path 21797" d="M1475.32,744.817l1.013-.582a.256.256,0,0,1,.269.011q.154.1.318.2a4.326,4.326,0,0,0,.623.293.257.257,0,0,1,.168.235l.039,1.229a.251.251,0,0,0,.238.245l1.112.061a.248.248,0,0,0,.257-.208l.182-1.118a.249.249,0,0,1,.213-.21,4.477,4.477,0,0,0,1.354-.432.254.254,0,0,1,.306.063l.445.523a.257.257,0,0,0,.339.045l.909-.635a.238.238,0,0,0,.05-.044.253.253,0,0,0,.027-.291l-.43-.764-.105-.186a4.477,4.477,0,0,0,.346-.531,4.565,4.565,0,0,0,.342-.776.248.248,0,0,1,.228-.172l.981-.031a.259.259,0,0,0,.249-.246l.047-.859.013-.246a.262.262,0,0,0-.218-.275l-.925-.154a.25.25,0,0,1-.209-.207,4.5,4.5,0,0,0-.263-.928.736.736,0,0,0-.03-.076.139.139,0,0,1-.009-.026.259.259,0,0,1,.079-.273l.839-.731a.191.191,0,0,0,.026-.026.262.262,0,0,0,.018-.315l-.625-.917a.256.256,0,0,0-.339-.078l-1.056.608a.246.246,0,0,1-.28-.022,4.564,4.564,0,0,0-.576-.386q-.163-.092-.33-.169a.265.265,0,0,1-.152-.232l-.038-1.182a.251.251,0,0,0-.236-.244l-1.1-.059a.262.262,0,0,0-.273.221l-.144.884a.257.257,0,0,1-.233.217,4.452,4.452,0,0,0-1.349.316.254.254,0,0,1-.292-.071l-.652-.763a.262.262,0,0,0-.348-.045l-.9.629a.256.256,0,0,0-.076.337l.024.045.5.888a.262.262,0,0,1-.026.3h0a4.551,4.551,0,0,0-.447.66c-.07.127-.133.255-.191.385a.252.252,0,0,1-.224.154l-1,.031a.263.263,0,0,0-.254.25l-.058,1.106a.3.3,0,0,0,.011.09.263.263,0,0,0,.2.18l.739.121a.26.26,0,0,1,.2.164.287.287,0,0,1,.016.071,4.564,4.564,0,0,0,.483,1.719.253.253,0,0,1-.059.309l-.68.591a.26.26,0,0,0-.044.342l.014.021.609.894a.26.26,0,0,0,.343.078m5.512-6a3.039,3.039,0,0,1,.355.434,2.4,2.4,0,0,1,.347,1.246c0,.04-.005.08-.008.119a2.433,2.433,0,0,1-4.492,1.19,2.483,2.483,0,0,1-.357-1.064,1.614,1.614,0,0,1,0-.238,2.816,2.816,0,0,1,.208-.926,2.4,2.4,0,0,1,3.951-.762" transform="translate(-1473.487 -734.696)" fill="#aec3ff"/>
            </g>
          </g>
        </g>
        <g id="Group_21013" data-name="Group 21013" transform="translate(86.68 68.29)" opacity="0.5">
          <g id="Group_21012" data-name="Group 21012">
            <g id="Group_21011" data-name="Group 21011" clip-path="url(#clip-path-5)">
              <path id="Path_21798" data-name="Path 21798" d="M964.575,764.428l1.766-.967a.441.441,0,0,1,.464.029q.261.186.542.353a7.438,7.438,0,0,0,1.064.527.444.444,0,0,1,.282.411l.024,2.12a.434.434,0,0,0,.4.432l1.914.146a.428.428,0,0,0,.45-.349l.353-1.919a.43.43,0,0,1,.374-.355,7.7,7.7,0,0,0,2.348-.7.439.439,0,0,1,.525.12l.747.917a.444.444,0,0,0,.584.09l1.59-1.061a.383.383,0,0,0,.086-.074.436.436,0,0,0,.057-.5l-.714-1.333-.175-.324a7.748,7.748,0,0,0,.615-.9,7.881,7.881,0,0,0,.616-1.324.428.428,0,0,1,.4-.289l1.691-.017a.445.445,0,0,0,.438-.415l.111-1.478.031-.424a.454.454,0,0,0-.365-.482l-1.588-.3a.43.43,0,0,1-.353-.364,7.82,7.82,0,0,0-.421-1.609c-.013-.047-.031-.087-.048-.131a.246.246,0,0,1-.015-.045.445.445,0,0,1,.146-.468l1.471-1.229a.311.311,0,0,0,.046-.044.454.454,0,0,0,.042-.543l-1.045-1.6a.441.441,0,0,0-.581-.147l-1.842,1.009a.425.425,0,0,1-.483-.048,7.87,7.87,0,0,0-.978-.687q-.278-.165-.563-.3a.456.456,0,0,1-.254-.405l-.023-2.038a.433.433,0,0,0-.4-.429l-1.893-.142a.451.451,0,0,0-.478.371l-.279,1.519a.444.444,0,0,1-.409.366,7.674,7.674,0,0,0-2.335.495.437.437,0,0,1-.5-.133l-1.1-1.34a.452.452,0,0,0-.6-.091l-1.581,1.051a.442.442,0,0,0-.143.578l.041.078.83,1.548a.451.451,0,0,1-.055.509v0a7.785,7.785,0,0,0-.793,1.121c-.126.216-.237.434-.342.657a.436.436,0,0,1-.392.258l-1.716.018a.453.453,0,0,0-.446.421l-.141,1.9a.5.5,0,0,0,.016.156.451.451,0,0,0,.344.318l1.269.235a.45.45,0,0,1,.335.289.489.489,0,0,1,.025.123,7.851,7.851,0,0,0,.771,2.98.441.441,0,0,1-.06.478.426.426,0,0,1-.054.053l-1.192.995a.449.449,0,0,0-.088.587l.024.038,1.017,1.562a.447.447,0,0,0,.589.147m9.712-10.145a5.215,5.215,0,0,1,.6.761,4.128,4.128,0,0,1,.555,2.16c0,.069-.011.137-.018.205a4.192,4.192,0,0,1-7.783,1.888,4.276,4.276,0,0,1-.578-1.845,2.8,2.8,0,0,1,0-.411,4.851,4.851,0,0,1,.392-1.589,4.141,4.141,0,0,1,6.835-1.17" transform="translate(-961.577 -747.135)" fill="#aec3ff"/>
            </g>
          </g>
        </g>
      </g>
    </g>
  </g>
</svg>
