<svg xmlns="http://www.w3.org/2000/svg" width="24" height="24" viewBox="0 0 24 24">
  <g id="Group_22316" data-name="Group 22316" transform="translate(-400 -2657)">
    <rect id="Rectangle_9580" data-name="Rectangle 9580" width="24" height="24" transform="translate(400 2657)" fill="#fff"/>
    <g id="gift" transform="translate(398.5 2656.165)">
      <path id="Path_21124" data-name="Path 21124" d="M18.769,9.052a2.671,2.671,0,0,0,.321-.193,1.741,1.741,0,0,0,.568-2.387,1.737,1.737,0,0,0-2.438-.264A5.855,5.855,0,0,0,15.5,9.049ZM8.7,12.831H21.942v6.733A1.136,1.136,0,0,1,20.806,20.7H9.836A1.136,1.136,0,0,1,8.7,19.564Z" transform="translate(-1.575)" fill="none" stroke="#44c8f5" stroke-linecap="round" stroke-linejoin="round" stroke-width="1"/>
      <rect id="Rectangle_9576" data-name="Rectangle 9576" width="3.324" height="7.87" transform="translate(12.083 12.831)" fill="none" stroke="#44c8f5" stroke-linecap="round" stroke-linejoin="round" stroke-width="1"/>
      <path id="Path_21125" data-name="Path 21125" d="M16.949,9.052a2.435,2.435,0,0,1-.318-.193,1.739,1.739,0,0,1-.568-2.387A1.741,1.741,0,0,1,18.5,6.208a5.855,5.855,0,0,1,1.719,2.841Z" transform="translate(-6.654)" fill="none" stroke="#44c8f5" stroke-linecap="round" stroke-linejoin="round" stroke-width="1"/>
      <rect id="Rectangle_9577" data-name="Rectangle 9577" width="14.49" height="3.779" rx="1" transform="translate(6.5 9.052)" fill="none" stroke="#039" stroke-linecap="round" stroke-linejoin="round" stroke-width="1"/>
      <rect id="Rectangle_9578" data-name="Rectangle 9578" width="3.929" height="3.779" transform="translate(11.782 9.052)" fill="none" stroke="#039" stroke-linecap="round" stroke-linejoin="round" stroke-width="1"/>
    </g>
  </g>
</svg>
