<svg xmlns="http://www.w3.org/2000/svg" width="24" height="24" viewBox="0 0 24 24">
  <g id="Group_23971" data-name="Group 23971" transform="translate(8581 -17494)">
    <rect id="Rectangle_9580" data-name="Rectangle 9580" width="24" height="24" transform="translate(-8581 17494)" fill="none"/>
    <g id="gift" transform="translate(-8584.545 17490.887)">
      <path id="Path_21124" data-name="Path 21124" d="M21.271,9.852a3.334,3.334,0,0,0,.4-.241,2.174,2.174,0,0,0,.709-2.979,2.169,2.169,0,0,0-3.043-.33c-1.036.734-1.568,2.032-2.146,3.547ZM8.7,14.569H25.233v8.406a1.419,1.419,0,0,1-1.419,1.419h-13.7A1.419,1.419,0,0,1,8.7,22.976Z" transform="translate(-1.42 0)" fill="none" stroke="#44c8f5" stroke-linecap="round" stroke-linejoin="round" stroke-width="1"/>
      <rect id="Rectangle_9576" data-name="Rectangle 9576" width="4.15" height="9.825" transform="translate(13.47 14.569)" fill="none" stroke="#44c8f5" stroke-linecap="round" stroke-linejoin="round" stroke-width="1"/>
      <path id="Path_21125" data-name="Path 21125" d="M17.236,9.852a3.04,3.04,0,0,1-.4-.241,2.17,2.17,0,0,1-.709-2.979,2.173,2.173,0,0,1,3.047-.33c1.039.734,1.564,2.032,2.146,3.547Z" transform="translate(-5.998 0)" fill="none" stroke="#44c8f5" stroke-linecap="round" stroke-linejoin="round" stroke-width="1"/>
      <rect id="Rectangle_9577" data-name="Rectangle 9577" width="18.09" height="4.718" rx="1" transform="translate(6.5 9.852)" fill="none" stroke="#039" stroke-linecap="round" stroke-linejoin="round" stroke-width="1"/>
      <rect id="Rectangle_9578" data-name="Rectangle 9578" width="4.906" height="4.718" transform="translate(13.094 9.852)" fill="none" stroke="#039" stroke-linecap="round" stroke-linejoin="round" stroke-width="1"/>
    </g>
  </g>
</svg>
