<svg xmlns="http://www.w3.org/2000/svg" width="25.458" height="23.5" viewBox="0 0 25.458 23.5">
  <g id="Group_21588" data-name="Group 21588" transform="translate(-276.042 -183.965)">
    <g id="Group_11588" data-name="Group 11588" transform="translate(276.042 183.965)">
      <path id="Path_15595" data-name="Path 15595" d="M29.99,25.676H28.521V24.207a2.451,2.451,0,0,0-2.448-2.448H23.625V20.29a.49.49,0,0,0-.49-.49H19.219V18.752a1.958,1.958,0,1,0-.979,0V19.8H14.323a.49.49,0,0,0-.49.49v1.469H11.385a2.451,2.451,0,0,0-2.448,2.448v1.469H7.469A1.471,1.471,0,0,0,6,27.145V33.02a1.471,1.471,0,0,0,1.469,1.469H8.938v1.469a2.451,2.451,0,0,0,2.448,2.448H26.073a2.451,2.451,0,0,0,2.448-2.448V34.488H29.99a1.471,1.471,0,0,0,1.469-1.469V27.145A1.471,1.471,0,0,0,29.99,25.676ZM17.75,16.863a.979.979,0,1,1,.979.979A.98.98,0,0,1,17.75,16.863ZM7.469,33.509a.49.49,0,0,1-.49-.49V27.145a.49.49,0,0,1,.49-.49H8.938v6.854ZM14.813,20.78h7.833v.979H14.813ZM27.542,35.957a1.471,1.471,0,0,1-1.469,1.469H11.385a1.471,1.471,0,0,1-1.469-1.469V24.207a1.471,1.471,0,0,1,1.469-1.469H26.073a1.471,1.471,0,0,1,1.469,1.469Zm2.938-2.938a.49.49,0,0,1-.49.49H28.521V26.655H29.99a.49.49,0,0,1,.49.49Z" transform="translate(-6 -14.905)" fill="#44c8f5"/>
      <path id="Path_15596" data-name="Path 15596" d="M31.3,46.9H22.49a.49.49,0,0,0-.49.49v.49a4.9,4.9,0,1,0,9.792,0v-.49A.49.49,0,0,0,31.3,46.9ZM26.9,51.8a3.921,3.921,0,0,1-3.917-3.917h7.833A3.921,3.921,0,0,1,26.9,51.8Z" transform="translate(-14.167 -31.238)" fill="#039"/>
      <path id="Path_15597" data-name="Path 15597" d="M21.917,38.863a1.958,1.958,0,1,0-1.958,1.958A1.96,1.96,0,0,0,21.917,38.863Zm-2.938,0a.979.979,0,1,1,.979.979A.98.98,0,0,1,18.979,38.863Z" transform="translate(-12.125 -26.134)" fill="#039"/>
      <path id="Path_15598" data-name="Path 15598" d="M39.958,36.9a1.958,1.958,0,1,0,1.958,1.958A1.96,1.96,0,0,0,39.958,36.9Zm0,2.938a.979.979,0,1,1,.979-.979A.98.98,0,0,1,39.958,39.843Z" transform="translate(-22.333 -26.134)" fill="#039"/>
    </g>
  </g>
</svg>
