<svg xmlns="http://www.w3.org/2000/svg" width="28" height="25.666" viewBox="0 0 28 25.666">
    <defs>
        <style>
            .cls-2{fill:#039}
        </style>
    </defs>
    <g id="Group_11588" data-name="Group 11588" transform="translate(-288 -234.334)">
        <path id="Path_15595" data-name="Path 15595" d="M314.385 246.1h-1.616v-1.6a2.685 2.685 0 0 0-2.692-2.672h-2.693v-1.607a.536.536 0 0 0-.538-.535h-4.308v-1.145a2.158 2.158 0 1 0-1.076 0v1.145h-4.309a.536.536 0 0 0-.538.535v1.6h-2.692a2.685 2.685 0 0 0-2.692 2.676v1.6h-1.616a1.613 1.613 0 0 0-1.615 1.6v6.413a1.612 1.612 0 0 0 1.615 1.6h1.616v1.606a2.685 2.685 0 0 0 2.692 2.684h16.153a2.685 2.685 0 0 0 2.693-2.672v-1.606h1.616a1.612 1.612 0 0 0 1.615-1.6v-6.413a1.611 1.611 0 0 0-1.615-1.609zm-13.462-9.621A1.077 1.077 0 1 1 302 237.55a1.072 1.072 0 0 1-1.077-1.069zm-11.308 18.171a.537.537 0 0 1-.538-.535V247.7a.538.538 0 0 1 .538-.535h1.616v7.482zm8.077-13.895h8.616v1.068h-8.616zm14 16.571a1.611 1.611 0 0 1-1.616 1.6h-16.153a1.611 1.611 0 0 1-1.616-1.6V244.5a1.611 1.611 0 0 1 1.616-1.6h16.153a1.611 1.611 0 0 1 1.616 1.6zm3.23-3.207a.537.537 0 0 1-.538.535h-1.615v-7.484h1.616a.538.538 0 0 1 .538.535z" style="fill:#44c8f5"/>
        <path id="Path_15596" data-name="Path 15596" class="cls-2" d="M306.847 251.44h-9.693a.537.537 0 0 0-.538.535v.535a5.385 5.385 0 0 0 10.768.145v-.68a.537.537 0 0 0-.537-.535zM302 256.785a4.3 4.3 0 0 1-4.307-4.275h8.615a4.3 4.3 0 0 1-4.308 4.28z"/>
        <path id="Path_15597" data-name="Path 15597" class="cls-2" d="M298.769 248.24a2.155 2.155 0 1 0-2.154 2.138 2.148 2.148 0 0 0 2.154-2.138zm-3.231 0a1.077 1.077 0 1 1 1.077 1.068 1.073 1.073 0 0 1-1.077-1.068z"/>
        <path id="Path_15598" data-name="Path 15598" class="cls-2" d="M307.384 246.1a2.138 2.138 0 1 0 2.155 2.138 2.148 2.148 0 0 0-2.155-2.138zm0 3.206a.782.782 0 1 1 0 .005z"/>
    </g>
</svg>
