<svg id="Group_20955" data-name="Group 20955" xmlns="http://www.w3.org/2000/svg" width="28.167" height="26" viewBox="0 0 28.167 26">
  <path id="Path_15595" data-name="Path 15595" d="M32.542,26.822H30.917V25.2a2.711,2.711,0,0,0-2.708-2.708H25.5V20.863a.542.542,0,0,0-.542-.542H20.625v-1.16a2.167,2.167,0,1,0-1.083,0v1.16H15.208a.542.542,0,0,0-.542.542v1.625H11.958A2.711,2.711,0,0,0,9.25,25.2v1.625H7.625A1.627,1.627,0,0,0,6,28.447v6.5a1.627,1.627,0,0,0,1.625,1.625H9.25V38.2a2.711,2.711,0,0,0,2.708,2.708h16.25A2.711,2.711,0,0,0,30.917,38.2V36.572h1.625a1.627,1.627,0,0,0,1.625-1.625v-6.5A1.627,1.627,0,0,0,32.542,26.822ZM19,17.072a1.083,1.083,0,1,1,1.083,1.083A1.084,1.084,0,0,1,19,17.072ZM7.625,35.488a.543.543,0,0,1-.542-.542v-6.5a.543.543,0,0,1,.542-.542H9.25v7.583ZM15.75,21.405h8.667v1.083H15.75ZM29.833,38.2a1.627,1.627,0,0,1-1.625,1.625H11.958A1.627,1.627,0,0,1,10.333,38.2v-13a1.627,1.627,0,0,1,1.625-1.625h16.25A1.627,1.627,0,0,1,29.833,25.2Zm3.25-3.25a.543.543,0,0,1-.542.542H30.917V27.905h1.625a.543.543,0,0,1,.542.542Z" transform="translate(-6 -14.905)" fill="#44c8f5"/>
  <path id="Path_15596" data-name="Path 15596" d="M32.292,46.9h-9.75a.542.542,0,0,0-.542.542v.542a5.417,5.417,0,1,0,10.833,0v-.542A.542.542,0,0,0,32.292,46.9Zm-4.875,5.417a4.338,4.338,0,0,1-4.333-4.333H31.75A4.338,4.338,0,0,1,27.417,52.322Z" transform="translate(-13.333 -29.572)" fill="#039"/>
  <path id="Path_15597" data-name="Path 15597" d="M22.333,39.072a2.167,2.167,0,1,0-2.167,2.167A2.169,2.169,0,0,0,22.333,39.072Zm-3.25,0a1.083,1.083,0,1,1,1.083,1.083A1.084,1.084,0,0,1,19.083,39.072Z" transform="translate(-11.5 -24.988)" fill="#039"/>
  <path id="Path_15598" data-name="Path 15598" d="M40.167,36.9a2.167,2.167,0,1,0,2.167,2.167A2.169,2.169,0,0,0,40.167,36.9Zm0,3.25a1.083,1.083,0,1,1,1.083-1.083A1.084,1.084,0,0,1,40.167,40.155Z" transform="translate(-20.667 -24.988)" fill="#039"/>
</svg>
