<svg id="rupees_icon" data-name="rupees icon" xmlns="http://www.w3.org/2000/svg" width="18" height="11" viewBox="0 0 18 11">
  <g id="XMLID_1_" transform="translate(1.8 1.833)">
    <path id="Union_55" data-name="Union 55" d="M13.88,9.167H0v-6.8A2.346,2.346,0,0,0,2.319,0H16.2V2.372l-.09,0,.09,0v6.8ZM5.78,4.583A2.345,2.345,0,0,0,8.1,6.954h0A2.345,2.345,0,0,1,5.78,4.583Zm6.414,0a.841.841,0,1,0,1.682,0,.841.841,0,1,1-1.682,0Zm-9.87,0a.851.851,0,0,0,.841.86h0a.851.851,0,0,1-.841-.86ZM0,0H2.319A2.346,2.346,0,0,1,0,2.372Z" transform="translate(0)" fill="#008040"/>
  </g>
  <g id="XMLID_1_2" data-name="XMLID_1_">
    <path id="Path_23126" data-name="Path 23126" d="M405.67,96.76v2.372a2.348,2.348,0,0,1-2.32-2.372Z" transform="translate(-389.47 -96.76)" fill="#6cd992"/>
    <path id="Path_23127" data-name="Path 23127" d="M405.67,266.24v2.372h-2.32A2.347,2.347,0,0,1,405.67,266.24Z" transform="translate(-389.47 -259.445)" fill="#6cd992"/>
    <path id="Path_23128" data-name="Path 23128" d="M51.82,268.612H49.5V266.24A2.347,2.347,0,0,1,51.82,268.612Z" transform="translate(-49.5 -259.445)" fill="#6cd992"/>
    <path id="Path_23129" data-name="Path 23129" d="M51.82,96.76a2.347,2.347,0,0,1-2.32,2.372V96.76Z" transform="translate(-49.5 -96.76)" fill="#6cd992"/>
    <path id="Path_23130" data-name="Path 23130" d="M109.591,189.64a.86.86,0,1,1-.841.859A.85.85,0,0,1,109.591,189.64Z" transform="translate(-106.426 -185.916)" fill="#6cd992"/>
    <ellipse id="Ellipse_1331" data-name="Ellipse 1331" cx="2.32" cy="2.371" rx="2.32" ry="2.371" transform="translate(5.78 2.212)" fill="#6cd992"/>
    <path id="Path_23131" data-name="Path 23131" d="M361.221,189.64a.86.86,0,1,1-.841.859A.85.85,0,0,1,361.221,189.64Z" transform="translate(-348.186 -185.916)" fill="#6cd992"/>
    <path id="Path_23132" data-name="Path 23132" d="M65.7,99.132v4.424a2.347,2.347,0,0,0-2.32,2.372H51.82a2.347,2.347,0,0,0-2.32-2.372V99.132a2.347,2.347,0,0,0,2.32-2.372H63.38A2.348,2.348,0,0,0,65.7,99.132Zm-2.324,2.212a.841.841,0,1,0-.841.86A.85.85,0,0,0,63.376,101.343Zm-3.456,0a2.32,2.32,0,1,0-2.32,2.371A2.346,2.346,0,0,0,59.92,101.343Zm-6.414,0a.841.841,0,1,0-.841.86A.85.85,0,0,0,53.506,101.343Z" transform="translate(-49.5 -96.76)" fill="#15b14b"/>
  </g>
</svg>
