<svg xmlns="http://www.w3.org/2000/svg" width="24" height="24" viewBox="0 0 24 24">
  <g id="Group_20792" data-name="Group 20792" transform="translate(-13071 -4651.999)">
    <path id="Icon_metro-qrcode" data-name="Icon metro-qrcode" d="M10.071,3.428h-6v6h6Zm1.5-1.5v9h-9v-9Zm13.5,1.5h-6v6h6v-6Zm1.5-1.5v9h-9v-9h9Zm-16.5,16.5h-6v6h6Zm1.5-1.5v9h-9v-9Zm1.5-15h1.5v1.5h-1.5Zm1.5,1.5h1.5v1.5h-1.5Zm-1.5,1.5h1.5v1.5h-1.5Zm1.5,1.5h1.5v1.5h-1.5Zm-1.5,1.5h1.5v1.5h-1.5Zm1.5,1.5h1.5v1.5h-1.5Zm-1.5,1.5h1.5v1.5h-1.5Zm0,3h1.5v1.5h-1.5Zm1.5,1.5h1.5v1.5h-1.5Zm-1.5,1.5h1.5v1.5h-1.5Zm1.5,1.5h1.5v1.5h-1.5Zm-1.5,1.5h1.5v1.5h-1.5Zm1.5,1.5h1.5v1.5h-1.5Zm-1.5,1.5h1.5v1.5h-1.5Zm1.5,1.5h1.5v1.5h-1.5Zm10.5-10.5h1.5v1.5h-1.5Zm-21,0h1.5v1.5h-1.5Zm1.5-1.5h1.5v1.5h-1.5Zm-3,0h1.5v1.5h-1.5Zm6,0h1.5v1.5h-1.5Zm1.5,1.5h1.5v1.5h-1.5Zm1.5-1.5h1.5v1.5h-1.5Zm4.5,1.5h1.5v1.5h-1.5Zm1.5-1.5h1.5v1.5h-1.5Zm1.5,1.5h1.5v1.5h-1.5Zm1.5-1.5h1.5v1.5h-1.5Zm1.5,1.5h1.5v1.5h-1.5Zm1.5-1.5h1.5v1.5h-1.5Zm1.5,4.5h1.5v1.5h-1.5Zm-9,0h1.5v1.5h-1.5Zm1.5-1.5h1.5v1.5h-1.5Zm1.5,1.5h1.5v1.5h-1.5Zm3,0h1.5v1.5h-1.5Zm1.5-1.5h1.5v1.5h-1.5Zm1.5,4.5h1.5v1.5h-1.5Zm-9,0h1.5v1.5h-1.5Zm1.5-1.5h1.5v1.5h-1.5Zm3,0h1.5v1.5h-1.5Zm1.5,1.5h1.5v1.5h-1.5Zm1.5-1.5h1.5v1.5h-1.5Zm1.5,4.5h1.5v1.5h-1.5Zm-7.5-1.5h1.5v1.5h-1.5Zm1.5,1.5h1.5v1.5h-1.5Zm1.5-1.5h1.5v1.5h-1.5Zm1.5,1.5h1.5v1.5h-1.5Zm-4.5,1.5h1.5v1.5h-1.5Zm3,0h1.5v1.5h-1.5Zm3,0h1.5v1.5h-1.5Z" transform="translate(13068.43 4650.071)" fill="#039"/>
    <rect id="Rectangle_9195" data-name="Rectangle 9195" width="3" height="3" transform="translate(13074 4655)" fill="#aceaff"/>
    <rect id="Rectangle_9196" data-name="Rectangle 9196" width="3" height="3" transform="translate(13074 4670)" fill="#aceaff"/>
    <rect id="Rectangle_9197" data-name="Rectangle 9197" width="3" height="3" transform="translate(13089 4655)" fill="#aceaff"/>
  </g>
</svg>
