<svg id="scheduledActivities" xmlns="http://www.w3.org/2000/svg" width="50" height="50" viewBox="0 0 50 50">
  <circle id="Ellipse_301" data-name="Ellipse 301" cx="25" cy="25" r="25" fill="#f1f2f8"/>
  <g id="Group_23918" data-name="Group 23918" transform="translate(18839 1025)">
    <path id="Subtraction_12" data-name="Subtraction 12" d="M9.689,24.648H3.177A3.181,3.181,0,0,1,0,21.47V5.1A3.181,3.181,0,0,1,3.177,1.926H5.392V.77a.77.77,0,0,1,1.541,0V1.926H17.716V.77a.77.77,0,1,1,1.54,0V1.926h2.215A3.181,3.181,0,0,1,24.648,5.1V14.13l-1.541-1.167V8.473H1.541v13a1.639,1.639,0,0,0,1.636,1.637H9.146l.542,1.539ZM3.177,3.466A1.639,1.639,0,0,0,1.541,5.1V6.932H23.108V5.1a1.639,1.639,0,0,0-1.636-1.637H19.256v.77a.77.77,0,1,1-1.54,0v-.77H6.933v.77a.77.77,0,0,1-1.541,0v-.77Z" transform="translate(-18827 -1014)" fill="#9ea1af"/>
    <g id="Group_23919" data-name="Group 23919" transform="translate(0 -1)">
      <g id="Ellipse_1313" data-name="Ellipse 1313" transform="translate(-18817 -1000)" fill="none" stroke="#9ea1af" stroke-width="1.3">
        <circle cx="8" cy="8" r="8" stroke="none"/>
        <circle cx="8" cy="8" r="7.35" fill="none"/>
      </g>
      <path id="Path_21288" data-name="Path 21288" d="M-18808-996.691v4.817h3.867" transform="translate(-1.001 1.251)" fill="none" stroke="#9ea1af" stroke-linecap="round" stroke-linejoin="round" stroke-width="1"/>
    </g>
  </g>
</svg>
