<svg xmlns="http://www.w3.org/2000/svg" width="58.263" height="47" viewBox="0 0 58.263 47">
  <g id="Group_19828" data-name="Group 19828" transform="translate(-148 -320)">
    <g id="Ellipse_1109" data-name="Ellipse 1109" transform="translate(148 320)" fill="#f6f7fb" stroke="#44c9f6" stroke-width="2">
      <circle cx="23.5" cy="23.5" r="23.5" stroke="none"/>
      <circle cx="23.5" cy="23.5" r="22.5" fill="none"/>
    </g>
    <path id="Path_20775" data-name="Path 20775" d="M92.446,0H80.873a.54.54,0,0,0-.54.54V17.9a.54.54,0,0,0,.922.382l5.4-5.4,5.4,5.4a.54.54,0,0,0,.922-.382V.54A.54.54,0,0,0,92.446,0ZM86.66,11.573a.54.54,0,0,0-.382.158L81.413,16.6V1.08H91.906V16.6l-4.864-4.864A.54.54,0,0,0,86.66,11.573Z" transform="translate(84.84 334.28)" fill="#44c8f5" stroke="#44c8f5" stroke-linecap="round" stroke-linejoin="round" stroke-width="0.6"/>
    <circle id="Ellipse_1110" data-name="Ellipse 1110" cx="9.5" cy="9.5" r="9.5" transform="translate(184 341)" fill="#f6f7fb"/>
    <path id="Path_20776" data-name="Path 20776" d="M542.288,1524.9l-5.6-5.6a9.347,9.347,0,1,0-1.326,1.332l5.6,5.6a.958.958,0,0,0,.66.263.95.95,0,0,0,.929-.928A.94.94,0,0,0,542.288,1524.9Zm-12.854-4.023a7.516,7.516,0,1,1,5.3-2.2A7.494,7.494,0,0,1,529.434,1520.878Z" transform="translate(-336.289 -1162.511)" fill="#039"/>
  </g>
</svg>
