<svg xmlns="http://www.w3.org/2000/svg" width="38" height="38" viewBox="0 0 38 38">
  <g id="Group_21568" data-name="Group 21568" transform="translate(-166 -35)">
    <circle id="Ellipse_542" data-name="Ellipse 542" cx="19" cy="19" r="19" transform="translate(166 35)" fill="#f3f3f3"/>
    <g id="Component_63_9" data-name="Component 63 – 9" transform="translate(175 44)">
      <path id="Path_516" data-name="Path 516" d="M538.943,1521.756,534.186,1517a7.942,7.942,0,1,0-1.127,1.132l4.757,4.757a.814.814,0,0,0,.561.223.808.808,0,0,0,.79-.789A.8.8,0,0,0,538.943,1521.756Zm-10.923-3.419a6.387,6.387,0,1,1,4.506-1.873A6.369,6.369,0,0,1,528.02,1518.337Z" transform="translate(-520.026 -1503.967)" fill="#039"/>
    </g>
  </g>
</svg>
