<svg xmlns="http://www.w3.org/2000/svg" width="103.701" height="153.616">
    <defs>
        <style>
            .cls-1{fill:#f6f7fb}.cls-2{fill:#44c8f5}.cls-3{fill:#fff}.cls-4{fill:#039}
        </style>
    </defs>
    <g id="Group_11995" data-name="Group 11995" transform="translate(.6)">
        <rect id="Rectangle_7959" data-name="Rectangle 7959" class="cls-1" width="29" height="16" rx="8" transform="rotate(-20 198.489 -169.966)"/>
        <path id="Rectangle_7959_-_Outline" data-name="Rectangle 7959 - Outline" class="cls-2" d="M8 1.2a6.8 6.8 0 0 0 0 13.6h13a6.8 6.8 0 0 0 0-13.6H8M8 0h13a8 8 0 0 1 0 16H8A8 8 0 0 1 8 0z" transform="rotate(-20 198.489 -169.966)"/>
        <rect id="Rectangle_7955" data-name="Rectangle 7955" class="cls-3" width="66" height="126" rx="5" transform="translate(19.102)"/>
        <path id="Rectangle_7955_-_Outline" data-name="Rectangle 7955 - Outline" class="cls-2" d="M5 1.2A3.8 3.8 0 0 0 1.2 5v116a3.8 3.8 0 0 0 3.8 3.8h56a3.8 3.8 0 0 0 3.8-3.8V5A3.8 3.8 0 0 0 61 1.2H5M5 0h56a5 5 0 0 1 5 5v116a5 5 0 0 1-5 5H5a5 5 0 0 1-5-5V5a5 5 0 0 1 5-5z" transform="translate(19.102)"/>
        <rect id="Rectangle_7961" data-name="Rectangle 7961" class="cls-1" width="60" height="110" rx="5" transform="translate(22.102 8)"/>
        <path id="Rectangle_7961_-_Outline" data-name="Rectangle 7961 - Outline" class="cls-2" d="M5 1.2A3.8 3.8 0 0 0 1.2 5v100a3.8 3.8 0 0 0 3.8 3.8h50a3.8 3.8 0 0 0 3.8-3.8V5A3.8 3.8 0 0 0 55 1.2H5M5 0h50a5 5 0 0 1 5 5v100a5 5 0 0 1-5 5H5a5 5 0 0 1-5-5V5a5 5 0 0 1 5-5z" transform="translate(22.102 8)"/>
        <g id="Group_11992" data-name="Group 11992" transform="translate(32.102 23)">
            <path id="Rectangle_7960" data-name="Rectangle 7960" class="cls-3" d="M20 0h1a20 20 0 0 1 20 20v25a5 5 0 0 1-5 5H5a5 5 0 0 1-5-5V20A20 20 0 0 1 20 0z" transform="translate(0 34)"/>
            <path id="Rectangle_7960_-_Outline" data-name="Rectangle 7960 - Outline" class="cls-4" d="M20 1.2A18.783 18.783 0 0 0 1.2 20v25A3.8 3.8 0 0 0 5 48.8h31a3.8 3.8 0 0 0 3.8-3.8V20A18.783 18.783 0 0 0 21 1.2h-1M20 0h1a20 20 0 0 1 20 20v25a5 5 0 0 1-5 5H5a5 5 0 0 1-5-5V20A20 20 0 0 1 20 0z" transform="translate(0 34)"/>
            <ellipse id="Ellipse_612" data-name="Ellipse 612" class="cls-3" cx="12" cy="14.5" rx="12" ry="14.5" transform="translate(9)"/>
            <path id="Ellipse_612_-_Outline" data-name="Ellipse 612 - Outline" class="cls-4" d="M12 1.2C6.045 1.2 1.2 7.166 1.2 14.5S6.045 27.8 12 27.8s10.8-5.966 10.8-13.3S17.955 1.2 12 1.2M12 0c6.627 0 12 6.492 12 14.5S18.627 29 12 29 0 22.508 0 14.5 5.373 0 12 0z" transform="translate(9)"/>
        </g>
        <path id="Path_16658" data-name="Path 16658" class="cls-2" d="M18104.738 1245.483c-6.8 0-14.664-.43-18.465-1.66-.635-.206-2.568-.832-2.568-2.2a25.767 25.767 0 0 1 .732-4.875 35.019 35.019 0 0 0 .934-6.414 9.852 9.852 0 0 0-1.561-5.947l-.283-.412a47.929 47.929 0 0 1-4.729-7.894 25.432 25.432 0 0 1-2.078-10.216c-.016-1.265-.07-3.082-.133-5.185-.178-5.874-.443-14.751-.172-22.486a83.845 83.845 0 0 1 .9-10.416c.543-3.254 1.3-5.321 2.324-6.318 2.465-2.407 4.131-3.552 5.945-4.084 1.941-.569 4.082-.4 6.883-.1a.6.6 0 0 1-.062 1.2.591.591 0 0 1-.062 0c-2.672-.284-4.691-.444-6.42.063-1.607.471-3.133 1.534-5.443 3.791-1.967 1.922-2.641 9.717-2.861 15.918-.271 7.7 0 16.549.172 22.407.063 2.109.117 3.931.133 5.207.1 8 2.965 12.17 6.6 17.444l.283.413c2.764 4.018 1.682 9.158.813 13.288a25.113 25.113 0 0 0-.707 4.628c0 .166.283.479 1.078.813 2.738 1.15 9.811 1.845 18.625 1.845h1.262c4.023-.03 7.891-.206 10.889-.5 4.455-.433 5.168-.933 5.252-1.008.635-.905.176-3.944-.2-6.387-.521-3.46-.973-6.448.262-7.612a9.642 9.642 0 0 1 2.672-1.454 19.093 19.093 0 0 0 5.074-2.912 12.082 12.082 0 0 0 3.891-6.646.6.6 0 0 1 1.168.277 13.249 13.249 0 0 1-4.275 7.279 20.078 20.078 0 0 1-5.381 3.1 9.3 9.3 0 0 0-2.324 1.227c-.217.2-.461.765-.4 2.29a41.981 41.981 0 0 0 .506 4.269c.465 3.081.906 5.991-.027 7.281a3.311 3.311 0 0 1-1.979.894 32.328 32.328 0 0 1-3.555.537c-2.836.3-6.576.5-10.531.55-.72-.001-1.443.005-2.182.005z" transform="translate(-18076.898 -1091.866)"/>
        <path id="Path_16659" data-name="Path 16659" class="cls-1" d="M18085.8 1175.019s1.506 6.245 16.941 7.612 21.748-10.952 12.34-14.577-16.551-5.294-22.447-5.92" transform="translate(-18076.898 -1096)"/>
        <path id="Path_16659_-_Outline" data-name="Path 16659 - Outline" class="cls-2" d="M18105.1 1183.337c-.764 0-1.568-.034-2.41-.109-15.686-1.39-17.406-7.8-17.473-8.069l1.168-.281v-.006a6.52 6.52 0 0 0 2.584 3.051 17.871 17.871 0 0 0 4.934 2.414 39.856 39.856 0 0 0 8.895 1.7 19.521 19.521 0 0 0 11.17-1.927c2.564-1.388 4.316-3.388 4.8-5.487a4.5 4.5 0 0 0-.488-3.391 6.613 6.613 0 0 0-3.412-2.615c-8.477-3.266-15.77-5.19-22.295-5.883a.6.6 0 0 1 .063-1.2.626.626 0 0 1 .063 0c6.633.7 14.025 2.653 22.6 5.957a7.786 7.786 0 0 1 4.014 3.12 5.692 5.692 0 0 1 .627 4.276 10.228 10.228 0 0 1-5.4 6.271 19.638 19.638 0 0 1-9.44 2.179z" transform="translate(-18076.898 -1096)"/>
        <g id="Group_11993" data-name="Group 11993" transform="translate(76.102 76)">
            <rect id="Rectangle_7956" data-name="Rectangle 7956" class="cls-1" width="27" height="14" rx="7"/>
            <path id="Rectangle_7956_-_Outline" data-name="Rectangle 7956 - Outline" class="cls-2" d="M7 1.2a5.8 5.8 0 0 0 0 11.6h13a5.8 5.8 0 0 0 0-11.6H7M7 0h13a7 7 0 0 1 0 14H7A7 7 0 0 1 7 0z"/>
            <rect id="Rectangle_7957" data-name="Rectangle 7957" class="cls-1" width="24" height="15" rx="7.5" transform="translate(0 13)"/>
            <path id="Rectangle_7957_-_Outline" data-name="Rectangle 7957 - Outline" class="cls-2" d="M7.5 1.2a6.3 6.3 0 0 0 0 12.6h9a6.3 6.3 0 0 0 0-12.6h-9m0-1.2h9a7.5 7.5 0 0 1 0 15h-9a7.5 7.5 0 0 1 0-15z" transform="translate(0 13)"/>
            <rect id="Rectangle_7958" data-name="Rectangle 7958" class="cls-1" width="18" height="15" rx="7.5" transform="translate(0 27)"/>
            <path id="Rectangle_7958_-_Outline" data-name="Rectangle 7958 - Outline" class="cls-2" d="M7.5 1.2a6.3 6.3 0 0 0 0 12.6h3a6.3 6.3 0 0 0 0-12.6h-3m0-1.2h3a7.5 7.5 0 0 1 0 15h-3a7.5 7.5 0 0 1 0-15z" transform="translate(0 27)"/>
        </g>
        <g id="Group_11994" data-name="Group 11994" transform="translate(32.102 19.193)">
            <path id="Path_16660" data-name="Path 16660" class="cls-4" d="M18107.41 1129.17a.6.6 0 0 1-.6-.6v-4.747a4.2 4.2 0 0 1 4.486-4.487h4.748a.6.6 0 0 1 0 1.2h-4.748a3.02 3.02 0 0 0-3.287 3.287v4.747a.6.6 0 0 1-.599.6z" transform="translate(-18107.41 -1119.936)"/>
            <path id="Path_16662" data-name="Path 16662" class="cls-4" d="M18116.043 1129.17a.6.6 0 0 1-.6-.6v-4.747a3.02 3.02 0 0 0-3.287-3.287h-4.748a.6.6 0 0 1 0-1.2h4.748a4.2 4.2 0 0 1 4.486 4.487v4.747a.6.6 0 0 1-.599.6z" transform="translate(-18075.043 -1119.936)"/>
            <path id="Path_16661" data-name="Path 16661" class="cls-4" d="M18116.045 1129.17h-4.748a4.2 4.2 0 0 1-4.486-4.487v-4.747a.6.6 0 1 1 1.2 0v4.747a3.02 3.02 0 0 0 3.287 3.287h4.748a.6.6 0 0 1 0 1.2z" transform="translate(-18107.41 -1093.71)"/>
            <path id="Path_16663" data-name="Path 16663" class="cls-4" d="M18112.156 1129.17h-4.748a.6.6 0 0 1 0-1.2h4.748a3.02 3.02 0 0 0 3.287-3.287v-4.747a.6.6 0 1 1 1.2 0v4.747a4.2 4.2 0 0 1-4.487 4.487z" transform="translate(-18075.043 -1093.71)"/>
        </g>
    </g>
</svg>
