<svg xmlns="http://www.w3.org/2000/svg" width="24" height="24" viewBox="0 0 24 24">
  <g id="Group_22249" data-name="Group 22249" transform="translate(-390 -2704)">
    <rect id="Rectangle_9582" data-name="Rectangle 9582" width="24" height="24" rx="6" transform="translate(390 2704)" fill="#fff"/>
    <g id="Icon_feather-settings" data-name="Icon feather-settings" transform="translate(390.585 2704.585)">
      <path id="Path_20893" data-name="Path 20893" d="M17.018,15.259A1.759,1.759,0,1,1,15.259,13.5,1.759,1.759,0,0,1,17.018,15.259Z" transform="translate(-3.844 -3.844)" fill="none" stroke="#039" stroke-linecap="round" stroke-linejoin="round" stroke-width="1"/>
      <path id="Path_20894" data-name="Path 20894" d="M18.085,14.119a1.487,1.487,0,0,0,.3,1.64l.054.054a1.8,1.8,0,1,1-2.551,2.551l-.054-.054a1.5,1.5,0,0,0-2.542,1.064v.153a1.8,1.8,0,1,1-3.605,0v-.081a1.487,1.487,0,0,0-.973-1.361,1.487,1.487,0,0,0-1.64.3l-.054.054a1.8,1.8,0,1,1-2.551-2.551l.054-.054A1.5,1.5,0,0,0,3.456,13.29H3.3a1.8,1.8,0,1,1,0-3.605h.081a1.487,1.487,0,0,0,1.361-.973,1.487,1.487,0,0,0-.3-1.64l-.054-.054A1.8,1.8,0,1,1,6.944,4.465L7,4.52a1.487,1.487,0,0,0,1.64.3h.072a1.487,1.487,0,0,0,.9-1.361V3.3a1.8,1.8,0,0,1,3.605,0v.081A1.5,1.5,0,0,0,15.76,4.447l.054-.054a1.8,1.8,0,1,1,2.551,2.551L18.31,7a1.487,1.487,0,0,0-.3,1.64v.072a1.487,1.487,0,0,0,1.361.9h.153a1.8,1.8,0,1,1,0,3.605h-.081a1.487,1.487,0,0,0-1.361.9Z" fill="none" stroke="#44c8f5" stroke-linecap="round" stroke-linejoin="round" stroke-width="1"/>
    </g>
  </g>
</svg>
