<svg xmlns="http://www.w3.org/2000/svg" width="17.018" height="17" viewBox="0 0 17.018 17">
    <path fill="#039" d="M13.686 10.388a3.3 3.3 0 0 0-2.719 1.434L6.356 9.74a3.24 3.24 0 0 0 0-2.47l4.6-2.092a3.3 3.3 0 1 0-.586-1.872 3.281 3.281 0 0 0 .057.557L5.54 6.086a3.306 3.306 0 1 0-.011 4.835l4.907 2.216a3.354 3.354 0 0 0-.056.556 3.306 3.306 0 1 0 3.305-3.3zm0-8.972A1.889 1.889 0 1 1 11.8 3.305a1.889 1.889 0 0 1 1.888-1.889zM3.3 10.388A1.889 1.889 0 1 1 5.186 8.5 1.889 1.889 0 0 1 3.3 10.388zm10.388 5.194a1.889 1.889 0 1 1 1.889-1.889 1.889 1.889 0 0 1-1.889 1.889z" transform="translate(0.027 0.001)"/>
</svg>
