<svg xmlns="http://www.w3.org/2000/svg" xmlns:xlink="http://www.w3.org/1999/xlink" width="103.977" height="52.616" viewBox="0 0 103.977 52.616">
  <defs>
    <clipPath id="clip-path">
      <rect id="Rectangle_10546" data-name="Rectangle 10546" width="103.976" height="10.088" fill="#868686"/>
    </clipPath>
    <clipPath id="clip-path-2">
      <rect id="Rectangle_10547" data-name="Rectangle 10547" width="33.135" height="35.1" fill="#868686"/>
    </clipPath>
  </defs>
  <g id="Group_23470" data-name="Group 23470" transform="translate(-8.012 26.751)">
    <g id="Group_23450" data-name="Group 23450" transform="translate(8.012 15.777)" clip-path="url(#clip-path)">
      <path id="Path_23265" data-name="Path 23265" d="M48.743,15.514v-.3h3.3c.007.051.017.1.02.153a1.451,1.451,0,0,1-.01.153c-.171.007-.338.011-.5.021-.4.024-.546.165-.556.564-.018.713-.02,1.426-.027,2.138a1.21,1.21,0,0,0,.022.166h3.627a.644.644,0,0,0,.024-.125c0-.678,0-1.355-.017-2.032-.016-.6-.139-.707-.739-.719-.107,0-.214,0-.321-.007-.016,0-.031-.016-.061-.032v-.249a31.038,31.038,0,0,1,3.333-.024c0,.087.009.179.014.3l-.463.024c-.417.024-.555.158-.577.574-.015.285-.027.57-.027.855q0,1.966,0,3.932c0,.231.014.463.029.694a.518.518,0,0,0,.5.551c.167.017.335.027.519.042v.3H53.508v-.3c.13-.007.253-.01.375-.021a3.055,3.055,0,0,0,.343-.045.436.436,0,0,0,.356-.355,1.807,1.807,0,0,0,.044-.37c.009-.785.013-1.569.017-2.354a1.407,1.407,0,0,0-.016-.144H50.981c0,.1-.012.189-.012.276,0,.633,0,1.266,0,1.9,0,.187.012.374.031.56a.49.49,0,0,0,.46.5c.191.033.386.039.593.058v.3H48.742l-.013-.294c.21-.021.4-.03.6-.063.3-.052.42-.16.459-.47a6.915,6.915,0,0,0,.045-.853q0-2.193-.009-4.387a2.757,2.757,0,0,0-.043-.478.414.414,0,0,0-.428-.4c-.15-.017-.3-.012-.454-.018-.043,0-.086-.008-.151-.015" transform="translate(-40.428 -12.598)" fill="#868686"/>
      <path id="Path_23266" data-name="Path 23266" d="M.711,8.924a2.792,2.792,0,0,0-.326.859H0V6.631H.389c.039.154.08.316.122.477a4.676,4.676,0,0,0,.575,1.373A2.375,2.375,0,0,0,3.109,9.635,2.353,2.353,0,0,0,4.4,9.378a1.721,1.721,0,0,0,.937-1.7,3.343,3.343,0,0,0-.031-.346,1.6,1.6,0,0,0-.751-1.144,11.424,11.424,0,0,0-1.666-.842,13.014,13.014,0,0,1-1.876-.956A2.445,2.445,0,0,1,.542.92,2.514,2.514,0,0,1,2.351.009,2.842,2.842,0,0,1,4.73.866c.03.032.065.06.112.1A1.373,1.373,0,0,0,5.193.181h.334V2.768H5.208c-.115-.3-.21-.611-.345-.9A2.4,2.4,0,0,0,3.192.457,2.289,2.289,0,0,0,2,.493a1.47,1.47,0,0,0-.984,1.66,1.765,1.765,0,0,0,.714,1.12,8.677,8.677,0,0,0,1.511.848c.556.259,1.109.525,1.662.793a3.771,3.771,0,0,1,.369.214A2.346,2.346,0,0,1,6.42,7.284a2.8,2.8,0,0,1-.382,1.454,2.575,2.575,0,0,1-1.43,1.145A3.775,3.775,0,0,1,1.944,9.8a3.24,3.24,0,0,1-1.035-.7c-.062-.061-.128-.118-.2-.183" transform="translate(0 0)" fill="#868686"/>
      <path id="Path_23267" data-name="Path 23267" d="M421.184,8.929a2.472,2.472,0,0,0-.317.861h-.38V6.632h.373c.03.117.061.234.09.352a4.863,4.863,0,0,0,.593,1.48,2.371,2.371,0,0,0,1.429,1.092,2.894,2.894,0,0,0,1.583-.029,1.813,1.813,0,0,0,1.254-2.046,1.754,1.754,0,0,0-.865-1.338,13.148,13.148,0,0,0-1.6-.794,12.01,12.01,0,0,1-1.831-.929,2.327,2.327,0,0,1-.945-2.557A2.379,2.379,0,0,1,422.555.051a3.545,3.545,0,0,1,1.222.028A2.587,2.587,0,0,1,425.124.8c.062.06.127.119.2.183a1.484,1.484,0,0,0,.353-.79h.285a18.8,18.8,0,0,1,.018,2.591h-.306c-.034-.106-.073-.222-.109-.338a3.012,3.012,0,0,0-.907-1.482A2.323,2.323,0,0,0,422.6.47a1.456,1.456,0,0,0-1.082,1.8,1.68,1.68,0,0,0,.648.982,8.979,8.979,0,0,0,1.652.923q.787.366,1.565.749a3.766,3.766,0,0,1,.48.29,2.311,2.311,0,0,1,1.031,1.949,2.728,2.728,0,0,1-.709,2.011,2.756,2.756,0,0,1-1.652.854,3.7,3.7,0,0,1-2.387-.346,3.948,3.948,0,0,1-.961-.756" transform="translate(-348.853 -0.009)" fill="#868686"/>
      <path id="Path_23268" data-name="Path 23268" d="M305.072,21.741v.283c-.089.006-.167.015-.245.015-.517,0-1.034-.006-1.551,0a.529.529,0,0,1-.4-.161,10.2,10.2,0,0,1-1.111-1.332c-.417-.556-.831-1.113-1.263-1.657-.268-.339-.413-.376-.867-.318a.257.257,0,0,0-.022.073q.005.922.014,1.844c0,.187,0,.374.013.561.019.434.184.61.62.643.194.015.389,0,.6,0v.323h-3.511v-.3l.228-.015c.089,0,.179,0,.267-.012.441-.049.594-.208.615-.653.011-.24.011-.481.011-.722q0-2.1,0-4.2a5.316,5.316,0,0,0-.019-.534c-.037-.361-.168-.487-.526-.511-.167-.012-.336,0-.522,0v-.339a.964.964,0,0,1,.138-.026c.926-.03,1.851-.068,2.777-.084a4.455,4.455,0,0,1,1.63.238,2.958,2.958,0,0,1,.525.258,1.675,1.675,0,0,1-.122,2.935,5.291,5.291,0,0,1-.746.28c-.074.027-.153.041-.25.066a11.346,11.346,0,0,1,1.541,1.793c.214.273.436.541.669.8a2,2,0,0,0,1.393.706.5.5,0,0,1,.078.013c.008,0,.014.009.039.025m-5.453-3.521a7.723,7.723,0,0,0,1.458-.138,1.148,1.148,0,0,0,.862-.858,2.277,2.277,0,0,0-.03-1.314,1.129,1.129,0,0,0-.868-.818,4.438,4.438,0,0,0-1.219-.106,1.694,1.694,0,0,0-.2.035Z" transform="translate(-246.691 -12.135)" fill="#868686"/>
      <path id="Path_23269" data-name="Path 23269" d="M525.656,18.125a3.631,3.631,0,0,1-.387,1.736,3.439,3.439,0,0,1-2.005,1.744,4.614,4.614,0,0,1-3.068.018,3.456,3.456,0,0,1-2.439-2.934,4.237,4.237,0,0,1,.1-1.8,3.4,3.4,0,0,1,2.183-2.325,4.408,4.408,0,0,1,3.584.132,3.453,3.453,0,0,1,2.035,3.429m-1.306.177a5.269,5.269,0,0,0-.374-2.258,2.252,2.252,0,0,0-1.521-1.319,3.144,3.144,0,0,0-1.219-.064,2.222,2.222,0,0,0-1.725,1.122,3.215,3.215,0,0,0-.351.919,6.612,6.612,0,0,0-.095,2.18,3.929,3.929,0,0,0,.3,1.186,2.217,2.217,0,0,0,1.463,1.306,3.2,3.2,0,0,0,.577.107,2.4,2.4,0,0,0,2.722-1.77,4.906,4.906,0,0,0,.221-1.412" transform="translate(-429.508 -11.82)" fill="#868686"/>
      <path id="Path_23270" data-name="Path 23270" d="M115.086,18.1a3.629,3.629,0,0,1-.445,1.9,3.438,3.438,0,0,1-2.016,1.655,4.584,4.584,0,0,1-3.168-.068,3.487,3.487,0,0,1-2.3-3.159,4.09,4.09,0,0,1,.143-1.561,3.465,3.465,0,0,1,2.343-2.34,4.485,4.485,0,0,1,3.216.1,3.441,3.441,0,0,1,2.231,3.307c0,.053,0,.107,0,.16m-6.637-.078a5.974,5.974,0,0,0,.158,1.508,2.554,2.554,0,0,0,.943,1.535,2.519,2.519,0,0,0,1.269.443,2.42,2.42,0,0,0,2.286-.874,2.551,2.551,0,0,0,.463-.925,5.908,5.908,0,0,0-.009-3.24,2.492,2.492,0,0,0-.821-1.286,2.591,2.591,0,0,0-1.8-.515,2.345,2.345,0,0,0-2.277,1.8,5.437,5.437,0,0,0-.21,1.556" transform="translate(-88.884 -11.847)" fill="#868686"/>
      <path id="Path_23271" data-name="Path 23271" d="M167.842,21.9v.264c-.194.054-3.055.066-3.4.013,0-.047-.006-.1-.006-.15s0-.085.008-.134c.2-.016.387-.019.569-.049a.5.5,0,0,0,.5-.526c.022-.248.039-.5.04-.746q.006-2.072,0-4.143c0-.24-.019-.48-.043-.719-.03-.3-.153-.431-.456-.457-.193-.017-.388,0-.6,0v-.336a.952.952,0,0,1,.169-.033c.943-.02,1.887-.046,2.83-.051a5.094,5.094,0,0,1,1.3.15,2.133,2.133,0,0,1,.933.5,1.614,1.614,0,0,1,.538,1.127,2.279,2.279,0,0,1-.076.847,1.769,1.769,0,0,1-1.47,1.274,9.359,9.359,0,0,1-1.625.077h-.324c-.021.036-.029.043-.029.05q0,1.189.008,2.377a1.081,1.081,0,0,0,.031.211.445.445,0,0,0,.386.388c.228.033.459.049.72.075M166.7,18.441a6.269,6.269,0,0,0,1.126-.043,1.255,1.255,0,0,0,1.066-.852,2.2,2.2,0,0,0,.069-1.237,1.27,1.27,0,0,0-1.082-1.072c-.044-.009-.087-.02-.131-.027a5.365,5.365,0,0,0-1.049-.022Z" transform="translate(-136.425 -12.298)" fill="#868686"/>
      <path id="Path_23272" data-name="Path 23272" d="M209.764,18.748c0,.476,0,.912,0,1.349,0,.383.006.766.035,1.148s.168.514.55.563c.183.023.37.021.568.03v.3h-3.38c-.008-.055-.018-.105-.02-.156a1.319,1.319,0,0,1,.009-.145c.115-.008.22-.012.324-.023a3.408,3.408,0,0,0,.343-.044.456.456,0,0,0,.384-.422,4.426,4.426,0,0,0,.042-.559q.005-2.313,0-4.627a4.156,4.156,0,0,0-.039-.532c-.039-.292-.153-.4-.45-.435-.115-.013-.231-.01-.347-.015l-.251-.012v-.32c.075-.008.152-.022.228-.024.775-.022,1.549-.051,2.324-.059a6.839,6.839,0,0,1,1.751.159,2.1,2.1,0,0,1,.81.4,1.793,1.793,0,0,1,.609,1.924,1.686,1.686,0,0,1-1.381,1.392,7.164,7.164,0,0,1-1.088.1c-.328.017-.657,0-1.023,0m.013-.348a7.82,7.82,0,0,0,1.109-.044,1.271,1.271,0,0,0,1.121-.963A2.245,2.245,0,0,0,212,16.1a1.2,1.2,0,0,0-.764-.833,3.472,3.472,0,0,0-1.456-.124Z" transform="translate(-172.166 -12.252)" fill="#868686"/>
      <path id="Path_23273" data-name="Path 23273" d="M576.358,15.246V14.93a.749.749,0,0,1,.156-.039c.961-.02,1.922-.054,2.883-.047a6.871,6.871,0,0,1,1.242.151,2.017,2.017,0,0,1,.636.263,1.683,1.683,0,0,1,.86,1.558,1.8,1.8,0,0,1-1.091,1.775,2.884,2.884,0,0,1-.881.189c-.425.036-.854.024-1.281.031-.087,0-.174,0-.272,0a1.176,1.176,0,0,0-.022.152q.009,1.135.02,2.271c0,.044,0,.089.008.133a.48.48,0,0,0,.425.474c.218.038.44.045.68.068v.272c-.189.048-3.055.058-3.361.007l-.015-.268c.069-.012.126-.025.184-.031s.125,0,.187-.008c.521-.024.683-.176.712-.7.018-.311.019-.623.019-.935q0-2.031-.01-4.062a3.291,3.291,0,0,0-.045-.531c-.044-.262-.138-.348-.4-.389a2.925,2.925,0,0,0-.346-.021c-.087,0-.174,0-.286,0m2.24,3.219c.187,0,.347.006.506,0,.2-.01.39-.028.584-.048a1.276,1.276,0,0,0,1.159-1.02,2.2,2.2,0,0,0-.049-1.289,1.161,1.161,0,0,0-.63-.724,3.139,3.139,0,0,0-1.571-.172Z" transform="translate(-478.159 -12.314)" fill="#868686"/>
      <path id="Path_23274" data-name="Path 23274" d="M254.625,20.027c-.016-.172-.029-.339-.047-.505-.041-.38-.167-.537-.545-.566s-.764-.006-1.171-.006a1.157,1.157,0,0,0-.025.184c.008.748.015,1.5.032,2.244a3.57,3.57,0,0,0,.063.5.384.384,0,0,0,.308.33,1.314,1.314,0,0,0,.315.057c.444,0,.889-.006,1.333-.029a1.4,1.4,0,0,0,1.033-.592,3.087,3.087,0,0,0,.523-1.072c.026-.085.05-.17.08-.272h.339c-.052.763-.1,1.52-.156,2.295h-6.062v-.3c.133-.005.265-.007.4-.017.457-.032.643-.212.65-.674q.025-1.617.026-3.234c0-.65-.011-1.3-.021-1.951a1.99,1.99,0,0,0-.034-.372.411.411,0,0,0-.412-.383c-.148-.021-.3-.023-.457-.034v-.308h5.225c.09.606.129,1.222.18,1.856h-.318c-.024-.083-.044-.169-.075-.25a6.308,6.308,0,0,0-.263-.668.933.933,0,0,0-.793-.558c-.542-.031-1.085-.04-1.627-.057-.086,0-.173,0-.273,0v2.933a5.27,5.27,0,0,0,1.357-.065.458.458,0,0,0,.368-.437c.02-.176.031-.353.049-.558l.28-.015a17.912,17.912,0,0,1,.032,2.526Z" transform="translate(-207.946 -12.711)" fill="#868686"/>
      <path id="Path_23275" data-name="Path 23275" d="M353.7,15.126l.236-.559h.279v1.941h-.3c-.036-.11-.067-.211-.1-.311a2.308,2.308,0,0,0-.623-.983,1.646,1.646,0,0,0-1.585-.409,1.051,1.051,0,0,0-.5,1.715,2.733,2.733,0,0,0,.68.508c.445.242.912.444,1.367.667.216.106.429.217.639.333a1.948,1.948,0,0,1,1.055,1.872,2.035,2.035,0,0,1-1.906,2.068,2.694,2.694,0,0,1-2.371-.816c-.174.17-.156.422-.263.622h-.3V19.4h.321c.037.136.073.272.11.408a3.355,3.355,0,0,0,.5,1.087,1.893,1.893,0,0,0,2.2.62,1.362,1.362,0,0,0,.838-1.46,1.166,1.166,0,0,0-.525-.8,9.85,9.85,0,0,0-.932-.518c-.437-.219-.89-.409-1.324-.634a1.989,1.989,0,0,1-1.089-1.319,1.829,1.829,0,0,1,1.757-2.372,2.182,2.182,0,0,1,1.7.63.627.627,0,0,0,.061.052.721.721,0,0,0,.078.034" transform="translate(-290.382 -11.955)" fill="#868686"/>
      <path id="Path_23276" data-name="Path 23276" d="M472.671,22.323v.308c-1.216,0-2.424,0-3.659,0-.005-.11-.01-.2-.016-.317.175-.007.333-.011.49-.021a2.357,2.357,0,0,0,.318-.035.479.479,0,0,0,.446-.485,6.312,6.312,0,0,0,.043-.666q.005-2.581,0-5.162v-.268a1.512,1.512,0,0,0-.156-.018c-.481,0-.963.01-1.444.007a.843.843,0,0,0-.847.573c-.093.229-.146.475-.217.713-.015.05-.025.1-.041.166h-.324c.014-.6.029-1.186.043-1.779h7.1v1.78l-.273.014c-.034-.145-.061-.273-.094-.4a1.965,1.965,0,0,0-.287-.685.773.773,0,0,0-.621-.366c-.56-.01-1.12,0-1.7,0-.005.066-.016.135-.016.2q0,2.688,0,5.376a4.7,4.7,0,0,0,.042.559.458.458,0,0,0,.426.442c.246.029.494.042.774.064" transform="translate(-387.664 -12.728)" fill="#868686"/>
    </g>
    <g id="Group_23452" data-name="Group 23452" transform="translate(43.432 -26.751)">
      <g id="Group_23451" data-name="Group 23451" clip-path="url(#clip-path-2)">
        <path id="Path_23277" data-name="Path 23277" d="M23.27,27.239c-.082.611-.116,1.135-.226,1.642a7.673,7.673,0,0,1-6.476,5.981A13.164,13.164,0,0,1,8.531,33.9c-.734-.338-1.464-.691-2.217-.979A8.96,8.96,0,0,0,4.5,32.4,2.937,2.937,0,0,0,1.18,34.239c-.144.312-.092.819-.653.805A97.486,97.486,0,0,1,.4,23.086c.273-.175.456-.091.54.211.066.237.114.479.161.72a11.463,11.463,0,0,0,4.825,7.411,17.2,17.2,0,0,0,6.39,2.9,7.653,7.653,0,0,0,4.859-.389A4.876,4.876,0,0,0,19.7,31.513a3.967,3.967,0,0,0-1.19-5.174,10.98,10.98,0,0,0-3.666-1.812C11.895,23.6,8.929,22.72,6,21.731A14.526,14.526,0,0,1,2.88,20.224c-3.984-2.536-3.359-7.138-.994-9.549A9.162,9.162,0,0,1,7.281,8.04c.83-.121,1.672-.154,2.585-.234a3.557,3.557,0,0,0,.073-.464c.113-3.2,1.882-5.226,4.68-6.419a12,12,0,0,1,9.737.235c1.065.453,2.089,1.005,3.129,1.519,1.848.914,2.375.718,3.233-1.181a2.833,2.833,0,0,1,.451-.534,53.3,53.3,0,0,1,.088,9.029c-.539.178-.537-.3-.67-.578C30,8.176,29.5,6.9,28.841,5.7,27.118,2.568,21.5-.289,17.172.866a6.166,6.166,0,0,0-3.006,1.656A3.749,3.749,0,0,0,14.3,7.984a7.877,7.877,0,0,0,3.02,1.68c1.468.485,2.966.876,4.437,1.352,2.137.692,4.271,1.4,6.387,2.155a9.909,9.909,0,0,1,1.866.974c2.957,1.843,3.487,4.064,2.929,6.933a7.178,7.178,0,0,1-4.984,5.529,10.27,10.27,0,0,1-3.512.632c-.379,0-.757,0-1.173,0m-.06-.641a6.6,6.6,0,0,0,4.9-1.084,4.263,4.263,0,0,0-.037-7.259,13.851,13.851,0,0,0-3.118-1.5c-2.055-.72-4.163-1.287-6.232-1.971a47.6,47.6,0,0,1-4.841-1.771,6.582,6.582,0,0,1-3.835-4.25,1.182,1.182,0,0,0-.193-.28A7.6,7.6,0,0,0,5.226,9.573a3.883,3.883,0,0,0,0,6.891A15.452,15.452,0,0,0,8.1,17.744c1.428.489,2.9.856,4.344,1.29a36.371,36.371,0,0,1,7.014,2.576,6.35,6.35,0,0,1,3.75,4.989" transform="translate(0 0)" fill="#868686"/>
      </g>
    </g>
  </g>
</svg>
