<svg xmlns="http://www.w3.org/2000/svg" width="11.718" height="10.161" viewBox="0 0 11.718 10.161">
  <g id="Group_15357" data-name="Group 15357" transform="translate(0 10.161) rotate(-90)">
    <g id="next" transform="translate(0 11.718) rotate(-90)">
      <g id="Group_11589" data-name="Group 11589" transform="translate(0 0)">
        <path id="Path_15599" data-name="Path 15599" d="M5.108,5.1.639,9.552a.374.374,0,0,1-.529-.53l4.2-4.191L.11.64A.374.374,0,0,1,.639.109L5.108,4.565a.374.374,0,0,1,0,.53Z" transform="translate(0.25 0.25)" fill="#a6a9b2"/>
      </g>
    </g>
    <g id="Group_15358" data-name="Group 15358">
      <path id="Path_15599_-_Outline" data-name="Path 15599 - Outline" d="M.624,10.161a.626.626,0,0,0,.441-.182L5.534,5.523a.621.621,0,0,0,.184-.442.628.628,0,0,0-.184-.442L1.065.182a.624.624,0,0,0-.882.884L4.209,5.081.184,9.095a.624.624,0,0,0,.441,1.067ZM.624.5A.124.124,0,0,1,.712.536L5.181,4.992a.124.124,0,0,1,0,.176L.712,9.625a.124.124,0,0,1-.176-.176l4.38-4.368L.536.713A.124.124,0,0,1,.624.5Z" transform="translate(0 11.718) rotate(-90)" fill="#a6a9b2"/>
      <g id="next-2" data-name="next" transform="translate(0 5.718) rotate(-90)">
        <g id="Group_11589-2" data-name="Group 11589" transform="translate(0 0)">
          <path id="Path_15599-2" data-name="Path 15599" d="M5.108,5.1.639,9.552a.374.374,0,0,1-.529-.53l4.2-4.191L.11.64A.374.374,0,0,1,.639.109L5.108,4.565a.374.374,0,0,1,0,.53Z" transform="translate(0.25 0.25)" fill="#727682"/>
          <path id="Path_15599_-_Outline-2" data-name="Path 15599 - Outline" d="M.624,10.161a.626.626,0,0,0,.441-.182L5.534,5.523a.621.621,0,0,0,.184-.442.628.628,0,0,0-.184-.442L1.065.182a.624.624,0,0,0-.882.884L4.209,5.081.184,9.095a.624.624,0,0,0,.441,1.067ZM.624.5A.124.124,0,0,1,.712.536L5.181,4.992a.124.124,0,0,1,0,.176L.712,9.625a.124.124,0,0,1-.176-.176l4.38-4.368L.536.713A.124.124,0,0,1,.624.5Z" fill="#727682"/>
        </g>
      </g>
    </g>
  </g>
</svg>
