<svg id="Group_11987" data-name="Group 11987" xmlns="http://www.w3.org/2000/svg" width="57.84" height="34">
    <defs>
        <style>
            .cls-4{stroke:none}
        </style>
    </defs>
    <g id="Rectangle_7954" data-name="Rectangle 7954" style="stroke:#44c8f5;stroke-width:1.2px;fill:#fff">
        <rect class="cls-4" width="48" height="34" rx="5"/>
        <rect x=".6" y=".6" width="46.8" height="32.8" rx="4.4" style="fill:none"/>
    </g>
    <g id="Group_11985" data-name="Group 11985" transform="translate(8.906 6)">
        <g id="_6271700671558096452" data-name="6271700671558097000" transform="translate(0 2.174)">
            <path id="Path_16645" data-name="Path 16645" d="M28.571 20.89C30.5 18.662 33 15.583 33 10.276a.717.717 0 0 0-1.429 0A13.076 13.076 0 0 1 28 19.383a13.843 13.843 0 0 1-.714-4.521.717.717 0 0 0-1.429 0 4.482 4.482 0 0 1-.714 2.49c-.286 0-.643-.917-.714-1.834a.684.684 0 0 0-.714-.59.638.638 0 0 0-.714.59c-.214 1.114-.786 2.686-1.429 2.686-.286 0-.429-.066-.5-.2a1.559 1.559 0 0 1-.286-1.048c0-.262.071-.524.071-.786a.671.671 0 0 0-.643-.655.77.77 0 0 0-.786.524 4.8 4.8 0 0 0-.071.721c-.143 1.114-.571 3.341-2.071 3.341a1.04 1.04 0 0 1-1-.459 2.3 2.3 0 0 1 0-2.162v-.066c.071-.066.071-.2.143-.262a2.514 2.514 0 0 1 2.286-1.638.658.658 0 1 0 0-1.31c-3 0-3.857 2.686-4.714 5.241-1 3.145-1.929 5.241-4.571 5.241-3.643 0-5-4.324-5-7.207 0-5.634 3.357-9.172 6.429-9.172a3.361 3.361 0 0 1 2.929 1.572.735.735 0 0 0 .929.328.63.63 0 0 0 .357-.852A4.664 4.664 0 0 0 10.857 7C7 7 3 10.931 3 17.483 3 24.231 7.214 26 9.429 26c3.643 0 4.857-2.948 5.786-5.569a2.682 2.682 0 0 0 2.071.983 3.186 3.186 0 0 0 3-2.359 2.113 2.113 0 0 0 1.286.393 2.605 2.605 0 0 0 2.143-1.572 1.649 1.649 0 0 0 1.429.786 1.579 1.579 0 0 0 1.071-.459c.214.917.5 1.769.714 2.49-1 1.179-1.786 2.162-1.786 3.341A2.023 2.023 0 0 0 27.286 26a2.1 2.1 0 0 0 2.143-1.966 7.94 7.94 0 0 0-.786-2.817c0-.131-.072-.196-.072-.327zm-1.286 3.8a.644.644 0 0 1-.714-.655 3.3 3.3 0 0 1 .929-1.9 6.084 6.084 0 0 1 .5 1.9.723.723 0 0 1-.714.655z" transform="translate(-3 -7)" style="fill:#039;stroke:#fff;stroke-width:.2px"/>
        </g>
        <g id="Path_16657" data-name="Path 16657" style="fill:#fff">
            <path class="cls-4" d="M6.045 20.078A6.652 6.652 0 0 1-.6 13.433V8.73c0-.7.57-1.271 1.272-1.271.7 0 1.271.57 1.271 1.271v2.015a.072.072 0 0 0 .144 0V.672c0-.702.57-1.272 1.271-1.272S4.63-.03 4.63.672V8.06a.072.072 0 0 0 .143 0V6.045c0-.701.57-1.272 1.272-1.272.701 0 1.271.57 1.271 1.272V8.73a.072.072 0 0 0 .144 0V6.716c0-.7.57-1.271 1.271-1.271.702 0 1.272.57 1.272 1.271v2.687a.072.072 0 0 0 .143 0V7.388c0-.701.57-1.272 1.272-1.272.701 0 1.272.57 1.272 1.272v6.045a6.601 6.601 0 0 1-1.947 4.698 6.601 6.601 0 0 1-4.698 1.947z" transform="rotate(-30 24.823 -47.52)"/>
            <path d="M6.045 19.478a6.045 6.045 0 0 0 6.045-6.045V7.388a.672.672 0 1 0-1.344 0v2.015a.672.672 0 0 1-1.343 0V6.716a.672.672 0 1 0-1.343 0v2.015a.672.672 0 0 1-1.344 0V6.045a.672.672 0 1 0-1.343 0V8.06a.672.672 0 0 1-1.343 0V.672a.672.672 0 1 0-1.343 0v10.074a.672.672 0 0 1-1.344 0V8.731a.672.672 0 0 0-1.343 0v4.702a6.045 6.045 0 0 0 6.045 6.045m0 1.2c-3.995 0-7.245-3.25-7.245-7.245V8.73a1.874 1.874 0 0 1 2.687-1.684V.672c0-1.032.84-1.872 1.871-1.872C4.39-1.2 5.23-.36 5.23.672V4.36a1.873 1.873 0 0 1 2.464.8 1.873 1.873 0 0 1 2.687.672 1.874 1.874 0 0 1 2.91 1.557l-.001 6.044a7.197 7.197 0 0 1-2.122 5.123 7.197 7.197 0 0 1-5.123 2.122z" style="fill:#039;stroke:none" transform="rotate(-30 24.823 -47.52)"/>
        </g>
    </g>
</svg>
