<svg xmlns="http://www.w3.org/2000/svg" width="290" height="70" viewBox="0 0 290 70">
  <g id="slider1" transform="translate(-13.738 -504)">
    <rect id="Rectangle_9946" data-name="Rectangle 9946" width="290" height="70" rx="35" transform="translate(13.738 504)" fill="#e1e5e9"/>
    <circle id="Ellipse_1300" data-name="Ellipse 1300" cx="27" cy="27" r="27" transform="translate(241.738 512)" fill="#c4c4c4" opacity="0.3"/>
    <circle id="Ellipse_1301" data-name="Ellipse 1301" cx="27" cy="27" r="27" transform="translate(21.738 512)" fill="#c4c4c4" opacity="0.3"/>
    <g id="Group_21146" data-name="Group 21146">
      <g id="Group_20273" data-name="Group 20273" transform="translate(154.238 531)">
        <path id="Union_20" data-name="Union 20" d="M7.3.292.291,7.3a.994.994,0,0,0,0,1.406L7.3,15.709a.994.994,0,1,0,1.407-1.4L2.4,8,8.709,1.7A.994.994,0,0,0,7.3.292Z" transform="translate(9 16) rotate(180)" fill="#44c8f5"/>
      </g>
      <g id="Group_21142" data-name="Group 21142" transform="translate(167.238 531)" opacity="0.4">
        <path id="Union_20-2" data-name="Union 20" d="M7.3.292.291,7.3a.994.994,0,0,0,0,1.406L7.3,15.709a.994.994,0,1,0,1.407-1.4L2.4,8,8.709,1.7A.994.994,0,0,0,7.3.292Z" transform="translate(9 16) rotate(180)" fill="#44c8f5"/>
      </g>
      <g id="Group_21145" data-name="Group 21145" transform="translate(180.238 531)" opacity="0.2">
        <path id="Union_20-3" data-name="Union 20" d="M7.3.292.291,7.3a.994.994,0,0,0,0,1.406L7.3,15.709a.994.994,0,1,0,1.407-1.4L2.4,8,8.709,1.7A.994.994,0,0,0,7.3.292Z" transform="translate(9 16) rotate(180)" fill="#44c8f5"/>
      </g>
      <g id="Group_21143" data-name="Group 21143" transform="translate(141.238 531)" opacity="0.4">
        <path id="Union_20-4" data-name="Union 20" d="M7.3.292.291,7.3a.994.994,0,0,0,0,1.406L7.3,15.709a.994.994,0,1,0,1.407-1.4L2.4,8,8.709,1.7A.994.994,0,0,0,7.3.292Z" transform="translate(9 16) rotate(180)" fill="#44c8f5"/>
      </g>
      <g id="Group_21144" data-name="Group 21144" transform="translate(128.238 531)" opacity="0.2">
        <path id="Union_20-5" data-name="Union 20" d="M7.3.292.291,7.3a.994.994,0,0,0,0,1.406L7.3,15.709a.994.994,0,1,0,1.407-1.4L2.4,8,8.709,1.7A.994.994,0,0,0,7.3.292Z" transform="translate(9 16) rotate(180)" fill="#44c8f5"/>
      </g>
    </g>
  </g>
</svg>
