<svg id="Component_68_1" data-name="Component 68 – 1" xmlns="http://www.w3.org/2000/svg" width="15.036" height="14.434" viewBox="0 0 15.036 14.434">
    <defs>
        <style>
            .cls-1{fill:#039}
        </style>
    </defs>
    <path id="Path_409" data-name="Path 409" class="cls-1" d="M654.249 208h-1.8a2.407 2.407 0 0 0-2.406 2.406v1.8a2.407 2.407 0 0 0 2.406 2.406h1.8a2.407 2.407 0 0 0 2.406-2.406v-1.8a2.407 2.407 0 0 0-2.406-2.406zm1.2 4.21a1.2 1.2 0 0 1-1.2 1.2h-1.8a1.2 1.2 0 0 1-1.2-1.2v-1.8a1.2 1.2 0 0 1 1.2-1.2h1.8a1.2 1.2 0 0 1 1.2 1.2z" transform="translate(-650.039 -208)"/>
    <path id="Path_410" data-name="Path 410" class="cls-1" d="M654.249 221h-1.8a2.407 2.407 0 0 0-2.406 2.406v1.8a2.407 2.407 0 0 0 2.406 2.406h1.8a2.407 2.407 0 0 0 2.406-2.406v-1.8a2.407 2.407 0 0 0-2.406-2.406zm1.2 4.21a1.2 1.2 0 0 1-1.2 1.2h-1.8a1.2 1.2 0 0 1-1.2-1.2v-1.8a1.2 1.2 0 0 1 1.2-1.2h1.8a1.2 1.2 0 0 1 1.2 1.2z" transform="translate(-650.039 -213.182)"/>
    <path id="Path_426" data-name="Path 426" class="cls-1" d="m670.027 219.476-1.379 1.377V209.6l1.379 1.377a.6.6 0 0 0 .426.176.6.6 0 0 0 .555-.372.584.584 0 0 0 .046-.23.6.6 0 0 0-.176-.425l-1.556-1.553a1.8 1.8 0 0 0-2.55 0l-1.556 1.553a.6.6 0 0 0-.13.656.593.593 0 0 0 .13.195.6.6 0 0 0 .425.177.6.6 0 0 0 .425-.176l1.379-1.377v11.25l-1.379-1.377a.6.6 0 0 0-.195-.13.607.607 0 0 0-.23-.046.6.6 0 0 0-.23.046.6.6 0 0 0-.195.981l1.556 1.553a1.8 1.8 0 0 0 2.55 0l1.556-1.553a.6.6 0 0 0 .176-.425.582.582 0 0 0-.046-.23.594.594 0 0 0-.325-.325.592.592 0 0 0-.23-.046.6.6 0 0 0-.23.046.6.6 0 0 0-.196.131z" transform="translate(-656.017 -208.02)"/>
</svg>
