<svg xmlns="http://www.w3.org/2000/svg" width="39.542" height="39.528" viewBox="0 0 39.542 39.528">
  <g id="spinnerWheelArrow" transform="translate(-6146.229 13306)">
    <g id="Group_21018" data-name="Group 21018" transform="translate(5986 -13580)">
      <g id="Polygon_13" data-name="Polygon 13" transform="translate(195 310) rotate(180)" fill="#44c8f5">
        <path d="M 26.76395034790039 33.00000762939453 L 26.76393127441406 33.00000762939453 L 3.236070871353149 32.99999618530273 C 1.490510940551758 32.99999618530273 -0.09949904680252075 32.11351776123047 -1.017189025878906 30.62865829467773 C -1.934879064559937 29.14379692077637 -2.016709089279175 27.3252067565918 -1.236069083213806 25.76393699645996 L 10.52786064147949 2.236067295074463 C 11.38029098510742 0.5312073826789856 13.09392070770264 -0.5278626084327698 15.00000095367432 -0.5278626084327698 C 16.90608024597168 -0.5278626084327698 18.61970138549805 0.5312073826789856 19.47213172912598 2.236067295074463 L 31.23607063293457 25.76393699645996 C 32.0167121887207 27.3252067565918 31.93488121032715 29.1437873840332 31.0172004699707 30.62863731384277 C 30.09951019287109 32.11350631713867 28.5095100402832 32.99999618530273 26.76395034790039 33.00000762939453 Z" stroke="none"/>
        <path d="M 14.99999618530273 2.472131729125977 C 14.28983116149902 2.472131729125977 13.57966613769531 2.840658187866211 13.21114158630371 3.577707290649414 L 1.447210311889648 27.10557746887207 C 0.7823104858398438 28.43537712097168 1.749300003051758 29.99999809265137 3.23607063293457 29.99999809265137 L 26.76393127441406 29.99999809265137 C 28.25070190429688 29.99999809265137 29.21769142150879 28.43537712097168 28.55279159545898 27.10557746887207 L 16.78885078430176 3.577707290649414 C 16.42032623291016 2.840658187866211 15.71016120910645 2.472131729125977 14.99999618530273 2.472131729125977 M 14.99999141693115 -3.527873992919922 C 18.04971122741699 -3.527873992919922 20.79150009155273 -1.833362579345703 22.1554012298584 0.8943977355957031 L 33.91934967041016 24.42229843139648 C 35.16836929321289 26.92033767700195 35.03745269775391 29.8300666809082 33.56914138793945 32.20584869384766 C 32.100830078125 34.58162689208984 29.55683135986328 35.99999618530273 26.76393127441406 35.99999618530273 L 3.23607063293457 35.99999618530273 C 0.4431705474853516 35.99999618530273 -2.100828170776367 34.58162689208984 -3.56913948059082 32.20584869384766 C -5.037450790405273 29.8300666809082 -5.168367385864258 26.92033767700195 -3.919347763061523 24.42229843139648 L 7.844581604003906 0.8944282531738281 C 9.208440780639648 -1.833332061767578 11.95024108886719 -3.527873992919922 14.99999141693115 -3.527873992919922 Z" stroke="none" fill="#edf1f5"/>
      </g>
    </g>
  </g>
</svg>
