<svg xmlns="http://www.w3.org/2000/svg" width="60" height="30" viewBox="0 0 60 30">
  <g id="Group_22223" data-name="Group 22223" transform="translate(-16 -450)">
    <g id="_Color" data-name="↳ 🎨 Color" transform="translate(16 450)" fill="none" stroke="rgba(0,0,0,0.12)" stroke-width="1">
      <rect width="60" height="30" rx="4" stroke="none"/>
      <rect x="0.5" y="0.5" width="59" height="29" rx="3.5" fill="none"/>
    </g>
    <g id="Group_14327" data-name="Group 14327" transform="translate(0 -80)">
      <path id="Path_17170" data-name="Path 17170" d="M662.488,1680.319a1.518,1.518,0,0,0-1.473-1.066h-2.1l-.637-1.988a1.539,1.539,0,0,0-.562-.778,1.55,1.55,0,0,0-2.389.778l-.637,1.988h-2.1a1.548,1.548,0,0,0-.912,2.8l1.707,1.249-.649,2.012a1.546,1.546,0,0,0,2.393,1.724l1.671-1.229,1.672,1.229a1.587,1.587,0,0,0,.911.3,1.549,1.549,0,0,0,1.48-1.071,1.541,1.541,0,0,0,0-.956l-.649-2.012,1.709-1.249a1.526,1.526,0,0,0,.558-1.733Z" transform="translate(-601.984 -1137.19)" fill="#727682"/>
      <path id="Path_17172" data-name="Path 17172" d="M662.488,1680.319a1.518,1.518,0,0,0-1.473-1.066h-2.1l-.637-1.988a1.539,1.539,0,0,0-.562-.778,1.55,1.55,0,0,0-2.389.778l-.637,1.988h-2.1a1.548,1.548,0,0,0-.912,2.8l1.707,1.249-.649,2.012a1.546,1.546,0,0,0,2.393,1.724l1.671-1.229,1.672,1.229a1.587,1.587,0,0,0,.911.3,1.549,1.549,0,0,0,1.48-1.071,1.541,1.541,0,0,0,0-.956l-.649-2.012,1.709-1.249a1.526,1.526,0,0,0,.558-1.733Z" transform="translate(-620.048 -1137.19)" fill="#727682"/>
    </g>
  </g>
</svg>
