<svg xmlns="http://www.w3.org/2000/svg" width="34" height="33" viewBox="0 0 34 33">
  <g id="Status_Update" data-name="Status Update" transform="translate(-295 -1364)">
    <g id="Group_19952" data-name="Group 19952" transform="translate(295 1364)">
      <ellipse id="Ellipse_782" data-name="Ellipse 782" cx="17" cy="16.5" rx="17" ry="16.5" fill="#d9f5ff"/>
    </g>
    <g id="Status_update-2" data-name="Status update" transform="translate(11343.711 12526.628)">
      <g id="Group_26431" data-name="Group 26431" transform="translate(-11041.711 -11155.615)">
        <g id="Path_21445" data-name="Path 21445" transform="translate(2.364 0) rotate(3)" fill="none">
          <path d="M8.887-.012a8.747,8.747,0,0,1,8.875,8.647,8.8,8.8,0,0,1-8.9,8.671A8.747,8.747,0,0,1-.012,8.659,8.8,8.8,0,0,1,8.887-.012Z" stroke="none"/>
          <path d="M 8.899964332580566 0.9879913330078125 L 8.88874340057373 0.9880027770996094 C 4.538113594055176 0.9938812255859375 0.9938545227050781 4.435751914978027 0.9880046844482422 8.660521507263184 C 0.9852333068847656 10.6616325378418 1.772314071655273 12.55339241027832 3.204254150390625 13.9873218536377 C 4.69758415222168 15.48272228240967 6.702903747558594 16.30627250671387 8.850823402404785 16.30627250671387 L 8.862044334411621 16.30626106262207 C 13.21267318725586 16.30038261413574 16.75692367553711 12.85851192474365 16.76278305053711 8.63375186920166 C 16.76555442810059 6.632632255554199 15.97847366333008 4.740861892700195 14.54652404785156 3.306931495666504 C 13.05319404602051 1.811541557312012 11.04787445068359 0.9879913330078125 8.899964332580566 0.9879913330078125 M 8.899964332580566 -0.01200675964355469 C 13.80295562744141 -0.01200675964355469 17.7693977355957 3.856626510620117 17.76278305053711 8.6351318359375 C 17.75615310668945 13.41744232177734 13.77176380157471 17.29963111877441 8.863393783569336 17.30626106262207 C 3.955535888671875 17.31288146972656 -0.01862716674804688 13.44143199920654 -0.01199531555175781 8.65913200378418 C -0.005376815795898438 3.876821517944336 3.979023933410645 -0.005367279052734375 8.887393951416016 -0.01199722290039062 C 8.891288757324219 -0.01200294494628906 8.89607048034668 -0.01200675964355469 8.899964332580566 -0.01200675964355469 Z" stroke="none" fill="#0f4880"/>
        </g>
        <rect id="Rectangle_10470" data-name="Rectangle 10470" width="5.922" height="5.922" rx="2.961" transform="translate(0.312 2.51)" fill="#d9f5ff"/>
        <g id="Group_23866" data-name="Group 23866" transform="matrix(0.996, 0.087, -0.087, 0.996, 0.299, 7.282)">
          <path id="Path_21305" data-name="Path 21305" d="M2.045,0,0,2.954" transform="translate(0 0.498) rotate(-7)" fill="none" stroke="#0f4880" stroke-linecap="round" stroke-width="1"/>
          <path id="Path_21306" data-name="Path 21306" d="M0,0,2.045,2.954" transform="translate(2.03 0.249) rotate(-7)" fill="none" stroke="#0f4880" stroke-linecap="round" stroke-width="1"/>
        </g>
        <g id="Group_23867" data-name="Group 23867" transform="translate(7.982 6.713)">
          <g id="Group_13072" data-name="Group 13072" transform="translate(0 0)">
            <path id="Path_21300" data-name="Path 21300" d="M7.939,12.562l2.444,2.14,4.709-4.672" transform="translate(-7.939 -10.03)" fill="none" stroke="#0f4880" stroke-linecap="round" stroke-width="1"/>
          </g>
        </g>
      </g>
    </g>
  </g>
</svg>
