<svg id="Group_502" data-name="Group 502" xmlns="http://www.w3.org/2000/svg" width="17.06" height="15.874" viewBox="0 0 17.06 15.874">
  <path id="Path_926" data-name="Path 926" d="M16.786,153.338H15.755v-9.322a.958.958,0,0,0-.957-.957H13.569a.958.958,0,0,0-.957.957v9.322h-.626v-7.27a.958.958,0,0,0-.957-.957H9.8a.958.958,0,0,0-.957.957v7.27H8.217v-9.5a.958.958,0,0,0-.957-.957H6.031a.958.958,0,0,0-.957.957v9.5H4.448v-7.27a.958.958,0,0,0-.957-.957H2.262a.958.958,0,0,0-.957.957v7.27H.273a.274.274,0,0,0,0,.547H16.786a.274.274,0,0,0,0-.547Zm-12.885,0H1.852v-7.27a.411.411,0,0,1,.41-.41H3.491a.411.411,0,0,1,.41.41Zm3.769,0H5.621v-9.5a.411.411,0,0,1,.41-.41H7.26a.411.411,0,0,1,.41.41Zm3.769,0H9.39v-7.27a.411.411,0,0,1,.41-.41h1.229a.411.411,0,0,1,.41.41Zm3.769,0H13.159v-9.322a.411.411,0,0,1,.41-.41H14.8a.411.411,0,0,1,.41.41Zm0,0" transform="translate(0 -138.011)" fill="#44c8f5"/>
  <path id="Path_927" data-name="Path 927" d="M74.945,7.016l3.682-3.037L82.085,6.8a.273.273,0,0,0,.368-.02l5.182-5.266-.188,2.18a.274.274,0,0,0,.545.047L88.245.8a.275.275,0,0,0-.3-.3L85.012.757a.274.274,0,0,0,.047.545l2.2-.19-5.02,5.1L78.8,3.414a.274.274,0,0,0-.347,0L74.6,6.594a.274.274,0,1,0,.348.422Zm0,0" transform="translate(-71.95 -0.502)" fill="#039"/>
</svg>
