<svg data-name="Group 502" xmlns="http://www.w3.org/2000/svg" width="23.488" height="21.855" viewBox="0 0 23.488 21.855">
    <path data-name="Path 926" d="M23.111 157.279h-1.42v-12.834a1.319 1.319 0 0 0-1.318-1.318h-1.692a1.319 1.319 0 0 0-1.318 1.318v12.834H16.5v-10.01a1.319 1.319 0 0 0-1.318-1.318h-1.69a1.319 1.319 0 0 0-1.318 1.318v10.01h-.861V144.2A1.32 1.32 0 0 0 10 142.879H8.3a1.32 1.32 0 0 0-1.315 1.321v13.082h-.861v-10.01a1.319 1.319 0 0 0-1.318-1.318H3.114a1.319 1.319 0 0 0-1.314 1.315v10.01H.376a.377.377 0 0 0 0 .753h22.735a.377.377 0 0 0 0-.753zm-17.74 0H2.549v-10.01a.565.565 0 0 1 .565-.565h1.692a.565.565 0 0 1 .565.565zm5.189 0H7.738V144.2a.565.565 0 0 1 .565-.565H10a.565.565 0 0 1 .565.565zm5.189 0h-2.822v-10.01a.565.565 0 0 1 .565-.565h1.692a.565.565 0 0 1 .565.565zm5.189 0h-2.821v-12.834a.565.565 0 0 1 .565-.565h1.692a.565.565 0 0 1 .565.565zm0 0" transform="translate(0 -136.177)" style="fill:#44c8f5"/>
    <path data-name="Path 927" d="m75.114 9.471 5.069-4.181 4.762 3.877a.376.376 0 0 0 .506-.028l7.134-7.25-.259 3a.377.377 0 0 0 .75.065l.35-4.044a.379.379 0 0 0-.409-.41l-4.044.353a.377.377 0 0 0 .065.75l3.028-.262-6.912 7.025-4.735-3.855a.377.377 0 0 0-.478 0L74.634 8.89a.377.377 0 1 0 .479.581zm0 0" transform="translate(-70.991 -.502)" style="fill:#039"/>
</svg>
