<svg xmlns="http://www.w3.org/2000/svg" width="24.494" height="22.791" viewBox="0 0 24.494 22.791">
  <g id="Group_21579" data-name="Group 21579" transform="translate(-168.125 -184.209)">
    <g id="Group_502" data-name="Group 502" transform="translate(168.125 184.209)">
      <path id="Path_926" data-name="Path 926" d="M24.1,157.9H22.62V144.512a1.376,1.376,0,0,0-1.374-1.374H19.482a1.376,1.376,0,0,0-1.374,1.374V157.9h-.9V147.457a1.376,1.376,0,0,0-1.374-1.374H14.07a1.376,1.376,0,0,0-1.374,1.374V157.9h-.9V144.253a1.376,1.376,0,0,0-1.374-1.374H8.659a1.376,1.376,0,0,0-1.374,1.374V157.9h-.9V147.457a1.376,1.376,0,0,0-1.374-1.374H3.248a1.376,1.376,0,0,0-1.374,1.374V157.9H.393a.393.393,0,0,0,0,.785H24.1a.393.393,0,0,0,0-.785Zm-18.5,0H2.659V147.457a.59.59,0,0,1,.589-.589H5.012a.59.59,0,0,1,.589.589Zm5.411,0H8.07V144.253a.59.59,0,0,1,.589-.589h1.764a.59.59,0,0,1,.589.589Zm5.411,0H13.481V147.457a.59.59,0,0,1,.589-.589h1.764a.59.59,0,0,1,.589.589Zm5.411,0H18.893V144.512a.59.59,0,0,1,.589-.589h1.764a.59.59,0,0,1,.589.589Zm0,0" transform="translate(0 -135.89)" fill="#44c8f5"/>
      <path id="Path_927" data-name="Path 927" d="M75.14,9.855l5.286-4.36,4.966,4.043a.393.393,0,0,0,.528-.029l7.44-7.561-.271,3.13a.393.393,0,0,0,.783.068L94.236.928A.4.4,0,0,0,93.811.5L89.593.868a.393.393,0,0,0,.068.783l3.157-.273L85.61,8.7l-4.938-4.02a.393.393,0,0,0-.5,0L74.64,9.249a.393.393,0,1,0,.5.606Zm0,0" transform="translate(-70.84 -0.502)" fill="#039"/>
    </g>
  </g>
</svg>
