<svg xmlns="http://www.w3.org/2000/svg" width="9.448" height="11.178" viewBox="0 0 9.448 11.178">
  <path id="stopwatch" d="M8.359,3.436,8.8,3a.436.436,0,0,0-.617-.617l-.438.438A4.679,4.679,0,0,0,5.16,1.75V.872h.422a.436.436,0,0,0,0-.872H3.866a.436.436,0,0,0,0,.872h.422V1.75A4.724,4.724,0,1,0,8.359,3.436Zm-3.635,6.87A3.852,3.852,0,1,1,8.576,6.454a3.856,3.856,0,0,1-3.852,3.852ZM6.745,4.433a.436.436,0,0,1,0,.617L5.032,6.762a.436.436,0,0,1-.617-.617L6.128,4.433A.436.436,0,0,1,6.745,4.433Zm0,0" transform="translate(0)" fill="#039"/>
</svg>
