<svg xmlns="http://www.w3.org/2000/svg" width="24.183" height="24.183" viewBox="0 0 24.183 24.183">
  <g id="Group_21941" data-name="Group 21941" transform="translate(0.5 0.5)">
    <path id="Icon_material-subscriptions" data-name="Icon material-subscriptions" d="M23.864,9.955H5.318V7.637H23.864ZM21.546,3H7.637V5.318h13.91Zm4.637,11.591v9.273a2.325,2.325,0,0,1-2.318,2.318H5.318A2.325,2.325,0,0,1,3,23.864V14.591a2.325,2.325,0,0,1,2.318-2.318H23.864A2.325,2.325,0,0,1,26.183,14.591Zm-6.955,4.637-6.955-3.79v7.569Z" transform="translate(-3 -3)" fill="none" stroke="#44c8f5" stroke-width="1"/>
    <path id="Icon_material-subscriptions-2" data-name="Icon material-subscriptions" d="M19.228,19.228l-6.955-3.79v7.569Z" transform="translate(-3 -3)" fill="none" stroke="#039" stroke-width="1"/>
  </g>
</svg>
