<svg xmlns="http://www.w3.org/2000/svg" width="47" height="47" viewBox="0 0 47 47">
    <defs>
        <style>
            .cls-1{fill:#29ad00}
        </style>
    </defs>
    <g id="Group_12197" data-name="Group 12197" transform="translate(1 1)">
        <path id="Ellipse_601" data-name="Ellipse 601" class="cls-1" d="M22.5-1a23.506 23.506 0 0 1 9.148 45.153A23.506 23.506 0 0 1 13.352.847 23.354 23.354 0 0 1 22.5-1zm0 45a21.506 21.506 0 0 0 8.368-41.311 21.506 21.506 0 0 0-16.736 39.622A21.364 21.364 0 0 0 22.5 44z"/>
        <path id="Path_16635" data-name="Path 16635" class="cls-1" d="M14042.028 1044.625h-.057a1.5 1.5 0 0 1-1.093-.536l-5.442-6.5a1.5 1.5 0 0 1 2.3-1.927l4.378 5.225 10.211-10.457a1.5 1.5 0 0 1 2.146 2.1l-11.369 11.643a1.5 1.5 0 0 1-1.074.452z" transform="translate(-14021.896 -1015.048)"/>
    </g>
</svg>
