<svg xmlns="http://www.w3.org/2000/svg" width="16.667" height="26" viewBox="0 0 16.667 26">
  <g id="Group_20942" data-name="Group 20942" transform="translate(-17.667 -177)">
    <g id="Group_20938" data-name="Group 20938" transform="translate(0.404 74.005)">
      <path id="Path_4642" data-name="Path 4642" d="M7.8,7.79A6.2,6.2,0,1,0,9.775,6.458,6.2,6.2,0,0,0,7.8,7.79Zm4.4,9.576a5.177,5.177,0,1,1-.113-10.353H12.2Z" transform="translate(13.414 104.828)" fill="#039"/>
    </g>
    <path id="mobile-mail" d="M20.667,3a2,2,0,0,0-2-2H6A2,2,0,0,0,4,3V25a2,2,0,0,0,2,2H18.667a2,2,0,0,0,2-2Zm-3.921-.667L15.6,4.631A.666.666,0,0,1,15,5H9.667a.666.666,0,0,1-.6-.369l-1.149-2.3H6A.667.667,0,0,0,5.333,3V25A.667.667,0,0,0,6,25.667H18.667A.667.667,0,0,0,19.333,25V3a.667.667,0,0,0-.667-.667H16.745Z" transform="translate(13.667 176)" fill="#44c8f5" fill-rule="evenodd"/>
  </g>
</svg>
