<svg id="Group_23467" data-name="Group 23467" xmlns="http://www.w3.org/2000/svg" xmlns:xlink="http://www.w3.org/1999/xlink" width="90.714" height="58.855" viewBox="0 0 90.714 58.855">
  <defs>
    <clipPath id="clip-path">
      <rect id="Rectangle_10542" data-name="Rectangle 10542" width="90.714" height="58.855" fill="#904300"/>
    </clipPath>
  </defs>
  <g id="Group_23444" data-name="Group 23444" clip-path="url(#clip-path)">
    <path id="Path_23244" data-name="Path 23244" d="M278.076,120.4c-.047.285-.092.571-.142.856a7.053,7.053,0,0,1-1.331,3.078,20.673,20.673,0,0,1-3.184,3.432c.125.145.242.288.366.424.469.517.952,1.023,1.408,1.552a6.306,6.306,0,0,1,1.085,1.911,4.913,4.913,0,0,1,.175,2.441,4.308,4.308,0,0,1-.958,2.081,1.169,1.169,0,0,1-.664.5c-.012-.037-.039-.075-.032-.1a4.883,4.883,0,0,0-.557-3.454,13.616,13.616,0,0,0-2.128-3.006c-.51-.565-1.048-1.106-1.583-1.648a19.342,19.342,0,0,1-3.395-4.474,9.172,9.172,0,0,1-.456-8.073,9.821,9.821,0,0,1,2.667-3.661c.661-.593,1.35-1.155,2.041-1.743a9.9,9.9,0,0,0,1.885,1.891,30.708,30.708,0,0,1,2.673,2.549,7.908,7.908,0,0,1,1.941,3.612c.056.26.081.526.125.788.016.1.044.192.066.288Zm-5.79,6.312a7.107,7.107,0,0,0,1.741-1.611,9.5,9.5,0,0,0,1.534-3.492,6.379,6.379,0,0,0,.108-2.678,9.187,9.187,0,0,0-1.594-3.626,11.856,11.856,0,0,0-2.47-2.519c-.237-.185-.48-.362-.719-.543a8.386,8.386,0,0,0-2.486,3.034,7.849,7.849,0,0,0-.422,4.591,9.9,9.9,0,0,0,.927,2.644,11.216,11.216,0,0,0,2.915,3.808l.465.393" transform="translate(-187.362 -77.851)" fill="#904300"/>
    <path id="Path_23245" data-name="Path 23245" d="M162.9,26.379a2.016,2.016,0,0,1-.35,0,7.243,7.243,0,0,1-2.883-1.319,12.809,12.809,0,0,1-3.431-3.933,18.093,18.093,0,0,1-2.062-5.615,24.615,24.615,0,0,1-.462-4.8q0-5.219,0-10.437V0c.117.053.2.086.286.129a9.17,9.17,0,0,0,2.5.988,5.249,5.249,0,0,0,1.018.113q3.106.016,6.212,0a3.345,3.345,0,0,1,2.045.6,3.411,3.411,0,0,1,1.428,2.656,2.284,2.284,0,0,1-.1,1.075c-.079-.15-.142-.272-.207-.392a2.437,2.437,0,0,0-2.161-1.331c-.215-.012-.432-.011-.648-.011h-4.8a6.58,6.58,0,0,1-2.812-.516c-.01.1-.027.194-.027.288,0,3.085-.018,6.171.006,9.257a18.2,18.2,0,0,0,.742,4.724,17.983,17.983,0,0,0,2.25,5.1,10.836,10.836,0,0,0,3.007,3.145.863.863,0,0,1,.446.555" transform="translate(-108.286)" fill="#904300"/>
    <path id="Path_23246" data-name="Path 23246" d="M113.748,3.285a6.956,6.956,0,0,1-3.1.551c-1.537-.013-3.074-.008-4.61,0a6.684,6.684,0,0,0-.984.078,2.287,2.287,0,0,0-1.559,1c-.145.205-.27.424-.41.646a3.43,3.43,0,0,1,3.108-4.3c2.158-.055,4.318-.014,6.477-.018.165,0,.33-.009.494-.025A7.711,7.711,0,0,0,115.885.3c.178-.09.353-.186.567-.3.014.132.034.227.034.322,0,3.364.007,6.729,0,10.093a25.335,25.335,0,0,1-.574,5.592,16.979,16.979,0,0,1-3,6.677,11.333,11.333,0,0,1-3.063,2.824,7.062,7.062,0,0,1-2.219.871,1.893,1.893,0,0,1-.343,0,.958.958,0,0,1,.106-.255,1.679,1.679,0,0,1,.311-.277,11.149,11.149,0,0,0,3.261-3.52,19.051,19.051,0,0,0,2.354-6.068,20.36,20.36,0,0,0,.437-4.383c-.015-2.7,0-5.408,0-8.112Z" transform="translate(-72.537 -0.001)" fill="#904300"/>
    <path id="Path_23247" data-name="Path 23247" d="M13.147,111.857c-.16.14-.322.279-.481.419A5.173,5.173,0,0,0,11,114.685a10.007,10.007,0,0,0-.33,1.637c-.167,1.4-.343,2.794-.513,4.191q-.246,2.021-.487,4.042c-.091.768-.208,1.535-.258,2.306a12.586,12.586,0,0,0,2.526,8.865c.411.529.891,1.006,1.342,1.5.1.11.212.209.347.341a2.474,2.474,0,0,1-1.242-.165,6.068,6.068,0,0,1-2.037-1.237,9.691,9.691,0,0,1-3.106-5.58,15.958,15.958,0,0,1-.2-3.755c.058-1.319.119-2.637.2-3.954.077-1.241.18-2.48.275-3.72.057-.747.134-1.492.173-2.239A5.564,5.564,0,0,1,8.7,114.015c.063-.092.123-.186.215-.326H8.5q-3.562,0-7.125,0c-.151,0-.3.018-.455.03a.857.857,0,0,0-.815.486.664.664,0,0,1-.084-.548,1.519,1.519,0,0,1,1.41-1.279c.24-.019.482-.008.723-.008,2.616,0,5.232-.006,7.848,0a4.323,4.323,0,0,0,1.451-.256,10.459,10.459,0,0,1,1.1-.305,3.5,3.5,0,0,1,.565-.04l.03.082" transform="translate(0 -78.741)" fill="#904300"/>
    <path id="Path_23248" data-name="Path 23248" d="M220.868,116.884h2v9.392c.313.08,4.858.106,5.554.037.038-1.028.012-2.063.017-3.1,0-1.054,0-2.108,0-3.162v-3.116a9.087,9.087,0,0,1,2.071-.028v14.969c-.087.005-.16.013-.233.014h-1.83v-4.331h-5.558v4.086h-2.023Z" transform="translate(-155.593 -82.327)" fill="#904300"/>
    <path id="Path_23249" data-name="Path 23249" d="M95.987,116.2l.864.258c.08.215.153.429.239.639a15.577,15.577,0,0,0,2.554,4.082,22.925,22.925,0,0,0,2.362,2.266,13.437,13.437,0,0,1,2.393,2.7c.163.254.3.524.495.866V116.425h1.363v15.186c-.262-.129-.494-.227-.708-.357a.6.6,0,0,1-.194-.267,15.384,15.384,0,0,0-3.725-5.006c-.382-.353-.8-.67-1.186-1.015a15.151,15.151,0,0,1-2.342-2.5c-.255-.358-.474-.743-.747-1.177v10.326H95.987Z" transform="translate(-67.619 -81.856)" fill="#904300"/>
    <path id="Path_23250" data-name="Path 23250" d="M46.789,127.975a4.389,4.389,0,0,0-.213,3.413,15.518,15.518,0,0,1-2.554.033,3.644,3.644,0,0,1-.214-1.063,5.772,5.772,0,0,1,.658-3.048A11.932,11.932,0,0,1,46.8,124.18q1.391-1.382,2.855-2.69a22.889,22.889,0,0,0,4.233-4.92,1.2,1.2,0,0,1,.69-.619,1.736,1.736,0,0,1,.24-.025v15.508c-.522.03-1.036.009-1.586.015V128.02c-.288-.1-5.768-.129-6.443-.045m6.4-1.11c.067-.737.04-6.218-.031-6.5-.244.331-.473.663-.723.977a16.375,16.375,0,0,1-2.06,2.027,19.407,19.407,0,0,0-2.179,2.069,4.331,4.331,0,0,0-.865,1.43Z" transform="translate(-30.85 -81.665)" fill="#904300"/>
    <path id="Path_23251" data-name="Path 23251" d="M166.665,126.675a2.025,2.025,0,0,1,1.629.642,5.547,5.547,0,0,1,.434.577,5.113,5.113,0,0,0,3.191,2.3,5.534,5.534,0,0,0,3.257-.181,2.752,2.752,0,0,0,1.018-.651,1.934,1.934,0,0,0,.47-2.137,2.927,2.927,0,0,0-.819-1.174,12.607,12.607,0,0,0-2.447-1.738c-.8-.443-1.612-.86-2.414-1.3a7.824,7.824,0,0,1-2.1-1.555,4.688,4.688,0,0,1-.872-1.285,2.482,2.482,0,0,1,.108-2.3,3.177,3.177,0,0,1,1.529-1.43,5.534,5.534,0,0,1,4.512-.069,5.084,5.084,0,0,1,2.819,3.308.935.935,0,0,1-.76-.02,3.873,3.873,0,0,1-.818-.539c-.336-.307-.621-.669-.934-1a3.14,3.14,0,0,0-1.445-.948,3.351,3.351,0,0,0-2.24.051,1.538,1.538,0,0,0-.732,2.331,2.163,2.163,0,0,0,.49.523,15.335,15.335,0,0,0,2.559,1.571c.86.435,1.727.857,2.586,1.294a7.374,7.374,0,0,1,2.5,1.952,4.051,4.051,0,0,1,.973,2.389A3.082,3.082,0,0,1,178,129.857a6.6,6.6,0,0,1-2.924,1.4,8.119,8.119,0,0,1-5.481-.669,5.5,5.5,0,0,1-2.542-2.487,3.416,3.416,0,0,1-.388-1.424" transform="translate(-117.409 -81.663)" fill="#904300"/>
    <rect id="Rectangle_10541" data-name="Rectangle 10541" width="1.917" height="15.201" transform="translate(43.696 34.567)" fill="#904300"/>
    <path id="Path_23252" data-name="Path 23252" d="M146.653,95a1.95,1.95,0,0,1,1.888,1.99,2.007,2.007,0,0,1-1.922,1.939,1.959,1.959,0,0,1-1.932-1.992A1.907,1.907,0,0,1,146.653,95" transform="translate(-101.926 -66.921)" fill="#904300"/>
  </g>
</svg>
