<svg xmlns="http://www.w3.org/2000/svg" xmlns:xlink="http://www.w3.org/1999/xlink" width="120" height="46" viewBox="0 0 120 46">
  <defs>
    <clipPath id="clip-path">
      <rect id="Rectangle_10520" data-name="Rectangle 10520" width="120" height="46" transform="translate(56 267)" fill="#fff" stroke="#707070" stroke-width="1"/>
    </clipPath>
  </defs>
  <g id="Mask_Group_22479" data-name="Mask Group 22479" transform="translate(-56 -267)" clip-path="url(#clip-path)">
    <path id="Union_60" data-name="Union 60" d="M-2160.9-386.552a5.431,5.431,0,0,1-1.824-1.109,8.7,8.7,0,0,1-2.783-5.007,14.309,14.309,0,0,1-.176-3.369c.052-1.183.107-2.366.179-3.548.069-1.113.162-2.225.246-3.338.05-.67.12-1.338.155-2.008a5,5,0,0,1,.9-2.61c.056-.081.11-.166.193-.292h-.372q-3.192,0-6.385,0c-.135,0-.272.016-.406.027a.767.767,0,0,0-.731.436.6.6,0,0,1-.075-.492,1.362,1.362,0,0,1,1.263-1.148c.215-.017.432-.007.649-.007,2.344,0,4.688-.005,7.033,0a3.867,3.867,0,0,0,1.3-.23,9.442,9.442,0,0,1,.982-.274,3.059,3.059,0,0,1,.506-.035c.009.024.019.049.027.074-.143.125-.289.25-.431.376a4.64,4.64,0,0,0-1.491,2.161,8.98,8.98,0,0,0-.3,1.469c-.15,1.254-.308,2.507-.46,3.761q-.22,1.813-.436,3.626c-.081.69-.187,1.377-.231,2.07a11.307,11.307,0,0,0,2.263,7.954c.369.475.8.9,1.2,1.349.09.1.19.188.311.306a1.779,1.779,0,0,1-.275.021A2.512,2.512,0,0,1-2160.9-386.552Zm67.253.047a4.388,4.388,0,0,0-.5-3.1,12.21,12.21,0,0,0-1.908-2.7c-.457-.507-.939-.992-1.419-1.479a17.358,17.358,0,0,1-3.042-4.015,8.512,8.512,0,0,1-.94-2.656,8.532,8.532,0,0,1,.532-4.587,8.8,8.8,0,0,1,2.39-3.284c.593-.533,1.21-1.036,1.829-1.564a8.89,8.89,0,0,0,1.688,1.7,27.6,27.6,0,0,1,2.4,2.287,7.1,7.1,0,0,1,1.738,3.241c.05.233.073.472.112.707.014.087.039.173.06.259v.683c-.043.257-.083.513-.127.769a6.321,6.321,0,0,1-1.193,2.762,18.461,18.461,0,0,1-2.853,3.079c.112.13.217.258.328.381.42.464.853.917,1.261,1.392a5.637,5.637,0,0,1,.972,1.715,4.417,4.417,0,0,1,.157,2.19,3.865,3.865,0,0,1-.859,1.867,1.048,1.048,0,0,1-.6.445C-2093.632-386.445-2093.655-386.478-2093.648-386.505Zm-5.733-19.1a7.044,7.044,0,0,0-.379,4.119,8.875,8.875,0,0,0,.831,2.372,10.067,10.067,0,0,0,2.612,3.416l.417.352a6.373,6.373,0,0,0,1.561-1.445,8.527,8.527,0,0,0,1.375-3.134,5.733,5.733,0,0,0,.1-2.4,8.258,8.258,0,0,0-1.428-3.254,10.658,10.658,0,0,0-2.214-2.261c-.213-.165-.43-.325-.644-.487A7.517,7.517,0,0,0-2099.381-405.608Zm-25.855,10.313a4.931,4.931,0,0,1-2.278-2.232,3.054,3.054,0,0,1-.348-1.277,1.808,1.808,0,0,1,1.459.576,4.993,4.993,0,0,1,.389.518,4.582,4.582,0,0,0,2.86,2.062,4.96,4.96,0,0,0,2.919-.162,2.474,2.474,0,0,0,.912-.585,1.737,1.737,0,0,0,.421-1.918,2.626,2.626,0,0,0-.734-1.054,11.28,11.28,0,0,0-2.193-1.559c-.715-.4-1.444-.771-2.163-1.163a7.016,7.016,0,0,1-1.884-1.395,4.209,4.209,0,0,1-.781-1.153,2.229,2.229,0,0,1,.1-2.067,2.853,2.853,0,0,1,1.37-1.284,4.951,4.951,0,0,1,4.042-.061,4.559,4.559,0,0,1,2.527,2.968.84.84,0,0,1-.681-.018,3.478,3.478,0,0,1-.733-.484c-.3-.275-.557-.6-.836-.9a2.813,2.813,0,0,0-1.295-.851,2.994,2.994,0,0,0-2.007.046,1.381,1.381,0,0,0-.656,2.091,1.948,1.948,0,0,0,.439.47,13.7,13.7,0,0,0,2.293,1.409c.77.39,1.547.769,2.317,1.161a6.61,6.61,0,0,1,2.243,1.751,3.64,3.64,0,0,1,.872,2.144,2.768,2.768,0,0,1-1.038,2.312,5.916,5.916,0,0,1-2.62,1.255,7.749,7.749,0,0,1-1.65.182A7.235,7.235,0,0,1-2125.236-395.294Zm-34.961.748a3.267,3.267,0,0,1-.192-.953,5.181,5.181,0,0,1,.59-2.735,10.7,10.7,0,0,1,2.091-2.809q1.247-1.24,2.559-2.414a20.56,20.56,0,0,0,3.793-4.414,1.067,1.067,0,0,1,.618-.555,1.438,1.438,0,0,1,.214-.023v13.914c-.308.018-.613.016-.926.013-.163,0-.327,0-.494,0V-397.6c-.258-.086-5.168-.116-5.773-.04a3.937,3.937,0,0,0-.191,3.062,9.361,9.361,0,0,1-1.324.062C-2159.618-394.514-2159.989-394.525-2160.2-394.547Zm7.54-9.046a14.612,14.612,0,0,1-1.846,1.818,17.378,17.378,0,0,0-1.953,1.857,3.894,3.894,0,0,0-.774,1.283h5.249c.06-.662.036-5.58-.028-5.835C-2152.228-404.173-2152.433-403.875-2152.657-403.593Zm19.813,9.057v-13.639h1.718v13.639Zm-13.736-.005v-13.837l.774.232c.071.193.138.385.215.573a13.961,13.961,0,0,0,2.288,3.662,20.5,20.5,0,0,0,2.116,2.033,12.049,12.049,0,0,1,2.144,2.424c.146.228.269.47.443.778v-9.5h1.222v13.627c-.235-.116-.444-.2-.635-.321a.542.542,0,0,1-.174-.24,13.793,13.793,0,0,0-3.337-4.492c-.343-.316-.714-.6-1.062-.911a13.552,13.552,0,0,1-2.1-2.239c-.229-.321-.424-.667-.67-1.056v9.264Zm39.865-.176V-398.6h-4.98v3.667h-1.813v-13.248h1.793v8.427c.281.072,4.354.095,4.977.033.034-.922.01-1.851.015-2.779,0-.945,0-1.891,0-2.837v-2.8a8.111,8.111,0,0,1,1.855-.025v13.431c-.078.005-.143.012-.209.013h-1.639Zm-25.237-15.757a1.757,1.757,0,0,1-1.731-1.788,1.71,1.71,0,0,1,1.762-1.738,1.751,1.751,0,0,1,1.692,1.786,1.8,1.8,0,0,1-1.7,1.74Z" transform="translate(2247.355 690.191)" fill="#6c0082" stroke="rgba(0,0,0,0)" stroke-miterlimit="10" stroke-width="1"/>
  </g>
</svg>
