<svg xmlns="http://www.w3.org/2000/svg" width="24" height="24" viewBox="0 0 24 24">
  <g id="Group_22344" data-name="Group 22344" transform="translate(-62 -581)">
    <rect id="Rectangle_9539" data-name="Rectangle 9539" width="24" height="24" transform="translate(62 581)" fill="#fff"/>
    <g id="Group_21889" data-name="Group 21889" transform="translate(65 581)">
      <g id="Group_14354" data-name="Group 14354" transform="translate(0 0)">
        <g id="Group_538" data-name="Group 538" transform="translate(5.614)">
          <path id="Path_1017" data-name="Path 1017" d="M14.841,11.227a.432.432,0,0,1-.432-.432c0-5.853-1.593-9.932-3.023-9.932S8.364,4.943,8.364,10.8a.432.432,0,0,1-.864,0C7.5,5.562,8.862,0,11.386,0s3.886,5.562,3.886,10.8A.432.432,0,0,1,14.841,11.227Z" transform="translate(-7.5)" fill="#039"/>
        </g>
        <g id="Group_536" data-name="Group 536" transform="translate(0)">
          <path id="Path_1015" data-name="Path 1015" d="M13.955,11.227a.439.439,0,0,1-.193-.046,6.872,6.872,0,0,0-6.523,0,.429.429,0,0,1-.437-.03,4.56,4.56,0,0,0-5.16.021A.431.431,0,0,1,1,10.8V9.5a9.5,9.5,0,0,1,19,0v1.3a.432.432,0,0,1-.643.377c-1.926-1.072-3.613-1.079-5.16-.021A.424.424,0,0,1,13.955,11.227ZM10.5,9.5a8.016,8.016,0,0,1,3.423.8,5.236,5.236,0,0,1,5.214-.207V9.5a8.636,8.636,0,0,0-17.273,0v.594a5.24,5.24,0,0,1,5.214.206A8,8,0,0,1,10.5,9.5Z" transform="translate(-1)" fill="#44c8f5"/>
        </g>
      </g>
      <g id="Path_21067" data-name="Path 21067" transform="translate(2112.162 2896.494)" fill="none">
        <path d="M-2103.062-2872.8l-.758-.024a3.684,3.684,0,0,0-.825-2.243s.125-1.359.125-2.384v-1.492a1.027,1.027,0,0,0-.182-.46c-.1-.088-.026-.144-.38-.331s-.856-.522-.856-.522c-.588-.545-1.058-1.089-1.058-1.089a2.379,2.379,0,0,1-.207-.509c-.051-.229-.122-.212,0-.378s.207-.189.207-.189a.41.41,0,0,1,.542.073,7.822,7.822,0,0,0,.778,1,5.712,5.712,0,0,0,1.078.737l.653.353a4.532,4.532,0,0,0,1.465.277,6.049,6.049,0,0,0,1.1-.069,3.7,3.7,0,0,0,1.254-.795,5.468,5.468,0,0,0,.9-.972,2.7,2.7,0,0,1,.272-.41,1.072,1.072,0,0,1,.221-.177.769.769,0,0,1,.515.042c.168.126.17.461.17.461a2.74,2.74,0,0,1-.5.848,15.628,15.628,0,0,1-1.821,1.648,1.169,1.169,0,0,0-.334.357.765.765,0,0,0-.058.424,6.913,6.913,0,0,0-.025,1.131c.019.918.1,2.541.1,2.541a1.62,1.62,0,0,0-.481.756,6.787,6.787,0,0,0-.235,1.37h-.847l-.277-1.691a.176.176,0,0,0-.113-.063.247.247,0,0,0-.131.063Z" stroke="none"/>
        <path d="M -2101.8486328125 -2873.42333984375 C -2101.80859375 -2873.715087890625 -2101.7451171875 -2874.06787109375 -2101.649169921875 -2874.35302734375 C -2101.5234375 -2874.72607421875 -2101.344482421875 -2874.985595703125 -2101.20458984375 -2875.146728515625 C -2101.227294921875 -2875.625244140625 -2101.279296875 -2876.768310546875 -2101.2939453125 -2877.48095703125 C -2101.307373046875 -2878.153076171875 -2101.289306640625 -2878.476318359375 -2101.272705078125 -2878.626953125 C -2101.283935546875 -2878.76513671875 -2101.281982421875 -2879.022216796875 -2101.157470703125 -2879.269775390625 C -2101.019775390625 -2879.54443359375 -2100.75732421875 -2879.74560546875 -2100.6748046875 -2879.80419921875 C -2100.661865234375 -2879.814453125 -2100.648193359375 -2879.8251953125 -2100.6337890625 -2879.836669921875 C -2100.838134765625 -2879.7080078125 -2101.0478515625 -2879.607421875 -2101.275146484375 -2879.558349609375 C -2101.58740234375 -2879.49072265625 -2102.016845703125 -2879.4765625 -2102.322265625 -2879.4765625 C -2102.39697265625 -2879.4765625 -2102.452392578125 -2879.4775390625 -2102.478515625 -2879.47802734375 C -2102.506591796875 -2879.47705078125 -2102.534912109375 -2879.476806640625 -2102.5634765625 -2879.476806640625 C -2103.28662109375 -2879.476806640625 -2104.089111328125 -2879.77490234375 -2104.123046875 -2879.78759765625 L -2104.15478515625 -2879.799560546875 L -2104.75 -2880.12060546875 C -2104.5244140625 -2879.9892578125 -2104.42236328125 -2879.87841796875 -2104.343994140625 -2879.7509765625 C -2104.106201171875 -2879.51220703125 -2104.02099609375 -2879.0458984375 -2104.02099609375 -2878.9423828125 L -2104.02099609375 -2877.450439453125 C -2104.02099609375 -2876.6513671875 -2104.09326171875 -2875.673095703125 -2104.128662109375 -2875.241455078125 C -2103.729736328125 -2874.759521484375 -2103.527587890625 -2874.150146484375 -2103.42529296875 -2873.66455078125 L -2103.2421875 -2874.7666015625 L -2103.1142578125 -2874.88330078125 C -2103.05029296875 -2874.941650390625 -2102.876953125 -2875.0771484375 -2102.646484375 -2875.0771484375 C -2102.37109375 -2875.0771484375 -2102.195068359375 -2874.88916015625 -2102.147705078125 -2874.83154296875 L -2102.062255859375 -2874.7275390625 L -2101.8486328125 -2873.42333984375 M -2103.06201171875 -2872.798828125 L -2103.8203125 -2872.822998046875 C -2103.8203125 -2872.822998046875 -2103.845947265625 -2874.280029296875 -2104.6455078125 -2875.06640625 C -2104.6455078125 -2875.06640625 -2104.52099609375 -2876.42529296875 -2104.52099609375 -2877.450439453125 C -2104.52099609375 -2878.0283203125 -2104.52099609375 -2878.2861328125 -2104.52099609375 -2878.9423828125 C -2104.52099609375 -2878.98876953125 -2104.600830078125 -2879.31396484375 -2104.703369140625 -2879.40283203125 C -2104.804931640625 -2879.4912109375 -2104.729248046875 -2879.546875 -2105.083251953125 -2879.73388671875 C -2105.43798828125 -2879.921142578125 -2105.939697265625 -2880.255615234375 -2105.939697265625 -2880.255615234375 C -2106.528076171875 -2880.800537109375 -2106.998046875 -2881.344970703125 -2106.998046875 -2881.344970703125 C -2106.998046875 -2881.344970703125 -2107.15283203125 -2881.624755859375 -2107.20458984375 -2881.853515625 C -2107.255859375 -2882.082275390625 -2107.326904296875 -2882.0654296875 -2107.20458984375 -2882.231689453125 C -2107.081787109375 -2882.397216796875 -2106.998046875 -2882.4208984375 -2106.998046875 -2882.4208984375 C -2106.998291015625 -2882.4208984375 -2106.71533203125 -2882.623779296875 -2106.45654296875 -2882.348388671875 C -2106.197998046875 -2882.073974609375 -2106.132080078125 -2881.760498046875 -2105.6787109375 -2881.344970703125 C -2105.22607421875 -2880.929443359375 -2104.600341796875 -2880.608154296875 -2104.600341796875 -2880.608154296875 L -2103.947265625 -2880.255615234375 C -2103.947265625 -2880.255615234375 -2103.2041015625 -2879.976806640625 -2102.563232421875 -2879.976806640625 C -2102.535888671875 -2879.976806640625 -2102.5087890625 -2879.977294921875 -2102.48193359375 -2879.978271484375 C -2102.482177734375 -2879.978271484375 -2101.784423828125 -2879.9599609375 -2101.380859375 -2880.047119140625 C -2100.9765625 -2880.134521484375 -2100.58935546875 -2880.482421875 -2100.12646484375 -2880.842041015625 C -2099.6640625 -2881.2021484375 -2099.229248046875 -2881.814453125 -2099.229248046875 -2881.814453125 C -2099.229248046875 -2881.814453125 -2099.067626953125 -2882.109130859375 -2098.956787109375 -2882.224853515625 C -2098.845947265625 -2882.340087890625 -2098.73583984375 -2882.40185546875 -2098.73583984375 -2882.40185546875 C -2098.73583984375 -2882.40185546875 -2098.38818359375 -2882.485107421875 -2098.220947265625 -2882.360107421875 C -2098.05322265625 -2882.234130859375 -2098.05126953125 -2881.8994140625 -2098.05126953125 -2881.8994140625 C -2098.05126953125 -2881.8994140625 -2098.125244140625 -2881.606201171875 -2098.55517578125 -2881.051025390625 C -2098.985107421875 -2880.495849609375 -2100.37646484375 -2879.40283203125 -2100.37646484375 -2879.40283203125 C -2100.37646484375 -2879.40283203125 -2100.612548828125 -2879.240966796875 -2100.71044921875 -2879.045654296875 C -2100.808837890625 -2878.85009765625 -2100.768798828125 -2878.621826171875 -2100.768798828125 -2878.621826171875 C -2100.768798828125 -2878.621826171875 -2100.8125 -2878.408935546875 -2100.7939453125 -2877.490966796875 C -2100.775146484375 -2876.572998046875 -2100.694580078125 -2874.94970703125 -2100.694580078125 -2874.94970703125 C -2100.694580078125 -2874.94970703125 -2100.996337890625 -2874.724853515625 -2101.17529296875 -2874.193359375 C -2101.354248046875 -2873.661865234375 -2101.409912109375 -2872.822998046875 -2101.409912109375 -2872.822998046875 L -2102.257080078125 -2872.822998046875 L -2102.533935546875 -2874.513916015625 C -2102.533935546875 -2874.513916015625 -2102.5859375 -2874.5771484375 -2102.646484375 -2874.5771484375 C -2102.7080078125 -2874.5771484375 -2102.77734375 -2874.513916015625 -2102.77734375 -2874.513916015625 L -2103.06201171875 -2872.798828125 Z" stroke="none" fill="#039"/>
      </g>
      <g id="Ellipse_1388" data-name="Ellipse 1388" transform="translate(7.877 11.652)" fill="none" stroke="#039" stroke-width="0.5">
        <circle cx="1.806" cy="1.806" r="1.806" stroke="none"/>
        <circle cx="1.806" cy="1.806" r="1.556" fill="none"/>
      </g>
      <g id="Path_21068" data-name="Path 21068" transform="translate(2116.253 2892.173)" fill="none">
        <path d="M-2115.011-2872.077a3.486,3.486,0,0,0,.88.2c.574.066,1.417.068,1.417.068a9.406,9.406,0,0,0,1.1-.068,4.793,4.793,0,0,0,.874-.209.417.417,0,0,0,.187-.152.335.335,0,0,0,0-.224s-.115-.4-.249-.789-.286-.788-.286-.788a3.343,3.343,0,0,0-.365-.932,1.473,1.473,0,0,0-.587-.506h-.268a.325.325,0,0,0-.133-.138,1.289,1.289,0,0,0-.273-.11,2.576,2.576,0,0,0-.922.139,1.65,1.65,0,0,0-.635.506s-.216.5-.392.959-.312.9-.312.9l-.278.724a.687.687,0,0,0,.057.29A.328.328,0,0,0-2115.011-2872.077Z" stroke="none"/>
        <path d="M -2112.7138671875 -2872.3115234375 C -2112.7080078125 -2872.3115234375 -2112.13427734375 -2872.312255859375 -2111.685302734375 -2872.375 C -2111.4423828125 -2872.409423828125 -2111.228271484375 -2872.46337890625 -2111.08740234375 -2872.50390625 C -2111.132568359375 -2872.652587890625 -2111.201904296875 -2872.87451171875 -2111.27587890625 -2873.093994140625 C -2111.404296875 -2873.473388671875 -2111.552734375 -2873.8583984375 -2111.55419921875 -2873.8623046875 L -2111.56787109375 -2873.897705078125 L -2111.575927734375 -2873.933837890625 C -2111.606201171875 -2874.06884765625 -2111.7177734375 -2874.46923828125 -2111.869140625 -2874.698486328125 C -2111.962646484375 -2874.839599609375 -2112.086669921875 -2874.93212890625 -2112.164794921875 -2874.98095703125 L -2112.64453125 -2874.98095703125 L -2112.737060546875 -2875.208984375 C -2112.75341796875 -2875.2158203125 -2112.772705078125 -2875.222900390625 -2112.79248046875 -2875.229736328125 C -2112.9931640625 -2875.228759765625 -2113.2666015625 -2875.201904296875 -2113.4443359375 -2875.128173828125 C -2113.6201171875 -2875.055419921875 -2113.76953125 -2874.90673828125 -2113.837158203125 -2874.8271484375 C -2113.89794921875 -2874.685302734375 -2114.06005859375 -2874.303955078125 -2114.1953125 -2873.947509765625 C -2114.364013671875 -2873.50390625 -2114.497314453125 -2873.083251953125 -2114.49853515625 -2873.0791015625 L -2114.508544921875 -2873.050537109375 L -2114.71826171875 -2872.504150390625 C -2114.600830078125 -2872.46826171875 -2114.3828125 -2872.412353515625 -2114.074462890625 -2872.376708984375 C -2113.534912109375 -2872.31494140625 -2112.720703125 -2872.3115234375 -2112.714111328125 -2872.3115234375 L -2112.7138671875 -2872.3115234375 M -2112.7138671875 -2871.8115234375 C -2112.714111328125 -2871.8115234375 -2112.714111328125 -2871.8115234375 -2112.714111328125 -2871.8115234375 C -2112.714111328125 -2871.8115234375 -2113.556884765625 -2871.814208984375 -2114.13134765625 -2871.8798828125 C -2114.705810546875 -2871.946533203125 -2115.011474609375 -2872.07666015625 -2115.011474609375 -2872.07666015625 C -2115.011474609375 -2872.07666015625 -2115.13623046875 -2872.109130859375 -2115.196533203125 -2872.216064453125 C -2115.25732421875 -2872.323486328125 -2115.253173828125 -2872.505859375 -2115.253173828125 -2872.505859375 L -2114.975341796875 -2873.229736328125 C -2114.975341796875 -2873.229736328125 -2114.8388671875 -2873.66162109375 -2114.662841796875 -2874.125 C -2114.486572265625 -2874.5888671875 -2114.270751953125 -2875.084228515625 -2114.270751953125 -2875.084228515625 C -2114.270751953125 -2875.084228515625 -2114.025634765625 -2875.428466796875 -2113.635986328125 -2875.590087890625 C -2113.246826171875 -2875.7509765625 -2112.71435546875 -2875.729736328125 -2112.714111328125 -2875.728759765625 C -2112.714111328125 -2875.728759765625 -2112.542724609375 -2875.68212890625 -2112.440673828125 -2875.619140625 C -2112.3388671875 -2875.55810546875 -2112.3076171875 -2875.48095703125 -2112.3076171875 -2875.48095703125 L -2112.039794921875 -2875.48095703125 C -2112.039794921875 -2875.48095703125 -2111.6904296875 -2875.333740234375 -2111.452392578125 -2874.974609375 C -2111.21435546875 -2874.6142578125 -2111.087890625 -2874.04248046875 -2111.087890625 -2874.04248046875 C -2111.087890625 -2874.04248046875 -2110.935791015625 -2873.64892578125 -2110.80224609375 -2873.25439453125 C -2110.669189453125 -2872.860107421875 -2110.5537109375 -2872.465087890625 -2110.5537109375 -2872.465087890625 C -2110.5537109375 -2872.465087890625 -2110.50732421875 -2872.3349609375 -2110.5537109375 -2872.2412109375 C -2110.600830078125 -2872.14697265625 -2110.740966796875 -2872.089111328125 -2110.740966796875 -2872.089111328125 C -2110.740966796875 -2872.089111328125 -2111.121826171875 -2871.949951171875 -2111.614990234375 -2871.8798828125 C -2112.101318359375 -2871.81201171875 -2112.697265625 -2871.8115234375 -2112.7138671875 -2871.8115234375 Z" stroke="none" fill="#44c8f5"/>
      </g>
      <path id="Path_21069" data-name="Path 21069" d="M-2117.912-2860.233h6.447a.23.23,0,0,0,.132-.072.256.256,0,0,0,.028-.153s-.028-.224-.086-.51-.15-.634-.15-.634a.606.606,0,0,0-.244-.381,3.487,3.487,0,0,0-.679-.382c-.039.008-1.183-.5-1.2-.457s-1.016.972-1.016.972l-.988-.972s-.519.187-.879.335-.61.259-.61.259a1.066,1.066,0,0,0-.434.282,1.415,1.415,0,0,0-.244.512l-.176.976a.318.318,0,0,0,0,.158A.135.135,0,0,0-2117.912-2860.233Z" transform="translate(2118.022 2883.928)" fill="none" stroke="#44c8f5" stroke-width="0.5"/>
      <path id="Path_21070" data-name="Path 21070" d="M-2117.912-2860.233h6.447a.23.23,0,0,0,.132-.072.256.256,0,0,0,.028-.153s-.028-.224-.086-.51-.15-.634-.15-.634a.606.606,0,0,0-.244-.381,3.487,3.487,0,0,0-.679-.382c-.039.008-1.183-.5-1.2-.457s-1.016.972-1.016.972l-.988-.972s-.519.187-.879.335-.61.259-.61.259a1.066,1.066,0,0,0-.434.282,1.415,1.415,0,0,0-.244.512l-.176.976a.318.318,0,0,0,0,.158A.135.135,0,0,0-2117.912-2860.233Z" transform="translate(2130.304 2883.928)" fill="none" stroke="#44c8f5" stroke-width="0.5"/>
      <g id="Ellipse_1389" data-name="Ellipse 1389" transform="translate(14.096 16.707)" fill="none" stroke="#44c8f5" stroke-width="0.5">
        <ellipse cx="1.625" cy="1.986" rx="1.625" ry="1.986" stroke="none"/>
        <ellipse cx="1.625" cy="1.986" rx="1.375" ry="1.736" fill="none"/>
      </g>
    </g>
  </g>
</svg>
