<svg xmlns="http://www.w3.org/2000/svg" width="20.894" height="22.793" viewBox="0 0 20.894 22.793">
  <g id="Group_21594" data-name="Group 21594" transform="translate(-60.553 -365)">
    <g id="Group_14354" data-name="Group 14354" transform="translate(60.553 365)">
      <g id="Group_537" data-name="Group 537" transform="translate(6.648 10.447)">
        <path id="Path_1016" data-name="Path 1016" d="M10.137,23.346A2.139,2.139,0,0,1,8,21.209v-.237a.475.475,0,0,1,.95,0v.237a1.187,1.187,0,1,0,2.374,0V11.475a.475.475,0,0,1,.95,0v9.734A2.139,2.139,0,0,1,10.137,23.346Z" transform="translate(-8 -11)" fill="#44c8f5"/>
      </g>
      <g id="Group_538" data-name="Group 538" transform="translate(6.173)">
        <path id="Path_1017" data-name="Path 1017" d="M15.573,12.346a.475.475,0,0,1-.475-.475C15.1,5.435,13.345.95,11.774.95S8.45,5.435,8.45,11.871a.475.475,0,0,1-.95,0C7.5,6.116,9,0,11.774,0s4.274,6.116,4.274,11.871A.475.475,0,0,1,15.573,12.346Z" transform="translate(-7.5)" fill="#039"/>
      </g>
      <g id="Group_536" data-name="Group 536" transform="translate(0)">
        <path id="Path_1015" data-name="Path 1015" d="M15.246,12.346a.483.483,0,0,1-.213-.05,7.557,7.557,0,0,0-7.173,0,.472.472,0,0,1-.481-.033c-1.7-1.162-3.558-1.156-5.675.023a.474.474,0,0,1-.7-.414V10.447a10.447,10.447,0,0,1,20.894,0v1.425a.476.476,0,0,1-.707.415c-2.118-1.179-3.974-1.186-5.675-.023A.466.466,0,0,1,15.246,12.346Zm-3.8-1.9a8.815,8.815,0,0,1,3.764.878,5.758,5.758,0,0,1,5.733-.228v-.651a9.5,9.5,0,0,0-18.994,0V11.1a5.763,5.763,0,0,1,5.733.227,8.8,8.8,0,0,1,3.764-.879Z" transform="translate(-1)" fill="#44c8f5"/>
      </g>
    </g>
  </g>
</svg>
