<svg xmlns="http://www.w3.org/2000/svg" width="53" height="53" viewBox="0 0 53 53">
  <g id="Group_21096" data-name="Group 21096" transform="translate(3 3)">
    <g id="Polygon_3" data-name="Polygon 3" fill="#3fb560" stroke-linejoin="round">
      <path d="M 30.27347946166992 48.77894973754883 L 29.27234077453613 48.40531921386719 L 23.5 46.25105667114258 L 17.72767066955566 48.40531921386719 L 16.72653007507324 48.77894973754883 L 16.04632949829102 47.95481109619141 L 12.12447547912598 43.20299530029297 L 6.048359870910645 42.18247985839844 L 4.994530200958252 42.0054817199707 L 4.817530155181885 40.9516487121582 L 3.797015428543091 34.87554550170898 L -0.954800009727478 30.95368003845215 L -1.778939962387085 30.27347946166992 L -1.405310034751892 29.27234077453613 L 0.7489453554153442 23.5000114440918 L -1.405320048332214 17.72768020629883 L -1.778949975967407 16.72653961181641 L -0.9548100233078003 16.04634094238281 L 3.797005176544189 12.12447643280029 L 4.817520141601562 6.048359870910645 L 4.99452018737793 4.994530200958252 L 6.048349857330322 4.817530155181885 L 12.1244649887085 3.797015428543091 L 16.04631996154785 -0.954800009727478 L 16.72652053833008 -1.778939962387085 L 17.72765922546387 -1.405310034751892 L 23.49999046325684 0.7489456534385681 L 29.27234077453613 -1.405320048332214 L 30.27347946166992 -1.778949975967407 L 30.95368003845215 -0.9548100233078003 L 34.87553405761719 3.797006368637085 L 40.9516487121582 4.817530155181885 L 42.0054817199707 4.994530200958252 L 42.18247985839844 6.048359870910645 L 43.20299530029297 12.1244649887085 L 47.95481109619141 16.04631996154785 L 48.77894973754883 16.72652053833008 L 48.40531921386719 17.72765922546387 L 46.25105667114258 23.5 L 48.40531921386719 29.27232933044434 L 48.77894973754883 30.27346992492676 L 47.95481109619141 30.95367050170898 L 43.20299530029297 34.87553405761719 L 42.18247985839844 40.95164108276367 L 42.0054817199707 42.00547027587891 L 40.9516487121582 42.18246841430664 L 34.87553405761719 43.20299530029297 L 30.95368003845215 47.95481109619141 L 30.27347946166992 48.77894973754883 Z" stroke="none"/>
      <path d="M 17.20318984985352 0 L 12.92499160766602 5.183570861816406 L 6.296798706054688 6.296810150146484 L 5.183559417724609 12.92501068115234 L 0 17.20319938659668 L 2.349998474121094 23.50000953674316 L 0 29.79681015014648 L 5.183570861816406 34.07500076293945 L 6.296810150146484 40.70320129394531 L 12.92499923706055 41.81644058227539 L 17.20319938659668 47 L 23.5 44.65000152587891 L 29.79681015014648 47 L 34.07500076293945 41.81644058227539 L 40.70320129394531 40.70318984985352 L 41.81644058227539 34.07500076293945 L 47 29.79680061340332 L 44.65000152587891 23.5 L 47 17.20318984985352 L 41.81644058227539 12.92499923706055 L 40.70320129394531 6.296810150146484 L 34.07500076293945 5.183559417724609 L 29.79681015014648 0 L 23.49999046325684 2.349998474121094 L 17.20318984985352 0 M 17.20386505126953 -3.000160217285156 C 17.55505561828613 -3.000160217285156 17.90968894958496 -2.938446044921875 18.25214004516602 -2.810638427734375 L 23.49999618530273 -0.85211181640625 L 28.74786949157715 -2.810638427734375 C 29.94622993469238 -3.257877349853516 31.29634857177734 -2.896110534667969 32.11054992675781 -1.909610748291016 L 35.67605972290039 2.410449981689453 L 41.20011138916016 3.338249206542969 C 42.46154022216797 3.55010986328125 43.44990158081055 4.538478851318359 43.66175842285156 5.799900054931641 L 44.58955383300781 11.32394027709961 L 48.90961074829102 14.88945007324219 C 49.89611053466797 15.70364952087402 50.25788116455078 17.05377960205078 49.81063842773438 18.25214004516602 L 47.85211181640625 23.5 L 49.81063842773438 28.74785041809082 C 50.25788116455078 29.94621086120605 49.89611053466797 31.29634094238281 48.90961837768555 32.11053085327148 L 44.58955383300781 35.67605590820312 L 43.66175842285156 41.20009994506836 C 43.44990158081055 42.46152114868164 42.46154022216797 43.44989013671875 41.20011138916016 43.66175079345703 L 35.67605972290039 44.58955001831055 L 32.11054992675781 48.90961074829102 C 31.29634857177734 49.89611053466797 29.94621658325195 50.25788116455078 28.74785995483398 49.81063842773438 L 23.5 47.85211181640625 L 18.25214958190918 49.81063842773438 C 17.05378532409668 50.25788116455078 15.70365905761719 49.89611053466797 14.88946914672852 48.90961837768555 L 11.32394409179688 44.58955383300781 L 5.799900054931641 43.66175842285156 C 4.538478851318359 43.44990158081055 3.55010986328125 42.46152877807617 3.338249206542969 41.20011138916016 L 2.410457611083984 35.67605972290039 L -1.909610748291016 32.11054992675781 C -2.896110534667969 31.29634857177734 -3.257881164550781 29.94622039794922 -2.810638427734375 28.74785995483398 L -0.85211181640625 23.50000953674316 L -2.810638427734375 18.25214958190918 C -3.257881164550781 17.05378913879395 -2.896110534667969 15.70365905761719 -1.909610748291016 14.88946151733398 L 2.410446166992188 11.32395172119141 L 3.338241577148438 5.799900054931641 C 3.550098419189453 4.538478851318359 4.538471221923828 3.55010986328125 5.799888610839844 3.338249206542969 L 11.32393264770508 2.410457611083984 L 14.88945007324219 -1.909610748291016 C 15.47097969055176 -2.614200592041016 16.32611465454102 -3.000160217285156 17.20386505126953 -3.000160217285156 Z" stroke="none" fill="#fff"/>
    </g>
    <path id="Path_16635" data-name="Path 16635" d="M14042.028,1044.625h-.057a1.5,1.5,0,0,1-1.093-.536l-5.442-6.5a1.5,1.5,0,0,1,2.3-1.927l4.378,5.225,10.211-10.457a1.5,1.5,0,0,1,2.146,2.1l-11.369,11.643A1.5,1.5,0,0,1,14042.028,1044.625Z" transform="translate(-14020.896 -1014.048)" fill="#fff"/>
  </g>
</svg>
