<svg xmlns="http://www.w3.org/2000/svg" width="19.953" height="19.905" viewBox="0 0 19.953 19.905">
  <g id="Group_20933" data-name="Group 20933" transform="translate(-61.85 -222.245)">
    <path id="Path_20943" data-name="Path 20943" d="M6.191,12.385a6.2,6.2,0,1,1,6.194-6.2A6.2,6.2,0,0,1,6.191,12.385Zm0-11.4A5.209,5.209,0,1,0,11.4,6.191,5.209,5.209,0,0,0,6.191.983Z" transform="translate(65.405 226.01)" fill="#44c8f5"/>
    <g id="Group_20932" data-name="Group 20932" transform="translate(69.408 226)">
      <ellipse id="Ellipse_1252" data-name="Ellipse 1252" cx="6" cy="5.5" rx="6" ry="5.5" transform="translate(0 1)" fill="#fff"/>
      <path id="Path_4642" data-name="Path 4642" d="M7.8,7.79A6.2,6.2,0,1,0,9.775,6.458,6.2,6.2,0,0,0,7.8,7.79Zm4.4,9.576a5.177,5.177,0,1,1-.113-10.353H12.2Z" transform="translate(-5.985 -5.97)" fill="#039"/>
    </g>
    <line id="Line_442" data-name="Line 442" y1="1.605" transform="translate(70.352 239.895)" fill="none" stroke="#44c8f5" stroke-linecap="round" stroke-width="1.3"/>
    <line id="Line_443" data-name="Line 443" y1="1.605" transform="translate(70.352 222.895)" fill="none" stroke="#44c8f5" stroke-linecap="round" stroke-width="1.3"/>
    <line id="Line_444" data-name="Line 444" x1="1.5" transform="translate(62.5 232.197)" fill="none" stroke="#44c8f5" stroke-linecap="round" stroke-width="1.3"/>
    <line id="Line_445" data-name="Line 445" x1="1.5" transform="translate(63.3 227.928) rotate(21)" fill="none" stroke="#44c8f5" stroke-linecap="round" stroke-width="1.3"/>
    <line id="Line_447" data-name="Line 447" x1="1.5" transform="matrix(0.545, -0.839, 0.839, 0.545, 65.939, 239.85)" fill="none" stroke="#44c8f5" stroke-linecap="round" stroke-width="1.3"/>
    <line id="Line_446" data-name="Line 446" x1="1.5" transform="translate(65.845 224.389) rotate(56)" fill="none" stroke="#44c8f5" stroke-linecap="round" stroke-width="1.3"/>
    <line id="Line_448" data-name="Line 448" x1="1.5" transform="translate(63.409 236.806) rotate(-30)" fill="none" stroke="#44c8f5" stroke-linecap="round" stroke-width="1.3"/>
  </g>
</svg>
