<svg xmlns="http://www.w3.org/2000/svg" width="19.186" height="19.186" viewBox="0 0 19.186 19.186">
  <g id="Group_20945" data-name="Group 20945" transform="translate(-16 -107.407)">
    <g id="Layer_2" data-name="Layer 2" transform="translate(16.01 107.417)">
      <g id="Layer_1" data-name="Layer 1" transform="translate(-0.01 -0.01)">
        <path id="Path_20942" data-name="Path 20942" d="M9.589,19.176a9.593,9.593,0,1,1,9.587-9.589A9.593,9.593,0,0,1,9.589,19.176Zm0-17.649a8.062,8.062,0,1,0,8.062,8.062A8.062,8.062,0,0,0,9.589,1.526Z" transform="translate(0.01 0.01)" fill="#44c8f5"/>
      </g>
    </g>
    <path id="Path_4642" data-name="Path 4642" d="M7.8,7.79A6.2,6.2,0,1,0,9.775,6.458,6.2,6.2,0,0,0,7.8,7.79Zm4.4,9.576a5.177,5.177,0,1,1-.113-10.353H12.2Z" transform="translate(13.414 104.828)" fill="#039"/>
  </g>
</svg>
