<svg xmlns="http://www.w3.org/2000/svg" width="16" height="16" viewBox="0 0 16 16">
  <g id="Group_19831" data-name="Group 19831" transform="translate(-33.999 -308)">
    <path id="Path_20786" data-name="Path 20786" d="M-282.111-4424a.868.868,0,0,1-.631-.29A1.057,1.057,0,0,1-283-4425a1.056,1.056,0,0,1,.259-.711.868.868,0,0,1,.631-.29h14.222a.887.887,0,0,1,.631.29A1.107,1.107,0,0,1-267-4425a1.109,1.109,0,0,1-.258.71.887.887,0,0,1-.631.29Zm0-7a.868.868,0,0,1-.631-.29A1.057,1.057,0,0,1-283-4432a1.056,1.056,0,0,1,.259-.711.868.868,0,0,1,.631-.29h14.222a.887.887,0,0,1,.631.29A1.107,1.107,0,0,1-267-4432a1.109,1.109,0,0,1-.258.71.887.887,0,0,1-.631.29Zm0-7a.868.868,0,0,1-.631-.29A1.057,1.057,0,0,1-283-4439a1.057,1.057,0,0,1,.259-.711.868.868,0,0,1,.631-.29h14.222a.887.887,0,0,1,.631.29A1.108,1.108,0,0,1-267-4439a1.108,1.108,0,0,1-.258.71.887.887,0,0,1-.631.29Z" transform="translate(317 4748)" fill="#b2b2b2"/>
  </g>
</svg>
