<svg xmlns="http://www.w3.org/2000/svg" xmlns:xlink="http://www.w3.org/1999/xlink" width="176" height="110" viewBox="0 0 176 110">
  <defs>
    <clipPath id="clip-path">
      <rect id="Rectangle_10786" data-name="Rectangle 10786" width="176" height="110" transform="translate(1646.239 1159.577)" fill="#15b14b" stroke="#707070" stroke-width="1"/>
    </clipPath>
  </defs>
  <g id="Green_3_Notes" data-name="Green  3 Notes" transform="translate(-1646.239 -1159.577)" clip-path="url(#clip-path)">
    <g id="Group_24055" data-name="Group 24055" transform="translate(1623.458 1250.997) rotate(-57.7)">
      <path id="Path_24012" data-name="Path 24012" d="M58.952,0,0,112.255l52.466,27.291L111.416,27.29Z" transform="translate(0 0)" fill="#70cc90"/>
      <g id="Group_24054" data-name="Group 24054" transform="translate(13.498 13.072)">
        <g id="Group_24053" data-name="Group 24053" transform="translate(0 0)">
          <path id="Path_24013" data-name="Path 24013" d="M43.444,4.681l-8.2,15.609L8.2,71.8,0,87.41a10.886,10.886,0,0,1,4.529,14.68l21.835,11.357a10.987,10.987,0,0,1,14.609-4.72l8.2-15.613L76.223,41.6l8.2-15.614a10.884,10.884,0,0,1-4.447-14.633L58.141,0a10.988,10.988,0,0,1-14.7,4.681" fill="#9de3b6"/>
          <path id="Path_24014" data-name="Path 24014" d="M29.96,2.314A20.424,20.424,0,1,1,10.969,38.478,20.424,20.424,0,1,1,29.96,2.314" transform="translate(21.081 37.569)" fill="#70cc90"/>
          <path id="Path_24015" data-name="Path 24015" d="M11.761,2.448a.535.535,0,0,0-.321.277l-1.364,2.6a5.956,5.956,0,0,0-2.7-.167L9.233,1.617A.526.526,0,0,0,9,.879L7.449.07A.545.545,0,0,0,7.026.023.543.543,0,0,0,6.706.3L.071,12.938a.539.539,0,0,0-.048.421.536.536,0,0,0,.28.318L2.328,14.73a.525.525,0,0,0,.417.035A.541.541,0,0,0,3.07,14.5l1.156-2.2Q5.909,9.091,8.083,9.12L4.789,15.393a.53.53,0,0,0-.047.421.539.539,0,0,0,.278.319l1.553.808a.529.529,0,0,0,.741-.234l3.406-6.485a3.331,3.331,0,0,1,1.085,2.547,7.72,7.72,0,0,1-1.039,3.568l-.894,1.7a.553.553,0,0,0,.232.74l1.933,1a.516.516,0,0,0,.407.038q4.635-1.3,12.663-3.042a.509.509,0,0,0,.383-.285l1.555-2.961A.5.5,0,0,0,27,12.948a.47.47,0,0,0-.549-.209q-7.778,1.6-11.819,2.729A8.678,8.678,0,0,0,15.16,10.4a6.382,6.382,0,0,0-2.532-3.811l1.339-2.55a.539.539,0,0,0,.047-.421.533.533,0,0,0-.278-.319L12.183,2.5a.532.532,0,0,0-.422-.047" transform="translate(28.098 44.523)" fill="#9de3b6"/>
          <path id="Path_24016" data-name="Path 24016" d="M5.8.448a3.958,3.958,0,0,1-3.68,7.008A3.958,3.958,0,0,1,5.8.448" transform="translate(60.159 11.433)" fill="#70cc90"/>
          <path id="Path_24017" data-name="Path 24017" d="M5.8.448A3.957,3.957,0,1,1,2.125,7.456,3.957,3.957,0,0,1,5.8.448" transform="translate(15.534 96.409)" fill="#70cc90"/>
        </g>
      </g>
    </g>
    <g id="Group_24058" data-name="Group 24058" transform="translate(1652.452 1192.107) rotate(-27.7)">
      <path id="Path_24018" data-name="Path 24018" d="M58.952,0,0,112.255l52.466,27.291L111.416,27.29Z" transform="translate(0 0)" fill="#70cc90"/>
      <g id="Group_24057" data-name="Group 24057" transform="translate(13.498 13.072)">
        <g id="Group_24056" data-name="Group 24056" transform="translate(0 0)">
          <path id="Path_24019" data-name="Path 24019" d="M43.444,4.681l-8.2,15.609L8.2,71.8,0,87.41a10.886,10.886,0,0,1,4.529,14.68l21.835,11.357a10.987,10.987,0,0,1,14.609-4.72l8.2-15.613L76.223,41.6l8.2-15.614a10.884,10.884,0,0,1-4.447-14.633L58.141,0a10.988,10.988,0,0,1-14.7,4.681" fill="#9de3b6"/>
          <path id="Path_24020" data-name="Path 24020" d="M29.96,2.314A20.424,20.424,0,1,1,10.969,38.478,20.424,20.424,0,1,1,29.96,2.314" transform="translate(21.081 37.569)" fill="#70cc90"/>
          <path id="Path_24021" data-name="Path 24021" d="M11.761,2.448a.535.535,0,0,0-.321.277l-1.364,2.6a5.956,5.956,0,0,0-2.7-.167L9.233,1.617A.526.526,0,0,0,9,.879L7.449.07A.545.545,0,0,0,7.026.023.543.543,0,0,0,6.706.3L.071,12.938a.539.539,0,0,0-.048.421.536.536,0,0,0,.28.318L2.328,14.73a.525.525,0,0,0,.417.035A.541.541,0,0,0,3.07,14.5l1.156-2.2Q5.909,9.091,8.083,9.12L4.789,15.393a.53.53,0,0,0-.047.421.539.539,0,0,0,.278.319l1.553.808a.529.529,0,0,0,.741-.234l3.406-6.485a3.331,3.331,0,0,1,1.085,2.547,7.72,7.72,0,0,1-1.039,3.568l-.894,1.7a.553.553,0,0,0,.232.74l1.933,1a.516.516,0,0,0,.407.038q4.635-1.3,12.663-3.042a.509.509,0,0,0,.383-.285l1.555-2.961A.5.5,0,0,0,27,12.948a.47.47,0,0,0-.549-.209q-7.778,1.6-11.819,2.729A8.678,8.678,0,0,0,15.16,10.4a6.382,6.382,0,0,0-2.532-3.811l1.339-2.55a.539.539,0,0,0,.047-.421.533.533,0,0,0-.278-.319L12.183,2.5a.532.532,0,0,0-.422-.047" transform="translate(28.098 44.523)" fill="#9de3b6"/>
          <path id="Path_24022" data-name="Path 24022" d="M5.8.448a3.958,3.958,0,0,1-3.68,7.008A3.958,3.958,0,0,1,5.8.448" transform="translate(60.159 11.433)" fill="#70cc90"/>
          <path id="Path_24023" data-name="Path 24023" d="M5.8.448A3.957,3.957,0,1,1,2.125,7.456,3.957,3.957,0,0,1,5.8.448" transform="translate(15.534 96.409)" fill="#70cc90"/>
        </g>
      </g>
    </g>
    <g id="Group_24061" data-name="Group 24061" transform="translate(1704.641 1169.24) rotate(2.3)">
      <path id="Path_24024" data-name="Path 24024" d="M58.952,0,0,112.255l52.466,27.291L111.416,27.29Z" transform="translate(0 0)" fill="#70cc90"/>
      <g id="Group_24060" data-name="Group 24060" transform="translate(13.498 13.072)">
        <g id="Group_24059" data-name="Group 24059" transform="translate(0 0)">
          <path id="Path_24025" data-name="Path 24025" d="M43.444,4.681l-8.2,15.609L8.2,71.8,0,87.41a10.886,10.886,0,0,1,4.529,14.68l21.835,11.357a10.987,10.987,0,0,1,14.609-4.72l8.2-15.613L76.223,41.6l8.2-15.614a10.884,10.884,0,0,1-4.447-14.633L58.141,0a10.988,10.988,0,0,1-14.7,4.681" fill="#9de3b6"/>
          <path id="Path_24026" data-name="Path 24026" d="M29.96,2.314A20.424,20.424,0,1,1,10.969,38.478,20.424,20.424,0,1,1,29.96,2.314" transform="translate(21.081 37.569)" fill="#70cc90"/>
          <path id="Path_24027" data-name="Path 24027" d="M11.761,2.448a.535.535,0,0,0-.321.277l-1.364,2.6a5.956,5.956,0,0,0-2.7-.167L9.233,1.617A.526.526,0,0,0,9,.879L7.449.07A.545.545,0,0,0,7.026.023.543.543,0,0,0,6.706.3L.071,12.938a.539.539,0,0,0-.048.421.536.536,0,0,0,.28.318L2.328,14.73a.525.525,0,0,0,.417.035A.541.541,0,0,0,3.07,14.5l1.156-2.2Q5.909,9.091,8.083,9.12L4.789,15.393a.53.53,0,0,0-.047.421.539.539,0,0,0,.278.319l1.553.808a.529.529,0,0,0,.741-.234l3.406-6.485a3.331,3.331,0,0,1,1.085,2.547,7.72,7.72,0,0,1-1.039,3.568l-.894,1.7a.553.553,0,0,0,.232.74l1.933,1a.516.516,0,0,0,.407.038q4.635-1.3,12.663-3.042a.509.509,0,0,0,.383-.285l1.555-2.961A.5.5,0,0,0,27,12.948a.47.47,0,0,0-.549-.209q-7.778,1.6-11.819,2.729A8.678,8.678,0,0,0,15.16,10.4a6.382,6.382,0,0,0-2.532-3.811l1.339-2.55a.539.539,0,0,0,.047-.421.533.533,0,0,0-.278-.319L12.183,2.5a.532.532,0,0,0-.422-.047" transform="translate(28.098 44.523)" fill="#9de3b6"/>
          <path id="Path_24028" data-name="Path 24028" d="M5.8.448a3.958,3.958,0,0,1-3.68,7.008A3.958,3.958,0,0,1,5.8.448" transform="translate(60.159 11.433)" fill="#70cc90"/>
          <path id="Path_24029" data-name="Path 24029" d="M5.8.448A3.957,3.957,0,1,1,2.125,7.456,3.957,3.957,0,0,1,5.8.448" transform="translate(15.534 96.409)" fill="#70cc90"/>
        </g>
      </g>
    </g>
  </g>
</svg>
