<svg xmlns="http://www.w3.org/2000/svg" width="37.007" height="37" viewBox="0 0 37.007 37">
  <g id="thumbsUpGrey" transform="translate(1 1)">
    <path id="Icon_feather-thumbs-up" data-name="Icon feather-thumbs-up" d="M24.339,15.25v-7A5.293,5.293,0,0,0,19,3L11.891,18.75V38H31.949a3.54,3.54,0,0,0,3.556-2.975l2.454-15.75a3.462,3.462,0,0,0-.832-2.822,3.582,3.582,0,0,0-2.724-1.2ZM11.891,38H6.556A3.529,3.529,0,0,1,3,34.5V22.25a3.529,3.529,0,0,1,3.556-3.5h5.335" transform="translate(-3 -3)" fill="none" stroke="#b2b2b2" stroke-linecap="round" stroke-linejoin="round" stroke-width="2"/>
    <path id="Path_20987" data-name="Path 20987" d="M8489.8-516.5h-6.133" transform="translate(-8456.66 536.917)" fill="none" stroke="#b2b2b2" stroke-linecap="round" stroke-width="2"/>
    <path id="Path_20989" data-name="Path 20989" d="M8483.684-516.5h-.018" transform="translate(-8479.66 536.917)" fill="none" stroke="#b2b2b2" stroke-linecap="round" stroke-width="2"/>
    <path id="Path_20988" data-name="Path 20988" d="M8491.139-516.5h-7.473" transform="translate(-8458 542.75)" fill="none" stroke="#b2b2b2" stroke-linecap="round" stroke-width="2"/>
  </g>
</svg>
