<svg xmlns="http://www.w3.org/2000/svg" width="37.007" height="37" viewBox="0 0 37.007 37">
  <g id="thumbsDownGrey" transform="translate(1.007 1)">
    <g id="Group_21227" data-name="Group 21227" transform="translate(0.525)">
      <path id="Icon_feather-thumbs-up" data-name="Icon feather-thumbs-up" d="M16.661,25.75v7A5.293,5.293,0,0,0,22,38l7.113-15.75V3H9.051A3.54,3.54,0,0,0,5.494,5.975L3.04,21.725a3.462,3.462,0,0,0,.832,2.822A3.582,3.582,0,0,0,6.6,25.75ZM29.109,3h5.335A3.529,3.529,0,0,1,38,6.5V18.75a3.529,3.529,0,0,1-3.556,3.5H29.109" transform="translate(-3.525 -3)" fill="none" stroke="#b2b2b2" stroke-linecap="round" stroke-linejoin="round" stroke-width="2"/>
      <path id="Path_20987" data-name="Path 20987" d="M8483.665-516.5h6.133" transform="translate(-8482.279 531.083)" fill="none" stroke="#b2b2b2" stroke-linecap="round" stroke-width="2"/>
      <path id="Path_20989" data-name="Path 20989" d="M8484.375-516.5h-.719" transform="translate(-8453.869 531.083)" fill="none" stroke="#b2b2b2" stroke-linecap="round" stroke-width="2"/>
      <path id="Path_20988" data-name="Path 20988" d="M8483.665-516.5h7.473" transform="translate(-8482.279 525.25)" fill="none" stroke="#b2b2b2" stroke-linecap="round" stroke-width="2"/>
    </g>
  </g>
</svg>
