<svg xmlns="http://www.w3.org/2000/svg" width="88" height="88" viewBox="0 0 88 88">
  <g id="Group_17338" data-name="Group 17338" transform="translate(-136 -58)">
    <rect id="Rectangle_8403" data-name="Rectangle 8403" width="88" height="88" rx="15" transform="translate(136 58)" fill="#f6f6f6"/>
    <g id="Group_17337" data-name="Group 17337" transform="translate(-0.453 -0.435)">
      <path id="path0" d="M133.01,49.379c-.772.5-1.442.907-1.487.907a.088.088,0,0,0-.083.092c0,.05-.062.092-.137.092s-.137.041-.137.092a.094.094,0,0,1-.1.092,4.469,4.469,0,0,0-.774.458,4.47,4.47,0,0,1-.774.458.088.088,0,0,0-.1.076c0,.042-.113.135-.252.206a3.2,3.2,0,0,0-.343.2c-.05.039-.452.3-.892.581l-.8.511v1.592a13.052,13.052,0,0,0,.049,1.592c.055,0,1.07-.539,1.965-1.043.327-.184.749-.406.938-.492s.343-.188.343-.226.079-.07.176-.07.189-.031.206-.069a1.863,1.863,0,0,1,.442-.287c.227-.12.618-.331.87-.468s.828-.446,1.281-.685c1.158-.611,1.06-.365,1.032-2.584l-.025-1.932-1.4.907m1.252,5.644a2.549,2.549,0,0,1-.534.333c-.772.406-1.559.828-2.014,1.082-.479.268-2.361,1.261-3.158,1.667a6.587,6.587,0,0,0-.595.327,3.492,3.492,0,0,1-.412.234l-.366.187-.025,1.668c-.024,1.572-.016,1.663.137,1.585.089-.046.368-.175.62-.287s.529-.24.617-.285a.792.792,0,0,1,.3-.081c.076,0,.138-.041.138-.092s.055-.092.123-.092a1.284,1.284,0,0,0,.389-.129c.338-.163.933-.426,2.508-1.107l1.076-.466.641-.276c.843-.36.755-.089.755-2.34,0-1.73-.054-2.254-.2-1.929M124.3,66.3c-.469.246-.56.284-.685.284-.076,0-.138.041-.138.092s-.062.092-.138.092a.792.792,0,0,0-.3.081c-.174.089-.8.37-1.3.586-.176.075-.558.244-.849.376s-.547.239-.569.239a5.793,5.793,0,0,0-.541.229,3.26,3.26,0,0,1-.6.229c-.064,0-.1.432-.1,1.266v1.265l.276-.04a.608.608,0,0,0,.326-.122.375.375,0,0,1,.268-.081.372.372,0,0,0,.275-.092.372.372,0,0,1,.275-.092.372.372,0,0,0,.275-.092.372.372,0,0,1,.275-.092.372.372,0,0,0,.275-.092.372.372,0,0,1,.275-.092.372.372,0,0,0,.275-.092.372.372,0,0,1,.275-.092.372.372,0,0,0,.275-.092.372.372,0,0,1,.275-.092.372.372,0,0,0,.275-.092.307.307,0,0,1,.235-.092,1.016,1.016,0,0,0,.384-.106c.437-.226.528-.26.689-.26.346,0,.386-.17.386-1.666s-.015-1.547-.366-1.364m10.023,2.888c-.05.015-.277.078-.5.141s-.494.145-.595.184-.368.121-.595.181a3.935,3.935,0,0,0-.571.194.869.869,0,0,1-.338.083.307.307,0,0,0-.235.092.459.459,0,0,1-.32.092.459.459,0,0,0-.32.092.372.372,0,0,1-.275.092.372.372,0,0,0-.275.092.372.372,0,0,1-.275.092.372.372,0,0,0-.275.092.459.459,0,0,1-.32.092.459.459,0,0,0-.32.092.307.307,0,0,1-.235.092.869.869,0,0,0-.338.083,3.934,3.934,0,0,1-.571.194c-.886.238-.824.1-.824,1.889V74.63l.435-.051a3.018,3.018,0,0,0,.618-.13,2.508,2.508,0,0,1,.5-.125c.176-.025.526-.092.778-.148s.6-.123.778-.148a2.437,2.437,0,0,0,.5-.127,5.581,5.581,0,0,1,1.281-.242,1.2,1.2,0,0,0,.453-.134.871.871,0,0,1,.429-.082.637.637,0,0,0,.4-.092.561.561,0,0,1,.367-.092,1.573,1.573,0,0,0,.544-.106l.233-.106V71.095c0-1.074-.01-1.95-.023-1.946l-.114.035m-17.894.5c-.076.042-.333.163-.572.269l-.824.366c-.214.1-.543.24-.732.32l-.686.294c-.467.2-1.137.5-1.3.582-.106.053-.143.284-.164,1.019-.021.755,0,.927.087.837a.516.516,0,0,1,.318-.113.35.35,0,0,0,.262-.092.355.355,0,0,1,.265-.092.492.492,0,0,0,.27-.062c.034-.034.813-.312,1.731-.618l1.669-.556.026-1.121c.027-1.159,0-1.228-.346-1.034m-.137,5.061c-.151.052-.357.125-.458.163s-.368.119-.595.181-.494.143-.595.181-.327.111-.5.162-.7.211-1.167.354l-.847.261v1.7h.361a.683.683,0,0,0,.417-.092.791.791,0,0,1,.458-.092.791.791,0,0,0,.458-.092.637.637,0,0,1,.4-.092.871.871,0,0,0,.429-.082,1.3,1.3,0,0,1,.476-.137l.778-.11a1.3,1.3,0,0,0,.476-.137.425.425,0,0,1,.252-.082c.149,0,.165-.1.165-1.1,0-1.182.011-1.161-.5-.985m-.366,4.466c-.151.041-.522.123-.824.181s-.714.142-.915.186c-.4.087-1.069.226-1.648.342l-.366.073-.026.946-.026.946.255-.064c.14-.035.646-.1,1.125-.15,1.1-.109,2.2-.233,2.815-.316l.481-.065V79.119l-.3.009a2.955,2.955,0,0,0-.572.085m-6.555,1.32a8.593,8.593,0,0,1-1.454.332c-.227.042-.618.122-.87.177s-.592.124-.755.151l-.3.051v1.189l.709-.052c1.185-.087,2.519-.228,2.906-.308l.366-.075V80.537l-.278-.027a.666.666,0,0,0-.327.022m-6.488,1.149a1.136,1.136,0,0,1-.475.09.628.628,0,0,0-.395.093.75.75,0,0,1-.44.095c-.558,0-.7.153-.7.716v.47h.343c.337,0,1.7-.14,2.288-.235l.3-.048V81.59h-.389a1.314,1.314,0,0,0-.526.09m31.179.339a4.748,4.748,0,0,1-.976.137c-.851.068-1.562.138-3.612.353-.453.048-1.164.111-1.579.142l-.755.055v3.276h7.323V83.97c0-2.074-.047-2.3-.4-1.95m-11.087,1.131c-.3.04-1.043.121-1.648.178s-1.346.132-1.648.167l-.549.062-.026,1.213-.025,1.213h5.589V83.054l-.572.012c-.315.006-.819.045-1.121.085m-13.433,1.33a24.979,24.979,0,0,1-2.837.281l-.709.045v1.18l1.991-.025,1.991-.025.027-.678c.029-.716-.177-1.063-.462-.778m-11.647.77a1.97,1.97,0,0,1-.572.085c-.383.006-.389.011-.389.329v.323l1.213-.025,1.213-.026.028-.389.028-.389-.669.006a3.523,3.523,0,0,0-.852.085M90.8,92.207v1.648h4.577V101.2c0,4.04.035,7.4.075,7.462.057.089.545.111,2.127.092l2.053-.025.023-7.437.024-7.437h4.58l-.025-1.625-.025-1.625-6.7-.024-6.7-.023v1.648m15.56,7.506v9.062h4.21V90.652h-4.21v9.062m9.389-8.869a2.88,2.88,0,0,0-2.123,2.508c-.179.907-.179,11.906,0,12.723a2.7,2.7,0,0,0,1.345,2.064c.856.549,1.1.58,4.552.585l3.14,0,.13-.229c.143-.252.683-1.445.683-1.51,0-.023.124-.311.275-.641a4.954,4.954,0,0,0,.275-.677,27.832,27.832,0,0,0-2.927-.117l-2.927-.039-.231-.217-.231-.217V94.235l.241-.19c.229-.18.354-.19,2.414-.19a7.578,7.578,0,0,0,2.257-.114,8.677,8.677,0,0,0,.393-.847c.17-.4.42-.979.556-1.281s.275-.642.31-.755l.065-.206-3.828,0c-3.607,0-3.859.014-4.37.189m10.425-.08c-.024.064-.034,4.132-.021,9.041l.024,8.924H130.3l.046-3.255.046-3.255.264-.315c.889-1.061.842-1.048,1.227-.361.1.176.4.691.661,1.144s.606,1.05.757,1.327.306.545.344.595c.115.152,1.394,2.344,2.116,3.626.319.566.192.539,2.512.539a16.625,16.625,0,0,0,2.178-.075,13.018,13.018,0,0,0-1.375-2.327,7.488,7.488,0,0,1-.4-.656c0-.022-.33-.561-.732-1.2s-.732-1.178-.732-1.2a5.078,5.078,0,0,0-.354-.565c-.195-.287-.757-1.18-1.25-1.986s-1.057-1.725-1.253-2.044a2.136,2.136,0,0,1-.329-.7c.021-.1,2.857-3.576,3.094-3.8.027-.025.234-.272.459-.548s.5-.606.6-.732c.28-.331,1.614-1.945,1.762-2.132.118-.148,0-.158-2.014-.156l-2.139,0-2.609,3.29c-1.435,1.809-2.66,3.291-2.722,3.293-.087,0-.119-.74-.137-3.269L130.3,90.7l-2.039-.025c-1.581-.019-2.049,0-2.083.092M95.445,111.757c-.085.085-.089,3.641-.008,6.248l.06,1.937h3.262l.025-1.487.025-1.487,1.922-.046c2.225-.053,2.5-.124,2.906-.747.726-1.12.29-4.2-.6-4.2a.4.4,0,0,1-.238-.114,71.031,71.031,0,0,0-7.359-.107m9.5.053c-.026.067-.036,1.914-.023,4.1l.024,3.982,1.67.025,1.67.025v-.97c0-1.205-.02-1.205,1.222.027l.946.938H112.2a12.02,12.02,0,0,0,1.753-.065c0-.036-.6-.671-1.337-1.412-1.377-1.388-1.464-1.543-.866-1.543,1.181,0,1.76-.821,1.774-2.517.012-1.393-.24-2.013-.99-2.439-.455-.258-7.5-.4-7.6-.155m11.442-.047a1.843,1.843,0,0,0-1.494,1.039,21.968,21.968,0,0,0,.064,6.087,1.5,1.5,0,0,0,.744.743c.638.283.952.31,3.661.31,3.161,0,3.541-.062,4.109-.663.422-.447.453-.677.46-3.425.011-4.176.1-4.088-4.249-4.112-1.611-.009-3.094,0-3.3.021m-16.235,1.732c1.05.543.384,1.933-.887,1.853l-.452-.029-.026-.984-.026-.984h.557a2.139,2.139,0,0,1,.834.143m9.509-.005c1.035.535.375,1.938-.876,1.858l-.453-.029-.026-.984-.026-.984h.557a2.2,2.2,0,0,1,.824.138m10.528.113c.67.6.654,3.945-.022,4.446a1.376,1.376,0,0,1-1.878-.3,9.353,9.353,0,0,1-.064-3.839,1.394,1.394,0,0,1,1.964-.311" transform="translate(64.707 18.162)" fill="#162f53" fill-rule="evenodd"/>
      <path id="path2" d="M157.712,100.063c-.69.38-1.627.884-2.792,1.5-.453.241-1.112.6-1.464.79l-.641.352-.025,1.3a5.134,5.134,0,0,0,.057,1.3c.085,0,1.3-.523,3.061-1.317.291-.131.547-.239.57-.239s.32-.129.661-.286.8-.362,1.009-.454l.389-.169V101.29c0-1.782.05-1.708-.824-1.227m10.206,1.462c-.62.281-1.351.6-2.609,1.131-1.354.574-1.482.63-2.405,1.046-.291.131-.547.239-.57.239-.05,0-1.23.523-1.418.629a11.541,11.541,0,0,0-.091,3.4c.088.054,7.122-2.24,7.391-2.41a22.3,22.3,0,0,0,.046-4.118.642.642,0,0,0-.343.084m-10.069,10.285c-.252.088-.767.254-1.144.369s-.913.282-1.19.371-.936.292-1.465.449c-1.353.4-1.232.244-1.261,1.654-.03,1.448-.078,1.385.9,1.184,1.124-.232,2.642-.553,3.066-.648.2-.045.572-.12.824-.166a5.058,5.058,0,0,0,.712-.181l.254-.1-.025-1.527c-.028-1.689,0-1.64-.666-1.408m9.29,3.3c-.428.091-1.416.3-2.2.459s-1.789.373-2.242.469-.968.2-1.144.227a3.594,3.594,0,0,0-.574.147l-.254.1.025,1.659.025,1.659.366,0c.2,0,.819-.057,1.373-.119s1.357-.151,1.785-.2,1.21-.129,1.739-.187,1.249-.132,1.6-.165l.641-.059.025-2.082.024-2.082-.208.008c-.114,0-.558.083-.986.173M143.3,116.336c-.2.066-.675.211-1.053.322s-.789.237-.915.281-.527.17-.892.281l-.664.2v.684c0,.668.005.683.206.62s.473-.122,1.442-.314c.277-.055.668-.137.87-.182s.586-.127.854-.182a3.422,3.422,0,0,0,.572-.152,4.778,4.778,0,0,0,.016-1.685,3.89,3.89,0,0,0-.435.125m14.462.7-2.591.539c-1.224.254-2.264.485-2.311.514a6.422,6.422,0,0,0,.072,2.605c.186,0,4.325-.433,5.059-.529l.5-.066V118.54c0-1.753.04-1.671-.732-1.507m-8.192,6.317c-.277.042-1,.122-1.6.177s-1.325.129-1.6.165l-.5.065v1.831h4.76V123.3l-.275-.013a5.157,5.157,0,0,0-.778.063m-13.455.927c-.378.044-.872.11-1.1.147l-.412.066v1.1h3.021l.027-.709.027-.709-.439.013c-.241.007-.748.049-1.125.094" transform="translate(30.929 -21.396)" fill="#dc0a19" fill-rule="evenodd"/>
      <path id="path4" d="M133.263,48.284c-.574.376-1.229.8-1.455.931-.374.224-2.347,1.491-4.279,2.747l-.755.491v1.693c0,1.9-.039,1.825.718,1.407.285-.157,1.131-.614,1.881-1.016s1.9-1.026,2.563-1.387,1.478-.8,1.817-.975l.617-.318V49.728c0-1.17-.014-2.128-.032-2.128s-.5.308-1.075.684m.9,3.488a8.989,8.989,0,0,1-.94.544c-.453.239-1.03.547-1.281.685s-.643.348-.87.468a1.862,1.862,0,0,0-.442.287c-.017.038-.11.069-.206.069s-.176.032-.176.07-.154.14-.343.226-.611.307-.938.492c-.894.5-1.909,1.043-1.965,1.043a13.046,13.046,0,0,1-.049-1.592V52.47l.8-.511c.441-.281.842-.543.892-.581a3.206,3.206,0,0,1,.343-.2c.138-.071.252-.164.252-.206a.088.088,0,0,1,.1-.076,4.469,4.469,0,0,0,.774-.458,4.47,4.47,0,0,1,.774-.458.094.094,0,0,0,.1-.092c0-.05.062-.092.137-.092s.137-.041.137-.092a.088.088,0,0,1,.083-.092c.046,0,.715-.408,1.487-.907l1.4-.907.025,1.932a6.147,6.147,0,0,1-.092,2.04m-.482,2.685c-.252.138-.828.449-1.281.69-1.246.664-1.975,1.058-2.38,1.285-.2.113-.86.465-1.464.783s-1.253.674-1.442.792l-.343.214v1.692c0,1.917-.043,1.833.752,1.474.567-.257,1.268-.568,1.719-.764.176-.076.575-.257.887-.4a6.206,6.206,0,0,1,.615-.263,4.767,4.767,0,0,0,.532-.219c.617-.279,1.091-.489,2.2-.973l.892-.39V56.282c0-2.34.043-2.225-.686-1.826m.595,1.823c0,2.251.087,1.98-.755,2.34l-.641.276-1.075.466c-1.575.681-2.171.944-2.508,1.107a1.284,1.284,0,0,1-.389.129c-.068,0-.123.041-.123.092s-.062.092-.138.092a.792.792,0,0,0-.3.081c-.087.045-.365.173-.617.285s-.531.241-.62.287c-.153.079-.161-.013-.137-1.585L127,58.181l.366-.187a3.491,3.491,0,0,0,.412-.234,6.585,6.585,0,0,1,.595-.327c.8-.406,2.678-1.4,3.158-1.667.455-.254,1.241-.676,2.014-1.082a2.548,2.548,0,0,0,.534-.333c.145-.325.2.2.2,1.929m-10.572,9.4c-.4.177-.907.4-1.12.5a3.29,3.29,0,0,1-.436.178,4.027,4.027,0,0,0-.481.194c-.239.106-.557.246-.708.311-.339.144-1.034.453-1.67.74l-.481.217v1.329c0,1.04.026,1.328.121,1.328.227,0,1.02-.306.9-.347a.531.531,0,0,0-.319.054c-.619.3-.609.316-.609-1.089,0-.839.033-1.273.1-1.273a3.26,3.26,0,0,0,.6-.229,5.79,5.79,0,0,1,.541-.229c.022,0,.278-.107.569-.239s.673-.3.849-.376c.5-.215,1.129-.5,1.3-.586a.792.792,0,0,1,.3-.081c.076,0,.138-.041.138-.092s.062-.092.138-.092c.135,0,.232-.038.661-.26.379-.2.39-.159.39,1.34s-.039,1.666-.386,1.666a.935.935,0,0,0-.348.092l-.364.183a.962.962,0,0,1-.361.092.307.307,0,0,0-.235.092.372.372,0,0,1-.275.092.372.372,0,0,0-.275.092.372.372,0,0,1-.275.092.372.372,0,0,0-.275.092.372.372,0,0,1-.275.092.372.372,0,0,0-.275.092.372.372,0,0,1-.275.092.372.372,0,0,0-.275.092.372.372,0,0,1-.275.092.372.372,0,0,0-.275.092c-.093.15,0,.124,2.311-.655l2.22-.748V66.99a9.762,9.762,0,0,0-.069-1.63,8.457,8.457,0,0,0-.8.325m9.474,2.971c-.428.141-1.272.408-1.876.592s-1.325.411-1.6.5-.936.3-1.465.455-1.074.332-1.213.385l-.252.1v3.364l.343-.009a2.283,2.283,0,0,0,.572-.09c.168-.059.1-.07-.252-.041l-.481.04V72.371c0-1.789-.062-1.648.824-1.886a3.936,3.936,0,0,0,.571-.194.869.869,0,0,1,.338-.083.307.307,0,0,0,.235-.092.459.459,0,0,1,.32-.092.459.459,0,0,0,.32-.092.372.372,0,0,1,.275-.092.372.372,0,0,0,.275-.092.372.372,0,0,1,.275-.092.372.372,0,0,0,.275-.092.459.459,0,0,1,.32-.092.459.459,0,0,0,.32-.092.307.307,0,0,1,.235-.092.869.869,0,0,0,.338-.083,3.935,3.935,0,0,1,.571-.194c.227-.061.494-.144.595-.184a7.008,7.008,0,0,1,.938-.268l.3-.076v3.887l-.233.106a1.573,1.573,0,0,1-.544.106.561.561,0,0,0-.367.092.637.637,0,0,1-.4.092.871.871,0,0,0-.429.082,1.2,1.2,0,0,1-.453.134,5.582,5.582,0,0,0-1.281.242,2.436,2.436,0,0,1-.5.127c-.176.025-.526.092-.778.149s-.622.125-.824.152a1.184,1.184,0,0,0-.453.131c-.157.149-.2.157,4.069-.75,1.571-.334,1.782-.381,2.014-.446l.229-.064.025-2.075.024-2.075-.208.011a6.7,6.7,0,0,0-.986.268m-17.849.653c-.68.3-1.331.579-1.447.627s-.425.184-.686.3-.619.268-.8.336c-.546.21-.549.217-.549,1.294a3.668,3.668,0,0,0,.069.994c.038,0,.6-.189,1.259-.419s1.313-.452,1.465-.495.666-.214,1.144-.382l.87-.3.026-1.183a5.892,5.892,0,0,0-.046-1.245,5.987,5.987,0,0,0-1.307.476m1.261.739-.026,1.121-1.669.556c-.918.306-1.7.584-1.731.618a.492.492,0,0,1-.27.062.355.355,0,0,0-.265.092.35.35,0,0,1-.262.092.516.516,0,0,0-.318.113c-.09.09-.108-.082-.087-.837.02-.734.057-.966.164-1.019.167-.083.837-.383,1.3-.582l.687-.294c.189-.081.518-.225.732-.32l.824-.366c.239-.106.5-.227.572-.269.349-.194.373-.125.346,1.034m-.849,4.005c-.252.091-.767.256-1.144.366s-.769.233-.87.273-.492.161-.87.269c-1.02.292-.957.208-.987,1.319a2.819,2.819,0,0,0,.058.974c.046,0,.676-.125,1.4-.279s1.707-.357,2.185-.452c1.309-.26,1.189-.113,1.189-1.476V73.87l-.252.009a3.108,3.108,0,0,0-.709.175m.87,1.006c0,1-.015,1.1-.165,1.1a.425.425,0,0,0-.252.082,1.3,1.3,0,0,1-.476.137l-.778.11a1.3,1.3,0,0,0-.476.137.871.871,0,0,1-.429.082.637.637,0,0,0-.4.092.791.791,0,0,1-.458.092.791.791,0,0,0-.458.092.683.683,0,0,1-.417.092h-.361v-1.7l.847-.261c.466-.143.991-.3,1.167-.354s.4-.124.5-.162.368-.119.595-.181.494-.143.595-.181a5.109,5.109,0,0,1,.847-.267c.086-.007.114.266.114,1.089m-1.465,3.477c-.68.142-1.667.345-2.195.453a5.791,5.791,0,0,0-1.033.269,3.89,3.89,0,0,0,.141,1.993c.113.01.12,0,.023-.029a4.008,4.008,0,0,1-.064-1.9,3.883,3.883,0,0,1,.618-.142c.3-.053.728-.137.954-.188s.638-.137.915-.192l.915-.184c.227-.047.587-.11.8-.141l.389-.056v2.2l-.481.065c-.264.036-.817.092-1.228.126-.691.057-1.17.2-.663.2.27,0,1.757-.166,2.166-.24l.3-.054V79.488c0-1.109-.015-1.225-.16-1.218-.088,0-.716.124-1.4.265m-6.041,1.238c-.277.063-1.059.228-1.739.367-1.751.356-1.648.3-1.646.98,0,.807.036.841.742.733l.584-.089-.618-.012-.618-.012v-1.17l.3-.051c.164-.028.5-.1.755-.151s.643-.135.87-.177.638-.129.915-.193a5.339,5.339,0,0,1,.824-.125l.32-.009v1.459l-.4.069c-.532.091-.588.165-.124.165.609,0,.868-.734.6-1.716-.061-.229-.059-.229-.766-.068M102.7,80.881c-.327.072-.822.174-1.1.227-1.015.194-.958.142-.988.9l-.027.674.439-.057c.242-.031.9-.1,1.456-.148,1.4-.125,1.317-.063,1.317-.974v-.768l-.252.008a6.675,6.675,0,0,0-.847.138m.915.673v.637l-.3.048c-.586.094-1.951.235-2.288.235h-.343V82c0-.564.146-.712.7-.716a.75.75,0,0,0,.44-.094.628.628,0,0,1,.395-.093,1.136,1.136,0,0,0,.475-.09,1.314,1.314,0,0,1,.526-.09h.389v.637m8.833-.454c-.237.1.238.1.961,0l.5-.07-.641-.007a3.175,3.175,0,0,0-.824.072m20.686.2c-.651.081-1.541.175-3.432.362-.579.057-1.465.152-1.968.211l-.915.107v3.379l3.776.024,3.776.024V81.192l-.3.012c-.164.007-.586.049-.938.092m1.144,2v2.014h-7.323V82.035l.755-.055c.415-.03,1.126-.094,1.579-.142,2.05-.215,2.761-.284,3.612-.353a4.747,4.747,0,0,0,.976-.137c.353-.353.4-.125.4,1.95m-27-1.648c-.318.1.441.105,1.007,0,.4-.072.4-.073-.183-.076a3.767,3.767,0,0,0-.824.071m16.155.644c-.4.038-1.185.115-1.739.171s-1.381.135-1.837.177c-1.117.1-1.046,0-1.046,1.485V85.4h5.771l-.025-1.579c-.029-1.817.1-1.646-1.123-1.529m1.053,1.552v1.464H118.9l.025-1.213.026-1.213.549-.062c.3-.034,1.043-.109,1.648-.167s1.346-.137,1.648-.178.807-.079,1.121-.085l.572-.012v1.465M108.7,83.765c-.984.1-1.117.15-.458.16a4.63,4.63,0,0,0,.915-.078c.639-.151.7-.088.667.716l-.027.7-1.987.025-1.986.024-.034-.619-.035-.62.007.641.007.641,2.007.025c1.545.019,2.024,0,2.081-.092a4.368,4.368,0,0,0,.021-1.482c-.06-.157-.091-.158-1.18-.043m-2.426.265c-.378.059-.359.065.229.071a3.165,3.165,0,0,0,.824-.071c.226-.1-.429-.1-1.053,0M98.2,84.4c-.385.037-.89.1-1.121.13l-.42.063V85.4h2.654v-.549c0-.624.122-.575-1.113-.457m1,.479-.028.389-1.213.026-1.213.025v-.323c0-.318.006-.323.389-.329a1.97,1.97,0,0,0,.572-.085,3.523,3.523,0,0,1,.852-.085l.669-.006-.028.389m-1.9,5.01,6.728.047.049,1.648.049,1.648.02-1.661c.017-1.442,0-1.668-.125-1.716-.08-.031-3.138-.046-6.8-.034l-6.651.022,6.728.047m39.313,0c-.8.044-.563.059,1.14.073,1.67.014,2.122.043,2.037.128a.369.369,0,0,0-.11.2c0,.051.064,0,.143-.11.283-.4-.279-.456-3.209-.295M106.13,90c-.024.064-.033,4.153-.02,9.086l.024,8.97.022-9.039.022-9.039h4.21V108.1l-2.105.027-2.105.027,2.128,0,2.128,0V89.933l-2.13-.024c-1.655-.019-2.14,0-2.175.092m13.945-.044,3.69.025-.058.205c-.045.161-.037.175.039.068.256-.366.249-.367-3.631-.344l-3.73.022,3.69.025m5.875,0a15.945,15.945,0,0,0,2.082.069h2.082l.024,3.272c.022,3.04.035,3.272.183,3.265.1,0,.113-.026.045-.053a13.418,13.418,0,0,1-.114-3.189c0-1.728-.025-3.208-.056-3.287a19.6,19.6,0,0,0-4.246-.076M90.564,91.581c0,.856.014,1.218.03.805s.017-1.113,0-1.556-.031-.105-.031.751m48.524-.641c-.237.277-.4.5-.354.5a5.028,5.028,0,0,0,.823-1,4.315,4.315,0,0,0-.469.5m-25.255.435-.165.3.189-.229c.167-.2.242-.366.167-.366a1.494,1.494,0,0,0-.191.3m19.752,1.053c-.392.491-.855,1.067-1.028,1.281a1.4,1.4,0,0,0-.268.389,9.882,9.882,0,0,0,.76-.892c.392-.491.855-1.067,1.028-1.281a1.4,1.4,0,0,0,.268-.389,9.89,9.89,0,0,0-.76.892m-41.846.824c.642.016,1.692.016,2.334,0s.117-.029-1.167-.029-1.809.013-1.167.029m7.757,0a8.135,8.135,0,0,0,1.487.045q4.178-.066.778-.095a18.858,18.858,0,0,0-2.266.05m18.273.121-.241.19v10.847l.212.2a.809.809,0,0,0,.287.2c.041,0-.033-.085-.166-.19l-.241-.19V99c0-5.977-.039-5.582.573-5.728.269-.064.275-.071.058-.08a.875.875,0,0,0-.481.18m18.68.74a3.246,3.246,0,0,0-.4.535,6,6,0,0,0,.87-1.041,2.623,2.623,0,0,0-.474.505m-23.18,4.929c0,2.945.012,4.15.026,2.677s.014-3.882,0-5.355-.026-.268-.026,2.677M132.027,94.4c-.4.462-.52.618-.473.618a2.374,2.374,0,0,0,.386-.412c.344-.42.412-.581.087-.206m3.4.961c-.2.239-.263.352-.147.252.2-.178.6-.686.537-.686a3.657,3.657,0,0,0-.39.435m-.6.732c-.54.6-.662.755-.615.755a3.473,3.473,0,0,0,.481-.5c.438-.513.543-.71.134-.252m-.7,1.9a3.021,3.021,0,0,0,.293.458c.084.1.06.018-.054-.183-.249-.444-.436-.659-.239-.275m.933,1.51a.789.789,0,0,0,.188.275c.025,0-.018-.124-.1-.275a.788.788,0,0,0-.188-.275c-.025,0,.018.124.1.275m.6.984c.233.389.359.548.359.451a3.291,3.291,0,0,0-.523-.794c-.022,0,.051.154.164.343m-4.812.3c-.145.151-.224.272-.177.27.081,0,.552-.544.476-.544a1.813,1.813,0,0,0-.3.275m1.059.595a3.51,3.51,0,0,0,.293.458c.137.144-.176-.436-.346-.641-.084-.1-.06-.018.054.183m4.251-.086a4.1,4.1,0,0,0,.336.5l.181.223-.155-.281a4.1,4.1,0,0,0-.336-.5l-.181-.223.155.281m-6,3.518-.045,3.249H128.04a14.6,14.6,0,0,0-2.031.069,21.055,21.055,0,0,0,4.14-.057,19.255,19.255,0,0,0,.079-3.318l-.025-3.193-.045,3.249m2.554-2.059c.154.3.281.464.28.366a.875.875,0,0,0-.188-.32q-.186-.228-.092-.046m4.311-.11a3.148,3.148,0,0,0,.526.8c.041,0-.1-.247-.4-.684-.068-.1-.123-.15-.123-.112m.739,1.208a3.508,3.508,0,0,0,.293.458c.137.144-.176-.436-.346-.641-.084-.1-.06-.018.054.183m-4.305.183a.874.874,0,0,0,.188.32q.186.228.092.046c-.154-.3-.281-.464-.28-.366m.366.641a.875.875,0,0,0,.188.32q.186.228.092.046c-.154-.3-.281-.464-.28-.366m-12.456.206a9.426,9.426,0,0,1,2.493.139c.05.079.072.065.073-.047,0-.149-.17-.159-2.493-.139l-2.494.021,2.421.026m17.124.139a3.272,3.272,0,0,0,.515.8,2.1,2.1,0,0,0-.371-.686c-.078-.1-.143-.151-.144-.112m-4.168.524a.788.788,0,0,0,.188.275c.025,0-.018-.124-.1-.275a.788.788,0,0,0-.188-.275c-.025,0,.018.124.1.275m.363.618a.905.905,0,0,0,.189.3c.091,0,.032-.146-.147-.366l-.186-.229.145.3m4.671.3a.789.789,0,0,0,.188.275c.025,0-.018-.124-.1-.275a.788.788,0,0,0-.188-.275c-.025,0,.018.124.1.275m-25.308.49a3.778,3.778,0,0,0,1.067.791c.04,0-.091-.109-.291-.241a7.284,7.284,0,0,1-.684-.526c-.305-.272-.309-.273-.092-.024m26.077.732c.1.168.162.333.13.366a20.915,20.915,0,0,1-4.461-.1c-.19-.16-.19-.16-.016.046a15.427,15.427,0,0,0,4.631.1,1.96,1.96,0,0,0-.427-.72c-.025,0,.039.138.143.306m-17.565.241c-.093.174-.212.183-2.818.208l-2.721.026,2.735,0c2.734,0,2.735,0,2.872-.208.075-.113.113-.206.083-.206s-.1.082-.151.182m-7,0a1.008,1.008,0,0,0,.32.079c.087,0,.07-.029-.046-.079a1.008,1.008,0,0,0-.32-.079c-.086,0-.07.029.046.079m-20.342.092a20.648,20.648,0,0,0,4.278.116,15.452,15.452,0,0,0-2.075-.044c-1.612.02-2.093,0-2.158-.092s-.074-.086-.046.019m21.144.066a1.635,1.635,0,0,0,.458,0c.113-.022,0-.039-.253-.038s-.344.019-.2.04m-21.277,2.973c-.022.066-.017,1.952.011,4.192l.051,4.073h3.478l.046-1.419.046-1.419,1.831-.051a6.967,6.967,0,0,0,2.218-.215c1.618-.687,1.673-4.2.079-5.07a49.335,49.335,0,0,0-7.761-.092m9.558,4.078.024,4.188,1.6.026c2.176.035,2.014.111,2.014-.943s-.093-1.057.989.048l.9.915h1.879a15.711,15.711,0,0,0,1.943-.064,10.27,10.27,0,0,0-1.289-1.421c-1.381-1.385-1.463-1.525-.9-1.536,2.207-.041,2.355-4.806.165-5.315-.192-.044-1.924-.082-3.85-.083l-3.5,0,.024,4.188m11.374-4.145c-.05.018-.2.058-.342.088-1.025.226-1.352,1.185-1.352,3.97,0,4.167.164,4.314,4.821,4.318,4.755,0,4.746.013,4.741-4.208,0-3.225-.059-3.429-1.1-4.01a56.105,56.105,0,0,0-6.773-.158m-13.4.209a.4.4,0,0,0,.238.114c.885,0,1.322,3.075.6,4.2-.4.623-.681.694-2.906.747l-1.922.046-.025,1.487-.025,1.487H95.315l-.06-1.937c-.081-2.607-.076-6.163.008-6.248a71.031,71.031,0,0,1,7.359.107m9.734.1c.75.425,1,1.046.99,2.439-.014,1.7-.593,2.517-1.774,2.517-.6,0-.511.155.866,1.543.735.741,1.337,1.377,1.337,1.412a12.02,12.02,0,0,1-1.753.065h-1.754l-.946-.938c-1.243-1.233-1.222-1.232-1.222-.027v.97l-1.67-.025-1.67-.025-.024-3.982c-.013-2.19,0-4.037.023-4.1.095-.247,7.143-.1,7.6.155m10.423,0c.923.538.974.743.966,3.889-.008,2.748-.038,2.978-.46,3.425-.568.6-.949.663-4.109.663a22.378,22.378,0,0,1-3.106-.1c-1.457-.465-1.513-.614-1.515-4.015,0-3.185.07-3.454,1.051-3.915a28.545,28.545,0,0,1,7.174.056M98.6,113.663l.026.984.452.029c.976.062,1.62-.619,1.3-1.378-.183-.437-.551-.619-1.25-.619h-.557l.026.984m9.519,0,.026.984.453.029c.788.05,1.332-.344,1.332-.966,0-.746-.354-1.031-1.28-1.031h-.557l.026.984m10.308-.844c-.871.473-.784,4.218.11,4.691a1.407,1.407,0,0,0,1.8-.629,14.549,14.549,0,0,0,.031-3.332,1.34,1.34,0,0,0-1.941-.729M99.82,112.9c.957.4.508,1.644-.573,1.588l-.529-.027-.027-.724c-.038-1.031.214-1.218,1.129-.836m9.812.186c.567.659.092,1.42-.885,1.42h-.464v-1.764l.571.052c.467.042.609.1.778.292m10.39.046.252.279v3.456l-.255.273a1.21,1.21,0,0,1-1.82-.127,9.76,9.76,0,0,1-.087-3.638,1.218,1.218,0,0,1,1.91-.242" transform="translate(64.889 18.834)" fill="#6e8dbe" fill-rule="evenodd"/>
    </g>
  </g>
</svg>
