<svg xmlns="http://www.w3.org/2000/svg" width="34" height="33" viewBox="0 0 34 33">
  <g id="Group_21080" data-name="Group 21080" transform="translate(-32 -401)">
    <g id="Group_19952" data-name="Group 19952" transform="translate(32 398)">
      <ellipse id="Ellipse_782" data-name="Ellipse 782" cx="17" cy="16.5" rx="17" ry="16.5" transform="translate(0 3)" fill="#44c8f5"/>
    </g>
    <path id="Path_19005" data-name="Path 19005" d="M-1042.741,2803.575a.374.374,0,0,1-.061,0,.959.959,0,0,1-.669-.33l-3.917-4.481a.97.97,0,0,1,.092-1.37.972.972,0,0,1,1.371.094l3.273,3.744,8.147-7.22a.973.973,0,0,1,1.37.081.973.973,0,0,1-.083,1.374l-8.878,7.869A.977.977,0,0,1-1042.741,2803.575Z" transform="translate(1089.26 -2381.169)" fill="#fff"/>
  </g>
</svg>
