<svg xmlns="http://www.w3.org/2000/svg" xmlns:xlink="http://www.w3.org/1999/xlink" width="66.181" height="48.218" viewBox="0 0 66.181 48.218">
  <defs>
    <clipPath id="clip-path">
      <rect id="Rectangle_10531" data-name="Rectangle 10531" width="26.751" height="24" fill="#9a2b34"/>
    </clipPath>
  </defs>
  <g id="Group_23464" data-name="Group 23464" transform="translate(-79 -250)">
    <g id="Group_23428" data-name="Group 23428" transform="translate(65 262)">
      <g id="Group_23427" data-name="Group 23427" transform="translate(34 -12)" clip-path="url(#clip-path)">
        <path id="Path_23231" data-name="Path 23231" d="M44.786,24.039V.2C45.623.05,54.537,0,57.475.137L55.558,3.268H48.044V21.8a6.15,6.15,0,0,0,2.694-1.622,11.372,11.372,0,0,0,2.891-4.583,10.687,10.687,0,0,0,.636-3.044c0-.342.232-.744.151-1.112a12.314,12.314,0,0,0-.585-2.949c-.039-.081-.005-.2-.005-.395.509-.038,1.031-.011,1.55-.016s1.063,0,1.621,0a16,16,0,0,1,.451,3.626,10.633,10.633,0,0,1-.681,3.513,11.5,11.5,0,0,1-2.819,4.431,13.421,13.421,0,0,1-2.695,2.227,12.376,12.376,0,0,1-3.656,1.6,15.018,15.018,0,0,1-2.137.4c-.026,0-.048.107-.072.164Z" transform="translate(-30.724 -0.039)" fill="#9a2b34"/>
        <path id="Path_23232" data-name="Path 23232" d="M12.053,24.125c-.053-.067-.1-.188-.159-.192a13.218,13.218,0,0,1-5.931-2.156,13.694,13.694,0,0,1-2.867-2.485,12.413,12.413,0,0,1-2.13-3.606A10.062,10.062,0,0,1,.2,11.715a6.659,6.659,0,0,0-.008-1.2C.085,9.792.474,9.135.409,8.34a2.659,2.659,0,0,1,.625-.169c.9-.019,1.8-.008,2.791-.008a5.559,5.559,0,0,1-.214.8,5.081,5.081,0,0,0-.4,2.33c.015.3.009.6,0,.9a10.006,10.006,0,0,0,.681,3.51,11.994,11.994,0,0,0,3.461,5.054A7.459,7.459,0,0,0,9.6,21.92V3.4H2.157c-.63-.474-.832-1.242-1.271-1.845C.6,1.156.463.647,0,.381v-.2H12.656V24.125Z" transform="translate(0 -0.125)" fill="#9a2b34"/>
      </g>
    </g>
    <g id="Group_23429" data-name="Group 23429" transform="translate(51.458 282.528)">
      <path id="Path_23233" data-name="Path 23233" d="M366.466,3.539V15.848h-1.212c-.118-.563-.164-12.753-.053-15.584h1.363c.687.732,1.427,1.474,2.112,2.264.786.906,1.6,1.79,2.4,2.681.433.481.9.933,1.313,1.427.771.919,1.618,1.773,2.39,2.686a10.517,10.517,0,0,1,1.432,1.654,3.583,3.583,0,0,0,.458.517V.256h1.249v15.6l-.453.037a22.186,22.186,0,0,1-2.148-2.411c-.043-.055-.1-.1-.149-.15-.535-.578-1.092-1.138-1.6-1.739-.652-.773-1.33-1.523-2-2.279-.685-.774-1.361-1.557-2.057-2.322-.712-.782-1.4-1.588-2.1-2.381-.287-.325-.587-.642-.946-1.068" transform="translate(-284.193 -0.199)" fill="#9a2b34"/>
      <path id="Path_23234" data-name="Path 23234" d="M291.406.209H292c.023.045.043.083.062.122.473.978.978,1.943,1.41,2.938.562,1.3,1.185,2.562,1.771,3.845.244.534.521,1.053.755,1.589.616,1.415,1.283,2.8,1.946,4.2.261.548.518,1.1.78,1.649.195.407.352.832.531,1.263h-2.583l-2.333-5.029h-6.589l-2.407,5.042h-1.392c.494-1,1.017-1.939,1.431-2.927.346-.825.8-1.593,1.142-2.415.375-.907.893-1.746,1.268-2.645.386-.926.9-1.788,1.284-2.708.38-.9.887-1.747,1.269-2.645.324-.761.709-1.49,1.066-2.276m-.281,3.47c-.54,1.141-1.047,2.22-1.561,3.3a29.071,29.071,0,0,0-1.3,2.807c.946,0,1.863,0,2.781,0s1.815.023,2.8-.022l-2.72-6.08" transform="translate(-221 -0.163)" fill="#9a2b34"/>
      <path id="Path_23235" data-name="Path 23235" d="M131.894,15.665h-2.572V1.314H124.24V.111c.608-.114,9.24-.155,12.711-.054V1.3h-4.862l-.195.194Z" transform="translate(-96.698 0)" fill="#9a2b34"/>
      <path id="Path_23236" data-name="Path 23236" d="M239.872.286V1.508H234.8V15.875H232.27c.009.01-.01-.005-.022-.025a.123.123,0,0,1-.022-.061c0-4.736,0-9.472,0-14.233h-5.088c-.036-.429-.01-.839-.02-1.27Z" transform="translate(-176.77 -0.223)" fill="#9a2b34"/>
      <path id="Path_23237" data-name="Path 23237" d="M198.572,15.872,198.4,15.7V.281h2.648V15.872Z" transform="translate(-154.416 -0.219)" fill="#9a2b34"/>
    </g>
  </g>
</svg>
