<svg id="todaysLeads" xmlns="http://www.w3.org/2000/svg" width="50" height="50" viewBox="0 0 50 50">
  <g id="Group_23701" data-name="Group 23701">
    <circle id="Ellipse_301" data-name="Ellipse 301" cx="25" cy="25" r="25" fill="#f1f2f8"/>
  </g>
  <g id="Group_23916" data-name="Group 23916" transform="translate(-606 -178.581)">
    <path id="Path_21284" data-name="Path 21284" d="M21.471,1.926H19.257V.77a.77.77,0,0,0-1.541,0V1.926H6.932V.77a.77.77,0,0,0-1.541,0V1.926H3.177A3.181,3.181,0,0,0,0,5.1V21.471a3.181,3.181,0,0,0,3.177,3.177H21.471a3.181,3.181,0,0,0,3.177-3.177V5.1A3.181,3.181,0,0,0,21.471,1.926ZM3.177,3.466H5.392v.77a.77.77,0,0,0,1.541,0v-.77H17.716v.77a.77.77,0,0,0,1.541,0v-.77h2.215A1.639,1.639,0,0,1,23.108,5.1V6.932H1.541V5.1A1.639,1.639,0,0,1,3.177,3.466ZM21.471,23.107H3.177a1.639,1.639,0,0,1-1.637-1.637v-13H23.108v13A1.639,1.639,0,0,1,21.471,23.107Z" transform="translate(619 191.581)" fill="#9ea1af"/>
    <g id="users" transform="translate(626.512 201.959)">
      <path id="Path_21011" data-name="Path 21011" d="M10.163,15.811v-1.27A2.541,2.541,0,0,0,7.622,12H2.541A2.541,2.541,0,0,0,0,14.541v1.27" transform="translate(0 -5.096)" fill="none" stroke="#9ea1af" stroke-linecap="round" stroke-linejoin="round" stroke-width="1.4" fill-rule="evenodd"/>
      <ellipse id="Ellipse_328" data-name="Ellipse 328" cx="2.595" cy="2.595" rx="2.595" ry="2.595" transform="translate(2.487 0)" fill="none" stroke="#9ea1af" stroke-linecap="round" stroke-linejoin="round" stroke-width="1.4"/>
    </g>
  </g>
</svg>
