<svg id="Group_23403" data-name="Group 23403" xmlns="http://www.w3.org/2000/svg" width="73.241" height="16.235" viewBox="0 0 73.241 16.235">
  <path id="Path_22823" data-name="Path 22823" d="M541.435,988.988a6.066,6.066,0,0,1,6.023,5.647,6.618,6.618,0,0,0-12.047,0A6.065,6.065,0,0,1,541.435,988.988Zm-4.612,10.937a6.757,6.757,0,0,1-1.788-6.984,6.661,6.661,0,0,1,5.511-4.588,6.032,6.032,0,0,0-7.179,4.041A6.119,6.119,0,0,0,536.823,999.925Zm5.419.364a6.587,6.587,0,0,1-7.129-.44,6.744,6.744,0,0,1-2.618-6.712,6.141,6.141,0,0,0,1.587,8.145A6,6,0,0,0,542.242,1000.289Zm2-5.187a6.743,6.743,0,0,1-2.617,6.712,6.59,6.59,0,0,1-7.129.441,6,6,0,0,0,8.159.992A6.141,6.141,0,0,0,544.244,995.1Zm2.926.571a6.032,6.032,0,0,0-7.179-4.041,6.661,6.661,0,0,1,5.511,4.588,6.756,6.756,0,0,1-1.788,6.984A6.12,6.12,0,0,0,547.17,995.672Z" transform="translate(-531.592 -988.177)" fill="#0d3399"/>
  <g id="Group_22715" data-name="Group 22715" transform="translate(20.338 2.355)">
    <g id="Group_22714" data-name="Group 22714" transform="translate(0 0)">
      <path id="Path_22824" data-name="Path 22824" d="M533.4,1089.314h-3.138v9.219h-2.1v-9.219h-3.152v-1.88H533.4Z" transform="translate(-525.007 -1087.222)" fill="#0d3399"/>
      <path id="Path_22825" data-name="Path 22825" d="M547.058,1098.578a5.423,5.423,0,0,1-2.207-.455,5.79,5.79,0,0,1-1.809-1.236,5.849,5.849,0,0,1-1.223-1.827,5.8,5.8,0,0,1,0-4.481,5.768,5.768,0,0,1,3.032-3.071,5.617,5.617,0,0,1,4.429,0,5.768,5.768,0,0,1,3.033,3.071,5.8,5.8,0,0,1,0,4.481,5.853,5.853,0,0,1-1.224,1.827,5.79,5.79,0,0,1-1.809,1.236A5.459,5.459,0,0,1,547.058,1098.578Zm.007-9.537a3.216,3.216,0,0,0-1.4.311,3.815,3.815,0,0,0-1.139.826,3.917,3.917,0,0,0-.771,1.205,3.764,3.764,0,0,0,0,2.873,4.039,4.039,0,0,0,.771,1.206,3.755,3.755,0,0,0,1.139.834,3.311,3.311,0,0,0,2.8,0,3.745,3.745,0,0,0,1.139-.834,4.027,4.027,0,0,0,.772-1.206,3.764,3.764,0,0,0,0-2.873,3.906,3.906,0,0,0-.772-1.205,3.8,3.8,0,0,0-1.139-.826A3.215,3.215,0,0,0,547.065,1089.04Z" transform="translate(-532.331 -1087.054)" fill="#0d3399"/>
      <path id="Path_22826" data-name="Path 22826" d="M567.467,1098.533h-2.1v-11.1h4.993a4.108,4.108,0,0,1,1.541.281,3.443,3.443,0,0,1,1.2.788,3.629,3.629,0,0,1,.775,1.213,4.168,4.168,0,0,1,.278,1.539,3.879,3.879,0,0,1-.624,2.2,3.493,3.493,0,0,1-1.661,1.35q1.384,1.85,2.736,3.73h-2.507q-.659-.864-1.287-1.743T569.546,1095h-2.08Zm0-5.413h2.888a1.692,1.692,0,0,0,.591-.114,1.535,1.535,0,0,0,.546-.349,1.912,1.912,0,0,0,.4-.584,1.982,1.982,0,0,0,.157-.819,3.352,3.352,0,0,0-.06-.576,1.9,1.9,0,0,0-.24-.637,1.557,1.557,0,0,0-.509-.516,1.61,1.61,0,0,0-.883-.213h-2.888Z" transform="translate(-543.072 -1087.222)" fill="#0d3399"/>
      <path id="Path_22827" data-name="Path 22827" d="M589.647,1098.742a5.379,5.379,0,0,1-1.937-.334,4.255,4.255,0,0,1-1.486-.94,4.163,4.163,0,0,1-.954-1.471,5.26,5.26,0,0,1-.338-1.925v-6.611h2.1v6.6a3.1,3.1,0,0,0,.27,1.378,2.509,2.509,0,0,0,.668.863,2.313,2.313,0,0,0,.856.439,2.829,2.829,0,0,0,1.637,0,2.313,2.313,0,0,0,.856-.439,2.509,2.509,0,0,0,.668-.863,3.094,3.094,0,0,0,.27-1.378v-6.6h2.1v6.611a5.351,5.351,0,0,1-.33,1.925,4.072,4.072,0,0,1-.946,1.471,4.259,4.259,0,0,1-1.486.94A5.428,5.428,0,0,1,589.647,1098.742Z" transform="translate(-551.831 -1087.234)" fill="#0d3399"/>
      <path id="Path_22828" data-name="Path 22828" d="M604.691,1096.945l1.141-1.7a11.834,11.834,0,0,0,1.7.993,4.23,4.23,0,0,0,1.839.417,2.869,2.869,0,0,0,.9-.129,2.249,2.249,0,0,0,.661-.334,1.369,1.369,0,0,0,.4-.47,1.144,1.144,0,0,0,.135-.523.841.841,0,0,0-.2-.569,1.53,1.53,0,0,0-.54-.386,4.376,4.376,0,0,0-.8-.258q-.458-.106-.953-.2-.33-.06-.766-.144a8.178,8.178,0,0,1-.9-.228,5.453,5.453,0,0,1-.916-.379,3.358,3.358,0,0,1-.811-.591,2.729,2.729,0,0,1-.578-.849,2.843,2.843,0,0,1-.218-1.16,3.063,3.063,0,0,1,.391-1.614,2.966,2.966,0,0,1,1-1.016,4.167,4.167,0,0,1,1.351-.523,7.171,7.171,0,0,1,1.433-.152,7.509,7.509,0,0,1,1.231.091,5.475,5.475,0,0,1,1.006.266,5.573,5.573,0,0,1,.908.44q.442.265.953.629l-1.171,1.668a7.493,7.493,0,0,0-1.5-.833,4.047,4.047,0,0,0-1.516-.289,3.2,3.2,0,0,0-.615.069,2.606,2.606,0,0,0-.653.22,1.585,1.585,0,0,0-.51.386.842.842,0,0,0-.2.569.74.74,0,0,0,.24.561,1.933,1.933,0,0,0,.615.379,5.7,5.7,0,0,0,.826.258q.45.106.871.212.315.076.743.152a8.009,8.009,0,0,1,.886.213,5.487,5.487,0,0,1,.908.364,3.086,3.086,0,0,1,.8.583,2.721,2.721,0,0,1,.57.88,3.3,3.3,0,0,1,.218,1.266,3.492,3.492,0,0,1-.3,1.5,2.775,2.775,0,0,1-.856,1.053,3.9,3.9,0,0,1-1.321.629,6.331,6.331,0,0,1-1.7.213,7.878,7.878,0,0,1-1.509-.129,6.317,6.317,0,0,1-2.214-.872Q605.2,1097.31,604.691,1096.945Z" transform="translate(-560.675 -1087.09)" fill="#0d3399"/>
    </g>
  </g>
</svg>
