<svg xmlns="http://www.w3.org/2000/svg" width="22" height="28.688" viewBox="0 0 22 28.688">
  <g id="torusT" transform="translate(0.5 0.5)">
    <path id="Union_109" data-name="Union 109" d="M5.28,26.275a38.7,38.7,0,0,1,4.525-1.1L9.761,8.151l-5.7-.019-.785,6.6H1.8q-.146-.78-.29-1.988t-.253-2.5Q1.144,8.965,1.073,7.7T1,5.533H22q0,.936-.072,2.184t-.181,2.534q-.109,1.287-.254,2.476t-.289,2.008H19.723l-.736-6.642-5.89.071-.015,17.093,2.789.542,1.85.476v1.319L5.3,27.686ZM1,2.565V0H22V2.565Z" transform="translate(-1.001 -0.001)" fill="#013399" stroke="rgba(0,0,0,0)" stroke-miterlimit="10" stroke-width="1"/>
  </g>
</svg>
