<svg id="torus" xmlns="http://www.w3.org/2000/svg" width="87.588" height="20.346" viewBox="0 0 87.588 20.346">
  <g id="Group_19604" data-name="Group 19604">
    <path id="Path_20763" data-name="Path 20763" d="M538.9,1090.547h-5.195v15.263h-3.48v-15.263h-5.219v-3.113H538.9Z" transform="translate(-525.007 -1086.449)" fill="#0f4880"/>
    <path id="Path_20765" data-name="Path 20765" d="M568.845,1105.81h-3.48v-18.376h8.266a6.8,6.8,0,0,1,2.551.464,5.692,5.692,0,0,1,1.979,1.305,6,6,0,0,1,1.283,2.008,6.9,6.9,0,0,1,.46,2.548,6.422,6.422,0,0,1-1.034,3.641,5.786,5.786,0,0,1-2.751,2.234q2.292,3.062,4.53,6.175H576.5q-1.091-1.43-2.131-2.886t-2.081-2.963h-3.443Zm0-8.962h4.781a2.8,2.8,0,0,0,.978-.189,2.546,2.546,0,0,0,.9-.577,3.168,3.168,0,0,0,.657-.967,3.282,3.282,0,0,0,.26-1.356,5.531,5.531,0,0,0-.1-.954,3.137,3.137,0,0,0-.4-1.054,2.578,2.578,0,0,0-.842-.854,2.667,2.667,0,0,0-1.461-.352h-4.781Z" transform="translate(-528.456 -1086.449)" fill="#0f4880"/>
    <path id="Path_20766" data-name="Path 20766" d="M592.738,1106.139a8.908,8.908,0,0,1-3.206-.552,7.046,7.046,0,0,1-2.461-1.557,6.894,6.894,0,0,1-1.579-2.435,8.706,8.706,0,0,1-.559-3.188v-10.946h3.48v10.928a5.123,5.123,0,0,0,.447,2.281,4.15,4.15,0,0,0,1.105,1.429,3.831,3.831,0,0,0,1.417.727,4.679,4.679,0,0,0,2.71,0,3.83,3.83,0,0,0,1.417-.727,4.152,4.152,0,0,0,1.106-1.429,5.123,5.123,0,0,0,.447-2.281v-10.928h3.48v10.946a8.858,8.858,0,0,1-.547,3.188,6.742,6.742,0,0,1-1.566,2.435,7.053,7.053,0,0,1-2.46,1.557A8.989,8.989,0,0,1,592.738,1106.139Z" transform="translate(-530.128 -1086.451)" fill="#0f4880"/>
    <path id="Path_20767" data-name="Path 20767" d="M604.691,1103.377l1.889-2.812a19.586,19.586,0,0,0,2.821,1.644,7,7,0,0,0,3.044.691,4.76,4.76,0,0,0,1.492-.214,3.732,3.732,0,0,0,1.094-.552,2.266,2.266,0,0,0,.67-.779,1.894,1.894,0,0,0,.224-.865,1.39,1.39,0,0,0-.336-.941,2.526,2.526,0,0,0-.894-.64,7.23,7.23,0,0,0-1.318-.427q-.759-.176-1.579-.327-.546-.1-1.267-.238a13.527,13.527,0,0,1-1.491-.377,9.04,9.04,0,0,1-1.516-.627,5.553,5.553,0,0,1-1.343-.979,4.518,4.518,0,0,1-.956-1.406,4.708,4.708,0,0,1-.361-1.92,5.074,5.074,0,0,1,.647-2.673,4.915,4.915,0,0,1,1.653-1.682,6.89,6.89,0,0,1,2.237-.866,11.861,11.861,0,0,1,2.373-.251,12.392,12.392,0,0,1,2.039.151,9.068,9.068,0,0,1,1.665.439,9.228,9.228,0,0,1,1.5.728q.733.439,1.578,1.042l-1.939,2.761a12.415,12.415,0,0,0-2.486-1.38,6.7,6.7,0,0,0-2.51-.478,5.3,5.3,0,0,0-1.019.114,4.31,4.31,0,0,0-1.081.364,2.627,2.627,0,0,0-.845.64,1.394,1.394,0,0,0-.336.941,1.226,1.226,0,0,0,.4.928,3.2,3.2,0,0,0,1.019.628,9.454,9.454,0,0,0,1.367.427q.745.176,1.441.351.521.126,1.23.251a13.281,13.281,0,0,1,1.467.352,9.079,9.079,0,0,1,1.5.6,5.109,5.109,0,0,1,1.33.966,4.5,4.5,0,0,1,.945,1.457,5.457,5.457,0,0,1,.36,2.1,5.782,5.782,0,0,1-.5,2.486,4.593,4.593,0,0,1-1.417,1.744,6.468,6.468,0,0,1-2.188,1.042,10.482,10.482,0,0,1-2.808.352,13.053,13.053,0,0,1-2.5-.214,10.46,10.46,0,0,1-3.666-1.443Q605.535,1103.981,604.691,1103.377Z" transform="translate(-531.817 -1086.427)" fill="#0f4880"/>
    <path id="Path_21006" data-name="Path 21006" d="M543.928,989.193a7.6,7.6,0,0,1,7.549,7.077,8.294,8.294,0,0,0-15.1,0A7.6,7.6,0,0,1,543.928,989.193Zm-5.78,13.707a8.468,8.468,0,0,1-2.241-8.752,8.347,8.347,0,0,1,6.907-5.75,7.56,7.56,0,0,0-9,5.064A7.668,7.668,0,0,0,538.148,1002.9Zm6.791.456a8.256,8.256,0,0,1-8.934-.551,8.452,8.452,0,0,1-3.281-8.411,7.7,7.7,0,0,0,1.989,10.207A7.517,7.517,0,0,0,544.939,1003.356Zm2.509-6.5a8.451,8.451,0,0,1-3.28,8.411,8.258,8.258,0,0,1-8.934.552,7.518,7.518,0,0,0,10.226,1.244A7.7,7.7,0,0,0,547.448,996.855Zm3.667.715a7.56,7.56,0,0,0-9-5.064,8.348,8.348,0,0,1,6.907,5.75,8.467,8.467,0,0,1-2.241,8.752A7.669,7.669,0,0,0,551.114,997.571Z" transform="translate(-517.475 -988.177)" fill="#0f4880"/>
  </g>
</svg>
