<svg id="Torus_CRM_Logo" data-name="Torus CRM Logo" xmlns="http://www.w3.org/2000/svg" width="129.041" height="25" viewBox="0 0 129.041 25">
  <g id="Group_21250" data-name="Group 21250" transform="translate(0 2.864)">
    <g id="Group_19604" data-name="Group 19604" transform="translate(0 0)">
      <path id="Path_20763" data-name="Path 20763" d="M536.9,1090.1h-4.446v13.064h-2.978V1090.1h-4.467v-2.664H536.9Z" transform="translate(-525.007 -1086.591)" fill="#fff"/>
      <path id="Path_20765" data-name="Path 20765" d="M568.343,1103.162h-2.978v-15.728h7.075a5.825,5.825,0,0,1,2.184.4,4.875,4.875,0,0,1,1.694,1.117,5.134,5.134,0,0,1,1.1,1.719,5.908,5.908,0,0,1,.394,2.181,5.5,5.5,0,0,1-.885,3.116,4.951,4.951,0,0,1-2.354,1.913q1.962,2.621,3.877,5.285H574.9q-.933-1.224-1.824-2.471t-1.781-2.535h-2.947Zm0-7.67h4.092a2.39,2.39,0,0,0,.837-.161,2.177,2.177,0,0,0,.774-.494,2.708,2.708,0,0,0,.562-.827,2.809,2.809,0,0,0,.222-1.16,4.74,4.74,0,0,0-.084-.817,2.686,2.686,0,0,0-.34-.9,2.211,2.211,0,0,0-.721-.731,2.283,2.283,0,0,0-1.251-.3h-4.092Z" transform="translate(-533.775 -1086.591)" fill="#fff"/>
      <path id="Path_20766" data-name="Path 20766" d="M591.613,1103.447a7.621,7.621,0,0,1-2.744-.473,6.03,6.03,0,0,1-2.106-1.332,5.9,5.9,0,0,1-1.351-2.084,7.453,7.453,0,0,1-.478-2.729v-9.368h2.978v9.353a4.387,4.387,0,0,0,.383,1.952,3.554,3.554,0,0,0,.946,1.223,3.278,3.278,0,0,0,1.213.622,4.006,4.006,0,0,0,2.319,0,3.278,3.278,0,0,0,1.212-.622,3.553,3.553,0,0,0,.946-1.223,4.385,4.385,0,0,0,.383-1.952v-9.353h2.978v9.368a7.588,7.588,0,0,1-.468,2.729,5.772,5.772,0,0,1-1.34,2.084,6.034,6.034,0,0,1-2.106,1.332A7.691,7.691,0,0,1,591.613,1103.447Z" transform="translate(-538.026 -1086.597)" fill="#fff"/>
      <path id="Path_20767" data-name="Path 20767" d="M604.691,1101.037l1.616-2.407a16.778,16.778,0,0,0,2.415,1.407,5.992,5.992,0,0,0,2.606.591,4.071,4.071,0,0,0,1.277-.183,3.2,3.2,0,0,0,.936-.473,1.939,1.939,0,0,0,.574-.666,1.622,1.622,0,0,0,.192-.741,1.191,1.191,0,0,0-.287-.806,2.164,2.164,0,0,0-.766-.548,6.179,6.179,0,0,0-1.128-.365q-.65-.151-1.351-.28-.467-.085-1.085-.2a11.533,11.533,0,0,1-1.276-.323,7.721,7.721,0,0,1-1.3-.537,4.755,4.755,0,0,1-1.149-.838,3.867,3.867,0,0,1-.819-1.2,4.027,4.027,0,0,1-.309-1.644,4.343,4.343,0,0,1,.554-2.288,4.207,4.207,0,0,1,1.414-1.44,5.9,5.9,0,0,1,1.915-.741,10.145,10.145,0,0,1,2.031-.215,10.6,10.6,0,0,1,1.745.129,7.75,7.75,0,0,1,1.425.376,7.9,7.9,0,0,1,1.287.623q.627.376,1.351.891l-1.659,2.363a10.628,10.628,0,0,0-2.128-1.181,5.734,5.734,0,0,0-2.149-.409,4.531,4.531,0,0,0-.872.1,3.688,3.688,0,0,0-.925.312,2.245,2.245,0,0,0-.723.548,1.191,1.191,0,0,0-.287.805,1.048,1.048,0,0,0,.341.795,2.734,2.734,0,0,0,.872.538,8.07,8.07,0,0,0,1.17.365q.638.151,1.234.3.446.108,1.053.215a11.37,11.37,0,0,1,1.255.3,7.756,7.756,0,0,1,1.287.516,4.363,4.363,0,0,1,1.138.826,3.858,3.858,0,0,1,.809,1.247,4.67,4.67,0,0,1,.309,1.794,4.948,4.948,0,0,1-.426,2.127,3.931,3.931,0,0,1-1.212,1.492,5.536,5.536,0,0,1-1.872.892,8.966,8.966,0,0,1-2.4.3,11.189,11.189,0,0,1-2.138-.183,8.952,8.952,0,0,1-3.138-1.235Q605.414,1101.553,604.691,1101.037Z" transform="translate(-542.319 -1086.529)" fill="#fff"/>
      <path id="Path_21006" data-name="Path 21006" d="M542.15,989.046a6.506,6.506,0,0,1,6.461,6.057,7.1,7.1,0,0,0-12.922,0A6.506,6.506,0,0,1,542.15,989.046Zm-4.947,11.732a7.248,7.248,0,0,1-1.918-7.491,7.144,7.144,0,0,1,5.912-4.922,6.47,6.47,0,0,0-7.7,4.335A6.564,6.564,0,0,0,537.2,1000.778Zm5.812.39a7.066,7.066,0,0,1-7.646-.471,7.235,7.235,0,0,1-2.808-7.2,6.586,6.586,0,0,0,1.7,8.736A6.434,6.434,0,0,0,543.016,1001.169Zm2.147-5.564a7.234,7.234,0,0,1-2.807,7.2,7.069,7.069,0,0,1-7.647.473,6.435,6.435,0,0,0,8.752,1.065A6.587,6.587,0,0,0,545.163,995.6Zm3.138.612a6.47,6.47,0,0,0-7.7-4.334,7.144,7.144,0,0,1,5.911,4.921,7.248,7.248,0,0,1-1.918,7.491A6.564,6.564,0,0,0,548.3,996.217Z" transform="translate(-519.51 -988.177)" fill="#fff"/>
    </g>
  </g>
  <text id="CRM" transform="translate(76.041 20)" fill="#44c8f5" font-size="22.5" font-family="Arial-BoldItalicMT, Arial" font-weight="700" font-style="italic"><tspan x="0" y="0">CRM</tspan></text>
</svg>
