<svg xmlns="http://www.w3.org/2000/svg" xmlns:xlink="http://www.w3.org/1999/xlink" width="43.365" height="44.75" viewBox="0 0 43.365 44.75">
  <defs>
    <filter id="Path_24383" x="10.25" y="2.815" width="29.555" height="12.975" filterUnits="userSpaceOnUse">
      <feOffset dy="20" input="SourceAlpha"/>
      <feGaussianBlur stdDeviation="15" result="blur"/>
      <feFlood flood-color="#e9ef4b" flood-opacity="0.161" result="color"/>
      <feComposite operator="out" in="SourceGraphic" in2="blur"/>
      <feComposite operator="in" in="color"/>
      <feComposite operator="in" in2="SourceGraphic"/>
    </filter>
    <filter id="Path_24382" x="3.188" y="0" width="20.04" height="30.334" filterUnits="userSpaceOnUse">
      <feOffset dy="20" input="SourceAlpha"/>
      <feGaussianBlur stdDeviation="15" result="blur-2"/>
      <feFlood flood-color="#e9ef4b" flood-opacity="0.161" result="color-2"/>
      <feComposite operator="out" in="SourceGraphic" in2="blur-2"/>
      <feComposite operator="in" in="color-2"/>
      <feComposite operator="in" in2="SourceGraphic"/>
    </filter>
    <filter id="Path_24378" x="30.871" y="7.78" width="12.494" height="29.428" filterUnits="userSpaceOnUse">
      <feOffset dy="20" input="SourceAlpha"/>
      <feGaussianBlur stdDeviation="15" result="blur-3"/>
      <feFlood flood-color="#e9ef4b" flood-opacity="0.161" result="color-3"/>
      <feComposite operator="out" in="SourceGraphic" in2="blur-3"/>
      <feComposite operator="in" in="color-3"/>
      <feComposite operator="in" in2="SourceGraphic"/>
    </filter>
    <filter id="Path_24377" x="13.166" y="22.079" width="29.934" height="22.672" filterUnits="userSpaceOnUse">
      <feOffset dy="20" input="SourceAlpha"/>
      <feGaussianBlur stdDeviation="15" result="blur-4"/>
      <feFlood flood-color="#e9ef4b" flood-opacity="0.161" result="color-4"/>
      <feComposite operator="out" in="SourceGraphic" in2="blur-4"/>
      <feComposite operator="in" in="color-4"/>
      <feComposite operator="in" in2="SourceGraphic"/>
    </filter>
    <filter id="Path_24379" x="0" y="17.18" width="28.764" height="25.553" filterUnits="userSpaceOnUse">
      <feOffset dy="20" input="SourceAlpha"/>
      <feGaussianBlur stdDeviation="15" result="blur-5"/>
      <feFlood flood-color="#e9ef4b" flood-opacity="0.161" result="color-5"/>
      <feComposite operator="out" in="SourceGraphic" in2="blur-5"/>
      <feComposite operator="in" in="color-5"/>
      <feComposite operator="in" in2="SourceGraphic"/>
    </filter>
  </defs>
  <g id="torusClub" transform="translate(0.069 0.064)">
    <g id="Component_51_2" data-name="Component 51 – 2">
      <path id="Union_107" data-name="Union 107" d="M3.6,14.289c.787-.23,2.654-.539,3.081-.6l-.03-9.26-4.56-.01L1.552,8.012H.542q-.1-.424-.2-1.081T.173,5.574Q.1,4.875.05,4.185T0,3.009H15.66q0,.509-.049,1.188t-.123,1.378q-.074.7-.172,1.346t-.2,1.092H14.109l-.5-3.612-4.691.039-.01,9.3,1.9.295,1.26.259v.717l-8.457.05ZM.071,1.394V0h15.66V1.394Z" transform="translate(15.416 13.705)" fill="#8e6134" stroke="rgba(0,0,0,0)" stroke-miterlimit="10" stroke-width="1"/>
      <g id="Group_27812" data-name="Group 27812" transform="translate(0 0)">
        <g id="Group_27813" data-name="Group 27813">
          <g id="Group_27748" data-name="Group 27748" transform="translate(10.232 2.807)">
            <g data-type="innerShadowGroup">
              <path id="Path_24383-2" data-name="Path 24383" d="M15,0c3.345,0,11.821,3.212,13.565,9.959C25.619,4.85,18.08,1.943,14.936,1.943S4.089,2.876,0,9.959A15.808,15.808,0,0,1,15,0Z" transform="matrix(0.995, -0.105, 0.105, 0.995, 0, 2.986)" fill="#facb1b"/>
              <g transform="matrix(1, 0, 0, 1, -10.3, -2.87)" filter="url(#Path_24383)">
                <path id="Path_24383-3" data-name="Path 24383" d="M15,0c3.345,0,11.821,3.212,13.565,9.959C25.619,4.85,18.08,1.943,14.936,1.943S4.089,2.876,0,9.959A15.808,15.808,0,0,1,15,0Z" transform="matrix(0.99, -0.1, 0.1, 0.99, 10.3, 5.86)" fill="#fff"/>
              </g>
              <path id="Path_24383-4" data-name="Path 24383" d="M15,0c3.345,0,11.821,3.212,13.565,9.959C25.619,4.85,18.08,1.943,14.936,1.943S4.089,2.876,0,9.959A15.808,15.808,0,0,1,15,0Z" transform="matrix(0.995, -0.105, 0.105, 0.995, 0, 2.986)" fill="none" stroke="#f2c700" stroke-width="0.1"/>
            </g>
          </g>
          <g data-type="innerShadowGroup">
            <path id="Path_24382-2" data-name="Path 24382" d="M15,0c3.345,0,11.821,3.212,13.565,9.959C25.619,4.85,18.08,1.943,14.936,1.943S4.089,2.876,0,9.959A15.808,15.808,0,0,1,15,0Z" transform="matrix(0.375, -0.927, 0.927, 0.375, 3.183, 26.489)" fill="#facb1b"/>
            <g transform="matrix(1, 0, 0, 1, -0.07, -0.06)" filter="url(#Path_24382)">
              <path id="Path_24382-3" data-name="Path 24382" d="M15,0c3.345,0,11.821,3.212,13.565,9.959C25.619,4.85,18.08,1.943,14.936,1.943S4.089,2.876,0,9.959A15.808,15.808,0,0,1,15,0Z" transform="matrix(0.37, -0.93, 0.93, 0.37, 3.25, 26.55)" fill="#fff"/>
            </g>
            <path id="Path_24382-4" data-name="Path 24382" d="M15,0c3.345,0,11.821,3.212,13.565,9.959C25.619,4.85,18.08,1.943,14.936,1.943S4.089,2.876,0,9.959A15.808,15.808,0,0,1,15,0Z" transform="matrix(0.375, -0.927, 0.927, 0.375, 3.183, 26.489)" fill="none" stroke="#f2c700" stroke-width="0.1"/>
          </g>
          <g data-type="innerShadowGroup">
            <path id="Path_24378-2" data-name="Path 24378" d="M15,0c3.345,0,11.821,3.212,13.565,9.959C25.619,4.85,18.08,1.943,14.936,1.943S4.089,2.876,0,9.959A15.808,15.808,0,0,1,15,0Z" transform="translate(40.752 7.766) rotate(85)" fill="#facb1b"/>
            <g transform="matrix(1, 0, 0, 1, -0.07, -0.06)" filter="url(#Path_24378)">
              <path id="Path_24378-3" data-name="Path 24378" d="M15,0c3.345,0,11.821,3.212,13.565,9.959C25.619,4.85,18.08,1.943,14.936,1.943S4.089,2.876,0,9.959A15.808,15.808,0,0,1,15,0Z" transform="translate(40.82 7.83) rotate(85)" fill="#fff"/>
            </g>
            <path id="Path_24378-4" data-name="Path 24378" d="M15,0c3.345,0,11.821,3.212,13.565,9.959C25.619,4.85,18.08,1.943,14.936,1.943S4.089,2.876,0,9.959A15.808,15.808,0,0,1,15,0Z" transform="translate(40.752 7.766) rotate(85)" fill="none" stroke="#f2c700" stroke-width="0.1"/>
          </g>
          <g data-type="innerShadowGroup">
            <path id="Path_24377-2" data-name="Path 24377" d="M15,0c3.345,0,11.821,3.212,13.565,9.959C25.619,4.85,18.08,1.943,14.936,1.943S4.089,2.876,0,9.959A15.808,15.808,0,0,1,15,0Z" transform="translate(42.966 30.769) rotate(151)" fill="#facb1b"/>
            <g transform="matrix(1, 0, 0, 1, -0.07, -0.06)" filter="url(#Path_24377)">
              <path id="Path_24377-3" data-name="Path 24377" d="M15,0c3.345,0,11.821,3.212,13.565,9.959C25.619,4.85,18.08,1.943,14.936,1.943S4.089,2.876,0,9.959A15.808,15.808,0,0,1,15,0Z" transform="translate(43.04 30.83) rotate(151)" fill="#fff"/>
            </g>
            <path id="Path_24377-4" data-name="Path 24377" d="M15,0c3.345,0,11.821,3.212,13.565,9.959C25.619,4.85,18.08,1.943,14.936,1.943S4.089,2.876,0,9.959A15.808,15.808,0,0,1,15,0Z" transform="translate(42.966 30.769) rotate(151)" fill="none" stroke="#f2c700" stroke-width="0.1"/>
          </g>
          <g data-type="innerShadowGroup">
            <path id="Path_24379-2" data-name="Path 24379" d="M15,0c3.345,0,11.821,3.212,13.565,9.959C25.619,4.85,18.08,1.943,14.936,1.943S4.089,2.876,0,9.959A15.808,15.808,0,0,1,15,0Z" transform="translate(22.513 42.602) rotate(-142)" fill="#facb1b"/>
            <g transform="matrix(1, 0, 0, 1, -0.07, -0.06)" filter="url(#Path_24379)">
              <path id="Path_24379-3" data-name="Path 24379" d="M15,0c3.345,0,11.821,3.212,13.565,9.959C25.619,4.85,18.08,1.943,14.936,1.943S4.089,2.876,0,9.959A15.808,15.808,0,0,1,15,0Z" transform="translate(22.58 42.67) rotate(-142)" fill="#fff"/>
            </g>
            <path id="Path_24379-4" data-name="Path 24379" d="M15,0c3.345,0,11.821,3.212,13.565,9.959C25.619,4.85,18.08,1.943,14.936,1.943S4.089,2.876,0,9.959A15.808,15.808,0,0,1,15,0Z" transform="translate(22.513 42.602) rotate(-142)" fill="none" stroke="#f2c700" stroke-width="0.1"/>
          </g>
        </g>
      </g>
    </g>
  </g>
</svg>
