<svg id="Component_10_313" data-name="Component 10 – 313" xmlns="http://www.w3.org/2000/svg" width="22" height="22" viewBox="0 0 22 22">
  <g id="Multicolor">
    <path id="Path_21196" data-name="Path 21196" d="M34,24.375A9.625,9.625,0,1,1,24.375,34,9.636,9.636,0,0,1,34,24.375M34,23A11,11,0,1,0,45,34,11,11,0,0,0,34,23Z" transform="translate(-23 -23)" fill="#fbec9a"/>
    <path id="Path_21197" data-name="Path 21197" d="M36.625,46.25a9.625,9.625,0,1,1,9.625-9.625A9.636,9.636,0,0,1,36.625,46.25Z" transform="translate(-25.625 -25.625)" fill="#facb1b"/>
  </g>
  <path id="Union_47" data-name="Union 47" d="M1.8,8.275A14.167,14.167,0,0,1,3.35,7.929L3.335,2.567,1.047,2.561.779,4.64H.272q-.049-.246-.1-.626T.087,3.229q-.037-.4-.062-.8T0,1.743H7.859q0,.295-.025.688t-.062.8q-.037.405-.086.78t-.1.632H7.08L6.829,2.549l-2.354.022L4.469,7.954l.953.171.632.15V8.69l-4.244.029ZM.036.808V0H7.894V.808Z" transform="translate(7.053 6.641)" fill="#8e6134" stroke="rgba(0,0,0,0)" stroke-miterlimit="10" stroke-width="1"/>
</svg>
