<svg xmlns="http://www.w3.org/2000/svg" width="150" height="94.998" viewBox="0 0 150 94.998">
  <g id="pigy_illustration" data-name="pigy illustration" transform="translate(-891.815 -225.656)">
    <path id="Path_22916" data-name="Path 22916" d="M190.685,137.937c-8.245,0-119.959.182-124.82-.042,0,0-8.5.112-10.922,0-.046-.109-18.205-37.375,17.492-52.288,12.863-5.374-.7-13.854,8.226-23.144,10.262-10.676,21.46,1.134,32.871-3.707a18.336,18.336,0,0,0,6.064-4.341,22.587,22.587,0,0,1,3.727-3.121q.307-.207.621-.4a24.748,24.748,0,0,1,2.487-1.361q.862-.41,1.756-.758h0a28.569,28.569,0,0,1,2.91-.956,32.675,32.675,0,0,1,4.341-.859q.968-.127,1.952-.2c12.75-.967,22.051,2.4,29.751,10.052,4.407,4.38,8.14,12.4,5.515,25.288-1.666,8.18,12.923,12.4,17.945,20.6,12.769,20.866.2,34.965.083,35.237" transform="translate(845.49 179.062)" fill="#ebf3ff"/>
    <g id="Group_21789" data-name="Group 21789" transform="translate(910.979 249.182)">
      <path id="Path_22048" data-name="Path 22048" d="M1295.729,600l-15.8,16.859-22.762-20.794h0l-9.591-8.761,15.8-16.858,17.908,16.359Z" transform="translate(-1247.579 -570.446)" fill="#d2eab2"/>
      <g id="Group_21788" data-name="Group 21788" transform="translate(3.19 3.185)">
        <path id="Path_22049" data-name="Path 22049" d="M1348.149,656.9l-12.264,13.088-29.08-26.565,12.264-13.088Zm-11.163,11.113,9.248-9.87a1.638,1.638,0,0,0-.092-2.336l-25.793-23.562a1.719,1.719,0,0,0-2.408.092l-9.211,9.831a1.654,1.654,0,0,0,.093,2.358l25.81,23.577A1.68,1.68,0,0,0,1336.986,668.011Z" transform="translate(-1306.805 -630.333)" fill="#b6cc99"/>
      </g>
      <path id="Path_22915" data-name="Path 22915" d="M4.855,0a4.833,4.833,0,0,1,4.86,4.8A4.821,4.821,0,0,1,4.86,9.592,4.833,4.833,0,0,1,0,4.794,4.821,4.821,0,0,1,4.855,0Z" transform="translate(18.912 18.312) rotate(-1.119)" fill="#b6cc99"/>
    </g>
    <g id="Group_21791" data-name="Group 21791" transform="translate(932.919 233.145)">
      <path id="Path_22050" data-name="Path 22050" d="M1687.292,311.369l-22.688,5.064-6.838-29.865h0l-2.881-12.583,22.687-5.064,5.38,23.5Z" transform="translate(-1654.886 -268.921)" fill="#d2eab2"/>
      <g id="Group_21790" data-name="Group 21790" transform="translate(2.965 2.434)">
        <path id="Path_22051" data-name="Path 22051" d="M1736.278,352.84l-17.614,3.931-8.735-38.154,17.614-3.932Zm-15.574,2.919,13.283-2.965a1.652,1.652,0,0,0,1.264-1.976l-7.748-33.841a1.7,1.7,0,0,0-2.038-1.27l-13.231,2.953a1.667,1.667,0,0,0-1.275,2l7.753,33.863A1.666,1.666,0,0,0,1720.7,355.759Z" transform="translate(-1709.929 -314.686)" fill="#b6cc99"/>
      </g>
      <path id="Path_22913" data-name="Path 22913" d="M4.8,0A4.9,4.9,0,0,1,9.655,4.858a4.754,4.754,0,0,1-4.8,4.8A4.9,4.9,0,0,1,0,4.8,4.754,4.754,0,0,1,4.8,0Z" transform="translate(9.313 23.477) rotate(-45)" fill="#b6cc99"/>
    </g>
    <g id="Group_21793" data-name="Group 21793" transform="translate(986.293 246.68)">
      <path id="Path_22052" data-name="Path 22052" d="M2669.946,577.05l-24.192-8.378,11.312-31.846h0l4.767-13.418,24.192,8.378-8.9,25.054Z" transform="translate(-2645.753 -523.408)" fill="#d2eab2"/>
      <g id="Group_21792" data-name="Group 21792" transform="translate(3.625 2.929)">
        <path id="Path_22053" data-name="Path 22053" d="M2731.835,625.663l-18.781-6.5,14.451-40.685,18.782,6.5Zm-16.277-6.271,14.164,4.905a1.851,1.851,0,0,0,2.352-1.116l12.818-36.086a1.849,1.849,0,0,0-1.151-2.364l-14.108-4.886a1.868,1.868,0,0,0-2.374,1.127l-12.826,36.109A1.807,1.807,0,0,0,2715.558,619.392Z" transform="translate(-2713.053 -578.474)" fill="#b6cc99"/>
      </g>
      <path id="Path_22054" data-name="Path 22054" d="M2922.395,926.189a5.373,5.373,0,0,1,6.825-3.24,5.271,5.271,0,0,1,3.281,6.739,5.373,5.373,0,0,1-6.825,3.24A5.271,5.271,0,0,1,2922.395,926.189Z" transform="translate(-2907.206 -901.416)" fill="#b6cc99"/>
    </g>
    <g id="Group_21795" data-name="Group 21795" transform="translate(931.556 249.921)">
      <path id="Path_22055" data-name="Path 22055" d="M1639.333,1143.142v6.819a2.4,2.4,0,0,1-2.4,2.374h-4.949a2.4,2.4,0,0,1-2.4-2.374v-6.819a2.4,2.4,0,0,1,2.4-2.373h4.949A2.4,2.4,0,0,1,1639.333,1143.142Z" transform="translate(-1629.577 -1111.175)" fill="#ed7d2b"/>
      <path id="Path_22056" data-name="Path 22056" d="M1639.333,1143.142v3.8a2.4,2.4,0,0,1-2.4,2.373h-4.949a2.4,2.4,0,0,1-2.4-2.373v-3.8a2.4,2.4,0,0,1,2.4-2.373h4.949A2.4,2.4,0,0,1,1639.333,1143.142Z" transform="translate(-1629.577 -1111.175)" fill="#f99746"/>
      <path id="Path_22057" data-name="Path 22057" d="M1796.742,797.774a24.861,24.861,0,0,1-2.028,9.853,25.8,25.8,0,0,1-23.671,15.523H1763.7a25.817,25.817,0,0,1-22.116-12.49,24.952,24.952,0,0,1-1.555-22.738A25.8,25.8,0,0,1,1763.7,772.4h7.347a25.813,25.813,0,0,1,22.48,13.117A24.9,24.9,0,0,1,1796.742,797.774Z" transform="translate(-1732.156 -762.397)" fill="#ed7d2b"/>
      <path id="Path_22058" data-name="Path 22058" d="M1793.523,785.516a20.507,20.507,0,0,1-.65,9.325c-5.186,14.729-17.377,17.388-29.839,18.507-8.861.8-21.455-2.689-21.455-2.689a24.952,24.952,0,0,1-1.555-22.738A25.8,25.8,0,0,1,1763.7,772.4h7.347A25.813,25.813,0,0,1,1793.523,785.516Z" transform="translate(-1732.156 -762.397)" fill="#f99746"/>
      <path id="Path_22059" data-name="Path 22059" d="M1948.881,600.7h-10.108c-1.019,0-1.845-.611-1.845-1.365V585.712a1.087,1.087,0,0,1,.2-.628,2.23,2.23,0,0,1,2.76-.46c3.838,2.148,10.126,6.816,10.833,14.622C1950.795,600.035,1949.949,600.7,1948.881,600.7Z" transform="translate(-1920.372 -584.344)" fill="#f99746"/>
      <path id="Path_22060" data-name="Path 22060" d="M1939.185,613.863h-.411c-1.019,0-1.845-.611-1.845-1.365V598.871a1.087,1.087,0,0,1,.2-.628,1.314,1.314,0,0,1,.125.12,16.951,16.951,0,0,1,4.469,13.8A2.387,2.387,0,0,1,1939.185,613.863Z" transform="translate(-1920.372 -597.504)" fill="#ed7d2b"/>
      <path id="Path_22061" data-name="Path 22061" d="M1879.916,1036.731a1.506,1.506,0,1,1,1.506,1.487A1.5,1.5,0,0,1,1879.916,1036.731Z" transform="translate(-1866.431 -1011.262)" fill="#2b478b"/>
      <path id="Path_22062" data-name="Path 22062" d="M2388.994,1461.946l-2.4,15.369a1.882,1.882,0,0,0,1.838,2.356h6.3a3.613,3.613,0,0,0,3.206-1.93l9.791-19.284Z" transform="translate(-2345.759 -1411.967)" fill="#ed7d2b"/>
      <path id="Path_22063" data-name="Path 22063" d="M1823.993,1493.747l1.923,15.105a1.882,1.882,0,0,1-1.838,2.356h-6.3a3.613,3.613,0,0,1-3.206-1.93l-10.046-17.512Z" transform="translate(-1795.102 -1443.504)" fill="#ed7d2b"/>
      <g id="Group_21794" data-name="Group 21794" transform="translate(60.95 28.48)">
        <path id="Path_22064" data-name="Path 22064" d="M2770.849,1133.608a1.724,1.724,0,0,1-.434-.056c-1.117-.29-1.756-1.607-1.668-3.437a9.1,9.1,0,0,1,2.086-5.2,9.463,9.463,0,0,1,1.888-1.746,5.354,5.354,0,0,0-1.389-1.512,3.613,3.613,0,0,0-3.251-.672c-3.115.835-5.755,5.23-5.968,5.724a.529.529,0,0,1-.662.316.519.519,0,0,1-.333-.658,15.036,15.036,0,0,1,1.94-2.885,9.988,9.988,0,0,1,4.55-3.443,4.676,4.676,0,0,1,4.357.786,6.423,6.423,0,0,1,1.65,1.789,11.074,11.074,0,0,1,3.583-1.208.52.52,0,1,1,.17,1.027,10,10,0,0,0-3.275,1.11,7.779,7.779,0,0,1,.563,2.341,10.176,10.176,0,0,1-.971,5.216C2772.9,1132.707,2771.865,1133.608,2770.849,1133.608Zm2.34-9.483a8.362,8.362,0,0,0-1.537,1.45,8.042,8.042,0,0,0-1.852,4.589c-.06,1.252.3,2.231.885,2.382s1.431-.627,2.052-1.894a9.244,9.244,0,0,0,.87-4.673A6.846,6.846,0,0,0,2773.188,1124.125Zm-11.071,2.576a.051.051,0,0,1,0,.009Z" transform="translate(-2761.091 -1119.814)" fill="#ed7d2b"/>
      </g>
    </g>
    <g id="Group_21818" data-name="Group 21818" transform="translate(937.669 298)">
      <g id="Group_21797" data-name="Group 21797" transform="translate(2.033 17.38)">
        <path id="Path_22065" data-name="Path 22065" d="M1800.74,1815.479v.99a.337.337,0,0,1-.079.213.461.461,0,0,1-.216.143.465.465,0,0,1-.084.02.545.545,0,0,1-.082.006h-19.014a.445.445,0,0,1-.456-.324.337.337,0,0,1,0-.038c0-.006,0-.013,0-.019v-.99c0-.006,0-.013,0-.02a.35.35,0,0,1,0-.037.445.445,0,0,1,.456-.325h19.014a.5.5,0,0,1,.082.006.465.465,0,0,1,.084.02.458.458,0,0,1,.216.142A.337.337,0,0,1,1800.74,1815.479Z" transform="translate(-1780.805 -1815.097)" fill="#ffb93e"/>
        <path id="Path_22066" data-name="Path 22066" d="M1791.4,1816.85h-10.187a.408.408,0,0,1-.4-.282.313.313,0,0,1-.011-.042.337.337,0,0,1,0-.038c0-.006,0-.013,0-.019v-.99c0-.006,0-.013,0-.02a.35.35,0,0,1,0-.037.318.318,0,0,1,.011-.042.407.407,0,0,1,.4-.282h8.936A3.069,3.069,0,0,0,1791.4,1816.85Z" transform="translate(-1780.805 -1815.097)" fill="#ffa412"/>
        <g id="Group_21796" data-name="Group 21796" transform="translate(6.987)">
          <rect id="Rectangle_9894" data-name="Rectangle 9894" width="0.216" height="1.753" transform="translate(10.419 0)" fill="#ffa412"/>
          <rect id="Rectangle_9895" data-name="Rectangle 9895" width="0.216" height="1.753" transform="translate(9.687 0)" fill="#ffa412"/>
          <rect id="Rectangle_9896" data-name="Rectangle 9896" width="0.216" height="1.753" transform="translate(8.81 0)" fill="#ffa412"/>
          <rect id="Rectangle_9897" data-name="Rectangle 9897" width="0.216" height="1.753" transform="translate(7.465 0)" fill="#ffa412"/>
          <rect id="Rectangle_9898" data-name="Rectangle 9898" width="0.216" height="1.753" transform="translate(6.043 0)" fill="#ffa412"/>
          <rect id="Rectangle_9899" data-name="Rectangle 9899" width="0.216" height="1.753" transform="translate(3.863 0)" fill="#ffa412"/>
          <rect id="Rectangle_9900" data-name="Rectangle 9900" width="0.216" height="1.753" transform="translate(1.822 0)" fill="#ffa412"/>
          <rect id="Rectangle_9901" data-name="Rectangle 9901" width="0.216" height="1.753" transform="translate(0 0)" fill="#ffa412"/>
          <rect id="Rectangle_9902" data-name="Rectangle 9902" width="0.216" height="1.753" transform="translate(11.115 0)" fill="#ffa412"/>
          <rect id="Rectangle_9903" data-name="Rectangle 9903" width="0.216" height="1.753" transform="translate(11.575 0)" fill="#ffa412"/>
          <rect id="Rectangle_9904" data-name="Rectangle 9904" width="0.216" height="1.753" transform="translate(12.019 0)" fill="#ffa412"/>
          <path id="Path_22067" data-name="Path 22067" d="M2140.059,1815.1v1.74a.542.542,0,0,1-.081.006h-.135V1815.1h.135A.542.542,0,0,1,2140.059,1815.1Z" transform="translate(-2127.489 -1815.096)" fill="#ffa412"/>
          <path id="Path_22068" data-name="Path 22068" d="M2145.634,1815.723v1.416a.456.456,0,0,1-.216.143v-1.7A.457.457,0,0,1,2145.634,1815.723Z" transform="translate(-2132.764 -1815.554)" fill="#ffa412"/>
        </g>
      </g>
      <g id="Group_21799" data-name="Group 21799" transform="translate(0 15.627)">
        <path id="Path_22069" data-name="Path 22069" d="M1763,1782.519v.99a.338.338,0,0,1-.078.214.445.445,0,0,1-.043.045.475.475,0,0,1-.173.1.5.5,0,0,1-.084.02.536.536,0,0,1-.081.006H1743.53a.445.445,0,0,1-.455-.325.367.367,0,0,1,0-.037.175.175,0,0,1,0-.02v-.99a.174.174,0,0,1,0-.02c0-.013,0-.025,0-.037a.445.445,0,0,1,.455-.325h19.015l.036,0h.016l.017,0,.012,0a.506.506,0,0,1,.084.019l.047.018h0l.03.014.017.01.016.009a.34.34,0,0,1,.056.041.188.188,0,0,1,.016.015l.01.009,0,.005,0,0a.165.165,0,0,1,.017.019A.336.336,0,0,1,1763,1782.519Z" transform="translate(-1743.07 -1782.138)" fill="#ffb93e"/>
        <path id="Path_22070" data-name="Path 22070" d="M1753.667,1783.891H1743.48a.408.408,0,0,1-.395-.283.361.361,0,0,1-.011-.042.367.367,0,0,1,0-.037.175.175,0,0,1,0-.02v-.99a.174.174,0,0,1,0-.02c0-.013,0-.025,0-.037a.377.377,0,0,1,.011-.042.407.407,0,0,1,.395-.283h8.936a.419.419,0,0,0,.012.043A3.063,3.063,0,0,0,1753.667,1783.891Z" transform="translate(-1743.07 -1782.138)" fill="#ffa412"/>
        <g id="Group_21798" data-name="Group 21798" transform="translate(6.986 0)">
          <rect id="Rectangle_9905" data-name="Rectangle 9905" width="0.216" height="1.753" transform="translate(10.419 0)" fill="#ffa412"/>
          <rect id="Rectangle_9906" data-name="Rectangle 9906" width="0.216" height="1.753" transform="translate(9.687 0)" fill="#ffa412"/>
          <rect id="Rectangle_9907" data-name="Rectangle 9907" width="0.216" height="1.753" transform="translate(8.81 0)" fill="#ffa412"/>
          <rect id="Rectangle_9908" data-name="Rectangle 9908" width="0.216" height="1.753" transform="translate(7.465 0)" fill="#ffa412"/>
          <rect id="Rectangle_9909" data-name="Rectangle 9909" width="0.216" height="1.753" transform="translate(6.043 0)" fill="#ffa412"/>
          <rect id="Rectangle_9910" data-name="Rectangle 9910" width="0.216" height="1.753" transform="translate(3.863 0)" fill="#ffa412"/>
          <rect id="Rectangle_9911" data-name="Rectangle 9911" width="0.216" height="1.753" transform="translate(1.822 0)" fill="#ffa412"/>
          <rect id="Rectangle_9912" data-name="Rectangle 9912" width="0.216" height="1.753" transform="translate(0 0)" fill="#ffa412"/>
          <rect id="Rectangle_9913" data-name="Rectangle 9913" width="0.216" height="1.753" transform="translate(11.115 0)" fill="#ffa412"/>
          <rect id="Rectangle_9914" data-name="Rectangle 9914" width="0.216" height="1.753" transform="translate(11.575 0)" fill="#ffa412"/>
          <rect id="Rectangle_9915" data-name="Rectangle 9915" width="0.216" height="1.753" transform="translate(12.019 0)" fill="#ffa412"/>
          <path id="Path_22071" data-name="Path 22071" d="M2102.316,1782.147v1.741a.515.515,0,0,1-.081.006h-.135v-1.752h.135A.546.546,0,0,1,2102.316,1782.147Z" transform="translate(-2089.747 -1782.141)" fill="#ffa412"/>
          <path id="Path_22072" data-name="Path 22072" d="M2107.892,1782.767v1.416a.459.459,0,0,1-.216.143v-1.7A.46.46,0,0,1,2107.892,1782.767Z" transform="translate(-2095.022 -1782.598)" fill="#ffa412"/>
        </g>
      </g>
      <g id="Group_21801" data-name="Group 21801" transform="translate(0.982 13.917)">
        <path id="Path_22073" data-name="Path 22073" d="M1781.244,1750.385v.99a.335.335,0,0,1-.079.213.459.459,0,0,1-.216.143.523.523,0,0,1-.084.02.651.651,0,0,1-.081.006h-19.015a.539.539,0,0,1-.212-.043.4.4,0,0,1-.242-.277c0-.008,0-.017,0-.025s0-.011,0-.017,0-.013,0-.02v-.99c0-.006,0-.013,0-.02a.26.26,0,0,1,0-.037.445.445,0,0,1,.455-.325h19.015a.519.519,0,0,1,.081.006.486.486,0,0,1,.084.02.461.461,0,0,1,.216.143A.336.336,0,0,1,1781.244,1750.385Z" transform="translate(-1761.309 -1750.004)" fill="#ffb93e"/>
        <path id="Path_22074" data-name="Path 22074" d="M1771.906,1751.756H1761.72a.432.432,0,0,1-.189-.043.386.386,0,0,1-.216-.277c0-.008,0-.017,0-.025s0-.011,0-.017,0-.013,0-.02v-.99c0-.006,0-.013,0-.02a.26.26,0,0,1,0-.037.378.378,0,0,1,.011-.04.406.406,0,0,1,.4-.284h8.936a3.076,3.076,0,0,0,1.188,1.709Z" transform="translate(-1761.309 -1750.004)" fill="#ffa412"/>
        <g id="Group_21800" data-name="Group 21800" transform="translate(6.986)">
          <rect id="Rectangle_9916" data-name="Rectangle 9916" width="0.216" height="1.753" transform="translate(10.419 0)" fill="#ffa412"/>
          <rect id="Rectangle_9917" data-name="Rectangle 9917" width="0.216" height="1.753" transform="translate(9.687 0)" fill="#ffa412"/>
          <rect id="Rectangle_9918" data-name="Rectangle 9918" width="0.216" height="1.753" transform="translate(8.81 0)" fill="#ffa412"/>
          <rect id="Rectangle_9919" data-name="Rectangle 9919" width="0.216" height="1.753" transform="translate(7.465 0)" fill="#ffa412"/>
          <rect id="Rectangle_9920" data-name="Rectangle 9920" width="0.216" height="1.753" transform="translate(6.043 0)" fill="#ffa412"/>
          <rect id="Rectangle_9921" data-name="Rectangle 9921" width="0.216" height="1.753" transform="translate(3.863 0)" fill="#ffa412"/>
          <rect id="Rectangle_9922" data-name="Rectangle 9922" width="0.216" height="1.753" transform="translate(1.822 0)" fill="#ffa412"/>
          <rect id="Rectangle_9923" data-name="Rectangle 9923" width="0.216" height="1.753" transform="translate(0 0)" fill="#ffa412"/>
          <rect id="Rectangle_9924" data-name="Rectangle 9924" width="0.216" height="1.753" transform="translate(11.115 0)" fill="#ffa412"/>
          <rect id="Rectangle_9925" data-name="Rectangle 9925" width="0.216" height="1.753" transform="translate(11.575 0)" fill="#ffa412"/>
          <rect id="Rectangle_9926" data-name="Rectangle 9926" width="0.216" height="1.753" transform="translate(12.019 0)" fill="#ffa412"/>
          <path id="Path_22075" data-name="Path 22075" d="M2120.555,1750.005v1.74a.569.569,0,0,1-.081.006h-.135V1750h.135A.552.552,0,0,1,2120.555,1750.005Z" transform="translate(-2107.986 -1749.999)" fill="#ffa412"/>
          <path id="Path_22076" data-name="Path 22076" d="M2126.131,1750.626v1.416a.46.46,0,0,1-.216.143v-1.7A.461.461,0,0,1,2126.131,1750.626Z" transform="translate(-2113.261 -1750.457)" fill="#ffa412"/>
        </g>
      </g>
      <g id="Group_21803" data-name="Group 21803" transform="translate(1.438 12.165)">
        <path id="Path_22077" data-name="Path 22077" d="M1789.7,1717.424v.99a.332.332,0,0,1-.079.213l-.021.024a.438.438,0,0,1-.131.094.48.48,0,0,1-.064.025.49.49,0,0,1-.084.019l-.04,0-.041,0h-19.015a.445.445,0,0,1-.455-.325c0-.013,0-.025,0-.037V1717.4a.422.422,0,0,1,.405-.359l.054,0h19.015l.041,0,.04,0a.49.49,0,0,1,.084.019.462.462,0,0,1,.216.142A.335.335,0,0,1,1789.7,1717.424Z" transform="translate(-1769.767 -1717.043)" fill="#ffb93e"/>
        <path id="Path_22078" data-name="Path 22078" d="M1780.364,1718.8h-10.187a.408.408,0,0,1-.4-.283.31.31,0,0,1-.011-.042c0-.013,0-.025,0-.037V1717.4a.4.4,0,0,1,.362-.359l.049,0h8.936s0,0,0,0A3.072,3.072,0,0,0,1780.364,1718.8Z" transform="translate(-1769.767 -1717.043)" fill="#ffa412"/>
        <g id="Group_21802" data-name="Group 21802" transform="translate(6.986)">
          <rect id="Rectangle_9927" data-name="Rectangle 9927" width="0.216" height="1.753" transform="translate(10.419 0)" fill="#ffa412"/>
          <rect id="Rectangle_9928" data-name="Rectangle 9928" width="0.216" height="1.753" transform="translate(9.687 0)" fill="#ffa412"/>
          <rect id="Rectangle_9929" data-name="Rectangle 9929" width="0.216" height="1.753" transform="translate(8.81 0)" fill="#ffa412"/>
          <rect id="Rectangle_9930" data-name="Rectangle 9930" width="0.216" height="1.753" transform="translate(7.465 0)" fill="#ffa412"/>
          <rect id="Rectangle_9931" data-name="Rectangle 9931" width="0.216" height="1.753" transform="translate(6.043 0)" fill="#ffa412"/>
          <rect id="Rectangle_9932" data-name="Rectangle 9932" width="0.216" height="1.753" transform="translate(3.863 0)" fill="#ffa412"/>
          <rect id="Rectangle_9933" data-name="Rectangle 9933" width="0.216" height="1.753" transform="translate(1.822 0)" fill="#ffa412"/>
          <rect id="Rectangle_9934" data-name="Rectangle 9934" width="0.216" height="1.753" transform="translate(0 0)" fill="#ffa412"/>
          <rect id="Rectangle_9935" data-name="Rectangle 9935" width="0.216" height="1.753" transform="translate(11.115 0)" fill="#ffa412"/>
          <rect id="Rectangle_9936" data-name="Rectangle 9936" width="0.216" height="1.753" transform="translate(11.575 0)" fill="#ffa412"/>
          <rect id="Rectangle_9937" data-name="Rectangle 9937" width="0.216" height="1.753" transform="translate(12.019 0)" fill="#ffa412"/>
          <path id="Path_22079" data-name="Path 22079" d="M2129.011,1717.049v1.74a.507.507,0,0,1-.081.007h-.135v-1.753h.135A.571.571,0,0,1,2129.011,1717.049Z" transform="translate(-2116.442 -1717.043)" fill="#ffa412"/>
          <path id="Path_22080" data-name="Path 22080" d="M2134.587,1717.671v1.416a.461.461,0,0,1-.216.143v-1.7A.458.458,0,0,1,2134.587,1717.671Z" transform="translate(-2121.717 -1717.502)" fill="#ffa412"/>
        </g>
      </g>
      <g id="Group_21805" data-name="Group 21805" transform="translate(0.04 10.415)">
        <path id="Path_22081" data-name="Path 22081" d="M1763.744,1684.52v.989a.331.331,0,0,1-.078.213.452.452,0,0,1-.216.143.474.474,0,0,1-.083.02l-.027,0h-19.07a.433.433,0,0,1-.459-.362c0-.006,0-.013,0-.02v-.989c0-.007,0-.014,0-.02s0-.011,0-.016a.414.414,0,0,1,.345-.333l.013,0a.556.556,0,0,1,.1-.01h19.015l.041,0,.017,0h0l.022,0a.534.534,0,0,1,.083.019.457.457,0,0,1,.216.143A.333.333,0,0,1,1763.744,1684.52Z" transform="translate(-1743.809 -1684.138)" fill="#ffb93e"/>
        <path id="Path_22082" data-name="Path 22082" d="M1754.406,1685.891H1744.22a.4.4,0,0,1-.41-.362c0-.006,0-.013,0-.02v-.989c0-.007,0-.014,0-.02s0-.011,0-.016a.393.393,0,0,1,.319-.336l.017,0a.435.435,0,0,1,.073-.006h8.936s0,.008,0,.013a3.072,3.072,0,0,0,1.244,1.737Z" transform="translate(-1743.809 -1684.138)" fill="#ffa412"/>
        <g id="Group_21804" data-name="Group 21804" transform="translate(6.986 0)">
          <rect id="Rectangle_9938" data-name="Rectangle 9938" width="0.216" height="1.753" transform="translate(10.419 0)" fill="#ffa412"/>
          <rect id="Rectangle_9939" data-name="Rectangle 9939" width="0.216" height="1.753" transform="translate(9.687 0)" fill="#ffa412"/>
          <rect id="Rectangle_9940" data-name="Rectangle 9940" width="0.216" height="1.753" transform="translate(8.81 0)" fill="#ffa412"/>
          <rect id="Rectangle_9941" data-name="Rectangle 9941" width="0.216" height="1.753" transform="translate(7.465 0)" fill="#ffa412"/>
          <rect id="Rectangle_9942" data-name="Rectangle 9942" width="0.216" height="1.753" transform="translate(6.043 0)" fill="#ffa412"/>
          <rect id="Rectangle_9943" data-name="Rectangle 9943" width="0.216" height="1.753" transform="translate(3.863 0)" fill="#ffa412"/>
          <rect id="Rectangle_9944" data-name="Rectangle 9944" width="0.216" height="1.753" transform="translate(1.822 0)" fill="#ffa412"/>
          <rect id="Rectangle_9945" data-name="Rectangle 9945" width="0.216" height="1.753" transform="translate(0 0)" fill="#ffa412"/>
          <rect id="Rectangle_9946" data-name="Rectangle 9946" width="0.216" height="1.753" transform="translate(11.115 0)" fill="#ffa412"/>
          <rect id="Rectangle_9947" data-name="Rectangle 9947" width="0.216" height="1.753" transform="translate(11.575 0)" fill="#ffa412"/>
          <rect id="Rectangle_9948" data-name="Rectangle 9948" width="0.216" height="1.753" transform="translate(12.019 0)" fill="#ffa412"/>
          <path id="Path_22083" data-name="Path 22083" d="M2103.059,1684.147v1.74a.527.527,0,0,1-.081.006h-.135v-1.753h.135A.527.527,0,0,1,2103.059,1684.147Z" transform="translate(-2090.489 -1684.141)" fill="#ffa412"/>
          <path id="Path_22084" data-name="Path 22084" d="M2108.634,1684.768v1.416a.464.464,0,0,1-.216.143v-1.7A.462.462,0,0,1,2108.634,1684.768Z" transform="translate(-2095.764 -1684.599)" fill="#ffa412"/>
        </g>
      </g>
      <g id="Group_21807" data-name="Group 21807" transform="translate(0 8.674)">
        <path id="Path_22085" data-name="Path 22085" d="M1763,1651.8v.99a.336.336,0,0,1-.078.213.544.544,0,0,1-.043.046.477.477,0,0,1-.173.1.467.467,0,0,1-.065.016h0l-.017,0a.506.506,0,0,1-.081.007H1743.53a.458.458,0,0,1-.059,0l-.023,0a.426.426,0,0,1-.374-.322.264.264,0,0,1,0-.033.186.186,0,0,1,0-.02v-.99a.174.174,0,0,1,0-.02c0-.012,0-.024,0-.037a.445.445,0,0,1,.455-.324H1762.6l.017,0,.012,0a.494.494,0,0,1,.084.019.454.454,0,0,1,.047.017h0a.464.464,0,0,1,.152.106l.017.019A.338.338,0,0,1,1763,1651.8Z" transform="translate(-1743.07 -1651.42)" fill="#ffb93e"/>
        <path id="Path_22086" data-name="Path 22086" d="M1753.667,1653.173h-10.211l-.026,0a.4.4,0,0,1-.356-.326.264.264,0,0,1,0-.033.186.186,0,0,1,0-.02v-.99a.174.174,0,0,1,0-.02c0-.012,0-.024,0-.037a.418.418,0,0,1,.011-.042.407.407,0,0,1,.395-.283h8.936a.409.409,0,0,0,.012.043,3.065,3.065,0,0,0,1.22,1.7Z" transform="translate(-1743.07 -1651.42)" fill="#ffa412"/>
        <g id="Group_21806" data-name="Group 21806" transform="translate(6.986 0)">
          <rect id="Rectangle_9949" data-name="Rectangle 9949" width="0.216" height="1.753" transform="translate(10.419 0)" fill="#ffa412"/>
          <rect id="Rectangle_9950" data-name="Rectangle 9950" width="0.216" height="1.753" transform="translate(9.687 0)" fill="#ffa412"/>
          <rect id="Rectangle_9951" data-name="Rectangle 9951" width="0.216" height="1.753" transform="translate(8.81 0)" fill="#ffa412"/>
          <rect id="Rectangle_9952" data-name="Rectangle 9952" width="0.216" height="1.753" transform="translate(7.465 0)" fill="#ffa412"/>
          <rect id="Rectangle_9953" data-name="Rectangle 9953" width="0.216" height="1.753" transform="translate(6.043 0)" fill="#ffa412"/>
          <rect id="Rectangle_9954" data-name="Rectangle 9954" width="0.216" height="1.753" transform="translate(3.863 0)" fill="#ffa412"/>
          <rect id="Rectangle_9955" data-name="Rectangle 9955" width="0.216" height="1.753" transform="translate(1.822 0)" fill="#ffa412"/>
          <rect id="Rectangle_9956" data-name="Rectangle 9956" width="0.216" height="1.753" transform="translate(0 0)" fill="#ffa412"/>
          <rect id="Rectangle_9957" data-name="Rectangle 9957" width="0.216" height="1.753" transform="translate(11.115 0)" fill="#ffa412"/>
          <rect id="Rectangle_9958" data-name="Rectangle 9958" width="0.216" height="1.753" transform="translate(11.575 0)" fill="#ffa412"/>
          <rect id="Rectangle_9959" data-name="Rectangle 9959" width="0.216" height="1.753" transform="translate(12.019 0)" fill="#ffa412"/>
          <path id="Path_22087" data-name="Path 22087" d="M2102.316,1651.428v1.741a.53.53,0,0,1-.081.006h-.135v-1.753h.135A.515.515,0,0,1,2102.316,1651.428Z" transform="translate(-2089.747 -1651.422)" fill="#ffa412"/>
          <path id="Path_22088" data-name="Path 22088" d="M2107.892,1652.048v1.416a.46.46,0,0,1-.216.143v-1.7A.457.457,0,0,1,2107.892,1652.048Z" transform="translate(-2095.022 -1651.88)" fill="#ffa412"/>
        </g>
      </g>
      <g id="Group_21809" data-name="Group 21809" transform="translate(0.982 6.965)">
        <path id="Path_22089" data-name="Path 22089" d="M1781.244,1619.657v.99a.335.335,0,0,1-.079.213.455.455,0,0,1-.216.142.486.486,0,0,1-.084.02.551.551,0,0,1-.081.007h-19.015a.533.533,0,0,1-.212-.044.4.4,0,0,1-.242-.277c0-.008,0-.016,0-.025s0-.011,0-.017,0-.013,0-.019v-.99c0-.006,0-.013,0-.02a.286.286,0,0,1,0-.037.445.445,0,0,1,.455-.325h19.015a.519.519,0,0,1,.081.006.51.51,0,0,1,.084.019.454.454,0,0,1,.216.143A.334.334,0,0,1,1781.244,1619.657Z" transform="translate(-1761.309 -1619.276)" fill="#ffb93e"/>
        <path id="Path_22090" data-name="Path 22090" d="M1771.906,1621.029H1761.72a.427.427,0,0,1-.189-.044.385.385,0,0,1-.216-.277c0-.008,0-.016,0-.025s0-.011,0-.017,0-.013,0-.019v-.99c0-.006,0-.013,0-.02a.286.286,0,0,1,0-.037.388.388,0,0,1,.011-.041.407.407,0,0,1,.4-.284h8.936a3.072,3.072,0,0,0,1.188,1.709Z" transform="translate(-1761.309 -1619.276)" fill="#ffa412"/>
        <g id="Group_21808" data-name="Group 21808" transform="translate(6.986 0)">
          <rect id="Rectangle_9960" data-name="Rectangle 9960" width="0.216" height="1.753" transform="translate(10.419 0)" fill="#ffa412"/>
          <rect id="Rectangle_9961" data-name="Rectangle 9961" width="0.216" height="1.753" transform="translate(9.687 0)" fill="#ffa412"/>
          <rect id="Rectangle_9962" data-name="Rectangle 9962" width="0.216" height="1.753" transform="translate(8.81 0)" fill="#ffa412"/>
          <rect id="Rectangle_9963" data-name="Rectangle 9963" width="0.216" height="1.753" transform="translate(7.465 0)" fill="#ffa412"/>
          <rect id="Rectangle_9964" data-name="Rectangle 9964" width="0.216" height="1.753" transform="translate(6.043 0)" fill="#ffa412"/>
          <rect id="Rectangle_9965" data-name="Rectangle 9965" width="0.216" height="1.753" transform="translate(3.863 0)" fill="#ffa412"/>
          <rect id="Rectangle_9966" data-name="Rectangle 9966" width="0.216" height="1.753" transform="translate(1.822 0)" fill="#ffa412"/>
          <rect id="Rectangle_9967" data-name="Rectangle 9967" width="0.216" height="1.753" transform="translate(0 0)" fill="#ffa412"/>
          <rect id="Rectangle_9968" data-name="Rectangle 9968" width="0.216" height="1.753" transform="translate(11.115 0)" fill="#ffa412"/>
          <rect id="Rectangle_9969" data-name="Rectangle 9969" width="0.216" height="1.753" transform="translate(11.575 0)" fill="#ffa412"/>
          <rect id="Rectangle_9970" data-name="Rectangle 9970" width="0.216" height="1.753" transform="translate(12.019 0)" fill="#ffa412"/>
          <path id="Path_22091" data-name="Path 22091" d="M2120.555,1619.286v1.74a.551.551,0,0,1-.081.006h-.135v-1.753h.135A.52.52,0,0,1,2120.555,1619.286Z" transform="translate(-2107.986 -1619.28)" fill="#ffa412"/>
          <path id="Path_22092" data-name="Path 22092" d="M2126.131,1619.907v1.416a.461.461,0,0,1-.216.143v-1.7A.456.456,0,0,1,2126.131,1619.907Z" transform="translate(-2113.261 -1619.738)" fill="#ffa412"/>
        </g>
      </g>
      <g id="Group_21811" data-name="Group 21811" transform="translate(2.536 5.212)">
        <path id="Path_22093" data-name="Path 22093" d="M1810.091,1586.707v.99a.336.336,0,0,1-.078.212h0l-.021.023a.445.445,0,0,1-.1.079.531.531,0,0,1-.061.029h0l-.032.012a.449.449,0,0,1-.084.019.533.533,0,0,1-.081.006h-19.015a.445.445,0,0,1-.455-.324.293.293,0,0,1,0-.038c0-.006,0-.013,0-.02v-.99c0-.006,0-.013,0-.02a.422.422,0,0,1,.4-.359.444.444,0,0,1,.054,0h19.015a.6.6,0,0,1,.081.006.542.542,0,0,1,.084.02.473.473,0,0,1,.2.119l.021.023h0A.335.335,0,0,1,1810.091,1586.707Z" transform="translate(-1790.157 -1586.326)" fill="#ffb93e"/>
        <path id="Path_22094" data-name="Path 22094" d="M1800.755,1588.079h-10.187a.407.407,0,0,1-.4-.283.385.385,0,0,1-.011-.041.293.293,0,0,1,0-.038c0-.006,0-.013,0-.02v-.99c0-.006,0-.013,0-.02a.4.4,0,0,1,.361-.359.354.354,0,0,1,.049,0h8.936s0,0,0,0A3.071,3.071,0,0,0,1800.755,1588.079Z" transform="translate(-1790.157 -1586.326)" fill="#ffa412"/>
        <g id="Group_21810" data-name="Group 21810" transform="translate(6.986)">
          <rect id="Rectangle_9971" data-name="Rectangle 9971" width="0.216" height="1.753" transform="translate(10.419 0)" fill="#ffa412"/>
          <rect id="Rectangle_9972" data-name="Rectangle 9972" width="0.216" height="1.753" transform="translate(9.687 0)" fill="#ffa412"/>
          <rect id="Rectangle_9973" data-name="Rectangle 9973" width="0.216" height="1.753" transform="translate(8.81 0)" fill="#ffa412"/>
          <rect id="Rectangle_9974" data-name="Rectangle 9974" width="0.216" height="1.753" transform="translate(7.465 0)" fill="#ffa412"/>
          <rect id="Rectangle_9975" data-name="Rectangle 9975" width="0.216" height="1.753" transform="translate(6.043 0)" fill="#ffa412"/>
          <rect id="Rectangle_9976" data-name="Rectangle 9976" width="0.216" height="1.753" transform="translate(3.863 0)" fill="#ffa412"/>
          <rect id="Rectangle_9977" data-name="Rectangle 9977" width="0.216" height="1.753" transform="translate(1.822 0)" fill="#ffa412"/>
          <rect id="Rectangle_9978" data-name="Rectangle 9978" width="0.216" height="1.753" transform="translate(0 0)" fill="#ffa412"/>
          <rect id="Rectangle_9979" data-name="Rectangle 9979" width="0.216" height="1.753" transform="translate(11.115 0)" fill="#ffa412"/>
          <rect id="Rectangle_9980" data-name="Rectangle 9980" width="0.216" height="1.753" transform="translate(11.575 0)" fill="#ffa412"/>
          <rect id="Rectangle_9981" data-name="Rectangle 9981" width="0.216" height="1.753" transform="translate(12.019 0)" fill="#ffa412"/>
          <path id="Path_22095" data-name="Path 22095" d="M2149.4,1586.331v1.74a.536.536,0,0,1-.082.006h-.135v-1.753h.135A.521.521,0,0,1,2149.4,1586.331Z" transform="translate(-2136.835 -1586.325)" fill="#ffa412"/>
          <path id="Path_22096" data-name="Path 22096" d="M2154.98,1586.951v1.416a.454.454,0,0,1-.216.143v-1.7A.459.459,0,0,1,2154.98,1586.951Z" transform="translate(-2142.11 -1586.783)" fill="#ffa412"/>
        </g>
      </g>
      <g id="Group_21813" data-name="Group 21813" transform="translate(0.04 3.462)">
        <path id="Path_22097" data-name="Path 22097" d="M1763.744,1553.8v.989a.333.333,0,0,1-.078.213.456.456,0,0,1-.216.143.463.463,0,0,1-.083.019l-.027,0h0l-.018,0h-19.048a.485.485,0,0,1-.391-.182.33.33,0,0,1-.068-.18c0-.007,0-.014,0-.02v-.989c0-.007,0-.014,0-.02a.4.4,0,0,1,.326-.345.527.527,0,0,1,.133-.017h19.051a.4.4,0,0,1,.045,0,.474.474,0,0,1,.083.02.277.277,0,0,1,.04.015h0a.439.439,0,0,1,.133.083l0,0,.005,0a.4.4,0,0,1,.036.038A.335.335,0,0,1,1763.744,1553.8Z" transform="translate(-1743.809 -1553.42)" fill="#ffb93e"/>
        <path id="Path_22098" data-name="Path 22098" d="M1754.406,1555.173H1744.22a.421.421,0,0,1-.343-.173.36.36,0,0,1-.067-.189c0-.007,0-.014,0-.02v-.989c0-.007,0-.014,0-.02a.393.393,0,0,1,.327-.354.406.406,0,0,1,.083-.008h8.936c0,.014.008.027.012.041a3.064,3.064,0,0,0,1.235,1.709Z" transform="translate(-1743.809 -1553.42)" fill="#ffa412"/>
        <g id="Group_21812" data-name="Group 21812" transform="translate(6.986 0)">
          <rect id="Rectangle_9982" data-name="Rectangle 9982" width="0.216" height="1.753" transform="translate(10.419 0)" fill="#ffa412"/>
          <rect id="Rectangle_9983" data-name="Rectangle 9983" width="0.216" height="1.753" transform="translate(9.687 0)" fill="#ffa412"/>
          <rect id="Rectangle_9984" data-name="Rectangle 9984" width="0.216" height="1.753" transform="translate(8.81 0)" fill="#ffa412"/>
          <rect id="Rectangle_9985" data-name="Rectangle 9985" width="0.216" height="1.753" transform="translate(7.465 0)" fill="#ffa412"/>
          <rect id="Rectangle_9986" data-name="Rectangle 9986" width="0.216" height="1.753" transform="translate(6.043 0)" fill="#ffa412"/>
          <rect id="Rectangle_9987" data-name="Rectangle 9987" width="0.216" height="1.753" transform="translate(3.863 0)" fill="#ffa412"/>
          <rect id="Rectangle_9988" data-name="Rectangle 9988" width="0.216" height="1.753" transform="translate(1.822 0)" fill="#ffa412"/>
          <rect id="Rectangle_9989" data-name="Rectangle 9989" width="0.216" height="1.753" transform="translate(0 0)" fill="#ffa412"/>
          <rect id="Rectangle_9990" data-name="Rectangle 9990" width="0.216" height="1.753" transform="translate(11.115 0)" fill="#ffa412"/>
          <rect id="Rectangle_9991" data-name="Rectangle 9991" width="0.216" height="1.753" transform="translate(11.575 0)" fill="#ffa412"/>
          <rect id="Rectangle_9992" data-name="Rectangle 9992" width="0.216" height="1.753" transform="translate(12.019 0)" fill="#ffa412"/>
          <path id="Path_22099" data-name="Path 22099" d="M2103.059,1553.427v1.741a.542.542,0,0,1-.081.006h-.135v-1.753h.135A.577.577,0,0,1,2103.059,1553.427Z" transform="translate(-2090.489 -1553.422)" fill="#ffa412"/>
          <path id="Path_22100" data-name="Path 22100" d="M2108.634,1554.049v1.416a.46.46,0,0,1-.216.143v-1.7A.463.463,0,0,1,2108.634,1554.049Z" transform="translate(-2095.764 -1553.88)" fill="#ffa412"/>
        </g>
      </g>
      <g id="Group_21815" data-name="Group 21815" transform="translate(1.438 1.75)">
        <path id="Path_22101" data-name="Path 22101" d="M1789.7,1521.611v.99a.333.333,0,0,1-.079.213.46.46,0,0,1-.216.143.475.475,0,0,1-.084.02.55.55,0,0,1-.081.006h-19.014a.537.537,0,0,1-.206-.041.392.392,0,0,1-.253-.306s0-.01,0-.015,0-.013,0-.02v-.99c0-.007,0-.013,0-.02a.422.422,0,0,1,.405-.359l.055,0h19.014a.518.518,0,0,1,.081.006.5.5,0,0,1,.084.02.464.464,0,0,1,.216.143A.334.334,0,0,1,1789.7,1521.611Z" transform="translate(-1769.762 -1521.229)" fill="#ffb93e"/>
        <path id="Path_22102" data-name="Path 22102" d="M1780.36,1522.982h-10.187a.431.431,0,0,1-.183-.041.384.384,0,0,1-.226-.306s0-.01,0-.015,0-.013,0-.02v-.99c0-.007,0-.013,0-.02a.4.4,0,0,1,.362-.359l.049,0h8.936v0a3.074,3.074,0,0,0,1.192,1.71Z" transform="translate(-1769.762 -1521.229)" fill="#ffa412"/>
        <g id="Group_21814" data-name="Group 21814" transform="translate(6.986)">
          <rect id="Rectangle_9993" data-name="Rectangle 9993" width="0.216" height="1.753" transform="translate(10.419 0)" fill="#ffa412"/>
          <rect id="Rectangle_9994" data-name="Rectangle 9994" width="0.216" height="1.753" transform="translate(9.687 0)" fill="#ffa412"/>
          <rect id="Rectangle_9995" data-name="Rectangle 9995" width="0.216" height="1.753" transform="translate(8.81 0)" fill="#ffa412"/>
          <rect id="Rectangle_9996" data-name="Rectangle 9996" width="0.216" height="1.753" transform="translate(7.465 0)" fill="#ffa412"/>
          <rect id="Rectangle_9997" data-name="Rectangle 9997" width="0.216" height="1.753" transform="translate(6.043 0)" fill="#ffa412"/>
          <rect id="Rectangle_9998" data-name="Rectangle 9998" width="0.216" height="1.753" transform="translate(3.863 0)" fill="#ffa412"/>
          <rect id="Rectangle_9999" data-name="Rectangle 9999" width="0.216" height="1.753" transform="translate(1.822 0)" fill="#ffa412"/>
          <rect id="Rectangle_10000" data-name="Rectangle 10000" width="0.216" height="1.753" transform="translate(0 0)" fill="#ffa412"/>
          <rect id="Rectangle_10001" data-name="Rectangle 10001" width="0.216" height="1.753" transform="translate(11.115 0)" fill="#ffa412"/>
          <rect id="Rectangle_10002" data-name="Rectangle 10002" width="0.216" height="1.753" transform="translate(11.575 0)" fill="#ffa412"/>
          <rect id="Rectangle_10003" data-name="Rectangle 10003" width="0.216" height="1.753" transform="translate(12.019 0)" fill="#ffa412"/>
          <path id="Path_22103" data-name="Path 22103" d="M2129.011,1521.234v1.74a.537.537,0,0,1-.081.006h-.135v-1.753h.135A.553.553,0,0,1,2129.011,1521.234Z" transform="translate(-2116.442 -1521.228)" fill="#ffa412"/>
          <path id="Path_22104" data-name="Path 22104" d="M2134.587,1521.854v1.416a.46.46,0,0,1-.216.142v-1.7A.458.458,0,0,1,2134.587,1521.854Z" transform="translate(-2121.717 -1521.686)" fill="#ffa412"/>
        </g>
      </g>
      <g id="Group_21817" data-name="Group 21817" transform="translate(2.033 0)">
        <path id="Path_22105" data-name="Path 22105" d="M1800.745,1488.708v.99a.335.335,0,0,1-.079.213.457.457,0,0,1-.216.142.449.449,0,0,1-.084.019l-.026,0H1781.27a.433.433,0,0,1-.459-.362c0-.006,0-.013,0-.02v-.99c0-.007,0-.013,0-.02a.433.433,0,0,1,.459-.362h19.015a.506.506,0,0,1,.081.006.515.515,0,0,1,.084.019.46.46,0,0,1,.216.143A.336.336,0,0,1,1800.745,1488.708Z" transform="translate(-1780.81 -1488.326)" fill="#ffb93e"/>
        <path id="Path_22106" data-name="Path 22106" d="M1791.408,1490.078h-10.187a.4.4,0,0,1-.411-.362c0-.006,0-.013,0-.02v-.99c0-.007,0-.013,0-.02a.4.4,0,0,1,.411-.362h8.935a3.072,3.072,0,0,0,1.247,1.75Z" transform="translate(-1780.81 -1488.326)" fill="#ffa412"/>
        <g id="Group_21816" data-name="Group 21816" transform="translate(6.986)">
          <rect id="Rectangle_10004" data-name="Rectangle 10004" width="0.216" height="1.753" transform="translate(10.419 0)" fill="#ffa412"/>
          <rect id="Rectangle_10005" data-name="Rectangle 10005" width="0.216" height="1.753" transform="translate(9.687 0)" fill="#ffa412"/>
          <rect id="Rectangle_10006" data-name="Rectangle 10006" width="0.216" height="1.753" transform="translate(8.81 0)" fill="#ffa412"/>
          <rect id="Rectangle_10007" data-name="Rectangle 10007" width="0.216" height="1.753" transform="translate(7.465 0)" fill="#ffa412"/>
          <rect id="Rectangle_10008" data-name="Rectangle 10008" width="0.216" height="1.753" transform="translate(6.043 0)" fill="#ffa412"/>
          <rect id="Rectangle_10009" data-name="Rectangle 10009" width="0.216" height="1.753" transform="translate(3.863 0)" fill="#ffa412"/>
          <rect id="Rectangle_10010" data-name="Rectangle 10010" width="0.216" height="1.753" transform="translate(1.822 0)" fill="#ffa412"/>
          <rect id="Rectangle_10011" data-name="Rectangle 10011" width="0.216" height="1.753" transform="translate(0 0)" fill="#ffa412"/>
          <rect id="Rectangle_10012" data-name="Rectangle 10012" width="0.216" height="1.753" transform="translate(11.115 0)" fill="#ffa412"/>
          <rect id="Rectangle_10013" data-name="Rectangle 10013" width="0.216" height="1.753" transform="translate(11.575 0)" fill="#ffa412"/>
          <rect id="Rectangle_10014" data-name="Rectangle 10014" width="0.216" height="1.753" transform="translate(12.019 0)" fill="#ffa412"/>
          <path id="Path_22107" data-name="Path 22107" d="M2140.059,1488.331v1.74a.523.523,0,0,1-.082.006h-.135v-1.753h.135A.555.555,0,0,1,2140.059,1488.331Z" transform="translate(-2127.49 -1488.325)" fill="#ffa412"/>
          <path id="Path_22108" data-name="Path 22108" d="M2145.634,1488.952v1.416a.456.456,0,0,1-.216.143v-1.7A.457.457,0,0,1,2145.634,1488.952Z" transform="translate(-2132.764 -1488.783)" fill="#ffa412"/>
        </g>
      </g>
    </g>
    <g id="Group_21819" data-name="Group 21819" transform="translate(940.589 286.133)">
      <path id="Path_22109" data-name="Path 22109" d="M1956.589,1267.067s-1,1.388-1.915,1.408a6.747,6.747,0,0,1-2.308-.644s-.841-1.85-.27-2.574a1.236,1.236,0,0,1,1.17.19,1.787,1.787,0,0,1,.309.293.985.985,0,0,0,.481.322c.653.2,1.429-.265,1.719.18a3.048,3.048,0,0,0,.505.59A2.29,2.29,0,0,0,1956.589,1267.067Z" transform="translate(-1943.568 -1265.187)" fill="#ffeddc"/>
      <path id="Path_22110" data-name="Path 22110" d="M1797.281,1335.6s3.53-8.446,9.884-8.606c0,0,5.865.644,6.191,8.606Z" transform="translate(-1797.281 -1323.706)" fill="#ffeddc"/>
      <path id="Path_22111" data-name="Path 22111" d="M1948.24,1312.384s2.547.56,3.332.231a.78.78,0,0,0-.954-.9,2.273,2.273,0,0,1-1.494-.389C1948.727,1311.122,1948.134,1311.944,1948.24,1312.384Z" transform="translate(-1940.097 -1308.839)" fill="#db6a1d"/>
      <path id="Path_22112" data-name="Path 22112" d="M1977.958,1271.77c-.163.121-.663-1.7-.663-1.7a1.778,1.778,0,0,1,.31.293.981.981,0,0,0,.481.322C1978.087,1270.738,1978.116,1271.653,1977.958,1271.77Z" transform="translate(-1967.598 -1269.81)" fill="#e5c1a1"/>
      <path id="Path_22113" data-name="Path 22113" d="M2008.82,1285.6a10.492,10.492,0,0,1-1.373.718c-.163,0,.869-1.308.869-1.308A3.038,3.038,0,0,0,2008.82,1285.6Z" transform="translate(-1996.109 -1283.958)" fill="#e5c1a1"/>
      <path id="Path_22114" data-name="Path 22114" d="M1861.28,1377.616c-.065-.055,2.5-3.727,3.2-3.754s2.292.8,3.441.912,2.262-.215,2.479.456.815,3.046.448,3.427S1862.69,1378.805,1861.28,1377.616Z" transform="translate(-1857.832 -1368.082)" fill="#f9ddbf"/>
    </g>
    <g id="Group_21822" data-name="Group 21822" transform="translate(959.853 254.953)">
      <path id="Path_22115" data-name="Path 22115" d="M2163.918,688.845a5.5,5.5,0,0,1-.512.347c-.07.042-.139.082-.211.121a5.707,5.707,0,0,1-.555.265l-.163-.028q-.512-.084-1.01-.155-.247-.035-.489-.067c-.679-.089-1.333-.16-1.953-.216-.167-.016-.331-.03-.494-.043l-.38-.029c-.307-.022-.6-.041-.888-.057a5.489,5.489,0,0,1,.535-9.338c.071-.039.143-.076.215-.111a5.627,5.627,0,0,1,7.38,2.28A5.475,5.475,0,0,1,2163.918,688.845Z" transform="translate(-2154.905 -678.959)" fill="#ffb93e"/>
      <g id="Group_21820" data-name="Group 21820" transform="translate(0.615 0.633)">
        <path id="Path_22116" data-name="Path 22116" d="M2175.715,693.413a5.049,5.049,0,0,0-6.805-1.944,4.941,4.941,0,0,0-2.59,4.34,4.869,4.869,0,0,0,.622,2.38,4.941,4.941,0,0,0,2.389,2.145q.244.019.494.043a4.9,4.9,0,0,1-1.857-1.089,4.782,4.782,0,0,1,1.007-7.7,4.911,4.911,0,0,1,6.621,1.891,4.784,4.784,0,0,1-1.784,6.464l-.13.074a4.9,4.9,0,0,1-1.9.578q.242.032.489.067a5.059,5.059,0,0,0,1.48-.527c.091-.049.179-.1.266-.156A4.917,4.917,0,0,0,2175.715,693.413Z" transform="translate(-2166.319 -690.855)" fill="#ffa412"/>
      </g>
      <g id="Group_21821" data-name="Group 21821" transform="translate(3.276 1.948)">
        <path id="Path_22117" data-name="Path 22117" d="M2220.527,719.7a1.5,1.5,0,0,0-.373-.558,1.53,1.53,0,0,0-.534-.31,2.574,2.574,0,0,0-.678-.125q-.374-.023-.814-.011a4.025,4.025,0,0,1-.465-.009,1.176,1.176,0,0,1-.327-.071.571.571,0,0,1-.219-.146.765.765,0,0,1-.139-.226.825.825,0,0,1-.063-.266.566.566,0,0,1,.04-.249.6.6,0,0,1,.156-.218.912.912,0,0,1,.285-.171.727.727,0,0,1,.611.006,1.026,1.026,0,0,1,.462.57l1.138-.456a2.076,2.076,0,0,0-.373-.61,1.616,1.616,0,0,0-.5-.385,1.644,1.644,0,0,0-.611-.159,2.153,2.153,0,0,0-.688.069l-.323-.784-.63.253.318.773a2.366,2.366,0,0,0-.579.407,1.757,1.757,0,0,0-.365.5,1.383,1.383,0,0,0-.134.567,1.506,1.506,0,0,0,.12.6,1.523,1.523,0,0,0,.375.561,1.5,1.5,0,0,0,.534.308,2.536,2.536,0,0,0,.678.121,8.018,8.018,0,0,0,.817,0,3.122,3.122,0,0,1,.444,0,1.206,1.206,0,0,1,.325.071.612.612,0,0,1,.228.153.833.833,0,0,1,.153.25.683.683,0,0,1,.054.267.559.559,0,0,1-.061.253.709.709,0,0,1-.18.225,1.088,1.088,0,0,1-.306.177,1.327,1.327,0,0,1-.334.086.765.765,0,0,1-.337-.034.791.791,0,0,1-.308-.2,1.2,1.2,0,0,1-.249-.4l-1.139.456a1.95,1.95,0,0,0,.448.688,1.607,1.607,0,0,0,.59.363,1.818,1.818,0,0,0,.67.1,2.891,2.891,0,0,0,.69-.113l.294.715.627-.251-.3-.719a2.561,2.561,0,0,0,.585-.4,1.7,1.7,0,0,0,.373-.5,1.359,1.359,0,0,0,.137-.564A1.5,1.5,0,0,0,2220.527,719.7Z" transform="translate(-2215.717 -715.589)" fill="#ffa412"/>
      </g>
    </g>
    <path id="Path_22118" data-name="Path 22118" d="M1751.4,1523.319a9.485,9.485,0,0,1-6.3,5.84v-.771c0-.006,0-.013,0-.019a.312.312,0,0,1,0-.037.34.34,0,0,1,.011-.042.407.407,0,0,1,.4-.282h-2.033a.407.407,0,0,1-.395-.283.374.374,0,0,1-.011-.042c0-.012,0-.025,0-.037a.169.169,0,0,1,0-.02v-.99a.181.181,0,0,1,0-.02c0-.012,0-.025,0-.037a.388.388,0,0,1,.011-.042.407.407,0,0,1,.395-.283h.794a.384.384,0,0,1-.216-.277c0-.009,0-.017,0-.025s0-.011,0-.017,0-.013,0-.02v-.99c0-.006,0-.013,0-.02a.352.352,0,0,1,0-.037.391.391,0,0,1,.011-.041.406.406,0,0,1,.4-.284h.456a.408.408,0,0,1-.4-.283.376.376,0,0,1-.011-.042c0-.012,0-.024,0-.037v-1.029a.4.4,0,0,1,.362-.359h-1.349a.4.4,0,0,1-.411-.362c0-.007,0-.013,0-.02v-.989c0-.006,0-.014,0-.02a.12.12,0,0,1,0-.016.394.394,0,0,1,.319-.336.4.4,0,0,1-.356-.326.245.245,0,0,1,0-.033.182.182,0,0,1,0-.02v-.99a.171.171,0,0,1,0-.02c0-.012,0-.025,0-.037a.351.351,0,0,1,.011-.042.408.408,0,0,1,.395-.283h.794a.385.385,0,0,1-.216-.277c0-.008,0-.017,0-.025s0-.011,0-.017,0-.013,0-.02v-.989c0-.007,0-.014,0-.02s0-.025,0-.037a.415.415,0,0,1,.011-.041.407.407,0,0,1,.4-.284h1.554a.406.406,0,0,1-.395-.284.351.351,0,0,1-.011-.041.3.3,0,0,1,0-.037c0-.006,0-.013,0-.019v-.99c0-.007,0-.013,0-.019a.4.4,0,0,1,.361-.359h-2.447a.418.418,0,0,1-.343-.173v-.009l.257-1.554v-.009l.367-2.217a9.084,9.084,0,0,1,7.992,7.644A8.278,8.278,0,0,1,1751.4,1523.319Z" transform="translate(-805.4 -1212.627)" fill="#e2810e" opacity="0.5"/>
    <path id="Path_22914" data-name="Path 22914" d="M9.234,0a9.438,9.438,0,0,1,9.353,9.353,9.153,9.153,0,0,1-9.235,9.235A9.438,9.438,0,0,1,0,9.234,9.153,9.153,0,0,1,9.234,0Z" transform="translate(921.86 307.511) rotate(-45)" fill="#e2810e"/>
    <path id="Path_22119" data-name="Path 22119" d="M1520.836,1517.9q-.173.1-.352.2l-.121.064q-.138.073-.277.141a9.414,9.414,0,0,1-12.308-3.835,9.163,9.163,0,0,1,2.721-11.95,9.351,9.351,0,0,1,.955-.6c.12-.065.241-.128.362-.187s.237-.113.356-.166a9.412,9.412,0,0,1,2.807-.745,9.488,9.488,0,0,1,5.106.893,9.188,9.188,0,0,1,.75,16.179Z" transform="translate(-581.682 -1202.116)" fill="#ffb93e"/>
    <g id="Group_21823" data-name="Group 21823" transform="translate(925.956 299.722)">
      <path id="Path_22120" data-name="Path 22120" d="M1534.018,1537.24a8.522,8.522,0,0,1-2.341-.33,8.306,8.306,0,0,1-5.01-3.954,8.125,8.125,0,0,1-.711-6.294,8.239,8.239,0,0,1,4-4.947,8.446,8.446,0,0,1,11.385,3.252,8.229,8.229,0,0,1-3.293,11.241A8.423,8.423,0,0,1,1534.018,1537.24Zm-.026-16.328a8.183,8.183,0,0,0-3.923,1,8.021,8.021,0,0,0-3.9,4.814,7.909,7.909,0,0,0,.692,6.124,8.082,8.082,0,0,0,4.875,3.847,8.193,8.193,0,0,0,6.2-.683,8.008,8.008,0,0,0,3.2-10.938A8.179,8.179,0,0,0,1533.992,1520.912Z" transform="translate(-1525.621 -1520.689)" fill="#ffa412"/>
    </g>
    <g id="Group_21824" data-name="Group 21824" transform="translate(930.413 301.922)">
      <path id="Path_22121" data-name="Path 22121" d="M1616.411,1568.94c-.019-.046-.038-.089-.058-.132a2.422,2.422,0,0,0-.568-.8,2.54,2.54,0,0,0-.893-.519,4.322,4.322,0,0,0-1.135-.211q-.626-.038-1.363-.017a6.733,6.733,0,0,1-.778-.015,1.969,1.969,0,0,1-.548-.119.965.965,0,0,1-.366-.245,1.287,1.287,0,0,1-.232-.379,1.388,1.388,0,0,1-.105-.444.943.943,0,0,1,.067-.418,1.02,1.02,0,0,1,.261-.365,1.523,1.523,0,0,1,.477-.287,1.217,1.217,0,0,1,1.022.01,1.717,1.717,0,0,1,.772.955l1.906-.764a3.514,3.514,0,0,0-.624-1.021,2.727,2.727,0,0,0-.845-.644,2.772,2.772,0,0,0-1.023-.266,3.578,3.578,0,0,0-1.15.116l-.539-1.312-1.055.423.532,1.294a3.958,3.958,0,0,0-.968.68,2.924,2.924,0,0,0-.61.84,2.319,2.319,0,0,0-.224.949,2.5,2.5,0,0,0,.2,1.011,2.532,2.532,0,0,0,.628.938,2.5,2.5,0,0,0,.892.516,4.289,4.289,0,0,0,1.135.2,13.489,13.489,0,0,0,1.366,0,5.093,5.093,0,0,1,.743,0,1.968,1.968,0,0,1,.545.12,1.031,1.031,0,0,1,.381.255,1.385,1.385,0,0,1,.256.419,1.151,1.151,0,0,1,.091.446.947.947,0,0,1-.1.425,1.209,1.209,0,0,1-.3.375,1.849,1.849,0,0,1-.512.3,2.228,2.228,0,0,1-.559.143,1.288,1.288,0,0,1-.564-.056,1.315,1.315,0,0,1-.515-.329,1.993,1.993,0,0,1-.417-.667l-1.905.764a3.249,3.249,0,0,0,.749,1.15,2.7,2.7,0,0,0,.987.608,3.065,3.065,0,0,0,1.122.16,4.831,4.831,0,0,0,1.155-.189l.492,1.2,1.048-.42-.495-1.2a4.269,4.269,0,0,0,.978-.674,2.861,2.861,0,0,0,.591-.761c.011-.022.023-.044.033-.067a2.291,2.291,0,0,0,.229-.944A2.514,2.514,0,0,0,1616.411,1568.94Z" transform="translate(-1608.363 -1562.063)" fill="#ffa412"/>
    </g>
    <g id="Group_21825" data-name="Group 21825" transform="translate(902.972 273.791)">
      <path id="Path_22122" data-name="Path 22122" d="M1491.524,1062.631a17.564,17.564,0,0,0-2.619,1.264c-1.182,1.294-.845,2.983-.169,3,.434.01.35.722.35.722l4.831-2.018S1493.336,1062.25,1491.524,1062.631Z" transform="translate(-1467.158 -1061.034)" fill="#2c3a64"/>
      <path id="Path_22123" data-name="Path 22123" d="M1443.938,1035a1.716,1.716,0,0,0-1.931-1.858,2.48,2.48,0,0,1,.967.512,2.512,2.512,0,0,0-2.8.417c-1.459,1.195-.552,4.191-1,4.76s-2.172.683-1.961,2.522,5.485,4.143,5.147,5.665c0,0,2.067-3,.589-4.369a2.7,2.7,0,0,1,.794,1.466s.2-1.555-.807-2.052a3.646,3.646,0,0,1-1.536-2.337C1441.479,1039.438,1443.938,1035,1443.938,1035Z" transform="translate(-1418.977 -1033.143)" fill="#2c3a64"/>
      <path id="Path_22124" data-name="Path 22124" d="M1462.723,1206.088a1.875,1.875,0,0,0-3.307-.761,1.66,1.66,0,0,0-.333.81c-.219,1.75,2.615,8.878,3.021,9.524a59.008,59.008,0,0,0,5.089,5.2l.8-.48s-3.086-5.158-3.564-5.641C1463.879,1214.184,1463.339,1209.015,1462.723,1206.088Z" transform="translate(-1439.672 -1195.487)" fill="#ed985f"/>
      <path id="Path_22125" data-name="Path 22125" d="M1604.2,1488.608s1.17-.759,1.614-.71,1.725.413,1.74.6-1.428.3-1.525.4-1.078.748-1.433.546S1604.2,1488.608,1604.2,1488.608Z" transform="translate(-1576.985 -1463.709)" fill="#ed985f"/>
      <path id="Path_22126" data-name="Path 22126" d="M1243.512,1359.8l-1.046-.152a12.17,12.17,0,0,1-4.039-7.9,9.064,9.064,0,0,1-.025-1.591.276.276,0,0,0-.037-.176h0c-.112-.17-.393-.6-.771-1.2s-1.013-1.728-1.717-3c-1.268-2.284-2.743-5.015-3.25-5.885-1.613-2.773-.835-4.637-.835-4.637s4.5-.439,5.732-1.5l.444.676s.975,4.261.929,4.281l.146.442a73.33,73.33,0,0,1,2.137,7.661,12.524,12.524,0,0,1,.338,3.31,5.714,5.714,0,0,0,.08,1.213C1242.032,1354.388,1243.512,1359.8,1243.512,1359.8Z" transform="translate(-1224.458 -1317.759)" fill="#2b478b"/>
      <path id="Path_22127" data-name="Path 22127" d="M1416.339,1805.447h-4.362a2.336,2.336,0,0,1,.123-1.154c.218-.478.529-.493.04-1.242a2.683,2.683,0,0,0,1.8.315,5.274,5.274,0,0,0,.756,1.137C1414.981,1804.7,1416.252,1804.632,1416.339,1805.447Z" transform="translate(-1395.092 -1762.102)" fill="#233862"/>
      <path id="Path_22128" data-name="Path 22128" d="M1239.043,1339.146c-.381,2.075-1.281,5.528-3.166,6.627-1.268-2.284-2.743-5.015-3.25-5.885-1.613-2.773-.835-4.637-.835-4.637s4.5-.439,5.732-1.5l.444.676s.975,4.261.929,4.281Z" transform="translate(-1224.458 -1317.759)" fill="#233862"/>
      <path id="Path_22129" data-name="Path 22129" d="M1476.318,1214.472a4.609,4.609,0,0,1,.9,1.392s-.984,2.789-3.283,3.139C1473.934,1219,1475.753,1214.471,1476.318,1214.472Z" transform="translate(-1453.734 -1204.828)" fill="#ed7d2b"/>
      <path id="Path_22130" data-name="Path 22130" d="M1120.609,1319.573l.015-.806c-1.625.2-5.6-1.917-5.6-1.917s-1.7,1.117-1.933,4.306c-.114,1.557-.833,8.139-.912,10.1-.029.712-.039,1.221-.042,1.424a0,0,0,0,1,0,0,.277.277,0,0,1-.069.166,9.181,9.181,0,0,0-.881,1.333c-2.48,4.556-1.183,10.747-1.183,10.747l.576-.144s2.1-6.418,3.468-9.194a5.8,5.8,0,0,1,.621-1.049,12.6,12.6,0,0,0,1.594-2.93,75.89,75.89,0,0,0,2.7-7.979C1119,1323.644,1120.609,1319.573,1120.609,1319.573Z" transform="translate(-1109.083 -1301.76)" fill="#2b478b"/>
      <path id="Path_22131" data-name="Path 22131" d="M1463.468,1156.911c-2.657-.6-.959-4.288-.806-4.224a4.151,4.151,0,0,0,1.9-1.959l.1.084,1.632,1.413s-.377.549-.694,1.088a2.438,2.438,0,0,0-.425.979C1465.3,1154.394,1464.177,1157.073,1463.468,1156.911Z" transform="translate(-1442.43 -1144.475)" fill="#ffb27d"/>
      <path id="Path_22132" data-name="Path 22132" d="M1512.712,1153.723s-.377.549-.694,1.087a2.476,2.476,0,0,1-.938-2.5Z" transform="translate(-1488.85 -1145.972)" fill="#ed985f"/>
      <path id="Path_22133" data-name="Path 22133" d="M1511.569,1103.156s-2.464-1.354-1.586-2.856,1.15-2.688,2.76-1.887,1.578,1.546,1.409,2.118S1512.232,1103.47,1511.569,1103.156Z" transform="translate(-1487.662 -1094.698)" fill="#ffb27d"/>
      <path id="Path_22134" data-name="Path 22134" d="M1510.019,1096.034c-.113-.667-.456-.731-.7-.687a1.984,1.984,0,0,0-2.4-.906,3.368,3.368,0,0,1-1.942,1.151s.286.525,1.464.85a2.036,2.036,0,0,0,1.162-.092,6.625,6.625,0,0,1-1.672.622,4.725,4.725,0,0,0,3.182-1.411,2.156,2.156,0,0,1,.122,1c-.1.451-.508,1.27-.26,1.375C1508.984,1097.943,1510.188,1097.034,1510.019,1096.034Z" transform="translate(-1483.113 -1091.076)" fill="#2c3a64"/>
      <path id="Path_22135" data-name="Path 22135" d="M1103.313,1804.893h-4.362a2.337,2.337,0,0,1,.123-1.154c.218-.478.56-.7.478-1.273a1.583,1.583,0,0,0,1.359.514,4.741,4.741,0,0,0,.757.969C1101.954,1804.15,1103.225,1804.078,1103.313,1804.893Z" transform="translate(-1098.927 -1761.548)" fill="#233862"/>
      <path id="Path_22136" data-name="Path 22136" d="M1224.554,1182.038a10.74,10.74,0,0,1-2.155.386,14.685,14.685,0,0,0-2.951.453.663.663,0,0,0-.425.34,8,8,0,0,1-1.454,2.03c-7.6-.341-8.429-3.478-8.429-3.478,5.11-5.867,13.762-7.565,13.762-7.565s.618-.259,2.174.962c1.039.816.9,1.128.9,1.128S1226.206,1181.47,1224.554,1182.038Z" transform="translate(-1203.204 -1166.679)" fill="#f99746"/>
      <path id="Path_22137" data-name="Path 22137" d="M1403.012,1220.57a14.736,14.736,0,0,0-2.952.452,11.831,11.831,0,0,1,1.534-6.553S1402.76,1219.154,1403.012,1220.57Z" transform="translate(-1383.816 -1204.825)" fill="#ed7d2b"/>
      <path id="Path_22138" data-name="Path 22138" d="M1422.439,1200.864s-2.874.281-3.1,2.125,2.756,9.356,3.184,10.036c.778,1.238,5.363,5.483,5.363,5.483l.845-.506s-3.252-5.436-3.755-5.945C1424.181,1211.258,1423.413,1201.5,1422.439,1200.864Z" transform="translate(-1402.063 -1191.943)" fill="#ffb27d"/>
      <path id="Path_22139" data-name="Path 22139" d="M1410.507,1196.231c.007.042,2.653.854,4.355,0,0,0,.364-3.878-1.668-3.667s-3.236.842-3.287,1.8A3.367,3.367,0,0,0,1410.507,1196.231Z" transform="translate(-1393.154 -1184.076)" fill="#f99746"/>
      <path id="Path_22140" data-name="Path 22140" d="M1573.374,1505.371s1.031-.935,1.476-.957,1.77.133,1.816.314-1.361.526-1.44.642-.942.91-1.325.766S1573.374,1505.371,1573.374,1505.371Z" transform="translate(-1547.818 -1479.346)" fill="#ffb27d"/>
    </g>
    <g id="Group_21826" data-name="Group 21826" transform="translate(971.932 268.832)">
      <path id="Path_22141" data-name="Path 22141" d="M2395.475,989.753h0a.671.671,0,0,1-.611-.419l-15.7-47.627a.314.314,0,0,1,.333-.425h0a.671.671,0,0,1,.611.419l15.7,47.627A.314.314,0,0,1,2395.475,989.753Z" transform="translate(-2379.143 -941.209)" fill="#233862"/>
      <path id="Path_22142" data-name="Path 22142" d="M2630.384,988.382h0a.67.67,0,0,1-.611-.419l-15.7-47.627a.314.314,0,0,1,.333-.425h0a.671.671,0,0,1,.611.419l15.7,47.627A.314.314,0,0,1,2630.384,988.382Z" transform="translate(-2601.399 -939.911)" fill="#233862"/>
      <path id="Path_22143" data-name="Path 22143" d="M2430.663,1058.489l-12.707.073a.636.636,0,0,1-.577-.4h0a.3.3,0,0,1,.314-.4l12.707-.073a.636.636,0,0,1,.577.4h0A.3.3,0,0,1,2430.663,1058.489Z" transform="translate(-2415.302 -1051.429)" fill="#233862"/>
      <path id="Path_22144" data-name="Path 22144" d="M2481.553,1214.837l-12.706.073a.634.634,0,0,1-.576-.4h0a.3.3,0,0,1,.313-.4l12.707-.073a.634.634,0,0,1,.576.4h0A.3.3,0,0,1,2481.553,1214.837Z" transform="translate(-2463.451 -1199.461)" fill="#233862"/>
      <path id="Path_22145" data-name="Path 22145" d="M2530.566,1365.419l-12.706.073a.636.636,0,0,1-.577-.4h0a.3.3,0,0,1,.314-.4l12.707-.073a.637.637,0,0,1,.577.4h0A.3.3,0,0,1,2530.566,1365.419Z" transform="translate(-2509.824 -1342.033)" fill="#233862"/>
      <path id="Path_22146" data-name="Path 22146" d="M2585.745,1534.941l-12.707.073a.636.636,0,0,1-.577-.4h0a.3.3,0,0,1,.314-.4l12.707-.073a.636.636,0,0,1,.577.4h0A.3.3,0,0,1,2585.745,1534.941Z" transform="translate(-2562.03 -1502.539)" fill="#233862"/>
      <path id="Path_22147" data-name="Path 22147" d="M2643.5,1712.375l-12.707.073a.635.635,0,0,1-.577-.4h0a.3.3,0,0,1,.314-.4l12.706-.073a.636.636,0,0,1,.577.4h0A.3.3,0,0,1,2643.5,1712.375Z" transform="translate(-2616.673 -1670.536)" fill="#233862"/>
    </g>
    <g id="Group_21829" data-name="Group 21829" transform="translate(969.55 245.64)">
      <path id="Path_22148" data-name="Path 22148" d="M2337.487,776.117c-.234-.163-.764-.522-.792-.442a.348.348,0,0,0,.072.257,2.322,2.322,0,0,0-1.417-.05.577.577,0,0,0-.378.246.249.249,0,0,0,.088.392c.393.241.279.1.825.448a1.625,1.625,0,0,0,1.615.194l.536-.088.067-.871S2337.8,776.168,2337.487,776.117Z" transform="translate(-2334.911 -761.207)" fill="#ffb27d"/>
      <path id="Path_22149" data-name="Path 22149" d="M2586.343,597.226a2.757,2.757,0,0,1-2.874.861,4.761,4.761,0,0,1-.351-1.437c0-.075,0-.148,0-.217-.009-.687-.032-1.072-.032-1.072h0c.073-.03,2.461-1,2.459-.918A4.15,4.15,0,0,0,2586.343,597.226Z" transform="translate(-2569.715 -589.621)" fill="#ffb27d"/>
      <path id="Path_22150" data-name="Path 22150" d="M2585.3,602.545a3.732,3.732,0,0,1-2.189,1.547c-.009-.687-.032-1.072-.032-1.072h0A15.532,15.532,0,0,1,2585.3,602.545Z" transform="translate(-2569.715 -597.279)" fill="#ed975d"/>
      <path id="Path_22151" data-name="Path 22151" d="M2566.462,532.652s2.685.623,3.052-1.034.962-2.693-.737-3.161-2.173.092-2.432.616S2565.772,532.447,2566.462,532.652Z" transform="translate(-2553.594 -526.983)" fill="#ffb27d"/>
      <path id="Path_22152" data-name="Path 22152" d="M2553.64,508.939c.037.023.614.2,1.709-1.954a1.853,1.853,0,0,0-.112-1.715c-.4-.646-1.82-1.154-3-1.375s-1.463.435-1.741,1.093a3.574,3.574,0,0,1-1.134,1.261c1.017.561,2.243-.242,2.667-.11s.575.793.606,1,.081.388.615.2.241.747.156.926C2553.406,508.269,2553.334,508.745,2553.64,508.939Z" transform="translate(-2537.811 -503.852)" fill="#233862"/>
      <g id="Group_21827" data-name="Group 21827" transform="translate(11.427 19.467)">
        <path id="Path_22153" data-name="Path 22153" d="M2681.646,1303.376h1.626c.34,0,.719-.337.814-.954s.8-.954.948-1.459-.625-1.217-.625-1.217l-.13-.164-.135-.172-1.288.3s-.032.3-.052.689a8.649,8.649,0,0,0-.005.883c.038.674-.191,1.4-.8,1.53S2681.646,1303.376,2681.646,1303.376Z" transform="translate(-2674.346 -1276.564)" fill="#2c3a64"/>
        <path id="Path_22154" data-name="Path 22154" d="M2547.042,1335.3h4.31a.372.372,0,0,0,.091-.026c.288-.142.2-1.23.163-1.566-.006-.062-.011-.1-.011-.1s-1.516-1.2-1.724-.28c-.007.029-.015.057-.023.084h0c-.263.858-1.439,1.247-2.118,1.355C2547.211,1334.849,2547.077,1335.148,2547.042,1335.3Z" transform="translate(-2547.042 -1308.348)" fill="#2c3a64"/>
        <path id="Path_22155" data-name="Path 22155" d="M2563.171,908.1s.23,2.836.5,6.244c.368,4.63.81,10.318.854,11.4.075,1.871.379,4.864.379,4.864a2.4,2.4,0,0,0,2.16.411,48.441,48.441,0,0,0,1.65-8.793c.006-.074.011-.149.017-.223.342-4.6.871-14.292.871-14.292Z" transform="translate(-2562.302 -905.699)" fill="#2b478b"/>
        <path id="Path_22156" data-name="Path 22156" d="M2563.171,908.1s.23,2.836.5,6.244l5.043,7.878c.006-.074.011-.149.017-.223.342-4.6.871-14.292.871-14.292Z" transform="translate(-2562.302 -905.699)" fill="#233862"/>
        <path id="Path_22157" data-name="Path 22157" d="M2589.8,871.665s2.33,9.487,4.109,14.727a30.457,30.457,0,0,1,1.854,7.778s2.016-.389,2.234-.777c0,0,.691-8.975-.68-11.541-.775-1.449-.644-4.808-.644-6.338a21.361,21.361,0,0,0-.9-5.65Z" transform="translate(-2587.493 -869.864)" fill="#2b478b"/>
      </g>
      <g id="Group_21828" data-name="Group 21828" transform="translate(15.551 7.769)">
        <path id="Path_22158" data-name="Path 22158" d="M2757.769,882.045l.043.66a1.415,1.415,0,0,0,.795,1.775s.53.211.551-.2-.046-.254,0-.827a1.313,1.313,0,0,0-.569-1.3l-.315-.359Z" transform="translate(-2750.511 -869.47)" fill="#ffb27d"/>
        <path id="Path_22159" data-name="Path 22159" d="M2631.353,662.979c-.459.146-.533.113-.533.113s-2.236-4.018-2.462-4.386-4.746-4.506-4.746-4.506l1.161-4.276s5.14,6.572,5.695,7.515a19.741,19.741,0,0,1,1.456,5.178A1.349,1.349,0,0,1,2631.353,662.979Z" transform="translate(-2623.613 -649.924)" fill="#1e3d70"/>
      </g>
      <path id="Path_22160" data-name="Path 22160" d="M2546.816,638.857c.016.878.068,1.865.138,2.868l.013.178c.044.621.093,1.244.148,1.851.022.243.046.484.071.72l0,.032c0,.089.013.185.022.272.227,2.274.465,4.07.509,4.1a.261.261,0,0,0,.177.044,26.656,26.656,0,0,0,3.882-.256,11.26,11.26,0,0,0,3.453-1.414c.151-.088.495-.321.466-.5-.027-.191-.078-.468-.143-.816a43.671,43.671,0,0,1-.742-5.725c-.025-.454-.063-.9-.112-1.342a20.141,20.141,0,0,0-.6-3.2c-.506-1.8-1.249-3.176-2.182-3.715-.122-.067-.777.345-1.379.726a2.685,2.685,0,0,1-1.71.4l-.5.547a5.5,5.5,0,0,0-1.429,2.942c-.013.1-.024.2-.034.311A18.975,18.975,0,0,0,2546.816,638.857Z" transform="translate(-2535.396 -625.133)" fill="#2a4e96"/>
      <path id="Path_22161" data-name="Path 22161" d="M2546.816,708.709c.016.878.068,1.865.138,2.868l.013.178a9.149,9.149,0,0,0,3.981-6.034,9.535,9.535,0,0,0-4.084,1.01A18.978,18.978,0,0,0,2546.816,708.709Z" transform="translate(-2535.396 -694.985)" fill="#1e3d70"/>
      <path id="Path_22162" data-name="Path 22162" d="M2385.03,669.084c-.035-.505.229-.589.229-.589s5.2-.931,5.644-1.068a54.935,54.935,0,0,0,4.224-4.021s1.449-1.614,2.636-1.258a2.311,2.311,0,0,1,.523,4.148,60.344,60.344,0,0,1-6.166,3.435c-1.863.539-6.867.043-6.867.043A1.583,1.583,0,0,1,2385.03,669.084Z" transform="translate(-2382.327 -653.68)" fill="#2a4e96"/>
    </g>
    <g id="Group_21830" data-name="Group 21830" transform="translate(959.391 264.223)">
      <path id="Path_22163" data-name="Path 22163" d="M2161.942,855.738a.482.482,0,0,1-.6.312,41.837,41.837,0,0,0-7.534-1.531,45.308,45.308,0,0,0-6.963-.285.475.475,0,1,1-.059-.948,46.543,46.543,0,0,1,7.213.3,43.1,43.1,0,0,1,7.63,1.56A.474.474,0,0,1,2161.942,855.738Z" transform="translate(-2146.332 -853.246)" fill="#2b478b"/>
    </g>
    <g id="Group_21833" data-name="Group 21833" transform="translate(1011.309 308.334)">
      <path id="Path_22164" data-name="Path 22164" d="M3127.831,1689.972a1.186,1.186,0,0,0-.157-.246h0a1.226,1.226,0,0,0-.152-.153l-.23-.23-.061.044c-1.178-.569-3.61.034-6.071,1.62-2.973,1.917-4.882,4.556-4.332,5.959l-.084.061.331.325c.016.017.032.032.049.048l.01.01,0,0a1.379,1.379,0,0,0,.286.2h0c1.162.6,3.621,0,6.108-1.6C3126.561,1694.055,3128.485,1691.353,3127.831,1689.972Z" transform="translate(-3116.379 -1688.827)" fill="#ffa412"/>
      <path id="Path_22165" data-name="Path 22165" d="M3114.588,1684.439c3.03-1.953,6.015-2.416,6.671-1.035s-1.269,4.084-4.3,6.037-6.016,2.416-6.671,1.035S3111.559,1686.392,3114.588,1684.439Z" transform="translate(-3110.161 -1682.609)" fill="#ffb93e"/>
      <g id="Group_21831" data-name="Group 21831" transform="translate(0.699 0.503)">
        <path id="Path_22166" data-name="Path 22166" d="M3124.688,1699.635a2.431,2.431,0,0,1-.666-.084,1.147,1.147,0,0,1-.779-.613c-.273-.588-.021-1.461.712-2.459a11.872,11.872,0,0,1,3.076-2.782h0c1.948-1.26,3.927-1.868,5.046-1.549a1.15,1.15,0,0,1,.779.613c.273.588.02,1.461-.713,2.458a11.868,11.868,0,0,1-3.076,2.783A8.972,8.972,0,0,1,3124.688,1699.635Zm6.729-7.35a8.858,8.858,0,0,0-4.265,1.6,11.658,11.658,0,0,0-3.018,2.728c-.674.917-.925,1.733-.69,2.238a.941.941,0,0,0,.639.494,2.2,2.2,0,0,0,.6.074,8.854,8.854,0,0,0,4.265-1.6,11.661,11.661,0,0,0,3.018-2.728c.673-.917.925-1.733.69-2.238a.944.944,0,0,0-.639-.495A2.214,2.214,0,0,0,3131.417,1692.285Z" transform="translate(-3123.135 -1692.064)" fill="#ffa412"/>
      </g>
      <g id="Group_21832" data-name="Group 21832" transform="translate(2.421 2.348)">
        <path id="Path_22167" data-name="Path 22167" d="M3157.075,1729.454a1.63,1.63,0,0,0,.25-.133,1.2,1.2,0,0,0,.2-.169,1.57,1.57,0,0,0,.175-.223,2.833,2.833,0,0,0,.166-.291q.148-.286.3-.535a3.238,3.238,0,0,1,.344-.461,2.779,2.779,0,0,1,.435-.39,2.968,2.968,0,0,1,.572-.319,2.134,2.134,0,0,1,.511-.159.9.9,0,0,1,.389.013.471.471,0,0,1,.253.173.59.59,0,0,1,.1.326l.714-.31-.038.38-.725.314a1.578,1.578,0,0,1-.2.441,2.348,2.348,0,0,1-.348.422,3.276,3.276,0,0,1-.484.382,4.065,4.065,0,0,1-.609.324l.067-.686a2.041,2.041,0,0,0,.611-.377.67.67,0,0,0,.229-.4.254.254,0,0,0-.027-.164.167.167,0,0,0-.111-.074.431.431,0,0,0-.178.007,1.273,1.273,0,0,0-.228.076,1.5,1.5,0,0,0-.226.121,1.1,1.1,0,0,0-.194.162,1.541,1.541,0,0,0-.175.224q-.085.128-.178.306c-.1.191-.2.37-.308.535a3.368,3.368,0,0,1-.347.461,2.826,2.826,0,0,1-.437.391,3.01,3.01,0,0,1-.568.318,2.138,2.138,0,0,1-.521.161.866.866,0,0,1-.386-.016.446.446,0,0,1-.245-.179.64.64,0,0,1-.1-.33l-.664.288.037-.377.662-.287a1.868,1.868,0,0,1,.167-.438,2.181,2.181,0,0,1,.321-.452,2.99,2.99,0,0,1,.5-.434,3.817,3.817,0,0,1,.7-.384l-.067.686a2.379,2.379,0,0,0-.4.216,1.479,1.479,0,0,0-.265.228.849.849,0,0,0-.15.226.666.666,0,0,0-.057.208.315.315,0,0,0,.024.177.183.183,0,0,0,.107.089.359.359,0,0,0,.174.007A.98.98,0,0,0,3157.075,1729.454Z" transform="translate(-3155.103 -1726.76)" fill="#ffa412"/>
      </g>
    </g>
    <g id="Group_21836" data-name="Group 21836" transform="translate(963.095 240.287)">
      <path id="Path_22168" data-name="Path 22168" d="M2215.172,407.876a.725.725,0,0,1,.1-.156h0a.748.748,0,0,1,.1-.1l.146-.146.039.028c.747-.361,2.291.022,3.852,1.028,1.887,1.216,3.1,2.891,2.749,3.781l.053.039-.209.207-.031.031-.006.006h0a.865.865,0,0,1-.182.125h0c-.738.382-2.3,0-3.876-1.016C2215.978,410.467,2214.757,408.752,2215.172,407.876Z" transform="translate(-2215.091 -407.15)" fill="#ffa412"/>
      <path id="Path_22169" data-name="Path 22169" d="M2223.572,404.365c-1.922-1.239-3.817-1.533-4.233-.657s.805,2.591,2.728,3.83,3.817,1.533,4.232.657S2225.494,405.6,2223.572,404.365Z" transform="translate(-2219.033 -403.204)" fill="#ffb93e"/>
      <g id="Group_21834" data-name="Group 21834" transform="translate(0.668 0.319)">
        <path id="Path_22170" data-name="Path 22170" d="M2229.962,412.971a7.537,7.537,0,0,1-1.952-1.766c-.465-.633-.625-1.187-.452-1.56a.732.732,0,0,1,.494-.389,4.675,4.675,0,0,1,3.2.983h0a7.529,7.529,0,0,1,1.952,1.766c.465.633.626,1.187.452,1.56a.732.732,0,0,1-.494.389,1.557,1.557,0,0,1-.423.053A5.693,5.693,0,0,1,2229.962,412.971Zm-1.871-3.581a.6.6,0,0,0-.405.314c-.149.321.011.838.438,1.42a7.39,7.39,0,0,0,1.915,1.731,5.619,5.619,0,0,0,2.706,1.013,1.388,1.388,0,0,0,.379-.047.6.6,0,0,0,.405-.314c.149-.321-.01-.838-.438-1.42a7.4,7.4,0,0,0-1.915-1.731,5.619,5.619,0,0,0-2.706-1.013A1.391,1.391,0,0,0,2228.092,409.39Z" transform="translate(-2227.49 -409.203)" fill="#ffa412"/>
      </g>
      <g id="Group_21835" data-name="Group 21835" transform="translate(1.761 1.49)">
        <path id="Path_22171" data-name="Path 22171" d="M2250.717,432.974a.23.23,0,0,0,.11,0,.116.116,0,0,0,.068-.057.2.2,0,0,0,.015-.112.43.43,0,0,0-.036-.132.552.552,0,0,0-.1-.143.944.944,0,0,0-.168-.144,1.5,1.5,0,0,0-.254-.137l-.043-.435a2.412,2.412,0,0,1,.441.244,1.936,1.936,0,0,1,.317.276,1.382,1.382,0,0,1,.2.287,1.183,1.183,0,0,1,.106.278l.419.182.024.24-.422-.183a.4.4,0,0,1-.061.21.28.28,0,0,1-.155.114.552.552,0,0,1-.245.01,1.35,1.35,0,0,1-.33-.1,1.894,1.894,0,0,1-.361-.2,1.784,1.784,0,0,1-.277-.248,2.1,2.1,0,0,1-.22-.292q-.1-.158-.2-.34c-.039-.075-.077-.14-.113-.194a1.01,1.01,0,0,0-.111-.142.707.707,0,0,0-.123-.1.976.976,0,0,0-.144-.077.786.786,0,0,0-.145-.048.271.271,0,0,0-.113,0,.106.106,0,0,0-.07.047.16.16,0,0,0-.017.1.426.426,0,0,0,.145.254,1.316,1.316,0,0,0,.388.24l.043.435a2.607,2.607,0,0,1-.386-.206,2.075,2.075,0,0,1-.307-.242,1.49,1.49,0,0,1-.221-.268,1.03,1.03,0,0,1-.127-.28l-.46-.2-.024-.241.453.2a.375.375,0,0,1,.064-.207.3.3,0,0,1,.161-.11.566.566,0,0,1,.247-.008,1.335,1.335,0,0,1,.324.1,1.889,1.889,0,0,1,.363.2,1.762,1.762,0,0,1,.276.247,2.124,2.124,0,0,1,.219.292c.065.105.128.218.19.339a1.8,1.8,0,0,0,.105.185.994.994,0,0,0,.111.141.745.745,0,0,0,.128.108,1.028,1.028,0,0,0,.158.085A.618.618,0,0,0,2250.717,432.974Z" transform="translate(-2247.774 -431.219)" fill="#ffa412"/>
      </g>
    </g>
    <path id="Rectangle_10015" data-name="Rectangle 10015" d="M.308,0H149a.308.308,0,0,1,.308.308v0A.308.308,0,0,1,149,.616H.308A.308.308,0,0,1,0,.308v0A.308.308,0,0,1,.308,0Z" transform="translate(891.815 317.069)" fill="#2e3552"/>
  </g>
</svg>
