<svg xmlns="http://www.w3.org/2000/svg" width="33.203" height="23.793" viewBox="0 0 33.203 23.793">
  <g id="Group_21599" data-name="Group 21599" transform="translate(-54.399 -367)">
    <g id="Group_14355" data-name="Group 14355" transform="translate(54.399 367)">
      <path id="airplane" d="M3.957,14.519a.581.581,0,0,0-.285.76l1.306,2.8a.579.579,0,0,0,.766.285l9.865-4.608L14.715,23.1a.58.58,0,0,0,.191.488,2.533,2.533,0,0,0,1.532.58,1.865,1.865,0,0,0,.458-.058,2.949,2.949,0,0,0,1.845-2.141l3.882-11.495,7.688-3.586c2.263-1.056,3.429-3.2,2.646-4.868A2.938,2.938,0,0,0,30.689.436a5.379,5.379,0,0,0-3.168.488l-8.872,4.16L9.109,1.353a2.944,2.944,0,0,0-2.82.041,2.366,2.366,0,0,0-.865,1.874.581.581,0,0,0,.249.459L12.1,8.142,8.419,9.883,2.25,8.316a.581.581,0,0,0-.644.279L.069,11.362a.58.58,0,0,0,.3.818l4.567,1.886ZM6.614,2.978a.993.993,0,0,1,.348-.627c.331-.238.934-.2,1.741.1l8.5,3.313-3.876,1.81ZM1.392,11.357,2.4,9.564l5.936,1.474A.581.581,0,0,0,8.721,11L28.014,1.991A4.241,4.241,0,0,1,30.492,1.6a1.817,1.817,0,0,1,1.416.917c.487,1.045-.47,2.571-2.089,3.325L23.134,8.972l.406-1.2A.59.59,0,1,0,22.42,7.4L17.645,21.61c-.284.807-.638,1.289-1.033,1.393a.982.982,0,0,1-.708-.133l1.161-12.186a.583.583,0,0,0-1.161-.11l-.18,1.863L5.767,17.078l-.818-1.741,1.636-.766a.58.58,0,0,0,0-1.062Zm0,0" transform="translate(0.001 -0.376)" fill="#44c8f5"/>
      <path id="airplane-2" data-name="airplane" d="M19.5,5.186,9.96,1.455A2.944,2.944,0,0,0,7.14,1.5a2.366,2.366,0,0,0-.865,1.874.581.581,0,0,0,.249.459l6.423,4.416S16.07,6.766,19.5,5.186ZM7.464,3.079a.993.993,0,0,1,.348-.627c.331-.238.934-.2,1.741.1l8.5,3.313-3.876,1.81Z" transform="translate(-0.849 -0.477)" fill="#039"/>
    </g>
  </g>
</svg>
