<svg xmlns="http://www.w3.org/2000/svg" width="24" height="24.501" viewBox="0 0 24 24.501">
  <g id="Group_22350" data-name="Group 22350" transform="translate(1361 -5602)">
    <rect id="Rectangle_9563" data-name="Rectangle 9563" width="24" height="24" transform="translate(-1361 5602)" fill="#fff"/>
    <g id="Group_22176" data-name="Group 22176" transform="translate(346 8203.018)">
      <g id="Group_22137" data-name="Group 22137" transform="translate(-1704 -2601.017)">
        <g id="Path_21091" data-name="Path 21091" transform="translate(0 8.283)" fill="#fff">
          <path d="M 11.50925445556641 13.79420280456543 L 1.685394883155823 13.79420280456543 C 1.03176486492157 13.79420280456543 0.5000048279762268 13.26244258880615 0.5000048279762268 12.60881233215332 L 0.5000048279762268 1.685392379760742 C 0.5000048279762268 1.031762361526489 1.03176486492157 0.500002384185791 1.685394883155823 0.500002384185791 L 11.50925445556641 0.500002384185791 C 12.16288471221924 0.500002384185791 12.69465446472168 1.031762361526489 12.69465446472168 1.685392379760742 L 12.69465446472168 12.60881233215332 C 12.69465446472168 13.26244258880615 12.16288471221924 13.79420280456543 11.50925445556641 13.79420280456543 Z" stroke="none"/>
          <path d="M 1.685395240783691 1.000001907348633 C 1.307464599609375 1.000001907348633 0.999995231628418 1.307462692260742 0.999995231628418 1.685392379760742 L 0.999995231628418 12.60881233215332 C 0.999995231628418 12.98674201965332 1.307464599609375 13.29420280456543 1.685395240783691 13.29420280456543 L 11.50925445556641 13.29420280456543 C 11.88718509674072 13.29420280456543 12.19464492797852 12.98674201965332 12.19464492797852 12.60881233215332 L 12.19464492797852 1.685392379760742 C 12.19464492797852 1.307462692260742 11.88718509674072 1.000001907348633 11.50925445556641 1.000001907348633 L 1.685395240783691 1.000001907348633 M 1.685395240783691 1.9073486328125e-06 L 11.50925445556641 1.9073486328125e-06 C 12.4400749206543 1.9073486328125e-06 13.19464492797852 0.7545719146728516 13.19464492797852 1.685392379760742 L 13.19464492797852 12.60881233215332 C 13.19464492797852 13.53963279724121 12.4400749206543 14.29420280456543 11.50925445556641 14.29420280456543 L 1.685395240783691 14.29420280456543 C 0.7545747756958008 14.29420280456543 -4.76837158203125e-06 13.53963279724121 -4.76837158203125e-06 12.60881233215332 L -4.76837158203125e-06 1.685392379760742 C -4.76837158203125e-06 0.7545719146728516 0.7545747756958008 1.9073486328125e-06 1.685395240783691 1.9073486328125e-06 Z" stroke="none" fill="#44c8f5"/>
        </g>
        <line id="Line_851" data-name="Line 851" y2="6.711" transform="translate(5.498 2.121)" fill="none" stroke="#44c8f5" stroke-width="1"/>
        <line id="Line_852" data-name="Line 852" y2="6.711" transform="translate(7.697 2.121)" fill="none" stroke="#44c8f5" stroke-width="1"/>
        <path id="Path_21089" data-name="Path 21089" d="M-1682.708-2596.378v1.164a.794.794,0,0,0,.885.675c.828,0,1.008-.326,1.071-.562a8.471,8.471,0,0,0,0-1.278" transform="translate(1685.228 2618.539)" fill="none" stroke="#44c8f5" stroke-width="1"/>
        <path id="Path_21090" data-name="Path 21090" d="M-1682.708-2596.378v1.164a.794.794,0,0,0,.885.675c.828,0,1.008-.326,1.071-.562a8.471,8.471,0,0,0,0-1.278" transform="translate(1691.612 2618.539)" fill="none" stroke="#44c8f5" stroke-width="1"/>
        <g id="Rectangle_9546" data-name="Rectangle 9546" transform="translate(2.199 10.482)" fill="#fff" stroke="#44c8f5" stroke-width="0.6">
          <rect width="2.199" height="9.896" rx="1" stroke="none"/>
          <rect x="0.3" y="0.3" width="1.599" height="9.296" rx="0.7" fill="none"/>
        </g>
        <g id="Rectangle_9547" data-name="Rectangle 9547" transform="translate(5.498 10.482)" fill="#fff" stroke="#44c8f5" stroke-width="0.6">
          <rect width="2.199" height="9.896" rx="1" stroke="none"/>
          <rect x="0.3" y="0.3" width="1.599" height="9.296" rx="0.7" fill="none"/>
        </g>
        <g id="Rectangle_9548" data-name="Rectangle 9548" transform="translate(8.796 10.482)" fill="#fff" stroke="#44c8f5" stroke-width="0.6">
          <rect width="2.199" height="9.896" rx="1" stroke="none"/>
          <rect x="0.3" y="0.3" width="1.599" height="9.296" rx="0.7" fill="none"/>
        </g>
        <g id="Rectangle_9549" data-name="Rectangle 9549" transform="translate(3.299 0)" fill="#fff" stroke="#44c8f5" stroke-linecap="round" stroke-width="0.7">
          <rect width="6.597" height="2.456" rx="1" stroke="none"/>
          <rect x="0.35" y="0.35" width="5.897" height="1.756" rx="0.65" fill="none"/>
        </g>
      </g>
      <g id="Group_22136" data-name="Group 22136" transform="translate(-1694.995 -2594.544)">
        <path id="Path_21080" data-name="Path 21080" d="M-1162.6-2701.394a7.45,7.45,0,0,0,4.133,8.039c-.076.152,4.664-1.176,4.1-8.039.076.038-1.972-1.024-1.972-2.161h-4.1a2.727,2.727,0,0,1-.682,1.251A5.137,5.137,0,0,1-1162.6-2701.394Z" transform="translate(1162.7 2703.555)" fill="#fff" stroke="#039" stroke-width="1"/>
        <path id="Path_21081" data-name="Path 21081" d="M-1158.224-2695.444l1.365,1.441,2.578-2.919" transform="translate(1160.527 2700.335)" fill="none" stroke="#039" stroke-linecap="round" stroke-width="1"/>
      </g>
    </g>
  </g>
</svg>
