<svg id="twitter_icon" data-name="twitter icon" xmlns="http://www.w3.org/2000/svg" width="38.037" height="38.037" viewBox="0 0 38.037 38.037">
  <path id="Path_18286" data-name="Path 18286" d="M135.08,573.249A19.019,19.019,0,1,1,154.1,592.268,19.018,19.018,0,0,1,135.08,573.249Z" transform="translate(-135.08 -554.231)" fill="#339dc3"/>
  <g id="Group_13119" data-name="Group 13119" transform="translate(7.28 9.478)">
    <path id="Path_18287" data-name="Path 18287" d="M165.837,565.968a9.619,9.619,0,0,1-2.767.758,4.834,4.834,0,0,0,2.119-2.664,9.623,9.623,0,0,1-3.059,1.168,4.821,4.821,0,0,0-8.208,4.394,13.674,13.674,0,0,1-9.928-5.033,4.822,4.822,0,0,0,1.491,6.431,4.792,4.792,0,0,1-2.182-.6v.061a4.819,4.819,0,0,0,3.864,4.722,4.788,4.788,0,0,1-1.269.17,4.845,4.845,0,0,1-.907-.086,4.822,4.822,0,0,0,4.5,3.344,9.733,9.733,0,0,1-7.131,1.995,13.7,13.7,0,0,0,21.088-11.541q0-.312-.014-.623a9.771,9.771,0,0,0,2.4-2.493Zm0,0" transform="translate(-142.36 -563.709)" fill="#f1f2f2"/>
  </g>
</svg>
