<svg id="Group_20749" data-name="Group 20749" xmlns="http://www.w3.org/2000/svg" width="67" height="8.92" viewBox="0 0 67 8.92">
  <g id="Group_19943" data-name="Group 19943">
    <path id="Path_16574" data-name="Path 16574" d="M660.2,1679.492a1.214,1.214,0,0,0-1.178-.853h-1.678l-.51-1.59a1.232,1.232,0,0,0-.45-.622,1.24,1.24,0,0,0-1.911.622l-.51,1.59h-1.678a1.238,1.238,0,0,0-.73,2.239l1.365,1-.519,1.609a1.236,1.236,0,0,0,1.914,1.379l1.337-.983,1.337.983a1.269,1.269,0,0,0,.728.242,1.239,1.239,0,0,0,1.184-.856,1.233,1.233,0,0,0,0-.764l-.519-1.609,1.367-1a1.221,1.221,0,0,0,.447-1.386Z" transform="translate(-636.602 -1676.19)" fill="#ee9c15"/>
    <path id="Path_16576" data-name="Path 16576" d="M660.2,1679.492a1.214,1.214,0,0,0-1.178-.853h-1.678l-.51-1.59a1.232,1.232,0,0,0-.45-.622,1.24,1.24,0,0,0-1.911.622l-.51,1.59h-1.678a1.238,1.238,0,0,0-.73,2.239l1.365,1-.519,1.609a1.236,1.236,0,0,0,1.914,1.379l1.337-.983,1.337.983a1.269,1.269,0,0,0,.728.242,1.239,1.239,0,0,0,1.184-.856,1.233,1.233,0,0,0,0-.764l-.519-1.609,1.367-1a1.221,1.221,0,0,0,.447-1.386Z" transform="translate(-607.709 -1676.19)" fill="#dedede"/>
    <path id="Path_16578" data-name="Path 16578" d="M660.2,1679.492a1.214,1.214,0,0,0-1.178-.853h-1.678l-.51-1.59a1.232,1.232,0,0,0-.45-.622,1.24,1.24,0,0,0-1.911.622l-.51,1.59h-1.678a1.238,1.238,0,0,0-.73,2.239l1.365,1-.519,1.609a1.236,1.236,0,0,0,1.914,1.379l1.337-.983,1.337.983a1.269,1.269,0,0,0,.728.242,1.239,1.239,0,0,0,1.184-.856,1.233,1.233,0,0,0,0-.764l-.519-1.609,1.367-1a1.221,1.221,0,0,0,.447-1.386Z" transform="translate(-593.262 -1676.19)" fill="#dedede"/>
    <path id="Path_16575" data-name="Path 16575" d="M660.2,1679.492a1.214,1.214,0,0,0-1.178-.853h-1.678l-.51-1.59a1.232,1.232,0,0,0-.45-.622,1.24,1.24,0,0,0-1.911.622l-.51,1.59h-1.678a1.238,1.238,0,0,0-.73,2.239l1.365,1-.519,1.609a1.236,1.236,0,0,0,1.914,1.379l1.337-.983,1.337.983a1.269,1.269,0,0,0,.728.242,1.239,1.239,0,0,0,1.184-.856,1.233,1.233,0,0,0,0-.764l-.519-1.609,1.367-1a1.221,1.221,0,0,0,.447-1.386Z" transform="translate(-651.048 -1676.19)" fill="#ee9c15"/>
    <path id="Path_16577" data-name="Path 16577" d="M660.2,1679.492a1.214,1.214,0,0,0-1.178-.853h-1.678l-.51-1.59a1.232,1.232,0,0,0-.45-.622,1.24,1.24,0,0,0-1.911.622l-.51,1.59h-1.678a1.238,1.238,0,0,0-.73,2.239l1.365,1-.519,1.609a1.236,1.236,0,0,0,1.914,1.379l1.337-.983,1.337.983a1.269,1.269,0,0,0,.728.242,1.239,1.239,0,0,0,1.184-.856,1.233,1.233,0,0,0,0-.764l-.519-1.609,1.367-1a1.221,1.221,0,0,0,.447-1.386Z" transform="translate(-622.155 -1676.19)" fill="#dedede"/>
  </g>
</svg>
