<svg xmlns="http://www.w3.org/2000/svg" width="17.949" height="23.793" viewBox="0 0 17.949 23.793">
  <g id="Group_21598" data-name="Group 21598" transform="translate(-62.026 -367)">
    <g id="Group_14357" data-name="Group 14357" transform="translate(62.026 367)">
      <path id="Path_986" data-name="Path 986" d="M202.244,328a2.021,2.021,0,0,1,2.244,1.745v2.792a2.315,2.315,0,0,1-4.487,0v-2.792A2.022,2.022,0,0,1,202.244,328Z" transform="translate(-193.269 -310.938)" fill="#fff"/>
      <path id="Path_990" data-name="Path 990" d="M340,88h3.365v.9H340Z" transform="translate(-325.417 -86.194)" fill="#394d5d"/>
      <path id="Path_991" data-name="Path 991" d="M80,88h3.32v.9H80Z" transform="translate(-80 -86.194)" fill="#394d5d"/>
      <path id="Path_996" data-name="Path 996" d="M147.667,81.795l-4.487.9h-2.692l-4.487-.9V80h11.667Z" transform="translate(-132.859 -78.643)" fill="#fff"/>
      <ellipse id="Ellipse_316" data-name="Ellipse 316" cx="2.788" cy="2.478" rx="2.788" ry="2.478" transform="translate(6.088 0.872)" fill="#fff"/>
      <path id="Path_1001" data-name="Path 1001" d="M71.634,5.961H69.346a3.114,3.114,0,0,0-4.4,0H62.66c-.441,0-.441-.02-.9,0h-.449a.424.424,0,0,0-.449.449v.449H58.173v.9h2.692V8.2a.437.437,0,0,0,.359.449l2.962.583a3.458,3.458,0,0,0,.763,1.212h-.987a3.552,3.552,0,0,0-3.545,3.545v9.423a1.848,1.848,0,0,0,1.84,1.84h2.2v.9a2.692,2.692,0,1,0,5.385,0v-.9h2.2a1.848,1.848,0,0,0,1.84-1.84V13.993a3.552,3.552,0,0,0-3.545-3.545h-.987a2.918,2.918,0,0,0,.763-1.212l2.962-.583a.437.437,0,0,0,.359-.449V7.756h2.692v-.9H73.429V6.409a.424.424,0,0,0-.449-.449h-.449C72.13,5.972,72.043,5.953,71.634,5.961ZM61.763,7.845V6.858H64.32A3.478,3.478,0,0,0,64.006,8.2v.09Zm2.244,14.269V20.768a3.141,3.141,0,0,1,6.282,0v1.346Zm3.141,5.833a1.8,1.8,0,0,1-1.795-1.795V23.012h3.59v3.141A1.8,1.8,0,0,1,67.147,27.948Zm3.186-16.6a2.652,2.652,0,0,1,2.647,2.647v9.423a.948.948,0,0,1-.942.942h-2.2V23.012h.9a.424.424,0,0,0,.449-.449V20.768a4.038,4.038,0,1,0-8.077,0v1.795a.424.424,0,0,0,.449.449h.9v1.346h-2.2a.948.948,0,0,1-.942-.942V13.993a2.652,2.652,0,0,1,2.647-2.647Zm-3.186-.9A2.244,2.244,0,1,1,69.391,8.2a2.222,2.222,0,0,1-2.244,2.244Zm5.385-2.6-2.244.449V8.2a2.828,2.828,0,0,0-.314-1.346h2.558Z" transform="translate(-58.173 -5.052)" fill="#44c8f5"/>
      <path id="Path_15341" data-name="Path 15341" d="M67.038,29.287V27.941a3.141,3.141,0,1,1,6.282,0v1.346Zm1.346.9h3.59C70.043,30.248,70.654,30.176,68.384,30.185Zm4.487,0h.9a.424.424,0,0,0,.449-.449V27.941a4.038,4.038,0,0,0-8.077,0v1.795a.424.424,0,0,0,.449.449h6.282Z" transform="translate(-61.205 -12.225)" fill="#039"/>
    </g>
  </g>
</svg>
