<svg id="tYellowCoin" xmlns="http://www.w3.org/2000/svg" xmlns:xlink="http://www.w3.org/1999/xlink" width="73" height="73" viewBox="0 0 73 73">
  <defs>
    <clipPath id="clip-path">
      <circle id="Ellipse_1332" data-name="Ellipse 1332" cx="36.5" cy="36.5" r="36.5" transform="translate(-1281 -537)" fill="#fbd210" stroke="#e6b400" stroke-linejoin="round" stroke-width="1"/>
    </clipPath>
  </defs>
  <g id="Multicolor" transform="translate(0 0)">
    <g id="Path_22951" data-name="Path 22951" transform="translate(-27 -27)" fill="#fbd210" stroke-linejoin="round">
      <path d="M 63.49998092651367 99.49999237060547 C 43.64952087402344 99.49999237060547 27.5 83.35044860839844 27.5 63.49998092651367 C 27.5 43.64952087402344 43.64952087402344 27.5 63.49998092651367 27.5 C 83.35044860839844 27.5 99.49999237060547 43.64952087402344 99.49999237060547 63.49998092651367 C 99.49999237060547 83.35044860839844 83.35044860839844 99.49999237060547 63.49998092651367 99.49999237060547 Z" stroke="none"/>
      <path d="M 63.49998092651367 98.99999237060547 C 83.07475280761719 98.99999237060547 98.99999237060547 83.07475280761719 98.99999237060547 63.49998092651367 C 98.99999237060547 43.92522048950195 83.07475280761719 28 63.49998092651367 28 C 43.92522048950195 28 28 43.92522048950195 28 63.49998092651367 C 28 83.07475280761719 43.92522048950195 98.99999237060547 63.49998092651367 98.99999237060547 M 63.49998092651367 99.99999237060547 C 43.37414932250977 99.99999237060547 27 83.62583160400391 27 63.49998092651367 C 27 43.37414932250977 43.37414932250977 27 63.49998092651367 27 C 83.62583160400391 27 99.99999237060547 43.37414932250977 99.99999237060547 63.49998092651367 C 99.99999237060547 83.62583160400391 83.62583160400391 99.99999237060547 63.49998092651367 99.99999237060547 Z" stroke="none" fill="#e6b400"/>
    </g>
    <g id="Mask_Group_22470" data-name="Mask Group 22470" transform="translate(1281 537)" clip-path="url(#clip-path)">
      <path id="Path_23135" data-name="Path 23135" d="M-20,0h5V73h-5Z" transform="translate(-1261 -537)" fill="#fbe158" opacity="0" style="mix-blend-mode: soft-light;isolation: isolate"/>
    </g>
  </g>
  <path id="Union_54" data-name="Union 54" d="M5.641,25.871a44.3,44.3,0,0,1,4.834-1.079L10.428,8.026,3.273,8.007l-.838,6.5H.85Q.7,13.739.541,12.55t-.27-2.457Q.154,8.827.078,7.579T0,5.448H24.572q0,.921-.077,2.15T24.3,10.093q-.117,1.267-.27,2.437t-.31,1.977H22.139l-.787-6.539-7.36.07-.016,16.83,2.98.534,1.977.469v1.3L5.662,27.26ZM.112,2.526V0H24.683V2.526Z" transform="translate(24 22.869)" fill="#8e6134" stroke="rgba(0,0,0,0)" stroke-miterlimit="10" stroke-width="1"/>
</svg>
