<svg id="Group_23466" data-name="Group 23466" xmlns="http://www.w3.org/2000/svg" xmlns:xlink="http://www.w3.org/1999/xlink" width="69.278" height="24.026" viewBox="0 0 69.278 24.026">
  <defs>
    <clipPath id="clip-path">
      <rect id="Rectangle_10533" data-name="Rectangle 10533" width="69.278" height="24.026" transform="translate(0 0)" fill="#2b2b2b"/>
    </clipPath>
  </defs>
  <g id="Group_23432" data-name="Group 23432" transform="translate(0 0)" clip-path="url(#clip-path)">
    <path id="Path_23238" data-name="Path 23238" d="M3.513,0c.01.148.028.3.028.443q0,6.9,0,13.793a8.141,8.141,0,0,0,.4,2.787,5.386,5.386,0,0,0,4.54,3.754,5.789,5.789,0,0,0,2.973-.313,5.676,5.676,0,0,0,3.484-4.043,8.2,8.2,0,0,0,.228-2.068q0-7.176,0-14.352h3.512c.008.136.022.272.022.408q0,11.373,0,22.747v.429h-3.5c-.028-.689.005-1.379-.022-2.125-.134.123-.224.2-.312.288a8.238,8.238,0,0,1-4.28,2.125,9.3,9.3,0,0,1-4.643-.328,8.225,8.225,0,0,1-4.9-4.21A9.379,9.379,0,0,1,.008,15.028Q-.01,7.514,0,0Z" transform="translate(0 0)" fill="#2b2b2b"/>
    <path id="Path_23239" data-name="Path 23239" d="M78.051,0c0,.721.008,1.441.009,2.162q0,2.983,0,5.966v.451a8.749,8.749,0,0,1,9.591-1.856,8.768,8.768,0,0,1,3.984,3.2A8.923,8.923,0,0,1,90.463,21.5a8.794,8.794,0,0,1-6.209,2.51,8.585,8.585,0,0,1-6.205-2.531v2.049a21.182,21.182,0,0,1-3.373.041c0-.134-.015-.277-.015-.421q0-6.712,0-13.423,0-4.642,0-9.285c0-.148.017-.3.026-.444Zm-.058,15.031a5.931,5.931,0,1,0,11.861.043,5.931,5.931,0,1,0-11.861-.043" transform="translate(-53.239 0)" fill="#2b2b2b"/>
    <path id="Path_23240" data-name="Path 23240" d="M219.936,25.042a15.83,15.83,0,0,0-2.013.035,3.551,3.551,0,0,0-3,2.562,6.061,6.061,0,0,0-.26,2.022q0,4.51,0,9.02v.432a24.747,24.747,0,0,1-3.385.023V22.04a26.1,26.1,0,0,1,3.336-.034v2.074c.187-.237.315-.411.455-.576a4.467,4.467,0,0,1,3.338-1.653c.51-.022,1.021-.011,1.531-.015Z" transform="translate(-150.659 -15.57)" fill="#2b2b2b"/>
    <path id="Path_23241" data-name="Path 23241" d="M147.161,31.225a5.812,5.812,0,0,0,3.9,4.591,5.887,5.887,0,0,0,3.778,0,6.061,6.061,0,0,0,3.018-2.232l2.453,1.818a8.5,8.5,0,0,1-1.518,1.613,9.552,9.552,0,0,1-11.629.182,8.573,8.573,0,0,1-3.274-5.422,8.871,8.871,0,0,1,1.742-7.2,8.215,8.215,0,0,1,5.28-3.239,8.49,8.49,0,0,1,7.847,2.38,8.4,8.4,0,0,1,2.176,4.051,13.466,13.466,0,0,1,.265,3.453c-.538.007-1.056,0-1.573,0h-12.46m10.561-2.712a5.265,5.265,0,0,0-5.35-4.365,5.326,5.326,0,0,0-5.08,4.365Z" transform="translate(-102.491 -15.104)" fill="#2b2b2b"/>
  </g>
</svg>
