<svg id="surface1" xmlns="http://www.w3.org/2000/svg" width="17.353" height="19.074" viewBox="0 0 17.353 19.074">
    <defs>
        <style>
            .cls-1{fill:#039}
        </style>
    </defs>
    <path id="Path_1088" data-name="Path 1088" class="cls-1" d="M13 8.257v-3.61a.418.418 0 0 0-.115-.274L8.837.123A.4.4 0 0 0 8.547 0H2.131A2.138 2.138 0 0 0 0 2.151v12.133a2.124 2.124 0 0 0 2.131 2.135H7.2A5.467 5.467 0 1 0 13 8.257zM8.945 1.4l2.715 2.854H9.9a.96.96 0 0 1-.955-.954zM2.131 15.623A1.332 1.332 0 0 1 .8 14.284V2.151A1.343 1.343 0 0 1 2.131.8H8.15v2.5A1.753 1.753 0 0 0 9.9 5.049h2.3v3.1c-.119 0-.215-.016-.318-.016a5.547 5.547 0 0 0-3.621 1.372H3.212a.4.4 0 1 0 0 .795h4.309a6.325 6.325 0 0 0-.7 1.232H3.212a.4.4 0 0 0 0 .8h3.351a5.456 5.456 0 0 0 .238 3.3h-4.67zm9.752 2.66a4.671 4.671 0 1 1 4.671-4.671 4.676 4.676 0 0 1-4.671 4.671zm0 0"/>
    <path id="Path_1089" data-name="Path 1089" class="cls-1" d="M75.948 202.479h4.027a.4.4 0 1 0 0-.8h-4.027a.4.4 0 1 0 0 .8zm0 0" transform="translate(-72.736 -194.171)"/>
    <path id="Path_1090" data-name="Path 1090" class="cls-1" d="M248.576 283.338a.395.395 0 0 0-.58 0l-2.33 2.5a.4.4 0 0 0 .02.561.406.406 0 0 0 .568-.02l1.646-1.761v4.341a.4.4 0 1 0 .8 0v-4.341l1.634 1.761a.4.4 0 0 0 .58-.541zm0 0" transform="translate(-236.412 -272.66)"/>
</svg>
