<svg xmlns="http://www.w3.org/2000/svg" xmlns:xlink="http://www.w3.org/1999/xlink" width="107.704" height="42.518" viewBox="0 0 107.704 42.518">
  <defs>
    <clipPath id="clip-path">
      <rect id="Rectangle_10553" data-name="Rectangle 10553" width="107.704" height="42.517" transform="translate(0 -4)" fill="#c44b36"/>
    </clipPath>
  </defs>
  <g id="Group_23469" data-name="Group 23469" transform="translate(0 4)" clip-path="url(#clip-path)">
    <path id="Path_23334" data-name="Path 23334" d="M182.865,0h29.793V21.589h-2.527V2.472H185.4c-.1.409-.1,16.217.008,16.65,5.766.027,11.548.009,17.357.009v2.444h-19.9Z" transform="translate(-144.077 -4)" fill="#c44b36"/>
    <path id="Path_23335" data-name="Path 23335" d="M.026,127.581c.162-.007.279-.017.4-.018.6,0,1.195,0,1.847,0v.513q0,2.81,0,5.62a4.864,4.864,0,0,0,.272,1.631,2.472,2.472,0,0,0,2.4,1.759,4.067,4.067,0,0,0,.9-.048,2.6,2.6,0,0,0,2.114-2.38,8.732,8.732,0,0,0,.1-1.251c.01-1.769,0-3.537,0-5.306v-.511h2.192c.008.153.02.284.02.415,0,1.8.012,3.6,0,5.4a7.55,7.55,0,0,1-.411,2.6A4.395,4.395,0,0,1,6.1,138.944a6.186,6.186,0,0,1-3.06-.272,4.373,4.373,0,0,1-2.9-3.59,9.359,9.359,0,0,1-.13-1.609C-.006,131.644,0,129.815,0,127.987c0-.118.013-.237.022-.406" transform="translate(0 -100.505)" fill="#c44b36"/>
    <path id="Path_23336" data-name="Path 23336" d="M396.567,131.887v-4.2h2.1v11.1a4.8,4.8,0,0,1-.926.032c-.313.007-.626,0-.992,0-.021-.408-.041-.784-.063-1.228a1.932,1.932,0,0,0-.194.15,3.682,3.682,0,0,1-6.391-1.547,4.723,4.723,0,0,1,.393-3.694,3.679,3.679,0,0,1,5.858-.808c.039.042.083.079.212.2m-4.552,2.9a2.818,2.818,0,0,0,.324,1.48,2.138,2.138,0,0,0,2.045,1.208,2.093,2.093,0,0,0,1.976-1.312,3.2,3.2,0,0,0,0-2.7,2.1,2.1,0,0,0-2.01-1.333,2.143,2.143,0,0,0-2.071,1.313,2.8,2.8,0,0,0-.269,1.34" transform="translate(-307.196 -100.6)" fill="#c44b36"/>
    <path id="Path_23337" data-name="Path 23337" d="M90.764,137.479l-.127,1.212c-.158.009-.29.023-.421.024-.462,0-.925,0-1.376,0-.09-.37-.123-10.322-.04-11.145.33,0,.668-.007,1.006-.009s.656,0,1.008,0a6.077,6.077,0,0,1,.054,1.354c.013.464,0,.929,0,1.394v1.421a2.429,2.429,0,0,0,.233-.173,3.678,3.678,0,0,1,6.151,1.462,4.73,4.73,0,0,1-.289,3.957,3.663,3.663,0,0,1-6,.724c-.047-.055-.1-.106-.2-.221m4.665-2.747a3.644,3.644,0,0,0-.362-1.487,2.131,2.131,0,0,0-1.911-1.208,2.061,2.061,0,0,0-1.976,1.091,3.056,3.056,0,0,0,.056,3.239,2.217,2.217,0,0,0,3.825-.144,3.537,3.537,0,0,0,.367-1.491" transform="translate(-69.927 -100.503)" fill="#c44b36"/>
    <path id="Path_23338" data-name="Path 23338" d="M349.159,138.818h-1.907l-.07-1.164c-.2.018-.267.19-.372.295a3.669,3.669,0,0,1-5.049.171,3.93,3.93,0,0,1-1.252-2.329,4.862,4.862,0,0,1,.491-3.306,3.69,3.69,0,0,1,5.806-.847c.061.062.126.12.255.244.037-.528.015-.982.019-1.435s0-.9,0-1.348V127.69h2.078Zm-2.031-4.023a2.829,2.829,0,0,0-.3-1.423,2.124,2.124,0,0,0-1.9-1.232,2.075,2.075,0,0,0-2.024,1.089,3.1,3.1,0,0,0-.016,3.131,2.074,2.074,0,0,0,2.005,1.121,2.123,2.123,0,0,0,1.934-1.242,2.87,2.87,0,0,0,.3-1.444" transform="translate(-268.212 -100.605)" fill="#c44b36"/>
    <path id="Path_23339" data-name="Path 23339" d="M142.849,142.733c.017-.371.034-.742.052-1.14h1.9V149.5a6.023,6.023,0,0,1-1.9.021l-.057-1.162a1.773,1.773,0,0,0-.213.166,3.657,3.657,0,0,1-6.257-1.218,4.694,4.694,0,0,1,.275-4.036,3.647,3.647,0,0,1,5.94-.694,1.555,1.555,0,0,1,.136.228l.125-.075m-4.714,2.861a8.9,8.9,0,0,0,.149.927,2.235,2.235,0,0,0,1.968,1.717,2.154,2.154,0,0,0,2.24-1.25,3.175,3.175,0,0,0-.085-2.942,2.065,2.065,0,0,0-1.909-1.141,2.139,2.139,0,0,0-1.964,1.131,3.191,3.191,0,0,0-.4,1.558" transform="translate(-107.188 -111.373)" fill="#c44b36"/>
    <path id="Path_23340" data-name="Path 23340" d="M297.685,142.822l.1-1.239h1.86v7.975c-.615.041-1.22.015-1.853.016l-.106-1.166-.119-.061a.9.9,0,0,1-.1.2,3.662,3.662,0,0,1-6.3-1.448,4.735,4.735,0,0,1,.3-3.746,3.651,3.651,0,0,1,6.013-.756c.045.054.1.1.207.225m-4.7,2.75a8.639,8.639,0,0,0,.25,1.17,2.18,2.18,0,0,0,2.117,1.51,2.226,2.226,0,0,0,2.13-1.566,3.36,3.36,0,0,0,.018-2.158,2.247,2.247,0,0,0-4.339.059c-.08.285-.106.586-.175.986" transform="translate(-229.209 -111.366)" fill="#c44b36"/>
    <path id="Path_23341" data-name="Path 23341" d="M187.508,141.431h1.908c.045.456.088.9.138,1.4.1-.12.162-.194.219-.275a3.5,3.5,0,0,1,3.94-1.2,2.522,2.522,0,0,1,1.642,2.034,4.948,4.948,0,0,1,.114,1.024c.013,1.559.007,3.118.007,4.677,0,.087-.01.174-.016.287h-2.095c-.007-.159-.019-.3-.019-.451,0-1.289.005-2.578-.005-3.867a4.981,4.981,0,0,0-.095-1.024,1.255,1.255,0,0,0-1.393-1.123,2.237,2.237,0,0,0-2.176,1.624,2.323,2.323,0,0,0-.058.577c0,1.274,0,2.548,0,3.822v.47h-2.109Z" transform="translate(-147.735 -111.22)" fill="#c44b36"/>
    <path id="Path_23342" data-name="Path 23342" d="M446.927,147.259v1.525a5.175,5.175,0,0,1-.609.365,5.661,5.661,0,0,1-3.813.371,3.852,3.852,0,0,1-2.921-3.236,4.465,4.465,0,0,1,.262-2.639,4.019,4.019,0,0,1,4.2-2.417,3.518,3.518,0,0,1,2.3,1.09,2.759,2.759,0,0,1,.723,2.445c-.04.219-.069.44-.11.7H441.62a2.28,2.28,0,0,0,.27,1.455,2.313,2.313,0,0,0,1.86,1.174,4.335,4.335,0,0,0,2.879-.642c.087-.053.172-.109.3-.19m-1.821-2.919a1.353,1.353,0,0,0-.831-1.648,2.315,2.315,0,0,0-1.06-.1,1.746,1.746,0,0,0-1.483,1.747Z" transform="translate(-346.271 -111.248)" fill="#c44b36"/>
    <path id="Path_23343" data-name="Path 23343" d="M253.12,138.786V127.679H255.3c.005,1.046,0,2.075,0,3.1q0,1.574,0,3.148v3.145h4.983v1.711Z" transform="translate(-199.43 -100.597)" fill="#c44b36"/>
    <path id="Path_23344" data-name="Path 23344" d="M63.966,141.412v2.037c-.119-.015-.214-.029-.31-.04a2.842,2.842,0,0,0-1.286.115,1.794,1.794,0,0,0-1.3,1.8c-.007,1.243,0,2.487,0,3.73v.517h-2.1v-7.954c.617-.007,1.237-.005,1.91,0l.136,1.415a3.528,3.528,0,0,1,2.95-1.617" transform="translate(-46.461 -111.417)" fill="#c44b36"/>
    <path id="Path_23345" data-name="Path 23345" d="M486.252,149.558h-2.108v-7.936h1.906l.134,1.411a3.507,3.507,0,0,1,2.962-1.639c.015.695.011,1.36,0,2.056a3.228,3.228,0,0,0-1.446.008,1.807,1.807,0,0,0-1.447,1.857c-.007,1.259,0,2.518,0,3.777v.465" transform="translate(-381.451 -111.403)" fill="#c44b36"/>
  </g>
</svg>
