<svg id="user" xmlns="http://www.w3.org/2000/svg" width="21.379" height="21.379" viewBox="0 0 21.379 21.379">
  <g id="Group_11827" data-name="Group 11827">
    <g id="Group_11826" data-name="Group 11826">
      <path id="Path_15978" data-name="Path 15978" d="M10.689,0A10.689,10.689,0,1,0,21.379,10.689,10.7,10.7,0,0,0,10.689,0Zm0,20.449a9.76,9.76,0,1,1,9.76-9.76A9.771,9.771,0,0,1,10.689,20.449Z" fill="#44c8f5"/>
    </g>
  </g>
  <g id="Group_11829" data-name="Group 11829" transform="translate(4.647 10.225)">
    <g id="Group_11828" data-name="Group 11828">
      <path id="Path_15979" data-name="Path 15979" d="M112.708,234.667a6.049,6.049,0,0,0-6.042,6.042.465.465,0,1,0,.93,0,5.112,5.112,0,0,1,10.225,0,.465.465,0,1,0,.93,0A6.049,6.049,0,0,0,112.708,234.667Z" transform="translate(-106.666 -234.667)" fill="#039"/>
    </g>
  </g>
  <g id="Group_11831" data-name="Group 11831" transform="translate(7.436 2.789)">
    <g id="Group_11830" data-name="Group 11830">
      <path id="Path_15980" data-name="Path 15980" d="M173.919,64a3.253,3.253,0,1,0,3.253,3.253A3.257,3.257,0,0,0,173.919,64Zm0,5.577a2.324,2.324,0,1,1,2.324-2.324A2.327,2.327,0,0,1,173.919,69.577Z" transform="translate(-170.666 -64)" fill="#039"/>
    </g>
  </g>
</svg>
