<svg xmlns="http://www.w3.org/2000/svg" width="21.742" height="21.466" viewBox="0 0 21.742 21.466">
  <g id="Group_21580" data-name="Group 21580" transform="translate(-169.048 -184.209)">
    <g id="Group_11795" data-name="Group 11795" transform="translate(169.048 184.209)">
      <path id="Path_954" data-name="Path 954" d="M18.019,10.135a3.707,3.707,0,0,0-2.419.9l-1.58-1.316a3.723,3.723,0,1,0-5.679.747l-2.6,2.312a3.735,3.735,0,1,0,.512.4l2.6-2.312a3.717,3.717,0,0,0,4.781-.636l1.517,1.264a3.722,3.722,0,1,0,2.868-1.351ZM6.808,15.9a3.085,3.085,0,1,1-3.085-3.085A3.088,3.088,0,0,1,6.808,15.9Zm4.063-5.085a3.085,3.085,0,1,1,3.085-3.085A3.088,3.088,0,0,1,10.871,10.816Zm7.148,6.127a3.083,3.083,0,0,1-2.272-5.168.316.316,0,0,0,.189-.189,3.084,3.084,0,1,1,2.084,5.357Z" transform="translate(0 -4.008)" fill="#44c8f5"/>
      <path id="Path_956" data-name="Path 956" d="M91.214,396.775H88.491a.319.319,0,0,0-.319.319v4.085a.319.319,0,0,0,.319.319h2.723a.319.319,0,0,0,.319-.319v-4.085A.319.319,0,0,0,91.214,396.775ZM90.9,400.86H88.81v-3.446H90.9Z" transform="translate(-84.428 -380.096)" fill="#44c8f5"/>
      <path id="Path_957" data-name="Path 957" d="M403.825,396.775H401.1a.319.319,0,0,0-.319.319v4.085a.319.319,0,0,0,.319.319h2.723a.319.319,0,0,0,.319-.319v-4.085A.319.319,0,0,0,403.825,396.775Zm-.319,4.085h-2.085v-3.446h2.085Z" transform="translate(-383.764 -380.032)" fill="#44c8f5"/>
      <path id="Path_958" data-name="Path 958" d="M195.417,300.587h-2.723a.319.319,0,0,0-.319.319v8.169a.319.319,0,0,0,.319.319h2.723a.319.319,0,0,0,.319-.319v-1.893a.319.319,0,0,0-.638,0v1.574h-2.085v-7.531H195.1v6.312a.319.319,0,0,0,.638,0v-6.631A.319.319,0,0,0,195.417,300.587Z" transform="translate(-184.205 -287.993)" fill="#44c8f5"/>
      <path id="Path_959" data-name="Path 959" d="M299.621,348.681H296.9a.319.319,0,0,0-.319.319v6.127a.319.319,0,0,0,.319.319h2.723a.319.319,0,0,0,.319-.319V349A.319.319,0,0,0,299.621,348.681Zm-.319,6.127h-2.085v-5.489H299.3Z" transform="translate(-283.985 -334.044)" fill="#44c8f5"/>
      <path id="Path_15271" data-name="Path 15271" d="M60.837,225.107v-.35a.319.319,0,1,0-.638,0v.365a1.093,1.093,0,0,0,.208,2.167h.221a.455.455,0,0,1,0,.911H60.3a.345.345,0,0,1-.345-.345.319.319,0,1,0-.638,0,.984.984,0,0,0,.885.978v.35a.319.319,0,1,0,.638,0v-.365a1.093,1.093,0,0,0-.208-2.167h-.221a.455.455,0,1,1,0-.911h.332a.345.345,0,0,1,.345.345v.221a.319.319,0,1,0,.638,0v-.221A.984.984,0,0,0,60.837,225.107Z" transform="translate(-56.795 -215.077)" fill="#039"/>
      <path id="Path_15270" data-name="Path 15270" d="M229.166,32.731v-.35a.319.319,0,0,0-.638,0v.365a1.093,1.093,0,0,0,.208,2.167h.221a.455.455,0,0,1,0,.911h-.332a.345.345,0,0,1-.345-.345.319.319,0,1,0-.638,0,.984.984,0,0,0,.885.978v.35a.319.319,0,1,0,.638,0v-.365a1.093,1.093,0,0,0-.208-2.167h-.221a.455.455,0,1,1,0-.911h.332a.345.345,0,0,1,.345.345v.221a.319.319,0,1,0,.638,0v-.221A.984.984,0,0,0,229.166,32.731Z" transform="translate(-217.976 -30.871)" fill="#039"/>
      <path id="Path_15269" data-name="Path 15269" d="M397.493,177.013v-.35a.319.319,0,1,0-.638,0v.365a1.093,1.093,0,0,0,.208,2.167h.221a.455.455,0,0,1,0,.911h-.332a.345.345,0,0,1-.345-.345.319.319,0,1,0-.638,0,.984.984,0,0,0,.885.978v.35a.319.319,0,0,0,.638,0v-.365a1.093,1.093,0,0,0-.209-2.167h-.221a.455.455,0,1,1,0-.911h.332a.345.345,0,0,1,.345.345v.221a.319.319,0,0,0,.638,0v-.221A.984.984,0,0,0,397.493,177.013Z" transform="translate(-379.155 -169.026)" fill="#039"/>
    </g>
  </g>
</svg>
