<svg xmlns="http://www.w3.org/2000/svg" width="25.976" height="25.976" viewBox="0 0 25.976 25.976">
  <g id="Group_28668" data-name="Group 28668" transform="translate(-37.397 -619.678)">
    <path id="Path_954" data-name="Path 954" d="M21.528,11.376a4.412,4.412,0,0,0-2.89,1.076l-1.887-1.583a4.446,4.446,0,1,0-6.785.9L6.858,14.547a4.4,4.4,0,0,0-2.41-.716A4.477,4.477,0,1,0,8.9,18.308,4.478,4.478,0,0,0,7.47,15.027l3.108-2.781a4.419,4.419,0,0,0,5.712-.765L18.1,13a4.44,4.44,0,1,0,3.426-1.625ZM8.133,18.308A3.686,3.686,0,1,1,4.448,14.6,3.7,3.7,0,0,1,8.133,18.308Zm4.855-6.114a3.709,3.709,0,1,1,3.685-3.709A3.7,3.7,0,0,1,12.988,12.194Zm8.54,7.368a3.712,3.712,0,0,1-2.715-6.215.379.379,0,0,0,.161-.114.385.385,0,0,0,.065-.113,3.658,3.658,0,0,1,2.489-.977,3.709,3.709,0,0,1,0,7.419Z" transform="translate(37.397 615.67)" fill="#44c8f5"/>
    <path id="Path_956" data-name="Path 956" d="M91.915,396.775H88.565a.393.393,0,0,0-.393.393v5.026a.393.393,0,0,0,.393.393h3.351a.393.393,0,0,0,.393-.393v-5.026A.393.393,0,0,0,91.915,396.775Zm-.393,5.026H88.957V397.56h2.565Z" transform="translate(-46.326 242.989)" fill="#44c8f5"/>
    <path id="Path_957" data-name="Path 957" d="M404.526,396.775h-3.351a.393.393,0,0,0-.393.393v5.026a.393.393,0,0,0,.393.393h3.351a.393.393,0,0,0,.393-.393v-5.026A.393.393,0,0,0,404.526,396.775Zm-.393,5.026h-2.565V397.56h2.565Z" transform="translate(-343.221 243.068)" fill="#44c8f5"/>
    <path id="Path_958" data-name="Path 958" d="M196.118,300.587h-3.351a.393.393,0,0,0-.393.393v10.052a.393.393,0,0,0,.393.393h3.351a.393.393,0,0,0,.393-.393V308.7a.393.393,0,0,0-.785,0v1.937H193.16v-9.266h2.565v7.766a.393.393,0,0,0,.785,0V300.98A.393.393,0,0,0,196.118,300.587Z" transform="translate(-145.271 334.151)" fill="#44c8f5"/>
    <path id="Path_959" data-name="Path 959" d="M300.322,348.681h-3.351a.393.393,0,0,0-.393.393v7.539a.393.393,0,0,0,.393.393h3.351a.393.393,0,0,0,.393-.393v-7.539A.393.393,0,0,0,300.322,348.681Zm-.393,7.539h-2.565v-6.754h2.565Z" transform="translate(-244.218 288.57)" fill="#44c8f5"/>
    <path id="Path_15271" data-name="Path 15271" d="M61.188,225.261v-.43a.393.393,0,1,0-.785,0v.449a1.345,1.345,0,0,0,.257,2.666h.272a.56.56,0,1,1,0,1.12h-.408a.425.425,0,0,1-.424-.424.393.393,0,1,0-.785,0,1.211,1.211,0,0,0,1.089,1.2v.43a.393.393,0,1,0,.785,0v-.449a1.345,1.345,0,0,0-.256-2.666H60.66a.56.56,0,0,1,0-1.12h.408a.425.425,0,0,1,.424.424v.272a.393.393,0,1,0,.785,0v-.272A1.211,1.211,0,0,0,61.188,225.261Z" transform="translate(-18.817 406.509)" fill="#039"/>
    <path id="Path_15270" data-name="Path 15270" d="M229.517,32.885v-.43a.393.393,0,1,0-.785,0V32.9a1.345,1.345,0,0,0,.257,2.666h.272a.56.56,0,0,1,0,1.12h-.408a.425.425,0,0,1-.424-.424.393.393,0,1,0-.785,0,1.211,1.211,0,0,0,1.089,1.2v.43a.393.393,0,1,0,.785,0V37.45a1.345,1.345,0,0,0-.257-2.666h-.272a.56.56,0,1,1,0-1.12h.408a.425.425,0,0,1,.424.424v.272a.393.393,0,1,0,.785,0v-.272A1.211,1.211,0,0,0,229.517,32.885Z" transform="translate(-178.739 589.082)" fill="#039"/>
    <path id="Path_15269" data-name="Path 15269" d="M397.844,177.167v-.43a.393.393,0,1,0-.785,0v.449a1.345,1.345,0,0,0,.256,2.666h.272a.56.56,0,1,1,0,1.12h-.408a.425.425,0,0,1-.424-.424.393.393,0,1,0-.785,0,1.211,1.211,0,0,0,1.089,1.2v.43a.393.393,0,0,0,.785,0v-.449a1.345,1.345,0,0,0-.257-2.666h-.272a.56.56,0,1,1,0-1.12h.408a.425.425,0,0,1,.424.424v.272a.393.393,0,0,0,.785,0v-.272A1.211,1.211,0,0,0,397.844,177.167Z" transform="translate(-338.66 452.144)" fill="#039"/>
  </g>
</svg>
