<svg xmlns="http://www.w3.org/2000/svg" width="21.369" height="24.837" viewBox="0 0 21.369 24.837">
  <g id="Group_21602" data-name="Group 21602" transform="translate(-60.316 -365.956)">
    <g id="Group_20952" data-name="Group 20952" transform="translate(44.316 124.956)">
      <g id="Group_14371" data-name="Group 14371" transform="translate(16 248.513)">
        <g id="Group_11373" data-name="Group 11373" transform="translate(0 0)">
          <ellipse id="Ellipse_534" data-name="Ellipse 534" cx="1.49" cy="1.49" rx="1.49" ry="1.49" transform="translate(2.388 8.35)" fill="#fff"/>
          <ellipse id="Ellipse_535" data-name="Ellipse 535" cx="1.49" cy="1.49" rx="1.49" ry="1.49" transform="translate(16.08 8.35)" fill="#fff"/>
          <g id="Group_11368" data-name="Group 11368">
            <g id="Group_525" data-name="Group 525">
              <path id="Path_1002" data-name="Path 1002" d="M19.549,49.039l-2.437-5.552a1.332,1.332,0,0,0-1.227-.788H5.484a1.337,1.337,0,0,0-1.227.788L1.82,49.039A3.033,3.033,0,0,0,0,51.8v3.464a1.322,1.322,0,0,0,1.336,1.3h.447v2.165a1.322,1.322,0,0,0,1.336,1.3H4.9a1.322,1.322,0,0,0,1.336-1.3V56.561h8.9v2.165a1.322,1.322,0,0,0,1.336,1.3h1.782a1.322,1.322,0,0,0,1.336-1.3V56.561h.442a1.322,1.322,0,0,0,1.336-1.3V51.8A3.033,3.033,0,0,0,19.549,49.039ZM5.075,43.829a.448.448,0,0,1,.409-.264h10.4a.444.444,0,0,1,.409.26l2.17,4.942c-.071,0-.142-.008-.209-.008H3.118c-.071,0-.142,0-.209.008Zm.267,14.9a.441.441,0,0,1-.447.435H3.118a.441.441,0,0,1-.447-.435V56.561H5.342Zm12.909.435H16.469a.441.441,0,0,1-.447-.435V56.561h2.671v2.165h0A.441.441,0,0,1,18.251,59.16ZM20.033,55.7H1.336a.441.441,0,0,1-.447-.435V51.8a2.2,2.2,0,0,1,2.225-2.165H18.251A2.2,2.2,0,0,1,20.476,51.8v3.464h0A.441.441,0,0,1,20.033,55.7Z" transform="translate(0 -42.7)" fill="#44c8f5"/>
            </g>
          </g>
          <g id="Group_11369" data-name="Group 11369" transform="translate(1.734 7.797)">
            <g id="Group_527" data-name="Group 527" transform="translate(0 0)">
              <path id="Path_1003" data-name="Path 1003" d="M44.865,234.7a2.165,2.165,0,1,0,2.165,2.165A2.166,2.166,0,0,0,44.865,234.7Zm0,3.464a1.3,1.3,0,1,1,1.3-1.3A1.3,1.3,0,0,1,44.865,238.164Z" transform="translate(-42.7 -234.7)" fill="#039"/>
            </g>
          </g>
          <g id="Group_11370" data-name="Group 11370" transform="translate(15.306 7.797)">
            <g id="Group_529" data-name="Group 529" transform="translate(0 0)">
              <path id="Path_1004" data-name="Path 1004" d="M364.865,234.7a2.165,2.165,0,1,0,2.165,2.165A2.166,2.166,0,0,0,364.865,234.7Zm0,3.464a1.3,1.3,0,1,1,1.3-1.3A1.3,1.3,0,0,1,364.865,238.164Z" transform="translate(-362.7 -234.7)" fill="#039"/>
            </g>
          </g>
          <g id="Group_11371" data-name="Group 11371" transform="translate(7.216 10.397)">
            <g id="Group_531" data-name="Group 531" transform="translate(0)">
              <path id="Path_1005" data-name="Path 1005" d="M177.1,298.7h-6.067a.435.435,0,1,0,0,.869H177.1a.435.435,0,0,0,0-.869Z" transform="translate(-170.6 -298.7)" fill="#039"/>
            </g>
          </g>
          <g id="Group_11372" data-name="Group 11372" transform="translate(7.216 8.662)">
            <g id="Group_533" data-name="Group 533" transform="translate(0)">
              <path id="Path_1006" data-name="Path 1006" d="M177.1,256h-6.067a.435.435,0,0,0,0,.869H177.1a.435.435,0,0,0,0-.869Z" transform="translate(-170.6 -256)" fill="#039"/>
            </g>
          </g>
        </g>
      </g>
      <g id="Ellipse_1258" data-name="Ellipse 1258" transform="translate(21 241.044)" fill="#fff" stroke="#fff" stroke-width="1">
        <circle cx="6" cy="6" r="6" stroke="none"/>
        <circle cx="6" cy="6" r="5.5" fill="none"/>
      </g>
      <g id="Ellipse_1259" data-name="Ellipse 1259" transform="translate(21.451 241)" fill="none" stroke="#44c8f5" stroke-width="0.8">
        <circle cx="5.726" cy="5.726" r="5.726" stroke="none"/>
        <circle cx="5.726" cy="5.726" r="5.326" fill="none"/>
      </g>
      <path id="loan" d="M23.822,27.973a.326.326,0,1,0,0,.652h.652a.975.975,0,0,1,.921.662H23.822a.326.326,0,1,0,0,.652h1.566a.976.976,0,0,1-.914.642h-.652a.326.326,0,0,0-.326.326.015.015,0,0,0,0,.005.322.322,0,0,0,.094.236L25.548,33.1a.326.326,0,0,0,.461-.461l-1.421-1.421a1.628,1.628,0,0,0,1.481-1.282h.362a.326.326,0,0,0,0-.652h-.358a1.617,1.617,0,0,0-.3-.662h.66a.326.326,0,1,0,0-.652H23.822Z" transform="translate(1.953 216.487)" fill="#039" stroke="#039" stroke-width="0.25"/>
    </g>
  </g>
</svg>
