<svg xmlns="http://www.w3.org/2000/svg" width="35.705" height="38.43" viewBox="0 0 35.705 38.43">
    <defs>
        <style>
            .cls-1{fill:#6ec6f0}.cls-2{fill:#039}
        </style>
    </defs>
    <g id="Group_14310" data-name="Group 14310" transform="translate(-349.191 -296.906)">
        <g id="Group_11889" data-name="Group 11889">
            <g id="Subtraction_3" data-name="Subtraction 3">
                <path id="Path_18760" data-name="Path 18760" class="cls-1" d="M360.716 313.322c-6.134 0-11.122-2.195-11.122-4.894a2.678 2.678 0 0 1 .758-1.78 8.846 8.846 0 0 0 4.021 2.241 23.488 23.488 0 0 0 12.688 0 8.839 8.839 0 0 0 4.019-2.241 2.671 2.671 0 0 1 .758 1.78c0 2.699-4.988 4.894-11.122 4.894z"/>
                <path id="Path_18761" data-name="Path 18761" class="cls-2" d="M360.716 313.723c-6.461 0-11.523-2.326-11.523-5.294a3.091 3.091 0 0 1 .871-2.059.4.4 0 0 1 .566-.009 8.483 8.483 0 0 0 3.841 2.141 21.144 21.144 0 0 0 6.241.86 21.417 21.417 0 0 0 6.237-.856 8.488 8.488 0 0 0 3.852-2.144.4.4 0 0 1 .565.007 3.062 3.062 0 0 1 .871 2.047c.001 2.984-5.06 5.307-11.521 5.307zm-10.325-6.494a2.285 2.285 0 0 0-.4 1.213c0 2.422 4.911 4.48 10.723 4.48s10.721-2.058 10.721-4.493a2.253 2.253 0 0 0-.4-1.2 9.247 9.247 0 0 1-3.884 2.048 22.692 22.692 0 0 1-6.446.886 23.19 23.19 0 0 1-6.45-.89 9.236 9.236 0 0 1-3.864-2.044z"/>
            </g>
            <g id="Subtraction_4" data-name="Subtraction 4">
                <path id="Path_18762" data-name="Path 18762" class="cls-1" d="M360.718 319.551c-6.136 0-11.126-2.2-11.126-4.894a2.669 2.669 0 0 1 .76-1.779 8.852 8.852 0 0 0 4.02 2.241 22.044 22.044 0 0 0 6.346.871 23.518 23.518 0 0 0 4.608-.437 13.816 13.816 0 0 0-3.316 3.965c-.431.022-.865.033-1.292.033z"/>
                <path id="Path_18763" data-name="Path 18763" class="cls-2" d="M360.718 319.952c-6.463 0-11.527-2.326-11.527-5.295a3.073 3.073 0 0 1 .874-2.058.4.4 0 0 1 .566-.008 8.453 8.453 0 0 0 3.839 2.14 21.186 21.186 0 0 0 6.244.859h.087a23.3 23.3 0 0 0 4.449-.43.4.4 0 0 1 .329.7 13.354 13.354 0 0 0-3.22 3.85.4.4 0 0 1-.33.2c-.436.029-.878.042-1.311.042zm-10.328-6.493a2.266 2.266 0 0 0-.4 1.211c0 2.568 5.547 4.718 11.78 4.459a14.08 14.08 0 0 1 2.275-2.958 27.07 27.07 0 0 1-3.33.22 23.529 23.529 0 0 1-6.455-.888 9.246 9.246 0 0 1-3.87-2.044z"/>
            </g>
            <g id="Path_16585" data-name="Path 16585">
                <path id="Path_18764" data-name="Path 18764" class="cls-1" d="M360.717 297.306c6.142 0 11.122 2.191 11.122 4.894s-4.98 4.893-11.122 4.893-11.117-2.187-11.117-4.893 4.974-4.894 11.117-4.894z"/>
                <path id="Path_18765" data-name="Path 18765" class="cls-2" d="M360.717 307.494c-6.461 0-11.523-2.325-11.523-5.294s5.062-5.294 11.523-5.294 11.522 2.325 11.522 5.294-5.061 5.294-11.522 5.294zm0-9.787c-5.812 0-10.722 2.058-10.722 4.493s4.91 4.493 10.722 4.493 10.721-2.057 10.721-4.493-4.91-4.493-10.721-4.493z"/>
            </g>
            <g id="Group_11887" data-name="Group 11887">
                <g id="Ellipse_601" data-name="Ellipse 601">
                    <circle id="Ellipse_1128" data-name="Ellipse 1128" class="cls-1" cx="10.5" cy="10.5" r="10.5" transform="translate(363.496 313.935)"/>
                    <path id="Path_18766" data-name="Path 18766" class="cls-2" d="M374 335.336a10.9 10.9 0 1 1 10.9-10.9 10.912 10.912 0 0 1-10.9 10.9zm0-21a10.1 10.1 0 1 0 10.1 10.1 10.111 10.111 0 0 0-10.1-10.1z"/>
                </g>
                <g id="Path_16581" data-name="Path 16581">
                    <path id="Path_18767" data-name="Path 18767" d="M370.974 319.34a.609.609 0 0 1-.49-.179.616.616 0 0 1-.158-.415.587.587 0 0 1 .158-.407.632.632 0 0 1 .49-.178h6.144a.587.587 0 0 1 .648.6.586.586 0 0 1-.158.4.627.627 0 0 1-.49.174h-.9c-.387 0-.714-.005-.98-.017-.161 0-.322-.014-.482-.033v.066a2.112 2.112 0 0 1 .681.5 2.2 2.2 0 0 1 .5.88h1.181a.587.587 0 0 1 .648.6.585.585 0 0 1-.158.407.627.627 0 0 1-.49.174h-1.1a3.022 3.022 0 0 1-1.22 2.188 3.561 3.561 0 0 1-1.046.531 5.23 5.23 0 0 1-1.121.232l3.753 3.6a.826.826 0 0 1 .266.6.754.754 0 0 1-.2.531.71.71 0 0 1-.548.216 1.1 1.1 0 0 1-.356-.047.934.934 0 0 1-.357-.241l-4.415-4.318a1.1 1.1 0 0 1-.265-.341.816.816 0 0 1-.083-.357.726.726 0 0 1 .2-.523.686.686 0 0 1 .515-.208h.215a5.645 5.645 0 0 0 1.021-.091 2.94 2.94 0 0 0 .913-.316 2.292 2.292 0 0 0 .689-.573 1.808 1.808 0 0 0 .365-.88h-3.37a.587.587 0 0 1-.648-.6.587.587 0 0 1 .158-.407.63.63 0 0 1 .49-.174h3.288q-.432-1.4-2.541-1.4z" style="fill:#fff"/>
                </g>
            </g>
        </g>
    </g>
</svg>
