<svg xmlns="http://www.w3.org/2000/svg" width="34.271" height="37.629" viewBox="0 0 34.271 37.629">
    <g data-name="Group 11886">
        <g data-name="Union 1">
            <path data-name="Path 18768" d="M346.084 330.656h-33.2v-3.2h3v-4h2v-13.8h-2v-3h-1.532a1.6 1.6 0 0 1-.859-2.95l15.132-9.63a1.6 1.6 0 0 1 1.718 0l15.132 9.63a1.6 1.6 0 0 1-.86 2.95h-1.531v3h-2v13.8h2v4h3zm-15-21v13.8h6.8v-13.8h-6.8zm-10 0v13.8h6.8v-13.8h-6.8z" style="fill:#6ec6f0" transform="translate(-312.348 -293.427)"/>
            <path data-name="Path 18769" d="M345.684 330.256v-2.4h-2.2a.8.8 0 0 1-.8-.8v-3.2h-1.2a.8.8 0 0 1-.8-.8v-13a.8.8 0 0 1 .8-.8h1.2v-2.2a.8.8 0 0 1 .8-.8h1.131a1.2 1.2 0 0 0 .645-2.212l-15.132-9.63a1.2 1.2 0 0 0-1.289 0l-15.132 9.63a1.2 1.2 0 0 0 .645 2.212h1.132a.8.8 0 0 1 .8.8v2.2h1.2a.8.8 0 0 1 .8.8v13a.8.8 0 0 1-.8.8h-1.2v3.2a.8.8 0 0 1-.8.8h-2.2v2.4h32.4m-14.2-21h6a.8.8 0 0 1 .8.8v13a.8.8 0 0 1-.8.8h-6a.8.8 0 0 1-.8-.8v-13a.8.8 0 0 1 .8-.8m-10 0h6a.8.8 0 0 1 .8.8v13a.8.8 0 0 1-.8.8h-6a.8.8 0 0 1-.8-.8v-13a.8.8 0 0 1 .8-.8m25 21.8h-34v-4h3v-4h2v-13h-2v-3h-1.132a2 2 0 0 1-1.074-3.687l15.132-9.63a2 2 0 0 1 2.147 0l15.133 9.63a2 2 0 0 1-1.075 3.687h-1.131v3h-2v13h2v4h3zm-15-21v13h6v-13zm-10 0v13h6v-13z" style="fill:#039" transform="translate(-312.348 -293.427)"/>
        </g>
        <path data-name="Subtraction 1" d="M329.484 306.057a4.047 4.047 0 1 1 2.927-1.27 4.713 4.713 0 0 1-.1.1 3.969 3.969 0 0 1-2.827 1.17zm-1.135-4.2a.269.269 0 0 0-.2.081.286.286 0 0 0-.078.2.345.345 0 0 0 .032.139.447.447 0 0 0 .1.132l1.718 1.68a.373.373 0 0 0 .139.094.441.441 0 0 0 .139.023.274.274 0 0 0 .213-.084.3.3 0 0 0 .077-.207.322.322 0 0 0-.1-.233l-1.46-1.4a1.955 1.955 0 0 0 .436-.091 1.385 1.385 0 0 0 .407-.207 1.173 1.173 0 0 0 .475-.853h.427a.242.242 0 0 0 .19-.068.235.235 0 0 0-.16-.392h-.488a.853.853 0 0 0-.194-.342.808.808 0 0 0-.265-.194v-.023a1.682 1.682 0 0 0 .187.013c.1 0 .231.007.381.007h.349a.242.242 0 0 0 .19-.068.235.235 0 0 0-.16-.392h-2.42a.252.252 0 0 0-.19.068.237.237 0 0 0-.061.158.23.23 0 0 0 .222.235H328.576c.544 0 .877.183.988.543h-1.28a.252.252 0 0 0-.19.068.237.237 0 0 0-.061.158.229.229 0 0 0 .222.235h1.34a.7.7 0 0 1-.142.342.9.9 0 0 1-.268.223 1.134 1.134 0 0 1-.355.123 2.23 2.23 0 0 1-.4.036z" style="fill:#fff" transform="translate(-312.348 -293.427)"/>
    </g>
</svg>
