<svg xmlns="http://www.w3.org/2000/svg" width="79.254" height="18.1" viewBox="0 0 79.254 18.1">
    <defs>
        <style>
            .cls-1{opacity:.6}.cls-2{fill:#039}.cls-3{opacity:.3}
        </style>
    </defs>
    <g id="Group_14310" data-name="Group 14310" transform="translate(-291.461 -347.56)">
        <g id="Group_11821" data-name="Group 11821" class="cls-1">
            <g id="Line_9" data-name="Line 9">
                <path id="Path_18770" data-name="Path 18770" class="cls-2" d="M351.665 358.61a1.992 1.992 0 0 1-1.414-.586l-7.051-7.05a2 2 0 0 1 2.828-2.828l7.051 7.05a2 2 0 0 1-1.414 3.414z"/>
            </g>
            <g id="Line_10" data-name="Line 10">
                <path id="Path_18771" data-name="Path 18771" class="cls-2" d="M344.614 365.66a2 2 0 0 1-1.414-3.414l7.051-7.05a2 2 0 0 1 2.828 2.828l-7.051 7.05a1.99 1.99 0 0 1-1.414.586z"/>
            </g>
        </g>
        <g id="Group_11890" data-name="Group 11890" class="cls-3">
            <g id="Line_9-2" data-name="Line 9-2">
                <path id="Path_18772" data-name="Path 18772" class="cls-2" d="M368.715 358.61a1.99 1.99 0 0 1-1.414-.586l-7.051-7.05a2 2 0 0 1 2.828-2.828l7.051 7.05a2 2 0 0 1-1.414 3.414z"/>
            </g>
            <g id="Line_10-2" data-name="Line 10-2">
                <path id="Path_18773" data-name="Path 18773" class="cls-2" d="M361.664 365.66a2 2 0 0 1-1.414-3.414l7.051-7.05a2 2 0 0 1 2.828 2.828l-7.051 7.05a1.992 1.992 0 0 1-1.414.586z"/>
            </g>
        </g>
        <g id="Group_11891" data-name="Group 11891">
            <g id="Line_9-3" data-name="Line 9-3">
                <path id="Path_18774" data-name="Path 18774" class="cls-2" d="M334.614 358.61a1.994 1.994 0 0 1-1.414-.586l-7.052-7.05a2 2 0 0 1 2.829-2.828l7.051 7.05a2 2 0 0 1-1.414 3.414z"/>
            </g>
            <g id="Line_10-3" data-name="Line 10-3">
                <path id="Path_18775" data-name="Path 18775" class="cls-2" d="M327.562 365.66a2 2 0 0 1-1.414-3.414l7.052-7.05a2 2 0 0 1 2.828 2.828l-7.051 7.05a1.994 1.994 0 0 1-1.415.586z"/>
            </g>
        </g>
        <g id="Group_11892" data-name="Group 11892" class="cls-1">
            <g id="Line_9-4" data-name="Line 9-4">
                <path id="Path_18776" data-name="Path 18776" class="cls-2" d="M317.562 358.61a1.994 1.994 0 0 1-1.414-.586l-7.05-7.05a2 2 0 0 1 2.828-2.828l7.051 7.05a2 2 0 0 1-1.415 3.414z"/>
            </g>
            <g id="Line_10-4" data-name="Line 10-4">
                <path id="Path_18777" data-name="Path 18777" class="cls-2" d="M310.512 365.66a2 2 0 0 1-1.414-3.414l7.05-7.05a2 2 0 0 1 2.829 2.828l-7.051 7.05a1.994 1.994 0 0 1-1.414.586z"/>
            </g>
        </g>
        <g id="Group_11893" data-name="Group 11893" class="cls-3">
            <g id="Line_9-5" data-name="Line 9-5">
                <path id="Path_18778" data-name="Path 18778" class="cls-2" d="M300.512 358.61a1.99 1.99 0 0 1-1.414-.586l-7.051-7.05a2 2 0 0 1 2.828-2.828l7.051 7.05a2 2 0 0 1-1.414 3.414z"/>
            </g>
            <g id="Line_10-5" data-name="Line 10-5">
                <path id="Path_18779" data-name="Path 18779" class="cls-2" d="M293.461 365.66a2 2 0 0 1-1.414-3.414l7.051-7.05a2 2 0 0 1 2.828 2.828l-7.051 7.05a1.992 1.992 0 0 1-1.414.586z"/>
            </g>
        </g>
    </g>
</svg>
