<svg xmlns="http://www.w3.org/2000/svg" width="42.5" height="42.5" viewBox="0 0 42.5 42.5">
  <g id="vouchers_icon" data-name="vouchers icon" transform="translate(10082 -16880)">
    <g id="Group_24051" data-name="Group 24051" transform="translate(-10207.214 16725.785)">
      <path id="Path_23945" data-name="Path 23945" d="M21.25,0A21.25,21.25,0,1,1,0,21.25,21.25,21.25,0,0,1,21.25,0Z" transform="translate(125.214 154.215)" fill="#f6f7fb"/>
    </g>
    <g id="Group_24052" data-name="Group 24052">
      <path id="Path_23946" data-name="Path 23946" d="M-10905.592,16585.424h20.238v2.746l-2.635,1.258v2.484l.982,1.145,1.652.939v2.02l-.583.563h-19.655l-.575-1.916,1.313-1.053,1.507-1.289v-2.338l-1-1.437-1.822-.895v-1.8Z" transform="translate(835 314)" fill="#aceaff"/>
      <g id="Outline" transform="translate(-10073.629 16887.152)">
        <path id="Path_23947" data-name="Path 23947" d="M22.366,41.224a.366.366,0,0,0,.366-.366V39.027a.366.366,0,1,0-.732,0v1.831A.366.366,0,0,0,22.366,41.224Zm0-3.661a.366.366,0,0,0,.366-.366V35.366a.366.366,0,0,0-.732,0V37.2A.366.366,0,0,0,22.366,37.563Z" transform="translate(-12.677 -20.292)" fill="#0d3399" stroke="#0d3399" stroke-width="0.2"/>
        <path id="Path_23948" data-name="Path 23948" d="M3.465,23.861H22.5A1.465,1.465,0,0,0,23.968,22.4V20.566A.366.366,0,0,0,23.6,20.2a2.38,2.38,0,1,1,0-4.76.366.366,0,0,0,.366-.366v-2.2a1.089,1.089,0,0,0-.224-.659,1.33,1.33,0,0,0,.041-1.4l-.814-1.407a.366.366,0,0,0-.5-.134A2.075,2.075,0,0,1,20.4,5.685a.368.368,0,0,0,.134-.5l-.976-1.691a1.022,1.022,0,0,0-1.389-.373L3.172,11.779H3.1a1.1,1.1,0,0,0-1.1,1.1v2.2a.366.366,0,0,0,.366.366,2.38,2.38,0,1,1,0,4.76A.366.366,0,0,0,2,20.566V22.4a1.465,1.465,0,0,0,1.465,1.465ZM18.532,3.755a.286.286,0,0,1,.389.1l.805,1.394a2.807,2.807,0,0,0,2.783,4.821l.642,1.112a.6.6,0,0,1-.017.627,1.092,1.092,0,0,0-.264-.036H4.636ZM2.732,20.91a3.112,3.112,0,0,0,0-6.181V12.877a.366.366,0,0,1,.366-.366H9.323v.732a.366.366,0,1,0,.732,0v-.732H22.869a.366.366,0,0,1,.366.366v1.852a3.112,3.112,0,0,0,0,6.181V22.4a.732.732,0,0,1-.732.732H10.055V22.4a.366.366,0,0,0-.732,0v.732H3.465a.732.732,0,0,1-.732-.732Z" transform="translate(0)" fill="#0d3399" stroke="#0d3399" stroke-width="0.2"/>
      </g>
    </g>
  </g>
</svg>
