<svg xmlns="http://www.w3.org/2000/svg" width="21.398" height="20.563" viewBox="0 0 21.398 20.563">
  <g id="Group_20850" data-name="Group 20850" transform="translate(-11360.268 -5760.015)">
    <path id="Path_20886" data-name="Path 20886" d="M11379.38,5769.566l-6.128-.076s-2.137-1.04-2.137,2.806,2.072,2.645,2.072,2.645h6.192Z" transform="translate(1.387 0.377)" fill="#fff"/>
    <line id="Line_409" data-name="Line 409" x2="2.551" transform="translate(11363.091 5768.155)" fill="none" stroke="#039" stroke-linecap="round" stroke-width="1"/>
    <line id="Line_410" data-name="Line 410" x2="5.101" transform="translate(11363.091 5769.855)" fill="none" stroke="#039" stroke-linecap="round" stroke-width="1"/>
    <g id="Path_20889" data-name="Path 20889" transform="translate(11374.204 5771.131)" fill="#039">
      <path d="M 1.275373339653015 2.150743246078491 C 0.7926933169364929 2.150743246078491 0.4000033438205719 1.758053302764893 0.4000033438205719 1.275373339653015 C 0.4000033438205719 0.7926933169364929 0.7926933169364929 0.4000033438205719 1.275373339653015 0.4000033438205719 C 1.758053302764893 0.4000033438205719 2.150743246078491 0.7926933169364929 2.150743246078491 1.275373339653015 C 2.150743246078491 1.758053302764893 1.758053302764893 2.150743246078491 1.275373339653015 2.150743246078491 Z" stroke="none"/>
      <path d="M 1.275373339653015 0.8000032901763916 C 1.013253331184387 0.8000032901763916 0.8000032901763916 1.013253331184387 0.8000032901763916 1.275373339653015 C 0.8000032901763916 1.537493348121643 1.013253331184387 1.750743389129639 1.275373339653015 1.750743389129639 C 1.537493348121643 1.750743389129639 1.750743389129639 1.537493348121643 1.750743389129639 1.275373339653015 C 1.750743389129639 1.013253331184387 1.537493348121643 0.8000032901763916 1.275373339653015 0.8000032901763916 M 1.275373339653015 3.337860107421875e-06 C 1.979743361473083 3.337860107421875e-06 2.550743341445923 0.5710033178329468 2.550743341445923 1.275373339653015 C 2.550743341445923 1.979743361473083 1.979743361473083 2.550743341445923 1.275373339653015 2.550743341445923 C 0.5710033178329468 2.550743341445923 3.337860107421875e-06 1.979743361473083 3.337860107421875e-06 1.275373339653015 C 3.337860107421875e-06 0.5710033178329468 0.5710033178329468 3.337860107421875e-06 1.275373339653015 3.337860107421875e-06 Z" stroke="none" fill="#039"/>
    </g>
    <path id="Path_20887" data-name="Path 20887" d="M0,0H11.053L8.178,1.162.341,4.328Z" transform="translate(11365.423 5760.521) rotate(22)" fill="#fff"/>
    <path id="Path_20888" data-name="Path 20888" d="M0,0,4.054.093l.033.082L.172,1.757Z" transform="translate(11366.543 5763.037) rotate(22)" fill="#fff"/>
    <g id="Group_20794" data-name="Group 20794" transform="translate(11360.767 5765.098)">
      <path id="Path_20883" data-name="Path 20883" d="M11380.46,5769.091a.677.677,0,0,1,.692.489c.1.361,0,3.868,0,4.846s-.756.734-.756.734" transform="translate(-11360.79 -5764.682)" fill="none" stroke="#44c8f5" stroke-width="1"/>
      <path id="Path_20882" data-name="Path 20882" d="M11376.078,5768.311h0v-3.295a1.835,1.835,0,0,0-.551-.786,2.178,2.178,0,0,0-.958-.326h-15.961a2.624,2.624,0,0,0-1.165.274,1.864,1.864,0,0,0-.67.838s-.011,11.97,0,12.335a1.474,1.474,0,0,0,1.48,1.521h16.315a1.179,1.179,0,0,0,1.125-.627c.405-.718.384-.917.384-.917v-2.913h-5.268a3.109,3.109,0,0,1,.112-6.1Z" transform="translate(-11356.769 -5763.904)" fill="none" stroke="#44c8f5" stroke-width="1"/>
    </g>
    <path id="Path_20884" data-name="Path 20884" d="M11360.248,5762.946l1.634-3.916a.911.911,0,0,1,.512-.47,1.95,1.95,0,0,1,.947.071l10.979,4.486" transform="translate(3.478 2)" fill="none" stroke="#44c8f5" stroke-width="1"/>
    <path id="Path_20885" data-name="Path 20885" d="M11361.425,5760.576l.633-1.546a.911.911,0,0,1,.513-.47,1.952,1.952,0,0,1,.947.071l4.877,1.858" transform="translate(3.984 4.551)" fill="none" stroke="#44c8f5" stroke-width="1"/>
  </g>
</svg>
