<svg xmlns="http://www.w3.org/2000/svg" width="13.701" height="14.958" viewBox="0 0 13.701 14.958">
  <g id="Group_17627" data-name="Group 17627" transform="translate(0)">
    <path id="Path_280" data-name="Path 280" d="M269.126,1738.1a1.255,1.255,0,0,1-.619,1.084,1.283,1.283,0,0,1-.623.168,1.224,1.224,0,0,1-.624-.168,1.192,1.192,0,0,1-.457-.455,1.241,1.241,0,0,1,0-1.245,1.232,1.232,0,0,1,.456-.455v-2.665a.626.626,0,0,1,.182-.442.627.627,0,0,1,.881,0,.623.623,0,0,1,.182.442v2.665a1.223,1.223,0,0,1,.455.448A1.269,1.269,0,0,1,269.126,1738.1Zm3.774-4.646a6.85,6.85,0,1,1-10.039,0l-.418-.467a2.135,2.135,0,0,1-.79.131.642.642,0,0,1-.44-.181.627.627,0,0,1,0-.884.642.642,0,0,1,.44-.181c.489,0,.623-.131.623-.623a.626.626,0,0,1,.182-.442.627.627,0,0,1,.881,0,.623.623,0,0,1,.182.442,2.186,2.186,0,0,1-.174.884l.44.486a6.836,6.836,0,0,1,3.471-1.339v-.654a.626.626,0,0,1,.182-.442.627.627,0,0,1,.881,0,.623.623,0,0,1,.182.442v.654a6.834,6.834,0,0,1,3.471,1.339l.44-.486a2.207,2.207,0,0,1-.174-.884.626.626,0,0,1,.182-.442.627.627,0,0,1,.881,0,.623.623,0,0,1,.182.442c0,.492.134.623.623.623a.641.641,0,0,1,.44.181.627.627,0,0,1,0,.884.641.641,0,0,1-.44.181,2.137,2.137,0,0,1-.79-.131Zm.585,4.646a5.612,5.612,0,1,0-1.643,3.961A5.609,5.609,0,0,0,273.485,1738.1Z" transform="translate(-261.03 -1730)" fill="#033399"/>
  </g>
</svg>
