<svg xmlns="http://www.w3.org/2000/svg" width="24.08" height="23.036" viewBox="0 0 24.08 23.036">
  <g id="Group_21900" data-name="Group 21900" transform="translate(0.5 0.506)">
    <path id="Path_21103" data-name="Path 21103" d="M7.5,89.572h0a2.323,2.323,0,0,1,2.323,2.323v9.888A2.323,2.323,0,0,1,7.5,104.105h0Z" transform="translate(-7.5 -86.206)" fill="none" stroke="#44c8f5" stroke-width="1"/>
    <path id="Path_21104" data-name="Path 21104" d="M1.674,6.567a.352.352,0,0,1-.34-.261l-.189-.7a.352.352,0,0,1,.681-.182l.189.7a.353.353,0,0,1-.341.444ZM1.107,4.453a.352.352,0,0,1-.34-.261l-.189-.7A.352.352,0,0,1,1.259,3.3l.189.7a.353.353,0,0,1-.341.444ZM.541,2.339A.352.352,0,0,1,.2,2.078l-.189-.7a.352.352,0,0,1,.681-.182l.189.7a.353.353,0,0,1-.341.444Zm1.6,5.978a.352.352,0,0,1-.34-.261l-.091-.34a.352.352,0,1,1,.681-.182l.091.34a.353.353,0,0,1-.341.444Zm1.215-2.2a.352.352,0,0,1-.34-.261l-.189-.7a.352.352,0,1,1,.681-.182l.189.7a.353.353,0,0,1-.341.444ZM2.791,4a.352.352,0,0,1-.34-.261l-.189-.7a.352.352,0,1,1,.681-.182l.189.7A.353.353,0,0,1,2.791,4ZM2.224,1.886a.352.352,0,0,1-.34-.261L1.7.92A.352.352,0,1,1,2.376.738l.189.7a.353.353,0,0,1-.341.444Zm1.6,5.98a.352.352,0,0,1-.34-.261l-.091-.34a.352.352,0,1,1,.681-.182l.091.34a.353.353,0,0,1-.341.444Zm1.3-2.224a.352.352,0,0,1-.34-.261l-.189-.705a.352.352,0,0,1,.681-.182l.188.705a.353.353,0,0,1-.341.443ZM4.557,3.526a.352.352,0,0,1-.34-.261l-.188-.705a.352.352,0,1,1,.681-.182l.189.705a.353.353,0,0,1-.341.443ZM3.992,1.41a.352.352,0,0,1-.34-.261L3.463.443A.352.352,0,0,1,4.144.261l.188.705a.353.353,0,0,1-.341.443Zm1.6,5.983a.353.353,0,0,1-.34-.261l-.091-.34a.352.352,0,1,1,.681-.182l.091.34a.353.353,0,0,1-.341.443Z" transform="translate(17.814 13.022) rotate(14)" fill="#039"/>
    <path id="Path_21107" data-name="Path 21107" d="M134.47,108.7v1.516h-5.161a5.822,5.822,0,0,0-1.677-.615c-3.024-.6-4.853,1.655-8.056,1.189a6.547,6.547,0,0,1-1.876-.575v-3.523h1.211a.7.7,0,0,0,.7-.7v-3.523a.7.7,0,0,1,.7-.7h4.51a.7.7,0,0,1,.7.7v3.577a.7.7,0,0,0,.649.7l6.988.551A1.41,1.41,0,0,1,134.47,108.7Z" transform="translate(-113.022 -97.762)" fill="none" stroke="#44c8f5" stroke-width="1"/>
    <path id="Path_21108" data-name="Path 21108" d="M173.344,110.216v0Z" transform="translate(-151.896 -97.866)" fill="#8b8893"/>
    <path id="Path_21109" data-name="Path 21109" d="M155.578,14.716a.479.479,0,0,0,.117.943h1.343v2.126h2.584V15.659a30.573,30.573,0,0,1,9.4-.067.375.375,0,0,0,.43-.372v-.835a.376.376,0,0,0-.321-.372,34.534,34.534,0,0,0-13.552.7Z" transform="translate(-148.775 -13.646)" fill="none" stroke="#44c8f5" stroke-width="1"/>
    <path id="Path_21111" data-name="Path 21111" d="M159.195,101.76h0Z" transform="translate(-151.595 -97.621)" fill="#c8c5cc"/>
    <path id="Path_21113" data-name="Path 21113" d="M56.942,191.107h2.149a.7.7,0,0,1,.7.7V195.4a.7.7,0,0,1-.7.7H56.942Z" transform="translate(-54.62 -182.991)" fill="none" stroke="#44c8f5" stroke-width="1"/>
  </g>
</svg>
