<svg xmlns="http://www.w3.org/2000/svg" width="18.651" height="17.1" viewBox="0 0 18.651 17.1">
  <g id="Group_20912" data-name="Group 20912" transform="translate(-16 -311)">
    <path id="Path_20916" data-name="Path 20916" d="M404.8,1397h-10.88a3.9,3.9,0,0,0-3.886,3.886v6.218a3.9,3.9,0,0,0,3.886,3.886h4.663v1.554h-3.109a.8.8,0,0,0-.549.226.782.782,0,0,0,0,1.1.8.8,0,0,0,.549.225h7.771a.8.8,0,0,0,.549-.225.782.782,0,0,0,0-1.1.8.8,0,0,0-.549-.226h-3.109v-1.554H404.8a3.9,3.9,0,0,0,3.886-3.886v-6.218A3.9,3.9,0,0,0,404.8,1397Zm2.331,10.1a2.334,2.334,0,0,1-2.331,2.332h-10.88a2.334,2.334,0,0,1-2.331-2.332v-6.218a2.334,2.334,0,0,1,2.331-2.332H404.8a2.334,2.334,0,0,1,2.331,2.332Z" transform="translate(-374.039 -1086)" fill="#44c8f5"/>
    <path id="Path_20918" data-name="Path 20918" d="M54.262,15689.2h2.806l1.743-2.194,2.562,4.166,1.756-2.213,2.984.077" transform="translate(-35.069 -15371.315)" fill="none" stroke="#039" stroke-linecap="round" stroke-linejoin="round" stroke-width="1.2"/>
  </g>
</svg>
