<svg xmlns="http://www.w3.org/2000/svg" id="Group_11588" width="28.167" height="26" viewBox="0 0 28.167 26">
    <defs>
        <style>
            .cls-2{fill:#039}
        </style>
    </defs>
    <path id="Path_15595" fill="#44c8f5" d="M32.542 26.822h-1.625V25.2a2.711 2.711 0 0 0-2.708-2.708H25.5v-1.629a.542.542 0 0 0-.542-.542h-4.333v-1.16a2.167 2.167 0 1 0-1.083 0v1.16h-4.334a.542.542 0 0 0-.542.542v1.625h-2.708A2.711 2.711 0 0 0 9.25 25.2v1.625H7.625A1.627 1.627 0 0 0 6 28.447v6.5a1.627 1.627 0 0 0 1.625 1.625H9.25V38.2a2.711 2.711 0 0 0 2.708 2.708h16.25a2.711 2.711 0 0 0 2.709-2.708v-1.628h1.625a1.627 1.627 0 0 0 1.625-1.625v-6.5a1.627 1.627 0 0 0-1.625-1.625zM19 17.072a1.083 1.083 0 1 1 1.083 1.083A1.084 1.084 0 0 1 19 17.072zM7.625 35.488a.543.543 0 0 1-.542-.542v-6.5a.543.543 0 0 1 .542-.542H9.25v7.583zm8.125-14.083h8.667v1.083H15.75zM29.833 38.2a1.627 1.627 0 0 1-1.625 1.625h-16.25a1.627 1.627 0 0 1-1.625-1.625v-13a1.627 1.627 0 0 1 1.625-1.625h16.25a1.627 1.627 0 0 1 1.625 1.625zm3.25-3.25a.543.543 0 0 1-.542.542h-1.624v-7.587h1.625a.543.543 0 0 1 .542.542z" transform="translate(-6 -14.905)"/>
    <path id="Path_15596" d="M32.292 46.9h-9.75a.542.542 0 0 0-.542.542v.542a5.417 5.417 0 1 0 10.833 0v-.542a.542.542 0 0 0-.541-.542zm-4.875 5.417a4.338 4.338 0 0 1-4.333-4.333h8.666a4.338 4.338 0 0 1-4.333 4.338z" class="cls-2" transform="translate(-13.333 -29.572)"/>
    <path id="Path_15597" d="M22.333 39.072a2.167 2.167 0 1 0-2.167 2.167 2.169 2.169 0 0 0 2.167-2.167zm-3.25 0a1.083 1.083 0 1 1 1.083 1.083 1.084 1.084 0 0 1-1.083-1.083z" class="cls-2" transform="translate(-11.5 -24.988)"/>
    <path id="Path_15598" d="M40.167 36.9a2.167 2.167 0 1 0 2.167 2.167 2.169 2.169 0 0 0-2.167-2.167zm0 3.25a1.083 1.083 0 1 1 1.083-1.083 1.084 1.084 0 0 1-1.083 1.088z" class="cls-2" transform="translate(-20.667 -24.988)"/>
</svg>
