<svg xmlns="http://www.w3.org/2000/svg" width="18.894" height="23.69" viewBox="0 0 18.894 23.69">
    <defs>
        <style>
            .cls-2{fill:#00307f}
        </style>
    </defs>
    <g id="Group_14925" data-name="Group 14925" transform="translate(1166.016 -2982.315)">
        <g id="Group_14850" data-name="Group 14850">
            <path id="Path_1042" data-name="Path 1042" d="M-1149.816 2994.16a26.667 26.667 0 0 1-.379 4.721 11.118 11.118 0 0 1-1.24 3.592 6.044 6.044 0 0 1-2.237 2.274 6.664 6.664 0 0 1-3.373.795 6.6 6.6 0 0 1-3.348-.768 5.476 5.476 0 0 1-2.1-2.207 10.732 10.732 0 0 1-1.093-3.524 31.987 31.987 0 0 1-.312-4.709 26.157 26.157 0 0 1 .389-4.715 11.255 11.255 0 0 1 1.248-3.6 6.046 6.046 0 0 1 2.236-2.274 7.605 7.605 0 0 1 6.71-.028 5.467 5.467 0 0 1 2.111 2.206 10.635 10.635 0 0 1 1.079 3.524 32.7 32.7 0 0 1 .309 4.713zm-4.016.231a42.1 42.1 0 0 0-.078-2.735 19.1 19.1 0 0 0-.233-2.066 8.487 8.487 0 0 0-.4-1.48 2.862 2.862 0 0 0-.576-.967 1.911 1.911 0 0 0-.767-.518 2.921 2.921 0 0 0-.95-.15 6.786 6.786 0 0 0-2.607.453 3.219 3.219 0 0 0-.935 1.445 9.828 9.828 0 0 0-.479 2.389q-.137 1.434-.136 3.333a37.11 37.11 0 0 0 .166 3.846 9.723 9.723 0 0 0 .53 2.429c.239.6 1.667 1.045 2.041 1.287a2.73 2.73 0 0 0 2.418.149 2.282 2.282 0 0 0 .806-.623 3.511 3.511 0 0 0 .57-1.065 8.283 8.283 0 0 0 .374-1.48 15.78 15.78 0 0 0 .2-1.905c.041-.707.056-1.49.056-2.342z" style="fill:#2dbff3;fill-rule:evenodd"/>
            <g id="Group_564" data-name="Group 564">
                <path id="Path_1043" data-name="Path 1043" class="cls-2" d="M-1149.7 2989.251a10.462 10.462 0 0 0-1.265-3.713 6.278 6.278 0 0 0-2.541-2.4 9.8 9.8 0 0 0-7.928.028 6.945 6.945 0 0 0-2.679 2.454 11.11 11.11 0 0 0-1.456 3.783 24.458 24.458 0 0 0-.445 4.845 29.828 29.828 0 0 0 .355 4.822 10.555 10.555 0 0 0 1.277 3.711 6.282 6.282 0 0 0 2.527 2.4 9.817 9.817 0 0 0 7.94-.028 6.946 6.946 0 0 0 2.679-2.454 11.015 11.015 0 0 0 1.456-3.779 24.874 24.874 0 0 0 .432-4.849 30.384 30.384 0 0 0-.348-4.82zm-.992 9.487a10.077 10.077 0 0 1-1.322 3.461 6.033 6.033 0 0 1-2.326 2.132 8.924 8.924 0 0 1-7.086.03 5.378 5.378 0 0 1-2.162-2.057 9.665 9.665 0 0 1-1.16-3.387 28.978 28.978 0 0 1-.342-4.671 23.571 23.571 0 0 1 .426-4.66 10.21 10.21 0 0 1 1.328-3.469 6.036 6.036 0 0 1 2.33-2.132 8.893 8.893 0 0 1 7.075-.028 5.366 5.366 0 0 1 2.172 2.055 9.559 9.559 0 0 1 1.152 3.387 29.587 29.587 0 0 1 .336 4.672 23.946 23.946 0 0 1-.414 4.667z"/>
                <path id="Path_1044" data-name="Path 1044" class="cls-2" d="M-1154.2 2989.379v-.009a8.342 8.342 0 0 0-.475-1.579 3.293 3.293 0 0 0-.75-1.128 2.649 2.649 0 0 0-1.028-.627h-.008a4.06 4.06 0 0 0-1.2-.172 3.226 3.226 0 0 0-1.94.576 3.669 3.669 0 0 0-1.2 1.659 9.6 9.6 0 0 0-.564 2.528c-.044.405-.079.842-.1 1.3a.463.463 0 0 0 .436.488.49.49 0 0 0 .488-.436c.025-.444.059-.864.1-1.257a8.679 8.679 0 0 1 .5-2.283 2.784 2.784 0 0 1 .886-1.254 2.327 2.327 0 0 1 1.395-.393 3.156 3.156 0 0 1 .921.129 1.7 1.7 0 0 1 .671.413l.008.007a2.407 2.407 0 0 1 .534.819 7.5 7.5 0 0 1 .419 1.4 17.241 17.241 0 0 1 .253 2.025c.057.78.085 1.7.085 2.723 0 .9-.019 1.658-.057 2.33a14.233 14.233 0 0 1-.219 1.862 7.414 7.414 0 0 1-.391 1.4v.007a3.02 3.02 0 0 1-.548.927 2.078 2.078 0 0 1-.733.517h-.007a2.906 2.906 0 0 1-2.29-.125 2.208 2.208 0 0 1-.843-1.056 8.606 8.606 0 0 1-.556-2.318 42.868 42.868 0 0 1-.134-6.207.462.462 0 0 0-.479-.441.384.384 0 0 0-.388.38.435.435 0 0 0 0 .061 35.766 35.766 0 0 0 .083 6.319 9.369 9.369 0 0 0 .628 2.579 3.1 3.1 0 0 0 1.225 1.484 3.814 3.814 0 0 0 3.113.177 3.006 3.006 0 0 0 1.055-.743l.007-.008a3.911 3.911 0 0 0 .724-1.212 8.255 8.255 0 0 0 .442-1.573 15.029 15.029 0 0 0 .234-1.982c.039-.689.058-1.469.058-2.383a38.74 38.74 0 0 0-.088-2.789 17.926 17.926 0 0 0-.267-2.135z"/>
            </g>
        </g>
        <g id="Group_14925-2" data-name="Group 14925">
            <path id="Path_130" data-name="Path 130" d="M-1147.925 2989.54a1.383 1.383 0 0 0-1.934-.3l-6.256 4.59a.3.3 0 0 0-.1.122l-1.111 2.465a.306.306 0 0 0 .153.406.3.3 0 0 0 .163.026l2.685-.321a.3.3 0 0 0 .146-.059l6.256-4.59a1.385 1.385 0 0 0 .3-1.935z" style="fill:#d1eefc"/>
            <path id="Path_130-2" data-name="Path 130" d="M-1147.925 2989.54a1.383 1.383 0 0 0-1.934-.3l-6.256 4.59a.3.3 0 0 0-.1.122l-1.111 2.465a.306.306 0 0 0 .153.406.3.3 0 0 0 .163.026l2.685-.321a.3.3 0 0 0 .146-.059l6.256-4.59a1.385 1.385 0 0 0 .3-1.935zm-7.559 4.592 5.12-3.757 1.211 1.651-5.12 3.757zm-.375.53.968 1.32-1.649.2zm7.574-3.272-.371.273-1.212-1.652.372-.272a.77.77 0 0 1 1.075.165l.3.412a.769.769 0 0 1-.165 1.073z" style="stroke:#00307f;stroke-miterlimit:10;stroke-width:.3px;fill:#00307f"/>
        </g>
    </g>
</svg>
