<?xml version="1.0" encoding="UTF-8" standalone="no"?>
<!DOCTYPE svg PUBLIC "-//W3C//DTD SVG 1.1//EN"
 "http://www.w3.org/Graphics/SVG/1.1/DTD/svg11.dtd">
<!-- Generated by graphviz version 2.47.3 (20210619.1520)
 -->
<!-- Title: dependencies Pages: 1 -->
<svg width="719pt" height="247pt"
 viewBox="0.00 0.00 719.00 246.80" xmlns="http://www.w3.org/2000/svg" xmlns:xlink="http://www.w3.org/1999/xlink">
<g id="graph0" class="graph" transform="scale(1 1) rotate(0) translate(4 242.8)">
<title>dependencies</title>
<polygon fill="white" stroke="transparent" points="-4,4 -4,-242.8 715,-242.8 715,4 -4,4"/>
<text text-anchor="middle" x="355.5" y="-8.2" font-family="sans-serif" font-size="14.00">dependencies</text>
<g id="clust1" class="cluster">
<title>cluster_LoginPageModule</title>
<polygon fill="none" stroke="black" stroke-dasharray="1,5" points="8,-32.8 8,-230.8 703,-230.8 703,-32.8 8,-32.8"/>
</g>
<g id="clust4" class="cluster">
<title>cluster_LoginPageModule_imports</title>
<polygon fill="none" stroke="black" points="116,-40.8 116,-92.8 695,-92.8 695,-40.8 116,-40.8"/>
</g>
<g id="clust2" class="cluster">
<title>cluster_LoginPageModule_declarations</title>
<polygon fill="none" stroke="black" points="16,-40.8 16,-92.8 108,-92.8 108,-40.8 16,-40.8"/>
</g>
<g id="clust5" class="cluster">
<title>cluster_LoginPageModule_exports</title>
<polygon fill="none" stroke="black" points="288,-170.8 288,-222.8 384,-222.8 384,-170.8 288,-170.8"/>
</g>
<!-- LoginPage -->
<g id="node1" class="node">
<title>LoginPage</title>
<polygon fill="#ffffb3" stroke="black" points="100.16,-84.8 23.84,-84.8 23.84,-48.8 100.16,-48.8 100.16,-84.8"/>
<text text-anchor="middle" x="62" y="-62.6" font-family="Times,serif" font-size="14.00">LoginPage</text>
</g>
<!-- LoginPageModule -->
<g id="node2" class="node">
<title>LoginPageModule</title>
<polygon fill="#8dd3c7" stroke="black" points="396.2,-149.8 393.2,-153.8 372.2,-153.8 369.2,-149.8 275.8,-149.8 275.8,-113.8 396.2,-113.8 396.2,-149.8"/>
<text text-anchor="middle" x="336" y="-127.6" font-family="Times,serif" font-size="14.00">LoginPageModule</text>
</g>
<!-- LoginPage&#45;&gt;LoginPageModule -->
<g id="edge1" class="edge">
<title>LoginPage&#45;&gt;LoginPageModule</title>
<path fill="none" stroke="black" d="M62,-85.08C62,-106.12 62,-137.8 62,-137.8 62,-137.8 265.87,-137.8 265.87,-137.8"/>
<polygon fill="black" stroke="black" points="265.87,-141.3 275.87,-137.8 265.87,-134.3 265.87,-141.3"/>
</g>
<!-- LoginPage  -->
<g id="node7" class="node">
<title>LoginPage </title>
<polygon fill="#fb8072" stroke="black" points="376.16,-214.8 295.84,-214.8 295.84,-178.8 376.16,-178.8 376.16,-214.8"/>
<text text-anchor="middle" x="336" y="-192.6" font-family="Times,serif" font-size="14.00">LoginPage </text>
</g>
<!-- LoginPageModule&#45;&gt;LoginPage  -->
<g id="edge6" class="edge">
<title>LoginPageModule&#45;&gt;LoginPage </title>
<path fill="none" stroke="black" stroke-dasharray="5,2" d="M336,-149.91C336,-149.91 336,-168.79 336,-168.79"/>
<polygon fill="black" stroke="black" points="332.5,-168.79 336,-178.79 339.5,-168.79 332.5,-168.79"/>
</g>
<!-- LibConfigModule -->
<g id="node3" class="node">
<title>LibConfigModule</title>
<polygon fill="#8dd3c7" stroke="black" points="686.88,-84.8 683.88,-88.8 662.88,-88.8 659.88,-84.8 569.12,-84.8 569.12,-48.8 686.88,-48.8 686.88,-84.8"/>
<text text-anchor="middle" x="628" y="-62.6" font-family="Times,serif" font-size="14.00">LibConfigModule</text>
</g>
<!-- LibConfigModule&#45;&gt;LoginPageModule -->
<g id="edge2" class="edge">
<title>LibConfigModule&#45;&gt;LoginPageModule</title>
<path fill="none" stroke="black" d="M628,-85.08C628,-106.12 628,-137.8 628,-137.8 628,-137.8 406.15,-137.8 406.15,-137.8"/>
<polygon fill="black" stroke="black" points="406.15,-134.3 396.15,-137.8 406.15,-141.3 406.15,-134.3"/>
</g>
<!-- LoginListModule -->
<g id="node4" class="node">
<title>LoginListModule</title>
<polygon fill="#8dd3c7" stroke="black" points="551.27,-84.8 548.27,-88.8 527.27,-88.8 524.27,-84.8 436.73,-84.8 436.73,-48.8 551.27,-48.8 551.27,-84.8"/>
<text text-anchor="middle" x="494" y="-62.6" font-family="Times,serif" font-size="14.00">LoginListModule</text>
</g>
<!-- LoginListModule&#45;&gt;LoginPageModule -->
<g id="edge3" class="edge">
<title>LoginListModule&#45;&gt;LoginPageModule</title>
<path fill="none" stroke="black" d="M494,-84.82C494,-102.17 494,-125.8 494,-125.8 494,-125.8 406.18,-125.8 406.18,-125.8"/>
<polygon fill="black" stroke="black" points="406.18,-122.3 396.18,-125.8 406.18,-129.3 406.18,-122.3"/>
</g>
<!-- LoginPageRoutingModule -->
<g id="node5" class="node">
<title>LoginPageRoutingModule</title>
<polygon fill="#8dd3c7" stroke="black" points="418.82,-84.8 415.82,-88.8 394.82,-88.8 391.82,-84.8 253.18,-84.8 253.18,-48.8 418.82,-48.8 418.82,-84.8"/>
<text text-anchor="middle" x="336" y="-62.6" font-family="Times,serif" font-size="14.00">LoginPageRoutingModule</text>
</g>
<!-- LoginPageRoutingModule&#45;&gt;LoginPageModule -->
<g id="edge4" class="edge">
<title>LoginPageRoutingModule&#45;&gt;LoginPageModule</title>
<path fill="none" stroke="black" d="M336,-84.91C336,-84.91 336,-103.79 336,-103.79"/>
<polygon fill="black" stroke="black" points="332.5,-103.79 336,-113.79 339.5,-103.79 332.5,-103.79"/>
</g>
<!-- TranslateModule -->
<g id="node6" class="node">
<title>TranslateModule</title>
<polygon fill="#8dd3c7" stroke="black" points="235.63,-84.8 232.63,-88.8 211.63,-88.8 208.63,-84.8 124.37,-84.8 124.37,-48.8 235.63,-48.8 235.63,-84.8"/>
<text text-anchor="middle" x="180" y="-62.6" font-family="Times,serif" font-size="14.00">TranslateModule</text>
</g>
<!-- TranslateModule&#45;&gt;LoginPageModule -->
<g id="edge5" class="edge">
<title>TranslateModule&#45;&gt;LoginPageModule</title>
<path fill="none" stroke="black" d="M180,-84.82C180,-102.17 180,-125.8 180,-125.8 180,-125.8 265.69,-125.8 265.69,-125.8"/>
<polygon fill="black" stroke="black" points="265.69,-129.3 275.69,-125.8 265.69,-122.3 265.69,-129.3"/>
</g>
</g>
</svg>
