<?xml version="1.0" encoding="UTF-8" standalone="no"?>
<!DOCTYPE svg PUBLIC "-//W3C//DTD SVG 1.1//EN"
 "http://www.w3.org/Graphics/SVG/1.1/DTD/svg11.dtd">
<!-- Generated by graphviz version 2.47.3 (20210619.1520)
 -->
<!-- Title: dependencies Pages: 1 -->
<svg width="806pt" height="174pt"
 viewBox="0.00 0.00 806.00 173.80" xmlns="http://www.w3.org/2000/svg" xmlns:xlink="http://www.w3.org/1999/xlink">
<g id="graph0" class="graph" transform="scale(1 1) rotate(0) translate(4 169.8)">
<title>dependencies</title>
<polygon fill="white" stroke="transparent" points="-4,4 -4,-169.8 802,-169.8 802,4 -4,4"/>
<text text-anchor="middle" x="399" y="-8.2" font-family="sans-serif" font-size="14.00">dependencies</text>
<g id="clust1" class="cluster">
<title>cluster_WealthRoboAdvisoryPageModule</title>
<polygon fill="none" stroke="black" stroke-dasharray="1,5" points="8,-32.8 8,-157.8 790,-157.8 790,-32.8 8,-32.8"/>
</g>
<g id="clust2" class="cluster">
<title>cluster_WealthRoboAdvisoryPageModule_declarations</title>
<polygon fill="none" stroke="black" points="600,-40.8 600,-92.8 782,-92.8 782,-40.8 600,-40.8"/>
</g>
<g id="clust4" class="cluster">
<title>cluster_WealthRoboAdvisoryPageModule_imports</title>
<polygon fill="none" stroke="black" points="16,-40.8 16,-92.8 592,-92.8 592,-40.8 16,-40.8"/>
</g>
<!-- WealthRoboAdvisoryPage -->
<g id="node1" class="node">
<title>WealthRoboAdvisoryPage</title>
<polygon fill="#ffffb3" stroke="black" points="774.08,-84.8 607.92,-84.8 607.92,-48.8 774.08,-48.8 774.08,-84.8"/>
<text text-anchor="middle" x="691" y="-62.6" font-family="Times,serif" font-size="14.00">WealthRoboAdvisoryPage</text>
</g>
<!-- WealthRoboAdvisoryPageModule -->
<g id="node2" class="node">
<title>WealthRoboAdvisoryPageModule</title>
<polygon fill="#8dd3c7" stroke="black" points="568.63,-149.8 565.63,-153.8 544.63,-153.8 541.63,-149.8 359.37,-149.8 359.37,-113.8 568.63,-113.8 568.63,-149.8"/>
<text text-anchor="middle" x="464" y="-127.6" font-family="Times,serif" font-size="14.00">WealthRoboAdvisoryPageModule</text>
</g>
<!-- WealthRoboAdvisoryPage&#45;&gt;WealthRoboAdvisoryPageModule -->
<g id="edge1" class="edge">
<title>WealthRoboAdvisoryPage&#45;&gt;WealthRoboAdvisoryPageModule</title>
<path fill="none" stroke="black" d="M691,-84.91C691,-104.14 691,-131.8 691,-131.8 691,-131.8 578.86,-131.8 578.86,-131.8"/>
<polygon fill="black" stroke="black" points="578.86,-128.3 568.86,-131.8 578.86,-135.3 578.86,-128.3"/>
</g>
<!-- CoreModule -->
<g id="node3" class="node">
<title>CoreModule</title>
<polygon fill="#8dd3c7" stroke="black" points="584.26,-84.8 581.26,-88.8 560.26,-88.8 557.26,-84.8 497.74,-84.8 497.74,-48.8 584.26,-48.8 584.26,-84.8"/>
<text text-anchor="middle" x="541" y="-62.6" font-family="Times,serif" font-size="14.00">CoreModule</text>
</g>
<!-- CoreModule&#45;&gt;WealthRoboAdvisoryPageModule -->
<g id="edge2" class="edge">
<title>CoreModule&#45;&gt;WealthRoboAdvisoryPageModule</title>
<path fill="none" stroke="black" d="M533.22,-84.91C533.22,-84.91 533.22,-103.79 533.22,-103.79"/>
<polygon fill="black" stroke="black" points="529.72,-103.79 533.22,-113.79 536.72,-103.79 529.72,-103.79"/>
</g>
<!-- WealthRoboAdvisoryModule -->
<g id="node4" class="node">
<title>WealthRoboAdvisoryModule</title>
<polygon fill="#8dd3c7" stroke="black" points="479.41,-84.8 476.41,-88.8 455.41,-88.8 452.41,-84.8 296.59,-84.8 296.59,-48.8 479.41,-48.8 479.41,-84.8"/>
<text text-anchor="middle" x="388" y="-62.6" font-family="Times,serif" font-size="14.00">WealthRoboAdvisoryModule</text>
</g>
<!-- WealthRoboAdvisoryModule&#45;&gt;WealthRoboAdvisoryPageModule -->
<g id="edge3" class="edge">
<title>WealthRoboAdvisoryModule&#45;&gt;WealthRoboAdvisoryPageModule</title>
<path fill="none" stroke="black" d="M419.2,-84.91C419.2,-84.91 419.2,-103.79 419.2,-103.79"/>
<polygon fill="black" stroke="black" points="415.7,-103.79 419.2,-113.79 422.7,-103.79 415.7,-103.79"/>
</g>
<!-- WealthRoboAdvisoryPageRoutingModule -->
<g id="node5" class="node">
<title>WealthRoboAdvisoryPageRoutingModule</title>
<polygon fill="#8dd3c7" stroke="black" points="278.24,-84.8 275.24,-88.8 254.24,-88.8 251.24,-84.8 23.76,-84.8 23.76,-48.8 278.24,-48.8 278.24,-84.8"/>
<text text-anchor="middle" x="151" y="-62.6" font-family="Times,serif" font-size="14.00">WealthRoboAdvisoryPageRoutingModule</text>
</g>
<!-- WealthRoboAdvisoryPageRoutingModule&#45;&gt;WealthRoboAdvisoryPageModule -->
<g id="edge4" class="edge">
<title>WealthRoboAdvisoryPageRoutingModule&#45;&gt;WealthRoboAdvisoryPageModule</title>
<path fill="none" stroke="black" d="M151,-84.91C151,-104.14 151,-131.8 151,-131.8 151,-131.8 349.34,-131.8 349.34,-131.8"/>
<polygon fill="black" stroke="black" points="349.34,-135.3 359.34,-131.8 349.34,-128.3 349.34,-135.3"/>
</g>
</g>
</svg>
