<?xml version="1.0" encoding="UTF-8" standalone="no"?>
<!DOCTYPE svg PUBLIC "-//W3C//DTD SVG 1.1//EN"
 "http://www.w3.org/Graphics/SVG/1.1/DTD/svg11.dtd">
<!-- Generated by graphviz version 2.47.3 (20210619.1520)
 -->
<!-- Title: dependencies Pages: 1 -->
<svg width="256pt" height="247pt"
 viewBox="0.00 0.00 256.00 246.80" xmlns="http://www.w3.org/2000/svg" xmlns:xlink="http://www.w3.org/1999/xlink">
<g id="graph0" class="graph" transform="scale(1 1) rotate(0) translate(4 242.8)">
<title>dependencies</title>
<polygon fill="white" stroke="transparent" points="-4,4 -4,-242.8 252,-242.8 252,4 -4,4"/>
<text text-anchor="middle" x="124" y="-8.2" font-family="sans-serif" font-size="14.00">dependencies</text>
<g id="clust1" class="cluster">
<title>cluster_currencyCommasModule</title>
<polygon fill="none" stroke="black" stroke-dasharray="1,5" points="8,-32.8 8,-230.8 240,-230.8 240,-32.8 8,-32.8"/>
</g>
<g id="clust5" class="cluster">
<title>cluster_currencyCommasModule_exports</title>
<polygon fill="none" stroke="black" points="16,-170.8 16,-222.8 232,-222.8 232,-170.8 16,-170.8"/>
</g>
<g id="clust2" class="cluster">
<title>cluster_currencyCommasModule_declarations</title>
<polygon fill="none" stroke="black" points="17,-40.8 17,-92.8 231,-92.8 231,-40.8 17,-40.8"/>
</g>
<!-- CurrencyCommasHundredsPipe -->
<g id="node1" class="node">
<title>CurrencyCommasHundredsPipe</title>
<polygon fill="#ffffb3" stroke="black" points="222.68,-84.8 25.32,-84.8 25.32,-48.8 222.68,-48.8 222.68,-84.8"/>
<text text-anchor="middle" x="124" y="-62.6" font-family="Times,serif" font-size="14.00">CurrencyCommasHundredsPipe</text>
</g>
<!-- currencyCommasModule -->
<g id="node2" class="node">
<title>currencyCommasModule</title>
<polygon fill="#8dd3c7" stroke="black" points="203.29,-149.8 200.29,-153.8 179.29,-153.8 176.29,-149.8 44.71,-149.8 44.71,-113.8 203.29,-113.8 203.29,-149.8"/>
<text text-anchor="middle" x="124" y="-127.6" font-family="Times,serif" font-size="14.00">currencyCommasModule</text>
</g>
<!-- CurrencyCommasHundredsPipe&#45;&gt;currencyCommasModule -->
<g id="edge1" class="edge">
<title>CurrencyCommasHundredsPipe&#45;&gt;currencyCommasModule</title>
<path fill="none" stroke="black" d="M124,-84.91C124,-84.91 124,-103.79 124,-103.79"/>
<polygon fill="black" stroke="black" points="120.5,-103.79 124,-113.79 127.5,-103.79 120.5,-103.79"/>
</g>
<!-- CurrencyCommasHundredsPipe  -->
<g id="node3" class="node">
<title>CurrencyCommasHundredsPipe </title>
<polygon fill="#fb8072" stroke="black" points="224.18,-214.8 23.82,-214.8 23.82,-178.8 224.18,-178.8 224.18,-214.8"/>
<text text-anchor="middle" x="124" y="-192.6" font-family="Times,serif" font-size="14.00">CurrencyCommasHundredsPipe </text>
</g>
<!-- currencyCommasModule&#45;&gt;CurrencyCommasHundredsPipe  -->
<g id="edge2" class="edge">
<title>currencyCommasModule&#45;&gt;CurrencyCommasHundredsPipe </title>
<path fill="none" stroke="black" stroke-dasharray="5,2" d="M124,-149.91C124,-149.91 124,-168.79 124,-168.79"/>
<polygon fill="black" stroke="black" points="120.5,-168.79 124,-178.79 127.5,-168.79 120.5,-168.79"/>
</g>
</g>
</svg>
