<svg xmlns="http://www.w3.org/2000/svg" xmlns:xlink="http://www.w3.org/1999/xlink" width="46" height="46" viewBox="0 0 46 46">
  <defs>
    <linearGradient id="linear-gradient" x1="0.5" y1="-8.738" x2="0.5" y2="2.787" gradientUnits="objectBoundingBox">
      <stop offset="0" stop-color="#00efd1"/>
      <stop offset="1" stop-color="#00acea"/>
    </linearGradient>
    <linearGradient id="linear-gradient-2" x1="0.5" y1="-3.943" x2="0.5" y2="9.007" gradientUnits="objectBoundingBox">
      <stop offset="0" stop-color="#2dbff3"/>
      <stop offset="1" stop-color="#00acea"/>
    </linearGradient>
  </defs>
  <g id="Group_20049" data-name="Group 20049" transform="translate(-157 -258)">
    <circle id="Ellipse_321" data-name="Ellipse 321" cx="23" cy="23" r="23" transform="translate(157 258)" fill="#d9f5ff"/>
    <g id="Group_20047" data-name="Group 20047" transform="translate(19124 -8591)">
      <path id="_Compound_Path_" data-name="&lt;Compound Path&gt;" d="M25.8,48.569c0,.011.01.024.01.034a4.053,4.053,0,0,0-2.8-1.121H20.821v-.74a6.007,6.007,0,0,0,2.362-1.952,5.737,5.737,0,0,0,1.034-2.908h.014a1.5,1.5,0,0,0,1.061-2.562,1.469,1.469,0,0,0-1.052-.441h.009V36.5h.837a.427.427,0,0,0,.429-.427A4.078,4.078,0,0,0,21.44,32H17.684a2.244,2.244,0,0,0-1.591.667,2.287,2.287,0,0,0-.3.38,3.1,3.1,0,0,0-2.571,1.49,4.272,4.272,0,0,0-.581,1.494.476.476,0,0,0-.015.06V38.88a1.5,1.5,0,0,0-1.049.441,1.476,1.476,0,0,0-.436,1.06,1.505,1.505,0,0,0,1.5,1.5h.016a5.735,5.735,0,0,0,1.669,3.667,6.073,6.073,0,0,0,1.939,1.286v.647H14.091A4.092,4.092,0,0,0,10,51.57v3.985a.442.442,0,0,0,.428.445H26.674a.432.432,0,0,0,.415-.445V51.57a4.088,4.088,0,0,0-.91-2.586.542.542,0,0,0,.071,0ZM12.625,41.026a.659.659,0,0,1-.633-.644.635.635,0,0,1,.193-.452s0,0,0,0a.631.631,0,0,1,.444-.188ZM23.066,51.292a.83.83,0,0,1,.589.244.838.838,0,1,1-.589-.244Zm1.81-10.91a.637.637,0,0,1-.627.644V39.737A.639.639,0,0,1,24.876,40.381Zm-8.447-6.718h0a1.465,1.465,0,0,1,.27-.389,1.392,1.392,0,0,1,.985-.416H21.44a3.236,3.236,0,0,1,3.19,2.786H17.684l-.041.01c-.014,0-.028,0-.042,0a1.389,1.389,0,0,1-1.311-1.389A1.356,1.356,0,0,1,16.429,33.663Zm-2.947,2.463A4.521,4.521,0,0,1,13.934,35a2.231,2.231,0,0,1,1.517-1.045A2.278,2.278,0,0,0,16.8,36.342a4.562,4.562,0,0,1-3.316,1.508Zm1.456,8.817a4.913,4.913,0,0,1-1.456-3.489V38.706A5.485,5.485,0,0,0,17.788,36.5h5.6v4.954a4.957,4.957,0,0,1-8.454,3.489Zm3.043,10.2H10.857V51.57a3.239,3.239,0,0,1,3.053-3.228V48.9a1.959,1.959,0,0,0-1.036.556,2.073,2.073,0,0,0-.625,1.463v2.3a.436.436,0,0,0,.444.421h.657a.429.429,0,0,0,0-.857h-.243V50.922a1.186,1.186,0,0,1,.363-.846,1.214,1.214,0,0,1,.85-.344h.017a1.214,1.214,0,0,1,1.234,1.19v1.864h-.413a.429.429,0,0,0,0,.857h.819a.442.442,0,0,0,.451-.421v-2.3a2.108,2.108,0,0,0-1.661-2.028v-.554h1.775L17.982,49.8Zm-.857-7.414V47.1a6.093,6.093,0,0,0,1.312.145,6.243,6.243,0,0,0,1.527-.2v.683l-1.414,1.4Zm9.107,3.841v3.573H18.839V50.029l1.707-1.69h2.1v2.15a1.693,1.693,0,1,0,1.624.442,1.789,1.789,0,0,0-.766-.442V48.371a3.225,3.225,0,0,1,2.732,3.2Z" transform="translate(-18963 8828)" fill="#2dbff3" stroke="#00307f" stroke-width="0.5"/>
      <path id="_Path_" data-name="&lt;Path&gt;" d="M190.1,385h-.38a.355.355,0,0,0,0,.71h.38a.355.355,0,1,0,0-.71Zm0,1.154h-.38a.355.355,0,0,0,0,.71h.38a.355.355,0,1,0,0-.71Z" transform="translate(-19132.621 8494.785)" fill="url(#linear-gradient)"/>
      <path id="_Path_2" data-name="&lt;Path&gt;" d="M102.218,165.92v-.19a.355.355,0,0,0-.71,0v.19a.407.407,0,0,1-.407.4.385.385,0,0,1-.276-.116.4.4,0,0,1-.115-.288v-.19a.355.355,0,0,0-.71,0v.19a1.109,1.109,0,1,0,2.218,0Z" transform="translate(-19048.025 8701.881)" fill="url(#linear-gradient-2)"/>
      <path id="_Path_3" data-name="&lt;Path&gt;" d="M185.332,166.71a1.1,1.1,0,0,0,1.886-.79v-.19a.355.355,0,0,0-.71,0v.19a.4.4,0,1,1-.8,0v-.19a.355.355,0,0,0-.71,0v.19a1.117,1.117,0,0,0,.326.786Z" transform="translate(-19128.326 8701.882)" fill="url(#linear-gradient-2)"/>
    </g>
  </g>
</svg>
