<svg xmlns="http://www.w3.org/2000/svg" width="10.937" height="14.513" viewBox="0 0 10.937 14.513">
  <path id="bx-git-compare" d="M5.78,0A2.009,2.009,0,0,0,5.2,3.935v7.121a2.536,2.536,0,0,0,.676,1.687A2.194,2.194,0,0,0,7.5,13.36v1.151l2.3-1.727L7.5,11.058v1.151a1.079,1.079,0,0,1-1.145-1.151V3.935A2.009,2.009,0,0,0,5.78,0Zm0,2.878a.863.863,0,1,1,.863-.863A.865.865,0,0,1,5.78,2.877Zm7.483,7.7V3.451a2.245,2.245,0,0,0-2.308-2.3V0l-2.3,1.727,2.3,1.727V2.3a1.089,1.089,0,0,1,1.157,1.151v7.123a2.015,2.015,0,1,0,1.151,0Zm-.576,2.784a.863.863,0,1,1,.863-.863A.865.865,0,0,1,12.687,13.36Z" transform="translate(-3.765 0.001)" fill="#727682"/>
</svg>
