<svg xmlns="http://www.w3.org/2000/svg" width="30" height="30" viewBox="0 0 30 30">
  <g id="Group_20087" data-name="Group 20087" transform="translate(-195 -501)">
    <g id="Group_20086" data-name="Group 20086" transform="translate(163)">
      <g id="Rectangle_9229" data-name="Rectangle 9229" transform="translate(32 501)" fill="none" stroke="#707070" stroke-width="0.5" opacity="0">
        <rect width="30" height="30" stroke="none"/>
        <rect x="0.25" y="0.25" width="29.5" height="29.5" fill="none"/>
      </g>
    </g>
    <path id="Icon_metro-stethoscope" data-name="Icon metro-stethoscope" d="M26.7,13.782a1.056,1.056,0,1,0-.309.732A1,1,0,0,0,26.7,13.782Zm2.083,0a3,3,0,0,1-.578,1.807A3.174,3.174,0,0,1,26.7,16.728v6.429a5.622,5.622,0,0,1-2.14,4.419,7.659,7.659,0,0,1-5.151,1.831,7.659,7.659,0,0,1-5.151-1.831,5.622,5.622,0,0,1-2.14-4.419V21.008a7.462,7.462,0,0,1-4.46-2.083,5.573,5.573,0,0,1-1.79-4.1V6.49A1.056,1.056,0,0,1,6.911,5.449a1.4,1.4,0,0,1,.26.033A2.113,2.113,0,0,1,7.936,4.7a2.08,2.08,0,0,1,3.141,1.79A2.084,2.084,0,0,1,8.994,8.574a2.048,2.048,0,0,1-1.042-.293v6.543a3.659,3.659,0,0,0,1.53,2.946,5.715,5.715,0,0,0,3.678,1.221,5.715,5.715,0,0,0,3.678-1.221,3.659,3.659,0,0,0,1.53-2.946V8.281a2.048,2.048,0,0,1-1.042.293A2.084,2.084,0,0,1,15.244,6.49,2.078,2.078,0,0,1,18.386,4.7a2.113,2.113,0,0,1,.765.781,1.4,1.4,0,0,1,.26-.033A1.056,1.056,0,0,1,20.453,6.49v8.333a5.573,5.573,0,0,1-1.79,4.1,7.462,7.462,0,0,1-4.46,2.083v2.148a3.659,3.659,0,0,0,1.53,2.946,5.715,5.715,0,0,0,3.678,1.221A5.715,5.715,0,0,0,23.09,26.1a3.659,3.659,0,0,0,1.53-2.946V16.728a3.174,3.174,0,0,1-1.506-1.139,3.13,3.13,0,0,1,.334-4.02,3.125,3.125,0,0,1,5.339,2.214Z" transform="translate(192.631 499.093)" fill="#039" stroke="#44c8f5" stroke-width="0.3"/>
  </g>
</svg>
