<svg xmlns="http://www.w3.org/2000/svg" width="13.007" height="14.194" viewBox="0 0 13.007 14.194">
  <path id="Path_16105" data-name="Path 16105" d="M268.72,870.194a.59.59,0,0,1-.355-.118L266,868.3a.589.589,0,0,1-.237-.473V864.5l-4.149-4.668A2.306,2.306,0,0,1,263.339,856h8.4a2.307,2.307,0,0,1,1.723,3.837l-4.148,4.667v5.1a.592.592,0,0,1-.591.591Zm-1.774-2.661,1.183.887v-4.14a.59.59,0,0,1,.15-.393l4.3-4.836a1.124,1.124,0,0,0-.84-1.868h-8.4a1.123,1.123,0,0,0-.84,1.868l4.3,4.837a.592.592,0,0,1,.149.393Z" transform="translate(-261.033 -856)" fill="#039"/>
</svg>
