<svg xmlns="http://www.w3.org/2000/svg" width="30" height="30" viewBox="0 0 30 30">
  <g id="Group_20085" data-name="Group 20085" transform="translate(-32 -501)">
    <path id="Path_20844" data-name="Path 20844" d="M20.69,7.687h0L17.262,4.138a1.179,1.179,0,0,0-1.714,0,1.281,1.281,0,0,0,0,1.762l2.56,2.649L8.327,18.673l-2.56-2.649a1.178,1.178,0,0,0-1.7,0,1.281,1.281,0,0,0,0,1.775L7.458,21.31h0l3.393,3.512a1.188,1.188,0,0,0,.857.375,1.207,1.207,0,0,0,1.122-.77,1.282,1.282,0,0,0-.265-1.367l-2.523-2.612,9.779-10.123,2.56,2.649a1.179,1.179,0,0,0,1.708-.006,1.282,1.282,0,0,0-.006-1.768ZM4.065,21.322a1.183,1.183,0,0,0-1.714,0,1.286,1.286,0,0,0,0,1.775l3.417,3.537a1.195,1.195,0,0,0,1.714,0,1.281,1.281,0,0,0,0-1.775ZM25.8,5.9,22.381,2.363a1.183,1.183,0,0,0-1.714,0,1.286,1.286,0,0,0,0,1.775l3.417,3.537a1.179,1.179,0,0,0,1.714,0,1.281,1.281,0,0,0,0-1.775Z" transform="translate(33.004 502.504)" fill="#039" stroke="#44c8f5" stroke-width="0.3"/>
    <g id="Rectangle_9229" data-name="Rectangle 9229" transform="translate(32 501)" fill="none" stroke="#707070" stroke-width="0.5" opacity="0">
      <rect width="30" height="30" stroke="none"/>
      <rect x="0.25" y="0.25" width="29.5" height="29.5" fill="none"/>
    </g>
  </g>
</svg>
