<svg id="Group_20242" data-name="Group 20242" xmlns="http://www.w3.org/2000/svg" width="16" height="16" viewBox="0 0 16 16">
  <rect id="Rectangle_9262" data-name="Rectangle 9262" width="16" height="16" fill="none"/>
  <path id="Path_20861" data-name="Path 20861" d="M36.145,38.091l1.485-8.422a.491.491,0,0,1,.569-.4l3.386.6a.491.491,0,0,1,.4.569L40.491,38.9a2.21,2.21,0,0,1-2.518,1.8A2.245,2.245,0,0,1,36.145,38.091Z" transform="translate(-33.894 -27.467)" fill="none" stroke="#039" stroke-linecap="round" stroke-linejoin="round" stroke-width="1"/>
  <path id="Path_20862" data-name="Path 20862" d="M86.4,99.464l4.48-1.63a.491.491,0,0,1,.63.294l1.176,3.231a.491.491,0,0,1-.294.63l-8.077,2.94" transform="translate(-79.136 -91.799)" fill="none" stroke="#039" stroke-linecap="round" stroke-linejoin="round" stroke-width="1"/>
  <path id="Path_20863" data-name="Path 20863" d="M81.087,162.533v2.791a.491.491,0,0,1-.491.491H72" transform="translate(-67.58 -152.554)" fill="none" stroke="#039" stroke-linecap="round" stroke-linejoin="round" stroke-width="1"/>
  <ellipse id="Ellipse_1138" data-name="Ellipse 1138" cx="0.5" rx="0.5" transform="translate(4 11)" fill="none"/>
</svg>
