<svg xmlns="http://www.w3.org/2000/svg" width="24" height="24" viewBox="0 0 24 24">
  <g id="Group_20080" data-name="Group 20080" transform="translate(-32 -599)">
    <circle id="Ellipse_1128" data-name="Ellipse 1128" cx="12" cy="12" r="12" transform="translate(32 599)" fill="#f3f3f3"/>
    <g id="_8150379_retail_price_tag_price_tag_label_icon" data-name="8150379_retail_price_tag_price tag_label_icon" transform="translate(41.845 601.953) rotate(25)">
      <path id="Path_60" data-name="Path 60" d="M11.559,6.28l-1.31-5.134A1.467,1.467,0,0,0,8.084.2L3.516,2.841a1.467,1.467,0,0,0-.625.7L.113,10.019a1.491,1.491,0,0,0,.794,1.936l5.879,2.525a1.659,1.659,0,0,0,.589.12,1.479,1.479,0,0,0,1.347-.9L11.5,7.218A1.4,1.4,0,0,0,11.559,6.28Zm-.95.541L7.784,13.3a.433.433,0,0,1-.252.252.469.469,0,0,1-.361,0L1.291,11.017a.469.469,0,0,1-.3-.6l2.825-6.48a.421.421,0,0,1,.192-.216L8.589,1.11a.4.4,0,0,1,.228-.072.5.5,0,0,1,.18,0,.457.457,0,0,1,.277.313l1.335,5.182a.469.469,0,0,1,0,.289Z" transform="translate(0 0)" fill="#2161ff"/>
      <circle id="Ellipse_6" data-name="Ellipse 6" cx="1.094" cy="1.094" r="1.094" transform="translate(6.413 3.647)" fill="#2161ff"/>
    </g>
  </g>
</svg>
