<svg xmlns="http://www.w3.org/2000/svg" width="16.213" height="17.008" viewBox="0 0 16.213 17.008">
  <g id="Group_21005" data-name="Group 21005" transform="translate(-35.811 -12.622)">
    <path id="Path_20914" data-name="Path 20914" d="M44.346,248.92l-.72-.38-1.729-.914q-1.049-.554-2.1-1.11l-1.809-.955c-.293-.155-.584-.315-.88-.465l-.012-.007.422.735v-6.714c0-.31.005-.62,0-.929v-.012l-1.28.735.72.381,1.729.914,2.1,1.11,1.809.957c.293.155.584.315.88.465l.012.007L43.066,242v6.707c0,.31,0,.62,0,.929v.012a.886.886,0,0,0,.249.6.855.855,0,0,0,1.205,0,.883.883,0,0,0,.249-.6v-6.707c0-.31,0-.62,0-.929V242a.85.85,0,0,0-.422-.735l-.72-.381-1.729-.914-2.1-1.11-1.809-.957c-.293-.155-.586-.313-.88-.465l-.012-.007a.87.87,0,0,0-.86,0,.858.858,0,0,0-.422.735v6.714c0,.31,0,.62,0,.929v.012a.848.848,0,0,0,.422.735l.72.38,1.729.914q1.049.554,2.1,1.11l1.81.955c.293.155.586.313.88.465l.012.007a.9.9,0,0,0,.655.085.87.87,0,0,0,.509-.392.858.858,0,0,0,.085-.655A.849.849,0,0,0,44.346,248.92Z" transform="translate(0 -220.875)" fill="#dedfe4"/>
    <path id="Path_20915" data-name="Path 20915" d="M469.588,245.287l-.72.38-1.729.914q-1.049.554-2.1,1.11l-1.809.955c-.293.155-.589.3-.88.465l-.012.007,1.28.735v-6.707c0-.31.005-.62,0-.929V242.2c-.141.245-.281.49-.422.735l.72-.381,1.729-.914,2.1-1.11,1.81-.957c.293-.155.589-.306.88-.465l.012-.007-1.28-.735v6.714c0,.31,0,.62,0,.929v.012a.886.886,0,0,0,.249.6.855.855,0,0,0,1.205,0,.883.883,0,0,0,.249-.6v-6.714c0-.31,0-.62,0-.929v-.012a.86.86,0,0,0-.422-.735.87.87,0,0,0-.86,0l-.72.381-1.729.914-2.1,1.11-1.809.957c-.293.155-.591.3-.88.465l-.012.007a.846.846,0,0,0-.422.735v6.707c0,.31,0,.62,0,.929v.012a.86.86,0,0,0,.422.735.874.874,0,0,0,.86,0l.72-.38,1.729-.914q1.049-.554,2.1-1.11l1.81-.955c.293-.155.591-.3.88-.465l.012-.007a.851.851,0,0,0-.858-1.471Z" transform="translate(-418.847 -221.072)" fill="#dedfe4"/>
    <path id="Path_20916" data-name="Path 20916" d="M51.075,16.562l-.72.381-1.729.914-2.1,1.11-1.81.957c-.293.155-.589.306-.88.465l-.012.007h.86l-.72-.381L42.233,19.1l-2.1-1.11-1.809-.957c-.293-.155-.584-.315-.88-.465l-.012-.007v1.469l.72-.38,1.729-.914,2.1-1.11q.9-.477,1.81-.957c.293-.155.589-.306.88-.465l.012-.007h-.86l.72.38,1.729.914,2.1,1.11q.9.477,1.809.957c.293.155.586.313.88.465l.012.007a.9.9,0,0,0,.655.085.87.87,0,0,0,.509-.392.852.852,0,0,0-.306-1.164l-.73-.385-1.735-.916-2.109-1.113-1.8-.953c-.289-.153-.577-.312-.868-.458a.9.9,0,0,0-.552-.106.947.947,0,0,0-.327.107c-.032.017-.063.034-.1.049l-.449.237-1.641.866-2.09,1.1-1.888,1q-.516.273-1.032.545l-.048.026a.856.856,0,0,0,0,1.469l.73.386,1.735.918L41.14,20.45l1.8.953c.289.153.577.312.868.46a.9.9,0,0,0,.552.106.947.947,0,0,0,.327-.107c.032-.017.063-.034.1-.049l.449-.237,1.641-.868,2.09-1.1,1.888-1,1.032-.546.048-.026a.851.851,0,0,0-.858-1.471Z" transform="translate(-0.333 0)" fill="#dedfe4"/>
    <path id="Path_20917" data-name="Path 20917" d="M250.4,130.686l.72-.381,1.729-.914,2.1-1.11,1.81-.957c.293-.155.591-.3.88-.465l.012-.007a.851.851,0,1,0-.858-1.469l-.72.381-1.729.914-2.1,1.11-1.81.957c-.293.155-.591.3-.88.465l-.012.007a.851.851,0,1,0,.858,1.469Z" transform="translate(-209.676 -110.735)" fill="#dedfe4"/>
  </g>
</svg>
