<svg xmlns="http://www.w3.org/2000/svg" xmlns:xlink="http://www.w3.org/1999/xlink" width="16.805" height="23" viewBox="0 0 16.805 23">
  <defs>
    <linearGradient id="linear-gradient" x1="0.5" x2="0.5" y2="0.999" gradientUnits="objectBoundingBox">
      <stop offset="0" stop-color="#ededed"/>
      <stop offset="1" stop-color="#9ddff8"/>
    </linearGradient>
  </defs>
  <g id="Group_20861" data-name="Group 20861" transform="translate(6664 7494)">
    <g id="Group_20860" data-name="Group 20860" transform="translate(-6664 -7493.998)">
      <g id="Layer_3" data-name="Layer 3" transform="translate(0 0)">
        <path id="Path_20948" data-name="Path 20948" d="M29.986,15.233a23.8,23.8,0,0,1-7.261,0,.422.422,0,0,0-.485.422V33.822a.422.422,0,0,0,.338.422,18.927,18.927,0,0,0,7.561,0,.422.422,0,0,0,.338-.422V15.65a.422.422,0,0,0-.489-.418Z" transform="translate(-17.955 -11.628)" fill="url(#linear-gradient)"/>
        <path id="Path_20949" data-name="Path 20949" d="M28.577,21.136,26.507,19.36a.357.357,0,0,0-.519.055A6.064,6.064,0,0,1,23.453,21.4a6.138,6.138,0,0,1-2.535-1.983.357.357,0,0,0-.519-.055l-2.069,1.776a.451.451,0,0,0-.1.553l1.317,2.772a.366.366,0,0,0,.493.19,7.723,7.723,0,0,1,6.854-.008.352.352,0,0,0,.153.038.379.379,0,0,0,.34-.228l1.3-2.763A.451.451,0,0,0,28.577,21.136Z" transform="translate(-15.05 -12.991)" fill="none"/>
        <path id="Path_20950" data-name="Path 20950" d="M29.986,54.233a23.8,23.8,0,0,1-7.261,0,.422.422,0,0,0-.485.422v1.713a.422.422,0,0,0,.338.422,18.927,18.927,0,0,0,7.561,0,.422.422,0,0,0,.338-.422V54.65a.422.422,0,0,0-.489-.418Z" transform="translate(-17.955 -34.173)" fill="none"/>
        <path id="Path_20951" data-name="Path 20951" d="M30.723,43.65a.422.422,0,0,0-.338-.1,17.142,17.142,0,0,1-5.13,0,.422.422,0,0,0-.485.422v2.371a.422.422,0,0,0,.359.422,17.99,17.99,0,0,0,5.384,0,.422.422,0,0,0,.359-.422V43.971a.422.422,0,0,0-.148-.321Z" transform="translate(-19.418 -27.71)" fill="none"/>
        <path id="Path_20952" data-name="Path 20952" d="M27.664,4.007a2.121,2.121,0,0,1-1.431,0c-.663-.329-1.716-1.548-2.757-.473-.858.886-.944,3.067-2.047,3.08s-1.17-2.181-2.055-3.08c-1.041-1.076-2.1.148-2.757.473a2.121,2.121,0,0,1-1.431,0,.369.369,0,0,0-.405.1.447.447,0,0,0-.094.438s.507,1.65.757,2.81a26.947,26.947,0,0,1,.331,3.236c0,.152.023.11.655,1.532a.387.387,0,0,0,.36.23.392.392,0,0,0,.345-.255c.667-1.772,2.465-1.709,3.779-1.688,1.724.059,4-.422,4.785,1.688a.393.393,0,0,0,.349.265.388.388,0,0,0,.364-.239l.616-1.363c.082-.177.082-2.042.39-3.4.25-1.16.749-2.8.757-2.81a.447.447,0,0,0-.1-.447.368.368,0,0,0-.416-.089Z" transform="translate(-13.022 -3.1)" fill="none"/>
        <path id="Path_20953" data-name="Path 20953" d="M25.011,20.043a.591.591,0,0,0-.621-.211c-.467.165-.649.81-.946,1.873a17.085,17.085,0,0,1-.922,2.662c-.855,1.818-2.125,1.852-3.348,1.882a3.062,3.062,0,0,1-3.356-1.882,17.084,17.084,0,0,1-.922-2.662c-.3-1.063-.479-1.709-.946-1.873a.591.591,0,0,0-.621.211c-.993.987-3.337,6.177-2.3,10.594.871,3.713,2.842,4.392,3.645,4.51.59.084,1.377,0,1.654-.54.4-.7.728-3.464,2.842-3.464s2.458,2.755,2.842,3.464c.566,1.059,4.108,1.118,5.3-3.97C28.356,26.219,26.013,21.03,25.011,20.043Z" transform="translate(-10.771 -14.277)" fill="#9ddff8"/>
      </g>
    </g>
    <path id="Layer_4" data-name="Layer 4" d="M24.924,9.856a19.876,19.876,0,0,1,.321-2.77C25.5,6,26,4.462,26.012,4.45a.4.4,0,0,0-.507-.5,2.319,2.319,0,0,1-1.453,0,4.255,4.255,0,0,1-.526-.293c-.574-.372-1.437-.934-2.276-.135S20.293,6.4,19.173,6.409,17.986,4.363,17.087,3.52s-1.7-.237-2.276.135a1.92,1.92,0,0,1-1.979.293.4.4,0,0,0-.507.5S12.84,6,13.094,7.086a19.876,19.876,0,0,1,.321,2.77c-.028.024-.059.044-.087.071-.993.926-3.336,5.794-2.3,9.938.871,3.483,2.842,4.12,3.645,4.231a2.9,2.9,0,0,0,.633,0v1.227a.4.4,0,0,0,.317.4,17.831,17.831,0,0,0,7.093,0,.4.4,0,0,0,.317-.4V24.108a2.632,2.632,0,0,0,.633,0c.792-.111,2.771-.748,3.645-4.231C28.335,15.777,26.024,10.691,24.924,9.856Zm-2.252,3.8a9.5,9.5,0,0,0-7,0,17.711,17.711,0,0,1-.792-2.236,2.232,2.232,0,0,1,1.187-1.144,6.613,6.613,0,0,0,3.059,2.011.519.519,0,0,0,.111,0A6.511,6.511,0,0,0,22.3,10.272a2.216,2.216,0,0,1,1.187,1.144A17.711,17.711,0,0,1,22.672,13.652Zm-.364.708c-.843,1.33-2.011,1.361-3.135,1.389A3.148,3.148,0,0,1,16.03,14.36a8.652,8.652,0,0,1,6.277,0Zm-5.383-4.334a9.978,9.978,0,0,1,1.738-.055,24.785,24.785,0,0,1,2.771.055,5.389,5.389,0,0,1-2.26,1.464A5.28,5.28,0,0,1,16.925,10.026ZM15.247,4.319c.661-.431.946-.562,1.294-.23.724.693.835,3.087,2.636,3.111S21.089,4.774,21.8,4.09c.348-.332.633-.2,1.294.23a2.505,2.505,0,0,0,1.951.53c-.174.558-.42,1.381-.578,2.058a21.157,21.157,0,0,0-.344,2.984,1.555,1.555,0,0,0-.336.546c-1.073-1.35-2.945-1.294-4.136-1.259-1.516.047-3.823-.352-5.1,1.259a1.555,1.555,0,0,0-.336-.546,21.158,21.158,0,0,0-.344-2.984c-.158-.677-.4-1.5-.578-2.058a2.517,2.517,0,0,0,1.951-.53Zm1.646,17.83a16.493,16.493,0,0,0,4.559,0c.182.4.372,1.025.479,1.274a22.184,22.184,0,0,1-5.517,0c.127-.3.265-.788.479-1.274Zm.4-.744a2.193,2.193,0,0,1,3.76,0,16.144,16.144,0,0,1-3.756,0ZM22.24,25.01a16.865,16.865,0,0,1-6.143,0v-.827a23.13,23.13,0,0,0,6.143,0Zm4.306-5.331c-.677,2.7-2.019,3.408-2.771,3.594a1.425,1.425,0,0,1-1.092-.071c-.293-.515-.792-3.649-3.526-3.649s-3.238,3.131-3.519,3.637a1.381,1.381,0,0,1-1.1.083c-.736-.186-2.078-.894-2.771-3.594-.97-3.879,1.243-8.208,1.979-9.063a9.78,9.78,0,0,1,.376,1.1,15.906,15.906,0,0,0,.962,2.6h0c1.1,2.145,2.822,2.189,4.088,2.216,1.259-.032,2.98-.071,4.049-2.2h0a15.907,15.907,0,0,0,.962-2.6c.123-.4.265-.887.368-1.116C25.288,11.439,27.52,15.781,26.547,19.679Z" transform="translate(-6674.771 -7497.094)" fill="#039"/>
  </g>
</svg>
