<svg id="Group_12984" data-name="Group 12984" xmlns="http://www.w3.org/2000/svg" width="15" height="15" viewBox="0 0 15 15">
  <g id="Path" fill="none">
    <path d="M7.5,0A7.5,7.5,0,1,0,15,7.5,7.5,7.5,0,0,0,7.5,0Z" stroke="none"/>
    <path d="M 7.500001907348633 1.000001907348633 C 3.915891647338867 1.000001907348633 1.000001907348633 3.915891647338867 1.000001907348633 7.500001907348633 C 1.000001907348633 11.0841121673584 3.915891647338867 14.00000190734863 7.500001907348633 14.00000190734863 C 11.0841121673584 14.00000190734863 14.00000190734863 11.0841121673584 14.00000190734863 7.500001907348633 C 14.00000190734863 3.915891647338867 11.0841121673584 1.000001907348633 7.500001907348633 1.000001907348633 M 7.500001907348633 1.9073486328125e-06 C 11.64000225067139 1.9073486328125e-06 15.00000190734863 3.360001564025879 15.00000190734863 7.500001907348633 C 15.00000190734863 11.64000225067139 11.64000225067139 15.00000190734863 7.500001907348633 15.00000190734863 C 3.360001564025879 15.00000190734863 1.9073486328125e-06 11.64000225067139 1.9073486328125e-06 7.500001907348633 C 1.9073486328125e-06 3.360001564025879 3.360001564025879 1.9073486328125e-06 7.500001907348633 1.9073486328125e-06 Z" stroke="none" fill="#dedede"/>
  </g>
  <path id="Path-2" data-name="Path" d="M2.817,5.871,0,3.054l.794-.794L2.817,4.276,7.094,0l.794.8Z" transform="translate(3.948 4.737)" fill="#dedede"/>
</svg>
