<svg xmlns="http://www.w3.org/2000/svg" width="46" height="46" viewBox="0 0 46 46">
  <g id="Group_27844" data-name="Group 27844" transform="translate(-265 -147)">
    <circle id="Ellipse_310" data-name="Ellipse 310" cx="23" cy="23" r="23" transform="translate(265 147)" fill="#d9f5ff"/>
    <g id="Group_27843" data-name="Group 27843" transform="translate(9074.613 5146)">
      <path id="Subtraction_1" data-name="Subtraction 1" d="M13.679,22.577H2.059a1.53,1.53,0,0,0,.127-1.184H2.5l1.254-1.28v-7.8C3.324,11.7,3,11.289,2.5,11.289H0V1.81A1.764,1.764,0,0,1,1.71,0H11.969a1.764,1.764,0,0,1,1.71,1.81V22.576Zm-3.42-14.6A1.14,1.14,0,1,0,11.4,9.12,1.141,1.141,0,0,0,10.259,7.979Z" transform="translate(-8789.184 -4987)" fill="#44c8f5" stroke="#039" stroke-width="0.7"/>
      <path id="Icon_metro-truck" data-name="Icon metro-truck" d="M2.571,11.322,4.084,8.157h2.27V6.575a.777.777,0,0,1,.757-.791h6.81a.777.777,0,0,1,.757.791V12.9l-.757.791h-.96a1.63,1.63,0,0,1,.2.791,1.515,1.515,0,1,1-3.027,0,1.63,1.63,0,0,1,.2-.791H6.151a1.63,1.63,0,0,1,.2.791,1.549,1.549,0,0,1-1.513,1.582,1.549,1.549,0,0,1-1.513-1.582,1.63,1.63,0,0,1,.2-.791h-.96V11.322Zm3.783,0V8.949H4.786L3.651,11.322Z" transform="translate(-8801.184 -4980.491)" fill="#44c8f5" stroke="#039" stroke-width="0.5"/>
    </g>
  </g>
</svg>
