<svg xmlns="http://www.w3.org/2000/svg" width="46" height="46" viewBox="0 0 46 46">
  <g id="Group_27845" data-name="Group 27845" transform="translate(-159 -169)">
    <circle id="Ellipse_321" data-name="Ellipse 321" cx="23" cy="23" r="23" transform="translate(159 169)" fill="#d9f5ff"/>
    <path id="Icon_material-local-offer" data-name="Icon material-local-offer" d="M26.292,14.5,15.492,3.7A2.385,2.385,0,0,0,13.8,3H5.4A2.407,2.407,0,0,0,3,5.4v8.4a2.4,2.4,0,0,0,.708,1.7l10.8,10.8A2.385,2.385,0,0,0,16.2,27a2.346,2.346,0,0,0,1.692-.708l8.4-8.4A2.346,2.346,0,0,0,27,16.2a2.424,2.424,0,0,0-.708-1.7ZM7.2,9A1.8,1.8,0,1,1,9,7.2,1.8,1.8,0,0,1,7.2,9Z" transform="translate(167.5 177.5)" fill="#44c8f5" stroke="#039" stroke-width="0.7"/>
  </g>
</svg>
