<svg xmlns="http://www.w3.org/2000/svg" width="46" height="46" viewBox="0 0 46 46">
  <g id="Group_20050" data-name="Group 20050" transform="translate(-270 -258)">
    <circle id="Ellipse_322" data-name="Ellipse 322" cx="23" cy="23" r="23" transform="translate(270 258)" fill="#d9f5ff"/>
    <g id="Group_20048" data-name="Group 20048" transform="translate(19078 -8708)">
      <path id="Path_20831" data-name="Path 20831" d="M59.858,28a1.923,1.923,0,1,0,1.86,1.922A1.891,1.891,0,0,0,59.858,28ZM56.138,41.452A1.923,1.923,0,1,0,58,43.374,1.891,1.891,0,0,0,56.138,41.452Zm2.088.322a2.713,2.713,0,0,1,.355.679,6.5,6.5,0,0,0,3.686-4.436,6.727,6.727,0,0,0-1.2-5.713,2.525,2.525,0,0,1-.755.265,5.932,5.932,0,0,1,1.263,5.158,5.742,5.742,0,0,1-3.344,4.046Zm-2.512-7.759L51.978,30l-.5-.538a.328.328,0,0,0-.091-.071.4.4,0,0,0-.1-.038.311.311,0,0,0-.073-.008.363.363,0,0,0-.258.108.394.394,0,0,0-.009.544l1.376,1.478-2.059,2.1a.878.878,0,0,0-.022,1.22l.768.815a.841.841,0,0,0,1.194.025l2.046-2.093,1.346,1.447a.47.47,0,0,0,.058.05.366.366,0,0,0,.363.033.4.4,0,0,0,.048-.027A.343.343,0,0,0,56.118,35a.394.394,0,0,0,.009-.544Z" transform="translate(-18840.887 8953.783)" fill="#00307f"/>
      <path id="Path_20832" data-name="Path 20832" d="M53.852.536,53.743.4,53.726.384A1.244,1.244,0,0,0,52.851,0a1.219,1.219,0,0,0-.889.351L50.507,1.761a1.675,1.675,0,0,0-.9-.262,1.694,1.694,0,0,0-1.185.484l-4.828,4.7,3.767,3.917,1.727-1.678a2.663,2.663,0,0,1-.521-.812,2.589,2.589,0,0,1-.191-.981A2.628,2.628,0,0,1,51,4.5a2.6,2.6,0,0,1,1.357.382l0,0a3.182,3.182,0,0,1,.278.193,1.752,1.752,0,0,0-.261-1.393L53.8,2.3A1.262,1.262,0,0,0,53.852.536Zm-5.587,4.6L46.389,7.012a.374.374,0,0,1-.529-.529l1.875-1.875a.374.374,0,1,1,.529.529Zm5.019-3.379L51.877,3.124l-.814-.859L52.483.887a.475.475,0,0,1,.352-.139.5.5,0,0,1,.339.144l.1.129.017.021A.51.51,0,0,1,53.284,1.759Zm-.971,19.614H49.756A8.444,8.444,0,0,0,53.558,7.7a2.605,2.605,0,0,1-.319.782,7.7,7.7,0,0,1-3.383,12.065h0a2.623,2.623,0,0,1-5.126.422c0-.016-.008-.032-.012-.048-.015-.057-.031-.114-.042-.173-.015-.077-.028-.155-.036-.234a7.66,7.66,0,0,1-4.13-3.647h1.18a6.439,6.439,0,0,0,3.072,2.546,2.6,2.6,0,0,1,.13-.316l.022-.046c.023-.044.047-.088.072-.13l.034-.057c.026-.042.053-.085.081-.125a5.683,5.683,0,0,1-2.5-1.871h1.271a.375.375,0,0,0,0-.75H39v.75h.675a8.408,8.408,0,0,0,5.143,4.5H41.437A1.126,1.126,0,0,0,40.312,22.5v.375A1.126,1.126,0,0,0,41.437,24H52.312a1.126,1.126,0,0,0,1.125-1.125V22.5a1.126,1.126,0,0,0-1.125-1.125Z" transform="translate(-18832 8977.002)" fill="#2dbff3" stroke="#00307f" stroke-width="0.5"/>
    </g>
  </g>
</svg>
