<svg xmlns="http://www.w3.org/2000/svg" width="30" height="30" viewBox="0 0 30 30">
  <g id="Group_20083" data-name="Group 20083" transform="translate(-32 -330)">
    <g id="Group_20082" data-name="Group 20082" transform="translate(34 333)">
      <path id="Path_20839" data-name="Path 20839" d="M246.553,32.3h0a6.323,6.323,0,0,0-4.561,1.963,6.832,6.832,0,0,0-1.892,4.732v.979a.647.647,0,1,0,1.294,0v-.979a5.463,5.463,0,0,1,1.51-3.786,5.06,5.06,0,0,1,3.65-1.566A5.26,5.26,0,0,1,251.713,39v5.134h-6.189a.672.672,0,0,0,0,1.342h6.194v5.134a5.473,5.473,0,0,1-1.51,3.786,5.051,5.051,0,0,1-3.65,1.566,5,5,0,0,1-2.367-.593.636.636,0,0,0-.868.285.684.684,0,0,0,.275.9,6.232,6.232,0,0,0,2.96.744,6.323,6.323,0,0,0,4.561-1.963,6.832,6.832,0,0,0,1.892-4.732V38.995A6.586,6.586,0,0,0,246.553,32.3Z" transform="translate(-228.006 -32.3)" fill="#039"/>
      <path id="Path_20840" data-name="Path 20840" d="M40.35,187.9a7.85,7.85,0,1,0,0,15.7h0a7.85,7.85,0,1,0,0-15.7Zm0,1.288a6.566,6.566,0,0,1,6.529,5.914H33.821A6.566,6.566,0,0,1,40.35,189.188Zm0,13.122a6.566,6.566,0,0,1-6.529-5.914H46.878A6.566,6.566,0,0,1,40.35,202.311Z" transform="translate(-32.5 -178.61)" fill="#44c8f5"/>
    </g>
    <g id="Rectangle_9230" data-name="Rectangle 9230" transform="translate(32 330)" fill="none" stroke="#707070" stroke-width="0.5" opacity="0">
      <rect width="30" height="30" stroke="none"/>
      <rect x="0.25" y="0.25" width="29.5" height="29.5" fill="none"/>
    </g>
  </g>
</svg>
