<svg xmlns="http://www.w3.org/2000/svg" width="20" height="20" viewBox="0 0 20 20">
  <g id="Group_20978" data-name="Group 20978" transform="translate(-32 -789)">
    <circle id="Ellipse_1131" data-name="Ellipse 1131" cx="10" cy="10" r="10" transform="translate(32 789)" fill="#f3f3f3"/>
    <g id="Group_19972" data-name="Group 19972" transform="translate(503 1667)">
      <g id="_2998123_ecology_green_leaf_plant_spring_icon" data-name="2998123_ecology_green_leaf_plant_spring_icon" transform="translate(-468.858 -874.623)">
        <path id="Path_50" data-name="Path 50" d="M13.65,9.682s3.11.467,4.743-1.866l.428-.4-.428-.14.622-.758-.156-.272.525-.739-.214-.3.467-1.622-.175-.136a17.684,17.684,0,0,0,.35-2.566s-.816.855-1.166.816l-.35-.039-.972.642s-.719-.486-1.186.019c0,0-.778.019-.816.428a.522.522,0,0,0-.816.175l-.6.564-.175-.33a6.189,6.189,0,0,0-1.4,4.685A4.375,4.375,0,0,0,13.65,9.682Z" transform="translate(-5.708 -0.28)" fill="#206608"/>
        <path id="Path_51" data-name="Path 51" d="M1.914,11.97s6.007.855,4.646,4.86c0,0-2.858,1.555-3.985-2.566a14.706,14.706,0,0,0-.519-1.991A1.994,1.994,0,0,0,1.914,11.97Z" transform="translate(-0.271 -6.106)" fill="#91de14"/>
        <path id="Path_52" data-name="Path 52" d="M19.81.876,16.7,5.464l-2,2.275L13.351,9.721s-1.484-1.593-1.257-2.9a7,7,0,0,1,1.367-3.474l.162-.2.175.33.6-.564s.369-.583.758-.058c0,0,.351-.589.778-.538,0,0,.738-.687,1.283-.026l.972-.642.233.117L19.708.876h.1Z" transform="translate(-5.604 -0.28)" fill="#3bb417"/>
        <path id="Path_53" data-name="Path 53" d="M2.395,12.42s3.4,3.689,4.345,4.68c0,0-3.032,1.546-4.01-3A13.053,13.053,0,0,1,2.395,12.42Z" transform="translate(-0.523 -6.342)" fill="#3bb417"/>
        <path id="Path_54" data-name="Path 54" d="M14.023,3.079l-.013-.009a8.959,8.959,0,0,0,.3-2.55A.186.186,0,0,0,13.985.4a3.644,3.644,0,0,1-1.134.881l-.108-.059a.188.188,0,0,0-.183,0l-.99.577a.666.666,0,0,0-.314-.194,1.224,1.224,0,0,0-1.021.3,1.188,1.188,0,0,0-.669.354.52.52,0,0,0-.262-.12.77.77,0,0,0-.679.357l-.4.373L8.2,2.83a.187.187,0,0,0-.148-.094.183.183,0,0,0-.161.07A9.223,9.223,0,0,0,7.042,4.02c-.02.032-1.957,3.1.538,5.383a5.632,5.632,0,0,0-.313,2.353c-.223-.322-.477-.655-.75-.989a3.407,3.407,0,0,0-.83-3.4A8.686,8.686,0,0,0,1.608,5.737a.189.189,0,0,0-.189.1.187.187,0,0,0,.031.212,5.938,5.938,0,0,1,.532,1.615,11.286,11.286,0,0,0,.51,1.691A3.113,3.113,0,0,0,4.28,11.169a2.487,2.487,0,0,0,.783.123,3.041,3.041,0,0,0,1.191-.254,10.773,10.773,0,0,1,1.167,1.676h0a7.21,7.21,0,0,0,.507,1.44.187.187,0,0,0,.169.107.184.184,0,0,0,.08-.018A.187.187,0,0,0,8.267,14,5.708,5.708,0,0,1,7.9,9.635c.007,0,.012.007.019.007s.094.005.217.005a6.446,6.446,0,0,0,4.44-1.7l.209-.2a.187.187,0,0,0,.058-.143,1.377,1.377,0,0,0,.408-.473.187.187,0,0,0-.14-.267,2,2,0,0,0,.436-.907.185.185,0,0,0-.022-.1,1.764,1.764,0,0,0,.352-.854.188.188,0,0,0-.073-.151.191.191,0,0,0-.106-.039,5.52,5.52,0,0,0,.4-1.605A.191.191,0,0,0,14.023,3.079ZM4.4,10.815A2.76,2.76,0,0,1,2.831,9.2a11.121,11.121,0,0,1-.488-1.627,11.657,11.657,0,0,0-.408-1.407,7.871,7.871,0,0,1,3.5,1.478,3.07,3.07,0,0,1,.8,2.782c-.217-.254-.44-.5-.664-.75A3.567,3.567,0,0,1,5.343,7.97.187.187,0,0,0,4.976,7.9a3.162,3.162,0,0,0,.038,1.183c-.164-.171-.323-.334-.478-.491,0,0,0,0,0-.007a2.722,2.722,0,0,1-.2-1.431.187.187,0,1,0-.361-.1,2.211,2.211,0,0,0,.012.984c-.557-.546-.961-.913-1.009-.957a.187.187,0,0,0-.251.277c.011.01.388.354.927.88A3.8,3.8,0,0,0,2.942,8.1a.187.187,0,1,0-.02.373,6.654,6.654,0,0,1,1.3.331q.262.264.542.557a5.1,5.1,0,0,0-1.02-.23.193.193,0,0,0-.2.176.187.187,0,0,0,.176.2,8.14,8.14,0,0,1,1.574.429c.24.262.477.53.707.8A2.423,2.423,0,0,1,4.4,10.815Zm9.23-7.45a.185.185,0,0,0,.081.055,8.961,8.961,0,0,1-.488,1.6.186.186,0,0,0,.035.194.189.189,0,0,0,.177.058,2.861,2.861,0,0,1-.421.646.187.187,0,0,0-.01.233.189.189,0,0,0,.083.064,3.521,3.521,0,0,1-.5.708.187.187,0,0,0,.126.312A1.568,1.568,0,0,1,12.3,7.5a.187.187,0,0,0-.108.226.18.18,0,0,0,.027.054A6.269,6.269,0,0,1,8.034,9.272,5.022,5.022,0,0,1,9.052,7.714l2.621-.739a.187.187,0,0,0-.1-.359l-1.917.54a10.886,10.886,0,0,0,1.433-1.629.217.217,0,0,0,.025-.007L12.5,4.712a.187.187,0,0,0-.188-.323l-.782.455a5.813,5.813,0,0,0,.821-2.2.187.187,0,0,0-.17-.2.191.191,0,0,0-.2.17,5.7,5.7,0,0,1-.81,2.1l-.085-1.487a.183.183,0,0,0-.2-.176.186.186,0,0,0-.176.2l.114,2A10.568,10.568,0,0,1,9.194,7.072l.063-1.938a.186.186,0,0,0-.18-.193.191.191,0,0,0-.192.18L8.809,7.428a5.376,5.376,0,0,0-1.076,1.6c-2.1-2.051-.452-4.686-.363-4.827a7.012,7.012,0,0,1,.639-.939l0,.007a.187.187,0,0,0,.289.045l.594-.55c.139-.167.268-.256.354-.244s.15.119.166.155a.184.184,0,0,0,.179.113.188.188,0,0,0,.17-.126c.1-.3.491-.371.579-.385a.186.186,0,0,0,.077-.034c.379-.281.6-.3.729-.27a.3.3,0,0,1,.19.155.187.187,0,0,0,.113.107.191.191,0,0,0,.154-.015l1.05-.613.072.039a.2.2,0,0,0,.1.022A2.443,2.443,0,0,0,13.941.972a9.506,9.506,0,0,1-.351,2.217A.189.189,0,0,0,13.627,3.365Z" transform="translate(0 0)" fill="rgba(8,35,108,0.98)"/>
      </g>
    </g>
  </g>
</svg>
