<svg xmlns="http://www.w3.org/2000/svg" width="20" height="20" viewBox="0 0 20 20">
  <g id="Group_20238" data-name="Group 20238" transform="translate(-28 -1523)">
    <circle id="Ellipse_1132" data-name="Ellipse 1132" cx="10" cy="10" r="10" transform="translate(28 1523)" fill="#f3f3f3"/>
    <g id="_4900429_capsule_drugs_medicine_pills_tablets_icon" data-name="4900429_capsule_drugs_medicine_pills_tablets_icon" transform="translate(33.025 1528.275)">
      <path id="Path_1" data-name="Path 1" d="M35,34.805A1.4,1.4,0,1,0,35,32H34v2.805Z" transform="translate(-27.188 -25.544)" fill="#a6c7ff"/>
      <path id="Path_2" data-name="Path 2" d="M1.5,25.5H4.305v2.805H1.5" transform="translate(-1.201 -20.346)" fill="#a6c7ff"/>
      <path id="Path_3" data-name="Path 3" d="M7.609,2.805H3.6A.6.6,0,0,1,3,2.2V.6A.6.6,0,0,1,3.6,0H7.609a.6.6,0,0,1,.6.6V2.2A.6.6,0,0,1,7.609,2.805ZM3.8,2H7.408V.8H3.8Z" transform="translate(-2.4 0.044)" fill="#2161ff"/>
      <path id="Path_4" data-name="Path 4" d="M5.611,19.214H.6a.6.6,0,0,1-.6-.6V14.18a1.2,1.2,0,0,1,.821-1.14l.381-.126V12H2v1.2a.4.4,0,0,1-.275.381l-.653.22A.4.4,0,0,0,.8,14.18v4.232H5.611Z" transform="translate(-0.001 -9.551)" fill="#2161ff"/>
      <path id="Path_5" data-name="Path 5" d="M24,16.208h-.8V14.18a.4.4,0,0,0-.275-.377l-.653-.22A.4.4,0,0,1,22,13.2V12h.8v.914l.381.126A1.2,1.2,0,0,1,24,14.18Z" transform="translate(-17.593 -9.551)" fill="#2161ff"/>
      <path id="Path_6" data-name="Path 6" d="M23.807,33.607h-2A1.8,1.8,0,1,1,21.8,30h2a1.8,1.8,0,1,1,0,3.607Zm-2-2.805a1,1,0,0,0,0,2h2a1,1,0,0,0,0-2Z" transform="translate(-15.993 -23.944)" fill="#2161ff"/>
      <rect id="Rectangle_2" data-name="Rectangle 2" width="10" height="10" transform="translate(-0.025 -0.275)" fill="none"/>
    </g>
  </g>
</svg>
