<?xml version="1.0" encoding="UTF-8" standalone="no"?>
<!DOCTYPE svg PUBLIC "-//W3C//DTD SVG 1.1//EN"
 "http://www.w3.org/Graphics/SVG/1.1/DTD/svg11.dtd">
<!-- Generated by graphviz version 2.47.3 (20210619.1520)
 -->
<!-- Title: dependencies Pages: 1 -->
<svg width="522pt" height="174pt"
 viewBox="0.00 0.00 522.00 173.80" xmlns="http://www.w3.org/2000/svg" xmlns:xlink="http://www.w3.org/1999/xlink">
<g id="graph0" class="graph" transform="scale(1 1) rotate(0) translate(4 169.8)">
<title>dependencies</title>
<polygon fill="white" stroke="transparent" points="-4,4 -4,-169.8 518,-169.8 518,4 -4,4"/>
<text text-anchor="middle" x="257" y="-8.2" font-family="sans-serif" font-size="14.00">dependencies</text>
<g id="clust1" class="cluster">
<title>cluster_GoldPageModule</title>
<polygon fill="none" stroke="black" stroke-dasharray="1,5" points="8,-32.8 8,-157.8 506,-157.8 506,-32.8 8,-32.8"/>
</g>
<g id="clust4" class="cluster">
<title>cluster_GoldPageModule_imports</title>
<polygon fill="none" stroke="black" points="112,-40.8 112,-92.8 498,-92.8 498,-40.8 112,-40.8"/>
</g>
<g id="clust2" class="cluster">
<title>cluster_GoldPageModule_declarations</title>
<polygon fill="none" stroke="black" points="16,-40.8 16,-92.8 104,-92.8 104,-40.8 16,-40.8"/>
</g>
<!-- GoldPage -->
<g id="node1" class="node">
<title>GoldPage</title>
<polygon fill="#ffffb3" stroke="black" points="95.71,-84.8 24.29,-84.8 24.29,-48.8 95.71,-48.8 95.71,-84.8"/>
<text text-anchor="middle" x="60" y="-62.6" font-family="Times,serif" font-size="14.00">GoldPage</text>
</g>
<!-- GoldPageModule -->
<g id="node2" class="node">
<title>GoldPageModule</title>
<polygon fill="#8dd3c7" stroke="black" points="328.26,-149.8 325.26,-153.8 304.26,-153.8 301.26,-149.8 213.74,-149.8 213.74,-113.8 328.26,-113.8 328.26,-149.8"/>
<text text-anchor="middle" x="271" y="-127.6" font-family="Times,serif" font-size="14.00">GoldPageModule</text>
</g>
<!-- GoldPage&#45;&gt;GoldPageModule -->
<g id="edge1" class="edge">
<title>GoldPage&#45;&gt;GoldPageModule</title>
<path fill="none" stroke="black" d="M60,-84.91C60,-104.14 60,-131.8 60,-131.8 60,-131.8 203.62,-131.8 203.62,-131.8"/>
<polygon fill="black" stroke="black" points="203.62,-135.3 213.62,-131.8 203.62,-128.3 203.62,-135.3"/>
</g>
<!-- CoreModule -->
<g id="node3" class="node">
<title>CoreModule</title>
<polygon fill="#8dd3c7" stroke="black" points="490.26,-84.8 487.26,-88.8 466.26,-88.8 463.26,-84.8 403.74,-84.8 403.74,-48.8 490.26,-48.8 490.26,-84.8"/>
<text text-anchor="middle" x="447" y="-62.6" font-family="Times,serif" font-size="14.00">CoreModule</text>
</g>
<!-- CoreModule&#45;&gt;GoldPageModule -->
<g id="edge2" class="edge">
<title>CoreModule&#45;&gt;GoldPageModule</title>
<path fill="none" stroke="black" d="M447,-84.91C447,-104.14 447,-131.8 447,-131.8 447,-131.8 338.63,-131.8 338.63,-131.8"/>
<polygon fill="black" stroke="black" points="338.63,-128.3 328.63,-131.8 338.63,-135.3 338.63,-128.3"/>
</g>
<!-- GoldModule -->
<g id="node4" class="node">
<title>GoldModule</title>
<polygon fill="#8dd3c7" stroke="black" points="385.55,-84.8 382.55,-88.8 361.55,-88.8 358.55,-84.8 298.45,-84.8 298.45,-48.8 385.55,-48.8 385.55,-84.8"/>
<text text-anchor="middle" x="342" y="-62.6" font-family="Times,serif" font-size="14.00">GoldModule</text>
</g>
<!-- GoldModule&#45;&gt;GoldPageModule -->
<g id="edge3" class="edge">
<title>GoldModule&#45;&gt;GoldPageModule</title>
<path fill="none" stroke="black" d="M313.3,-84.91C313.3,-84.91 313.3,-103.79 313.3,-103.79"/>
<polygon fill="black" stroke="black" points="309.8,-103.79 313.3,-113.79 316.8,-103.79 309.8,-103.79"/>
</g>
<!-- GoldPageRoutingModule -->
<g id="node5" class="node">
<title>GoldPageRoutingModule</title>
<polygon fill="#8dd3c7" stroke="black" points="279.88,-84.8 276.88,-88.8 255.88,-88.8 252.88,-84.8 120.12,-84.8 120.12,-48.8 279.88,-48.8 279.88,-84.8"/>
<text text-anchor="middle" x="200" y="-62.6" font-family="Times,serif" font-size="14.00">GoldPageRoutingModule</text>
</g>
<!-- GoldPageRoutingModule&#45;&gt;GoldPageModule -->
<g id="edge4" class="edge">
<title>GoldPageRoutingModule&#45;&gt;GoldPageModule</title>
<path fill="none" stroke="black" d="M246.78,-84.91C246.78,-84.91 246.78,-103.79 246.78,-103.79"/>
<polygon fill="black" stroke="black" points="243.28,-103.79 246.78,-113.79 250.28,-103.79 243.28,-103.79"/>
</g>
</g>
</svg>
