<?xml version="1.0" encoding="UTF-8" standalone="no"?>
<!DOCTYPE svg PUBLIC "-//W3C//DTD SVG 1.1//EN"
 "http://www.w3.org/Graphics/SVG/1.1/DTD/svg11.dtd">
<!-- Generated by graphviz version 2.47.3 (20210619.1520)
 -->
<!-- Title: dependencies Pages: 1 -->
<svg width="958pt" height="174pt"
 viewBox="0.00 0.00 958.00 173.80" xmlns="http://www.w3.org/2000/svg" xmlns:xlink="http://www.w3.org/1999/xlink">
<g id="graph0" class="graph" transform="scale(1 1) rotate(0) translate(4 169.8)">
<title>dependencies</title>
<polygon fill="white" stroke="transparent" points="-4,4 -4,-169.8 954,-169.8 954,4 -4,4"/>
<text text-anchor="middle" x="475" y="-8.2" font-family="sans-serif" font-size="14.00">dependencies</text>
<g id="clust1" class="cluster">
<title>cluster_GoldInvestmentDetailsPageModule</title>
<polygon fill="none" stroke="black" stroke-dasharray="1,5" points="8,-32.8 8,-157.8 942,-157.8 942,-32.8 8,-32.8"/>
</g>
<g id="clust4" class="cluster">
<title>cluster_GoldInvestmentDetailsPageModule_imports</title>
<polygon fill="none" stroke="black" points="214,-40.8 214,-92.8 934,-92.8 934,-40.8 214,-40.8"/>
</g>
<g id="clust2" class="cluster">
<title>cluster_GoldInvestmentDetailsPageModule_declarations</title>
<polygon fill="none" stroke="black" points="16,-40.8 16,-92.8 206,-92.8 206,-40.8 16,-40.8"/>
</g>
<!-- GoldInvestmentDetailsPage -->
<g id="node1" class="node">
<title>GoldInvestmentDetailsPage</title>
<polygon fill="#ffffb3" stroke="black" points="197.57,-84.8 24.43,-84.8 24.43,-48.8 197.57,-48.8 197.57,-84.8"/>
<text text-anchor="middle" x="111" y="-62.6" font-family="Times,serif" font-size="14.00">GoldInvestmentDetailsPage</text>
</g>
<!-- GoldInvestmentDetailsPageModule -->
<g id="node2" class="node">
<title>GoldInvestmentDetailsPageModule</title>
<polygon fill="#8dd3c7" stroke="black" points="591.12,-149.8 588.12,-153.8 567.12,-153.8 564.12,-149.8 374.88,-149.8 374.88,-113.8 591.12,-113.8 591.12,-149.8"/>
<text text-anchor="middle" x="483" y="-127.6" font-family="Times,serif" font-size="14.00">GoldInvestmentDetailsPageModule</text>
</g>
<!-- GoldInvestmentDetailsPage&#45;&gt;GoldInvestmentDetailsPageModule -->
<g id="edge1" class="edge">
<title>GoldInvestmentDetailsPage&#45;&gt;GoldInvestmentDetailsPageModule</title>
<path fill="none" stroke="black" d="M111,-85.08C111,-106.12 111,-137.8 111,-137.8 111,-137.8 364.65,-137.8 364.65,-137.8"/>
<polygon fill="black" stroke="black" points="364.65,-141.3 374.65,-137.8 364.65,-134.3 364.65,-141.3"/>
</g>
<!-- CoreModule -->
<g id="node3" class="node">
<title>CoreModule</title>
<polygon fill="#8dd3c7" stroke="black" points="926.26,-84.8 923.26,-88.8 902.26,-88.8 899.26,-84.8 839.74,-84.8 839.74,-48.8 926.26,-48.8 926.26,-84.8"/>
<text text-anchor="middle" x="883" y="-62.6" font-family="Times,serif" font-size="14.00">CoreModule</text>
</g>
<!-- CoreModule&#45;&gt;GoldInvestmentDetailsPageModule -->
<g id="edge2" class="edge">
<title>CoreModule&#45;&gt;GoldInvestmentDetailsPageModule</title>
<path fill="none" stroke="black" d="M883,-85.08C883,-106.12 883,-137.8 883,-137.8 883,-137.8 601.25,-137.8 601.25,-137.8"/>
<polygon fill="black" stroke="black" points="601.25,-134.3 591.25,-137.8 601.25,-141.3 601.25,-134.3"/>
</g>
<!-- GoldInvestmentDetailsModule -->
<g id="node4" class="node">
<title>GoldInvestmentDetailsModule</title>
<polygon fill="#8dd3c7" stroke="black" points="821.91,-84.8 818.91,-88.8 797.91,-88.8 794.91,-84.8 632.09,-84.8 632.09,-48.8 821.91,-48.8 821.91,-84.8"/>
<text text-anchor="middle" x="727" y="-62.6" font-family="Times,serif" font-size="14.00">GoldInvestmentDetailsModule</text>
</g>
<!-- GoldInvestmentDetailsModule&#45;&gt;GoldInvestmentDetailsPageModule -->
<g id="edge3" class="edge">
<title>GoldInvestmentDetailsModule&#45;&gt;GoldInvestmentDetailsPageModule</title>
<path fill="none" stroke="black" d="M727,-84.82C727,-102.17 727,-125.8 727,-125.8 727,-125.8 601.44,-125.8 601.44,-125.8"/>
<polygon fill="black" stroke="black" points="601.44,-122.3 591.44,-125.8 601.44,-129.3 601.44,-122.3"/>
</g>
<!-- GoldInvestmentDetailsPageRoutingModule -->
<g id="node5" class="node">
<title>GoldInvestmentDetailsPageRoutingModule</title>
<polygon fill="#8dd3c7" stroke="black" points="613.74,-84.8 610.74,-88.8 589.74,-88.8 586.74,-84.8 352.26,-84.8 352.26,-48.8 613.74,-48.8 613.74,-84.8"/>
<text text-anchor="middle" x="483" y="-62.6" font-family="Times,serif" font-size="14.00">GoldInvestmentDetailsPageRoutingModule</text>
</g>
<!-- GoldInvestmentDetailsPageRoutingModule&#45;&gt;GoldInvestmentDetailsPageModule -->
<g id="edge4" class="edge">
<title>GoldInvestmentDetailsPageRoutingModule&#45;&gt;GoldInvestmentDetailsPageModule</title>
<path fill="none" stroke="black" d="M483,-84.91C483,-84.91 483,-103.79 483,-103.79"/>
<polygon fill="black" stroke="black" points="479.5,-103.79 483,-113.79 486.5,-103.79 479.5,-103.79"/>
</g>
<!-- TranslateModule -->
<g id="node6" class="node">
<title>TranslateModule</title>
<polygon fill="#8dd3c7" stroke="black" points="333.63,-84.8 330.63,-88.8 309.63,-88.8 306.63,-84.8 222.37,-84.8 222.37,-48.8 333.63,-48.8 333.63,-84.8"/>
<text text-anchor="middle" x="278" y="-62.6" font-family="Times,serif" font-size="14.00">TranslateModule</text>
</g>
<!-- TranslateModule&#45;&gt;GoldInvestmentDetailsPageModule -->
<g id="edge5" class="edge">
<title>TranslateModule&#45;&gt;GoldInvestmentDetailsPageModule</title>
<path fill="none" stroke="black" d="M278,-84.82C278,-102.17 278,-125.8 278,-125.8 278,-125.8 364.8,-125.8 364.8,-125.8"/>
<polygon fill="black" stroke="black" points="364.8,-129.3 374.8,-125.8 364.8,-122.3 364.8,-129.3"/>
</g>
</g>
</svg>
