<?xml version="1.0" encoding="UTF-8" standalone="no"?>
<!DOCTYPE svg PUBLIC "-//W3C//DTD SVG 1.1//EN"
 "http://www.w3.org/Graphics/SVG/1.1/DTD/svg11.dtd">
<!-- Generated by graphviz version 2.47.3 (20210619.1520)
 -->
<!-- Title: dependencies Pages: 1 -->
<svg width="324pt" height="247pt"
 viewBox="0.00 0.00 324.00 246.80" xmlns="http://www.w3.org/2000/svg" xmlns:xlink="http://www.w3.org/1999/xlink">
<g id="graph0" class="graph" transform="scale(1 1) rotate(0) translate(4 242.8)">
<title>dependencies</title>
<polygon fill="white" stroke="transparent" points="-4,4 -4,-242.8 320,-242.8 320,4 -4,4"/>
<text text-anchor="middle" x="158" y="-8.2" font-family="sans-serif" font-size="14.00">dependencies</text>
<g id="clust1" class="cluster">
<title>cluster_LifestyleModule</title>
<polygon fill="none" stroke="black" stroke-dasharray="1,5" points="8,-32.8 8,-230.8 308,-230.8 308,-32.8 8,-32.8"/>
</g>
<g id="clust2" class="cluster">
<title>cluster_LifestyleModule_declarations</title>
<polygon fill="none" stroke="black" points="152,-40.8 152,-92.8 300,-92.8 300,-40.8 152,-40.8"/>
</g>
<g id="clust5" class="cluster">
<title>cluster_LifestyleModule_exports</title>
<polygon fill="none" stroke="black" points="83,-170.8 83,-222.8 233,-222.8 233,-170.8 83,-170.8"/>
</g>
<g id="clust4" class="cluster">
<title>cluster_LifestyleModule_imports</title>
<polygon fill="none" stroke="black" points="16,-40.8 16,-92.8 144,-92.8 144,-40.8 16,-40.8"/>
</g>
<!-- LifestyleComponent -->
<g id="node1" class="node">
<title>LifestyleComponent</title>
<polygon fill="#ffffb3" stroke="black" points="291.59,-84.8 160.41,-84.8 160.41,-48.8 291.59,-48.8 291.59,-84.8"/>
<text text-anchor="middle" x="226" y="-62.6" font-family="Times,serif" font-size="14.00">LifestyleComponent</text>
</g>
<!-- LifestyleModule -->
<g id="node2" class="node">
<title>LifestyleModule</title>
<polygon fill="#8dd3c7" stroke="black" points="212.81,-149.8 209.81,-153.8 188.81,-153.8 185.81,-149.8 103.19,-149.8 103.19,-113.8 212.81,-113.8 212.81,-149.8"/>
<text text-anchor="middle" x="158" y="-127.6" font-family="Times,serif" font-size="14.00">LifestyleModule</text>
</g>
<!-- LifestyleComponent&#45;&gt;LifestyleModule -->
<g id="edge1" class="edge">
<title>LifestyleComponent&#45;&gt;LifestyleModule</title>
<path fill="none" stroke="black" d="M186.55,-84.91C186.55,-84.91 186.55,-103.79 186.55,-103.79"/>
<polygon fill="black" stroke="black" points="183.05,-103.79 186.55,-113.79 190.05,-103.79 183.05,-103.79"/>
</g>
<!-- LifestyleComponent  -->
<g id="node4" class="node">
<title>LifestyleComponent </title>
<polygon fill="#fb8072" stroke="black" points="225.09,-214.8 90.91,-214.8 90.91,-178.8 225.09,-178.8 225.09,-214.8"/>
<text text-anchor="middle" x="158" y="-192.6" font-family="Times,serif" font-size="14.00">LifestyleComponent </text>
</g>
<!-- LifestyleModule&#45;&gt;LifestyleComponent  -->
<g id="edge3" class="edge">
<title>LifestyleModule&#45;&gt;LifestyleComponent </title>
<path fill="none" stroke="black" stroke-dasharray="5,2" d="M158,-149.91C158,-149.91 158,-168.79 158,-168.79"/>
<polygon fill="black" stroke="black" points="154.5,-168.79 158,-178.79 161.5,-168.79 154.5,-168.79"/>
</g>
<!-- TranslateModule -->
<g id="node3" class="node">
<title>TranslateModule</title>
<polygon fill="#8dd3c7" stroke="black" points="135.63,-84.8 132.63,-88.8 111.63,-88.8 108.63,-84.8 24.37,-84.8 24.37,-48.8 135.63,-48.8 135.63,-84.8"/>
<text text-anchor="middle" x="80" y="-62.6" font-family="Times,serif" font-size="14.00">TranslateModule</text>
</g>
<!-- TranslateModule&#45;&gt;LifestyleModule -->
<g id="edge2" class="edge">
<title>TranslateModule&#45;&gt;LifestyleModule</title>
<path fill="none" stroke="black" d="M119.58,-84.91C119.58,-84.91 119.58,-103.79 119.58,-103.79"/>
<polygon fill="black" stroke="black" points="116.08,-103.79 119.58,-113.79 123.08,-103.79 116.08,-103.79"/>
</g>
</g>
</svg>
