<?xml version="1.0" encoding="UTF-8" standalone="no"?>
<!DOCTYPE svg PUBLIC "-//W3C//DTD SVG 1.1//EN"
 "http://www.w3.org/Graphics/SVG/1.1/DTD/svg11.dtd">
<!-- Generated by graphviz version 2.47.3 (20210619.1520)
 -->
<!-- Title: dependencies Pages: 1 -->
<svg width="152pt" height="247pt"
 viewBox="0.00 0.00 152.00 246.80" xmlns="http://www.w3.org/2000/svg" xmlns:xlink="http://www.w3.org/1999/xlink">
<g id="graph0" class="graph" transform="scale(1 1) rotate(0) translate(4 242.8)">
<title>dependencies</title>
<polygon fill="white" stroke="transparent" points="-4,4 -4,-242.8 148,-242.8 148,4 -4,4"/>
<text text-anchor="middle" x="72" y="-8.2" font-family="sans-serif" font-size="14.00">dependencies</text>
<g id="clust1" class="cluster">
<title>cluster_TranslateModule</title>
<polygon fill="none" stroke="black" stroke-dasharray="1,5" points="8,-32.8 8,-230.8 136,-230.8 136,-32.8 8,-32.8"/>
</g>
<g id="clust5" class="cluster">
<title>cluster_TranslateModule_exports</title>
<polygon fill="none" stroke="black" points="16,-170.8 16,-222.8 128,-222.8 128,-170.8 16,-170.8"/>
</g>
<g id="clust2" class="cluster">
<title>cluster_TranslateModule_declarations</title>
<polygon fill="none" stroke="black" points="18,-40.8 18,-92.8 126,-92.8 126,-40.8 18,-40.8"/>
</g>
<!-- TranslatePipe -->
<g id="node1" class="node">
<title>TranslatePipe</title>
<polygon fill="#ffffb3" stroke="black" points="118.47,-84.8 25.53,-84.8 25.53,-48.8 118.47,-48.8 118.47,-84.8"/>
<text text-anchor="middle" x="72" y="-62.6" font-family="Times,serif" font-size="14.00">TranslatePipe</text>
</g>
<!-- TranslateModule -->
<g id="node2" class="node">
<title>TranslateModule</title>
<polygon fill="#8dd3c7" stroke="black" points="127.63,-149.8 124.63,-153.8 103.63,-153.8 100.63,-149.8 16.37,-149.8 16.37,-113.8 127.63,-113.8 127.63,-149.8"/>
<text text-anchor="middle" x="72" y="-127.6" font-family="Times,serif" font-size="14.00">TranslateModule</text>
</g>
<!-- TranslatePipe&#45;&gt;TranslateModule -->
<g id="edge1" class="edge">
<title>TranslatePipe&#45;&gt;TranslateModule</title>
<path fill="none" stroke="black" d="M72,-84.91C72,-84.91 72,-103.79 72,-103.79"/>
<polygon fill="black" stroke="black" points="68.5,-103.79 72,-113.79 75.5,-103.79 68.5,-103.79"/>
</g>
<!-- TranslatePipe  -->
<g id="node3" class="node">
<title>TranslatePipe </title>
<polygon fill="#fb8072" stroke="black" points="120.47,-214.8 23.53,-214.8 23.53,-178.8 120.47,-178.8 120.47,-214.8"/>
<text text-anchor="middle" x="72" y="-192.6" font-family="Times,serif" font-size="14.00">TranslatePipe </text>
</g>
<!-- TranslateModule&#45;&gt;TranslatePipe  -->
<g id="edge2" class="edge">
<title>TranslateModule&#45;&gt;TranslatePipe </title>
<path fill="none" stroke="black" stroke-dasharray="5,2" d="M72,-149.91C72,-149.91 72,-168.79 72,-168.79"/>
<polygon fill="black" stroke="black" points="68.5,-168.79 72,-178.79 75.5,-168.79 68.5,-168.79"/>
</g>
</g>
</svg>
