<?xml version="1.0" encoding="UTF-8" standalone="no"?>
<!DOCTYPE svg PUBLIC "-//W3C//DTD SVG 1.1//EN"
 "http://www.w3.org/Graphics/SVG/1.1/DTD/svg11.dtd">
<!-- Generated by graphviz version 2.47.3 (20210619.1520)
 -->
<!-- Title: dependencies Pages: 1 -->
<svg width="1077pt" height="247pt"
 viewBox="0.00 0.00 1077.00 246.80" xmlns="http://www.w3.org/2000/svg" xmlns:xlink="http://www.w3.org/1999/xlink">
<g id="graph0" class="graph" transform="scale(1 1) rotate(0) translate(4 242.8)">
<title>dependencies</title>
<polygon fill="white" stroke="transparent" points="-4,4 -4,-242.8 1073,-242.8 1073,4 -4,4"/>
<text text-anchor="middle" x="534.5" y="-8.2" font-family="sans-serif" font-size="14.00">dependencies</text>
<g id="clust1" class="cluster">
<title>cluster_AppModule</title>
<polygon fill="none" stroke="black" stroke-dasharray="1,5" points="8,-32.8 8,-230.8 1061,-230.8 1061,-32.8 8,-32.8"/>
</g>
<g id="clust7" class="cluster">
<title>cluster_AppModule_providers</title>
<polygon fill="none" stroke="black" points="619,-40.8 619,-92.8 1053,-92.8 1053,-40.8 619,-40.8"/>
</g>
<g id="clust6" class="cluster">
<title>cluster_AppModule_bootstrap</title>
<polygon fill="none" stroke="black" points="392,-170.8 392,-222.8 516,-222.8 516,-170.8 392,-170.8"/>
</g>
<g id="clust4" class="cluster">
<title>cluster_AppModule_imports</title>
<polygon fill="none" stroke="black" points="146,-40.8 146,-92.8 611,-92.8 611,-40.8 146,-40.8"/>
</g>
<g id="clust2" class="cluster">
<title>cluster_AppModule_declarations</title>
<polygon fill="none" stroke="black" points="16,-40.8 16,-92.8 138,-92.8 138,-40.8 16,-40.8"/>
</g>
<!-- AppComponent -->
<g id="node1" class="node">
<title>AppComponent</title>
<polygon fill="#ffffb3" stroke="black" points="129.94,-84.8 24.06,-84.8 24.06,-48.8 129.94,-48.8 129.94,-84.8"/>
<text text-anchor="middle" x="77" y="-62.6" font-family="Times,serif" font-size="14.00">AppComponent</text>
</g>
<!-- AppModule -->
<g id="node2" class="node">
<title>AppModule</title>
<polygon fill="#8dd3c7" stroke="black" points="495.66,-149.8 492.66,-153.8 471.66,-153.8 468.66,-149.8 412.34,-149.8 412.34,-113.8 495.66,-113.8 495.66,-149.8"/>
<text text-anchor="middle" x="454" y="-127.6" font-family="Times,serif" font-size="14.00">AppModule</text>
</g>
<!-- AppComponent&#45;&gt;AppModule -->
<g id="edge1" class="edge">
<title>AppComponent&#45;&gt;AppModule</title>
<path fill="none" stroke="black" d="M77,-85.08C77,-106.12 77,-137.8 77,-137.8 77,-137.8 402.21,-137.8 402.21,-137.8"/>
<polygon fill="black" stroke="black" points="402.21,-141.3 412.21,-137.8 402.21,-134.3 402.21,-141.3"/>
</g>
<!-- AppComponent  -->
<g id="node6" class="node">
<title>AppComponent </title>
<polygon fill="#80b1d3" stroke="black" points="508.44,-214.8 399.56,-214.8 399.56,-178.8 508.44,-178.8 508.44,-214.8"/>
<text text-anchor="middle" x="454" y="-192.6" font-family="Times,serif" font-size="14.00">AppComponent </text>
</g>
<!-- AppModule&#45;&gt;AppComponent  -->
<g id="edge5" class="edge">
<title>AppModule&#45;&gt;AppComponent </title>
<path fill="none" stroke="black" stroke-dasharray="1,5" d="M454,-149.91C454,-149.91 454,-168.79 454,-168.79"/>
<polygon fill="black" stroke="black" points="450.5,-168.79 454,-178.79 457.5,-168.79 450.5,-168.79"/>
</g>
<!-- AppRoutingModule -->
<g id="node3" class="node">
<title>AppRoutingModule</title>
<polygon fill="#8dd3c7" stroke="black" points="603.27,-84.8 600.27,-88.8 579.27,-88.8 576.27,-84.8 474.73,-84.8 474.73,-48.8 603.27,-48.8 603.27,-84.8"/>
<text text-anchor="middle" x="539" y="-62.6" font-family="Times,serif" font-size="14.00">AppRoutingModule</text>
</g>
<!-- AppRoutingModule&#45;&gt;AppModule -->
<g id="edge2" class="edge">
<title>AppRoutingModule&#45;&gt;AppModule</title>
<path fill="none" stroke="black" d="M485.22,-84.91C485.22,-84.91 485.22,-103.79 485.22,-103.79"/>
<polygon fill="black" stroke="black" points="481.72,-103.79 485.22,-113.79 488.72,-103.79 481.72,-103.79"/>
</g>
<!-- ContainerViewPageModule -->
<g id="node4" class="node">
<title>ContainerViewPageModule</title>
<polygon fill="#8dd3c7" stroke="black" points="456.29,-84.8 453.29,-88.8 432.29,-88.8 429.29,-84.8 283.71,-84.8 283.71,-48.8 456.29,-48.8 456.29,-84.8"/>
<text text-anchor="middle" x="370" y="-62.6" font-family="Times,serif" font-size="14.00">ContainerViewPageModule</text>
</g>
<!-- ContainerViewPageModule&#45;&gt;AppModule -->
<g id="edge3" class="edge">
<title>ContainerViewPageModule&#45;&gt;AppModule</title>
<path fill="none" stroke="black" d="M434.16,-84.91C434.16,-84.91 434.16,-103.79 434.16,-103.79"/>
<polygon fill="black" stroke="black" points="430.66,-103.79 434.16,-113.79 437.66,-103.79 430.66,-103.79"/>
</g>
<!-- TranslateModule -->
<g id="node5" class="node">
<title>TranslateModule</title>
<polygon fill="#8dd3c7" stroke="black" points="265.63,-84.8 262.63,-88.8 241.63,-88.8 238.63,-84.8 154.37,-84.8 154.37,-48.8 265.63,-48.8 265.63,-84.8"/>
<text text-anchor="middle" x="210" y="-62.6" font-family="Times,serif" font-size="14.00">TranslateModule</text>
</g>
<!-- TranslateModule&#45;&gt;AppModule -->
<g id="edge4" class="edge">
<title>TranslateModule&#45;&gt;AppModule</title>
<path fill="none" stroke="black" d="M210,-84.82C210,-102.17 210,-125.8 210,-125.8 210,-125.8 402.33,-125.8 402.33,-125.8"/>
<polygon fill="black" stroke="black" points="402.33,-129.3 412.33,-125.8 402.33,-122.3 402.33,-129.3"/>
</g>
<!-- GlobalHttpInterceptorService -->
<g id="node7" class="node">
<title>GlobalHttpInterceptorService</title>
<ellipse fill="#fdb462" stroke="black" cx="919" cy="-66.8" rx="125.6" ry="18"/>
<text text-anchor="middle" x="919" y="-62.6" font-family="Times,serif" font-size="14.00">GlobalHttpInterceptorService</text>
</g>
<!-- GlobalHttpInterceptorService&#45;&gt;AppModule -->
<g id="edge6" class="edge">
<title>GlobalHttpInterceptorService&#45;&gt;AppModule</title>
<path fill="none" stroke="black" d="M919,-85.08C919,-106.12 919,-137.8 919,-137.8 919,-137.8 505.67,-137.8 505.67,-137.8"/>
<polygon fill="black" stroke="black" points="505.67,-134.3 495.67,-137.8 505.67,-141.3 505.67,-134.3"/>
</g>
<!-- NetworkService -->
<g id="node8" class="node">
<title>NetworkService</title>
<ellipse fill="#fdb462" stroke="black" cx="701" cy="-66.8" rx="73.55" ry="18"/>
<text text-anchor="middle" x="701" y="-62.6" font-family="Times,serif" font-size="14.00">NetworkService</text>
</g>
<!-- NetworkService&#45;&gt;AppModule -->
<g id="edge7" class="edge">
<title>NetworkService&#45;&gt;AppModule</title>
<path fill="none" stroke="black" d="M701,-84.82C701,-102.17 701,-125.8 701,-125.8 701,-125.8 505.9,-125.8 505.9,-125.8"/>
<polygon fill="black" stroke="black" points="505.9,-122.3 495.9,-125.8 505.9,-129.3 505.9,-122.3"/>
</g>
</g>
</svg>
