<?xml version="1.0" encoding="UTF-8" standalone="no"?>
<!DOCTYPE svg PUBLIC "-//W3C//DTD SVG 1.1//EN"
 "http://www.w3.org/Graphics/SVG/1.1/DTD/svg11.dtd">
<!-- Generated by graphviz version 2.47.3 (20210619.1520)
 -->
<!-- Title: dependencies Pages: 1 -->
<svg width="326pt" height="247pt"
 viewBox="0.00 0.00 326.00 246.80" xmlns="http://www.w3.org/2000/svg" xmlns:xlink="http://www.w3.org/1999/xlink">
<g id="graph0" class="graph" transform="scale(1 1) rotate(0) translate(4 242.8)">
<title>dependencies</title>
<polygon fill="white" stroke="transparent" points="-4,4 -4,-242.8 322,-242.8 322,4 -4,4"/>
<text text-anchor="middle" x="159" y="-8.2" font-family="sans-serif" font-size="14.00">dependencies</text>
<g id="clust1" class="cluster">
<title>cluster_PanadharModule</title>
<polygon fill="none" stroke="black" stroke-dasharray="1,5" points="8,-32.8 8,-230.8 310,-230.8 310,-32.8 8,-32.8"/>
</g>
<g id="clust2" class="cluster">
<title>cluster_PanadharModule_declarations</title>
<polygon fill="none" stroke="black" points="152,-40.8 152,-92.8 302,-92.8 302,-40.8 152,-40.8"/>
</g>
<g id="clust5" class="cluster">
<title>cluster_PanadharModule_exports</title>
<polygon fill="none" stroke="black" points="42,-170.8 42,-222.8 276,-222.8 276,-170.8 42,-170.8"/>
</g>
<g id="clust4" class="cluster">
<title>cluster_PanadharModule_imports</title>
<polygon fill="none" stroke="black" points="16,-40.8 16,-92.8 144,-92.8 144,-40.8 16,-40.8"/>
</g>
<!-- PanadharComponent -->
<g id="node1" class="node">
<title>PanadharComponent</title>
<polygon fill="#ffffb3" stroke="black" points="293.92,-84.8 160.08,-84.8 160.08,-48.8 293.92,-48.8 293.92,-84.8"/>
<text text-anchor="middle" x="227" y="-62.6" font-family="Times,serif" font-size="14.00">PanadharComponent</text>
</g>
<!-- PanadharModule -->
<g id="node2" class="node">
<title>PanadharModule</title>
<polygon fill="#8dd3c7" stroke="black" points="227.64,-149.8 224.64,-153.8 203.64,-153.8 200.64,-149.8 116.36,-149.8 116.36,-113.8 227.64,-113.8 227.64,-149.8"/>
<text text-anchor="middle" x="172" y="-127.6" font-family="Times,serif" font-size="14.00">PanadharModule</text>
</g>
<!-- PanadharComponent&#45;&gt;PanadharModule -->
<g id="edge1" class="edge">
<title>PanadharComponent&#45;&gt;PanadharModule</title>
<path fill="none" stroke="black" d="M194.05,-84.91C194.05,-84.91 194.05,-103.79 194.05,-103.79"/>
<polygon fill="black" stroke="black" points="190.55,-103.79 194.05,-113.79 197.55,-103.79 190.55,-103.79"/>
</g>
<!-- Camera  -->
<g id="node4" class="node">
<title>Camera </title>
<polygon fill="#fb8072" stroke="black" points="267.53,-214.8 204.47,-214.8 204.47,-178.8 267.53,-178.8 267.53,-214.8"/>
<text text-anchor="middle" x="236" y="-192.6" font-family="Times,serif" font-size="14.00">Camera </text>
</g>
<!-- PanadharModule&#45;&gt;Camera  -->
<g id="edge3" class="edge">
<title>PanadharModule&#45;&gt;Camera </title>
<path fill="none" stroke="black" stroke-dasharray="5,2" d="M216.15,-149.91C216.15,-149.91 216.15,-168.79 216.15,-168.79"/>
<polygon fill="black" stroke="black" points="212.65,-168.79 216.15,-178.79 219.65,-168.79 212.65,-168.79"/>
</g>
<!-- PanadharComponent  -->
<g id="node5" class="node">
<title>PanadharComponent </title>
<polygon fill="#fb8072" stroke="black" points="186.42,-214.8 49.58,-214.8 49.58,-178.8 186.42,-178.8 186.42,-214.8"/>
<text text-anchor="middle" x="118" y="-192.6" font-family="Times,serif" font-size="14.00">PanadharComponent </text>
</g>
<!-- PanadharModule&#45;&gt;PanadharComponent  -->
<g id="edge4" class="edge">
<title>PanadharModule&#45;&gt;PanadharComponent </title>
<path fill="none" stroke="black" stroke-dasharray="5,2" d="M151.32,-149.91C151.32,-149.91 151.32,-168.79 151.32,-168.79"/>
<polygon fill="black" stroke="black" points="147.82,-168.79 151.32,-178.79 154.82,-168.79 147.82,-168.79"/>
</g>
<!-- TranslateModule -->
<g id="node3" class="node">
<title>TranslateModule</title>
<polygon fill="#8dd3c7" stroke="black" points="135.63,-84.8 132.63,-88.8 111.63,-88.8 108.63,-84.8 24.37,-84.8 24.37,-48.8 135.63,-48.8 135.63,-84.8"/>
<text text-anchor="middle" x="80" y="-62.6" font-family="Times,serif" font-size="14.00">TranslateModule</text>
</g>
<!-- TranslateModule&#45;&gt;PanadharModule -->
<g id="edge2" class="edge">
<title>TranslateModule&#45;&gt;PanadharModule</title>
<path fill="none" stroke="black" d="M126,-84.91C126,-84.91 126,-103.79 126,-103.79"/>
<polygon fill="black" stroke="black" points="122.5,-103.79 126,-113.79 129.5,-103.79 122.5,-103.79"/>
</g>
</g>
</svg>
