<?xml version="1.0" encoding="UTF-8" standalone="no"?>
<!DOCTYPE svg PUBLIC "-//W3C//DTD SVG 1.1//EN"
 "http://www.w3.org/Graphics/SVG/1.1/DTD/svg11.dtd">
<!-- Generated by graphviz version 2.47.3 (20210619.1520)
 -->
<!-- Title: dependencies Pages: 1 -->
<svg width="472pt" height="247pt"
 viewBox="0.00 0.00 472.00 246.80" xmlns="http://www.w3.org/2000/svg" xmlns:xlink="http://www.w3.org/1999/xlink">
<g id="graph0" class="graph" transform="scale(1 1) rotate(0) translate(4 242.8)">
<title>dependencies</title>
<polygon fill="white" stroke="transparent" points="-4,4 -4,-242.8 468,-242.8 468,4 -4,4"/>
<text text-anchor="middle" x="232" y="-8.2" font-family="sans-serif" font-size="14.00">dependencies</text>
<g id="clust1" class="cluster">
<title>cluster_PortfolioInsigthsModule</title>
<polygon fill="none" stroke="black" stroke-dasharray="1,5" points="8,-32.8 8,-230.8 456,-230.8 456,-32.8 8,-32.8"/>
</g>
<g id="clust2" class="cluster">
<title>cluster_PortfolioInsigthsModule_declarations</title>
<polygon fill="none" stroke="black" points="256,-40.8 256,-92.8 448,-92.8 448,-40.8 256,-40.8"/>
</g>
<g id="clust4" class="cluster">
<title>cluster_PortfolioInsigthsModule_imports</title>
<polygon fill="none" stroke="black" points="16,-40.8 16,-92.8 248,-92.8 248,-40.8 16,-40.8"/>
</g>
<g id="clust5" class="cluster">
<title>cluster_PortfolioInsigthsModule_exports</title>
<polygon fill="none" stroke="black" points="100,-170.8 100,-222.8 294,-222.8 294,-170.8 100,-170.8"/>
</g>
<!-- PortfolioInsigthsComponent -->
<g id="node1" class="node">
<title>PortfolioInsigthsComponent</title>
<polygon fill="#ffffb3" stroke="black" points="439.94,-84.8 264.06,-84.8 264.06,-48.8 439.94,-48.8 439.94,-84.8"/>
<text text-anchor="middle" x="352" y="-62.6" font-family="Times,serif" font-size="14.00">PortfolioInsigthsComponent</text>
</g>
<!-- PortfolioInsigthsModule -->
<g id="node2" class="node">
<title>PortfolioInsigthsModule</title>
<polygon fill="#8dd3c7" stroke="black" points="273.66,-149.8 270.66,-153.8 249.66,-153.8 246.66,-149.8 120.34,-149.8 120.34,-113.8 273.66,-113.8 273.66,-149.8"/>
<text text-anchor="middle" x="197" y="-127.6" font-family="Times,serif" font-size="14.00">PortfolioInsigthsModule</text>
</g>
<!-- PortfolioInsigthsComponent&#45;&gt;PortfolioInsigthsModule -->
<g id="edge1" class="edge">
<title>PortfolioInsigthsComponent&#45;&gt;PortfolioInsigthsModule</title>
<path fill="none" stroke="black" d="M269.05,-84.91C269.05,-84.91 269.05,-103.79 269.05,-103.79"/>
<polygon fill="black" stroke="black" points="265.55,-103.79 269.05,-113.79 272.55,-103.79 265.55,-103.79"/>
</g>
<!-- PortfolioInsigthsComponent  -->
<g id="node5" class="node">
<title>PortfolioInsigthsComponent </title>
<polygon fill="#fb8072" stroke="black" points="286.44,-214.8 107.56,-214.8 107.56,-178.8 286.44,-178.8 286.44,-214.8"/>
<text text-anchor="middle" x="197" y="-192.6" font-family="Times,serif" font-size="14.00">PortfolioInsigthsComponent </text>
</g>
<!-- PortfolioInsigthsModule&#45;&gt;PortfolioInsigthsComponent  -->
<g id="edge4" class="edge">
<title>PortfolioInsigthsModule&#45;&gt;PortfolioInsigthsComponent </title>
<path fill="none" stroke="black" stroke-dasharray="5,2" d="M197,-149.91C197,-149.91 197,-168.79 197,-168.79"/>
<polygon fill="black" stroke="black" points="193.5,-168.79 197,-178.79 200.5,-168.79 193.5,-168.79"/>
</g>
<!-- CoreModule -->
<g id="node3" class="node">
<title>CoreModule</title>
<polygon fill="#8dd3c7" stroke="black" points="240.26,-84.8 237.26,-88.8 216.26,-88.8 213.26,-84.8 153.74,-84.8 153.74,-48.8 240.26,-48.8 240.26,-84.8"/>
<text text-anchor="middle" x="197" y="-62.6" font-family="Times,serif" font-size="14.00">CoreModule</text>
</g>
<!-- CoreModule&#45;&gt;PortfolioInsigthsModule -->
<g id="edge2" class="edge">
<title>CoreModule&#45;&gt;PortfolioInsigthsModule</title>
<path fill="none" stroke="black" d="M197,-84.91C197,-84.91 197,-103.79 197,-103.79"/>
<polygon fill="black" stroke="black" points="193.5,-103.79 197,-113.79 200.5,-103.79 193.5,-103.79"/>
</g>
<!-- TranslateModule -->
<g id="node4" class="node">
<title>TranslateModule</title>
<polygon fill="#8dd3c7" stroke="black" points="135.63,-84.8 132.63,-88.8 111.63,-88.8 108.63,-84.8 24.37,-84.8 24.37,-48.8 135.63,-48.8 135.63,-84.8"/>
<text text-anchor="middle" x="80" y="-62.6" font-family="Times,serif" font-size="14.00">TranslateModule</text>
</g>
<!-- TranslateModule&#45;&gt;PortfolioInsigthsModule -->
<g id="edge3" class="edge">
<title>TranslateModule&#45;&gt;PortfolioInsigthsModule</title>
<path fill="none" stroke="black" d="M127.99,-84.91C127.99,-84.91 127.99,-103.79 127.99,-103.79"/>
<polygon fill="black" stroke="black" points="124.49,-103.79 127.99,-113.79 131.49,-103.79 124.49,-103.79"/>
</g>
</g>
</svg>
