<?xml version="1.0" encoding="UTF-8" standalone="no"?>
<!DOCTYPE svg PUBLIC "-//W3C//DTD SVG 1.1//EN"
 "http://www.w3.org/Graphics/SVG/1.1/DTD/svg11.dtd">
<!-- Generated by graphviz version 2.47.3 (20210619.1520)
 -->
<!-- Title: dependencies Pages: 1 -->
<svg width="993pt" height="247pt"
 viewBox="0.00 0.00 993.00 246.80" xmlns="http://www.w3.org/2000/svg" xmlns:xlink="http://www.w3.org/1999/xlink">
<g id="graph0" class="graph" transform="scale(1 1) rotate(0) translate(4 242.8)">
<title>dependencies</title>
<polygon fill="white" stroke="transparent" points="-4,4 -4,-242.8 989,-242.8 989,4 -4,4"/>
<text text-anchor="middle" x="492.5" y="-8.2" font-family="sans-serif" font-size="14.00">dependencies</text>
<g id="clust1" class="cluster">
<title>cluster_MutualFundsModule</title>
<polygon fill="none" stroke="black" stroke-dasharray="1,5" points="8,-32.8 8,-230.8 977,-230.8 977,-32.8 8,-32.8"/>
</g>
<g id="clust6" class="cluster">
<title>cluster_MutualFundsModule_imports</title>
<polygon fill="none" stroke="black" points="576,-40.8 576,-92.8 969,-92.8 969,-40.8 576,-40.8"/>
</g>
<g id="clust2" class="cluster">
<title>cluster_MutualFundsModule_declarations</title>
<polygon fill="none" stroke="black" points="16,-40.8 16,-92.8 568,-92.8 568,-40.8 16,-40.8"/>
</g>
<g id="clust7" class="cluster">
<title>cluster_MutualFundsModule_exports</title>
<polygon fill="none" stroke="black" points="267,-170.8 267,-222.8 829,-222.8 829,-170.8 267,-170.8"/>
</g>
<!-- ExploreFundsComponent -->
<g id="node1" class="node">
<title>ExploreFundsComponent</title>
<polygon fill="#ffffb3" stroke="black" points="559.88,-84.8 400.12,-84.8 400.12,-48.8 559.88,-48.8 559.88,-84.8"/>
<text text-anchor="middle" x="480" y="-62.6" font-family="Times,serif" font-size="14.00">ExploreFundsComponent</text>
</g>
<!-- MutualFundsModule -->
<g id="node4" class="node">
<title>MutualFundsModule</title>
<polygon fill="#8dd3c7" stroke="black" points="627.22,-149.8 624.22,-153.8 603.22,-153.8 600.22,-149.8 492.78,-149.8 492.78,-113.8 627.22,-113.8 627.22,-149.8"/>
<text text-anchor="middle" x="560" y="-127.6" font-family="Times,serif" font-size="14.00">MutualFundsModule</text>
</g>
<!-- ExploreFundsComponent&#45;&gt;MutualFundsModule -->
<g id="edge1" class="edge">
<title>ExploreFundsComponent&#45;&gt;MutualFundsModule</title>
<path fill="none" stroke="black" d="M526.42,-84.91C526.42,-84.91 526.42,-103.79 526.42,-103.79"/>
<polygon fill="black" stroke="black" points="522.92,-103.79 526.42,-113.79 529.92,-103.79 522.92,-103.79"/>
</g>
<!-- MutualFundsComponent -->
<g id="node2" class="node">
<title>MutualFundsComponent</title>
<polygon fill="#ffffb3" stroke="black" points="382,-84.8 226,-84.8 226,-48.8 382,-48.8 382,-84.8"/>
<text text-anchor="middle" x="304" y="-62.6" font-family="Times,serif" font-size="14.00">MutualFundsComponent</text>
</g>
<!-- MutualFundsComponent&#45;&gt;MutualFundsModule -->
<g id="edge2" class="edge">
<title>MutualFundsComponent&#45;&gt;MutualFundsModule</title>
<path fill="none" stroke="black" d="M328.63,-84.83C328.63,-101.2 328.63,-122.8 328.63,-122.8 328.63,-122.8 482.77,-122.8 482.77,-122.8"/>
<polygon fill="black" stroke="black" points="482.77,-126.3 492.77,-122.8 482.77,-119.3 482.77,-126.3"/>
</g>
<!-- StepeerOnbordingComponent -->
<g id="node3" class="node">
<title>StepeerOnbordingComponent</title>
<polygon fill="#ffffb3" stroke="black" points="207.97,-84.8 24.03,-84.8 24.03,-48.8 207.97,-48.8 207.97,-84.8"/>
<text text-anchor="middle" x="116" y="-62.6" font-family="Times,serif" font-size="14.00">StepeerOnbordingComponent</text>
</g>
<!-- StepeerOnbordingComponent&#45;&gt;MutualFundsModule -->
<g id="edge3" class="edge">
<title>StepeerOnbordingComponent&#45;&gt;MutualFundsModule</title>
<path fill="none" stroke="black" d="M116,-84.91C116,-104.14 116,-131.8 116,-131.8 116,-131.8 482.57,-131.8 482.57,-131.8"/>
<polygon fill="black" stroke="black" points="482.57,-135.3 492.57,-131.8 482.57,-128.3 482.57,-135.3"/>
</g>
<!-- ExploreFundsComponent  -->
<g id="node8" class="node">
<title>ExploreFundsComponent </title>
<polygon fill="#fb8072" stroke="black" points="820.88,-214.8 657.12,-214.8 657.12,-178.8 820.88,-178.8 820.88,-214.8"/>
<text text-anchor="middle" x="739" y="-192.6" font-family="Times,serif" font-size="14.00">ExploreFundsComponent </text>
</g>
<!-- MutualFundsModule&#45;&gt;ExploreFundsComponent  -->
<g id="edge7" class="edge">
<title>MutualFundsModule&#45;&gt;ExploreFundsComponent </title>
<path fill="none" stroke="black" stroke-dasharray="5,2" d="M627.13,-140.8C653.04,-140.8 676.56,-140.8 676.56,-140.8 676.56,-140.8 676.56,-168.77 676.56,-168.77"/>
<polygon fill="black" stroke="black" points="673.06,-168.77 676.56,-178.77 680.06,-168.77 673.06,-168.77"/>
</g>
<!-- MutualFundsComponent  -->
<g id="node9" class="node">
<title>MutualFundsComponent </title>
<polygon fill="#fb8072" stroke="black" points="640,-214.8 480,-214.8 480,-178.8 640,-178.8 640,-214.8"/>
<text text-anchor="middle" x="560" y="-192.6" font-family="Times,serif" font-size="14.00">MutualFundsComponent </text>
</g>
<!-- MutualFundsModule&#45;&gt;MutualFundsComponent  -->
<g id="edge8" class="edge">
<title>MutualFundsModule&#45;&gt;MutualFundsComponent </title>
<path fill="none" stroke="black" stroke-dasharray="5,2" d="M560,-149.91C560,-149.91 560,-168.79 560,-168.79"/>
<polygon fill="black" stroke="black" points="556.5,-168.79 560,-178.79 563.5,-168.79 556.5,-168.79"/>
</g>
<!-- StepeerOnbordingComponent  -->
<g id="node10" class="node">
<title>StepeerOnbordingComponent </title>
<polygon fill="#fb8072" stroke="black" points="462.97,-214.8 275.03,-214.8 275.03,-178.8 462.97,-178.8 462.97,-214.8"/>
<text text-anchor="middle" x="369" y="-192.6" font-family="Times,serif" font-size="14.00">StepeerOnbordingComponent </text>
</g>
<!-- MutualFundsModule&#45;&gt;StepeerOnbordingComponent  -->
<g id="edge9" class="edge">
<title>MutualFundsModule&#45;&gt;StepeerOnbordingComponent </title>
<path fill="none" stroke="black" stroke-dasharray="5,2" d="M492.69,-140.8C461.57,-140.8 431.4,-140.8 431.4,-140.8 431.4,-140.8 431.4,-168.77 431.4,-168.77"/>
<polygon fill="black" stroke="black" points="427.9,-168.77 431.4,-178.77 434.9,-168.77 427.9,-168.77"/>
</g>
<!-- CoreModule -->
<g id="node5" class="node">
<title>CoreModule</title>
<polygon fill="#8dd3c7" stroke="black" points="961.26,-84.8 958.26,-88.8 937.26,-88.8 934.26,-84.8 874.74,-84.8 874.74,-48.8 961.26,-48.8 961.26,-84.8"/>
<text text-anchor="middle" x="918" y="-62.6" font-family="Times,serif" font-size="14.00">CoreModule</text>
</g>
<!-- CoreModule&#45;&gt;MutualFundsModule -->
<g id="edge4" class="edge">
<title>CoreModule&#45;&gt;MutualFundsModule</title>
<path fill="none" stroke="black" d="M918,-84.91C918,-104.14 918,-131.8 918,-131.8 918,-131.8 637.34,-131.8 637.34,-131.8"/>
<polygon fill="black" stroke="black" points="637.34,-128.3 627.34,-131.8 637.34,-135.3 637.34,-128.3"/>
</g>
<!-- ProductDetailsModule -->
<g id="node6" class="node">
<title>ProductDetailsModule</title>
<polygon fill="#8dd3c7" stroke="black" points="856.25,-84.8 853.25,-88.8 832.25,-88.8 829.25,-84.8 713.75,-84.8 713.75,-48.8 856.25,-48.8 856.25,-84.8"/>
<text text-anchor="middle" x="785" y="-62.6" font-family="Times,serif" font-size="14.00">ProductDetailsModule</text>
</g>
<!-- ProductDetailsModule&#45;&gt;MutualFundsModule -->
<g id="edge5" class="edge">
<title>ProductDetailsModule&#45;&gt;MutualFundsModule</title>
<path fill="none" stroke="black" d="M767.16,-84.83C767.16,-101.2 767.16,-122.8 767.16,-122.8 767.16,-122.8 637.26,-122.8 637.26,-122.8"/>
<polygon fill="black" stroke="black" points="637.26,-119.3 627.26,-122.8 637.26,-126.3 637.26,-119.3"/>
</g>
<!-- TranslateModule -->
<g id="node7" class="node">
<title>TranslateModule</title>
<polygon fill="#8dd3c7" stroke="black" points="695.63,-84.8 692.63,-88.8 671.63,-88.8 668.63,-84.8 584.37,-84.8 584.37,-48.8 695.63,-48.8 695.63,-84.8"/>
<text text-anchor="middle" x="640" y="-62.6" font-family="Times,serif" font-size="14.00">TranslateModule</text>
</g>
<!-- TranslateModule&#45;&gt;MutualFundsModule -->
<g id="edge6" class="edge">
<title>TranslateModule&#45;&gt;MutualFundsModule</title>
<path fill="none" stroke="black" d="M605.65,-84.91C605.65,-84.91 605.65,-103.79 605.65,-103.79"/>
<polygon fill="black" stroke="black" points="602.15,-103.79 605.65,-113.79 609.15,-103.79 602.15,-103.79"/>
</g>
</g>
</svg>
