<?xml version="1.0" encoding="UTF-8" standalone="no"?>
<!DOCTYPE svg PUBLIC "-//W3C//DTD SVG 1.1//EN"
 "http://www.w3.org/Graphics/SVG/1.1/DTD/svg11.dtd">
<!-- Generated by graphviz version 2.47.3 (20210619.1520)
 -->
<!-- Title: dependencies Pages: 1 -->
<svg width="430pt" height="247pt"
 viewBox="0.00 0.00 430.00 246.80" xmlns="http://www.w3.org/2000/svg" xmlns:xlink="http://www.w3.org/1999/xlink">
<g id="graph0" class="graph" transform="scale(1 1) rotate(0) translate(4 242.8)">
<title>dependencies</title>
<polygon fill="white" stroke="transparent" points="-4,4 -4,-242.8 426,-242.8 426,4 -4,4"/>
<text text-anchor="middle" x="211" y="-8.2" font-family="sans-serif" font-size="14.00">dependencies</text>
<g id="clust1" class="cluster">
<title>cluster_SubmenuModule</title>
<polygon fill="none" stroke="black" stroke-dasharray="1,5" points="8,-32.8 8,-230.8 414,-230.8 414,-32.8 8,-32.8"/>
</g>
<g id="clust2" class="cluster">
<title>cluster_SubmenuModule_declarations</title>
<polygon fill="none" stroke="black" points="256,-40.8 256,-92.8 406,-92.8 406,-40.8 256,-40.8"/>
</g>
<g id="clust4" class="cluster">
<title>cluster_SubmenuModule_imports</title>
<polygon fill="none" stroke="black" points="16,-40.8 16,-92.8 248,-92.8 248,-40.8 16,-40.8"/>
</g>
<g id="clust5" class="cluster">
<title>cluster_SubmenuModule_exports</title>
<polygon fill="none" stroke="black" points="120,-170.8 120,-222.8 274,-222.8 274,-170.8 120,-170.8"/>
</g>
<!-- SubmenuComponent -->
<g id="node1" class="node">
<title>SubmenuComponent</title>
<polygon fill="#ffffb3" stroke="black" points="398.22,-84.8 263.78,-84.8 263.78,-48.8 398.22,-48.8 398.22,-84.8"/>
<text text-anchor="middle" x="331" y="-62.6" font-family="Times,serif" font-size="14.00">SubmenuComponent</text>
</g>
<!-- SubmenuModule -->
<g id="node2" class="node">
<title>SubmenuModule</title>
<polygon fill="#8dd3c7" stroke="black" points="253.44,-149.8 250.44,-153.8 229.44,-153.8 226.44,-149.8 140.56,-149.8 140.56,-113.8 253.44,-113.8 253.44,-149.8"/>
<text text-anchor="middle" x="197" y="-127.6" font-family="Times,serif" font-size="14.00">SubmenuModule</text>
</g>
<!-- SubmenuComponent&#45;&gt;SubmenuModule -->
<g id="edge1" class="edge">
<title>SubmenuComponent&#45;&gt;SubmenuModule</title>
<path fill="none" stroke="black" d="M263.84,-66.8C253.84,-66.8 246.8,-66.8 246.8,-66.8 246.8,-66.8 246.8,-103.69 246.8,-103.69"/>
<polygon fill="black" stroke="black" points="243.3,-103.69 246.8,-113.69 250.3,-103.69 243.3,-103.69"/>
</g>
<!-- SubmenuComponent  -->
<g id="node5" class="node">
<title>SubmenuComponent </title>
<polygon fill="#fb8072" stroke="black" points="265.72,-214.8 128.28,-214.8 128.28,-178.8 265.72,-178.8 265.72,-214.8"/>
<text text-anchor="middle" x="197" y="-192.6" font-family="Times,serif" font-size="14.00">SubmenuComponent </text>
</g>
<!-- SubmenuModule&#45;&gt;SubmenuComponent  -->
<g id="edge4" class="edge">
<title>SubmenuModule&#45;&gt;SubmenuComponent </title>
<path fill="none" stroke="black" stroke-dasharray="5,2" d="M197,-149.91C197,-149.91 197,-168.79 197,-168.79"/>
<polygon fill="black" stroke="black" points="193.5,-168.79 197,-178.79 200.5,-168.79 193.5,-168.79"/>
</g>
<!-- CoreModule -->
<g id="node3" class="node">
<title>CoreModule</title>
<polygon fill="#8dd3c7" stroke="black" points="240.26,-84.8 237.26,-88.8 216.26,-88.8 213.26,-84.8 153.74,-84.8 153.74,-48.8 240.26,-48.8 240.26,-84.8"/>
<text text-anchor="middle" x="197" y="-62.6" font-family="Times,serif" font-size="14.00">CoreModule</text>
</g>
<!-- CoreModule&#45;&gt;SubmenuModule -->
<g id="edge2" class="edge">
<title>CoreModule&#45;&gt;SubmenuModule</title>
<path fill="none" stroke="black" d="M197,-84.91C197,-84.91 197,-103.79 197,-103.79"/>
<polygon fill="black" stroke="black" points="193.5,-103.79 197,-113.79 200.5,-103.79 193.5,-103.79"/>
</g>
<!-- TranslateModule -->
<g id="node4" class="node">
<title>TranslateModule</title>
<polygon fill="#8dd3c7" stroke="black" points="135.63,-84.8 132.63,-88.8 111.63,-88.8 108.63,-84.8 24.37,-84.8 24.37,-48.8 135.63,-48.8 135.63,-84.8"/>
<text text-anchor="middle" x="80" y="-62.6" font-family="Times,serif" font-size="14.00">TranslateModule</text>
</g>
<!-- TranslateModule&#45;&gt;SubmenuModule -->
<g id="edge3" class="edge">
<title>TranslateModule&#45;&gt;SubmenuModule</title>
<path fill="none" stroke="black" d="M131.98,-84.91C131.98,-104.14 131.98,-131.8 131.98,-131.8 131.98,-131.8 132.86,-131.8 132.86,-131.8"/>
<polygon fill="black" stroke="black" points="130.75,-135.3 140.75,-131.8 130.75,-128.3 130.75,-135.3"/>
</g>
</g>
</svg>
