<?xml version="1.0" encoding="UTF-8" standalone="no"?>
<!DOCTYPE svg PUBLIC "-//W3C//DTD SVG 1.1//EN"
 "http://www.w3.org/Graphics/SVG/1.1/DTD/svg11.dtd">
<!-- Generated by graphviz version 2.47.3 (20210619.1520)
 -->
<!-- Title: dependencies Pages: 1 -->
<svg width="2014pt" height="247pt"
 viewBox="0.00 0.00 2014.00 246.80" xmlns="http://www.w3.org/2000/svg" xmlns:xlink="http://www.w3.org/1999/xlink">
<g id="graph0" class="graph" transform="scale(1 1) rotate(0) translate(4 242.8)">
<title>dependencies</title>
<polygon fill="white" stroke="transparent" points="-4,4 -4,-242.8 2010,-242.8 2010,4 -4,4"/>
<text text-anchor="middle" x="1003" y="-8.2" font-family="sans-serif" font-size="14.00">dependencies</text>
<g id="clust1" class="cluster">
<title>cluster_WealthRoboAdvisoryModule</title>
<polygon fill="none" stroke="black" stroke-dasharray="1,5" points="8,-32.8 8,-230.8 1998,-230.8 1998,-32.8 8,-32.8"/>
</g>
<g id="clust11" class="cluster">
<title>cluster_WealthRoboAdvisoryModule_exports</title>
<polygon fill="none" stroke="black" points="72,-170.8 72,-222.8 1756,-222.8 1756,-170.8 72,-170.8"/>
</g>
<g id="clust2" class="cluster">
<title>cluster_WealthRoboAdvisoryModule_declarations</title>
<polygon fill="none" stroke="black" points="328,-40.8 328,-92.8 1990,-92.8 1990,-40.8 328,-40.8"/>
</g>
<g id="clust10" class="cluster">
<title>cluster_WealthRoboAdvisoryModule_imports</title>
<polygon fill="none" stroke="black" points="16,-40.8 16,-92.8 320,-92.8 320,-40.8 16,-40.8"/>
</g>
<!-- InvestmentPlanningComponent -->
<g id="node1" class="node">
<title>InvestmentPlanningComponent</title>
<polygon fill="#ffffb3" stroke="black" points="1981.82,-84.8 1788.18,-84.8 1788.18,-48.8 1981.82,-48.8 1981.82,-84.8"/>
<text text-anchor="middle" x="1885" y="-62.6" font-family="Times,serif" font-size="14.00">InvestmentPlanningComponent</text>
</g>
<!-- WealthRoboAdvisoryModule -->
<g id="node8" class="node">
<title>WealthRoboAdvisoryModule</title>
<polygon fill="#8dd3c7" stroke="black" points="987.41,-149.8 984.41,-153.8 963.41,-153.8 960.41,-149.8 804.59,-149.8 804.59,-113.8 987.41,-113.8 987.41,-149.8"/>
<text text-anchor="middle" x="896" y="-127.6" font-family="Times,serif" font-size="14.00">WealthRoboAdvisoryModule</text>
</g>
<!-- InvestmentPlanningComponent&#45;&gt;WealthRoboAdvisoryModule -->
<g id="edge1" class="edge">
<title>InvestmentPlanningComponent&#45;&gt;WealthRoboAdvisoryModule</title>
<path fill="none" stroke="black" d="M1885,-84.91C1885,-104.14 1885,-131.8 1885,-131.8 1885,-131.8 997.27,-131.8 997.27,-131.8"/>
<polygon fill="black" stroke="black" points="997.27,-128.3 987.27,-131.8 997.27,-135.3 997.27,-128.3"/>
</g>
<!-- InvestmentPlanningTrackComponent -->
<g id="node2" class="node">
<title>InvestmentPlanningTrackComponent</title>
<polygon fill="#ffffb3" stroke="black" points="1769.96,-84.8 1544.04,-84.8 1544.04,-48.8 1769.96,-48.8 1769.96,-84.8"/>
<text text-anchor="middle" x="1657" y="-62.6" font-family="Times,serif" font-size="14.00">InvestmentPlanningTrackComponent</text>
</g>
<!-- InvestmentPlanningTrackComponent&#45;&gt;WealthRoboAdvisoryModule -->
<g id="edge2" class="edge">
<title>InvestmentPlanningTrackComponent&#45;&gt;WealthRoboAdvisoryModule</title>
<path fill="none" stroke="black" d="M1547.81,-85.1C1547.81,-103.07 1547.81,-127.8 1547.81,-127.8 1547.81,-127.8 997.32,-127.8 997.32,-127.8"/>
<polygon fill="black" stroke="black" points="997.32,-124.3 987.32,-127.8 997.32,-131.3 997.32,-124.3"/>
</g>
<!-- InvestmentPlanningTransactComponent -->
<g id="node3" class="node">
<title>InvestmentPlanningTransactComponent</title>
<polygon fill="#ffffb3" stroke="black" points="1525.51,-84.8 1284.49,-84.8 1284.49,-48.8 1525.51,-48.8 1525.51,-84.8"/>
<text text-anchor="middle" x="1405" y="-62.6" font-family="Times,serif" font-size="14.00">InvestmentPlanningTransactComponent</text>
</g>
<!-- InvestmentPlanningTransactComponent&#45;&gt;WealthRoboAdvisoryModule -->
<g id="edge3" class="edge">
<title>InvestmentPlanningTransactComponent&#45;&gt;WealthRoboAdvisoryModule</title>
<path fill="none" stroke="black" d="M1295.39,-84.83C1295.39,-101.2 1295.39,-122.8 1295.39,-122.8 1295.39,-122.8 997.38,-122.8 997.38,-122.8"/>
<polygon fill="black" stroke="black" points="997.38,-119.3 987.38,-122.8 997.38,-126.3 997.38,-119.3"/>
</g>
<!-- PlanningRecommendedModalComponent -->
<g id="node4" class="node">
<title>PlanningRecommendedModalComponent</title>
<polygon fill="#ffffb3" stroke="black" points="1265.64,-84.8 1014.36,-84.8 1014.36,-48.8 1265.64,-48.8 1265.64,-84.8"/>
<text text-anchor="middle" x="1140" y="-62.6" font-family="Times,serif" font-size="14.00">PlanningRecommendedModalComponent</text>
</g>
<!-- PlanningRecommendedModalComponent&#45;&gt;WealthRoboAdvisoryModule -->
<g id="edge4" class="edge">
<title>PlanningRecommendedModalComponent&#45;&gt;WealthRoboAdvisoryModule</title>
<path fill="none" stroke="black" d="M1018.88,-84.99C1018.88,-99.98 1018.88,-118.8 1018.88,-118.8 1018.88,-118.8 997.23,-118.8 997.23,-118.8"/>
<polygon fill="black" stroke="black" points="997.23,-115.3 987.23,-118.8 997.23,-122.3 997.23,-115.3"/>
</g>
<!-- PlanningTrackModalComponent -->
<g id="node5" class="node">
<title>PlanningTrackModalComponent</title>
<polygon fill="#ffffb3" stroke="black" points="996.3,-84.8 795.7,-84.8 795.7,-48.8 996.3,-48.8 996.3,-84.8"/>
<text text-anchor="middle" x="896" y="-62.6" font-family="Times,serif" font-size="14.00">PlanningTrackModalComponent</text>
</g>
<!-- PlanningTrackModalComponent&#45;&gt;WealthRoboAdvisoryModule -->
<g id="edge5" class="edge">
<title>PlanningTrackModalComponent&#45;&gt;WealthRoboAdvisoryModule</title>
<path fill="none" stroke="black" d="M896,-84.91C896,-84.91 896,-103.79 896,-103.79"/>
<polygon fill="black" stroke="black" points="892.5,-103.79 896,-113.79 899.5,-103.79 892.5,-103.79"/>
</g>
<!-- PlanningTranslateModalComponent -->
<g id="node6" class="node">
<title>PlanningTranslateModalComponent</title>
<polygon fill="#ffffb3" stroke="black" points="777.74,-84.8 558.26,-84.8 558.26,-48.8 777.74,-48.8 777.74,-84.8"/>
<text text-anchor="middle" x="668" y="-62.6" font-family="Times,serif" font-size="14.00">PlanningTranslateModalComponent</text>
</g>
<!-- PlanningTranslateModalComponent&#45;&gt;WealthRoboAdvisoryModule -->
<g id="edge6" class="edge">
<title>PlanningTranslateModalComponent&#45;&gt;WealthRoboAdvisoryModule</title>
<path fill="none" stroke="black" d="M773.15,-84.99C773.15,-99.98 773.15,-118.8 773.15,-118.8 773.15,-118.8 794.79,-118.8 794.79,-118.8"/>
<polygon fill="black" stroke="black" points="794.79,-122.3 804.79,-118.8 794.79,-115.3 794.79,-122.3"/>
</g>
<!-- WealthRoboAdvisoryComponent -->
<g id="node7" class="node">
<title>WealthRoboAdvisoryComponent</title>
<polygon fill="#ffffb3" stroke="black" points="540.2,-84.8 335.8,-84.8 335.8,-48.8 540.2,-48.8 540.2,-84.8"/>
<text text-anchor="middle" x="438" y="-62.6" font-family="Times,serif" font-size="14.00">WealthRoboAdvisoryComponent</text>
</g>
<!-- WealthRoboAdvisoryComponent&#45;&gt;WealthRoboAdvisoryModule -->
<g id="edge7" class="edge">
<title>WealthRoboAdvisoryComponent&#45;&gt;WealthRoboAdvisoryModule</title>
<path fill="none" stroke="black" d="M534.36,-84.83C534.36,-101.2 534.36,-122.8 534.36,-122.8 534.36,-122.8 794.74,-122.8 794.74,-122.8"/>
<polygon fill="black" stroke="black" points="794.74,-126.3 804.74,-122.8 794.74,-119.3 794.74,-126.3"/>
</g>
<!-- InvestmentPlanningComponent  -->
<g id="node11" class="node">
<title>InvestmentPlanningComponent </title>
<polygon fill="#fb8072" stroke="black" points="1748.32,-214.8 1551.68,-214.8 1551.68,-178.8 1748.32,-178.8 1748.32,-214.8"/>
<text text-anchor="middle" x="1650" y="-192.6" font-family="Times,serif" font-size="14.00">InvestmentPlanningComponent </text>
</g>
<!-- WealthRoboAdvisoryModule&#45;&gt;InvestmentPlanningComponent  -->
<g id="edge10" class="edge">
<title>WealthRoboAdvisoryModule&#45;&gt;InvestmentPlanningComponent </title>
<path fill="none" stroke="black" stroke-dasharray="5,2" d="M987.33,-136.8C1188.07,-136.8 1650,-136.8 1650,-136.8 1650,-136.8 1650,-168.8 1650,-168.8"/>
<polygon fill="black" stroke="black" points="1646.5,-168.8 1650,-178.8 1653.5,-168.8 1646.5,-168.8"/>
</g>
<!-- InvestmentPlanningTrackComponent  -->
<g id="node12" class="node">
<title>InvestmentPlanningTrackComponent </title>
<polygon fill="#fb8072" stroke="black" points="1533.96,-214.8 1304.04,-214.8 1304.04,-178.8 1533.96,-178.8 1533.96,-214.8"/>
<text text-anchor="middle" x="1419" y="-192.6" font-family="Times,serif" font-size="14.00">InvestmentPlanningTrackComponent </text>
</g>
<!-- WealthRoboAdvisoryModule&#45;&gt;InvestmentPlanningTrackComponent  -->
<g id="edge11" class="edge">
<title>WealthRoboAdvisoryModule&#45;&gt;InvestmentPlanningTrackComponent </title>
<path fill="none" stroke="black" stroke-dasharray="5,2" d="M987.3,-140.8C1136.22,-140.8 1415.01,-140.8 1415.01,-140.8 1415.01,-140.8 1415.01,-168.77 1415.01,-168.77"/>
<polygon fill="black" stroke="black" points="1411.51,-168.77 1415.01,-178.77 1418.51,-168.77 1411.51,-168.77"/>
</g>
<!-- InvestmentPlanningTransactComponent  -->
<g id="node13" class="node">
<title>InvestmentPlanningTransactComponent </title>
<polygon fill="#fb8072" stroke="black" points="1286.51,-214.8 1041.49,-214.8 1041.49,-178.8 1286.51,-178.8 1286.51,-214.8"/>
<text text-anchor="middle" x="1164" y="-192.6" font-family="Times,serif" font-size="14.00">InvestmentPlanningTransactComponent </text>
</g>
<!-- WealthRoboAdvisoryModule&#45;&gt;InvestmentPlanningTransactComponent  -->
<g id="edge12" class="edge">
<title>WealthRoboAdvisoryModule&#45;&gt;InvestmentPlanningTransactComponent </title>
<path fill="none" stroke="black" stroke-dasharray="5,2" d="M987.57,-145.8C1061.62,-145.8 1153.66,-145.8 1153.66,-145.8 1153.66,-145.8 1153.66,-168.68 1153.66,-168.68"/>
<polygon fill="black" stroke="black" points="1150.16,-168.68 1153.66,-178.68 1157.16,-168.68 1150.16,-168.68"/>
</g>
<!-- PlanningRecommendedModalComponent  -->
<g id="node14" class="node">
<title>PlanningRecommendedModalComponent </title>
<polygon fill="#fb8072" stroke="black" points="1023.64,-214.8 768.36,-214.8 768.36,-178.8 1023.64,-178.8 1023.64,-214.8"/>
<text text-anchor="middle" x="896" y="-192.6" font-family="Times,serif" font-size="14.00">PlanningRecommendedModalComponent </text>
</g>
<!-- WealthRoboAdvisoryModule&#45;&gt;PlanningRecommendedModalComponent  -->
<g id="edge13" class="edge">
<title>WealthRoboAdvisoryModule&#45;&gt;PlanningRecommendedModalComponent </title>
<path fill="none" stroke="black" stroke-dasharray="5,2" d="M896,-149.91C896,-149.91 896,-168.79 896,-168.79"/>
<polygon fill="black" stroke="black" points="892.5,-168.79 896,-178.79 899.5,-168.79 892.5,-168.79"/>
</g>
<!-- PlanningTrackModalComponent  -->
<g id="node15" class="node">
<title>PlanningTrackModalComponent </title>
<polygon fill="#fb8072" stroke="black" points="750.8,-214.8 547.2,-214.8 547.2,-178.8 750.8,-178.8 750.8,-214.8"/>
<text text-anchor="middle" x="649" y="-192.6" font-family="Times,serif" font-size="14.00">PlanningTrackModalComponent </text>
</g>
<!-- WealthRoboAdvisoryModule&#45;&gt;PlanningTrackModalComponent  -->
<g id="edge14" class="edge">
<title>WealthRoboAdvisoryModule&#45;&gt;PlanningTrackModalComponent </title>
<path fill="none" stroke="black" stroke-dasharray="5,2" d="M804.7,-145.8C736.32,-145.8 654.51,-145.8 654.51,-145.8 654.51,-145.8 654.51,-168.68 654.51,-168.68"/>
<polygon fill="black" stroke="black" points="651.01,-168.68 654.51,-178.68 658.01,-168.68 651.01,-168.68"/>
</g>
<!-- PlanningTranslateModalComponent  -->
<g id="node16" class="node">
<title>PlanningTranslateModalComponent </title>
<polygon fill="#fb8072" stroke="black" points="528.74,-214.8 305.26,-214.8 305.26,-178.8 528.74,-178.8 528.74,-214.8"/>
<text text-anchor="middle" x="417" y="-192.6" font-family="Times,serif" font-size="14.00">PlanningTranslateModalComponent </text>
</g>
<!-- WealthRoboAdvisoryModule&#45;&gt;PlanningTranslateModalComponent  -->
<g id="edge15" class="edge">
<title>WealthRoboAdvisoryModule&#45;&gt;PlanningTranslateModalComponent </title>
<path fill="none" stroke="black" stroke-dasharray="5,2" d="M804.66,-140.8C669.56,-140.8 432.26,-140.8 432.26,-140.8 432.26,-140.8 432.26,-168.77 432.26,-168.77"/>
<polygon fill="black" stroke="black" points="428.76,-168.77 432.26,-178.77 435.76,-168.77 428.76,-168.77"/>
</g>
<!-- WealthRoboAdvisoryComponent  -->
<g id="node17" class="node">
<title>WealthRoboAdvisoryComponent </title>
<polygon fill="#fb8072" stroke="black" points="287.7,-214.8 80.3,-214.8 80.3,-178.8 287.7,-178.8 287.7,-214.8"/>
<text text-anchor="middle" x="184" y="-192.6" font-family="Times,serif" font-size="14.00">WealthRoboAdvisoryComponent </text>
</g>
<!-- WealthRoboAdvisoryModule&#45;&gt;WealthRoboAdvisoryComponent  -->
<g id="edge16" class="edge">
<title>WealthRoboAdvisoryModule&#45;&gt;WealthRoboAdvisoryComponent </title>
<path fill="none" stroke="black" stroke-dasharray="5,2" d="M804.66,-136.8C625.22,-136.8 244.02,-136.8 244.02,-136.8 244.02,-136.8 244.02,-168.8 244.02,-168.8"/>
<polygon fill="black" stroke="black" points="240.52,-168.8 244.02,-178.8 247.52,-168.8 240.52,-168.8"/>
</g>
<!-- TranslateModule -->
<g id="node9" class="node">
<title>TranslateModule</title>
<polygon fill="#8dd3c7" stroke="black" points="311.63,-84.8 308.63,-88.8 287.63,-88.8 284.63,-84.8 200.37,-84.8 200.37,-48.8 311.63,-48.8 311.63,-84.8"/>
<text text-anchor="middle" x="256" y="-62.6" font-family="Times,serif" font-size="14.00">TranslateModule</text>
</g>
<!-- TranslateModule&#45;&gt;WealthRoboAdvisoryModule -->
<g id="edge8" class="edge">
<title>TranslateModule&#45;&gt;WealthRoboAdvisoryModule</title>
<path fill="none" stroke="black" d="M296.61,-85.1C296.61,-103.07 296.61,-127.8 296.61,-127.8 296.61,-127.8 794.64,-127.8 794.64,-127.8"/>
<polygon fill="black" stroke="black" points="794.64,-131.3 804.64,-127.8 794.64,-124.3 794.64,-131.3"/>
</g>
<!-- currencyCommasModule -->
<g id="node10" class="node">
<title>currencyCommasModule</title>
<polygon fill="#8dd3c7" stroke="black" points="182.29,-84.8 179.29,-88.8 158.29,-88.8 155.29,-84.8 23.71,-84.8 23.71,-48.8 182.29,-48.8 182.29,-84.8"/>
<text text-anchor="middle" x="103" y="-62.6" font-family="Times,serif" font-size="14.00">currencyCommasModule</text>
</g>
<!-- currencyCommasModule&#45;&gt;WealthRoboAdvisoryModule -->
<g id="edge9" class="edge">
<title>currencyCommasModule&#45;&gt;WealthRoboAdvisoryModule</title>
<path fill="none" stroke="black" d="M131.15,-84.91C131.15,-104.14 131.15,-131.8 131.15,-131.8 131.15,-131.8 794.5,-131.8 794.5,-131.8"/>
<polygon fill="black" stroke="black" points="794.5,-135.3 804.5,-131.8 794.5,-128.3 794.5,-135.3"/>
</g>
</g>
</svg>
