<?xml version="1.0" encoding="UTF-8" standalone="no"?>
<!DOCTYPE svg PUBLIC "-//W3C//DTD SVG 1.1//EN"
 "http://www.w3.org/Graphics/SVG/1.1/DTD/svg11.dtd">
<!-- Generated by graphviz version 2.47.3 (20210619.1520)
 -->
<!-- Title: dependencies Pages: 1 -->
<svg width="822pt" height="247pt"
 viewBox="0.00 0.00 822.00 246.80" xmlns="http://www.w3.org/2000/svg" xmlns:xlink="http://www.w3.org/1999/xlink">
<g id="graph0" class="graph" transform="scale(1 1) rotate(0) translate(4 242.8)">
<title>dependencies</title>
<polygon fill="white" stroke="transparent" points="-4,4 -4,-242.8 818,-242.8 818,4 -4,4"/>
<text text-anchor="middle" x="407" y="-8.2" font-family="sans-serif" font-size="14.00">dependencies</text>
<g id="clust1" class="cluster">
<title>cluster_DashboardPageModule</title>
<polygon fill="none" stroke="black" stroke-dasharray="1,5" points="8,-32.8 8,-230.8 806,-230.8 806,-32.8 8,-32.8"/>
</g>
<g id="clust2" class="cluster">
<title>cluster_DashboardPageModule_declarations</title>
<polygon fill="none" stroke="black" points="678,-40.8 678,-92.8 798,-92.8 798,-40.8 678,-40.8"/>
</g>
<g id="clust4" class="cluster">
<title>cluster_DashboardPageModule_imports</title>
<polygon fill="none" stroke="black" points="16,-40.8 16,-92.8 670,-92.8 670,-40.8 16,-40.8"/>
</g>
<g id="clust5" class="cluster">
<title>cluster_DashboardPageModule_exports</title>
<polygon fill="none" stroke="black" points="399,-170.8 399,-222.8 523,-222.8 523,-170.8 399,-170.8"/>
</g>
<!-- DashboardPage -->
<g id="node1" class="node">
<title>DashboardPage</title>
<polygon fill="#ffffb3" stroke="black" points="789.85,-84.8 686.15,-84.8 686.15,-48.8 789.85,-48.8 789.85,-84.8"/>
<text text-anchor="middle" x="738" y="-62.6" font-family="Times,serif" font-size="14.00">DashboardPage</text>
</g>
<!-- DashboardPageModule -->
<g id="node2" class="node">
<title>DashboardPageModule</title>
<polygon fill="#8dd3c7" stroke="black" points="534.9,-149.8 531.9,-153.8 510.9,-153.8 507.9,-149.8 387.1,-149.8 387.1,-113.8 534.9,-113.8 534.9,-149.8"/>
<text text-anchor="middle" x="461" y="-127.6" font-family="Times,serif" font-size="14.00">DashboardPageModule</text>
</g>
<!-- DashboardPage&#45;&gt;DashboardPageModule -->
<g id="edge1" class="edge">
<title>DashboardPage&#45;&gt;DashboardPageModule</title>
<path fill="none" stroke="black" d="M738,-85.08C738,-106.12 738,-137.8 738,-137.8 738,-137.8 544.87,-137.8 544.87,-137.8"/>
<polygon fill="black" stroke="black" points="544.87,-134.3 534.87,-137.8 544.87,-141.3 544.87,-134.3"/>
</g>
<!-- DashboardPage  -->
<g id="node7" class="node">
<title>DashboardPage </title>
<polygon fill="#fb8072" stroke="black" points="514.85,-214.8 407.15,-214.8 407.15,-178.8 514.85,-178.8 514.85,-214.8"/>
<text text-anchor="middle" x="461" y="-192.6" font-family="Times,serif" font-size="14.00">DashboardPage </text>
</g>
<!-- DashboardPageModule&#45;&gt;DashboardPage  -->
<g id="edge6" class="edge">
<title>DashboardPageModule&#45;&gt;DashboardPage </title>
<path fill="none" stroke="black" stroke-dasharray="5,2" d="M461,-149.91C461,-149.91 461,-168.79 461,-168.79"/>
<polygon fill="black" stroke="black" points="457.5,-168.79 461,-178.79 464.5,-168.79 457.5,-168.79"/>
</g>
<!-- CoreModule -->
<g id="node3" class="node">
<title>CoreModule</title>
<polygon fill="#8dd3c7" stroke="black" points="662.26,-84.8 659.26,-88.8 638.26,-88.8 635.26,-84.8 575.74,-84.8 575.74,-48.8 662.26,-48.8 662.26,-84.8"/>
<text text-anchor="middle" x="619" y="-62.6" font-family="Times,serif" font-size="14.00">CoreModule</text>
</g>
<!-- CoreModule&#45;&gt;DashboardPageModule -->
<g id="edge2" class="edge">
<title>CoreModule&#45;&gt;DashboardPageModule</title>
<path fill="none" stroke="black" d="M619,-84.82C619,-102.17 619,-125.8 619,-125.8 619,-125.8 544.91,-125.8 544.91,-125.8"/>
<polygon fill="black" stroke="black" points="544.91,-122.3 534.91,-125.8 544.91,-129.3 544.91,-122.3"/>
</g>
<!-- DashboardPageRoutingModule -->
<g id="node4" class="node">
<title>DashboardPageRoutingModule</title>
<polygon fill="#8dd3c7" stroke="black" points="557.02,-84.8 554.02,-88.8 533.02,-88.8 530.02,-84.8 364.98,-84.8 364.98,-48.8 557.02,-48.8 557.02,-84.8"/>
<text text-anchor="middle" x="461" y="-62.6" font-family="Times,serif" font-size="14.00">DashboardPageRoutingModule</text>
</g>
<!-- DashboardPageRoutingModule&#45;&gt;DashboardPageModule -->
<g id="edge3" class="edge">
<title>DashboardPageRoutingModule&#45;&gt;DashboardPageModule</title>
<path fill="none" stroke="black" d="M461,-84.91C461,-84.91 461,-103.79 461,-103.79"/>
<polygon fill="black" stroke="black" points="457.5,-103.79 461,-113.79 464.5,-103.79 457.5,-103.79"/>
</g>
<!-- PortfolioInsigthsModule -->
<g id="node5" class="node">
<title>PortfolioInsigthsModule</title>
<polygon fill="#8dd3c7" stroke="black" points="346.66,-84.8 343.66,-88.8 322.66,-88.8 319.66,-84.8 193.34,-84.8 193.34,-48.8 346.66,-48.8 346.66,-84.8"/>
<text text-anchor="middle" x="270" y="-62.6" font-family="Times,serif" font-size="14.00">PortfolioInsigthsModule</text>
</g>
<!-- PortfolioInsigthsModule&#45;&gt;DashboardPageModule -->
<g id="edge4" class="edge">
<title>PortfolioInsigthsModule&#45;&gt;DashboardPageModule</title>
<path fill="none" stroke="black" d="M270,-84.82C270,-102.17 270,-125.8 270,-125.8 270,-125.8 377.15,-125.8 377.15,-125.8"/>
<polygon fill="black" stroke="black" points="377.15,-129.3 387.15,-125.8 377.15,-122.3 377.15,-129.3"/>
</g>
<!-- WealthWellnessModule -->
<g id="node6" class="node">
<title>WealthWellnessModule</title>
<polygon fill="#8dd3c7" stroke="black" points="175.79,-84.8 172.79,-88.8 151.79,-88.8 148.79,-84.8 24.21,-84.8 24.21,-48.8 175.79,-48.8 175.79,-84.8"/>
<text text-anchor="middle" x="100" y="-62.6" font-family="Times,serif" font-size="14.00">WealthWellnessModule</text>
</g>
<!-- WealthWellnessModule&#45;&gt;DashboardPageModule -->
<g id="edge5" class="edge">
<title>WealthWellnessModule&#45;&gt;DashboardPageModule</title>
<path fill="none" stroke="black" d="M100,-85.08C100,-106.12 100,-137.8 100,-137.8 100,-137.8 377.08,-137.8 377.08,-137.8"/>
<polygon fill="black" stroke="black" points="377.08,-141.3 387.08,-137.8 377.08,-134.3 377.08,-141.3"/>
</g>
</g>
</svg>
