<?xml version="1.0" encoding="UTF-8" standalone="no"?>
<!DOCTYPE svg PUBLIC "-//W3C//DTD SVG 1.1//EN"
 "http://www.w3.org/Graphics/SVG/1.1/DTD/svg11.dtd">
<!-- Generated by graphviz version 2.47.3 (20210619.1520)
 -->
<!-- Title: dependencies Pages: 1 -->
<svg width="585pt" height="174pt"
 viewBox="0.00 0.00 585.00 173.80" xmlns="http://www.w3.org/2000/svg" xmlns:xlink="http://www.w3.org/1999/xlink">
<g id="graph0" class="graph" transform="scale(1 1) rotate(0) translate(4 169.8)">
<title>dependencies</title>
<polygon fill="white" stroke="transparent" points="-4,4 -4,-169.8 581,-169.8 581,4 -4,4"/>
<text text-anchor="middle" x="288.5" y="-8.2" font-family="sans-serif" font-size="14.00">dependencies</text>
<g id="clust1" class="cluster">
<title>cluster_LifestylePageModule</title>
<polygon fill="none" stroke="black" stroke-dasharray="1,5" points="8,-32.8 8,-157.8 569,-157.8 569,-32.8 8,-32.8"/>
</g>
<g id="clust2" class="cluster">
<title>cluster_LifestylePageModule_declarations</title>
<polygon fill="none" stroke="black" points="453,-40.8 453,-92.8 561,-92.8 561,-40.8 453,-40.8"/>
</g>
<g id="clust4" class="cluster">
<title>cluster_LifestylePageModule_imports</title>
<polygon fill="none" stroke="black" points="16,-40.8 16,-92.8 445,-92.8 445,-40.8 16,-40.8"/>
</g>
<!-- LifestylePage -->
<g id="node1" class="node">
<title>LifestylePage</title>
<polygon fill="#ffffb3" stroke="black" points="553.47,-84.8 460.53,-84.8 460.53,-48.8 553.47,-48.8 553.47,-84.8"/>
<text text-anchor="middle" x="507" y="-62.6" font-family="Times,serif" font-size="14.00">LifestylePage</text>
</g>
<!-- LifestylePageModule -->
<g id="node2" class="node">
<title>LifestylePageModule</title>
<polygon fill="#8dd3c7" stroke="black" points="404.02,-149.8 401.02,-153.8 380.02,-153.8 377.02,-149.8 267.98,-149.8 267.98,-113.8 404.02,-113.8 404.02,-149.8"/>
<text text-anchor="middle" x="336" y="-127.6" font-family="Times,serif" font-size="14.00">LifestylePageModule</text>
</g>
<!-- LifestylePage&#45;&gt;LifestylePageModule -->
<g id="edge1" class="edge">
<title>LifestylePage&#45;&gt;LifestylePageModule</title>
<path fill="none" stroke="black" d="M507,-84.91C507,-104.14 507,-131.8 507,-131.8 507,-131.8 414.08,-131.8 414.08,-131.8"/>
<polygon fill="black" stroke="black" points="414.08,-128.3 404.08,-131.8 414.08,-135.3 414.08,-128.3"/>
</g>
<!-- CoreModule -->
<g id="node3" class="node">
<title>CoreModule</title>
<polygon fill="#8dd3c7" stroke="black" points="437.26,-84.8 434.26,-88.8 413.26,-88.8 410.26,-84.8 350.74,-84.8 350.74,-48.8 437.26,-48.8 437.26,-84.8"/>
<text text-anchor="middle" x="394" y="-62.6" font-family="Times,serif" font-size="14.00">CoreModule</text>
</g>
<!-- CoreModule&#45;&gt;LifestylePageModule -->
<g id="edge2" class="edge">
<title>CoreModule&#45;&gt;LifestylePageModule</title>
<path fill="none" stroke="black" d="M377.44,-84.91C377.44,-84.91 377.44,-103.79 377.44,-103.79"/>
<polygon fill="black" stroke="black" points="373.94,-103.79 377.44,-113.79 380.94,-103.79 373.94,-103.79"/>
</g>
<!-- LifestyleModule -->
<g id="node4" class="node">
<title>LifestyleModule</title>
<polygon fill="#8dd3c7" stroke="black" points="332.81,-84.8 329.81,-88.8 308.81,-88.8 305.81,-84.8 223.19,-84.8 223.19,-48.8 332.81,-48.8 332.81,-84.8"/>
<text text-anchor="middle" x="278" y="-62.6" font-family="Times,serif" font-size="14.00">LifestyleModule</text>
</g>
<!-- LifestyleModule&#45;&gt;LifestylePageModule -->
<g id="edge3" class="edge">
<title>LifestyleModule&#45;&gt;LifestylePageModule</title>
<path fill="none" stroke="black" d="M300.2,-84.91C300.2,-84.91 300.2,-103.79 300.2,-103.79"/>
<polygon fill="black" stroke="black" points="296.7,-103.79 300.2,-113.79 303.7,-103.79 296.7,-103.79"/>
</g>
<!-- LifestylePageRoutingModule -->
<g id="node5" class="node">
<title>LifestylePageRoutingModule</title>
<polygon fill="#8dd3c7" stroke="black" points="205.64,-84.8 202.64,-88.8 181.64,-88.8 178.64,-84.8 24.36,-84.8 24.36,-48.8 205.64,-48.8 205.64,-84.8"/>
<text text-anchor="middle" x="115" y="-62.6" font-family="Times,serif" font-size="14.00">LifestylePageRoutingModule</text>
</g>
<!-- LifestylePageRoutingModule&#45;&gt;LifestylePageModule -->
<g id="edge4" class="edge">
<title>LifestylePageRoutingModule&#45;&gt;LifestylePageModule</title>
<path fill="none" stroke="black" d="M115,-84.91C115,-104.14 115,-131.8 115,-131.8 115,-131.8 257.89,-131.8 257.89,-131.8"/>
<polygon fill="black" stroke="black" points="257.89,-135.3 267.89,-131.8 257.89,-128.3 257.89,-135.3"/>
</g>
</g>
</svg>
