<svg xmlns="http://www.w3.org/2000/svg" width="23.507" height="17.086" viewBox="0 0 23.507 17.086">
  <g id="Group_20446" data-name="Group 20446" transform="translate(5421 3790)">
    <g id="Group_20445" data-name="Group 20445" transform="translate(-5421 -3790)">
      <path id="Path_20887" data-name="Path 20887" d="M23.328,21.891l-3.262-7.57a2.23,2.23,0,0,0-2.788-1.216l-1.385.492a.352.352,0,0,0-.206.191.345.345,0,0,0,0,.283l.1.235a1.676,1.676,0,0,0-.408-.051h-.3V12.727a.354.354,0,0,0-.356-.356h-.988A4.277,4.277,0,0,0,12,8.823a.36.36,0,0,0-.511.044c-.026.033-2.784,3.357-6.237,3.5H2.413a.354.354,0,0,0-.356.356v1.528h-.3A1.76,1.76,0,0,0,0,16.011v8.055a1.758,1.758,0,0,0,1.756,1.756H15.372a1.758,1.758,0,0,0,1.756-1.756V17.484l3.339,7.857a.366.366,0,0,0,.213.2.41.41,0,0,0,.114.018.335.335,0,0,0,.176-.048l1.41-.808A2.224,2.224,0,0,0,23.328,21.891ZM11.791,9.6a3.42,3.42,0,0,1,1.227,2.769H8.077A12.241,12.241,0,0,0,11.791,9.6ZM2.769,13.083H14.358v1.172H2.769ZM16.419,24.069a1.046,1.046,0,0,1-1.047,1.043H1.756A1.048,1.048,0,0,1,.709,24.069V16.011a1.046,1.046,0,0,1,1.047-1.043h13.62a1.046,1.046,0,0,1,.951.617l.018.048a1.011,1.011,0,0,1,.073.382Zm5.612.015-1.065.606L17,15.353a.184.184,0,0,1-.018-.048l-.5-1.164,1.028-.367a1.513,1.513,0,0,1,1.9.826l3.258,7.57A1.509,1.509,0,0,1,22.031,24.084Z" transform="translate(0 -8.737)" fill="#44c8f5"/>
      <path id="Path_20888" data-name="Path 20888" d="M17.3,29.21a.368.368,0,0,0-.514,0L13.49,32.662a.356.356,0,0,0,0,.5l3.291,3.313a.362.362,0,0,0,.253.107.347.347,0,0,0,.253-.107l3.291-3.313a.352.352,0,0,0,0-.5Zm-.257,6.509L14.247,32.9l2.792-2.931L19.83,32.9Z" transform="translate(-8.473 -21.624)" fill="#039"/>
    </g>
  </g>
</svg>
