<svg id="Group_20757" data-name="Group 20757" xmlns="http://www.w3.org/2000/svg" width="11" height="11" viewBox="0 0 11 11">
  <path id="Path_15958" data-name="Path 15958" d="M9.582.859H8.594V.344a.344.344,0,0,0-.687,0V.859H3.094V.344a.344.344,0,0,0-.687,0V.859H1.418A1.42,1.42,0,0,0,0,2.277v7.3A1.42,1.42,0,0,0,1.418,11H9.582A1.42,1.42,0,0,0,11,9.582v-7.3A1.42,1.42,0,0,0,9.582.859Zm-8.164.688h.988v.344a.344.344,0,0,0,.688,0V1.547H7.906v.344a.344.344,0,0,0,.688,0V1.547h.988a.731.731,0,0,1,.73.73v.816H.688V2.277A.731.731,0,0,1,1.418,1.547Zm8.164,8.766H1.418a.731.731,0,0,1-.73-.73v-5.8h9.625v5.8A.731.731,0,0,1,9.582,10.313Z" fill="#44c8f5"/>
  <path id="Path_15964" data-name="Path 15964" d="M12.84,16.922H10.461a.461.461,0,1,1,0-.922H12.84a.461.461,0,1,1,0,.922Z" transform="translate(-7.15 -10.704)" fill="#039"/>
  <path id="Path_15967" data-name="Path 15967" d="M12.84,16.922H10.461a.461.461,0,1,1,0-.922H12.84a.461.461,0,1,1,0,.922Z" transform="translate(-7.15 -8.331)" fill="#039"/>
  <path id="Path_15963" data-name="Path 15963" d="M12.84,16.922H10.461a.461.461,0,1,1,0-.922H12.84a.461.461,0,1,1,0,.922Z" transform="translate(-6.15 -10.704)" fill="#039"/>
  <path id="Path_15966" data-name="Path 15966" d="M12.84,16.922H10.461a.461.461,0,1,1,0-.922H12.84a.461.461,0,1,1,0,.922Z" transform="translate(-6.15 -8.331)" fill="#039"/>
  <path id="Path_15962" data-name="Path 15962" d="M12.84,16.922H10.461a.461.461,0,1,1,0-.922H12.84a.461.461,0,1,1,0,.922Z" transform="translate(-5.15 -10.704)" fill="#039"/>
  <path id="Path_15965" data-name="Path 15965" d="M12.84,16.922H10.461a.461.461,0,1,1,0-.922H12.84a.461.461,0,1,1,0,.922Z" transform="translate(-5.15 -8.331)" fill="#039"/>
</svg>
