<svg xmlns="http://www.w3.org/2000/svg" width="25.64" height="27.865" viewBox="0 0 25.64 27.865">
  <g id="_6570650_annual_calculate_data_document_fee_icon" data-name="6570650_annual_calculate_data_document_fee_icon" transform="translate(-44.68 -26.33)">
    <path id="Path_20915" data-name="Path 20915" d="M124.46,208.88h-12.1a.409.409,0,0,0,0,.819h12.1a.409.409,0,1,0,0-.819Z" transform="translate(-63.189 -171.476)" fill="#44c8f5"/>
    <path id="Path_20916" data-name="Path 20916" d="M112.359,251.9h2.851a.409.409,0,1,0,0-.819h-2.851a.409.409,0,0,0,0,.819Z" transform="translate(-63.189 -211.115)" fill="#44c8f5"/>
    <path id="Path_20917" data-name="Path 20917" d="M112,293.659a.409.409,0,0,0,.409.409H119a.409.409,0,0,0,0-.819h-6.593A.409.409,0,0,0,112,293.659Z" transform="translate(-63.236 -250.727)" fill="#44c8f5"/>
    <path id="Path_20918" data-name="Path 20918" d="M112.359,378.529h2.487a.409.409,0,1,0,0-.819h-2.487a.409.409,0,1,0,0,.819Z" transform="translate(-63.189 -330.064)" fill="#44c8f5"/>
    <path id="Path_20919" data-name="Path 20919" d="M69.91,39.964H68.386V26.739a.409.409,0,0,0-.409-.409H47.714a.409.409,0,0,0-.406.41v1.737H45.089a.409.409,0,0,0-.409.409V50.758a.409.409,0,0,0,.409.409H58.6v2.618a.409.409,0,0,0,.409.409h10.9a.41.41,0,0,0,.409-.409V40.374a.41.41,0,0,0-.409-.409ZM48.124,27.15H67.57V39.964H65.761V28.886a.409.409,0,0,0-.409-.409H48.123Zm6.739,12.815a.409.409,0,0,0,0,.819H58.6v4.3H49.17a.409.409,0,1,0,0,.819H58.6v4.444H45.5V29.3H64.943V39.964ZM69.5,53.376H59.422V40.783H69.5Z" fill="#44c8f5"/>
    <path id="Path_20920" data-name="Path 20920" d="M302.139,281.614h7.554a.409.409,0,0,0,.409-.409v-2.645a.409.409,0,0,0-.409-.409h-7.554a.41.41,0,0,0-.409.409V281.2A.41.41,0,0,0,302.139,281.614Zm.409-2.645h6.734v1.826h-6.734Z" transform="translate(-241.456 -236.543)" fill="#039"/>
    <path id="Path_20921" data-name="Path 20921" d="M304.205,360.22H303.3a.41.41,0,0,0,0,.819h.906a.41.41,0,0,0,0-.819Z" transform="translate(-242.546 -313.635)" fill="#44c8f5"/>
    <path id="Path_20922" data-name="Path 20922" d="M339.966,360.22h-.906a.41.41,0,0,0,0,.819h.906a.41.41,0,0,0,0-.819Z" transform="translate(-276.136 -313.635)" fill="#44c8f5"/>
    <path id="Path_20923" data-name="Path 20923" d="M375.735,360.22h-.906a.41.41,0,0,0,0,.819h.906a.41.41,0,0,0,0-.819Z" transform="translate(-309.736 -313.635)" fill="#44c8f5"/>
    <path id="Path_20924" data-name="Path 20924" d="M411.5,360.22h-.906a.41.41,0,0,0,0,.819h.906a.41.41,0,0,0,0-.819Z" transform="translate(-343.327 -313.635)" fill="#44c8f5"/>
    <path id="Path_20925" data-name="Path 20925" d="M304.205,391.24H303.3a.409.409,0,1,0,0,.819h.906a.409.409,0,1,0,0-.819Z" transform="translate(-242.546 -342.773)" fill="#44c8f5"/>
    <path id="Path_20926" data-name="Path 20926" d="M339.966,391.24h-.906a.409.409,0,1,0,0,.819h.906a.409.409,0,0,0,0-.819Z" transform="translate(-276.136 -342.773)" fill="#44c8f5"/>
    <path id="Path_20927" data-name="Path 20927" d="M375.735,391.24h-.906a.409.409,0,1,0,0,.819h.906a.409.409,0,1,0,0-.819Z" transform="translate(-309.736 -342.773)" fill="#44c8f5"/>
    <path id="Path_20928" data-name="Path 20928" d="M411.5,391.24h-.906a.409.409,0,0,0,0,.819h.906a.409.409,0,1,0,0-.819Z" transform="translate(-343.327 -342.773)" fill="#44c8f5"/>
    <path id="Path_20929" data-name="Path 20929" d="M304.205,422.25H303.3a.409.409,0,1,0,0,.819h.906a.409.409,0,1,0,0-.819Z" transform="translate(-242.546 -371.901)" fill="#44c8f5"/>
    <path id="Path_20930" data-name="Path 20930" d="M339.966,422.25h-.906a.409.409,0,1,0,0,.819h.906a.409.409,0,1,0,0-.819Z" transform="translate(-276.136 -371.901)" fill="#44c8f5"/>
    <path id="Path_20931" data-name="Path 20931" d="M375.735,422.25h-.906a.409.409,0,1,0,0,.819h.906a.409.409,0,1,0,0-.819Z" transform="translate(-309.736 -371.901)" fill="#44c8f5"/>
    <path id="Path_20932" data-name="Path 20932" d="M411.5,422.25h-.906a.409.409,0,0,0,0,.819h.906a.409.409,0,1,0,0-.819Z" transform="translate(-343.327 -371.901)" fill="#44c8f5"/>
    <path id="Path_20933" data-name="Path 20933" d="M178.879,108.461a.411.411,0,0,0,.522-.251l.34-.966h1.917l.34.966a.41.41,0,0,0,.386.274.416.416,0,0,0,.136-.023.41.41,0,0,0,.25-.523l-1.685-4.781a.409.409,0,0,0-.773,0l-1.683,4.781A.409.409,0,0,0,178.879,108.461Zm1.244-2.295h0l.577-1.638.667,1.9h-1.337Z" transform="translate(-125.803 -71.909)" fill="#039"/>
    <path id="Path_20934" data-name="Path 20934" d="M118.449,102.979h.971v4.372a.409.409,0,0,0,.819,0v-4.372h.971a.409.409,0,0,0,0-.819h-2.76a.409.409,0,0,0,0,.819Z" transform="translate(-68.91 -71.23)" fill="#039"/>
    <path id="Path_20935" data-name="Path 20935" d="M258.648,107.69a.41.41,0,0,0,.562-.143l1.07-1.8,1.069,1.8a.41.41,0,0,0,.7-.419l-1.3-2.178,1.3-2.178a.41.41,0,0,0-.7-.419l-1.069,1.8-1.07-1.8a.41.41,0,1,0-.7.419l1.3,2.178-1.3,2.178A.41.41,0,0,0,258.648,107.69Z" transform="translate(-200.8 -71.223)" fill="#039"/>
  </g>
</svg>
