<svg id="Component_34_1" data-name="Component 34 – 1" xmlns="http://www.w3.org/2000/svg" width="23.488" height="21.855" viewBox="0 0 23.488 21.855">
  <path id="Path_926" data-name="Path 926" d="M23.111,157.279h-1.42V144.445a1.319,1.319,0,0,0-1.318-1.318H18.681a1.319,1.319,0,0,0-1.318,1.318v12.834H16.5v-10.01a1.319,1.319,0,0,0-1.318-1.318H13.492a1.319,1.319,0,0,0-1.318,1.318v10.01h-.861V144.2A1.32,1.32,0,0,0,10,142.879H8.3A1.32,1.32,0,0,0,6.985,144.2v13.082H6.124v-10.01a1.319,1.319,0,0,0-1.318-1.318H3.114A1.319,1.319,0,0,0,1.8,147.269v10.01H.376a.377.377,0,0,0,0,.753H23.111a.377.377,0,0,0,0-.753Zm-17.74,0H2.549v-10.01a.565.565,0,0,1,.565-.565H4.806a.565.565,0,0,1,.565.565Zm5.189,0H7.738V144.2a.565.565,0,0,1,.565-.565H10a.565.565,0,0,1,.565.565Zm5.189,0H12.927v-10.01a.565.565,0,0,1,.565-.565h1.692a.565.565,0,0,1,.565.565Zm5.189,0H18.117V144.445a.565.565,0,0,1,.565-.565h1.692a.565.565,0,0,1,.565.565Zm0,0" transform="translate(0 -136.178)" fill="#44c8f5"/>
  <path id="Path_927" data-name="Path 927" d="M75.114,9.471,80.183,5.29l4.762,3.877a.376.376,0,0,0,.506-.028l7.134-7.25-.259,3a.377.377,0,0,0,.75.065l.35-4.044A.379.379,0,0,0,93.017.5L88.973.853a.377.377,0,0,0,.065.75l3.028-.262L85.154,8.366,80.419,4.511a.377.377,0,0,0-.478,0L74.634,8.89a.377.377,0,1,0,.479.581Zm0,0" transform="translate(-70.991 -0.502)" fill="#039"/>
</svg>
