<svg id="Group_17287" data-name="Group 17287" xmlns="http://www.w3.org/2000/svg" width="11.798" height="12.871" viewBox="0 0 11.798 12.871">
  <g id="Group_17305" data-name="Group 17305">
    <path id="Path_15952" data-name="Path 15952" d="M13.776,14.726H7.341A1.342,1.342,0,0,1,6,13.385V5.341A1.342,1.342,0,0,1,7.341,4h6.435a1.342,1.342,0,0,1,1.341,1.341v8.044A1.342,1.342,0,0,1,13.776,14.726ZM7.341,4.536a.805.805,0,0,0-.8.8v8.044a.805.805,0,0,0,.8.8h6.435a.805.805,0,0,0,.8-.8V5.341a.805.805,0,0,0-.8-.8Z" transform="translate(-3.319 -1.855)" fill="#44c8f5"/>
    <path id="Path_15953" data-name="Path 15953" d="M2.877,11.262H2.341A1.342,1.342,0,0,1,1,9.921V1.341A1.342,1.342,0,0,1,2.341,0H8.776a1.342,1.342,0,0,1,1.341,1.341.268.268,0,1,1-.536,0,.805.805,0,0,0-.8-.8H2.341a.805.805,0,0,0-.8.8V9.921a.805.805,0,0,0,.8.8h.536a.268.268,0,0,1,0,.536Z" transform="translate(-1)" fill="#44c8f5"/>
    <g id="Group_17304" data-name="Group 17304" transform="translate(4.826 4.691)">
      <path id="Path_15954" data-name="Path 15954" d="M14.558,16.536h-4.29a.268.268,0,1,1,0-.536h4.29a.268.268,0,1,1,0,.536Z" transform="translate(-10 -12.602)" fill="#039"/>
      <path id="Path_15955" data-name="Path 15955" d="M14.558,20.536h-4.29a.268.268,0,1,1,0-.536h4.29a.268.268,0,1,1,0,.536Z" transform="translate(-10 -14.902)" fill="#039"/>
      <path id="Path_15956" data-name="Path 15956" d="M14.558,12.536h-4.29a.268.268,0,0,1,0-.536h4.29a.268.268,0,1,1,0,.536Z" transform="translate(-10 -10.301)" fill="#039"/>
      <path id="Path_15957" data-name="Path 15957" d="M14.558,8.536h-4.29a.268.268,0,0,1,0-.536h4.29a.268.268,0,1,1,0,.536Z" transform="translate(-10 -8)" fill="#039"/>
    </g>
  </g>
</svg>
