<svg xmlns="http://www.w3.org/2000/svg" width="19.963" height="25.096" viewBox="0 0 19.963 25.096">
  <g id="_8150379_retail_price_tag_price_tag_label_icon_1_" data-name="8150379_retail_price_tag_price tag_label_icon (1)" transform="translate(-5.176 -3.837)">
    <path id="Path_20936" data-name="Path 20936" d="M25.046,14.632,22.793,5.807a2.521,2.521,0,0,0-3.72-1.633L11.219,8.721a2.521,2.521,0,0,0-1.075,1.2L5.37,21.059a2.562,2.562,0,0,0,1.364,3.327l10.106,4.34a2.852,2.852,0,0,0,1.013.207,2.542,2.542,0,0,0,2.315-1.55l4.774-11.14A2.4,2.4,0,0,0,25.046,14.632Zm-1.633.93L18.556,26.7a.744.744,0,0,1-.434.434.806.806,0,0,1-.62,0L7.4,22.774a.806.806,0,0,1-.517-1.033L11.736,10.6a.723.723,0,0,1,.331-.372l7.874-4.485a.682.682,0,0,1,.393-.124.868.868,0,0,1,.31,0,.785.785,0,0,1,.475.537l2.294,8.908A.806.806,0,0,1,23.413,15.562Z" transform="translate(0 0)" fill="#44c8f5"/>
    <circle id="Ellipse_1331" data-name="Ellipse 1331" cx="1.881" cy="1.881" r="1.881" transform="translate(16.2 10.106)" fill="#039"/>
  </g>
</svg>
