<svg xmlns="http://www.w3.org/2000/svg" width="25.432" height="17.951" viewBox="0 0 25.432 17.951">
  <g id="Group_20448" data-name="Group 20448" transform="translate(5327.5 3461.35)">
    <g id="Group_20447" data-name="Group 20447">
      <path id="Icon_awesome-concierge-bell" data-name="Icon awesome-concierge-bell" d="M12.825,7.463V6.637h.712a.712.712,0,0,0,.712-.712V5.212a.712.712,0,0,0-.712-.712H9.262a.712.712,0,0,0-.712.712v.712a.712.712,0,0,0,.712.712h.712v.826a9.969,9.969,0,0,0-8.55,9.862H21.374A9.969,9.969,0,0,0,12.825,7.463Zm9.262,11.286H.712A.712.712,0,0,0,0,19.462v1.425a.712.712,0,0,0,.712.712H22.087a.712.712,0,0,0,.712-.712V19.462A.712.712,0,0,0,22.087,18.749Z" transform="translate(-5326.183 -3465.5)" fill="none" stroke="#44c8f5" stroke-width="0.7"/>
      <g id="Rectangle_9344" data-name="Rectangle 9344" transform="translate(-5327.5 -3447.2)" fill="#fff" stroke="#039" stroke-linecap="round" stroke-width="0.7">
        <rect width="25.432" height="3.8" rx="1.9" stroke="none"/>
        <rect x="0.35" y="0.35" width="24.732" height="3.1" rx="1.55" fill="none"/>
      </g>
    </g>
  </g>
</svg>
