<svg xmlns="http://www.w3.org/2000/svg" width="11.5" height="11.5" viewBox="0 0 11.5 11.5">
  <path id="Icon_material-person-outline" data-name="Icon material-person-outline" d="M11.75,7.366a1.509,1.509,0,1,1-1.509,1.509A1.509,1.509,0,0,1,11.75,7.366m0,6.469c2.135,0,4.384,1.049,4.384,1.509v.791H7.366v-.791c0-.46,2.25-1.509,4.384-1.509M11.75,6a2.875,2.875,0,1,0,2.875,2.875A2.874,2.874,0,0,0,11.75,6Zm0,6.469c-1.919,0-5.75.963-5.75,2.875V17.5H17.5V15.344C17.5,13.432,13.669,12.469,11.75,12.469Z" transform="translate(-6 -6)" fill="#039"/>
</svg>
